M48
; DRILL file {KiCad (6.0.0)} date Tue Feb 22 13:29:29 2022
; FORMAT={-:-/ absolute / inch / decimal}
; #@! TF.CreationDate,2022-02-22T13:29:29+00:00
; #@! TF.GenerationSoftware,Kicad,Pcbnew,(6.0.0)
; #@! TF.FileFunction,Plated,1,2,PTH
FMAT,2
INCH
; #@! TA.AperFunction,Plated,PTH,ComponentDrill
T1C0.0315
; #@! TA.AperFunction,Plated,PTH,ComponentDrill
T2C0.0394
; #@! TA.AperFunction,Plated,PTH,ComponentDrill
T3C0.0472
; #@! TA.AperFunction,Plated,PTH,ComponentDrill
T4C0.0610
; #@! TA.AperFunction,Plated,PTH,ComponentDrill
T5C0.0709
; #@! TA.AperFunction,Plated,PTH,ComponentDrill
T6C0.0750
; #@! TA.AperFunction,Plated,PTH,ComponentDrill
T7C0.0984
; #@! TA.AperFunction,Plated,PTH,ComponentDrill
T8C0.2165
%
G90
G05
T1
X2.3823Y-2.75
X2.3823Y-3.25
X2.6Y-2.75
X2.6Y-3.25
X3.029Y-5.7157
X3.029Y-5.8141
X3.0902Y-7.7406
X3.0902Y-7.9529
X3.1024Y-7.0609
X3.1024Y-7.5609
X3.1039Y-6.876
X3.1039Y-6.935
X3.1039Y-6.9941
X3.1047Y-6.4433
X3.1047Y-6.5024
X3.1047Y-6.5614
X3.1047Y-6.6197
X3.1047Y-6.8165
X3.2435Y-4.9523
X3.2435Y-5.4523
X3.3665Y-6.4575
X3.3665Y-6.9575
X3.4587Y-4.9524
X3.4587Y-5.4524
X3.5902Y-7.7406
X3.5902Y-7.9529
X3.8062Y-8.4598
X3.8062Y-8.5189
X3.8062Y-8.5779
X3.8062Y-8.6331
X3.8062Y-8.8299
X3.8062Y-8.8894
X3.8062Y-8.9484
X3.8062Y-9.0075
X4.0146Y-8.4815
X4.0146Y-8.9815
X4.217Y-8.4815
X4.217Y-8.9815
X4.4189Y-8.4811
X4.4189Y-8.9811
X4.6219Y-8.4811
X4.6219Y-8.9811
X4.8244Y-8.4811
X4.8244Y-8.9811
X4.8944Y-4.9508
X4.8944Y-5.4508
X5.113Y-4.9508
X5.113Y-5.4508
X5.3128Y-4.2836
X5.3128Y-4.382
X5.3445Y-7.2063
X5.3445Y-7.7063
X5.8687Y-2.75
X5.8687Y-3.25
X6.0169Y-2.75
X6.0169Y-3.25
X7.415Y-2.7488
X7.415Y-3.2488
X7.6283Y-2.7488
X7.6283Y-3.2488
X8.0449Y-5.7157
X8.0449Y-5.8141
X8.1272Y-7.7358
X8.1272Y-7.9464
X8.1548Y-7.0593
X8.1548Y-7.5593
X8.1551Y-6.8638
X8.1551Y-6.9228
X8.1551Y-6.9819
X8.1567Y-6.4295
X8.1567Y-6.4886
X8.1567Y-6.5476
X8.1567Y-6.6079
X8.1567Y-6.8047
X8.2803Y-4.9524
X8.2803Y-5.4524
X8.4185Y-6.4563
X8.4185Y-6.9563
X8.4913Y-4.9524
X8.4913Y-5.4524
X8.6272Y-7.7358
X8.6272Y-7.9464
X8.8386Y-8.45
X8.8386Y-8.5091
X8.8386Y-8.5682
X8.8386Y-8.6276
X8.8386Y-8.8244
X8.8406Y-8.8819
X8.8406Y-8.9409
X8.8406Y-9.0
X9.047Y-8.476
X9.047Y-8.976
X9.2494Y-8.476
X9.2494Y-8.976
X9.4519Y-8.476
X9.4519Y-8.976
X9.6544Y-8.476
X9.6544Y-8.976
X9.8568Y-8.476
X9.8568Y-8.976
X9.93Y-4.9524
X9.93Y-5.4524
X10.156Y-4.9524
X10.156Y-5.4524
X10.3409Y-4.2836
X10.3409Y-4.382
X10.4213Y-7.2063
X10.4213Y-7.7063
X10.9059Y-2.7457
X10.9059Y-3.2457
X11.0498Y-2.7465
X11.0498Y-3.2465
T2
X3.5641Y-3.0894
X3.5906Y-3.1681
X3.7874Y-3.1681
X3.8139Y-3.2469
X3.8894Y-7.6833
X3.8894Y-7.8833
X3.8894Y-8.0833
X4.0894Y-7.5833
X4.0894Y-8.1833
X4.2894Y-7.5833
X4.4894Y-7.6833
X4.4894Y-7.8833
X4.4894Y-8.0833
X4.5907Y-3.0894
X4.6171Y-3.1681
X4.814Y-3.1681
X4.8404Y-3.2469
X6.6362Y-4.9347
X6.6362Y-8.0436
X6.715Y-4.7114
X6.715Y-4.9083
X6.715Y-7.8203
X6.715Y-8.0172
X6.7937Y-4.685
X6.7937Y-7.7938
X8.5849Y-3.0894
X8.6113Y-3.1681
X8.8082Y-3.1681
X8.8347Y-3.2469
X8.9279Y-7.6829
X8.9279Y-7.8829
X8.9279Y-8.0829
X9.1279Y-7.5829
X9.1279Y-8.1829
X9.3279Y-7.5829
X9.5279Y-7.6829
X9.5279Y-7.8829
X9.5279Y-8.0829
X9.6288Y-3.0894
X9.6552Y-3.1681
X9.8521Y-3.1681
X9.8785Y-3.2469
T3
X2.6Y-3.5541
X2.6Y-4.6368
X3.0417Y-8.1876
X3.1382Y-3.0823
X3.1382Y-3.6823
X3.4507Y-1.7202
X3.6417Y-8.1876
X3.872Y-7.2394
X3.9921Y-6.0228
X3.9921Y-6.9087
X4.0507Y-1.7202
X4.1713Y-5.8697
X4.1713Y-6.128
X4.1713Y-6.3972
X4.1713Y-7.0094
X4.3126Y-1.7183
X4.352Y-6.0228
X4.352Y-6.9087
X4.472Y-7.2394
X4.9126Y-1.7183
X4.9232Y-6.5843
X4.9232Y-7.6669
X5.2544Y-3.0807
X5.2544Y-3.6807
X5.8027Y-3.5541
X5.8027Y-4.6368
X6.5764Y-6.0689
X6.5764Y-6.6689
X6.715Y-4.1299
X6.715Y-5.9016
X6.715Y-6.8323
X6.715Y-8.6039
X6.8535Y-6.0693
X6.8535Y-6.6693
X7.6254Y-3.5465
X7.6254Y-4.6291
X8.0772Y-8.1827
X8.1713Y-3.0823
X8.1713Y-3.6823
X8.5043Y-1.7183
X8.6772Y-8.1827
X8.9331Y-7.2378
X9.048Y-6.0228
X9.048Y-6.9087
X9.1043Y-1.7183
X9.2331Y-5.8697
X9.2331Y-6.128
X9.2331Y-6.3972
X9.2331Y-7.0094
X9.3471Y-1.7183
X9.4078Y-6.0228
X9.4078Y-6.9087
X9.5331Y-7.2378
X9.9471Y-1.7183
X9.9642Y-6.5791
X9.9642Y-7.6618
X10.2846Y-3.0823
X10.2846Y-3.6823
X10.8321Y-3.5496
X10.8321Y-4.6323
T4
X2.5992Y-6.2437
X2.5992Y-6.4681
X4.5255Y-2.0146
X5.754Y-1.7622
X5.8776Y-8.9205
X6.1531Y-8.9205
X6.7156Y-2.9256
X6.7156Y-3.193
X7.2756Y-8.9205
X7.5512Y-8.9205
X9.5839Y-2.0264
X10.791Y-1.7748
T5
X2.7399Y-2.3286
X2.8399Y-2.0286
X2.8399Y-2.6286
X3.1399Y-1.9286
X3.1399Y-2.7286
X3.4399Y-2.0286
X3.4399Y-2.6286
X3.5399Y-2.3286
X3.7894Y-4.9531
X3.8894Y-4.6531
X3.8894Y-5.2531
X4.1894Y-4.5531
X4.1894Y-5.3531
X4.4894Y-4.6531
X4.4894Y-5.2531
X4.5894Y-4.9531
X4.854Y-2.328
X4.954Y-2.028
X4.954Y-2.628
X5.254Y-1.928
X5.254Y-2.728
X5.554Y-2.028
X5.554Y-2.628
X5.654Y-2.328
X7.7713Y-2.3276
X7.8713Y-2.0276
X7.8713Y-2.6276
X8.1713Y-1.9276
X8.1713Y-2.7276
X8.4713Y-2.0276
X8.4713Y-2.6276
X8.5713Y-2.3276
X8.8279Y-4.9527
X8.9279Y-4.6527
X8.9279Y-5.2527
X9.2279Y-4.5527
X9.2279Y-5.3527
X9.5279Y-4.6527
X9.5279Y-5.2527
X9.6279Y-4.9527
X9.8846Y-2.3276
X9.9846Y-2.0276
X9.9846Y-2.6276
X10.2846Y-1.9276
X10.2846Y-2.7276
X10.5846Y-2.0276
X10.5846Y-2.6276
X10.6846Y-2.3276
T6
X5.6841Y-6.853
X5.6841Y-7.129
X5.8811Y-6.853
X5.8811Y-7.129
X6.338Y-2.2736
X6.338Y-2.5496
X6.535Y-2.2736
X6.535Y-2.5496
X6.9161Y-2.2736
X6.9161Y-2.5496
X7.1131Y-2.2736
X7.1131Y-2.5496
X7.5538Y-6.853
X7.5538Y-7.129
X7.7508Y-6.853
X7.7508Y-7.129
T7
X5.7811Y-6.9907
X6.438Y-2.4118
X7.0161Y-2.4118
X7.6508Y-6.9907
T8
X3.1399Y-2.3286
X4.1894Y-4.9531
X5.254Y-2.328
X8.1713Y-2.3276
X9.2279Y-4.9527
X10.2846Y-2.3276
T0
M30
