%TF.GenerationSoftware,KiCad,Pcbnew,(6.0.0)*%
%TF.CreationDate,2022-02-22T13:29:26+00:00*%
%TF.ProjectId,Audionote Kit four v2,41756469-6f6e-46f7-9465-204b69742066,rev?*%
%TF.SameCoordinates,Original*%
%TF.FileFunction,Soldermask,Top*%
%TF.FilePolarity,Negative*%
%FSLAX46Y46*%
G04 Gerber Fmt 4.6, Leading zero omitted, Abs format (unit mm)*
G04 Created by KiCad (PCBNEW (6.0.0)) date 2022-02-22 13:29:26*
%MOMM*%
%LPD*%
G01*
G04 APERTURE LIST*
G04 Aperture macros list*
%AMRoundRect*
0 Rectangle with rounded corners*
0 $1 Rounding radius*
0 $2 $3 $4 $5 $6 $7 $8 $9 X,Y pos of 4 corners*
0 Add a 4 corners polygon primitive as box body*
4,1,4,$2,$3,$4,$5,$6,$7,$8,$9,$2,$3,0*
0 Add four circle primitives for the rounded corners*
1,1,$1+$1,$2,$3*
1,1,$1+$1,$4,$5*
1,1,$1+$1,$6,$7*
1,1,$1+$1,$8,$9*
0 Add four rect primitives between the rounded corners*
20,1,$1+$1,$2,$3,$4,$5,0*
20,1,$1+$1,$4,$5,$6,$7,0*
20,1,$1+$1,$6,$7,$8,$9,0*
20,1,$1+$1,$8,$9,$2,$3,0*%
G04 Aperture macros list end*
%ADD10C,1.600000*%
%ADD11O,1.600000X1.600000*%
%ADD12C,3.200000*%
%ADD13R,2.000000X2.000000*%
%ADD14C,2.000000*%
%ADD15C,2.400000*%
%ADD16O,2.400000X2.400000*%
%ADD17C,4.000000*%
%ADD18C,9.000000*%
%ADD19RoundRect,0.249999X-1.025001X-1.025001X1.025001X-1.025001X1.025001X1.025001X-1.025001X1.025001X0*%
%ADD20C,6.000000*%
%ADD21R,3.810000X3.810000*%
%ADD22C,3.810000*%
%ADD23R,2.400000X2.400000*%
%ADD24R,2.540000X2.540000*%
%ADD25C,2.540000*%
%ADD26R,1.600000X1.600000*%
%ADD27RoundRect,0.249999X-1.025001X1.025001X-1.025001X-1.025001X1.025001X-1.025001X1.025001X1.025001X0*%
%ADD28RoundRect,0.250002X1.499998X1.499998X-1.499998X1.499998X-1.499998X-1.499998X1.499998X-1.499998X0*%
%ADD29C,3.500000*%
%ADD30RoundRect,0.250002X-1.499998X-1.499998X1.499998X-1.499998X1.499998X1.499998X-1.499998X1.499998X0*%
G04 APERTURE END LIST*
D10*
%TO.C,R35*%
X229793149Y-215290000D03*
D11*
X229793149Y-227990000D03*
%TD*%
D12*
%TO.C,REF\u002A\u002A*%
X281780000Y-235800000D03*
%TD*%
D10*
%TO.C,R20*%
X60510000Y-69850000D03*
D11*
X60510000Y-82550000D03*
%TD*%
D10*
%TO.C,6*%
X96677205Y-228790000D03*
%TD*%
%TO.C,1*%
X224500590Y-216131181D03*
%TD*%
D13*
%TO.C,C15*%
X91201072Y-80470000D03*
X90528928Y-78470000D03*
D14*
X96873216Y-82470000D03*
X96201072Y-80470000D03*
%TD*%
D10*
%TO.C,*%
X78860000Y-165160000D03*
%TD*%
D12*
%TO.C,REF\u002A\u002A*%
X193684892Y-136720000D03*
%TD*%
D15*
%TO.C,R53*%
X207550000Y-93530000D03*
D16*
X207550000Y-78290000D03*
%TD*%
D10*
%TO.C,2*%
X224500590Y-217631181D03*
%TD*%
D15*
%TO.C,R37*%
X205160000Y-207840000D03*
D16*
X220400000Y-207840000D03*
%TD*%
D10*
%TO.C,*%
X78860000Y-166660000D03*
%TD*%
%TO.C,R13*%
X135750000Y-183040000D03*
D11*
X135750000Y-195740000D03*
%TD*%
D10*
%TO.C,R34*%
X207132957Y-192006184D03*
D11*
X207132957Y-179306184D03*
%TD*%
D17*
%TO.C,REF\u002A\u002A*%
X180673800Y-64760400D03*
X180673800Y-57750000D03*
X175670000Y-64760400D03*
X175670000Y-57750000D03*
D18*
X178210000Y-61260400D03*
%TD*%
D15*
%TO.C,R26*%
X87648640Y-43693914D03*
D16*
X102888640Y-43693914D03*
%TD*%
D12*
%TO.C,REF\u002A\u002A*%
X147389381Y-136720000D03*
%TD*%
D15*
%TO.C,C12*%
X66039337Y-117774579D03*
X66039337Y-90274579D03*
%TD*%
%TO.C,*%
X105950000Y-155650000D03*
%TD*%
D19*
%TO.C,RFb*%
X66020000Y-158590687D03*
%TD*%
D10*
%TO.C,*%
X78860000Y-163660000D03*
%TD*%
D20*
%TO.C,U3*%
X79753555Y-59146499D03*
D21*
X87373555Y-66766499D03*
D22*
X89913555Y-59146499D03*
X87373555Y-51526499D03*
X79753555Y-48986499D03*
X72133555Y-51526499D03*
X69593555Y-59146499D03*
X72133555Y-66766499D03*
X79753555Y-69306499D03*
%TD*%
D19*
%TO.C,F1a*%
X170576000Y-74310000D03*
%TD*%
D23*
%TO.C,REF\u002A\u002A*%
X170560000Y-149900000D03*
D16*
X170560000Y-104900000D03*
%TD*%
D24*
%TO.C,U1*%
X114030000Y-205316894D03*
D25*
X114030000Y-200236894D03*
X114030000Y-195156894D03*
X108950000Y-192616894D03*
X103870000Y-192616894D03*
X98790000Y-195156894D03*
X98790000Y-200236894D03*
X98790000Y-205316894D03*
X103870000Y-207856894D03*
%TD*%
D10*
%TO.C,R12*%
X117397441Y-228120000D03*
D11*
X117397441Y-215420000D03*
%TD*%
D10*
%TO.C,*%
X224500590Y-214631181D03*
%TD*%
%TO.C,3*%
X224550000Y-227100000D03*
%TD*%
D12*
%TO.C,REF\u002A\u002A*%
X59670000Y-235800000D03*
%TD*%
D15*
%TO.C,R27*%
X109540096Y-43643914D03*
D16*
X124780096Y-43643914D03*
%TD*%
D10*
%TO.C,R3*%
X85510000Y-176720000D03*
D11*
X85510000Y-164020000D03*
%TD*%
D10*
%TO.C,R21*%
X152830000Y-82550000D03*
D11*
X152830000Y-69850000D03*
%TD*%
D19*
%TO.C,F1b*%
X170576000Y-81101867D03*
%TD*%
D10*
%TO.C,R14*%
X87850000Y-125790000D03*
D11*
X87850000Y-138490000D03*
%TD*%
D10*
%TO.C,7*%
X96677205Y-216379483D03*
%TD*%
%TO.C,R22*%
X66040000Y-82550000D03*
D11*
X66040000Y-69850000D03*
%TD*%
D12*
%TO.C,REF\u002A\u002A*%
X59670000Y-136720000D03*
%TD*%
D19*
%TO.C,J12*%
X274091039Y-45080000D03*
%TD*%
%TO.C,J9*%
X114948544Y-51170000D03*
%TD*%
D10*
%TO.C,R4*%
X78801979Y-192046184D03*
D11*
X78801979Y-179346184D03*
%TD*%
D17*
%TO.C,REF\u002A\u002A*%
X196870000Y-174065000D03*
D18*
X194330000Y-177565000D03*
D17*
X196870000Y-181075400D03*
X191866200Y-181075400D03*
X191866200Y-174065000D03*
%TD*%
D10*
%TO.C,C1*%
X78860000Y-168140000D03*
X78860000Y-173140000D03*
%TD*%
D15*
%TO.C,R24*%
X79710555Y-93530000D03*
D16*
X79710555Y-78290000D03*
%TD*%
D15*
%TO.C,*%
X234520212Y-155650000D03*
%TD*%
D20*
%TO.C,U4*%
X133451899Y-59130000D03*
D21*
X141071899Y-66750000D03*
D22*
X143611899Y-59130000D03*
X141071899Y-51510000D03*
X133451899Y-48970000D03*
X125831899Y-51510000D03*
X123291899Y-59130000D03*
X125831899Y-66750000D03*
X133451899Y-69290000D03*
%TD*%
D10*
%TO.C,R32*%
X206430000Y-196488141D03*
D11*
X219130000Y-196488141D03*
%TD*%
D13*
%TO.C,C31*%
X218728198Y-80470000D03*
X218056054Y-78470000D03*
D14*
X224400342Y-82470000D03*
X223728198Y-80470000D03*
%TD*%
D10*
%TO.C,R50*%
X280664958Y-82460000D03*
D11*
X280664958Y-69760000D03*
%TD*%
D15*
%TO.C,R38*%
X242140212Y-183840000D03*
D16*
X226900212Y-183840000D03*
%TD*%
D10*
%TO.C,R45*%
X210320000Y-125790000D03*
D11*
X210320000Y-138490000D03*
%TD*%
D15*
%TO.C,R9*%
X113590000Y-183880000D03*
D16*
X98350000Y-183880000D03*
%TD*%
D10*
%TO.C,R46*%
X257962382Y-138490000D03*
D11*
X257962382Y-125790000D03*
%TD*%
D10*
%TO.C,R15*%
X124317802Y-138450000D03*
D11*
X124317802Y-125750000D03*
%TD*%
D13*
%TO.C,C16*%
X122275052Y-80470000D03*
X122947196Y-82470000D03*
D14*
X116602908Y-78470000D03*
X117275052Y-80470000D03*
%TD*%
D15*
%TO.C,*%
X105950000Y-162490000D03*
%TD*%
D13*
%TO.C,C8*%
X168560000Y-125342544D03*
X170560000Y-124670400D03*
D14*
X172560000Y-118998256D03*
X170560000Y-119670400D03*
%TD*%
D12*
%TO.C,REF\u002A\u002A*%
X170560000Y-235820000D03*
%TD*%
D10*
%TO.C,R36*%
X234935708Y-227990000D03*
D11*
X234935708Y-215290000D03*
%TD*%
D15*
%TO.C,C22*%
X229818408Y-175480000D03*
X229818408Y-152980000D03*
%TD*%
D13*
%TO.C,C32*%
X250915005Y-82470000D03*
X250242861Y-80470000D03*
D14*
X244570717Y-78470000D03*
X245242861Y-80470000D03*
%TD*%
D10*
%TO.C,R33*%
X213830000Y-176690000D03*
D11*
X213830000Y-163990000D03*
%TD*%
D10*
%TO.C,R10*%
X112240000Y-215420000D03*
D11*
X112240000Y-228120000D03*
%TD*%
D15*
%TO.C,*%
X234520212Y-149090000D03*
%TD*%
D10*
%TO.C,*%
X207180000Y-163310000D03*
%TD*%
D26*
%TO.C,C26*%
X204339529Y-145178551D03*
D10*
X204339529Y-147678551D03*
%TD*%
D15*
%TO.C,R56*%
X237416753Y-43643914D03*
D16*
X252656753Y-43643914D03*
%TD*%
D27*
%TO.C,LFb*%
X66020000Y-164290687D03*
%TD*%
D12*
%TO.C,REF\u002A\u002A*%
X281780000Y-136720000D03*
%TD*%
D10*
%TO.C,R2*%
X78490000Y-196612166D03*
D11*
X91190000Y-196612166D03*
%TD*%
D10*
%TO.C,4*%
X224550000Y-228600000D03*
%TD*%
%TO.C,C4*%
X96677205Y-224280000D03*
X96677205Y-219280000D03*
%TD*%
%TO.C,5*%
X96677205Y-227290000D03*
%TD*%
D13*
%TO.C,C2*%
X170560000Y-198635757D03*
X172560000Y-197963613D03*
D14*
X170560000Y-203635757D03*
X168560000Y-204307901D03*
%TD*%
D10*
%TO.C,R41*%
X245220826Y-227990000D03*
D11*
X245220826Y-215290000D03*
%TD*%
D10*
%TO.C,*%
X224550000Y-225600000D03*
%TD*%
D15*
%TO.C,R54*%
X261230000Y-93530000D03*
D16*
X261230000Y-78290000D03*
%TD*%
D15*
%TO.C,C11*%
X147389381Y-117774579D03*
X147389381Y-90274579D03*
%TD*%
%TO.C,*%
X234520212Y-162490000D03*
%TD*%
D24*
%TO.C,U5*%
X242008408Y-205306894D03*
D25*
X242008408Y-200226894D03*
X242008408Y-195146894D03*
X236928408Y-192606894D03*
X231848408Y-192606894D03*
X226768408Y-195146894D03*
X226768408Y-200226894D03*
X226768408Y-205306894D03*
X231848408Y-207846894D03*
%TD*%
D10*
%TO.C,*%
X96677205Y-214879483D03*
%TD*%
%TO.C,R39*%
X240078267Y-215290000D03*
D11*
X240078267Y-227990000D03*
%TD*%
D15*
%TO.C,C28*%
X275134737Y-117660000D03*
X275134737Y-90160000D03*
%TD*%
%TO.C,R55*%
X216009124Y-43643914D03*
D16*
X231249124Y-43643914D03*
%TD*%
D10*
%TO.C,R44*%
X252222382Y-138490000D03*
D11*
X252222382Y-125790000D03*
%TD*%
D10*
%TO.C,*%
X207140000Y-174340000D03*
%TD*%
D15*
%TO.C,C5*%
X101400000Y-175480000D03*
X101400000Y-152980000D03*
%TD*%
D20*
%TO.C,U7*%
X207550000Y-59120000D03*
D21*
X215170000Y-66740000D03*
D22*
X217710000Y-59120000D03*
X215170000Y-51500000D03*
X207550000Y-48960000D03*
X199930000Y-51500000D03*
X197390000Y-59120000D03*
X199930000Y-66740000D03*
X207550000Y-69280000D03*
%TD*%
D10*
%TO.C,*%
X78840000Y-174650000D03*
%TD*%
%TO.C,9*%
X78840000Y-176150000D03*
%TD*%
D26*
%TO.C,C10*%
X134945847Y-108803959D03*
D10*
X134945847Y-111303959D03*
%TD*%
%TO.C,*%
X96677205Y-225790000D03*
%TD*%
%TO.C,*%
X207140000Y-177340000D03*
%TD*%
D15*
%TO.C,C7*%
X110540000Y-152980000D03*
X110540000Y-175480000D03*
%TD*%
%TO.C,C29*%
X193684892Y-117580000D03*
X193684892Y-90080000D03*
%TD*%
D10*
%TO.C,R17*%
X129870000Y-138450000D03*
D11*
X129870000Y-125750000D03*
%TD*%
D19*
%TO.C,J10*%
X146151135Y-44760000D03*
%TD*%
D10*
%TO.C,C21*%
X224500590Y-224140000D03*
X224500590Y-219140000D03*
%TD*%
D12*
%TO.C,REF\u002A\u002A*%
X170560000Y-61270000D03*
%TD*%
D23*
%TO.C,REF\u002A\u002A*%
X170560000Y-173540000D03*
D16*
X170560000Y-218540000D03*
%TD*%
D10*
%TO.C,R51*%
X193758643Y-82520000D03*
D11*
X193758643Y-69820000D03*
%TD*%
D26*
%TO.C,C9*%
X76936617Y-145178551D03*
D10*
X76936617Y-147678551D03*
%TD*%
%TO.C,R31*%
X206430000Y-201839070D03*
D11*
X219130000Y-201839070D03*
%TD*%
D10*
%TO.C,*%
X207140000Y-175840000D03*
%TD*%
D15*
%TO.C,R19*%
X174080000Y-169400163D03*
D16*
X174080000Y-154160163D03*
%TD*%
D19*
%TO.C,J11*%
X243429904Y-51470000D03*
%TD*%
D15*
%TO.C,C6*%
X125050000Y-194740000D03*
X125050000Y-167240000D03*
%TD*%
D10*
%TO.C,10*%
X78840000Y-177650000D03*
%TD*%
D28*
%TO.C,In Right *%
X191800000Y-226579930D03*
D29*
X184800000Y-226579930D03*
%TD*%
D17*
%TO.C,REF\u002A\u002A*%
X165988239Y-57750000D03*
X160984439Y-57750000D03*
X160984439Y-64760400D03*
X165988239Y-64760400D03*
D18*
X163524439Y-61260400D03*
%TD*%
D10*
%TO.C,R5*%
X101969764Y-215430000D03*
D11*
X101969764Y-228130000D03*
%TD*%
D20*
%TO.C,U8*%
X261230000Y-59120000D03*
D21*
X268850000Y-66740000D03*
D22*
X271390000Y-59120000D03*
X268850000Y-51500000D03*
X261230000Y-48960000D03*
X253610000Y-51500000D03*
X251070000Y-59120000D03*
X253610000Y-66740000D03*
X261230000Y-69280000D03*
%TD*%
D10*
%TO.C,*%
X207180000Y-166310000D03*
%TD*%
%TO.C,R16*%
X82384758Y-125789615D03*
D11*
X82384758Y-138489615D03*
%TD*%
D15*
%TO.C,C24*%
X238958408Y-152980000D03*
X238958408Y-175480000D03*
%TD*%
D10*
%TO.C,8*%
X96677205Y-217879483D03*
%TD*%
%TO.C,R42*%
X264700000Y-183040000D03*
D11*
X264700000Y-195740000D03*
%TD*%
D20*
%TO.C,U2*%
X106410000Y-125808979D03*
D21*
X114030000Y-133428979D03*
D22*
X116570000Y-125808979D03*
X114030000Y-118188979D03*
X106410000Y-115648979D03*
X98790000Y-118188979D03*
X96250000Y-125808979D03*
X98790000Y-133428979D03*
X106410000Y-135968979D03*
%TD*%
D10*
%TO.C,R52*%
X277010035Y-69740000D03*
D11*
X277010035Y-82440000D03*
%TD*%
D10*
%TO.C,*%
X207180000Y-164810000D03*
%TD*%
%TO.C,R49*%
X188342004Y-69820000D03*
D11*
X188342004Y-82520000D03*
%TD*%
D15*
%TO.C,*%
X105950000Y-178040000D03*
%TD*%
D10*
%TO.C,R1*%
X78490000Y-202002975D03*
D11*
X91190000Y-202002975D03*
%TD*%
D10*
%TO.C,R43*%
X215680000Y-125790000D03*
D11*
X215680000Y-138490000D03*
%TD*%
D20*
%TO.C,U6*%
X234388408Y-125798979D03*
D21*
X242008408Y-133418979D03*
D22*
X244548408Y-125798979D03*
X242008408Y-118178979D03*
X234388408Y-115638979D03*
X226768408Y-118178979D03*
X224228408Y-125798979D03*
X226768408Y-133418979D03*
X234388408Y-135958979D03*
%TD*%
D15*
%TO.C,R8*%
X77260000Y-207964025D03*
D16*
X92500000Y-207964025D03*
%TD*%
D10*
%TO.C,R11*%
X122540000Y-215420000D03*
D11*
X122540000Y-228120000D03*
%TD*%
D26*
%TO.C,C27*%
X262660000Y-108803959D03*
D10*
X262660000Y-111303959D03*
%TD*%
D15*
%TO.C,*%
X105950000Y-149090000D03*
%TD*%
%TO.C,R18*%
X167040000Y-154150000D03*
D16*
X167040000Y-169390000D03*
%TD*%
D10*
%TO.C,R40*%
X250363385Y-215290000D03*
D11*
X250363385Y-227990000D03*
%TD*%
D10*
%TO.C,R23*%
X149065427Y-69850000D03*
D11*
X149065427Y-82550000D03*
%TD*%
D12*
%TO.C,REF\u002A\u002A*%
X59670000Y-37640000D03*
%TD*%
D30*
%TO.C,IN Left*%
X149290000Y-226579930D03*
D29*
X156290000Y-226579930D03*
%TD*%
D15*
%TO.C,R25*%
X133461986Y-93490000D03*
D16*
X133461986Y-78250000D03*
%TD*%
D10*
%TO.C,R6*%
X107112323Y-228130000D03*
D11*
X107112323Y-215430000D03*
%TD*%
D15*
%TO.C,C23*%
X253090000Y-194610000D03*
X253090000Y-167110000D03*
%TD*%
%TO.C,*%
X234520212Y-178040000D03*
%TD*%
D10*
%TO.C,C19*%
X207180000Y-167840000D03*
X207180000Y-172840000D03*
%TD*%
D17*
%TO.C,REF\u002A\u002A*%
X149380000Y-174065000D03*
X144376200Y-174065000D03*
X149380000Y-181075400D03*
D18*
X146840000Y-177565000D03*
D17*
X144376200Y-181075400D03*
%TD*%
D12*
%TO.C,REF\u002A\u002A*%
X281780000Y-37640000D03*
%TD*%
M02*
