%TF.GenerationSoftware,KiCad,Pcbnew,(5.1.10)-1*%
%TF.CreationDate,2021-10-22T00:50:49+01:00*%
%TF.ProjectId,RCA BOOARD,52434120-424f-44f4-9152-442e6b696361,rev?*%
%TF.SameCoordinates,Original*%
%TF.FileFunction,Copper,L2,Bot*%
%TF.FilePolarity,Positive*%
%FSLAX46Y46*%
G04 Gerber Fmt 4.6, Leading zero omitted, Abs format (unit mm)*
G04 Created by KiCad (PCBNEW (5.1.10)-1) date 2021-10-22 00:50:49*
%MOMM*%
%LPD*%
G01*
G04 APERTURE LIST*
%TA.AperFunction,ComponentPad*%
%ADD10C,2.300000*%
%TD*%
%TA.AperFunction,ComponentPad*%
%ADD11C,3.000000*%
%TD*%
%TA.AperFunction,ComponentPad*%
%ADD12C,1.500000*%
%TD*%
%TA.AperFunction,Conductor*%
%ADD13C,0.250000*%
%TD*%
%TA.AperFunction,Conductor*%
%ADD14C,2.600000*%
%TD*%
%TA.AperFunction,Conductor*%
%ADD15C,3.500000*%
%TD*%
%TA.AperFunction,Conductor*%
%ADD16C,5.000000*%
%TD*%
%TA.AperFunction,NonConductor*%
%ADD17C,0.254000*%
%TD*%
%TA.AperFunction,NonConductor*%
%ADD18C,0.100000*%
%TD*%
G04 APERTURE END LIST*
D10*
%TO.P, ,1*%
%TO.N,N/C*%
X153670000Y-114300000D03*
%TD*%
%TO.P, ,1*%
%TO.N,N/C*%
X143510000Y-114300000D03*
%TD*%
%TO.P, ,1*%
%TO.N,N/C*%
X139700000Y-114300000D03*
%TD*%
%TO.P, ,1*%
%TO.N,N/C*%
X129540000Y-114300000D03*
%TD*%
D11*
%TO.P,RCA 4LEG,1*%
%TO.N,N/C*%
X148620000Y-101590000D03*
%TO.P,RCA 4LEG,2*%
X158720000Y-101590000D03*
D12*
%TO.P,RCA 4LEG,3*%
X153670000Y-106690000D03*
%TO.P,RCA 4LEG,4*%
X151170000Y-106690000D03*
%TD*%
%TO.P,RCA 4LEG,4*%
%TO.N,N/C*%
X127040000Y-106690000D03*
%TO.P,RCA 4LEG,3*%
X129540000Y-106690000D03*
D11*
%TO.P,RCA 4LEG,2*%
X134590000Y-101590000D03*
%TO.P,RCA 4LEG,1*%
X124490000Y-101590000D03*
%TD*%
D13*
%TO.N,*%
X143560000Y-114300000D02*
X143510000Y-114300000D01*
D14*
X127000000Y-104140000D02*
X127000000Y-109220000D01*
X151130000Y-104140000D02*
X151130000Y-107950000D01*
D15*
X147320000Y-114300000D02*
X135890000Y-114300000D01*
D16*
X123190000Y-101600000D02*
X160720000Y-101600000D01*
%TD*%
D17*
X164440001Y-116180000D02*
X148788709Y-116180000D01*
X149014609Y-115994609D01*
X149312649Y-115631446D01*
X149534113Y-115217116D01*
X149670490Y-114767542D01*
X149716539Y-114300000D01*
X149699224Y-114124193D01*
X151885000Y-114124193D01*
X151885000Y-114475807D01*
X151953596Y-114820665D01*
X152088153Y-115145515D01*
X152283500Y-115437871D01*
X152532129Y-115686500D01*
X152824485Y-115881847D01*
X153149335Y-116016404D01*
X153494193Y-116085000D01*
X153845807Y-116085000D01*
X154190665Y-116016404D01*
X154515515Y-115881847D01*
X154807871Y-115686500D01*
X155056500Y-115437871D01*
X155251847Y-115145515D01*
X155386404Y-114820665D01*
X155455000Y-114475807D01*
X155455000Y-114124193D01*
X155386404Y-113779335D01*
X155251847Y-113454485D01*
X155056500Y-113162129D01*
X154807871Y-112913500D01*
X154515515Y-112718153D01*
X154190665Y-112583596D01*
X153845807Y-112515000D01*
X153494193Y-112515000D01*
X153149335Y-112583596D01*
X152824485Y-112718153D01*
X152532129Y-112913500D01*
X152283500Y-113162129D01*
X152088153Y-113454485D01*
X151953596Y-113779335D01*
X151885000Y-114124193D01*
X149699224Y-114124193D01*
X149670490Y-113832458D01*
X149534113Y-113382884D01*
X149312649Y-112968554D01*
X149014609Y-112605391D01*
X148651446Y-112307351D01*
X148237116Y-112085887D01*
X147787542Y-111949510D01*
X147437157Y-111915000D01*
X135772843Y-111915000D01*
X135422458Y-111949510D01*
X134972884Y-112085887D01*
X134558554Y-112307351D01*
X134195391Y-112605391D01*
X133897351Y-112968554D01*
X133675887Y-113382884D01*
X133539510Y-113832458D01*
X133493461Y-114300000D01*
X133539510Y-114767542D01*
X133675887Y-115217116D01*
X133897351Y-115631446D01*
X134195391Y-115994609D01*
X134421291Y-116180000D01*
X118770000Y-116180000D01*
X118770000Y-114124193D01*
X127755000Y-114124193D01*
X127755000Y-114475807D01*
X127823596Y-114820665D01*
X127958153Y-115145515D01*
X128153500Y-115437871D01*
X128402129Y-115686500D01*
X128694485Y-115881847D01*
X129019335Y-116016404D01*
X129364193Y-116085000D01*
X129715807Y-116085000D01*
X130060665Y-116016404D01*
X130385515Y-115881847D01*
X130677871Y-115686500D01*
X130926500Y-115437871D01*
X131121847Y-115145515D01*
X131256404Y-114820665D01*
X131325000Y-114475807D01*
X131325000Y-114124193D01*
X131256404Y-113779335D01*
X131121847Y-113454485D01*
X130926500Y-113162129D01*
X130677871Y-112913500D01*
X130385515Y-112718153D01*
X130060665Y-112583596D01*
X129715807Y-112515000D01*
X129364193Y-112515000D01*
X129019335Y-112583596D01*
X128694485Y-112718153D01*
X128402129Y-112913500D01*
X128153500Y-113162129D01*
X127958153Y-113454485D01*
X127823596Y-113779335D01*
X127755000Y-114124193D01*
X118770000Y-114124193D01*
X118770000Y-101600000D01*
X120039832Y-101600000D01*
X120100362Y-102214567D01*
X120279624Y-102805517D01*
X120570731Y-103350140D01*
X120962495Y-103827505D01*
X121439860Y-104219269D01*
X121984483Y-104510376D01*
X122575433Y-104689638D01*
X123035998Y-104735000D01*
X125065000Y-104735000D01*
X125065001Y-109315055D01*
X125092999Y-109599326D01*
X125203645Y-109964075D01*
X125383323Y-110300230D01*
X125625129Y-110594872D01*
X125919771Y-110836678D01*
X126255926Y-111016356D01*
X126620675Y-111127002D01*
X127000000Y-111164362D01*
X127379326Y-111127002D01*
X127744075Y-111016356D01*
X128080230Y-110836678D01*
X128374872Y-110594872D01*
X128616678Y-110300230D01*
X128796356Y-109964075D01*
X128907002Y-109599326D01*
X128935000Y-109315055D01*
X128935000Y-107938514D01*
X129136011Y-108021775D01*
X129403589Y-108075000D01*
X129676411Y-108075000D01*
X129943989Y-108021775D01*
X130196043Y-107917371D01*
X130422886Y-107765799D01*
X130615799Y-107572886D01*
X130767371Y-107346043D01*
X130871775Y-107093989D01*
X130925000Y-106826411D01*
X130925000Y-106553589D01*
X130871775Y-106286011D01*
X130767371Y-106033957D01*
X130615799Y-105807114D01*
X130422886Y-105614201D01*
X130196043Y-105462629D01*
X129943989Y-105358225D01*
X129676411Y-105305000D01*
X129403589Y-105305000D01*
X129136011Y-105358225D01*
X128935000Y-105441486D01*
X128935000Y-104735000D01*
X149195000Y-104735000D01*
X149195001Y-108045055D01*
X149222999Y-108329326D01*
X149333645Y-108694075D01*
X149513323Y-109030230D01*
X149755129Y-109324872D01*
X150049771Y-109566678D01*
X150385926Y-109746356D01*
X150750675Y-109857002D01*
X151130000Y-109894362D01*
X151509326Y-109857002D01*
X151874075Y-109746356D01*
X152210230Y-109566678D01*
X152504872Y-109324872D01*
X152746678Y-109030230D01*
X152926356Y-108694075D01*
X153037002Y-108329326D01*
X153065000Y-108045055D01*
X153065000Y-107938514D01*
X153266011Y-108021775D01*
X153533589Y-108075000D01*
X153806411Y-108075000D01*
X154073989Y-108021775D01*
X154326043Y-107917371D01*
X154552886Y-107765799D01*
X154745799Y-107572886D01*
X154897371Y-107346043D01*
X155001775Y-107093989D01*
X155055000Y-106826411D01*
X155055000Y-106553589D01*
X155001775Y-106286011D01*
X154897371Y-106033957D01*
X154745799Y-105807114D01*
X154552886Y-105614201D01*
X154326043Y-105462629D01*
X154073989Y-105358225D01*
X153806411Y-105305000D01*
X153533589Y-105305000D01*
X153266011Y-105358225D01*
X153065000Y-105441486D01*
X153065000Y-104735000D01*
X160874002Y-104735000D01*
X161334567Y-104689638D01*
X161925517Y-104510376D01*
X162470140Y-104219269D01*
X162947505Y-103827505D01*
X163339269Y-103350140D01*
X163630376Y-102805517D01*
X163809638Y-102214567D01*
X163870168Y-101600000D01*
X163809638Y-100985433D01*
X163630376Y-100394483D01*
X163339269Y-99849860D01*
X162947505Y-99372495D01*
X162470140Y-98980731D01*
X161925517Y-98689624D01*
X161334567Y-98510362D01*
X160874002Y-98465000D01*
X123035998Y-98465000D01*
X122575433Y-98510362D01*
X121984483Y-98689624D01*
X121439860Y-98980731D01*
X120962495Y-99372495D01*
X120570731Y-99849860D01*
X120279624Y-100394483D01*
X120100362Y-100985433D01*
X120039832Y-101600000D01*
X118770000Y-101600000D01*
X118770000Y-93370000D01*
X164440000Y-93370000D01*
X164440001Y-116180000D01*
%TA.AperFunction,NonConductor*%
D18*
G36*
X164440001Y-116180000D02*
G01*
X148788709Y-116180000D01*
X149014609Y-115994609D01*
X149312649Y-115631446D01*
X149534113Y-115217116D01*
X149670490Y-114767542D01*
X149716539Y-114300000D01*
X149699224Y-114124193D01*
X151885000Y-114124193D01*
X151885000Y-114475807D01*
X151953596Y-114820665D01*
X152088153Y-115145515D01*
X152283500Y-115437871D01*
X152532129Y-115686500D01*
X152824485Y-115881847D01*
X153149335Y-116016404D01*
X153494193Y-116085000D01*
X153845807Y-116085000D01*
X154190665Y-116016404D01*
X154515515Y-115881847D01*
X154807871Y-115686500D01*
X155056500Y-115437871D01*
X155251847Y-115145515D01*
X155386404Y-114820665D01*
X155455000Y-114475807D01*
X155455000Y-114124193D01*
X155386404Y-113779335D01*
X155251847Y-113454485D01*
X155056500Y-113162129D01*
X154807871Y-112913500D01*
X154515515Y-112718153D01*
X154190665Y-112583596D01*
X153845807Y-112515000D01*
X153494193Y-112515000D01*
X153149335Y-112583596D01*
X152824485Y-112718153D01*
X152532129Y-112913500D01*
X152283500Y-113162129D01*
X152088153Y-113454485D01*
X151953596Y-113779335D01*
X151885000Y-114124193D01*
X149699224Y-114124193D01*
X149670490Y-113832458D01*
X149534113Y-113382884D01*
X149312649Y-112968554D01*
X149014609Y-112605391D01*
X148651446Y-112307351D01*
X148237116Y-112085887D01*
X147787542Y-111949510D01*
X147437157Y-111915000D01*
X135772843Y-111915000D01*
X135422458Y-111949510D01*
X134972884Y-112085887D01*
X134558554Y-112307351D01*
X134195391Y-112605391D01*
X133897351Y-112968554D01*
X133675887Y-113382884D01*
X133539510Y-113832458D01*
X133493461Y-114300000D01*
X133539510Y-114767542D01*
X133675887Y-115217116D01*
X133897351Y-115631446D01*
X134195391Y-115994609D01*
X134421291Y-116180000D01*
X118770000Y-116180000D01*
X118770000Y-114124193D01*
X127755000Y-114124193D01*
X127755000Y-114475807D01*
X127823596Y-114820665D01*
X127958153Y-115145515D01*
X128153500Y-115437871D01*
X128402129Y-115686500D01*
X128694485Y-115881847D01*
X129019335Y-116016404D01*
X129364193Y-116085000D01*
X129715807Y-116085000D01*
X130060665Y-116016404D01*
X130385515Y-115881847D01*
X130677871Y-115686500D01*
X130926500Y-115437871D01*
X131121847Y-115145515D01*
X131256404Y-114820665D01*
X131325000Y-114475807D01*
X131325000Y-114124193D01*
X131256404Y-113779335D01*
X131121847Y-113454485D01*
X130926500Y-113162129D01*
X130677871Y-112913500D01*
X130385515Y-112718153D01*
X130060665Y-112583596D01*
X129715807Y-112515000D01*
X129364193Y-112515000D01*
X129019335Y-112583596D01*
X128694485Y-112718153D01*
X128402129Y-112913500D01*
X128153500Y-113162129D01*
X127958153Y-113454485D01*
X127823596Y-113779335D01*
X127755000Y-114124193D01*
X118770000Y-114124193D01*
X118770000Y-101600000D01*
X120039832Y-101600000D01*
X120100362Y-102214567D01*
X120279624Y-102805517D01*
X120570731Y-103350140D01*
X120962495Y-103827505D01*
X121439860Y-104219269D01*
X121984483Y-104510376D01*
X122575433Y-104689638D01*
X123035998Y-104735000D01*
X125065000Y-104735000D01*
X125065001Y-109315055D01*
X125092999Y-109599326D01*
X125203645Y-109964075D01*
X125383323Y-110300230D01*
X125625129Y-110594872D01*
X125919771Y-110836678D01*
X126255926Y-111016356D01*
X126620675Y-111127002D01*
X127000000Y-111164362D01*
X127379326Y-111127002D01*
X127744075Y-111016356D01*
X128080230Y-110836678D01*
X128374872Y-110594872D01*
X128616678Y-110300230D01*
X128796356Y-109964075D01*
X128907002Y-109599326D01*
X128935000Y-109315055D01*
X128935000Y-107938514D01*
X129136011Y-108021775D01*
X129403589Y-108075000D01*
X129676411Y-108075000D01*
X129943989Y-108021775D01*
X130196043Y-107917371D01*
X130422886Y-107765799D01*
X130615799Y-107572886D01*
X130767371Y-107346043D01*
X130871775Y-107093989D01*
X130925000Y-106826411D01*
X130925000Y-106553589D01*
X130871775Y-106286011D01*
X130767371Y-106033957D01*
X130615799Y-105807114D01*
X130422886Y-105614201D01*
X130196043Y-105462629D01*
X129943989Y-105358225D01*
X129676411Y-105305000D01*
X129403589Y-105305000D01*
X129136011Y-105358225D01*
X128935000Y-105441486D01*
X128935000Y-104735000D01*
X149195000Y-104735000D01*
X149195001Y-108045055D01*
X149222999Y-108329326D01*
X149333645Y-108694075D01*
X149513323Y-109030230D01*
X149755129Y-109324872D01*
X150049771Y-109566678D01*
X150385926Y-109746356D01*
X150750675Y-109857002D01*
X151130000Y-109894362D01*
X151509326Y-109857002D01*
X151874075Y-109746356D01*
X152210230Y-109566678D01*
X152504872Y-109324872D01*
X152746678Y-109030230D01*
X152926356Y-108694075D01*
X153037002Y-108329326D01*
X153065000Y-108045055D01*
X153065000Y-107938514D01*
X153266011Y-108021775D01*
X153533589Y-108075000D01*
X153806411Y-108075000D01*
X154073989Y-108021775D01*
X154326043Y-107917371D01*
X154552886Y-107765799D01*
X154745799Y-107572886D01*
X154897371Y-107346043D01*
X155001775Y-107093989D01*
X155055000Y-106826411D01*
X155055000Y-106553589D01*
X155001775Y-106286011D01*
X154897371Y-106033957D01*
X154745799Y-105807114D01*
X154552886Y-105614201D01*
X154326043Y-105462629D01*
X154073989Y-105358225D01*
X153806411Y-105305000D01*
X153533589Y-105305000D01*
X153266011Y-105358225D01*
X153065000Y-105441486D01*
X153065000Y-104735000D01*
X160874002Y-104735000D01*
X161334567Y-104689638D01*
X161925517Y-104510376D01*
X162470140Y-104219269D01*
X162947505Y-103827505D01*
X163339269Y-103350140D01*
X163630376Y-102805517D01*
X163809638Y-102214567D01*
X163870168Y-101600000D01*
X163809638Y-100985433D01*
X163630376Y-100394483D01*
X163339269Y-99849860D01*
X162947505Y-99372495D01*
X162470140Y-98980731D01*
X161925517Y-98689624D01*
X161334567Y-98510362D01*
X160874002Y-98465000D01*
X123035998Y-98465000D01*
X122575433Y-98510362D01*
X121984483Y-98689624D01*
X121439860Y-98980731D01*
X120962495Y-99372495D01*
X120570731Y-99849860D01*
X120279624Y-100394483D01*
X120100362Y-100985433D01*
X120039832Y-101600000D01*
X118770000Y-101600000D01*
X118770000Y-93370000D01*
X164440000Y-93370000D01*
X164440001Y-116180000D01*
G37*
%TD.AperFunction*%
M02*
