M48
; DRILL file {KiCad (6.0.0)} date Wed Aug  3 23:10:56 2022
; FORMAT={-:-/ absolute / inch / decimal}
; #@! TF.CreationDate,2022-08-03T23:10:56+01:00
; #@! TF.GenerationSoftware,Kicad,Pcbnew,(6.0.0)
; #@! TF.FileFunction,Plated,1,2,PTH
FMAT,2
INCH
; #@! TA.AperFunction,Plated,PTH,ComponentDrill
T1C0.0315
; #@! TA.AperFunction,Plated,PTH,ViaDrill
T2C0.0394
; #@! TA.AperFunction,Plated,PTH,ComponentDrill
T3C0.0394
; #@! TA.AperFunction,Plated,PTH,ComponentDrill
T4C0.0433
; #@! TA.AperFunction,Plated,PTH,ComponentDrill
T5C0.0472
; #@! TA.AperFunction,Plated,PTH,ComponentDrill
T6C0.0512
; #@! TA.AperFunction,Plated,PTH,ComponentDrill
T7C0.0551
; #@! TA.AperFunction,Plated,PTH,ComponentDrill
T8C0.0787
; #@! TA.AperFunction,Plated,PTH,ComponentDrill
T9C0.1260
%
G90
G05
T1
X3.0318Y-3.9262
X3.0318Y-4.123
X3.0318Y-5.3157
X3.0318Y-5.5126
X3.5471Y-4.1387
X3.744Y-4.1387
X4.2739Y-5.2631
X4.4708Y-5.2631
X4.7181Y-3.2969
X4.7181Y-3.4937
X5.0839Y-3.9194
X5.1823Y-3.1423
X5.1823Y-3.3392
X5.1823Y-4.4997
X5.1823Y-4.6966
X5.2807Y-3.9194
X8.0069Y-3.6646
X8.0069Y-3.8614
T2
X3.5558Y-4.0218
X3.5792Y-4.6944
X4.27Y-5.1469
X4.7798Y-4.5489
T3
X1.9946Y-3.8242
X1.9946Y-4.0242
X1.9946Y-4.2242
X1.9946Y-5.2138
X1.9946Y-5.4138
X1.9946Y-5.6138
X2.1946Y-3.7242
X2.1946Y-4.3242
X2.1946Y-5.1138
X2.1946Y-5.7138
X2.3946Y-3.7242
X2.3946Y-5.1138
X2.5946Y-3.8242
X2.5946Y-4.0242
X2.5946Y-4.2242
X2.5946Y-5.2138
X2.5946Y-5.4138
X2.5946Y-5.6138
X3.8728Y-4.4229
X3.8728Y-4.6229
X3.8728Y-4.8229
X4.0728Y-4.9229
X4.2728Y-4.3229
X4.2728Y-4.9229
X4.4728Y-4.4229
X4.4728Y-4.6229
X4.4728Y-4.8229
X9.513Y-3.3862
X9.513Y-3.4846
X9.513Y-4.1874
X9.513Y-4.2858
T4
X1.5362Y-4.0909
X1.5362Y-5.4807
X3.5677Y-5.7118
X3.7567Y-5.7118
X3.9457Y-5.7118
X4.413Y-3.0668
X4.602Y-3.0668
X8.9878Y-4.6814
X8.9878Y-5.0814
X9.1427Y-4.6818
X9.1427Y-5.0818
X9.1427Y-5.7047
X9.1427Y-5.8937
X9.1427Y-6.0827
T5
X1.6923Y-4.7197
X2.8923Y-4.7197
X5.076Y-5.837
X5.078Y-5.1265
X6.9657Y-5.837
X6.9677Y-5.1265
X7.3216Y-3.7752
X7.4071Y-4.3736
X7.6169Y-3.7752
X8.3969Y-3.7752
X8.6071Y-4.3736
X8.6921Y-3.7752
T6
X0.8632Y-4.5213
X0.8632Y-4.7181
X0.8632Y-4.915
X1.2569Y-4.5213
X1.2569Y-4.7181
X1.2569Y-4.915
T7
X5.4531Y-3.4927
X5.4531Y-4.3462
X6.9295Y-3.4927
X6.9295Y-4.3462
X7.5807Y-4.6949
X7.5807Y-6.0728
X8.4331Y-4.6949
X8.4331Y-6.0728
T8
X3.6456Y-3.2479
X3.6456Y-3.6416
X9.7138Y-3.2858
X9.7138Y-3.6834
X9.7138Y-4.087
X9.7138Y-4.4846
T9
X0.7546Y-2.9831
X0.7562Y-6.1437
X4.7657Y-3.8634
X4.7657Y-6.1512
X9.8286Y-2.9831
X9.8293Y-6.1256
T0
M30
