%TF.GenerationSoftware,KiCad,Pcbnew,(6.0.0)*%
%TF.CreationDate,2022-08-03T23:10:52+01:00*%
%TF.ProjectId,Decware SE84 SMD,44656377-6172-4652-9053-45383420534d,rev?*%
%TF.SameCoordinates,Original*%
%TF.FileFunction,Legend,Bot*%
%TF.FilePolarity,Positive*%
%FSLAX46Y46*%
G04 Gerber Fmt 4.6, Leading zero omitted, Abs format (unit mm)*
G04 Created by KiCad (PCBNEW (6.0.0)) date 2022-08-03 23:10:52*
%MOMM*%
%LPD*%
G01*
G04 APERTURE LIST*
%ADD10C,0.150000*%
%ADD11C,0.120000*%
G04 APERTURE END LIST*
D10*
%TO.C,R22*%
X65112857Y-118512379D02*
X65446190Y-118036189D01*
X65684285Y-118512379D02*
X65684285Y-117512379D01*
X65303333Y-117512379D01*
X65208095Y-117559999D01*
X65160476Y-117607618D01*
X65112857Y-117702856D01*
X65112857Y-117845713D01*
X65160476Y-117940951D01*
X65208095Y-117988570D01*
X65303333Y-118036189D01*
X65684285Y-118036189D01*
X64731904Y-117607618D02*
X64684285Y-117559999D01*
X64589047Y-117512379D01*
X64350952Y-117512379D01*
X64255714Y-117559999D01*
X64208095Y-117607618D01*
X64160476Y-117702856D01*
X64160476Y-117798094D01*
X64208095Y-117940951D01*
X64779523Y-118512379D01*
X64160476Y-118512379D01*
X63779523Y-117607618D02*
X63731904Y-117559999D01*
X63636666Y-117512379D01*
X63398571Y-117512379D01*
X63303333Y-117559999D01*
X63255714Y-117607618D01*
X63208095Y-117702856D01*
X63208095Y-117798094D01*
X63255714Y-117940951D01*
X63827142Y-118512379D01*
X63208095Y-118512379D01*
%TO.C,R23*%
X57002857Y-122152379D02*
X57336190Y-121676189D01*
X57574285Y-122152379D02*
X57574285Y-121152379D01*
X57193333Y-121152379D01*
X57098095Y-121199999D01*
X57050476Y-121247618D01*
X57002857Y-121342856D01*
X57002857Y-121485713D01*
X57050476Y-121580951D01*
X57098095Y-121628570D01*
X57193333Y-121676189D01*
X57574285Y-121676189D01*
X56621904Y-121247618D02*
X56574285Y-121199999D01*
X56479047Y-121152379D01*
X56240952Y-121152379D01*
X56145714Y-121199999D01*
X56098095Y-121247618D01*
X56050476Y-121342856D01*
X56050476Y-121438094D01*
X56098095Y-121580951D01*
X56669523Y-122152379D01*
X56050476Y-122152379D01*
X55717142Y-121152379D02*
X55098095Y-121152379D01*
X55431428Y-121533332D01*
X55288571Y-121533332D01*
X55193333Y-121580951D01*
X55145714Y-121628570D01*
X55098095Y-121723808D01*
X55098095Y-121961903D01*
X55145714Y-122057141D01*
X55193333Y-122104760D01*
X55288571Y-122152379D01*
X55574285Y-122152379D01*
X55669523Y-122104760D01*
X55717142Y-122057141D01*
D11*
%TO.C,R22*%
X65197064Y-120789999D02*
X63742936Y-120789999D01*
X65197064Y-118969999D02*
X63742936Y-118969999D01*
%TO.C,R23*%
X55632936Y-118969999D02*
X57087064Y-118969999D01*
X55632936Y-120789999D02*
X57087064Y-120789999D01*
%TD*%
M02*
