%TF.GenerationSoftware,KiCad,Pcbnew,(6.0.0)*%
%TF.CreationDate,2022-08-03T23:10:52+01:00*%
%TF.ProjectId,Decware SE84 SMD,44656377-6172-4652-9053-45383420534d,rev?*%
%TF.SameCoordinates,Original*%
%TF.FileFunction,Soldermask,Bot*%
%TF.FilePolarity,Negative*%
%FSLAX46Y46*%
G04 Gerber Fmt 4.6, Leading zero omitted, Abs format (unit mm)*
G04 Created by KiCad (PCBNEW (6.0.0)) date 2022-08-03 23:10:52*
%MOMM*%
%LPD*%
G01*
G04 APERTURE LIST*
G04 Aperture macros list*
%AMRoundRect*
0 Rectangle with rounded corners*
0 $1 Rounding radius*
0 $2 $3 $4 $5 $6 $7 $8 $9 X,Y pos of 4 corners*
0 Add a 4 corners polygon primitive as box body*
4,1,4,$2,$3,$4,$5,$6,$7,$8,$9,$2,$3,0*
0 Add four circle primitives for the rounded corners*
1,1,$1+$1,$2,$3*
1,1,$1+$1,$4,$5*
1,1,$1+$1,$6,$7*
1,1,$1+$1,$8,$9*
0 Add four rect primitives between the rounded corners*
20,1,$1+$1,$2,$3,$4,$5,0*
20,1,$1+$1,$4,$5,$6,$7,0*
20,1,$1+$1,$6,$7,$8,$9,0*
20,1,$1+$1,$8,$9,$2,$3,0*%
G04 Aperture macros list end*
%ADD10C,5.600000*%
%ADD11C,1.600000*%
%ADD12C,2.340000*%
%ADD13C,2.400000*%
%ADD14O,2.400000X2.400000*%
%ADD15R,4.000000X4.000000*%
%ADD16C,4.000000*%
%ADD17R,2.200000X2.200000*%
%ADD18O,2.200000X2.200000*%
%ADD19RoundRect,0.250001X0.899999X0.899999X-0.899999X0.899999X-0.899999X-0.899999X0.899999X-0.899999X0*%
%ADD20R,2.800000X2.800000*%
%ADD21O,2.800000X2.800000*%
%ADD22R,2.400000X2.400000*%
%ADD23RoundRect,0.250001X0.899999X-0.899999X0.899999X0.899999X-0.899999X0.899999X-0.899999X-0.899999X0*%
%ADD24C,2.300000*%
%ADD25C,2.800000*%
%ADD26C,2.000000*%
%ADD27C,3.000000*%
%ADD28R,2.540000X2.540000*%
%ADD29C,2.540000*%
%ADD30RoundRect,0.250000X0.400000X0.625000X-0.400000X0.625000X-0.400000X-0.625000X0.400000X-0.625000X0*%
%ADD31RoundRect,0.250000X-0.400000X-0.625000X0.400000X-0.625000X0.400000X0.625000X-0.400000X0.625000X0*%
G04 APERTURE END LIST*
D10*
%TO.C,J6*%
X19208261Y-156050000D03*
%TD*%
D11*
%TO.C,C6*%
X119839812Y-83740000D03*
X119839812Y-88740000D03*
%TD*%
D12*
%TO.C,RV1*%
X21925909Y-114840000D03*
X21925909Y-119840000D03*
X21925909Y-124840000D03*
X31925909Y-114840000D03*
X31925909Y-119840000D03*
X31925909Y-124840000D03*
%TD*%
D13*
%TO.C,R20*%
X42985000Y-119879999D03*
D14*
X73465000Y-119879999D03*
%TD*%
D15*
%TO.C,C16*%
X92597536Y-92497832D03*
D16*
X92597536Y-82497832D03*
%TD*%
D17*
%TO.C,D2*%
X228290000Y-118906868D03*
D18*
X228290000Y-129066868D03*
%TD*%
D11*
%TO.C,C13*%
X77008848Y-140020000D03*
X77008848Y-135020000D03*
%TD*%
D19*
%TO.C,J5*%
X39020000Y-103910000D03*
%TD*%
D20*
%TO.C,C5*%
X192548657Y-119250000D03*
D21*
X192548657Y-154250000D03*
%TD*%
D22*
%TO.C,C8*%
X128980000Y-130213759D03*
D14*
X176980000Y-130213759D03*
%TD*%
D13*
%TO.C,R1*%
X218619328Y-111090000D03*
D14*
X188139328Y-111090000D03*
%TD*%
D11*
%TO.C,C15*%
X77008848Y-104724749D03*
X77008848Y-99724749D03*
%TD*%
D23*
%TO.C,J1*%
X232224851Y-154500000D03*
D24*
X232224851Y-149700000D03*
X232224851Y-144900000D03*
%TD*%
D11*
%TO.C,C3*%
X203374328Y-98080000D03*
X203374328Y-93080000D03*
%TD*%
D25*
%TO.C,C18*%
X138510000Y-110393022D03*
X176010000Y-110393022D03*
%TD*%
D11*
%TO.C,C10*%
X95097536Y-105122464D03*
X90097536Y-105122464D03*
%TD*%
D10*
%TO.C,J6*%
X121050000Y-156240628D03*
%TD*%
D11*
%TO.C,C17*%
X131630000Y-114293022D03*
X131630000Y-119293022D03*
%TD*%
D22*
%TO.C,C9*%
X176930000Y-148259948D03*
D14*
X128930000Y-148259948D03*
%TD*%
D19*
%TO.C,J4*%
X39020000Y-139210000D03*
%TD*%
%TO.C,J8*%
X100220000Y-145080000D03*
D24*
X95420000Y-145080000D03*
X90620000Y-145080000D03*
%TD*%
D26*
%TO.C,J2*%
X241630000Y-88508817D03*
D27*
X246730000Y-83458817D03*
D26*
X241630000Y-86008817D03*
D27*
X246730000Y-93558817D03*
%TD*%
D19*
%TO.C,J7*%
X116890000Y-77897832D03*
D24*
X112090000Y-77897832D03*
%TD*%
D11*
%TO.C,C11*%
X113557536Y-133682464D03*
X108557536Y-133682464D03*
%TD*%
%TO.C,C7*%
X129130000Y-99554021D03*
X134130000Y-99554021D03*
%TD*%
D22*
%TO.C,C1*%
X220780560Y-95890000D03*
D13*
X213280560Y-95890000D03*
%TD*%
D28*
%TO.C,U2*%
X65903437Y-142590022D03*
D29*
X65903437Y-137510022D03*
X65903437Y-132430022D03*
X60823437Y-129890022D03*
X55743437Y-129890022D03*
X50663437Y-132430022D03*
X50663437Y-137510022D03*
X50663437Y-142590022D03*
X55743437Y-145130022D03*
%TD*%
D20*
%TO.C,C2*%
X214200000Y-119250000D03*
D21*
X214200000Y-154250000D03*
%TD*%
D25*
%TO.C,C12*%
X138510000Y-88715025D03*
X176010000Y-88715025D03*
%TD*%
D26*
%TO.C,J3*%
X241630000Y-108858817D03*
D27*
X246730000Y-103808817D03*
D26*
X241630000Y-106358817D03*
D27*
X246730000Y-113908817D03*
%TD*%
D28*
%TO.C,U1*%
X98370000Y-112342486D03*
D29*
X98370000Y-117422486D03*
X98370000Y-122502486D03*
X103450000Y-125042486D03*
X108530000Y-125042486D03*
X113610000Y-122502486D03*
X113610000Y-117422486D03*
X113610000Y-112342486D03*
X108530000Y-109802486D03*
%TD*%
D10*
%TO.C,J6*%
X19165602Y-75770000D03*
%TD*%
D17*
%TO.C,D1*%
X232224851Y-118916868D03*
D18*
X232224851Y-129076868D03*
%TD*%
D28*
%TO.C,U3*%
X65903437Y-107294771D03*
D29*
X65903437Y-102214771D03*
X65903437Y-97134771D03*
X60823437Y-94594771D03*
X55743437Y-94594771D03*
X50663437Y-97134771D03*
X50663437Y-102214771D03*
X50663437Y-107294771D03*
X55743437Y-109834771D03*
%TD*%
D10*
%TO.C,J6*%
X249647341Y-75770000D03*
%TD*%
D11*
%TO.C,C14*%
X131630000Y-84815025D03*
X131630000Y-79815025D03*
%TD*%
D22*
%TO.C,C4*%
X185968097Y-95890000D03*
D13*
X193468097Y-95890000D03*
%TD*%
D10*
%TO.C,J6*%
X249663076Y-155590000D03*
%TD*%
%TO.C,J6*%
X121050000Y-98130000D03*
%TD*%
D30*
%TO.C,R22*%
X66020000Y-119879999D03*
X62920000Y-119879999D03*
%TD*%
D31*
%TO.C,R23*%
X54810000Y-119879999D03*
X57910000Y-119879999D03*
%TD*%
M02*
