%TF.GenerationSoftware,KiCad,Pcbnew,(6.0.0)*%
%TF.CreationDate,2022-08-03T23:10:51+01:00*%
%TF.ProjectId,Decware SE84 SMD,44656377-6172-4652-9053-45383420534d,rev?*%
%TF.SameCoordinates,Original*%
%TF.FileFunction,Copper,L1,Top*%
%TF.FilePolarity,Positive*%
%FSLAX46Y46*%
G04 Gerber Fmt 4.6, Leading zero omitted, Abs format (unit mm)*
G04 Created by KiCad (PCBNEW (6.0.0)) date 2022-08-03 23:10:51*
%MOMM*%
%LPD*%
G01*
G04 APERTURE LIST*
G04 Aperture macros list*
%AMRoundRect*
0 Rectangle with rounded corners*
0 $1 Rounding radius*
0 $2 $3 $4 $5 $6 $7 $8 $9 X,Y pos of 4 corners*
0 Add a 4 corners polygon primitive as box body*
4,1,4,$2,$3,$4,$5,$6,$7,$8,$9,$2,$3,0*
0 Add four circle primitives for the rounded corners*
1,1,$1+$1,$2,$3*
1,1,$1+$1,$4,$5*
1,1,$1+$1,$6,$7*
1,1,$1+$1,$8,$9*
0 Add four rect primitives between the rounded corners*
20,1,$1+$1,$2,$3,$4,$5,0*
20,1,$1+$1,$4,$5,$6,$7,0*
20,1,$1+$1,$6,$7,$8,$9,0*
20,1,$1+$1,$8,$9,$2,$3,0*%
G04 Aperture macros list end*
%TA.AperFunction,SMDPad,CuDef*%
%ADD10RoundRect,0.250000X-0.400000X-0.625000X0.400000X-0.625000X0.400000X0.625000X-0.400000X0.625000X0*%
%TD*%
%TA.AperFunction,SMDPad,CuDef*%
%ADD11RoundRect,0.250000X-0.625000X0.400000X-0.625000X-0.400000X0.625000X-0.400000X0.625000X0.400000X0*%
%TD*%
%TA.AperFunction,ComponentPad*%
%ADD12C,5.600000*%
%TD*%
%TA.AperFunction,ComponentPad*%
%ADD13C,1.600000*%
%TD*%
%TA.AperFunction,ComponentPad*%
%ADD14C,2.340000*%
%TD*%
%TA.AperFunction,ComponentPad*%
%ADD15C,2.400000*%
%TD*%
%TA.AperFunction,ComponentPad*%
%ADD16O,2.400000X2.400000*%
%TD*%
%TA.AperFunction,ComponentPad*%
%ADD17R,4.000000X4.000000*%
%TD*%
%TA.AperFunction,ComponentPad*%
%ADD18C,4.000000*%
%TD*%
%TA.AperFunction,ComponentPad*%
%ADD19R,2.200000X2.200000*%
%TD*%
%TA.AperFunction,ComponentPad*%
%ADD20O,2.200000X2.200000*%
%TD*%
%TA.AperFunction,SMDPad,CuDef*%
%ADD21RoundRect,0.250000X0.400000X0.625000X-0.400000X0.625000X-0.400000X-0.625000X0.400000X-0.625000X0*%
%TD*%
%TA.AperFunction,SMDPad,CuDef*%
%ADD22RoundRect,0.250000X0.625000X-0.400000X0.625000X0.400000X-0.625000X0.400000X-0.625000X-0.400000X0*%
%TD*%
%TA.AperFunction,ComponentPad*%
%ADD23RoundRect,0.250001X0.899999X0.899999X-0.899999X0.899999X-0.899999X-0.899999X0.899999X-0.899999X0*%
%TD*%
%TA.AperFunction,ComponentPad*%
%ADD24R,2.800000X2.800000*%
%TD*%
%TA.AperFunction,ComponentPad*%
%ADD25O,2.800000X2.800000*%
%TD*%
%TA.AperFunction,ComponentPad*%
%ADD26R,2.400000X2.400000*%
%TD*%
%TA.AperFunction,ComponentPad*%
%ADD27RoundRect,0.250001X0.899999X-0.899999X0.899999X0.899999X-0.899999X0.899999X-0.899999X-0.899999X0*%
%TD*%
%TA.AperFunction,ComponentPad*%
%ADD28C,2.300000*%
%TD*%
%TA.AperFunction,ComponentPad*%
%ADD29C,2.800000*%
%TD*%
%TA.AperFunction,ComponentPad*%
%ADD30C,2.000000*%
%TD*%
%TA.AperFunction,ComponentPad*%
%ADD31C,3.000000*%
%TD*%
%TA.AperFunction,ComponentPad*%
%ADD32R,2.540000X2.540000*%
%TD*%
%TA.AperFunction,ComponentPad*%
%ADD33C,2.540000*%
%TD*%
%TA.AperFunction,SMDPad,CuDef*%
%ADD34RoundRect,0.250000X1.425000X-0.362500X1.425000X0.362500X-1.425000X0.362500X-1.425000X-0.362500X0*%
%TD*%
%TA.AperFunction,SMDPad,CuDef*%
%ADD35RoundRect,0.250000X-1.425000X0.362500X-1.425000X-0.362500X1.425000X-0.362500X1.425000X0.362500X0*%
%TD*%
%TA.AperFunction,ViaPad*%
%ADD36C,2.000000*%
%TD*%
%TA.AperFunction,Conductor*%
%ADD37C,1.000000*%
%TD*%
G04 APERTURE END LIST*
D10*
%TO.P,R17,1*%
%TO.N,P1*%
X130080000Y-88971357D03*
%TO.P,R17,2*%
%TO.N,Net-(C12-Pad1)*%
X133180000Y-88971357D03*
%TD*%
D11*
%TO.P,R15,1*%
%TO.N,GND*%
X86659046Y-102172464D03*
%TO.P,R15,2*%
%TO.N,Net-(C10-Pad2)*%
X86659046Y-105272464D03*
%TD*%
D12*
%TO.P,J6,1,Pin_1*%
%TO.N,N/C*%
X19208261Y-156050000D03*
%TD*%
D13*
%TO.P,C6,1*%
%TO.N,P2*%
X119839812Y-83740000D03*
%TO.P,C6,2*%
%TO.N,GND*%
X119839812Y-88740000D03*
%TD*%
D14*
%TO.P,RV1,1,1*%
%TO.N,GND*%
X21925909Y-114840000D03*
%TO.P,RV1,2,2*%
%TO.N,Net-(R2-Pad1)*%
X21925909Y-119840000D03*
%TO.P,RV1,3,3*%
%TO.N,Net-(J2-Pad1)*%
X21925909Y-124840000D03*
%TO.P,RV1,4,4*%
%TO.N,GND*%
X31925909Y-114840000D03*
%TO.P,RV1,5,5*%
%TO.N,Net-(R3-Pad1)*%
X31925909Y-119840000D03*
%TO.P,RV1,6,6*%
%TO.N,Net-(J3-Pad1)*%
X31925909Y-124840000D03*
%TD*%
D15*
%TO.P,R20,1*%
%TO.N,GND*%
X42985000Y-119879999D03*
D16*
%TO.P,R20,2*%
%TO.N,Net-(C13-Pad2)*%
X73465000Y-119879999D03*
%TD*%
D17*
%TO.P,C16,1*%
%TO.N,Net-(C13-Pad2)*%
X92597536Y-92497832D03*
D18*
%TO.P,C16,2*%
%TO.N,GND*%
X92597536Y-82497832D03*
%TD*%
D19*
%TO.P,D2,1,K*%
%TO.N,Net-(C1-Pad1)*%
X228290000Y-118906868D03*
D20*
%TO.P,D2,2,A*%
%TO.N,Net-(D2-Pad2)*%
X228290000Y-129066868D03*
%TD*%
D13*
%TO.P,C13,1*%
%TO.N,Net-(C13-Pad1)*%
X77008848Y-140020000D03*
%TO.P,C13,2*%
%TO.N,Net-(C13-Pad2)*%
X77008848Y-135020000D03*
%TD*%
D21*
%TO.P,R12,1*%
%TO.N,GND*%
X133180000Y-92897689D03*
%TO.P,R12,2*%
%TO.N,Net-(R11-Pad1)*%
X130080000Y-92897689D03*
%TD*%
D22*
%TO.P,R2,1*%
%TO.N,Net-(R2-Pad1)*%
X113720000Y-142230000D03*
%TO.P,R2,2*%
%TO.N,Net-(R2-Pad2)*%
X113720000Y-139130000D03*
%TD*%
D23*
%TO.P,J5,1,Pin_1*%
%TO.N,Net-(J5-Pad1)*%
X39020000Y-103910000D03*
%TD*%
D21*
%TO.P,R4,1*%
%TO.N,Net-(R4-Pad1)*%
X93997536Y-121302464D03*
%TO.P,R4,2*%
%TO.N,GND*%
X90897536Y-121302464D03*
%TD*%
D24*
%TO.P,C5,1*%
%TO.N,P2*%
X192548657Y-119250000D03*
D25*
%TO.P,C5,2*%
%TO.N,GND*%
X192548657Y-154250000D03*
%TD*%
D26*
%TO.P,C8,1*%
%TO.N,P1*%
X128980000Y-130213759D03*
D16*
%TO.P,C8,2*%
%TO.N,Net-(C8-Pad2)*%
X176980000Y-130213759D03*
%TD*%
D15*
%TO.P,R1,1*%
%TO.N,Net-(C1-Pad1)*%
X218619328Y-111090000D03*
D16*
%TO.P,R1,2*%
%TO.N,P2*%
X188139328Y-111090000D03*
%TD*%
D13*
%TO.P,C15,1*%
%TO.N,Net-(C15-Pad1)*%
X77008848Y-104724749D03*
%TO.P,C15,2*%
%TO.N,Net-(C13-Pad2)*%
X77008848Y-99724749D03*
%TD*%
D27*
%TO.P,J1,1,Pin_1*%
%TO.N,Net-(D2-Pad2)*%
X232224851Y-154500000D03*
D28*
%TO.P,J1,2,Pin_2*%
%TO.N,GND*%
X232224851Y-149700000D03*
%TO.P,J1,3,Pin_3*%
%TO.N,Net-(D1-Pad2)*%
X232224851Y-144900000D03*
%TD*%
D13*
%TO.P,C3,1*%
%TO.N,Net-(C1-Pad1)*%
X203374328Y-98080000D03*
%TO.P,C3,2*%
%TO.N,GND*%
X203374328Y-93080000D03*
%TD*%
D21*
%TO.P,R11,1*%
%TO.N,Net-(R11-Pad1)*%
X133180000Y-106210353D03*
%TO.P,R11,2*%
%TO.N,P1*%
X130080000Y-106210353D03*
%TD*%
D22*
%TO.P,R8,1*%
%TO.N,Net-(C11-Pad1)*%
X100897536Y-105272464D03*
%TO.P,R8,2*%
%TO.N,P1*%
X100897536Y-102172464D03*
%TD*%
D11*
%TO.P,R13,1*%
%TO.N,GND*%
X105095333Y-130732464D03*
%TO.P,R13,2*%
%TO.N,Net-(C11-Pad2)*%
X105095333Y-133832464D03*
%TD*%
D29*
%TO.P,C18,1*%
%TO.N,Net-(C17-Pad1)*%
X138510000Y-110393022D03*
%TO.P,C18,2*%
%TO.N,GND*%
X176010000Y-110393022D03*
%TD*%
D13*
%TO.P,C10,1*%
%TO.N,Net-(C10-Pad1)*%
X95097536Y-105122464D03*
%TO.P,C10,2*%
%TO.N,Net-(C10-Pad2)*%
X90097536Y-105122464D03*
%TD*%
D10*
%TO.P,R9,1*%
%TO.N,Net-(R10-Pad1)*%
X118307536Y-113462464D03*
%TO.P,R9,2*%
%TO.N,GND*%
X121407536Y-113462464D03*
%TD*%
D12*
%TO.P,J6,1,Pin_1*%
%TO.N,N/C*%
X121050000Y-156240628D03*
%TD*%
D13*
%TO.P,C17,1*%
%TO.N,Net-(C17-Pad1)*%
X131630000Y-114293022D03*
%TO.P,C17,2*%
%TO.N,GND*%
X131630000Y-119293022D03*
%TD*%
D26*
%TO.P,C9,1*%
%TO.N,Net-(C8-Pad2)*%
X176930000Y-148259948D03*
D16*
%TO.P,C9,2*%
%TO.N,GND*%
X128930000Y-148259948D03*
%TD*%
D22*
%TO.P,R16,1*%
%TO.N,Net-(C10-Pad2)*%
X84094666Y-105272464D03*
%TO.P,R16,2*%
%TO.N,Net-(R16-Pad2)*%
X84094666Y-102172464D03*
%TD*%
D23*
%TO.P,J4,1,Pin_1*%
%TO.N,Net-(J4-Pad1)*%
X39020000Y-139210000D03*
%TD*%
%TO.P,J8,1,Pin_1*%
%TO.N,H2*%
X100220000Y-145080000D03*
D28*
%TO.P,J8,2,Pin_2*%
%TO.N,unconnected-(J8-Pad2)*%
X95420000Y-145080000D03*
%TO.P,J8,3,Pin_3*%
%TO.N,H1*%
X90620000Y-145080000D03*
%TD*%
D30*
%TO.P,J2,1,In*%
%TO.N,Net-(J2-Pad1)*%
X241630000Y-88508817D03*
D31*
%TO.P,J2,2,Ext*%
%TO.N,GND*%
X246730000Y-83458817D03*
D30*
X241630000Y-86008817D03*
D31*
X246730000Y-93558817D03*
%TD*%
D23*
%TO.P,J7,1,Pin_1*%
%TO.N,P2*%
X116890000Y-77897832D03*
D28*
%TO.P,J7,2,Pin_2*%
X112090000Y-77897832D03*
%TD*%
D13*
%TO.P,C11,1*%
%TO.N,Net-(C11-Pad1)*%
X113557536Y-133682464D03*
%TO.P,C11,2*%
%TO.N,Net-(C11-Pad2)*%
X108557536Y-133682464D03*
%TD*%
%TO.P,C7,1*%
%TO.N,P1*%
X129130000Y-99554021D03*
%TO.P,C7,2*%
%TO.N,GND*%
X134130000Y-99554021D03*
%TD*%
D26*
%TO.P,C1,1*%
%TO.N,Net-(C1-Pad1)*%
X220780560Y-95890000D03*
D15*
%TO.P,C1,2*%
%TO.N,GND*%
X213280560Y-95890000D03*
%TD*%
D32*
%TO.P,U2,1,G3's*%
%TO.N,Net-(C13-Pad1)*%
X65903437Y-142590022D03*
D33*
%TO.P,U2,2,G1*%
%TO.N,Net-(R14-Pad2)*%
X65903437Y-137510022D03*
%TO.P,U2,3,K_G3*%
%TO.N,Net-(C13-Pad2)*%
X65903437Y-132430022D03*
%TO.P,U2,4,F1*%
%TO.N,H1*%
X60823437Y-129890022D03*
%TO.P,U2,5,F2*%
%TO.N,H2*%
X55743437Y-129890022D03*
%TO.P,U2,6*%
%TO.N,N/C*%
X50663437Y-132430022D03*
%TO.P,U2,7,A*%
%TO.N,Net-(J4-Pad1)*%
X50663437Y-137510022D03*
%TO.P,U2,8*%
%TO.N,N/C*%
X50663437Y-142590022D03*
%TO.P,U2,9,G2*%
%TO.N,Net-(R18-Pad1)*%
X55743437Y-145130022D03*
%TD*%
D24*
%TO.P,C2,1*%
%TO.N,Net-(C1-Pad1)*%
X214200000Y-119250000D03*
D25*
%TO.P,C2,2*%
%TO.N,GND*%
X214200000Y-154250000D03*
%TD*%
D29*
%TO.P,C12,1*%
%TO.N,Net-(C12-Pad1)*%
X138510000Y-88715025D03*
%TO.P,C12,2*%
%TO.N,GND*%
X176010000Y-88715025D03*
%TD*%
D30*
%TO.P,J3,1,In*%
%TO.N,Net-(J3-Pad1)*%
X241630000Y-108858817D03*
D31*
%TO.P,J3,2,Ext*%
%TO.N,GND*%
X246730000Y-103808817D03*
D30*
X241630000Y-106358817D03*
D31*
X246730000Y-113908817D03*
%TD*%
D10*
%TO.P,R10,1*%
%TO.N,Net-(R10-Pad1)*%
X118307536Y-111051455D03*
%TO.P,R10,2*%
%TO.N,GND*%
X121407536Y-111051455D03*
%TD*%
D32*
%TO.P,U1,1,A*%
%TO.N,Net-(C10-Pad1)*%
X98370000Y-112342486D03*
D33*
%TO.P,U1,2,G*%
%TO.N,Net-(R3-Pad2)*%
X98370000Y-117422486D03*
%TO.P,U1,3,K*%
%TO.N,Net-(R4-Pad1)*%
X98370000Y-122502486D03*
%TO.P,U1,4,F1*%
%TO.N,H1*%
X103450000Y-125042486D03*
%TO.P,U1,5,F2*%
%TO.N,H2*%
X108530000Y-125042486D03*
%TO.P,U1,6,A*%
%TO.N,Net-(C11-Pad1)*%
X113610000Y-122502486D03*
%TO.P,U1,7,G*%
%TO.N,Net-(R2-Pad2)*%
X113610000Y-117422486D03*
%TO.P,U1,8,K*%
%TO.N,Net-(R10-Pad1)*%
X113610000Y-112342486D03*
%TO.P,U1,9*%
%TO.N,N/C*%
X108530000Y-109802486D03*
%TD*%
D12*
%TO.P,J6,1,Pin_1*%
%TO.N,N/C*%
X19165602Y-75770000D03*
%TD*%
D19*
%TO.P,D1,1,K*%
%TO.N,Net-(C1-Pad1)*%
X232224851Y-118916868D03*
D20*
%TO.P,D1,2,A*%
%TO.N,Net-(D1-Pad2)*%
X232224851Y-129076868D03*
%TD*%
D32*
%TO.P,U3,1,G3's*%
%TO.N,Net-(C15-Pad1)*%
X65903437Y-107294771D03*
D33*
%TO.P,U3,2,G1*%
%TO.N,Net-(R16-Pad2)*%
X65903437Y-102214771D03*
%TO.P,U3,3,K_G3*%
%TO.N,Net-(C13-Pad2)*%
X65903437Y-97134771D03*
%TO.P,U3,4,F1*%
%TO.N,H1*%
X60823437Y-94594771D03*
%TO.P,U3,5,F2*%
%TO.N,H2*%
X55743437Y-94594771D03*
%TO.P,U3,6*%
%TO.N,N/C*%
X50663437Y-97134771D03*
%TO.P,U3,7,A*%
%TO.N,Net-(J5-Pad1)*%
X50663437Y-102214771D03*
%TO.P,U3,8*%
%TO.N,N/C*%
X50663437Y-107294771D03*
%TO.P,U3,9,G2*%
%TO.N,Net-(R21-Pad1)*%
X55743437Y-109834771D03*
%TD*%
D12*
%TO.P,J6,1,Pin_1*%
%TO.N,N/C*%
X249647341Y-75770000D03*
%TD*%
D21*
%TO.P,R6,1*%
%TO.N,Net-(R4-Pad1)*%
X93997536Y-123726527D03*
%TO.P,R6,2*%
%TO.N,GND*%
X90897536Y-123726527D03*
%TD*%
D13*
%TO.P,C14,1*%
%TO.N,Net-(C12-Pad1)*%
X131630000Y-84815025D03*
%TO.P,C14,2*%
%TO.N,GND*%
X131630000Y-79815025D03*
%TD*%
D26*
%TO.P,C4,1*%
%TO.N,P2*%
X185968097Y-95890000D03*
D15*
%TO.P,C4,2*%
%TO.N,GND*%
X193468097Y-95890000D03*
%TD*%
D12*
%TO.P,J6,1,Pin_1*%
%TO.N,GND*%
X249663076Y-155590000D03*
%TD*%
%TO.P,J6,1,Pin_1*%
%TO.N,N/C*%
X121050000Y-98130000D03*
%TD*%
D34*
%TO.P,R18,1*%
%TO.N,Net-(R18-Pad1)*%
X43120000Y-145142500D03*
%TO.P,R18,2*%
%TO.N,Net-(J4-Pad1)*%
X43120000Y-139217500D03*
%TD*%
D35*
%TO.P,R7,1*%
%TO.N,P2*%
X112030000Y-83297500D03*
%TO.P,R7,2*%
%TO.N,P1*%
X112030000Y-89222500D03*
%TD*%
D34*
%TO.P,R21,1*%
%TO.N,Net-(R21-Pad1)*%
X43120000Y-109832500D03*
%TO.P,R21,2*%
%TO.N,Net-(J5-Pad1)*%
X43120000Y-103907500D03*
%TD*%
D22*
%TO.P,R14,1*%
%TO.N,Net-(C11-Pad2)*%
X102499572Y-133832464D03*
%TO.P,R14,2*%
%TO.N,Net-(R14-Pad2)*%
X102499572Y-130732464D03*
%TD*%
%TO.P,R3,1*%
%TO.N,Net-(R3-Pad1)*%
X111090000Y-142230000D03*
%TO.P,R3,2*%
%TO.N,Net-(R3-Pad2)*%
X111090000Y-139130000D03*
%TD*%
%TO.P,R5,1*%
%TO.N,Net-(C10-Pad1)*%
X98367536Y-105272464D03*
%TO.P,R5,2*%
%TO.N,P1*%
X98367536Y-102172464D03*
%TD*%
D10*
%TO.P,R19,1*%
%TO.N,P1*%
X130080000Y-110136685D03*
%TO.P,R19,2*%
%TO.N,Net-(C17-Pad1)*%
X133180000Y-110136685D03*
%TD*%
D36*
%TO.N,GND*%
X90912536Y-119237464D03*
X108457536Y-130732464D03*
X90317536Y-102152464D03*
X121407536Y-115542464D03*
%TD*%
D37*
%TO.N,Net-(C1-Pad1)*%
X220780560Y-108928768D02*
X218619328Y-111090000D01*
X214200000Y-115509328D02*
X218619328Y-111090000D01*
X220780560Y-95890000D02*
X220780560Y-97849440D01*
X228300000Y-118916868D02*
X228290000Y-118906868D01*
X214200000Y-119250000D02*
X214200000Y-115509328D01*
X220550000Y-98080000D02*
X220780560Y-97849440D01*
X203374328Y-98080000D02*
X220550000Y-98080000D01*
X220780560Y-97849440D02*
X220780560Y-108928768D01*
X228290000Y-118906868D02*
X214543132Y-118906868D01*
X214543132Y-118906868D02*
X214200000Y-119250000D01*
X232224851Y-118916868D02*
X228300000Y-118916868D01*
%TO.N,GND*%
X90297536Y-102172464D02*
X90317536Y-102152464D01*
X105095333Y-130732464D02*
X108457536Y-130732464D01*
X134130000Y-93847689D02*
X134130000Y-99554021D01*
X133180000Y-92897689D02*
X134130000Y-93847689D01*
X86659046Y-102172464D02*
X90297536Y-102172464D01*
X121407536Y-115542464D02*
X121407536Y-115792464D01*
X121407536Y-115792464D02*
X121427536Y-115812464D01*
X90897536Y-123726527D02*
X90897536Y-119252464D01*
X121407536Y-111051455D02*
X121407536Y-115542464D01*
X90897536Y-119252464D02*
X90912536Y-119237464D01*
%TO.N,P2*%
X119839812Y-81619812D02*
X117779812Y-81619812D01*
X116890000Y-77897832D02*
X112090000Y-77897832D01*
X112030000Y-83297500D02*
X112030000Y-77957832D01*
X112030000Y-77957832D02*
X112090000Y-77897832D01*
X192548657Y-119250000D02*
X192548657Y-115499329D01*
X119839812Y-83740000D02*
X119839812Y-81619812D01*
X116890000Y-80730000D02*
X116890000Y-77897832D01*
X119839812Y-81619812D02*
X184149812Y-81619812D01*
X192548657Y-115499329D02*
X188139328Y-111090000D01*
X184149812Y-81619812D02*
X185968097Y-83438097D01*
X185968097Y-95890000D02*
X185968097Y-108918769D01*
X117779812Y-81619812D02*
X116890000Y-80730000D01*
X185968097Y-108918769D02*
X188139328Y-111090000D01*
X185968097Y-83438097D02*
X185968097Y-95890000D01*
%TO.N,P1*%
X128980000Y-130213759D02*
X128980000Y-111236685D01*
X130080000Y-100504021D02*
X129130000Y-99554021D01*
X98367536Y-102172464D02*
X99587536Y-102172464D01*
X130080000Y-106210353D02*
X130080000Y-101720000D01*
X113700001Y-91490001D02*
X128330001Y-91490001D01*
X100729999Y-91490001D02*
X99587536Y-92632464D01*
X128330001Y-91490001D02*
X128330001Y-89419999D01*
X99587536Y-102172464D02*
X100897536Y-102172464D01*
X130080000Y-110136685D02*
X130080000Y-106210353D01*
X128330001Y-89419999D02*
X128778643Y-88971357D01*
X112030000Y-90400000D02*
X112030000Y-90730000D01*
X130080000Y-101720000D02*
X130080000Y-100504021D01*
X112030000Y-91480002D02*
X112039999Y-91490001D01*
X128330001Y-98754022D02*
X129130000Y-99554021D01*
X128330001Y-91490001D02*
X128330001Y-98754022D01*
X112039999Y-91490001D02*
X100729999Y-91490001D01*
X128980000Y-111236685D02*
X130080000Y-110136685D01*
X99587536Y-92632464D02*
X99587536Y-102172464D01*
X112790001Y-91490001D02*
X113700001Y-91490001D01*
X112030000Y-90400000D02*
X112030000Y-91480002D01*
X113700001Y-91490001D02*
X112039999Y-91490001D01*
X112030000Y-89222500D02*
X112030000Y-90400000D01*
X128778643Y-88971357D02*
X130080000Y-88971357D01*
%TO.N,Net-(C8-Pad2)*%
X176930000Y-148259948D02*
X176930000Y-130263759D01*
X176930000Y-130263759D02*
X176980000Y-130213759D01*
%TO.N,Net-(C10-Pad1)*%
X98370000Y-105274928D02*
X98367536Y-105272464D01*
X98370000Y-112342486D02*
X98370000Y-105274928D01*
X98367536Y-105272464D02*
X95247536Y-105272464D01*
X95247536Y-105272464D02*
X95097536Y-105122464D01*
%TO.N,Net-(C10-Pad2)*%
X84094666Y-105272464D02*
X89947536Y-105272464D01*
X89947536Y-105272464D02*
X90097536Y-105122464D01*
%TO.N,Net-(C11-Pad1)*%
X113610000Y-122502486D02*
X113610000Y-133630000D01*
X100897536Y-109790022D02*
X113610000Y-122502486D01*
X113610000Y-133630000D02*
X113557536Y-133682464D01*
X100897536Y-105272464D02*
X100897536Y-109790022D01*
%TO.N,Net-(C11-Pad2)*%
X105095333Y-133832464D02*
X108407536Y-133832464D01*
X105095333Y-133832464D02*
X102499572Y-133832464D01*
X108407536Y-133832464D02*
X108557536Y-133682464D01*
%TO.N,Net-(C12-Pad1)*%
X133180000Y-88971357D02*
X138253668Y-88971357D01*
X131630000Y-87421357D02*
X133180000Y-88971357D01*
X138253668Y-88971357D02*
X138510000Y-88715025D01*
X131630000Y-84815025D02*
X131630000Y-87421357D01*
%TO.N,Net-(C13-Pad1)*%
X65903437Y-142590022D02*
X74438826Y-142590022D01*
X74438826Y-142590022D02*
X77008848Y-140020000D01*
%TO.N,Net-(C13-Pad2)*%
X92597536Y-99732464D02*
X92597536Y-92497832D01*
X76830001Y-119879999D02*
X77008848Y-119701152D01*
X65903437Y-132430022D02*
X76850022Y-132430022D01*
X74418870Y-97134771D02*
X77008848Y-99724749D01*
X89290000Y-112310000D02*
X78990000Y-112310000D01*
X89914749Y-99724749D02*
X77008848Y-99724749D01*
X77008848Y-132588848D02*
X77008848Y-119701152D01*
X76850022Y-132430022D02*
X77008848Y-132588848D01*
X65903437Y-97134771D02*
X74418870Y-97134771D01*
X77008848Y-119701152D02*
X77008848Y-114291152D01*
X92597536Y-109002464D02*
X89290000Y-112310000D01*
X91564749Y-99724749D02*
X89914749Y-99724749D01*
X77008848Y-135020000D02*
X77008848Y-132588848D01*
X73465000Y-119879999D02*
X76830001Y-119879999D01*
X89914749Y-99724749D02*
X92589821Y-99724749D01*
X92589821Y-99724749D02*
X92597536Y-99732464D01*
X77008848Y-114291152D02*
X78990000Y-112310000D01*
X92597536Y-99732464D02*
X92597536Y-109002464D01*
%TO.N,Net-(C15-Pad1)*%
X65903437Y-107294771D02*
X74438826Y-107294771D01*
X74438826Y-107294771D02*
X77008848Y-104724749D01*
%TO.N,Net-(C17-Pad1)*%
X131630000Y-111686685D02*
X133180000Y-110136685D01*
X133436337Y-110393022D02*
X133180000Y-110136685D01*
X131630000Y-114293022D02*
X131630000Y-111686685D01*
X138340000Y-110393022D02*
X133436337Y-110393022D01*
%TO.N,Net-(D1-Pad2)*%
X232224851Y-144900000D02*
X232224851Y-129076868D01*
%TO.N,Net-(D2-Pad2)*%
X232224851Y-154500000D02*
X230400000Y-154500000D01*
X228290000Y-152390000D02*
X228290000Y-129066868D01*
X230400000Y-154500000D02*
X228290000Y-152390000D01*
%TO.N,Net-(J2-Pad1)*%
X26130538Y-122290000D02*
X33210000Y-122290000D01*
X238959511Y-74653147D02*
X239079511Y-74773147D01*
X239079511Y-74773147D02*
X239079511Y-85958328D01*
X238959511Y-74529511D02*
X238959511Y-74653147D01*
X34490000Y-85870000D02*
X47330000Y-73030000D01*
X34490000Y-121010000D02*
X34490000Y-85870000D01*
X21925909Y-124840000D02*
X23580538Y-124840000D01*
X237460000Y-73030000D02*
X238959511Y-74529511D01*
X33210000Y-122290000D02*
X34490000Y-121010000D01*
X239079511Y-85958328D02*
X241630000Y-88508817D01*
X47330000Y-73030000D02*
X237460000Y-73030000D01*
X23580538Y-124840000D02*
X26130538Y-122290000D01*
%TO.N,Net-(J3-Pad1)*%
X31925909Y-124840000D02*
X33460000Y-124840000D01*
X237880000Y-107370000D02*
X239368817Y-108858817D01*
X35910000Y-122390000D02*
X35910000Y-86520000D01*
X47960000Y-74470000D02*
X209850000Y-74470000D01*
X237880000Y-75270000D02*
X237880000Y-107370000D01*
X209850000Y-74470000D02*
X211260000Y-74470000D01*
X209850000Y-74470000D02*
X237080000Y-74470000D01*
X239368817Y-108858817D02*
X241630000Y-108858817D01*
X237080000Y-74470000D02*
X237880000Y-75270000D01*
X35910000Y-86520000D02*
X47960000Y-74470000D01*
X33460000Y-124840000D02*
X35910000Y-122390000D01*
%TO.N,Net-(J4-Pad1)*%
X50663437Y-137510022D02*
X44827478Y-137510022D01*
X39027500Y-139217500D02*
X39020000Y-139210000D01*
X44827478Y-137510022D02*
X43120000Y-139217500D01*
X43120000Y-139217500D02*
X39027500Y-139217500D01*
%TO.N,Net-(J5-Pad1)*%
X39022500Y-103907500D02*
X39020000Y-103910000D01*
X44812729Y-102214771D02*
X43120000Y-103907500D01*
X43120000Y-103907500D02*
X39022500Y-103907500D01*
X50663437Y-102214771D02*
X44812729Y-102214771D01*
%TO.N,Net-(R2-Pad1)*%
X113720000Y-142230000D02*
X113720000Y-149710000D01*
X35040000Y-159230000D02*
X17320000Y-141510000D01*
X17320000Y-124445909D02*
X21925909Y-119840000D01*
X17320000Y-141510000D02*
X17320000Y-124445909D01*
X104200000Y-159230000D02*
X35040000Y-159230000D01*
X113720000Y-149710000D02*
X104200000Y-159230000D01*
%TO.N,Net-(R2-Pad2)*%
X113610000Y-117422486D02*
X116460000Y-120272486D01*
X113720000Y-139130000D02*
X116460000Y-136390000D01*
X116460000Y-136390000D02*
X116460000Y-121210000D01*
X116460000Y-120272486D02*
X116460000Y-121210000D01*
%TO.N,Net-(R3-Pad1)*%
X25900000Y-119840000D02*
X31925909Y-119840000D01*
X25380000Y-120290000D02*
X25450000Y-120290000D01*
X21360000Y-122460000D02*
X23210000Y-122460000D01*
X111090000Y-150440000D02*
X103700000Y-157830000D01*
X103700000Y-157830000D02*
X35840000Y-157830000D01*
X111090000Y-142230000D02*
X111090000Y-150440000D01*
X18810000Y-125010000D02*
X21360000Y-122460000D01*
X25450000Y-120290000D02*
X25900000Y-119840000D01*
X35840000Y-157830000D02*
X18810000Y-140800000D01*
X23210000Y-122460000D02*
X25380000Y-120290000D01*
X18810000Y-140800000D02*
X18810000Y-125010000D01*
%TO.N,Net-(R3-Pad2)*%
X111090000Y-123700000D02*
X104812486Y-117422486D01*
X104812486Y-117422486D02*
X98370000Y-117422486D01*
X111090000Y-139130000D02*
X111090000Y-123700000D01*
%TO.N,Net-(R4-Pad1)*%
X93997536Y-122642464D02*
X93997536Y-123726527D01*
X98370000Y-122502486D02*
X94137514Y-122502486D01*
X93997536Y-121302464D02*
X93997536Y-122642464D01*
X94137514Y-122502486D02*
X93997536Y-122642464D01*
%TO.N,Net-(R10-Pad1)*%
X113610000Y-112342486D02*
X118087514Y-112342486D01*
X118307536Y-111051455D02*
X118307536Y-112122464D01*
X118307536Y-112122464D02*
X118307536Y-113462464D01*
X118087514Y-112342486D02*
X118307536Y-112122464D01*
%TO.N,Net-(R11-Pad1)*%
X133180000Y-106210353D02*
X132630489Y-105660842D01*
X132630489Y-95448178D02*
X130080000Y-92897689D01*
X132630489Y-105660842D02*
X132630489Y-95448178D01*
%TO.N,Net-(R14-Pad2)*%
X95722014Y-137510022D02*
X102499572Y-130732464D01*
X65903437Y-137510022D02*
X95722014Y-137510022D01*
%TO.N,Net-(R16-Pad2)*%
X84094666Y-102172464D02*
X84052359Y-102214771D01*
X84052359Y-102214771D02*
X65903437Y-102214771D01*
%TO.N,Net-(R18-Pad1)*%
X43132478Y-145130022D02*
X43120000Y-145142500D01*
X55743437Y-145130022D02*
X43132478Y-145130022D01*
%TO.N,Net-(R21-Pad1)*%
X55743437Y-109834771D02*
X43122271Y-109834771D01*
X43122271Y-109834771D02*
X43120000Y-109832500D01*
%TD*%
M02*
