%TF.GenerationSoftware,KiCad,Pcbnew,(6.0.0)*%
%TF.CreationDate,2022-08-03T23:10:52+01:00*%
%TF.ProjectId,Decware SE84 SMD,44656377-6172-4652-9053-45383420534d,rev?*%
%TF.SameCoordinates,Original*%
%TF.FileFunction,Legend,Top*%
%TF.FilePolarity,Positive*%
%FSLAX46Y46*%
G04 Gerber Fmt 4.6, Leading zero omitted, Abs format (unit mm)*
G04 Created by KiCad (PCBNEW (6.0.0)) date 2022-08-03 23:10:52*
%MOMM*%
%LPD*%
G01*
G04 APERTURE LIST*
%ADD10C,0.150000*%
%ADD11C,0.120000*%
G04 APERTURE END LIST*
D10*
%TO.C,R17*%
X130987142Y-87603737D02*
X130653809Y-87127547D01*
X130415714Y-87603737D02*
X130415714Y-86603737D01*
X130796666Y-86603737D01*
X130891904Y-86651357D01*
X130939523Y-86698976D01*
X130987142Y-86794214D01*
X130987142Y-86937071D01*
X130939523Y-87032309D01*
X130891904Y-87079928D01*
X130796666Y-87127547D01*
X130415714Y-87127547D01*
X131939523Y-87603737D02*
X131368095Y-87603737D01*
X131653809Y-87603737D02*
X131653809Y-86603737D01*
X131558571Y-86746595D01*
X131463333Y-86841833D01*
X131368095Y-86889452D01*
X132272857Y-86603737D02*
X132939523Y-86603737D01*
X132510952Y-87603737D01*
%TO.C,R15*%
X88931426Y-104365321D02*
X88455236Y-104698654D01*
X88931426Y-104936749D02*
X87931426Y-104936749D01*
X87931426Y-104555797D01*
X87979046Y-104460559D01*
X88026665Y-104412940D01*
X88121903Y-104365321D01*
X88264760Y-104365321D01*
X88359998Y-104412940D01*
X88407617Y-104460559D01*
X88455236Y-104555797D01*
X88455236Y-104936749D01*
X88931426Y-103412940D02*
X88931426Y-103984368D01*
X88931426Y-103698654D02*
X87931426Y-103698654D01*
X88074284Y-103793892D01*
X88169522Y-103889130D01*
X88217141Y-103984368D01*
X87931426Y-102508178D02*
X87931426Y-102984368D01*
X88407617Y-103031987D01*
X88359998Y-102984368D01*
X88312379Y-102889130D01*
X88312379Y-102651035D01*
X88359998Y-102555797D01*
X88407617Y-102508178D01*
X88502855Y-102460559D01*
X88740950Y-102460559D01*
X88836188Y-102508178D01*
X88883807Y-102555797D01*
X88931426Y-102651035D01*
X88931426Y-102889130D01*
X88883807Y-102984368D01*
X88836188Y-103031987D01*
%TO.C,C6*%
X125046954Y-86406666D02*
X125094573Y-86454285D01*
X125142192Y-86597142D01*
X125142192Y-86692380D01*
X125094573Y-86835238D01*
X124999335Y-86930476D01*
X124904097Y-86978095D01*
X124713621Y-87025714D01*
X124570764Y-87025714D01*
X124380288Y-86978095D01*
X124285050Y-86930476D01*
X124189812Y-86835238D01*
X124142192Y-86692380D01*
X124142192Y-86597142D01*
X124189812Y-86454285D01*
X124237431Y-86406666D01*
X124142192Y-85549523D02*
X124142192Y-85740000D01*
X124189812Y-85835238D01*
X124237431Y-85882857D01*
X124380288Y-85978095D01*
X124570764Y-86025714D01*
X124951716Y-86025714D01*
X125046954Y-85978095D01*
X125094573Y-85930476D01*
X125142192Y-85835238D01*
X125142192Y-85644761D01*
X125094573Y-85549523D01*
X125046954Y-85501904D01*
X124951716Y-85454285D01*
X124713621Y-85454285D01*
X124618383Y-85501904D01*
X124570764Y-85549523D01*
X124523145Y-85644761D01*
X124523145Y-85835238D01*
X124570764Y-85930476D01*
X124618383Y-85978095D01*
X124713621Y-86025714D01*
%TO.C,RV1*%
X21330670Y-130492380D02*
X20997337Y-130016190D01*
X20759242Y-130492380D02*
X20759242Y-129492380D01*
X21140194Y-129492380D01*
X21235432Y-129540000D01*
X21283051Y-129587619D01*
X21330670Y-129682857D01*
X21330670Y-129825714D01*
X21283051Y-129920952D01*
X21235432Y-129968571D01*
X21140194Y-130016190D01*
X20759242Y-130016190D01*
X21616385Y-129492380D02*
X21949718Y-130492380D01*
X22283051Y-129492380D01*
X23140194Y-130492380D02*
X22568766Y-130492380D01*
X22854480Y-130492380D02*
X22854480Y-129492380D01*
X22759242Y-129635238D01*
X22664004Y-129730476D01*
X22568766Y-129778095D01*
%TO.C,R20*%
X57582142Y-114712379D02*
X57248809Y-114236189D01*
X57010714Y-114712379D02*
X57010714Y-113712379D01*
X57391666Y-113712379D01*
X57486904Y-113759999D01*
X57534523Y-113807618D01*
X57582142Y-113902856D01*
X57582142Y-114045713D01*
X57534523Y-114140951D01*
X57486904Y-114188570D01*
X57391666Y-114236189D01*
X57010714Y-114236189D01*
X57963095Y-113807618D02*
X58010714Y-113759999D01*
X58105952Y-113712379D01*
X58344047Y-113712379D01*
X58439285Y-113759999D01*
X58486904Y-113807618D01*
X58534523Y-113902856D01*
X58534523Y-113998094D01*
X58486904Y-114140951D01*
X57915476Y-114712379D01*
X58534523Y-114712379D01*
X59153571Y-113712379D02*
X59248809Y-113712379D01*
X59344047Y-113759999D01*
X59391666Y-113807618D01*
X59439285Y-113902856D01*
X59486904Y-114093332D01*
X59486904Y-114331427D01*
X59439285Y-114521903D01*
X59391666Y-114617141D01*
X59344047Y-114664760D01*
X59248809Y-114712379D01*
X59153571Y-114712379D01*
X59058333Y-114664760D01*
X59010714Y-114617141D01*
X58963095Y-114521903D01*
X58915476Y-114331427D01*
X58915476Y-114093332D01*
X58963095Y-113902856D01*
X59010714Y-113807618D01*
X59058333Y-113759999D01*
X59153571Y-113712379D01*
%TO.C,C16*%
X80704678Y-88140689D02*
X80752297Y-88188308D01*
X80799916Y-88331165D01*
X80799916Y-88426403D01*
X80752297Y-88569260D01*
X80657059Y-88664498D01*
X80561821Y-88712117D01*
X80371345Y-88759736D01*
X80228488Y-88759736D01*
X80038012Y-88712117D01*
X79942774Y-88664498D01*
X79847536Y-88569260D01*
X79799916Y-88426403D01*
X79799916Y-88331165D01*
X79847536Y-88188308D01*
X79895155Y-88140689D01*
X80799916Y-87188308D02*
X80799916Y-87759736D01*
X80799916Y-87474022D02*
X79799916Y-87474022D01*
X79942774Y-87569260D01*
X80038012Y-87664498D01*
X80085631Y-87759736D01*
X79799916Y-86331165D02*
X79799916Y-86521641D01*
X79847536Y-86616879D01*
X79895155Y-86664498D01*
X80038012Y-86759736D01*
X80228488Y-86807355D01*
X80609440Y-86807355D01*
X80704678Y-86759736D01*
X80752297Y-86712117D01*
X80799916Y-86616879D01*
X80799916Y-86426403D01*
X80752297Y-86331165D01*
X80704678Y-86283546D01*
X80609440Y-86235927D01*
X80371345Y-86235927D01*
X80276107Y-86283546D01*
X80228488Y-86331165D01*
X80180869Y-86426403D01*
X80180869Y-86616879D01*
X80228488Y-86712117D01*
X80276107Y-86759736D01*
X80371345Y-86807355D01*
%TO.C,D2*%
X231212380Y-124724963D02*
X230212380Y-124724963D01*
X230212380Y-124486868D01*
X230260000Y-124344010D01*
X230355238Y-124248772D01*
X230450476Y-124201153D01*
X230640952Y-124153534D01*
X230783809Y-124153534D01*
X230974285Y-124201153D01*
X231069523Y-124248772D01*
X231164761Y-124344010D01*
X231212380Y-124486868D01*
X231212380Y-124724963D01*
X230307619Y-123772582D02*
X230260000Y-123724963D01*
X230212380Y-123629725D01*
X230212380Y-123391629D01*
X230260000Y-123296391D01*
X230307619Y-123248772D01*
X230402857Y-123201153D01*
X230498095Y-123201153D01*
X230640952Y-123248772D01*
X231212380Y-123820201D01*
X231212380Y-123201153D01*
X230842380Y-119168772D02*
X229842380Y-119168772D01*
X230842380Y-118597344D02*
X230270952Y-119025915D01*
X229842380Y-118597344D02*
X230413809Y-119168772D01*
%TO.C,C13*%
X72515990Y-138162857D02*
X72563609Y-138210476D01*
X72611228Y-138353333D01*
X72611228Y-138448571D01*
X72563609Y-138591428D01*
X72468371Y-138686666D01*
X72373133Y-138734285D01*
X72182657Y-138781904D01*
X72039800Y-138781904D01*
X71849324Y-138734285D01*
X71754086Y-138686666D01*
X71658848Y-138591428D01*
X71611228Y-138448571D01*
X71611228Y-138353333D01*
X71658848Y-138210476D01*
X71706467Y-138162857D01*
X72611228Y-137210476D02*
X72611228Y-137781904D01*
X72611228Y-137496190D02*
X71611228Y-137496190D01*
X71754086Y-137591428D01*
X71849324Y-137686666D01*
X71896943Y-137781904D01*
X71611228Y-136877142D02*
X71611228Y-136258095D01*
X71992181Y-136591428D01*
X71992181Y-136448571D01*
X72039800Y-136353333D01*
X72087419Y-136305714D01*
X72182657Y-136258095D01*
X72420752Y-136258095D01*
X72515990Y-136305714D01*
X72563609Y-136353333D01*
X72611228Y-136448571D01*
X72611228Y-136734285D01*
X72563609Y-136829523D01*
X72515990Y-136877142D01*
%TO.C,R12*%
X130987142Y-95170069D02*
X130653809Y-94693879D01*
X130415714Y-95170069D02*
X130415714Y-94170069D01*
X130796666Y-94170069D01*
X130891904Y-94217689D01*
X130939523Y-94265308D01*
X130987142Y-94360546D01*
X130987142Y-94503403D01*
X130939523Y-94598641D01*
X130891904Y-94646260D01*
X130796666Y-94693879D01*
X130415714Y-94693879D01*
X131939523Y-95170069D02*
X131368095Y-95170069D01*
X131653809Y-95170069D02*
X131653809Y-94170069D01*
X131558571Y-94312927D01*
X131463333Y-94408165D01*
X131368095Y-94455784D01*
X132320476Y-94265308D02*
X132368095Y-94217689D01*
X132463333Y-94170069D01*
X132701428Y-94170069D01*
X132796666Y-94217689D01*
X132844285Y-94265308D01*
X132891904Y-94360546D01*
X132891904Y-94455784D01*
X132844285Y-94598641D01*
X132272857Y-95170069D01*
X132891904Y-95170069D01*
%TO.C,R2*%
X112352380Y-140846666D02*
X111876190Y-141180000D01*
X112352380Y-141418095D02*
X111352380Y-141418095D01*
X111352380Y-141037142D01*
X111400000Y-140941904D01*
X111447619Y-140894285D01*
X111542857Y-140846666D01*
X111685714Y-140846666D01*
X111780952Y-140894285D01*
X111828571Y-140941904D01*
X111876190Y-141037142D01*
X111876190Y-141418095D01*
X111447619Y-140465714D02*
X111400000Y-140418095D01*
X111352380Y-140322857D01*
X111352380Y-140084761D01*
X111400000Y-139989523D01*
X111447619Y-139941904D01*
X111542857Y-139894285D01*
X111638095Y-139894285D01*
X111780952Y-139941904D01*
X112352380Y-140513333D01*
X112352380Y-139894285D01*
%TO.C,J5*%
X38686666Y-105712380D02*
X38686666Y-106426666D01*
X38639047Y-106569523D01*
X38543809Y-106664761D01*
X38400952Y-106712380D01*
X38305714Y-106712380D01*
X39639047Y-105712380D02*
X39162857Y-105712380D01*
X39115238Y-106188571D01*
X39162857Y-106140952D01*
X39258095Y-106093333D01*
X39496190Y-106093333D01*
X39591428Y-106140952D01*
X39639047Y-106188571D01*
X39686666Y-106283809D01*
X39686666Y-106521904D01*
X39639047Y-106617142D01*
X39591428Y-106664761D01*
X39496190Y-106712380D01*
X39258095Y-106712380D01*
X39162857Y-106664761D01*
X39115238Y-106617142D01*
%TO.C,R4*%
X92280869Y-123574844D02*
X91947536Y-123098654D01*
X91709440Y-123574844D02*
X91709440Y-122574844D01*
X92090393Y-122574844D01*
X92185631Y-122622464D01*
X92233250Y-122670083D01*
X92280869Y-122765321D01*
X92280869Y-122908178D01*
X92233250Y-123003416D01*
X92185631Y-123051035D01*
X92090393Y-123098654D01*
X91709440Y-123098654D01*
X93138012Y-122908178D02*
X93138012Y-123574844D01*
X92899916Y-122527225D02*
X92661821Y-123241511D01*
X93280869Y-123241511D01*
%TO.C,C5*%
X204025799Y-136916666D02*
X204073418Y-136964285D01*
X204121037Y-137107142D01*
X204121037Y-137202380D01*
X204073418Y-137345238D01*
X203978180Y-137440476D01*
X203882942Y-137488095D01*
X203692466Y-137535714D01*
X203549609Y-137535714D01*
X203359133Y-137488095D01*
X203263895Y-137440476D01*
X203168657Y-137345238D01*
X203121037Y-137202380D01*
X203121037Y-137107142D01*
X203168657Y-136964285D01*
X203216276Y-136916666D01*
X203121037Y-136011904D02*
X203121037Y-136488095D01*
X203597228Y-136535714D01*
X203549609Y-136488095D01*
X203501990Y-136392857D01*
X203501990Y-136154761D01*
X203549609Y-136059523D01*
X203597228Y-136011904D01*
X203692466Y-135964285D01*
X203930561Y-135964285D01*
X204025799Y-136011904D01*
X204073418Y-136059523D01*
X204121037Y-136154761D01*
X204121037Y-136392857D01*
X204073418Y-136488095D01*
X204025799Y-136535714D01*
%TO.C,C8*%
X152813333Y-121450901D02*
X152765714Y-121498520D01*
X152622857Y-121546139D01*
X152527619Y-121546139D01*
X152384761Y-121498520D01*
X152289523Y-121403282D01*
X152241904Y-121308044D01*
X152194285Y-121117568D01*
X152194285Y-120974711D01*
X152241904Y-120784235D01*
X152289523Y-120688997D01*
X152384761Y-120593759D01*
X152527619Y-120546139D01*
X152622857Y-120546139D01*
X152765714Y-120593759D01*
X152813333Y-120641378D01*
X153384761Y-120974711D02*
X153289523Y-120927092D01*
X153241904Y-120879473D01*
X153194285Y-120784235D01*
X153194285Y-120736616D01*
X153241904Y-120641378D01*
X153289523Y-120593759D01*
X153384761Y-120546139D01*
X153575238Y-120546139D01*
X153670476Y-120593759D01*
X153718095Y-120641378D01*
X153765714Y-120736616D01*
X153765714Y-120784235D01*
X153718095Y-120879473D01*
X153670476Y-120927092D01*
X153575238Y-120974711D01*
X153384761Y-120974711D01*
X153289523Y-121022330D01*
X153241904Y-121069949D01*
X153194285Y-121165187D01*
X153194285Y-121355663D01*
X153241904Y-121450901D01*
X153289523Y-121498520D01*
X153384761Y-121546139D01*
X153575238Y-121546139D01*
X153670476Y-121498520D01*
X153718095Y-121450901D01*
X153765714Y-121355663D01*
X153765714Y-121165187D01*
X153718095Y-121069949D01*
X153670476Y-121022330D01*
X153575238Y-120974711D01*
%TO.C,R1*%
X203212661Y-117162380D02*
X202879328Y-116686190D01*
X202641232Y-117162380D02*
X202641232Y-116162380D01*
X203022185Y-116162380D01*
X203117423Y-116210000D01*
X203165042Y-116257619D01*
X203212661Y-116352857D01*
X203212661Y-116495714D01*
X203165042Y-116590952D01*
X203117423Y-116638571D01*
X203022185Y-116686190D01*
X202641232Y-116686190D01*
X204165042Y-117162380D02*
X203593613Y-117162380D01*
X203879328Y-117162380D02*
X203879328Y-116162380D01*
X203784089Y-116305238D01*
X203688851Y-116400476D01*
X203593613Y-116448095D01*
%TO.C,C15*%
X72515990Y-102867606D02*
X72563609Y-102915225D01*
X72611228Y-103058082D01*
X72611228Y-103153320D01*
X72563609Y-103296177D01*
X72468371Y-103391415D01*
X72373133Y-103439034D01*
X72182657Y-103486653D01*
X72039800Y-103486653D01*
X71849324Y-103439034D01*
X71754086Y-103391415D01*
X71658848Y-103296177D01*
X71611228Y-103153320D01*
X71611228Y-103058082D01*
X71658848Y-102915225D01*
X71706467Y-102867606D01*
X72611228Y-101915225D02*
X72611228Y-102486653D01*
X72611228Y-102200939D02*
X71611228Y-102200939D01*
X71754086Y-102296177D01*
X71849324Y-102391415D01*
X71896943Y-102486653D01*
X71611228Y-101010463D02*
X71611228Y-101486653D01*
X72087419Y-101534272D01*
X72039800Y-101486653D01*
X71992181Y-101391415D01*
X71992181Y-101153320D01*
X72039800Y-101058082D01*
X72087419Y-101010463D01*
X72182657Y-100962844D01*
X72420752Y-100962844D01*
X72515990Y-101010463D01*
X72563609Y-101058082D01*
X72611228Y-101153320D01*
X72611228Y-101391415D01*
X72563609Y-101486653D01*
X72515990Y-101534272D01*
%TO.C,J1*%
X229327231Y-150033333D02*
X230041517Y-150033333D01*
X230184374Y-150080952D01*
X230279612Y-150176190D01*
X230327231Y-150319047D01*
X230327231Y-150414285D01*
X230327231Y-149033333D02*
X230327231Y-149604761D01*
X230327231Y-149319047D02*
X229327231Y-149319047D01*
X229470089Y-149414285D01*
X229565327Y-149509523D01*
X229612946Y-149604761D01*
%TO.C,C3*%
X198881470Y-95746666D02*
X198929089Y-95794285D01*
X198976708Y-95937142D01*
X198976708Y-96032380D01*
X198929089Y-96175238D01*
X198833851Y-96270476D01*
X198738613Y-96318095D01*
X198548137Y-96365714D01*
X198405280Y-96365714D01*
X198214804Y-96318095D01*
X198119566Y-96270476D01*
X198024328Y-96175238D01*
X197976708Y-96032380D01*
X197976708Y-95937142D01*
X198024328Y-95794285D01*
X198071947Y-95746666D01*
X197976708Y-95413333D02*
X197976708Y-94794285D01*
X198357661Y-95127619D01*
X198357661Y-94984761D01*
X198405280Y-94889523D01*
X198452899Y-94841904D01*
X198548137Y-94794285D01*
X198786232Y-94794285D01*
X198881470Y-94841904D01*
X198929089Y-94889523D01*
X198976708Y-94984761D01*
X198976708Y-95270476D01*
X198929089Y-95365714D01*
X198881470Y-95413333D01*
%TO.C,R11*%
X130987142Y-108482733D02*
X130653809Y-108006543D01*
X130415714Y-108482733D02*
X130415714Y-107482733D01*
X130796666Y-107482733D01*
X130891904Y-107530353D01*
X130939523Y-107577972D01*
X130987142Y-107673210D01*
X130987142Y-107816067D01*
X130939523Y-107911305D01*
X130891904Y-107958924D01*
X130796666Y-108006543D01*
X130415714Y-108006543D01*
X131939523Y-108482733D02*
X131368095Y-108482733D01*
X131653809Y-108482733D02*
X131653809Y-107482733D01*
X131558571Y-107625591D01*
X131463333Y-107720829D01*
X131368095Y-107768448D01*
X132891904Y-108482733D02*
X132320476Y-108482733D01*
X132606190Y-108482733D02*
X132606190Y-107482733D01*
X132510952Y-107625591D01*
X132415714Y-107720829D01*
X132320476Y-107768448D01*
%TO.C,R8*%
X99529916Y-103889130D02*
X99053726Y-104222464D01*
X99529916Y-104460559D02*
X98529916Y-104460559D01*
X98529916Y-104079606D01*
X98577536Y-103984368D01*
X98625155Y-103936749D01*
X98720393Y-103889130D01*
X98863250Y-103889130D01*
X98958488Y-103936749D01*
X99006107Y-103984368D01*
X99053726Y-104079606D01*
X99053726Y-104460559D01*
X98958488Y-103317702D02*
X98910869Y-103412940D01*
X98863250Y-103460559D01*
X98768012Y-103508178D01*
X98720393Y-103508178D01*
X98625155Y-103460559D01*
X98577536Y-103412940D01*
X98529916Y-103317702D01*
X98529916Y-103127225D01*
X98577536Y-103031987D01*
X98625155Y-102984368D01*
X98720393Y-102936749D01*
X98768012Y-102936749D01*
X98863250Y-102984368D01*
X98910869Y-103031987D01*
X98958488Y-103127225D01*
X98958488Y-103317702D01*
X99006107Y-103412940D01*
X99053726Y-103460559D01*
X99148964Y-103508178D01*
X99339440Y-103508178D01*
X99434678Y-103460559D01*
X99482297Y-103412940D01*
X99529916Y-103317702D01*
X99529916Y-103127225D01*
X99482297Y-103031987D01*
X99434678Y-102984368D01*
X99339440Y-102936749D01*
X99148964Y-102936749D01*
X99053726Y-102984368D01*
X99006107Y-103031987D01*
X98958488Y-103127225D01*
%TO.C,R13*%
X107367713Y-132925321D02*
X106891523Y-133258654D01*
X107367713Y-133496749D02*
X106367713Y-133496749D01*
X106367713Y-133115797D01*
X106415333Y-133020559D01*
X106462952Y-132972940D01*
X106558190Y-132925321D01*
X106701047Y-132925321D01*
X106796285Y-132972940D01*
X106843904Y-133020559D01*
X106891523Y-133115797D01*
X106891523Y-133496749D01*
X107367713Y-131972940D02*
X107367713Y-132544368D01*
X107367713Y-132258654D02*
X106367713Y-132258654D01*
X106510571Y-132353892D01*
X106605809Y-132449130D01*
X106653428Y-132544368D01*
X106367713Y-131639606D02*
X106367713Y-131020559D01*
X106748666Y-131353892D01*
X106748666Y-131211035D01*
X106796285Y-131115797D01*
X106843904Y-131068178D01*
X106939142Y-131020559D01*
X107177237Y-131020559D01*
X107272475Y-131068178D01*
X107320094Y-131115797D01*
X107367713Y-131211035D01*
X107367713Y-131496749D01*
X107320094Y-131591987D01*
X107272475Y-131639606D01*
%TO.C,C18*%
X156617142Y-99500164D02*
X156569523Y-99547783D01*
X156426666Y-99595402D01*
X156331428Y-99595402D01*
X156188571Y-99547783D01*
X156093333Y-99452545D01*
X156045714Y-99357307D01*
X155998095Y-99166831D01*
X155998095Y-99023974D01*
X156045714Y-98833498D01*
X156093333Y-98738260D01*
X156188571Y-98643022D01*
X156331428Y-98595402D01*
X156426666Y-98595402D01*
X156569523Y-98643022D01*
X156617142Y-98690641D01*
X157569523Y-99595402D02*
X156998095Y-99595402D01*
X157283809Y-99595402D02*
X157283809Y-98595402D01*
X157188571Y-98738260D01*
X157093333Y-98833498D01*
X156998095Y-98881117D01*
X158140952Y-99023974D02*
X158045714Y-98976355D01*
X157998095Y-98928736D01*
X157950476Y-98833498D01*
X157950476Y-98785879D01*
X157998095Y-98690641D01*
X158045714Y-98643022D01*
X158140952Y-98595402D01*
X158331428Y-98595402D01*
X158426666Y-98643022D01*
X158474285Y-98690641D01*
X158521904Y-98785879D01*
X158521904Y-98833498D01*
X158474285Y-98928736D01*
X158426666Y-98976355D01*
X158331428Y-99023974D01*
X158140952Y-99023974D01*
X158045714Y-99071593D01*
X157998095Y-99119212D01*
X157950476Y-99214450D01*
X157950476Y-99404926D01*
X157998095Y-99500164D01*
X158045714Y-99547783D01*
X158140952Y-99595402D01*
X158331428Y-99595402D01*
X158426666Y-99547783D01*
X158474285Y-99500164D01*
X158521904Y-99404926D01*
X158521904Y-99214450D01*
X158474285Y-99119212D01*
X158426666Y-99071593D01*
X158331428Y-99023974D01*
%TO.C,C10*%
X91954678Y-110329606D02*
X91907059Y-110377225D01*
X91764202Y-110424844D01*
X91668964Y-110424844D01*
X91526107Y-110377225D01*
X91430869Y-110281987D01*
X91383250Y-110186749D01*
X91335631Y-109996273D01*
X91335631Y-109853416D01*
X91383250Y-109662940D01*
X91430869Y-109567702D01*
X91526107Y-109472464D01*
X91668964Y-109424844D01*
X91764202Y-109424844D01*
X91907059Y-109472464D01*
X91954678Y-109520083D01*
X92907059Y-110424844D02*
X92335631Y-110424844D01*
X92621345Y-110424844D02*
X92621345Y-109424844D01*
X92526107Y-109567702D01*
X92430869Y-109662940D01*
X92335631Y-109710559D01*
X93526107Y-109424844D02*
X93621345Y-109424844D01*
X93716583Y-109472464D01*
X93764202Y-109520083D01*
X93811821Y-109615321D01*
X93859440Y-109805797D01*
X93859440Y-110043892D01*
X93811821Y-110234368D01*
X93764202Y-110329606D01*
X93716583Y-110377225D01*
X93621345Y-110424844D01*
X93526107Y-110424844D01*
X93430869Y-110377225D01*
X93383250Y-110329606D01*
X93335631Y-110234368D01*
X93288012Y-110043892D01*
X93288012Y-109805797D01*
X93335631Y-109615321D01*
X93383250Y-109520083D01*
X93430869Y-109472464D01*
X93526107Y-109424844D01*
%TO.C,R9*%
X119690869Y-112094844D02*
X119357536Y-111618654D01*
X119119440Y-112094844D02*
X119119440Y-111094844D01*
X119500393Y-111094844D01*
X119595631Y-111142464D01*
X119643250Y-111190083D01*
X119690869Y-111285321D01*
X119690869Y-111428178D01*
X119643250Y-111523416D01*
X119595631Y-111571035D01*
X119500393Y-111618654D01*
X119119440Y-111618654D01*
X120167059Y-112094844D02*
X120357536Y-112094844D01*
X120452774Y-112047225D01*
X120500393Y-111999606D01*
X120595631Y-111856749D01*
X120643250Y-111666273D01*
X120643250Y-111285321D01*
X120595631Y-111190083D01*
X120548012Y-111142464D01*
X120452774Y-111094844D01*
X120262297Y-111094844D01*
X120167059Y-111142464D01*
X120119440Y-111190083D01*
X120071821Y-111285321D01*
X120071821Y-111523416D01*
X120119440Y-111618654D01*
X120167059Y-111666273D01*
X120262297Y-111713892D01*
X120452774Y-111713892D01*
X120548012Y-111666273D01*
X120595631Y-111618654D01*
X120643250Y-111523416D01*
%TO.C,C17*%
X136837142Y-117435879D02*
X136884761Y-117483498D01*
X136932380Y-117626355D01*
X136932380Y-117721593D01*
X136884761Y-117864450D01*
X136789523Y-117959688D01*
X136694285Y-118007307D01*
X136503809Y-118054926D01*
X136360952Y-118054926D01*
X136170476Y-118007307D01*
X136075238Y-117959688D01*
X135980000Y-117864450D01*
X135932380Y-117721593D01*
X135932380Y-117626355D01*
X135980000Y-117483498D01*
X136027619Y-117435879D01*
X136932380Y-116483498D02*
X136932380Y-117054926D01*
X136932380Y-116769212D02*
X135932380Y-116769212D01*
X136075238Y-116864450D01*
X136170476Y-116959688D01*
X136218095Y-117054926D01*
X135932380Y-116150164D02*
X135932380Y-115483498D01*
X136932380Y-115912069D01*
%TO.C,C9*%
X152763333Y-157737090D02*
X152715714Y-157784709D01*
X152572857Y-157832328D01*
X152477619Y-157832328D01*
X152334761Y-157784709D01*
X152239523Y-157689471D01*
X152191904Y-157594233D01*
X152144285Y-157403757D01*
X152144285Y-157260900D01*
X152191904Y-157070424D01*
X152239523Y-156975186D01*
X152334761Y-156879948D01*
X152477619Y-156832328D01*
X152572857Y-156832328D01*
X152715714Y-156879948D01*
X152763333Y-156927567D01*
X153239523Y-157832328D02*
X153430000Y-157832328D01*
X153525238Y-157784709D01*
X153572857Y-157737090D01*
X153668095Y-157594233D01*
X153715714Y-157403757D01*
X153715714Y-157022805D01*
X153668095Y-156927567D01*
X153620476Y-156879948D01*
X153525238Y-156832328D01*
X153334761Y-156832328D01*
X153239523Y-156879948D01*
X153191904Y-156927567D01*
X153144285Y-157022805D01*
X153144285Y-157260900D01*
X153191904Y-157356138D01*
X153239523Y-157403757D01*
X153334761Y-157451376D01*
X153525238Y-157451376D01*
X153620476Y-157403757D01*
X153668095Y-157356138D01*
X153715714Y-157260900D01*
%TO.C,R16*%
X82727046Y-104365321D02*
X82250856Y-104698654D01*
X82727046Y-104936749D02*
X81727046Y-104936749D01*
X81727046Y-104555797D01*
X81774666Y-104460559D01*
X81822285Y-104412940D01*
X81917523Y-104365321D01*
X82060380Y-104365321D01*
X82155618Y-104412940D01*
X82203237Y-104460559D01*
X82250856Y-104555797D01*
X82250856Y-104936749D01*
X82727046Y-103412940D02*
X82727046Y-103984368D01*
X82727046Y-103698654D02*
X81727046Y-103698654D01*
X81869904Y-103793892D01*
X81965142Y-103889130D01*
X82012761Y-103984368D01*
X81727046Y-102555797D02*
X81727046Y-102746273D01*
X81774666Y-102841511D01*
X81822285Y-102889130D01*
X81965142Y-102984368D01*
X82155618Y-103031987D01*
X82536570Y-103031987D01*
X82631808Y-102984368D01*
X82679427Y-102936749D01*
X82727046Y-102841511D01*
X82727046Y-102651035D01*
X82679427Y-102555797D01*
X82631808Y-102508178D01*
X82536570Y-102460559D01*
X82298475Y-102460559D01*
X82203237Y-102508178D01*
X82155618Y-102555797D01*
X82107999Y-102651035D01*
X82107999Y-102841511D01*
X82155618Y-102936749D01*
X82203237Y-102984368D01*
X82298475Y-103031987D01*
%TO.C,J4*%
X38686666Y-141012380D02*
X38686666Y-141726666D01*
X38639047Y-141869523D01*
X38543809Y-141964761D01*
X38400952Y-142012380D01*
X38305714Y-142012380D01*
X39591428Y-141345714D02*
X39591428Y-142012380D01*
X39353333Y-140964761D02*
X39115238Y-141679047D01*
X39734285Y-141679047D01*
%TO.C,J8*%
X95086666Y-146882380D02*
X95086666Y-147596666D01*
X95039047Y-147739523D01*
X94943809Y-147834761D01*
X94800952Y-147882380D01*
X94705714Y-147882380D01*
X95705714Y-147310952D02*
X95610476Y-147263333D01*
X95562857Y-147215714D01*
X95515238Y-147120476D01*
X95515238Y-147072857D01*
X95562857Y-146977619D01*
X95610476Y-146930000D01*
X95705714Y-146882380D01*
X95896190Y-146882380D01*
X95991428Y-146930000D01*
X96039047Y-146977619D01*
X96086666Y-147072857D01*
X96086666Y-147120476D01*
X96039047Y-147215714D01*
X95991428Y-147263333D01*
X95896190Y-147310952D01*
X95705714Y-147310952D01*
X95610476Y-147358571D01*
X95562857Y-147406190D01*
X95515238Y-147501428D01*
X95515238Y-147691904D01*
X95562857Y-147787142D01*
X95610476Y-147834761D01*
X95705714Y-147882380D01*
X95896190Y-147882380D01*
X95991428Y-147834761D01*
X96039047Y-147787142D01*
X96086666Y-147691904D01*
X96086666Y-147501428D01*
X96039047Y-147406190D01*
X95991428Y-147358571D01*
X95896190Y-147310952D01*
%TO.C,J2*%
X253892380Y-88842150D02*
X254606666Y-88842150D01*
X254749523Y-88889769D01*
X254844761Y-88985007D01*
X254892380Y-89127864D01*
X254892380Y-89223102D01*
X253987619Y-88413578D02*
X253940000Y-88365959D01*
X253892380Y-88270721D01*
X253892380Y-88032626D01*
X253940000Y-87937388D01*
X253987619Y-87889769D01*
X254082857Y-87842150D01*
X254178095Y-87842150D01*
X254320952Y-87889769D01*
X254892380Y-88461197D01*
X254892380Y-87842150D01*
X239277857Y-85668817D02*
X239220714Y-85640245D01*
X239135000Y-85640245D01*
X239049285Y-85668817D01*
X238992142Y-85725959D01*
X238963571Y-85783102D01*
X238935000Y-85897388D01*
X238935000Y-85983102D01*
X238963571Y-86097388D01*
X238992142Y-86154531D01*
X239049285Y-86211674D01*
X239135000Y-86240245D01*
X239192142Y-86240245D01*
X239277857Y-86211674D01*
X239306428Y-86183102D01*
X239306428Y-85983102D01*
X239192142Y-85983102D01*
X239563571Y-86240245D02*
X239563571Y-85640245D01*
X239906428Y-86240245D01*
X239906428Y-85640245D01*
X240192142Y-86240245D02*
X240192142Y-85640245D01*
X240335000Y-85640245D01*
X240420714Y-85668817D01*
X240477857Y-85725959D01*
X240506428Y-85783102D01*
X240535000Y-85897388D01*
X240535000Y-85983102D01*
X240506428Y-86097388D01*
X240477857Y-86154531D01*
X240420714Y-86211674D01*
X240335000Y-86240245D01*
X240192142Y-86240245D01*
X239644571Y-88751674D02*
X239730285Y-88780245D01*
X239873142Y-88780245D01*
X239930285Y-88751674D01*
X239958857Y-88723102D01*
X239987428Y-88665959D01*
X239987428Y-88608817D01*
X239958857Y-88551674D01*
X239930285Y-88523102D01*
X239873142Y-88494531D01*
X239758857Y-88465959D01*
X239701714Y-88437388D01*
X239673142Y-88408817D01*
X239644571Y-88351674D01*
X239644571Y-88294531D01*
X239673142Y-88237388D01*
X239701714Y-88208817D01*
X239758857Y-88180245D01*
X239901714Y-88180245D01*
X239987428Y-88208817D01*
X240558857Y-88208817D02*
X240501714Y-88180245D01*
X240416000Y-88180245D01*
X240330285Y-88208817D01*
X240273142Y-88265959D01*
X240244571Y-88323102D01*
X240216000Y-88437388D01*
X240216000Y-88523102D01*
X240244571Y-88637388D01*
X240273142Y-88694531D01*
X240330285Y-88751674D01*
X240416000Y-88780245D01*
X240473142Y-88780245D01*
X240558857Y-88751674D01*
X240587428Y-88723102D01*
X240587428Y-88523102D01*
X240473142Y-88523102D01*
%TO.C,J7*%
X114156666Y-79700212D02*
X114156666Y-80414498D01*
X114109047Y-80557355D01*
X114013809Y-80652593D01*
X113870952Y-80700212D01*
X113775714Y-80700212D01*
X114537619Y-79700212D02*
X115204285Y-79700212D01*
X114775714Y-80700212D01*
%TO.C,C11*%
X110414678Y-138889606D02*
X110367059Y-138937225D01*
X110224202Y-138984844D01*
X110128964Y-138984844D01*
X109986107Y-138937225D01*
X109890869Y-138841987D01*
X109843250Y-138746749D01*
X109795631Y-138556273D01*
X109795631Y-138413416D01*
X109843250Y-138222940D01*
X109890869Y-138127702D01*
X109986107Y-138032464D01*
X110128964Y-137984844D01*
X110224202Y-137984844D01*
X110367059Y-138032464D01*
X110414678Y-138080083D01*
X111367059Y-138984844D02*
X110795631Y-138984844D01*
X111081345Y-138984844D02*
X111081345Y-137984844D01*
X110986107Y-138127702D01*
X110890869Y-138222940D01*
X110795631Y-138270559D01*
X112319440Y-138984844D02*
X111748012Y-138984844D01*
X112033726Y-138984844D02*
X112033726Y-137984844D01*
X111938488Y-138127702D01*
X111843250Y-138222940D01*
X111748012Y-138270559D01*
%TO.C,C7*%
X131463333Y-95061163D02*
X131415714Y-95108782D01*
X131272857Y-95156401D01*
X131177619Y-95156401D01*
X131034761Y-95108782D01*
X130939523Y-95013544D01*
X130891904Y-94918306D01*
X130844285Y-94727830D01*
X130844285Y-94584973D01*
X130891904Y-94394497D01*
X130939523Y-94299259D01*
X131034761Y-94204021D01*
X131177619Y-94156401D01*
X131272857Y-94156401D01*
X131415714Y-94204021D01*
X131463333Y-94251640D01*
X131796666Y-94156401D02*
X132463333Y-94156401D01*
X132034761Y-95156401D01*
%TO.C,C1*%
X216863893Y-106497142D02*
X216816274Y-106544761D01*
X216673417Y-106592380D01*
X216578179Y-106592380D01*
X216435321Y-106544761D01*
X216340083Y-106449523D01*
X216292464Y-106354285D01*
X216244845Y-106163809D01*
X216244845Y-106020952D01*
X216292464Y-105830476D01*
X216340083Y-105735238D01*
X216435321Y-105640000D01*
X216578179Y-105592380D01*
X216673417Y-105592380D01*
X216816274Y-105640000D01*
X216863893Y-105687619D01*
X217816274Y-106592380D02*
X217244845Y-106592380D01*
X217530560Y-106592380D02*
X217530560Y-105592380D01*
X217435321Y-105735238D01*
X217340083Y-105830476D01*
X217244845Y-105878095D01*
%TO.C,U2*%
X57521532Y-136962402D02*
X57521532Y-137771926D01*
X57569151Y-137867164D01*
X57616770Y-137914783D01*
X57712008Y-137962402D01*
X57902484Y-137962402D01*
X57997722Y-137914783D01*
X58045341Y-137867164D01*
X58092960Y-137771926D01*
X58092960Y-136962402D01*
X58521532Y-137057641D02*
X58569151Y-137010022D01*
X58664389Y-136962402D01*
X58902484Y-136962402D01*
X58997722Y-137010022D01*
X59045341Y-137057641D01*
X59092960Y-137152879D01*
X59092960Y-137248117D01*
X59045341Y-137390974D01*
X58473913Y-137962402D01*
X59092960Y-137962402D01*
%TO.C,C2*%
X225677142Y-136916666D02*
X225724761Y-136964285D01*
X225772380Y-137107142D01*
X225772380Y-137202380D01*
X225724761Y-137345238D01*
X225629523Y-137440476D01*
X225534285Y-137488095D01*
X225343809Y-137535714D01*
X225200952Y-137535714D01*
X225010476Y-137488095D01*
X224915238Y-137440476D01*
X224820000Y-137345238D01*
X224772380Y-137202380D01*
X224772380Y-137107142D01*
X224820000Y-136964285D01*
X224867619Y-136916666D01*
X224867619Y-136535714D02*
X224820000Y-136488095D01*
X224772380Y-136392857D01*
X224772380Y-136154761D01*
X224820000Y-136059523D01*
X224867619Y-136011904D01*
X224962857Y-135964285D01*
X225058095Y-135964285D01*
X225200952Y-136011904D01*
X225772380Y-136583333D01*
X225772380Y-135964285D01*
%TO.C,C12*%
X156617142Y-77822167D02*
X156569523Y-77869786D01*
X156426666Y-77917405D01*
X156331428Y-77917405D01*
X156188571Y-77869786D01*
X156093333Y-77774548D01*
X156045714Y-77679310D01*
X155998095Y-77488834D01*
X155998095Y-77345977D01*
X156045714Y-77155501D01*
X156093333Y-77060263D01*
X156188571Y-76965025D01*
X156331428Y-76917405D01*
X156426666Y-76917405D01*
X156569523Y-76965025D01*
X156617142Y-77012644D01*
X157569523Y-77917405D02*
X156998095Y-77917405D01*
X157283809Y-77917405D02*
X157283809Y-76917405D01*
X157188571Y-77060263D01*
X157093333Y-77155501D01*
X156998095Y-77203120D01*
X157950476Y-77012644D02*
X157998095Y-76965025D01*
X158093333Y-76917405D01*
X158331428Y-76917405D01*
X158426666Y-76965025D01*
X158474285Y-77012644D01*
X158521904Y-77107882D01*
X158521904Y-77203120D01*
X158474285Y-77345977D01*
X157902857Y-77917405D01*
X158521904Y-77917405D01*
%TO.C,J3*%
X253892380Y-109192150D02*
X254606666Y-109192150D01*
X254749523Y-109239769D01*
X254844761Y-109335007D01*
X254892380Y-109477864D01*
X254892380Y-109573102D01*
X253892380Y-108811197D02*
X253892380Y-108192150D01*
X254273333Y-108525483D01*
X254273333Y-108382626D01*
X254320952Y-108287388D01*
X254368571Y-108239769D01*
X254463809Y-108192150D01*
X254701904Y-108192150D01*
X254797142Y-108239769D01*
X254844761Y-108287388D01*
X254892380Y-108382626D01*
X254892380Y-108668340D01*
X254844761Y-108763578D01*
X254797142Y-108811197D01*
X239277857Y-106018817D02*
X239220714Y-105990245D01*
X239135000Y-105990245D01*
X239049285Y-106018817D01*
X238992142Y-106075959D01*
X238963571Y-106133102D01*
X238935000Y-106247388D01*
X238935000Y-106333102D01*
X238963571Y-106447388D01*
X238992142Y-106504531D01*
X239049285Y-106561674D01*
X239135000Y-106590245D01*
X239192142Y-106590245D01*
X239277857Y-106561674D01*
X239306428Y-106533102D01*
X239306428Y-106333102D01*
X239192142Y-106333102D01*
X239563571Y-106590245D02*
X239563571Y-105990245D01*
X239906428Y-106590245D01*
X239906428Y-105990245D01*
X240192142Y-106590245D02*
X240192142Y-105990245D01*
X240335000Y-105990245D01*
X240420714Y-106018817D01*
X240477857Y-106075959D01*
X240506428Y-106133102D01*
X240535000Y-106247388D01*
X240535000Y-106333102D01*
X240506428Y-106447388D01*
X240477857Y-106504531D01*
X240420714Y-106561674D01*
X240335000Y-106590245D01*
X240192142Y-106590245D01*
X239644571Y-109101674D02*
X239730285Y-109130245D01*
X239873142Y-109130245D01*
X239930285Y-109101674D01*
X239958857Y-109073102D01*
X239987428Y-109015959D01*
X239987428Y-108958817D01*
X239958857Y-108901674D01*
X239930285Y-108873102D01*
X239873142Y-108844531D01*
X239758857Y-108815959D01*
X239701714Y-108787388D01*
X239673142Y-108758817D01*
X239644571Y-108701674D01*
X239644571Y-108644531D01*
X239673142Y-108587388D01*
X239701714Y-108558817D01*
X239758857Y-108530245D01*
X239901714Y-108530245D01*
X239987428Y-108558817D01*
X240558857Y-108558817D02*
X240501714Y-108530245D01*
X240416000Y-108530245D01*
X240330285Y-108558817D01*
X240273142Y-108615959D01*
X240244571Y-108673102D01*
X240216000Y-108787388D01*
X240216000Y-108873102D01*
X240244571Y-108987388D01*
X240273142Y-109044531D01*
X240330285Y-109101674D01*
X240416000Y-109130245D01*
X240473142Y-109130245D01*
X240558857Y-109101674D01*
X240587428Y-109073102D01*
X240587428Y-108873102D01*
X240473142Y-108873102D01*
%TO.C,R10*%
X119214678Y-109683835D02*
X118881345Y-109207645D01*
X118643250Y-109683835D02*
X118643250Y-108683835D01*
X119024202Y-108683835D01*
X119119440Y-108731455D01*
X119167059Y-108779074D01*
X119214678Y-108874312D01*
X119214678Y-109017169D01*
X119167059Y-109112407D01*
X119119440Y-109160026D01*
X119024202Y-109207645D01*
X118643250Y-109207645D01*
X120167059Y-109683835D02*
X119595631Y-109683835D01*
X119881345Y-109683835D02*
X119881345Y-108683835D01*
X119786107Y-108826693D01*
X119690869Y-108921931D01*
X119595631Y-108969550D01*
X120786107Y-108683835D02*
X120881345Y-108683835D01*
X120976583Y-108731455D01*
X121024202Y-108779074D01*
X121071821Y-108874312D01*
X121119440Y-109064788D01*
X121119440Y-109302883D01*
X121071821Y-109493359D01*
X121024202Y-109588597D01*
X120976583Y-109636216D01*
X120881345Y-109683835D01*
X120786107Y-109683835D01*
X120690869Y-109636216D01*
X120643250Y-109588597D01*
X120595631Y-109493359D01*
X120548012Y-109302883D01*
X120548012Y-109064788D01*
X120595631Y-108874312D01*
X120643250Y-108779074D01*
X120690869Y-108731455D01*
X120786107Y-108683835D01*
%TO.C,U1*%
X105228095Y-116874866D02*
X105228095Y-117684390D01*
X105275714Y-117779628D01*
X105323333Y-117827247D01*
X105418571Y-117874866D01*
X105609047Y-117874866D01*
X105704285Y-117827247D01*
X105751904Y-117779628D01*
X105799523Y-117684390D01*
X105799523Y-116874866D01*
X106799523Y-117874866D02*
X106228095Y-117874866D01*
X106513809Y-117874866D02*
X106513809Y-116874866D01*
X106418571Y-117017724D01*
X106323333Y-117112962D01*
X106228095Y-117160581D01*
%TO.C,D1*%
X235147231Y-124734963D02*
X234147231Y-124734963D01*
X234147231Y-124496868D01*
X234194851Y-124354010D01*
X234290089Y-124258772D01*
X234385327Y-124211153D01*
X234575803Y-124163534D01*
X234718660Y-124163534D01*
X234909136Y-124211153D01*
X235004374Y-124258772D01*
X235099612Y-124354010D01*
X235147231Y-124496868D01*
X235147231Y-124734963D01*
X235147231Y-123211153D02*
X235147231Y-123782582D01*
X235147231Y-123496868D02*
X234147231Y-123496868D01*
X234290089Y-123592106D01*
X234385327Y-123687344D01*
X234432946Y-123782582D01*
X234777231Y-119178772D02*
X233777231Y-119178772D01*
X234777231Y-118607344D02*
X234205803Y-119035915D01*
X233777231Y-118607344D02*
X234348660Y-119178772D01*
%TO.C,U3*%
X57521532Y-101667151D02*
X57521532Y-102476675D01*
X57569151Y-102571913D01*
X57616770Y-102619532D01*
X57712008Y-102667151D01*
X57902484Y-102667151D01*
X57997722Y-102619532D01*
X58045341Y-102571913D01*
X58092960Y-102476675D01*
X58092960Y-101667151D01*
X58473913Y-101667151D02*
X59092960Y-101667151D01*
X58759627Y-102048104D01*
X58902484Y-102048104D01*
X58997722Y-102095723D01*
X59045341Y-102143342D01*
X59092960Y-102238580D01*
X59092960Y-102476675D01*
X59045341Y-102571913D01*
X58997722Y-102619532D01*
X58902484Y-102667151D01*
X58616770Y-102667151D01*
X58521532Y-102619532D01*
X58473913Y-102571913D01*
%TO.C,R6*%
X92280869Y-125998907D02*
X91947536Y-125522717D01*
X91709440Y-125998907D02*
X91709440Y-124998907D01*
X92090393Y-124998907D01*
X92185631Y-125046527D01*
X92233250Y-125094146D01*
X92280869Y-125189384D01*
X92280869Y-125332241D01*
X92233250Y-125427479D01*
X92185631Y-125475098D01*
X92090393Y-125522717D01*
X91709440Y-125522717D01*
X93138012Y-124998907D02*
X92947536Y-124998907D01*
X92852297Y-125046527D01*
X92804678Y-125094146D01*
X92709440Y-125237003D01*
X92661821Y-125427479D01*
X92661821Y-125808431D01*
X92709440Y-125903669D01*
X92757059Y-125951288D01*
X92852297Y-125998907D01*
X93042774Y-125998907D01*
X93138012Y-125951288D01*
X93185631Y-125903669D01*
X93233250Y-125808431D01*
X93233250Y-125570336D01*
X93185631Y-125475098D01*
X93138012Y-125427479D01*
X93042774Y-125379860D01*
X92852297Y-125379860D01*
X92757059Y-125427479D01*
X92709440Y-125475098D01*
X92661821Y-125570336D01*
%TO.C,C14*%
X127137142Y-82957882D02*
X127184761Y-83005501D01*
X127232380Y-83148358D01*
X127232380Y-83243596D01*
X127184761Y-83386453D01*
X127089523Y-83481691D01*
X126994285Y-83529310D01*
X126803809Y-83576929D01*
X126660952Y-83576929D01*
X126470476Y-83529310D01*
X126375238Y-83481691D01*
X126280000Y-83386453D01*
X126232380Y-83243596D01*
X126232380Y-83148358D01*
X126280000Y-83005501D01*
X126327619Y-82957882D01*
X127232380Y-82005501D02*
X127232380Y-82576929D01*
X127232380Y-82291215D02*
X126232380Y-82291215D01*
X126375238Y-82386453D01*
X126470476Y-82481691D01*
X126518095Y-82576929D01*
X126565714Y-81148358D02*
X127232380Y-81148358D01*
X126184761Y-81386453D02*
X126899047Y-81624548D01*
X126899047Y-81005501D01*
%TO.C,C4*%
X189551430Y-85997142D02*
X189503811Y-86044761D01*
X189360954Y-86092380D01*
X189265716Y-86092380D01*
X189122858Y-86044761D01*
X189027620Y-85949523D01*
X188980001Y-85854285D01*
X188932382Y-85663809D01*
X188932382Y-85520952D01*
X188980001Y-85330476D01*
X189027620Y-85235238D01*
X189122858Y-85140000D01*
X189265716Y-85092380D01*
X189360954Y-85092380D01*
X189503811Y-85140000D01*
X189551430Y-85187619D01*
X190408573Y-85425714D02*
X190408573Y-86092380D01*
X190170477Y-85044761D02*
X189932382Y-85759047D01*
X190551430Y-85759047D01*
%TO.C,J6*%
X252915456Y-155923333D02*
X253629742Y-155923333D01*
X253772599Y-155970952D01*
X253867837Y-156066190D01*
X253915456Y-156209047D01*
X253915456Y-156304285D01*
X252915456Y-155018571D02*
X252915456Y-155209047D01*
X252963076Y-155304285D01*
X253010695Y-155351904D01*
X253153552Y-155447142D01*
X253344028Y-155494761D01*
X253724980Y-155494761D01*
X253820218Y-155447142D01*
X253867837Y-155399523D01*
X253915456Y-155304285D01*
X253915456Y-155113809D01*
X253867837Y-155018571D01*
X253820218Y-154970952D01*
X253724980Y-154923333D01*
X253486885Y-154923333D01*
X253391647Y-154970952D01*
X253344028Y-155018571D01*
X253296409Y-155113809D01*
X253296409Y-155304285D01*
X253344028Y-155399523D01*
X253391647Y-155447142D01*
X253486885Y-155494761D01*
%TO.C,R18*%
X40952380Y-142822857D02*
X40476190Y-143156190D01*
X40952380Y-143394285D02*
X39952380Y-143394285D01*
X39952380Y-143013333D01*
X40000000Y-142918095D01*
X40047619Y-142870476D01*
X40142857Y-142822857D01*
X40285714Y-142822857D01*
X40380952Y-142870476D01*
X40428571Y-142918095D01*
X40476190Y-143013333D01*
X40476190Y-143394285D01*
X40952380Y-141870476D02*
X40952380Y-142441904D01*
X40952380Y-142156190D02*
X39952380Y-142156190D01*
X40095238Y-142251428D01*
X40190476Y-142346666D01*
X40238095Y-142441904D01*
X40380952Y-141299047D02*
X40333333Y-141394285D01*
X40285714Y-141441904D01*
X40190476Y-141489523D01*
X40142857Y-141489523D01*
X40047619Y-141441904D01*
X40000000Y-141394285D01*
X39952380Y-141299047D01*
X39952380Y-141108571D01*
X40000000Y-141013333D01*
X40047619Y-140965714D01*
X40142857Y-140918095D01*
X40190476Y-140918095D01*
X40285714Y-140965714D01*
X40333333Y-141013333D01*
X40380952Y-141108571D01*
X40380952Y-141299047D01*
X40428571Y-141394285D01*
X40476190Y-141441904D01*
X40571428Y-141489523D01*
X40761904Y-141489523D01*
X40857142Y-141441904D01*
X40904761Y-141394285D01*
X40952380Y-141299047D01*
X40952380Y-141108571D01*
X40904761Y-141013333D01*
X40857142Y-140965714D01*
X40761904Y-140918095D01*
X40571428Y-140918095D01*
X40476190Y-140965714D01*
X40428571Y-141013333D01*
X40380952Y-141108571D01*
%TO.C,R7*%
X115102380Y-86426666D02*
X114626190Y-86760000D01*
X115102380Y-86998095D02*
X114102380Y-86998095D01*
X114102380Y-86617142D01*
X114150000Y-86521904D01*
X114197619Y-86474285D01*
X114292857Y-86426666D01*
X114435714Y-86426666D01*
X114530952Y-86474285D01*
X114578571Y-86521904D01*
X114626190Y-86617142D01*
X114626190Y-86998095D01*
X114102380Y-86093333D02*
X114102380Y-85426666D01*
X115102380Y-85855238D01*
%TO.C,R21*%
X40952380Y-107512857D02*
X40476190Y-107846190D01*
X40952380Y-108084285D02*
X39952380Y-108084285D01*
X39952380Y-107703333D01*
X40000000Y-107608095D01*
X40047619Y-107560476D01*
X40142857Y-107512857D01*
X40285714Y-107512857D01*
X40380952Y-107560476D01*
X40428571Y-107608095D01*
X40476190Y-107703333D01*
X40476190Y-108084285D01*
X40047619Y-107131904D02*
X40000000Y-107084285D01*
X39952380Y-106989047D01*
X39952380Y-106750952D01*
X40000000Y-106655714D01*
X40047619Y-106608095D01*
X40142857Y-106560476D01*
X40238095Y-106560476D01*
X40380952Y-106608095D01*
X40952380Y-107179523D01*
X40952380Y-106560476D01*
X40952380Y-105608095D02*
X40952380Y-106179523D01*
X40952380Y-105893809D02*
X39952380Y-105893809D01*
X40095238Y-105989047D01*
X40190476Y-106084285D01*
X40238095Y-106179523D01*
%TO.C,R14*%
X101131952Y-132925321D02*
X100655762Y-133258654D01*
X101131952Y-133496749D02*
X100131952Y-133496749D01*
X100131952Y-133115797D01*
X100179572Y-133020559D01*
X100227191Y-132972940D01*
X100322429Y-132925321D01*
X100465286Y-132925321D01*
X100560524Y-132972940D01*
X100608143Y-133020559D01*
X100655762Y-133115797D01*
X100655762Y-133496749D01*
X101131952Y-131972940D02*
X101131952Y-132544368D01*
X101131952Y-132258654D02*
X100131952Y-132258654D01*
X100274810Y-132353892D01*
X100370048Y-132449130D01*
X100417667Y-132544368D01*
X100465286Y-131115797D02*
X101131952Y-131115797D01*
X100084333Y-131353892D02*
X100798619Y-131591987D01*
X100798619Y-130972940D01*
%TO.C,R3*%
X109722380Y-140846666D02*
X109246190Y-141180000D01*
X109722380Y-141418095D02*
X108722380Y-141418095D01*
X108722380Y-141037142D01*
X108770000Y-140941904D01*
X108817619Y-140894285D01*
X108912857Y-140846666D01*
X109055714Y-140846666D01*
X109150952Y-140894285D01*
X109198571Y-140941904D01*
X109246190Y-141037142D01*
X109246190Y-141418095D01*
X108722380Y-140513333D02*
X108722380Y-139894285D01*
X109103333Y-140227619D01*
X109103333Y-140084761D01*
X109150952Y-139989523D01*
X109198571Y-139941904D01*
X109293809Y-139894285D01*
X109531904Y-139894285D01*
X109627142Y-139941904D01*
X109674761Y-139989523D01*
X109722380Y-140084761D01*
X109722380Y-140370476D01*
X109674761Y-140465714D01*
X109627142Y-140513333D01*
%TO.C,R5*%
X96999916Y-103889130D02*
X96523726Y-104222464D01*
X96999916Y-104460559D02*
X95999916Y-104460559D01*
X95999916Y-104079606D01*
X96047536Y-103984368D01*
X96095155Y-103936749D01*
X96190393Y-103889130D01*
X96333250Y-103889130D01*
X96428488Y-103936749D01*
X96476107Y-103984368D01*
X96523726Y-104079606D01*
X96523726Y-104460559D01*
X95999916Y-102984368D02*
X95999916Y-103460559D01*
X96476107Y-103508178D01*
X96428488Y-103460559D01*
X96380869Y-103365321D01*
X96380869Y-103127225D01*
X96428488Y-103031987D01*
X96476107Y-102984368D01*
X96571345Y-102936749D01*
X96809440Y-102936749D01*
X96904678Y-102984368D01*
X96952297Y-103031987D01*
X96999916Y-103127225D01*
X96999916Y-103365321D01*
X96952297Y-103460559D01*
X96904678Y-103508178D01*
%TO.C,R19*%
X130987142Y-108769065D02*
X130653809Y-108292875D01*
X130415714Y-108769065D02*
X130415714Y-107769065D01*
X130796666Y-107769065D01*
X130891904Y-107816685D01*
X130939523Y-107864304D01*
X130987142Y-107959542D01*
X130987142Y-108102399D01*
X130939523Y-108197637D01*
X130891904Y-108245256D01*
X130796666Y-108292875D01*
X130415714Y-108292875D01*
X131939523Y-108769065D02*
X131368095Y-108769065D01*
X131653809Y-108769065D02*
X131653809Y-107769065D01*
X131558571Y-107911923D01*
X131463333Y-108007161D01*
X131368095Y-108054780D01*
X132415714Y-108769065D02*
X132606190Y-108769065D01*
X132701428Y-108721446D01*
X132749047Y-108673827D01*
X132844285Y-108530970D01*
X132891904Y-108340494D01*
X132891904Y-107959542D01*
X132844285Y-107864304D01*
X132796666Y-107816685D01*
X132701428Y-107769065D01*
X132510952Y-107769065D01*
X132415714Y-107816685D01*
X132368095Y-107864304D01*
X132320476Y-107959542D01*
X132320476Y-108197637D01*
X132368095Y-108292875D01*
X132415714Y-108340494D01*
X132510952Y-108388113D01*
X132701428Y-108388113D01*
X132796666Y-108340494D01*
X132844285Y-108292875D01*
X132891904Y-108197637D01*
D11*
%TO.C,R17*%
X130902936Y-89881357D02*
X132357064Y-89881357D01*
X130902936Y-88061357D02*
X132357064Y-88061357D01*
%TO.C,R15*%
X85749046Y-102995400D02*
X85749046Y-104449528D01*
X87569046Y-102995400D02*
X87569046Y-104449528D01*
%TO.C,C6*%
X123559812Y-89960000D02*
X116119812Y-89960000D01*
X123559812Y-82520000D02*
X116119812Y-82520000D01*
X116119812Y-82520000D02*
X116119812Y-89960000D01*
X123559812Y-82520000D02*
X123559812Y-89960000D01*
%TO.C,RV1*%
X11005909Y-123460000D02*
X11005909Y-116220000D01*
X36458800Y-128970000D02*
X36458800Y-110830000D01*
X18005909Y-116220000D02*
X11005909Y-116220000D01*
X11005909Y-122960000D02*
X1005909Y-122960000D01*
X1005909Y-122960000D02*
X1005909Y-116719000D01*
X18005909Y-123460000D02*
X11005909Y-123460000D01*
X18005909Y-123460000D02*
X18005909Y-116220000D01*
X30345909Y-128910000D02*
X18005909Y-128910000D01*
X11005909Y-116719000D02*
X1005909Y-116719000D01*
X30345909Y-110770000D02*
X18005909Y-110770000D01*
X18005909Y-128910000D02*
X18005909Y-110770000D01*
X11005909Y-122960000D02*
X11005909Y-116719000D01*
%TO.C,G\u002A\u002A\u002A*%
G36*
X38535350Y-94240541D02*
G01*
X24419745Y-94240541D01*
X24419745Y-93775414D01*
X38535350Y-93775414D01*
X38535350Y-94240541D01*
G37*
G36*
X40769568Y-96149561D02*
G01*
X40888132Y-96177909D01*
X40978061Y-96228635D01*
X41036941Y-96300261D01*
X41062356Y-96391307D01*
X41063216Y-96413582D01*
X41052962Y-96488782D01*
X41023419Y-96531516D01*
X40976417Y-96539535D01*
X40963376Y-96536248D01*
X40939333Y-96522969D01*
X40927989Y-96495760D01*
X40926018Y-96443573D01*
X40927015Y-96415375D01*
X40920247Y-96322750D01*
X40886773Y-96255834D01*
X40821170Y-96205941D01*
X40785801Y-96189263D01*
X40687190Y-96166479D01*
X40579406Y-96171967D01*
X40476096Y-96202875D01*
X40390908Y-96256351D01*
X40371353Y-96275884D01*
X40311443Y-96369488D01*
X40268549Y-96491382D01*
X40244380Y-96632421D01*
X40240646Y-96783458D01*
X40253636Y-96906034D01*
X40290303Y-97045471D01*
X40347926Y-97150737D01*
X40427285Y-97222719D01*
X40529162Y-97262303D01*
X40574002Y-97269039D01*
X40698422Y-97265233D01*
X40802272Y-97227294D01*
X40872819Y-97171071D01*
X40911887Y-97120898D01*
X40929958Y-97065845D01*
X40934295Y-97009755D01*
X40936670Y-96935292D01*
X40941646Y-96892906D01*
X40953088Y-96874243D01*
X40974862Y-96870956D01*
X40997492Y-96873235D01*
X41032750Y-96881678D01*
X41050407Y-96904204D01*
X41058264Y-96952710D01*
X41059428Y-96967726D01*
X41047936Y-97063392D01*
X41003071Y-97147567D01*
X40930904Y-97217704D01*
X40837509Y-97271254D01*
X40728957Y-97305669D01*
X40611321Y-97318399D01*
X40490672Y-97306898D01*
X40373082Y-97268615D01*
X40358819Y-97261779D01*
X40253457Y-97193365D01*
X40176252Y-97105156D01*
X40125194Y-96993142D01*
X40098275Y-96853312D01*
X40092713Y-96730475D01*
X40104573Y-96576573D01*
X40141435Y-96449445D01*
X40205796Y-96342261D01*
X40254114Y-96289050D01*
X40338297Y-96220609D01*
X40429793Y-96176556D01*
X40540498Y-96152269D01*
X40624786Y-96145071D01*
X40769568Y-96149561D01*
G37*
G36*
X23474954Y-95518484D02*
G01*
X23529796Y-95521846D01*
X23555617Y-95527589D01*
X23554878Y-95531465D01*
X23546867Y-95545601D01*
X23540836Y-95579048D01*
X23536648Y-95635589D01*
X23534164Y-95719006D01*
X23533246Y-95833084D01*
X23533756Y-95981605D01*
X23534655Y-96085339D01*
X23540048Y-96622953D01*
X23758753Y-96441488D01*
X23846838Y-96367282D01*
X23906719Y-96313594D01*
X23942242Y-96276269D01*
X23957252Y-96251153D01*
X23955594Y-96234089D01*
X23953451Y-96231094D01*
X23919055Y-96206190D01*
X23901584Y-96202165D01*
X23876301Y-96190410D01*
X23873726Y-96181943D01*
X23893063Y-96172818D01*
X23947630Y-96166140D01*
X24032258Y-96162380D01*
X24096178Y-96161720D01*
X24194218Y-96163739D01*
X24265990Y-96169177D01*
X24308678Y-96177098D01*
X24319464Y-96186570D01*
X24295533Y-96196660D01*
X24234068Y-96206435D01*
X24231871Y-96206684D01*
X24158282Y-96220149D01*
X24088332Y-96245945D01*
X24013922Y-96288592D01*
X23926952Y-96352607D01*
X23838153Y-96426295D01*
X23671130Y-96569431D01*
X23747149Y-96657528D01*
X23901268Y-96834701D01*
X24031205Y-96980927D01*
X24137774Y-97097062D01*
X24221788Y-97183957D01*
X24284058Y-97242467D01*
X24325398Y-97273445D01*
X24338853Y-97278949D01*
X24341716Y-97282771D01*
X24310054Y-97285942D01*
X24249789Y-97288080D01*
X24187181Y-97288781D01*
X24109194Y-97287918D01*
X24055583Y-97285087D01*
X24032125Y-97280760D01*
X24038500Y-97276644D01*
X24056185Y-97271050D01*
X24064529Y-97261690D01*
X24060723Y-97244367D01*
X24041959Y-97214885D01*
X24005431Y-97169046D01*
X23948329Y-97102653D01*
X23867846Y-97011510D01*
X23840529Y-96980748D01*
X23759206Y-96889396D01*
X23685588Y-96807053D01*
X23624494Y-96739080D01*
X23580743Y-96690842D01*
X23559473Y-96668015D01*
X23548282Y-96660971D01*
X23540290Y-96669195D01*
X23534979Y-96697726D01*
X23531829Y-96751605D01*
X23530321Y-96835873D01*
X23529936Y-96954785D01*
X23530119Y-97074159D01*
X23531234Y-97159156D01*
X23534129Y-97215845D01*
X23539655Y-97250295D01*
X23548661Y-97268576D01*
X23561996Y-97276757D01*
X23575438Y-97279932D01*
X23577798Y-97283867D01*
X23545981Y-97287063D01*
X23486253Y-97289048D01*
X23449044Y-97289434D01*
X23376502Y-97288357D01*
X23331930Y-97284766D01*
X23320380Y-97279216D01*
X23327707Y-97276113D01*
X23378264Y-97262054D01*
X23383547Y-96437973D01*
X23384485Y-96210346D01*
X23384196Y-96015050D01*
X23382706Y-95853554D01*
X23380040Y-95727329D01*
X23376226Y-95637846D01*
X23371288Y-95586575D01*
X23368353Y-95575630D01*
X23333446Y-95545165D01*
X23282178Y-95529213D01*
X23271623Y-95525466D01*
X23296376Y-95521979D01*
X23351301Y-95519242D01*
X23398487Y-95518132D01*
X23474954Y-95518484D01*
G37*
G36*
X41226964Y-96649496D02*
G01*
X41235236Y-96582220D01*
X41253381Y-96522134D01*
X41284968Y-96452659D01*
X41288427Y-96445710D01*
X41368055Y-96322434D01*
X41468297Y-96232332D01*
X41591560Y-96174000D01*
X41740253Y-96146033D01*
X41807215Y-96143035D01*
X41943469Y-96154344D01*
X42052811Y-96190252D01*
X42132857Y-96249073D01*
X42181225Y-96329116D01*
X42195700Y-96418238D01*
X42187046Y-96505143D01*
X42158272Y-96576448D01*
X42105167Y-96635798D01*
X42023518Y-96686835D01*
X41909110Y-96733204D01*
X41788927Y-96770011D01*
X41636905Y-96817228D01*
X41523168Y-96864350D01*
X41445607Y-96913299D01*
X41402111Y-96965995D01*
X41390571Y-97024359D01*
X41408876Y-97090314D01*
X41417750Y-97107994D01*
X41485801Y-97194999D01*
X41575700Y-97254155D01*
X41679004Y-97284410D01*
X41787269Y-97284716D01*
X41892052Y-97254021D01*
X41984909Y-97191278D01*
X41996415Y-97179940D01*
X42038539Y-97129290D01*
X42061590Y-97077007D01*
X42073291Y-97004725D01*
X42074199Y-96994961D01*
X42082377Y-96927978D01*
X42094484Y-96891657D01*
X42114750Y-96876213D01*
X42126690Y-96873602D01*
X42172869Y-96882242D01*
X42194707Y-96898659D01*
X42212763Y-96949698D01*
X42202068Y-97015714D01*
X42167346Y-97088993D01*
X42113326Y-97161818D01*
X42044733Y-97226472D01*
X41966294Y-97275240D01*
X41963137Y-97276697D01*
X41884497Y-97299431D01*
X41783148Y-97311036D01*
X41675374Y-97311133D01*
X41577455Y-97299344D01*
X41531116Y-97286738D01*
X41415622Y-97224968D01*
X41327037Y-97133318D01*
X41265710Y-97012411D01*
X41231991Y-96862868D01*
X41227227Y-96779514D01*
X41366560Y-96779514D01*
X41366980Y-96855840D01*
X41369725Y-96898015D01*
X41377021Y-96912336D01*
X41391096Y-96905099D01*
X41405931Y-96890821D01*
X41454197Y-96851774D01*
X41501990Y-96822341D01*
X41548415Y-96803089D01*
X41620091Y-96778432D01*
X41703113Y-96753089D01*
X41720462Y-96748185D01*
X41832634Y-96714742D01*
X41912280Y-96684713D01*
X41966660Y-96654236D01*
X42003034Y-96619450D01*
X42023463Y-96587063D01*
X42046923Y-96510179D01*
X42052774Y-96417475D01*
X42040932Y-96328868D01*
X42024759Y-96284901D01*
X41972954Y-96226780D01*
X41891828Y-96188496D01*
X41788992Y-96173394D01*
X41771019Y-96173353D01*
X41649300Y-96192882D01*
X41548546Y-96246484D01*
X41469326Y-96333307D01*
X41412210Y-96452495D01*
X41377768Y-96603196D01*
X41366560Y-96779514D01*
X41227227Y-96779514D01*
X41225000Y-96740545D01*
X41226964Y-96649496D01*
G37*
G36*
X28210915Y-96129577D02*
G01*
X28248461Y-96147464D01*
X28251908Y-96149694D01*
X28294946Y-96190082D01*
X28301339Y-96226280D01*
X28274888Y-96253949D01*
X28219392Y-96268749D01*
X28148673Y-96267583D01*
X28045993Y-96274700D01*
X27940821Y-96314343D01*
X27844094Y-96380889D01*
X27771618Y-96461533D01*
X27705971Y-96556067D01*
X27705971Y-97263392D01*
X27766640Y-97276405D01*
X27773704Y-97281635D01*
X27745768Y-97285697D01*
X27688269Y-97288123D01*
X27625079Y-97288575D01*
X27548564Y-97287523D01*
X27497896Y-97285328D01*
X27478281Y-97282332D01*
X27488575Y-97279574D01*
X27554299Y-97271418D01*
X27554299Y-96202165D01*
X27493630Y-96202165D01*
X27451033Y-96196308D01*
X27432966Y-96182194D01*
X27432962Y-96181943D01*
X27451951Y-96172036D01*
X27504114Y-96165236D01*
X27582238Y-96162386D01*
X27599801Y-96162363D01*
X27680452Y-96163494D01*
X27726371Y-96166911D01*
X27743254Y-96173807D01*
X27736801Y-96185375D01*
X27731250Y-96189871D01*
X27710983Y-96215289D01*
X27699932Y-96259199D01*
X27695984Y-96331327D01*
X27695860Y-96353042D01*
X27695860Y-96489348D01*
X27774095Y-96385226D01*
X27885183Y-96262765D01*
X28005089Y-96179021D01*
X28106127Y-96140470D01*
X28169096Y-96127601D01*
X28210915Y-96129577D01*
G37*
G36*
X33986203Y-96700837D02*
G01*
X33990856Y-96631343D01*
X34001576Y-96576765D01*
X34020790Y-96524346D01*
X34048182Y-96466805D01*
X34130432Y-96341721D01*
X34237343Y-96247347D01*
X34369978Y-96183117D01*
X34529399Y-96148462D01*
X34656759Y-96141497D01*
X34815412Y-96141497D01*
X34809816Y-95843208D01*
X34804220Y-95544920D01*
X34713216Y-95532790D01*
X34685533Y-95527215D01*
X34698068Y-95523218D01*
X34750892Y-95520792D01*
X34824443Y-95519969D01*
X34904695Y-95520512D01*
X34962815Y-95522523D01*
X34992132Y-95525660D01*
X34991282Y-95528526D01*
X34982404Y-95533070D01*
X34975142Y-95544087D01*
X34969335Y-95565289D01*
X34964822Y-95600388D01*
X34961442Y-95653096D01*
X34959033Y-95727126D01*
X34957435Y-95826189D01*
X34956487Y-95953998D01*
X34956026Y-96114266D01*
X34955893Y-96310703D01*
X34955892Y-96343892D01*
X34956387Y-96541698D01*
X34957816Y-96720524D01*
X34960096Y-96876740D01*
X34963144Y-97006715D01*
X34966876Y-97106819D01*
X34971209Y-97173422D01*
X34975614Y-97201884D01*
X35004774Y-97244620D01*
X35042002Y-97248681D01*
X35082606Y-97213773D01*
X35086194Y-97208812D01*
X35108895Y-97178708D01*
X35116783Y-97181129D01*
X35117675Y-97204768D01*
X35103632Y-97256008D01*
X35059464Y-97285139D01*
X34983649Y-97294204D01*
X34912982Y-97285378D01*
X34863756Y-97255666D01*
X34832934Y-97200216D01*
X34817477Y-97114175D01*
X34814133Y-97023523D01*
X34813936Y-96859411D01*
X34765541Y-96963348D01*
X34712636Y-97056114D01*
X34644921Y-97145426D01*
X34572337Y-97219613D01*
X34508455Y-97265178D01*
X34427650Y-97289162D01*
X34329709Y-97292945D01*
X34232060Y-97277334D01*
X34161901Y-97249181D01*
X34084175Y-97181114D01*
X34035508Y-97104114D01*
X34011632Y-97050878D01*
X33996654Y-96999489D01*
X33988602Y-96937944D01*
X33985501Y-96854241D01*
X33985303Y-96818298D01*
X34137139Y-96818298D01*
X34137140Y-96818965D01*
X34138132Y-96926455D01*
X34141725Y-97003164D01*
X34149279Y-97058737D01*
X34162152Y-97102820D01*
X34181701Y-97145059D01*
X34183558Y-97148578D01*
X34220104Y-97204398D01*
X34259155Y-97245017D01*
X34274284Y-97254408D01*
X34348906Y-97266688D01*
X34437000Y-97251458D01*
X34522212Y-97212624D01*
X34602297Y-97143425D01*
X34677936Y-97039925D01*
X34744916Y-96908269D01*
X34764601Y-96859158D01*
X34785032Y-96800619D01*
X34799019Y-96746195D01*
X34807747Y-96686003D01*
X34812400Y-96610163D01*
X34814163Y-96508791D01*
X34814331Y-96444379D01*
X34814331Y-96161720D01*
X34706775Y-96161720D01*
X34548725Y-96178445D01*
X34411939Y-96227657D01*
X34298868Y-96307905D01*
X34211964Y-96417741D01*
X34184782Y-96470288D01*
X34163721Y-96521731D01*
X34149851Y-96571825D01*
X34141747Y-96630999D01*
X34137985Y-96709680D01*
X34137139Y-96818298D01*
X33985303Y-96818298D01*
X33985191Y-96798001D01*
X33986203Y-96700837D01*
G37*
G36*
X37303716Y-96649496D02*
G01*
X37311987Y-96582220D01*
X37330133Y-96522134D01*
X37361720Y-96452659D01*
X37365178Y-96445710D01*
X37444807Y-96322434D01*
X37545048Y-96232332D01*
X37668312Y-96174000D01*
X37817005Y-96146033D01*
X37883966Y-96143035D01*
X38020221Y-96154344D01*
X38129563Y-96190252D01*
X38209609Y-96249073D01*
X38257976Y-96329116D01*
X38272452Y-96418238D01*
X38263797Y-96505143D01*
X38235024Y-96576448D01*
X38181919Y-96635798D01*
X38100269Y-96686835D01*
X37985862Y-96733204D01*
X37865678Y-96770011D01*
X37713656Y-96817228D01*
X37599920Y-96864350D01*
X37522359Y-96913299D01*
X37478863Y-96965995D01*
X37467323Y-97024359D01*
X37485628Y-97090314D01*
X37494501Y-97107994D01*
X37562552Y-97194999D01*
X37652452Y-97254155D01*
X37755756Y-97284410D01*
X37864021Y-97284716D01*
X37968804Y-97254021D01*
X38061661Y-97191278D01*
X38073167Y-97179940D01*
X38115291Y-97129290D01*
X38138342Y-97077007D01*
X38150043Y-97004725D01*
X38150951Y-96994961D01*
X38159129Y-96927978D01*
X38171235Y-96891657D01*
X38191502Y-96876213D01*
X38203441Y-96873602D01*
X38249620Y-96882242D01*
X38271458Y-96898659D01*
X38289515Y-96949698D01*
X38278819Y-97015714D01*
X38244098Y-97088993D01*
X38190078Y-97161818D01*
X38121485Y-97226472D01*
X38043046Y-97275240D01*
X38039888Y-97276697D01*
X37961248Y-97299431D01*
X37859900Y-97311036D01*
X37752125Y-97311133D01*
X37654207Y-97299344D01*
X37607867Y-97286738D01*
X37492373Y-97224968D01*
X37403788Y-97133318D01*
X37342462Y-97012411D01*
X37308742Y-96862868D01*
X37303978Y-96779514D01*
X37443312Y-96779514D01*
X37443732Y-96855840D01*
X37446477Y-96898015D01*
X37453773Y-96912336D01*
X37467848Y-96905099D01*
X37482682Y-96890821D01*
X37530949Y-96851774D01*
X37578741Y-96822341D01*
X37625166Y-96803089D01*
X37696843Y-96778432D01*
X37779865Y-96753089D01*
X37797213Y-96748185D01*
X37909386Y-96714742D01*
X37989032Y-96684713D01*
X38043412Y-96654236D01*
X38079786Y-96619450D01*
X38100215Y-96587063D01*
X38123674Y-96510179D01*
X38129526Y-96417475D01*
X38117684Y-96328868D01*
X38101511Y-96284901D01*
X38049706Y-96226780D01*
X37968580Y-96188496D01*
X37865743Y-96173394D01*
X37847771Y-96173353D01*
X37726052Y-96192882D01*
X37625298Y-96246484D01*
X37546078Y-96333307D01*
X37488962Y-96452495D01*
X37454519Y-96603196D01*
X37443312Y-96779514D01*
X37303978Y-96779514D01*
X37301751Y-96740545D01*
X37303716Y-96649496D01*
G37*
G36*
X21713735Y-96162363D02*
G01*
X21794757Y-96163488D01*
X21841037Y-96166881D01*
X21858265Y-96173723D01*
X21852130Y-96185193D01*
X21846377Y-96189871D01*
X21834978Y-96201822D01*
X21826304Y-96221508D01*
X21819988Y-96254015D01*
X21815668Y-96304432D01*
X21812977Y-96377844D01*
X21811552Y-96479338D01*
X21811027Y-96614003D01*
X21810987Y-96683373D01*
X21811822Y-96819672D01*
X21814163Y-96944863D01*
X21817761Y-97052446D01*
X21822370Y-97135918D01*
X21827743Y-97188776D01*
X21830709Y-97201884D01*
X21859870Y-97244620D01*
X21897098Y-97248681D01*
X21937701Y-97213773D01*
X21941289Y-97208812D01*
X21963990Y-97178708D01*
X21971878Y-97181129D01*
X21972771Y-97204768D01*
X21958727Y-97256008D01*
X21914560Y-97285139D01*
X21838745Y-97294204D01*
X21775103Y-97287996D01*
X21732505Y-97264307D01*
X21711340Y-97240919D01*
X21698231Y-97222319D01*
X21688178Y-97200568D01*
X21680779Y-97170401D01*
X21675628Y-97126552D01*
X21672322Y-97063753D01*
X21670456Y-96976740D01*
X21669626Y-96860245D01*
X21669427Y-96709003D01*
X21669427Y-96202165D01*
X21620063Y-96202165D01*
X21577243Y-96194709D01*
X21558200Y-96181943D01*
X21570167Y-96171332D01*
X21619616Y-96164682D01*
X21703749Y-96162346D01*
X21713735Y-96162363D01*
G37*
G36*
X32488694Y-96668622D02*
G01*
X32489545Y-96834111D01*
X32492008Y-96974535D01*
X32495942Y-97086296D01*
X32501212Y-97165797D01*
X32507679Y-97209442D01*
X32509629Y-97214641D01*
X32543097Y-97249041D01*
X32582675Y-97244755D01*
X32618996Y-97208812D01*
X32641697Y-97178708D01*
X32649585Y-97181129D01*
X32650478Y-97204768D01*
X32636230Y-97256287D01*
X32591603Y-97285456D01*
X32518118Y-97294204D01*
X32451617Y-97287230D01*
X32405188Y-97262418D01*
X32374841Y-97213937D01*
X32356589Y-97135951D01*
X32347796Y-97045082D01*
X32342235Y-96964937D01*
X32337351Y-96920522D01*
X32331393Y-96907192D01*
X32322607Y-96920304D01*
X32311539Y-96948962D01*
X32261272Y-97054979D01*
X32194364Y-97153316D01*
X32120030Y-97231687D01*
X32074901Y-97264483D01*
X31974703Y-97303394D01*
X31862969Y-97315185D01*
X31755290Y-97299329D01*
X31700705Y-97277184D01*
X31655822Y-97249685D01*
X31620550Y-97217552D01*
X31593598Y-97175690D01*
X31573669Y-97119000D01*
X31559472Y-97042387D01*
X31549712Y-96940756D01*
X31543096Y-96809009D01*
X31538329Y-96642050D01*
X31538216Y-96637120D01*
X31528105Y-96192377D01*
X31467436Y-96179441D01*
X31458550Y-96173892D01*
X31485082Y-96169647D01*
X31542012Y-96167226D01*
X31588774Y-96166866D01*
X31662543Y-96167877D01*
X31711977Y-96170299D01*
X31730836Y-96173715D01*
X31725278Y-96175992D01*
X31709185Y-96180133D01*
X31697425Y-96189177D01*
X31689329Y-96208731D01*
X31684224Y-96244402D01*
X31681438Y-96301799D01*
X31680299Y-96386530D01*
X31680136Y-96504203D01*
X31680184Y-96552417D01*
X31681858Y-96744970D01*
X31687168Y-96900834D01*
X31697249Y-97023689D01*
X31713235Y-97117213D01*
X31736263Y-97185087D01*
X31767467Y-97230991D01*
X31807981Y-97258602D01*
X31858942Y-97271603D01*
X31902764Y-97273981D01*
X32003663Y-97257684D01*
X32093227Y-97207028D01*
X32175652Y-97119365D01*
X32198323Y-97087380D01*
X32255475Y-96991932D01*
X32296803Y-96895305D01*
X32324399Y-96788555D01*
X32340354Y-96662740D01*
X32346759Y-96508918D01*
X32347134Y-96451025D01*
X32347134Y-96161720D01*
X32488694Y-96161720D01*
X32488694Y-96668622D01*
G37*
G36*
X39782893Y-95619295D02*
G01*
X39825653Y-95632421D01*
X39843760Y-95667262D01*
X39846520Y-95685483D01*
X39838390Y-95744617D01*
X39805706Y-95783039D01*
X39759085Y-95794935D01*
X39709146Y-95774491D01*
X39699613Y-95765928D01*
X39669794Y-95715306D01*
X39674481Y-95667499D01*
X39708288Y-95631988D01*
X39765829Y-95618259D01*
X39782893Y-95619295D01*
G37*
G36*
X39406124Y-96167701D02*
G01*
X39465836Y-96169467D01*
X39496825Y-96172303D01*
X39495939Y-96175311D01*
X39402443Y-96205492D01*
X39341300Y-96246642D01*
X39329043Y-96262345D01*
X39315629Y-96291612D01*
X39290793Y-96353266D01*
X39256712Y-96441604D01*
X39215566Y-96550923D01*
X39169532Y-96675519D01*
X39134259Y-96772383D01*
X39086506Y-96904179D01*
X39042763Y-97024644D01*
X39005084Y-97128137D01*
X38975527Y-97209018D01*
X38956147Y-97261646D01*
X38949586Y-97279036D01*
X38922449Y-97306650D01*
X38883634Y-97313385D01*
X38852302Y-97297341D01*
X38847723Y-97289148D01*
X38838073Y-97264367D01*
X38815741Y-97206918D01*
X38782684Y-97121836D01*
X38740858Y-97014160D01*
X38692220Y-96888923D01*
X38638725Y-96751163D01*
X38629716Y-96727962D01*
X38421634Y-96192054D01*
X38341987Y-96179757D01*
X38328990Y-96175047D01*
X38351896Y-96171185D01*
X38406163Y-96168536D01*
X38487251Y-96167466D01*
X38494904Y-96167459D01*
X38578236Y-96168396D01*
X38636482Y-96170952D01*
X38664643Y-96174745D01*
X38657724Y-96179393D01*
X38655706Y-96179757D01*
X38583943Y-96192054D01*
X38766599Y-96661558D01*
X38817013Y-96789319D01*
X38863120Y-96902707D01*
X38902828Y-96996851D01*
X38934043Y-97066880D01*
X38954671Y-97107923D01*
X38962184Y-97116574D01*
X38972476Y-97094114D01*
X38994202Y-97039145D01*
X39025252Y-96957271D01*
X39063514Y-96854094D01*
X39106879Y-96735218D01*
X39130247Y-96670439D01*
X39182720Y-96523473D01*
X39221672Y-96409962D01*
X39247520Y-96325396D01*
X39260681Y-96265260D01*
X39261572Y-96225044D01*
X39250609Y-96200235D01*
X39228211Y-96186321D01*
X39194793Y-96178789D01*
X39175922Y-96176236D01*
X39168021Y-96172957D01*
X39195278Y-96170157D01*
X39252408Y-96168154D01*
X39324044Y-96167302D01*
X39406124Y-96167701D01*
G37*
G36*
X33525101Y-96159268D02*
G01*
X33595122Y-96184014D01*
X33641387Y-96208472D01*
X33676826Y-96234999D01*
X33702875Y-96269069D01*
X33720968Y-96316154D01*
X33732543Y-96381728D01*
X33739036Y-96471265D01*
X33741881Y-96590239D01*
X33742516Y-96744123D01*
X33742516Y-96745864D01*
X33743480Y-96872971D01*
X33746167Y-96989034D01*
X33750269Y-97086916D01*
X33755476Y-97159482D01*
X33761481Y-97199595D01*
X33762238Y-97201884D01*
X33791385Y-97241248D01*
X33830025Y-97254146D01*
X33864439Y-97239227D01*
X33878217Y-97213312D01*
X33895369Y-97180326D01*
X33914823Y-97174974D01*
X33924508Y-97200268D01*
X33924522Y-97201756D01*
X33906192Y-97249096D01*
X33855589Y-97281212D01*
X33779291Y-97294120D01*
X33771872Y-97294204D01*
X33724705Y-97292260D01*
X33687774Y-97283455D01*
X33659684Y-97263325D01*
X33639046Y-97227407D01*
X33624467Y-97171239D01*
X33614555Y-97090357D01*
X33607919Y-96980300D01*
X33603166Y-96836604D01*
X33600955Y-96746172D01*
X33597345Y-96600786D01*
X33593721Y-96490304D01*
X33589504Y-96409189D01*
X33584115Y-96351905D01*
X33576976Y-96312912D01*
X33567510Y-96286674D01*
X33555137Y-96267654D01*
X33550398Y-96262108D01*
X33472058Y-96201113D01*
X33382008Y-96175098D01*
X33286254Y-96182684D01*
X33190799Y-96222493D01*
X33101649Y-96293145D01*
X33032309Y-96381109D01*
X32974044Y-96472982D01*
X32974044Y-97253758D01*
X33033520Y-97253758D01*
X33080222Y-97259992D01*
X33105493Y-97273981D01*
X33092834Y-97283968D01*
X33042107Y-97290701D01*
X32955580Y-97293939D01*
X32914569Y-97294204D01*
X32820236Y-97292292D01*
X32751983Y-97286939D01*
X32715596Y-97278720D01*
X32711146Y-97273981D01*
X32728719Y-97259782D01*
X32771060Y-97253759D01*
X32771815Y-97253758D01*
X32832484Y-97253758D01*
X32832484Y-96202165D01*
X32771815Y-96202165D01*
X32729218Y-96196308D01*
X32711151Y-96182194D01*
X32711146Y-96181943D01*
X32730136Y-96172036D01*
X32782298Y-96165236D01*
X32860423Y-96162386D01*
X32877985Y-96162363D01*
X32958637Y-96163494D01*
X33004555Y-96166911D01*
X33021439Y-96173807D01*
X33014986Y-96185375D01*
X33009435Y-96189871D01*
X32982070Y-96233598D01*
X32974044Y-96303301D01*
X32974044Y-96389866D01*
X33059091Y-96293248D01*
X33115624Y-96236599D01*
X33173786Y-96190117D01*
X33210114Y-96169063D01*
X33304710Y-96145839D01*
X33415763Y-96142809D01*
X33525101Y-96159268D01*
G37*
G36*
X21487420Y-95726927D02*
G01*
X21484490Y-95809094D01*
X21476718Y-95859735D01*
X21465638Y-95876655D01*
X21452780Y-95857660D01*
X21439676Y-95800556D01*
X21438988Y-95796328D01*
X21412741Y-95715659D01*
X21361498Y-95656761D01*
X21282378Y-95618333D01*
X21172501Y-95599074D01*
X21028985Y-95597683D01*
X21002070Y-95599070D01*
X20890844Y-95605589D01*
X20890844Y-97263472D01*
X20951513Y-97276445D01*
X20958576Y-97281732D01*
X20930638Y-97285981D01*
X20873135Y-97288692D01*
X20809952Y-97289418D01*
X20732831Y-97288285D01*
X20680948Y-97285218D01*
X20659745Y-97280716D01*
X20668392Y-97276445D01*
X20729060Y-97263472D01*
X20729060Y-95605589D01*
X20557165Y-95605819D01*
X20470237Y-95607734D01*
X20392530Y-95612613D01*
X20337842Y-95619506D01*
X20329030Y-95621529D01*
X20274337Y-95654544D01*
X20227483Y-95713443D01*
X20198253Y-95783710D01*
X20193228Y-95822985D01*
X20186828Y-95863347D01*
X20172930Y-95878599D01*
X20162740Y-95859779D01*
X20155638Y-95808835D01*
X20152726Y-95734039D01*
X20152707Y-95726927D01*
X20152707Y-95575255D01*
X21487420Y-95575255D01*
X21487420Y-95726927D01*
G37*
G36*
X22827171Y-96159268D02*
G01*
X22897192Y-96184014D01*
X22943457Y-96208472D01*
X22978896Y-96234999D01*
X23004945Y-96269069D01*
X23023038Y-96316154D01*
X23034614Y-96381728D01*
X23041106Y-96471265D01*
X23043951Y-96590239D01*
X23044586Y-96744123D01*
X23044586Y-96745864D01*
X23045550Y-96872971D01*
X23048237Y-96989034D01*
X23052339Y-97086916D01*
X23057546Y-97159482D01*
X23063551Y-97199595D01*
X23064308Y-97201884D01*
X23093455Y-97241248D01*
X23132095Y-97254146D01*
X23166509Y-97239227D01*
X23180287Y-97213312D01*
X23197439Y-97180326D01*
X23216893Y-97174974D01*
X23226578Y-97200268D01*
X23226592Y-97201756D01*
X23208262Y-97249096D01*
X23157659Y-97281212D01*
X23081361Y-97294120D01*
X23073942Y-97294204D01*
X23026775Y-97292260D01*
X22989844Y-97283455D01*
X22961755Y-97263325D01*
X22941116Y-97227407D01*
X22926537Y-97171239D01*
X22916625Y-97090357D01*
X22909989Y-96980300D01*
X22905236Y-96836604D01*
X22903025Y-96746172D01*
X22899416Y-96600786D01*
X22895791Y-96490304D01*
X22891574Y-96409189D01*
X22886185Y-96351905D01*
X22879046Y-96312912D01*
X22869580Y-96286674D01*
X22857207Y-96267654D01*
X22852468Y-96262108D01*
X22774128Y-96201113D01*
X22684078Y-96175098D01*
X22588324Y-96182684D01*
X22492869Y-96222493D01*
X22403720Y-96293145D01*
X22334379Y-96381109D01*
X22276114Y-96472982D01*
X22276114Y-97253758D01*
X22335590Y-97253758D01*
X22382292Y-97259992D01*
X22407564Y-97273981D01*
X22394904Y-97283968D01*
X22344177Y-97290701D01*
X22257650Y-97293939D01*
X22216639Y-97294204D01*
X22122306Y-97292292D01*
X22054053Y-97286939D01*
X22017666Y-97278720D01*
X22013216Y-97273981D01*
X22030789Y-97259782D01*
X22073130Y-97253759D01*
X22073885Y-97253758D01*
X22134554Y-97253758D01*
X22134554Y-96202165D01*
X22073885Y-96202165D01*
X22031288Y-96196308D01*
X22013221Y-96182194D01*
X22013216Y-96181943D01*
X22032206Y-96172036D01*
X22084368Y-96165236D01*
X22162493Y-96162386D01*
X22180056Y-96162363D01*
X22260707Y-96163494D01*
X22306625Y-96166911D01*
X22323509Y-96173807D01*
X22317056Y-96185375D01*
X22311505Y-96189871D01*
X22284140Y-96233598D01*
X22276114Y-96303301D01*
X22276114Y-96389866D01*
X22361161Y-96293248D01*
X22417694Y-96236599D01*
X22475856Y-96190117D01*
X22512184Y-96169063D01*
X22606780Y-96145839D01*
X22717833Y-96142809D01*
X22827171Y-96159268D01*
G37*
G36*
X26322665Y-96649496D02*
G01*
X26330936Y-96582220D01*
X26349082Y-96522134D01*
X26380669Y-96452659D01*
X26384127Y-96445710D01*
X26463756Y-96322434D01*
X26563997Y-96232332D01*
X26687261Y-96174000D01*
X26835954Y-96146033D01*
X26902915Y-96143035D01*
X27039170Y-96154344D01*
X27148512Y-96190252D01*
X27228558Y-96249073D01*
X27276926Y-96329116D01*
X27291401Y-96418238D01*
X27282746Y-96505143D01*
X27253973Y-96576448D01*
X27200868Y-96635798D01*
X27119218Y-96686835D01*
X27004811Y-96733204D01*
X26884627Y-96770011D01*
X26732605Y-96817228D01*
X26618869Y-96864350D01*
X26541308Y-96913299D01*
X26497812Y-96965995D01*
X26486272Y-97024359D01*
X26504577Y-97090314D01*
X26513450Y-97107994D01*
X26581501Y-97194999D01*
X26671401Y-97254155D01*
X26774705Y-97284410D01*
X26882970Y-97284716D01*
X26987753Y-97254021D01*
X27080610Y-97191278D01*
X27092116Y-97179940D01*
X27134240Y-97129290D01*
X27157291Y-97077007D01*
X27168992Y-97004725D01*
X27169900Y-96994961D01*
X27178078Y-96927978D01*
X27190184Y-96891657D01*
X27210451Y-96876213D01*
X27222390Y-96873602D01*
X27268570Y-96882242D01*
X27290407Y-96898659D01*
X27308464Y-96949698D01*
X27297768Y-97015714D01*
X27263047Y-97088993D01*
X27209027Y-97161818D01*
X27140434Y-97226472D01*
X27061995Y-97275240D01*
X27058837Y-97276697D01*
X26980197Y-97299431D01*
X26878849Y-97311036D01*
X26771074Y-97311133D01*
X26673156Y-97299344D01*
X26626817Y-97286738D01*
X26511322Y-97224968D01*
X26422737Y-97133318D01*
X26361411Y-97012411D01*
X26327691Y-96862868D01*
X26322927Y-96779514D01*
X26462261Y-96779514D01*
X26462681Y-96855840D01*
X26465426Y-96898015D01*
X26472722Y-96912336D01*
X26486797Y-96905099D01*
X26501631Y-96890821D01*
X26549898Y-96851774D01*
X26597690Y-96822341D01*
X26644115Y-96803089D01*
X26715792Y-96778432D01*
X26798814Y-96753089D01*
X26816162Y-96748185D01*
X26928335Y-96714742D01*
X27007981Y-96684713D01*
X27062361Y-96654236D01*
X27098735Y-96619450D01*
X27119164Y-96587063D01*
X27142623Y-96510179D01*
X27148475Y-96417475D01*
X27136633Y-96328868D01*
X27120460Y-96284901D01*
X27068655Y-96226780D01*
X26987529Y-96188496D01*
X26884692Y-96173394D01*
X26866720Y-96173353D01*
X26745001Y-96192882D01*
X26644247Y-96246484D01*
X26565027Y-96333307D01*
X26507911Y-96452495D01*
X26473468Y-96603196D01*
X26462261Y-96779514D01*
X26322927Y-96779514D01*
X26320700Y-96740545D01*
X26322665Y-96649496D01*
G37*
G36*
X31523344Y-83675206D02*
G01*
X31647678Y-83676628D01*
X31747080Y-83679556D01*
X31829307Y-83684577D01*
X31902113Y-83692275D01*
X31973257Y-83703235D01*
X32050493Y-83718042D01*
X32112116Y-83730963D01*
X32445864Y-83818642D01*
X32749533Y-83932879D01*
X33023876Y-84074052D01*
X33269648Y-84242546D01*
X33463322Y-84414148D01*
X33645169Y-84620787D01*
X33790801Y-84841191D01*
X33899334Y-85073248D01*
X33969887Y-85314847D01*
X34001578Y-85563875D01*
X34002073Y-85704528D01*
X33996335Y-85804700D01*
X33986610Y-85878329D01*
X33969903Y-85939308D01*
X33943222Y-86001527D01*
X33934083Y-86020017D01*
X33863601Y-86133583D01*
X33782931Y-86210572D01*
X33687452Y-86254467D01*
X33605700Y-86267617D01*
X33486651Y-86259810D01*
X33390929Y-86219122D01*
X33318136Y-86145237D01*
X33267872Y-86037836D01*
X33254661Y-85988460D01*
X33248123Y-85934904D01*
X33251476Y-85867651D01*
X33265580Y-85777336D01*
X33281080Y-85701085D01*
X33320337Y-85436321D01*
X33322167Y-85185542D01*
X33287591Y-84950185D01*
X33217631Y-84731686D01*
X33113309Y-84531480D01*
X32975648Y-84351004D01*
X32805669Y-84191695D01*
X32604394Y-84054987D01*
X32372845Y-83942318D01*
X32112045Y-83855123D01*
X31938908Y-83815034D01*
X31808845Y-83795442D01*
X31651105Y-83780876D01*
X31478192Y-83771726D01*
X31302608Y-83768380D01*
X31136856Y-83771228D01*
X30993439Y-83780662D01*
X30959356Y-83784490D01*
X30647964Y-83839611D01*
X30365215Y-83923245D01*
X30111034Y-84035426D01*
X29885345Y-84176187D01*
X29690016Y-84343615D01*
X29523530Y-84535122D01*
X29395221Y-84739232D01*
X29304309Y-84957833D01*
X29250015Y-85192812D01*
X29231559Y-85446055D01*
X29231550Y-85453678D01*
X29247731Y-85691793D01*
X29296679Y-85912965D01*
X29379620Y-86119186D01*
X29497777Y-86312449D01*
X29652374Y-86494748D01*
X29844635Y-86668075D01*
X30075785Y-86834424D01*
X30082165Y-86838571D01*
X30190556Y-86903373D01*
X30330288Y-86978343D01*
X30494540Y-87060251D01*
X30676492Y-87145866D01*
X30869322Y-87231958D01*
X31066209Y-87315297D01*
X31214650Y-87374918D01*
X31457750Y-87470269D01*
X31667150Y-87552842D01*
X31846911Y-87624338D01*
X32001099Y-87686456D01*
X32133778Y-87740896D01*
X32249012Y-87789359D01*
X32350865Y-87833545D01*
X32443400Y-87875154D01*
X32530682Y-87915886D01*
X32616776Y-87957442D01*
X32670700Y-87984048D01*
X32977378Y-88147482D01*
X33246421Y-88314876D01*
X33480599Y-88488322D01*
X33682680Y-88669915D01*
X33855433Y-88861748D01*
X33890217Y-88906108D01*
X34046823Y-89144144D01*
X34169673Y-89403329D01*
X34258088Y-89681536D01*
X34311388Y-89976638D01*
X34328899Y-90280124D01*
X34309348Y-90569895D01*
X34251743Y-90851385D01*
X34157992Y-91122565D01*
X34030001Y-91381405D01*
X33869676Y-91625876D01*
X33678925Y-91853949D01*
X33459654Y-92063593D01*
X33213769Y-92252780D01*
X32943178Y-92419480D01*
X32649786Y-92561663D01*
X32335501Y-92677301D01*
X32002229Y-92764363D01*
X31993232Y-92766247D01*
X31913137Y-92781254D01*
X31830508Y-92792781D01*
X31737737Y-92801387D01*
X31627215Y-92807630D01*
X31491332Y-92812068D01*
X31325876Y-92815209D01*
X31183656Y-92816429D01*
X31046808Y-92815982D01*
X30923309Y-92814016D01*
X30821136Y-92810682D01*
X30748266Y-92806130D01*
X30729299Y-92804027D01*
X30355469Y-92736517D01*
X30009539Y-92640293D01*
X29690412Y-92514836D01*
X29396989Y-92359626D01*
X29128171Y-92174144D01*
X28882860Y-91957870D01*
X28832737Y-91906941D01*
X28640817Y-91684347D01*
X28484940Y-91452313D01*
X28360782Y-91203910D01*
X28306676Y-91064146D01*
X28257321Y-90897546D01*
X28219987Y-90716657D01*
X28195247Y-90530192D01*
X28183672Y-90346866D01*
X28185833Y-90175393D01*
X28202302Y-90024487D01*
X28230996Y-89910136D01*
X28288325Y-89793912D01*
X28366811Y-89698436D01*
X28460423Y-89625850D01*
X28563126Y-89578297D01*
X28668887Y-89557921D01*
X28771674Y-89566864D01*
X28865451Y-89607269D01*
X28928743Y-89662322D01*
X28971636Y-89725415D01*
X28998146Y-89801540D01*
X29008440Y-89895710D01*
X29002687Y-90012936D01*
X28981055Y-90158230D01*
X28950390Y-90307181D01*
X28914500Y-90556780D01*
X28915229Y-90815532D01*
X28951834Y-91077096D01*
X29023574Y-91335129D01*
X29089974Y-91500780D01*
X29209343Y-91717924D01*
X29363445Y-91923829D01*
X29547066Y-92113585D01*
X29754991Y-92282285D01*
X29982007Y-92425021D01*
X30166542Y-92514149D01*
X30446197Y-92611763D01*
X30745715Y-92678951D01*
X31058142Y-92715565D01*
X31376522Y-92721456D01*
X31693903Y-92696473D01*
X32003327Y-92640467D01*
X32280378Y-92559522D01*
X32556859Y-92444615D01*
X32811971Y-92303614D01*
X33042984Y-92139212D01*
X33247168Y-91954102D01*
X33421793Y-91750975D01*
X33564129Y-91532523D01*
X33671446Y-91301440D01*
X33723576Y-91136321D01*
X33744645Y-91038911D01*
X33757473Y-90937538D01*
X33763382Y-90818664D01*
X33764128Y-90721751D01*
X33748277Y-90448393D01*
X33702139Y-90192740D01*
X33624687Y-89953564D01*
X33514895Y-89729638D01*
X33371734Y-89519732D01*
X33194178Y-89322620D01*
X32981200Y-89137073D01*
X32731771Y-88961862D01*
X32444866Y-88795761D01*
X32119457Y-88637540D01*
X31964707Y-88570478D01*
X31879638Y-88535656D01*
X31765210Y-88490034D01*
X31629956Y-88436950D01*
X31482412Y-88379739D01*
X31331114Y-88321736D01*
X31236681Y-88285903D01*
X30970233Y-88184373D01*
X30738048Y-88093831D01*
X30536036Y-88012416D01*
X30360110Y-87938264D01*
X30206181Y-87869516D01*
X30070161Y-87804310D01*
X29947961Y-87740783D01*
X29835494Y-87677075D01*
X29728671Y-87611324D01*
X29667595Y-87571457D01*
X29425505Y-87394515D01*
X29221902Y-87210322D01*
X29055057Y-87015940D01*
X28923244Y-86808433D01*
X28824733Y-86584861D01*
X28757797Y-86342288D01*
X28720708Y-86077777D01*
X28713235Y-85949140D01*
X28712873Y-85731982D01*
X28729605Y-85538891D01*
X28765572Y-85356352D01*
X28822912Y-85170853D01*
X28846374Y-85108017D01*
X28957765Y-84874761D01*
X29105175Y-84653684D01*
X29285242Y-84447748D01*
X29494602Y-84259919D01*
X29729893Y-84093158D01*
X29987750Y-83950431D01*
X30264813Y-83834699D01*
X30308339Y-83819677D01*
X30448553Y-83774719D01*
X30574847Y-83739805D01*
X30695798Y-83713759D01*
X30819984Y-83695407D01*
X30955984Y-83683574D01*
X31112376Y-83677083D01*
X31297736Y-83674759D01*
X31366321Y-83674706D01*
X31523344Y-83675206D01*
G37*
G36*
X26229068Y-96129577D02*
G01*
X26266614Y-96147464D01*
X26270061Y-96149694D01*
X26313099Y-96190082D01*
X26319492Y-96226280D01*
X26293040Y-96253949D01*
X26237545Y-96268749D01*
X26166826Y-96267583D01*
X26064145Y-96274700D01*
X25958974Y-96314343D01*
X25862247Y-96380889D01*
X25789770Y-96461533D01*
X25724124Y-96556067D01*
X25724124Y-97263392D01*
X25784793Y-97276405D01*
X25791857Y-97281635D01*
X25763920Y-97285697D01*
X25706422Y-97288123D01*
X25643232Y-97288575D01*
X25566717Y-97287523D01*
X25516049Y-97285328D01*
X25496434Y-97282332D01*
X25506728Y-97279574D01*
X25572452Y-97271418D01*
X25572452Y-96202165D01*
X25511783Y-96202165D01*
X25469186Y-96196308D01*
X25451119Y-96182194D01*
X25451114Y-96181943D01*
X25470104Y-96172036D01*
X25522266Y-96165236D01*
X25600391Y-96162386D01*
X25617954Y-96162363D01*
X25698605Y-96163494D01*
X25744523Y-96166911D01*
X25761407Y-96173807D01*
X25754954Y-96185375D01*
X25749403Y-96189871D01*
X25729136Y-96215289D01*
X25718084Y-96259199D01*
X25714137Y-96331327D01*
X25714013Y-96353042D01*
X25714013Y-96489348D01*
X25792248Y-96385226D01*
X25903336Y-96262765D01*
X26023242Y-96179021D01*
X26124280Y-96140470D01*
X26187249Y-96127601D01*
X26229068Y-96129577D01*
G37*
G36*
X21764263Y-95619295D02*
G01*
X21807023Y-95632421D01*
X21825130Y-95667262D01*
X21827889Y-95685483D01*
X21819759Y-95744617D01*
X21787075Y-95783039D01*
X21740454Y-95794935D01*
X21690516Y-95774491D01*
X21680983Y-95765928D01*
X21651164Y-95715306D01*
X21655851Y-95667499D01*
X21689658Y-95631988D01*
X21747199Y-95618259D01*
X21764263Y-95619295D01*
G37*
G36*
X37045102Y-85418681D02*
G01*
X37043407Y-85152882D01*
X37041522Y-84908865D01*
X37039449Y-84688934D01*
X37037185Y-84495393D01*
X37034733Y-84330548D01*
X37032091Y-84196703D01*
X37029260Y-84096163D01*
X37026240Y-84031233D01*
X37023030Y-84004216D01*
X37022704Y-84003694D01*
X36995389Y-83992021D01*
X36937212Y-83982528D01*
X36845283Y-83974917D01*
X36716714Y-83968891D01*
X36668803Y-83967293D01*
X36546883Y-83963268D01*
X36459625Y-83959315D01*
X36401260Y-83954542D01*
X36366014Y-83948059D01*
X36348117Y-83938976D01*
X36341798Y-83926401D01*
X36341162Y-83916735D01*
X36341813Y-83909240D01*
X36345545Y-83902721D01*
X36355029Y-83897097D01*
X36372932Y-83892290D01*
X36401925Y-83888219D01*
X36444676Y-83884803D01*
X36503856Y-83881964D01*
X36582134Y-83879621D01*
X36682179Y-83877694D01*
X36806660Y-83876104D01*
X36958248Y-83874770D01*
X37139610Y-83873612D01*
X37353417Y-83872551D01*
X37602338Y-83871506D01*
X37888216Y-83870402D01*
X38246828Y-83869382D01*
X38565043Y-83869206D01*
X38842898Y-83869875D01*
X39080434Y-83871388D01*
X39277689Y-83873747D01*
X39434703Y-83876952D01*
X39551515Y-83881002D01*
X39628164Y-83885899D01*
X39637500Y-83886849D01*
X40021513Y-83947530D01*
X40397172Y-84042897D01*
X40760055Y-84171065D01*
X41105743Y-84330154D01*
X41429816Y-84518278D01*
X41727854Y-84733557D01*
X41833725Y-84822408D01*
X42110612Y-85090961D01*
X42355732Y-85384187D01*
X42569172Y-85702252D01*
X42751018Y-86045322D01*
X42901355Y-86413563D01*
X43020271Y-86807140D01*
X43107852Y-87226220D01*
X43118704Y-87293965D01*
X43136225Y-87442506D01*
X43148846Y-87622433D01*
X43156620Y-87824993D01*
X43159601Y-88041430D01*
X43157842Y-88262991D01*
X43151398Y-88480920D01*
X43140322Y-88686463D01*
X43124667Y-88870866D01*
X43108221Y-89001688D01*
X43024816Y-89442562D01*
X42912273Y-89857398D01*
X42770977Y-90245618D01*
X42601309Y-90606645D01*
X42403651Y-90939901D01*
X42178386Y-91244807D01*
X41925897Y-91520787D01*
X41646567Y-91767261D01*
X41340777Y-91983652D01*
X41012659Y-92167529D01*
X40805584Y-92265201D01*
X40615291Y-92343449D01*
X40426605Y-92407644D01*
X40224349Y-92463156D01*
X40085688Y-92495521D01*
X39839729Y-92549924D01*
X38085390Y-92556818D01*
X36331051Y-92563713D01*
X36331051Y-92464403D01*
X36663757Y-92457608D01*
X36802950Y-92453642D01*
X36905244Y-92448016D01*
X36974164Y-92440406D01*
X37013235Y-92430485D01*
X37022714Y-92424522D01*
X37025942Y-92401356D01*
X37028981Y-92340049D01*
X37031831Y-92242905D01*
X37034491Y-92112231D01*
X37036961Y-91950330D01*
X37039243Y-91759507D01*
X37041335Y-91542067D01*
X37043237Y-91300315D01*
X37044950Y-91036554D01*
X37046474Y-90753091D01*
X37047809Y-90452229D01*
X37048954Y-90136274D01*
X37049909Y-89807529D01*
X37050676Y-89468300D01*
X37051253Y-89120891D01*
X37051640Y-88767608D01*
X37051838Y-88410754D01*
X37051847Y-88052634D01*
X37051667Y-87695554D01*
X37051297Y-87341817D01*
X37050738Y-86993729D01*
X37049989Y-86653595D01*
X37049052Y-86323718D01*
X37047924Y-86006403D01*
X37047220Y-85844644D01*
X37790192Y-85844644D01*
X37790214Y-86151235D01*
X37790368Y-86490117D01*
X37790643Y-86862908D01*
X37791028Y-87271227D01*
X37791512Y-87716690D01*
X37792085Y-88200916D01*
X37792110Y-88221083D01*
X37797213Y-92409172D01*
X37847771Y-92436122D01*
X37882650Y-92443583D01*
X37952868Y-92449465D01*
X38053350Y-92453832D01*
X38179023Y-92456746D01*
X38324812Y-92458273D01*
X38485642Y-92458475D01*
X38656441Y-92457418D01*
X38832133Y-92455164D01*
X39007646Y-92451778D01*
X39177904Y-92447324D01*
X39337834Y-92441865D01*
X39482361Y-92435465D01*
X39606412Y-92428188D01*
X39704912Y-92420099D01*
X39768949Y-92411934D01*
X40103007Y-92335839D01*
X40415639Y-92225610D01*
X40706551Y-92081600D01*
X40975446Y-91904162D01*
X41222029Y-91693650D01*
X41446004Y-91450416D01*
X41647075Y-91174815D01*
X41824948Y-90867199D01*
X41979326Y-90527922D01*
X42109914Y-90157338D01*
X42216416Y-89755799D01*
X42285495Y-89404118D01*
X42319078Y-89183281D01*
X42344550Y-88964847D01*
X42362593Y-88739293D01*
X42373891Y-88497097D01*
X42379128Y-88228736D01*
X42379689Y-88091944D01*
X42372858Y-87711235D01*
X42351745Y-87362048D01*
X42315426Y-87037732D01*
X42262976Y-86731630D01*
X42193469Y-86437090D01*
X42111617Y-86164406D01*
X41975994Y-85810042D01*
X41813461Y-85484611D01*
X41624803Y-85188823D01*
X41410804Y-84923389D01*
X41172250Y-84689017D01*
X40909923Y-84486417D01*
X40624610Y-84316299D01*
X40317094Y-84179372D01*
X39988159Y-84076346D01*
X39746124Y-84024873D01*
X39679631Y-84013835D01*
X39616104Y-84004797D01*
X39550591Y-83997549D01*
X39478139Y-83991881D01*
X39393796Y-83987581D01*
X39292608Y-83984441D01*
X39169623Y-83982249D01*
X39019888Y-83980795D01*
X38838450Y-83979868D01*
X38675102Y-83979385D01*
X38464194Y-83979100D01*
X38290275Y-83979425D01*
X38149888Y-83980467D01*
X38039578Y-83982329D01*
X37955891Y-83985115D01*
X37895370Y-83988931D01*
X37854562Y-83993879D01*
X37830011Y-84000066D01*
X37820635Y-84005199D01*
X37816737Y-84010408D01*
X37813157Y-84020401D01*
X37809884Y-84036796D01*
X37806907Y-84061211D01*
X37804216Y-84095264D01*
X37801799Y-84140573D01*
X37799645Y-84198757D01*
X37797744Y-84271432D01*
X37796085Y-84360218D01*
X37794656Y-84466733D01*
X37793447Y-84592593D01*
X37792447Y-84739419D01*
X37791644Y-84908826D01*
X37791028Y-85102435D01*
X37790588Y-85321862D01*
X37790313Y-85568725D01*
X37790192Y-85844644D01*
X37047220Y-85844644D01*
X37046608Y-85703956D01*
X37045102Y-85418681D01*
G37*
G36*
X24361041Y-96649496D02*
G01*
X24369312Y-96582220D01*
X24387458Y-96522134D01*
X24419044Y-96452659D01*
X24422503Y-96445710D01*
X24502132Y-96322434D01*
X24602373Y-96232332D01*
X24725636Y-96174000D01*
X24874329Y-96146033D01*
X24941291Y-96143035D01*
X25077545Y-96154344D01*
X25186887Y-96190252D01*
X25266934Y-96249073D01*
X25315301Y-96329116D01*
X25329777Y-96418238D01*
X25321122Y-96505143D01*
X25292349Y-96576448D01*
X25239244Y-96635798D01*
X25157594Y-96686835D01*
X25043187Y-96733204D01*
X24923003Y-96770011D01*
X24770981Y-96817228D01*
X24657244Y-96864350D01*
X24579683Y-96913299D01*
X24536188Y-96965995D01*
X24524648Y-97024359D01*
X24542953Y-97090314D01*
X24551826Y-97107994D01*
X24619877Y-97194999D01*
X24709776Y-97254155D01*
X24813081Y-97284410D01*
X24921346Y-97284716D01*
X25026129Y-97254021D01*
X25118986Y-97191278D01*
X25130491Y-97179940D01*
X25172616Y-97129290D01*
X25195666Y-97077007D01*
X25207367Y-97004725D01*
X25208276Y-96994961D01*
X25216454Y-96927978D01*
X25228560Y-96891657D01*
X25248826Y-96876213D01*
X25260766Y-96873602D01*
X25306945Y-96882242D01*
X25328783Y-96898659D01*
X25346840Y-96949698D01*
X25336144Y-97015714D01*
X25301423Y-97088993D01*
X25247402Y-97161818D01*
X25178809Y-97226472D01*
X25100371Y-97275240D01*
X25097213Y-97276697D01*
X25018573Y-97299431D01*
X24917225Y-97311036D01*
X24809450Y-97311133D01*
X24711532Y-97299344D01*
X24665192Y-97286738D01*
X24549698Y-97224968D01*
X24461113Y-97133318D01*
X24399787Y-97012411D01*
X24366067Y-96862868D01*
X24361303Y-96779514D01*
X24500637Y-96779514D01*
X24501057Y-96855840D01*
X24503802Y-96898015D01*
X24511098Y-96912336D01*
X24525173Y-96905099D01*
X24540007Y-96890821D01*
X24588273Y-96851774D01*
X24636066Y-96822341D01*
X24682491Y-96803089D01*
X24754168Y-96778432D01*
X24837190Y-96753089D01*
X24854538Y-96748185D01*
X24966711Y-96714742D01*
X25046357Y-96684713D01*
X25100737Y-96654236D01*
X25137111Y-96619450D01*
X25157540Y-96587063D01*
X25180999Y-96510179D01*
X25186851Y-96417475D01*
X25175009Y-96328868D01*
X25158836Y-96284901D01*
X25107031Y-96226780D01*
X25025905Y-96188496D01*
X24923068Y-96173394D01*
X24905095Y-96173353D01*
X24783377Y-96192882D01*
X24682623Y-96246484D01*
X24603403Y-96333307D01*
X24546287Y-96452495D01*
X24511844Y-96603196D01*
X24500637Y-96779514D01*
X24361303Y-96779514D01*
X24359076Y-96740545D01*
X24361041Y-96649496D01*
G37*
G36*
X42873004Y-96145807D02*
G01*
X42947346Y-96156987D01*
X42990100Y-96169340D01*
X43064942Y-96214599D01*
X43124961Y-96275646D01*
X43165834Y-96344120D01*
X43183234Y-96411658D01*
X43172837Y-96469897D01*
X43156920Y-96491879D01*
X43108956Y-96525304D01*
X43071759Y-96520703D01*
X43046739Y-96479398D01*
X43035303Y-96402710D01*
X43034729Y-96377173D01*
X43030185Y-96310521D01*
X43012651Y-96266702D01*
X42980284Y-96232531D01*
X42904387Y-96187687D01*
X42817713Y-96168185D01*
X42728262Y-96171511D01*
X42644035Y-96195151D01*
X42573032Y-96236591D01*
X42523255Y-96293317D01*
X42502703Y-96362815D01*
X42503119Y-96382478D01*
X42519420Y-96438487D01*
X42561008Y-96486869D01*
X42632420Y-96531011D01*
X42738192Y-96574302D01*
X42778184Y-96587920D01*
X42930171Y-96643744D01*
X43045221Y-96700279D01*
X43126780Y-96760462D01*
X43178298Y-96827228D01*
X43203220Y-96903513D01*
X43206847Y-96952970D01*
X43190872Y-97068705D01*
X43141592Y-97164236D01*
X43056978Y-97242646D01*
X42990455Y-97281727D01*
X42923549Y-97301924D01*
X42832358Y-97312194D01*
X42731810Y-97312519D01*
X42636833Y-97302884D01*
X42562354Y-97283271D01*
X42559858Y-97282212D01*
X42454772Y-97218421D01*
X42381463Y-97133785D01*
X42342767Y-97032250D01*
X42337261Y-96972353D01*
X42343628Y-96911618D01*
X42366125Y-96877156D01*
X42379000Y-96868830D01*
X42427005Y-96857598D01*
X42459406Y-96883652D01*
X42476213Y-96947007D01*
X42478821Y-97000720D01*
X42485761Y-97083590D01*
X42509408Y-97143641D01*
X42522663Y-97162478D01*
X42591616Y-97223520D01*
X42676899Y-97259638D01*
X42770971Y-97272574D01*
X42866291Y-97264069D01*
X42955321Y-97235866D01*
X43030519Y-97189705D01*
X43084346Y-97127329D01*
X43109260Y-97050480D01*
X43110034Y-97026795D01*
X43093203Y-96962069D01*
X43044770Y-96902955D01*
X42962003Y-96847207D01*
X42842168Y-96792580D01*
X42809956Y-96780266D01*
X42691557Y-96734947D01*
X42605082Y-96698032D01*
X42543887Y-96665748D01*
X42501327Y-96634323D01*
X42470757Y-96599985D01*
X42457780Y-96580364D01*
X42426072Y-96498727D01*
X42418390Y-96407746D01*
X42434593Y-96322978D01*
X42460510Y-96275109D01*
X42544086Y-96201151D01*
X42654968Y-96156477D01*
X42792121Y-96141497D01*
X42873004Y-96145807D01*
G37*
G36*
X30259886Y-96501713D02*
G01*
X30287575Y-96439331D01*
X30308845Y-96385347D01*
X30313729Y-96370552D01*
X30336106Y-96328814D01*
X30376024Y-96278942D01*
X30389289Y-96265292D01*
X30484558Y-96198651D01*
X30602120Y-96156990D01*
X30732590Y-96140140D01*
X30866585Y-96147931D01*
X30994721Y-96180196D01*
X31107614Y-96236764D01*
X31160889Y-96279194D01*
X31223264Y-96347129D01*
X31265599Y-96418246D01*
X31291195Y-96502325D01*
X31303358Y-96609148D01*
X31305653Y-96707739D01*
X31304637Y-96807249D01*
X31300287Y-96877749D01*
X31290653Y-96930647D01*
X31273783Y-96977355D01*
X31252041Y-97021194D01*
X31192092Y-97117653D01*
X31124993Y-97186467D01*
X31037878Y-97240031D01*
X31012420Y-97252058D01*
X30927702Y-97277219D01*
X30820410Y-97290706D01*
X30706848Y-97292010D01*
X30603315Y-97280622D01*
X30550065Y-97266516D01*
X30459114Y-97217807D01*
X30370691Y-97143642D01*
X30299445Y-97057154D01*
X30280472Y-97024856D01*
X30248254Y-96934799D01*
X30229295Y-96823580D01*
X30224160Y-96705573D01*
X30233417Y-96595150D01*
X30246399Y-96547718D01*
X30354633Y-96547718D01*
X30367988Y-96746496D01*
X30387035Y-96906235D01*
X30421722Y-97031868D01*
X30474273Y-97127446D01*
X30546912Y-97197018D01*
X30641434Y-97244483D01*
X30718858Y-97267005D01*
X30785326Y-97270735D01*
X30862439Y-97256293D01*
X30880735Y-97251364D01*
X30970968Y-97206671D01*
X31049649Y-97129974D01*
X31109031Y-97029537D01*
X31122923Y-96993036D01*
X31141096Y-96911811D01*
X31152789Y-96806131D01*
X31157350Y-96691566D01*
X31154126Y-96583685D01*
X31143507Y-96502723D01*
X31099970Y-96379790D01*
X31030754Y-96281630D01*
X30941034Y-96211777D01*
X30835986Y-96173763D01*
X30720785Y-96171122D01*
X30672173Y-96180989D01*
X30575820Y-96218273D01*
X30512857Y-96272580D01*
X30477609Y-96350444D01*
X30466813Y-96417457D01*
X30459289Y-96484248D01*
X30448583Y-96520676D01*
X30429738Y-96536780D01*
X30405461Y-96541781D01*
X30354633Y-96547718D01*
X30246399Y-96547718D01*
X30257629Y-96506686D01*
X30259886Y-96501713D01*
G37*
G36*
X29669202Y-95550446D02*
G01*
X29800076Y-95596867D01*
X29908044Y-95675076D01*
X29935404Y-95703870D01*
X29990169Y-95777771D01*
X30015994Y-95849104D01*
X30018869Y-95935694D01*
X30017848Y-95949258D01*
X30001301Y-96015654D01*
X29968611Y-96053346D01*
X29925260Y-96057523D01*
X29905215Y-96048142D01*
X29884962Y-96025977D01*
X29873950Y-95985415D01*
X29869977Y-95916806D01*
X29869825Y-95893056D01*
X29861182Y-95787591D01*
X29831538Y-95709708D01*
X29775320Y-95649601D01*
X29707748Y-95607869D01*
X29608601Y-95575232D01*
X29491662Y-95565554D01*
X29372315Y-95578656D01*
X29268773Y-95612972D01*
X29177035Y-95676097D01*
X29115793Y-95757582D01*
X29086729Y-95850153D01*
X29091525Y-95946535D01*
X29131861Y-96039454D01*
X29161420Y-96077498D01*
X29200330Y-96114934D01*
X29250625Y-96151624D01*
X29317738Y-96190456D01*
X29407100Y-96234319D01*
X29524145Y-96286102D01*
X29661580Y-96343481D01*
X29815525Y-96417157D01*
X29931837Y-96497820D01*
X30013141Y-96588577D01*
X30062064Y-96692534D01*
X30081231Y-96812798D01*
X30081721Y-96840517D01*
X30072720Y-96941742D01*
X30049268Y-97030143D01*
X30044177Y-97042200D01*
X29991169Y-97124179D01*
X29912020Y-97205631D01*
X29819588Y-97275296D01*
X29726730Y-97321913D01*
X29723540Y-97323019D01*
X29639302Y-97341797D01*
X29532812Y-97351690D01*
X29419216Y-97352618D01*
X29313657Y-97344498D01*
X29231279Y-97327250D01*
X29226790Y-97325704D01*
X29110907Y-97270547D01*
X29010311Y-97196407D01*
X28940736Y-97117080D01*
X28896354Y-97029108D01*
X28867670Y-96931019D01*
X28858859Y-96839531D01*
X28862631Y-96804257D01*
X28887611Y-96746093D01*
X28929019Y-96709870D01*
X28976533Y-96703120D01*
X28992885Y-96709214D01*
X29012401Y-96725920D01*
X29023076Y-96756113D01*
X29026828Y-96809365D01*
X29026132Y-96875092D01*
X29027103Y-96965891D01*
X29037411Y-97032937D01*
X29059926Y-97092406D01*
X29067346Y-97107119D01*
X29137313Y-97199878D01*
X29232796Y-97267750D01*
X29346525Y-97309532D01*
X29471231Y-97324022D01*
X29599642Y-97310014D01*
X29724487Y-97266307D01*
X29792085Y-97227087D01*
X29886201Y-97143270D01*
X29942392Y-97045566D01*
X29960828Y-96934913D01*
X29951667Y-96841295D01*
X29921771Y-96759734D01*
X29867513Y-96686743D01*
X29785271Y-96618832D01*
X29671421Y-96552514D01*
X29522339Y-96484302D01*
X29470699Y-96463146D01*
X29311846Y-96395266D01*
X29188646Y-96331923D01*
X29097179Y-96269288D01*
X29033527Y-96203537D01*
X28993770Y-96130841D01*
X28973989Y-96047375D01*
X28969904Y-95974167D01*
X28987109Y-95842254D01*
X29037594Y-95732023D01*
X29119663Y-95644845D01*
X29231624Y-95582089D01*
X29371780Y-95545124D01*
X29513410Y-95535006D01*
X29669202Y-95550446D01*
G37*
G36*
X35845700Y-95593084D02*
G01*
X35841982Y-95589044D01*
X35873890Y-95585263D01*
X35936604Y-95581991D01*
X36025304Y-95579473D01*
X36135172Y-95577959D01*
X36140823Y-95577917D01*
X36277767Y-95577491D01*
X36381787Y-95578864D01*
X36460385Y-95582606D01*
X36521063Y-95589290D01*
X36571323Y-95599488D01*
X36618669Y-95613772D01*
X36620775Y-95614493D01*
X36782717Y-95689388D01*
X36915753Y-95792522D01*
X37019502Y-95923505D01*
X37093584Y-96081946D01*
X37102030Y-96107788D01*
X37128256Y-96233558D01*
X37138994Y-96381212D01*
X37134701Y-96536018D01*
X37115836Y-96683246D01*
X37082857Y-96808168D01*
X37079991Y-96815803D01*
X36999904Y-96971065D01*
X36890066Y-97099655D01*
X36752353Y-97199466D01*
X36726515Y-97213312D01*
X36588137Y-97284092D01*
X36171417Y-97286882D01*
X36052604Y-97287130D01*
X35954443Y-97286256D01*
X35881446Y-97284396D01*
X35838122Y-97281685D01*
X35828985Y-97278259D01*
X35835589Y-97276771D01*
X35916481Y-97263869D01*
X35916481Y-96757893D01*
X36071758Y-96757893D01*
X36071985Y-96906946D01*
X36072728Y-97034919D01*
X36073958Y-97137328D01*
X36075645Y-97209692D01*
X36077760Y-97247528D01*
X36078522Y-97251610D01*
X36091884Y-97264912D01*
X36123870Y-97271836D01*
X36181549Y-97272986D01*
X36271990Y-97268966D01*
X36277616Y-97268633D01*
X36372687Y-97260701D01*
X36463055Y-97249285D01*
X36533599Y-97236421D01*
X36551328Y-97231797D01*
X36644454Y-97187466D01*
X36737742Y-97114866D01*
X36819600Y-97024430D01*
X36869475Y-96945447D01*
X36923169Y-96807364D01*
X36958186Y-96648463D01*
X36974528Y-96478598D01*
X36972198Y-96307621D01*
X36951197Y-96145387D01*
X36911528Y-96001748D01*
X36869255Y-95911692D01*
X36787650Y-95796917D01*
X36693539Y-95712434D01*
X36580918Y-95655136D01*
X36443784Y-95621917D01*
X36285874Y-95609842D01*
X36078264Y-95605589D01*
X36072972Y-96414473D01*
X36072077Y-96592241D01*
X36071758Y-96757893D01*
X35916481Y-96757893D01*
X35916481Y-95605589D01*
X35845700Y-95593084D01*
G37*
G36*
X26421815Y-85362675D02*
G01*
X26306665Y-85362675D01*
X26294084Y-85135167D01*
X26275160Y-84931016D01*
X26241137Y-84757941D01*
X26189279Y-84608509D01*
X26116850Y-84475288D01*
X26021116Y-84350843D01*
X25994823Y-84321942D01*
X25845313Y-84191147D01*
X25669732Y-84088674D01*
X25473758Y-84017787D01*
X25458935Y-84013969D01*
X25421301Y-84005566D01*
X25378845Y-83998591D01*
X25327597Y-83992912D01*
X25263588Y-83988395D01*
X25182847Y-83984907D01*
X25081407Y-83982313D01*
X24955296Y-83980482D01*
X24800547Y-83979278D01*
X24613189Y-83978570D01*
X24395519Y-83978229D01*
X24168619Y-83978247D01*
X23979121Y-83978797D01*
X23823984Y-83979958D01*
X23700168Y-83981814D01*
X23604630Y-83984446D01*
X23534329Y-83987934D01*
X23486225Y-83992361D01*
X23457277Y-83997807D01*
X23445041Y-84003694D01*
X23441822Y-84026840D01*
X23438791Y-84088127D01*
X23435947Y-84185249D01*
X23433291Y-84315904D01*
X23430822Y-84477785D01*
X23428542Y-84668588D01*
X23426449Y-84886010D01*
X23424544Y-85127744D01*
X23422826Y-85391486D01*
X23421297Y-85674932D01*
X23419957Y-85975778D01*
X23418804Y-86291717D01*
X23417840Y-86620447D01*
X23417064Y-86959662D01*
X23416476Y-87307057D01*
X23416077Y-87660328D01*
X23415867Y-88017171D01*
X23415845Y-88375280D01*
X23416012Y-88732351D01*
X23416368Y-89086080D01*
X23416913Y-89434161D01*
X23417647Y-89774291D01*
X23418570Y-90104164D01*
X23419682Y-90421476D01*
X23420984Y-90723922D01*
X23422474Y-91009198D01*
X23424155Y-91274999D01*
X23426024Y-91519020D01*
X23428083Y-91738956D01*
X23430332Y-91932504D01*
X23432771Y-92097359D01*
X23435399Y-92231215D01*
X23438218Y-92331768D01*
X23441226Y-92396714D01*
X23444424Y-92423747D01*
X23444751Y-92424274D01*
X23480041Y-92438165D01*
X23555205Y-92449418D01*
X23669752Y-92457969D01*
X23727873Y-92460675D01*
X23833913Y-92465360D01*
X23906015Y-92470181D01*
X23950671Y-92476421D01*
X23974372Y-92485363D01*
X23983610Y-92498290D01*
X23984952Y-92511481D01*
X23984026Y-92521031D01*
X23978935Y-92528971D01*
X23966210Y-92535476D01*
X23942383Y-92540717D01*
X23903984Y-92544868D01*
X23847546Y-92548103D01*
X23769599Y-92550594D01*
X23666674Y-92552515D01*
X23535304Y-92554038D01*
X23372018Y-92555337D01*
X23173349Y-92556585D01*
X23069309Y-92557189D01*
X22851373Y-92558326D01*
X22670444Y-92558941D01*
X22523084Y-92558936D01*
X22405856Y-92558211D01*
X22315323Y-92556668D01*
X22248048Y-92554209D01*
X22200593Y-92550733D01*
X22169521Y-92546144D01*
X22151395Y-92540343D01*
X22142778Y-92533229D01*
X22141425Y-92530551D01*
X22136667Y-92504052D01*
X22149547Y-92485182D01*
X22185306Y-92472396D01*
X22249184Y-92464152D01*
X22346421Y-92458903D01*
X22389355Y-92457487D01*
X22511863Y-92451294D01*
X22595624Y-92441049D01*
X22642150Y-92426549D01*
X22647197Y-92423057D01*
X22651073Y-92417738D01*
X22654639Y-92407415D01*
X22657907Y-92390469D01*
X22660891Y-92365285D01*
X22663603Y-92330243D01*
X22666057Y-92283728D01*
X22668264Y-92224122D01*
X22670238Y-92149808D01*
X22671991Y-92059167D01*
X22673537Y-91950584D01*
X22674888Y-91822440D01*
X22676057Y-91673119D01*
X22677056Y-91501002D01*
X22677900Y-91304473D01*
X22678600Y-91081915D01*
X22679169Y-90831709D01*
X22679621Y-90552239D01*
X22679967Y-90241888D01*
X22680221Y-89899037D01*
X22680396Y-89522070D01*
X22680505Y-89109370D01*
X22680559Y-88659319D01*
X22680573Y-88214108D01*
X22680557Y-87728602D01*
X22680499Y-87281923D01*
X22680387Y-86872453D01*
X22680207Y-86498575D01*
X22679948Y-86158670D01*
X22679595Y-85851120D01*
X22679137Y-85574306D01*
X22678560Y-85326611D01*
X22677851Y-85106416D01*
X22676998Y-84912104D01*
X22675987Y-84742055D01*
X22674806Y-84594651D01*
X22673442Y-84468275D01*
X22671882Y-84361309D01*
X22670113Y-84272133D01*
X22668122Y-84199130D01*
X22665896Y-84140682D01*
X22663423Y-84095171D01*
X22660689Y-84060977D01*
X22657682Y-84036484D01*
X22654389Y-84020072D01*
X22650796Y-84010124D01*
X22647061Y-84005159D01*
X22632138Y-83998238D01*
X22603405Y-83992535D01*
X22557519Y-83987951D01*
X22491138Y-83984387D01*
X22400922Y-83981745D01*
X22283528Y-83979926D01*
X22135614Y-83978830D01*
X21953839Y-83978360D01*
X21742085Y-83978408D01*
X21525517Y-83978830D01*
X21345266Y-83979653D01*
X21197207Y-83981021D01*
X21077211Y-83983083D01*
X20981153Y-83985985D01*
X20904904Y-83989873D01*
X20844338Y-83994894D01*
X20795328Y-84001196D01*
X20753747Y-84008924D01*
X20730367Y-84014376D01*
X20525180Y-84084237D01*
X20345140Y-84184226D01*
X20192262Y-84312314D01*
X20068563Y-84466469D01*
X19976056Y-84644662D01*
X19919594Y-84831078D01*
X19906231Y-84916006D01*
X19896014Y-85022449D01*
X19890607Y-85131503D01*
X19890160Y-85165501D01*
X19889809Y-85362675D01*
X19768471Y-85362675D01*
X19768471Y-83866178D01*
X26421815Y-83866178D01*
X26421815Y-85362675D01*
G37*
G36*
X39732365Y-96162363D02*
G01*
X39813387Y-96163488D01*
X39859667Y-96166881D01*
X39876895Y-96173723D01*
X39870760Y-96185193D01*
X39865008Y-96189871D01*
X39853609Y-96201822D01*
X39844934Y-96221508D01*
X39838619Y-96254015D01*
X39834299Y-96304432D01*
X39831608Y-96377844D01*
X39830183Y-96479338D01*
X39829657Y-96614003D01*
X39829618Y-96683373D01*
X39830453Y-96819672D01*
X39832793Y-96944863D01*
X39836392Y-97052446D01*
X39841001Y-97135918D01*
X39846374Y-97188776D01*
X39849340Y-97201884D01*
X39878500Y-97244620D01*
X39915728Y-97248681D01*
X39956332Y-97213773D01*
X39959920Y-97208812D01*
X39982621Y-97178708D01*
X39990509Y-97181129D01*
X39991401Y-97204768D01*
X39977358Y-97256008D01*
X39933191Y-97285139D01*
X39857375Y-97294204D01*
X39793734Y-97287996D01*
X39751136Y-97264307D01*
X39729971Y-97240919D01*
X39716861Y-97222319D01*
X39706809Y-97200568D01*
X39699409Y-97170401D01*
X39694259Y-97126552D01*
X39690952Y-97063753D01*
X39689086Y-96976740D01*
X39688256Y-96860245D01*
X39688058Y-96709003D01*
X39688057Y-96694900D01*
X39688057Y-96202165D01*
X39638693Y-96202165D01*
X39595873Y-96194709D01*
X39576831Y-96181943D01*
X39588797Y-96171332D01*
X39638247Y-96164682D01*
X39722379Y-96162346D01*
X39732365Y-96162363D01*
G37*
%TO.C,R20*%
X72025000Y-119879999D02*
X68345000Y-119879999D01*
X44425000Y-119879999D02*
X48105000Y-119879999D01*
X48105000Y-115259999D02*
X48105000Y-124499999D01*
X68345000Y-124499999D02*
X68345000Y-115259999D01*
X68345000Y-115259999D02*
X48105000Y-115259999D01*
X48105000Y-124499999D02*
X68345000Y-124499999D01*
%TO.C,C16*%
X94837536Y-81616832D02*
X101996536Y-81616832D01*
X81569536Y-86416832D02*
X103625536Y-86416832D01*
X81537536Y-86817832D02*
X103657536Y-86817832D01*
X94837536Y-83976832D02*
X103106536Y-83976832D01*
X89681536Y-76777832D02*
X95513536Y-76777832D01*
X81907536Y-84576832D02*
X90357536Y-84576832D01*
X85169536Y-79257832D02*
X100025536Y-79257832D01*
X81521536Y-87177832D02*
X103673536Y-87177832D01*
X82171536Y-83736832D02*
X90357536Y-83736832D01*
X84128536Y-80336832D02*
X90357536Y-80336832D01*
X89830536Y-76737832D02*
X95364536Y-76737832D01*
X94837536Y-84296832D02*
X103207536Y-84296832D01*
X81987536Y-84296832D02*
X90357536Y-84296832D01*
X94837536Y-82856832D02*
X102663536Y-82856832D01*
X83173536Y-81656832D02*
X90357536Y-81656832D01*
X82115536Y-83896832D02*
X90357536Y-83896832D01*
X94837536Y-81416832D02*
X101868536Y-81416832D01*
X83379536Y-81336832D02*
X90357536Y-81336832D01*
X81551536Y-86616832D02*
X103643536Y-86616832D01*
X86696536Y-78097832D02*
X98498536Y-78097832D01*
X83249536Y-81536832D02*
X90357536Y-81536832D01*
X83487536Y-81176832D02*
X90357536Y-81176832D01*
X81684536Y-85576832D02*
X103510536Y-85576832D01*
X89152536Y-76937832D02*
X96042536Y-76937832D01*
X88808536Y-77057832D02*
X96386536Y-77057832D01*
X83932536Y-80576832D02*
X90357536Y-80576832D01*
X94837536Y-81776832D02*
X102094536Y-81776832D01*
X81728536Y-85336832D02*
X103466536Y-85336832D01*
X94837536Y-83576832D02*
X102964536Y-83576832D01*
X87025536Y-77897832D02*
X98169536Y-77897832D01*
X85686536Y-78817832D02*
X99508536Y-78817832D01*
X83352536Y-81376832D02*
X90357536Y-81376832D01*
X94837536Y-81136832D02*
X101679536Y-81136832D01*
X94837536Y-81336832D02*
X101815536Y-81336832D01*
X83600536Y-81016832D02*
X90357536Y-81016832D01*
X83515536Y-81136832D02*
X90357536Y-81136832D01*
X94837536Y-80296832D02*
X101032536Y-80296832D01*
X85539536Y-78937832D02*
X99655536Y-78937832D01*
X81518536Y-87337832D02*
X103676536Y-87337832D01*
X81691536Y-85536832D02*
X103503536Y-85536832D01*
X94837536Y-82536832D02*
X102510536Y-82536832D01*
X81577536Y-86336832D02*
X103617536Y-86336832D01*
X94837536Y-80976832D02*
X101565536Y-80976832D01*
X86633536Y-78137832D02*
X98561536Y-78137832D01*
X82049536Y-84096832D02*
X90357536Y-84096832D01*
X81527536Y-87017832D02*
X103667536Y-87017832D01*
X84408536Y-80016832D02*
X100786536Y-80016832D01*
X94837536Y-83296832D02*
X102854536Y-83296832D01*
X85082536Y-79336832D02*
X100112536Y-79336832D01*
X83900536Y-80616832D02*
X90357536Y-80616832D01*
X94837536Y-80456832D02*
X101165536Y-80456832D01*
X81736536Y-85296832D02*
X103458536Y-85296832D01*
X88596536Y-77137832D02*
X96598536Y-77137832D01*
X94837536Y-82416832D02*
X102449536Y-82416832D01*
X94837536Y-84096832D02*
X103145536Y-84096832D01*
X84445536Y-79976832D02*
X100749536Y-79976832D01*
X85943536Y-78617832D02*
X99251536Y-78617832D01*
X89988536Y-76697832D02*
X95206536Y-76697832D01*
X81581536Y-86296832D02*
X103613536Y-86296832D01*
X81885536Y-84656832D02*
X90357536Y-84656832D01*
X81834536Y-84856832D02*
X103360536Y-84856832D01*
X94837536Y-81536832D02*
X101945536Y-81536832D01*
X94837536Y-81696832D02*
X102045536Y-81696832D01*
X94837536Y-83456832D02*
X102918536Y-83456832D01*
X81657536Y-85736832D02*
X103537536Y-85736832D01*
X85259536Y-79177832D02*
X99935536Y-79177832D01*
X94837536Y-83816832D02*
X103051536Y-83816832D01*
X85396536Y-79057832D02*
X99798536Y-79057832D01*
X89405536Y-76857832D02*
X95789536Y-76857832D01*
X84557536Y-79856832D02*
X100637536Y-79856832D01*
X94837536Y-82296832D02*
X102387536Y-82296832D01*
X82340536Y-83296832D02*
X90357536Y-83296832D01*
X90339536Y-76617832D02*
X94855536Y-76617832D01*
X82786536Y-82336832D02*
X90357536Y-82336832D01*
X83053536Y-81856832D02*
X90357536Y-81856832D01*
X87941536Y-77417832D02*
X97253536Y-77417832D01*
X81535536Y-86857832D02*
X103659536Y-86857832D01*
X84482536Y-79936832D02*
X100712536Y-79936832D01*
X81517536Y-87457832D02*
X103677536Y-87457832D01*
X84301536Y-80136832D02*
X100893536Y-80136832D01*
X82143536Y-83816832D02*
X90357536Y-83816832D01*
X81520536Y-87217832D02*
X103674536Y-87217832D01*
X81761536Y-85176832D02*
X103433536Y-85176832D01*
X82645536Y-82616832D02*
X90357536Y-82616832D01*
X94837536Y-82776832D02*
X102626536Y-82776832D01*
X85126536Y-79297832D02*
X100068536Y-79297832D01*
X94837536Y-81456832D02*
X101894536Y-81456832D01*
X81963536Y-84376832D02*
X90357536Y-84376832D01*
X94837536Y-80656832D02*
X101325536Y-80656832D01*
X83869536Y-80656832D02*
X90357536Y-80656832D01*
X81529536Y-86977832D02*
X103665536Y-86977832D01*
X94837536Y-84656832D02*
X103309536Y-84656832D01*
X81517536Y-87417832D02*
X103677536Y-87417832D01*
X83274536Y-81496832D02*
X90357536Y-81496832D01*
X94837536Y-83696832D02*
X103008536Y-83696832D01*
X86510536Y-78217832D02*
X98684536Y-78217832D01*
X82872536Y-82176832D02*
X90357536Y-82176832D01*
X81670536Y-85656832D02*
X103524536Y-85656832D01*
X84231536Y-80216832D02*
X100963536Y-80216832D01*
X83432536Y-81256832D02*
X90357536Y-81256832D01*
X85838536Y-78697832D02*
X99356536Y-78697832D01*
X86450536Y-78257832D02*
X98744536Y-78257832D01*
X81638536Y-85856832D02*
X103556536Y-85856832D01*
X94837536Y-84136832D02*
X103158536Y-84136832D01*
X94837536Y-82336832D02*
X102408536Y-82336832D01*
X82938536Y-82056832D02*
X90357536Y-82056832D01*
X94837536Y-83096832D02*
X102770536Y-83096832D01*
X94837536Y-83416832D02*
X102902536Y-83416832D01*
X83077536Y-81816832D02*
X90357536Y-81816832D01*
X94837536Y-80576832D02*
X101262536Y-80576832D01*
X83687536Y-80896832D02*
X90357536Y-80896832D01*
X86362536Y-99397169D02*
X86362536Y-97197169D01*
X94837536Y-81376832D02*
X101842536Y-81376832D01*
X94837536Y-81936832D02*
X102188536Y-81936832D01*
X94837536Y-82696832D02*
X102588536Y-82696832D01*
X82424536Y-83096832D02*
X90357536Y-83096832D01*
X90757536Y-76537832D02*
X94437536Y-76537832D01*
X82625536Y-82656832D02*
X90357536Y-82656832D01*
X84372536Y-80056832D02*
X100822536Y-80056832D01*
X81517536Y-87377832D02*
X103677536Y-87377832D01*
X90537536Y-76577832D02*
X94657536Y-76577832D01*
X82157536Y-83776832D02*
X90357536Y-83776832D01*
X94837536Y-82176832D02*
X102322536Y-82176832D01*
X83717536Y-80856832D02*
X90357536Y-80856832D01*
X94837536Y-81816832D02*
X102117536Y-81816832D01*
X94837536Y-83496832D02*
X102933536Y-83496832D01*
X94837536Y-84416832D02*
X103242536Y-84416832D01*
X94837536Y-81256832D02*
X101762536Y-81256832D01*
X94837536Y-81496832D02*
X101920536Y-81496832D01*
X82441536Y-83056832D02*
X90357536Y-83056832D01*
X81621536Y-85976832D02*
X103573536Y-85976832D01*
X83125536Y-81736832D02*
X90357536Y-81736832D01*
X94837536Y-81016832D02*
X101594536Y-81016832D01*
X94837536Y-83056832D02*
X102753536Y-83056832D01*
X83100536Y-81776832D02*
X90357536Y-81776832D01*
X81929536Y-84496832D02*
X90357536Y-84496832D01*
X81524536Y-87097832D02*
X103670536Y-87097832D01*
X94837536Y-82216832D02*
X102344536Y-82216832D01*
X84711536Y-79696832D02*
X100483536Y-79696832D01*
X82724536Y-82456832D02*
X90357536Y-82456832D01*
X94837536Y-81656832D02*
X102021536Y-81656832D01*
X81713536Y-85416832D02*
X103481536Y-85416832D01*
X81779536Y-85096832D02*
X103415536Y-85096832D01*
X81815536Y-84936832D02*
X103379536Y-84936832D01*
X84095536Y-80376832D02*
X90357536Y-80376832D01*
X81600536Y-86136832D02*
X103594536Y-86136832D01*
X94837536Y-84336832D02*
X103219536Y-84336832D01*
X86390536Y-78297832D02*
X98804536Y-78297832D01*
X94837536Y-80776832D02*
X101417536Y-80776832D01*
X94837536Y-82456832D02*
X102470536Y-82456832D01*
X94837536Y-81736832D02*
X102069536Y-81736832D01*
X94837536Y-83736832D02*
X103023536Y-83736832D01*
X94837536Y-80936832D02*
X101536536Y-80936832D01*
X81586536Y-86256832D02*
X103608536Y-86256832D01*
X82276536Y-83456832D02*
X90357536Y-83456832D01*
X81854536Y-84776832D02*
X103340536Y-84776832D01*
X81540536Y-86776832D02*
X103654536Y-86776832D01*
X94837536Y-82016832D02*
X102233536Y-82016832D01*
X94837536Y-80496832D02*
X101198536Y-80496832D01*
X94837536Y-81576832D02*
X101971536Y-81576832D01*
X89539536Y-76817832D02*
X95655536Y-76817832D01*
X82765536Y-82376832D02*
X90357536Y-82376832D01*
X94837536Y-82816832D02*
X102645536Y-82816832D01*
X84266536Y-80176832D02*
X100928536Y-80176832D01*
X86161536Y-78457832D02*
X99033536Y-78457832D01*
X94837536Y-84056832D02*
X103132536Y-84056832D01*
X85787536Y-78737832D02*
X99407536Y-78737832D01*
X87094536Y-77857832D02*
X98100536Y-77857832D01*
X94837536Y-83856832D02*
X103065536Y-83856832D01*
X83543536Y-81096832D02*
X90357536Y-81096832D01*
X94837536Y-80336832D02*
X101066536Y-80336832D01*
X94837536Y-82936832D02*
X102700536Y-82936832D01*
X94837536Y-83136832D02*
X102787536Y-83136832D01*
X86890536Y-77977832D02*
X98304536Y-77977832D01*
X81615536Y-86016832D02*
X103579536Y-86016832D01*
X88700536Y-77097832D02*
X96494536Y-77097832D01*
X87612536Y-77577832D02*
X97582536Y-77577832D01*
X94837536Y-82656832D02*
X102569536Y-82656832D01*
X94837536Y-83216832D02*
X102821536Y-83216832D01*
X81875536Y-84696832D02*
X90357536Y-84696832D01*
X94837536Y-83656832D02*
X102993536Y-83656832D01*
X87164536Y-77817832D02*
X98030536Y-77817832D01*
X94837536Y-82896832D02*
X102681536Y-82896832D01*
X82850536Y-82216832D02*
X90357536Y-82216832D01*
X82024536Y-84176832D02*
X90357536Y-84176832D01*
X94837536Y-84576832D02*
X103287536Y-84576832D01*
X86824536Y-78017832D02*
X98370536Y-78017832D01*
X84997536Y-79416832D02*
X100197536Y-79416832D01*
X88495536Y-77177832D02*
X96699536Y-77177832D01*
X83838536Y-80696832D02*
X90357536Y-80696832D01*
X81595536Y-86176832D02*
X103599536Y-86176832D01*
X81663536Y-85696832D02*
X103531536Y-85696832D01*
X87534536Y-77617832D02*
X97660536Y-77617832D01*
X88918536Y-77017832D02*
X96276536Y-77017832D01*
X94837536Y-83896832D02*
X103079536Y-83896832D01*
X86759536Y-78057832D02*
X98435536Y-78057832D01*
X85890536Y-78657832D02*
X99304536Y-78657832D01*
X83747536Y-80816832D02*
X90357536Y-80816832D01*
X82215536Y-83616832D02*
X90357536Y-83616832D01*
X82745536Y-82416832D02*
X90357536Y-82416832D01*
X82075536Y-84016832D02*
X90357536Y-84016832D01*
X83777536Y-80776832D02*
X90357536Y-80776832D01*
X84062536Y-80416832D02*
X90357536Y-80416832D01*
X94837536Y-83256832D02*
X102837536Y-83256832D01*
X87235536Y-77777832D02*
X97959536Y-77777832D01*
X94837536Y-81856832D02*
X102141536Y-81856832D01*
X81677536Y-85616832D02*
X103517536Y-85616832D01*
X81562536Y-86496832D02*
X103632536Y-86496832D01*
X82102536Y-83936832D02*
X90357536Y-83936832D01*
X84336536Y-80096832D02*
X100858536Y-80096832D01*
X81940536Y-84456832D02*
X90357536Y-84456832D01*
X84790536Y-79616832D02*
X100404536Y-79616832D01*
X85491536Y-78977832D02*
X99703536Y-78977832D01*
X83326536Y-81416832D02*
X90357536Y-81416832D01*
X94837536Y-83376832D02*
X102886536Y-83376832D01*
X91694536Y-76417832D02*
X93500536Y-76417832D01*
X84913536Y-79496832D02*
X100281536Y-79496832D01*
X86274536Y-78377832D02*
X98920536Y-78377832D01*
X84196536Y-80256832D02*
X100998536Y-80256832D01*
X84029536Y-80456832D02*
X90357536Y-80456832D01*
X81555536Y-86576832D02*
X103639536Y-86576832D01*
X94837536Y-82976832D02*
X102717536Y-82976832D01*
X81864536Y-84736832D02*
X90357536Y-84736832D01*
X94837536Y-83336832D02*
X102870536Y-83336832D01*
X90157536Y-76657832D02*
X95037536Y-76657832D01*
X94837536Y-83936832D02*
X103092536Y-83936832D01*
X81999536Y-84256832D02*
X90357536Y-84256832D01*
X83149536Y-81696832D02*
X90357536Y-81696832D01*
X85214536Y-79217832D02*
X99980536Y-79217832D01*
X82292536Y-83416832D02*
X90357536Y-83416832D01*
X83629536Y-80976832D02*
X90357536Y-80976832D01*
X94837536Y-83776832D02*
X103037536Y-83776832D01*
X83198536Y-81616832D02*
X90357536Y-81616832D01*
X82459536Y-83016832D02*
X90357536Y-83016832D01*
X82246536Y-83536832D02*
X90357536Y-83536832D01*
X82373536Y-83216832D02*
X90357536Y-83216832D01*
X81918536Y-84536832D02*
X90357536Y-84536832D01*
X82494536Y-82936832D02*
X90357536Y-82936832D01*
X94837536Y-84736832D02*
X103330536Y-84736832D01*
X85304536Y-79137832D02*
X99890536Y-79137832D01*
X82894536Y-82136832D02*
X90357536Y-82136832D01*
X81825536Y-84896832D02*
X103369536Y-84896832D01*
X81518536Y-87297832D02*
X103676536Y-87297832D01*
X84751536Y-79656832D02*
X100443536Y-79656832D01*
X84595536Y-79816832D02*
X100599536Y-79816832D01*
X81896536Y-84616832D02*
X90357536Y-84616832D01*
X81650536Y-85776832D02*
X103544536Y-85776832D01*
X94837536Y-84016832D02*
X103119536Y-84016832D01*
X81543536Y-86736832D02*
X103651536Y-86736832D01*
X94837536Y-82096832D02*
X102278536Y-82096832D01*
X94837536Y-84616832D02*
X103298536Y-84616832D01*
X81565536Y-86456832D02*
X103629536Y-86456832D01*
X81533536Y-86897832D02*
X103661536Y-86897832D01*
X86217536Y-78417832D02*
X98977536Y-78417832D01*
X87308536Y-77737832D02*
X97886536Y-77737832D01*
X91007536Y-76497832D02*
X94187536Y-76497832D01*
X84831536Y-79576832D02*
X100363536Y-79576832D01*
X85262536Y-98297169D02*
X87462536Y-98297169D01*
X94837536Y-84376832D02*
X103231536Y-84376832D01*
X85350536Y-79097832D02*
X99844536Y-79097832D01*
X82606536Y-82696832D02*
X90357536Y-82696832D01*
X83006536Y-81936832D02*
X90357536Y-81936832D01*
X81525536Y-87057832D02*
X103669536Y-87057832D01*
X83996536Y-80496832D02*
X90357536Y-80496832D01*
X87773536Y-77497832D02*
X97421536Y-77497832D01*
X82062536Y-84056832D02*
X90357536Y-84056832D01*
X94837536Y-80736832D02*
X101387536Y-80736832D01*
X83964536Y-80536832D02*
X90357536Y-80536832D01*
X87692536Y-77537832D02*
X97502536Y-77537832D01*
X82036536Y-84136832D02*
X90357536Y-84136832D01*
X82186536Y-83696832D02*
X90357536Y-83696832D01*
X94837536Y-81976832D02*
X102211536Y-81976832D01*
X94837536Y-81296832D02*
X101789536Y-81296832D01*
X82407536Y-83136832D02*
X90357536Y-83136832D01*
X88208536Y-77297832D02*
X96986536Y-77297832D01*
X94837536Y-82736832D02*
X102607536Y-82736832D01*
X85587536Y-78897832D02*
X99607536Y-78897832D01*
X83807536Y-80736832D02*
X90357536Y-80736832D01*
X83571536Y-81056832D02*
X90357536Y-81056832D01*
X94837536Y-84256832D02*
X103195536Y-84256832D01*
X91305536Y-76457832D02*
X93889536Y-76457832D01*
X83405536Y-81296832D02*
X90357536Y-81296832D01*
X82308536Y-83376832D02*
X90357536Y-83376832D01*
X88301536Y-77257832D02*
X96893536Y-77257832D01*
X83223536Y-81576832D02*
X90357536Y-81576832D01*
X94837536Y-83616832D02*
X102979536Y-83616832D01*
X84633536Y-79776832D02*
X100561536Y-79776832D01*
X81626536Y-85936832D02*
X103568536Y-85936832D01*
X83460536Y-81216832D02*
X90357536Y-81216832D01*
X81806536Y-84976832D02*
X103388536Y-84976832D01*
X81545536Y-86696832D02*
X103649536Y-86696832D01*
X81797536Y-85016832D02*
X103397536Y-85016832D01*
X94837536Y-81096832D02*
X101651536Y-81096832D01*
X81558536Y-86536832D02*
X103636536Y-86536832D01*
X82477536Y-82976832D02*
X90357536Y-82976832D01*
X85636536Y-78857832D02*
X99558536Y-78857832D01*
X82568536Y-82776832D02*
X90357536Y-82776832D01*
X81531536Y-86937832D02*
X103663536Y-86937832D01*
X87457536Y-77657832D02*
X97737536Y-77657832D01*
X85443536Y-79017832D02*
X99751536Y-79017832D01*
X82357536Y-83256832D02*
X90357536Y-83256832D01*
X82201536Y-83656832D02*
X90357536Y-83656832D01*
X94837536Y-80536832D02*
X101230536Y-80536832D01*
X87382536Y-77697832D02*
X97812536Y-77697832D01*
X94837536Y-84456832D02*
X103254536Y-84456832D01*
X81516536Y-87497832D02*
X103678536Y-87497832D01*
X88117536Y-77337832D02*
X97077536Y-77337832D01*
X94837536Y-81176832D02*
X101707536Y-81176832D01*
X94837536Y-83176832D02*
X102804536Y-83176832D01*
X81548536Y-86656832D02*
X103646536Y-86656832D01*
X85997536Y-78577832D02*
X99197536Y-78577832D01*
X85039536Y-79376832D02*
X100155536Y-79376832D01*
X81753536Y-85216832D02*
X103441536Y-85216832D01*
X82261536Y-83496832D02*
X90357536Y-83496832D01*
X94837536Y-80376832D02*
X101099536Y-80376832D01*
X92557536Y-76377832D02*
X92637536Y-76377832D01*
X94837536Y-83016832D02*
X102735536Y-83016832D01*
X86105536Y-78497832D02*
X99089536Y-78497832D01*
X81605536Y-86096832D02*
X103589536Y-86096832D01*
X94837536Y-80816832D02*
X101447536Y-80816832D01*
X81590536Y-86216832D02*
X103604536Y-86216832D01*
X94837536Y-80856832D02*
X101477536Y-80856832D01*
X94837536Y-80416832D02*
X101132536Y-80416832D01*
X94837536Y-82136832D02*
X102300536Y-82136832D01*
X81519536Y-87257832D02*
X103675536Y-87257832D01*
X84872536Y-79536832D02*
X100322536Y-79536832D01*
X94837536Y-82576832D02*
X102530536Y-82576832D01*
X82230536Y-83576832D02*
X90357536Y-83576832D01*
X94837536Y-80896832D02*
X101507536Y-80896832D01*
X83658536Y-80936832D02*
X90357536Y-80936832D01*
X89033536Y-76977832D02*
X96161536Y-76977832D01*
X84162536Y-80296832D02*
X90357536Y-80296832D01*
X82390536Y-83176832D02*
X90357536Y-83176832D01*
X82587536Y-82736832D02*
X90357536Y-82736832D01*
X84519536Y-79896832D02*
X100675536Y-79896832D01*
X82664536Y-82576832D02*
X90357536Y-82576832D01*
X82549536Y-82816832D02*
X90357536Y-82816832D01*
X85736536Y-78777832D02*
X99458536Y-78777832D01*
X82916536Y-82096832D02*
X90357536Y-82096832D01*
X82513536Y-82896832D02*
X90357536Y-82896832D01*
X82531536Y-82856832D02*
X90357536Y-82856832D01*
X81744536Y-85256832D02*
X103450536Y-85256832D01*
X83300536Y-81456832D02*
X90357536Y-81456832D01*
X94837536Y-80696832D02*
X101356536Y-80696832D01*
X86957536Y-77937832D02*
X98237536Y-77937832D01*
X81644536Y-85816832D02*
X103550536Y-85816832D01*
X82829536Y-82256832D02*
X90357536Y-82256832D01*
X82324536Y-83336832D02*
X90357536Y-83336832D01*
X94837536Y-80616832D02*
X101294536Y-80616832D01*
X82983536Y-81976832D02*
X90357536Y-81976832D01*
X94837536Y-82496832D02*
X102490536Y-82496832D01*
X83030536Y-81896832D02*
X90357536Y-81896832D01*
X82704536Y-82496832D02*
X90357536Y-82496832D01*
X94837536Y-84176832D02*
X103170536Y-84176832D01*
X81975536Y-84336832D02*
X90357536Y-84336832D01*
X81720536Y-85376832D02*
X103474536Y-85376832D01*
X82807536Y-82296832D02*
X90357536Y-82296832D01*
X81522536Y-87137832D02*
X103672536Y-87137832D01*
X88397536Y-77217832D02*
X96797536Y-77217832D01*
X94837536Y-84216832D02*
X103183536Y-84216832D01*
X82129536Y-83856832D02*
X90357536Y-83856832D01*
X88028536Y-77377832D02*
X97166536Y-77377832D01*
X82011536Y-84216832D02*
X90357536Y-84216832D01*
X86332536Y-78337832D02*
X98862536Y-78337832D01*
X84955536Y-79456832D02*
X100239536Y-79456832D01*
X89276536Y-76897832D02*
X95918536Y-76897832D01*
X82961536Y-82016832D02*
X90357536Y-82016832D01*
X94837536Y-81216832D02*
X101734536Y-81216832D01*
X94837536Y-84536832D02*
X103276536Y-84536832D01*
X81610536Y-86056832D02*
X103584536Y-86056832D01*
X81788536Y-85056832D02*
X103406536Y-85056832D01*
X94837536Y-81056832D02*
X101623536Y-81056832D01*
X81632536Y-85896832D02*
X103562536Y-85896832D01*
X81698536Y-85496832D02*
X103496536Y-85496832D01*
X86051536Y-78537832D02*
X99143536Y-78537832D01*
X82684536Y-82536832D02*
X90357536Y-82536832D01*
X94837536Y-81896832D02*
X102164536Y-81896832D01*
X94837536Y-82616832D02*
X102549536Y-82616832D01*
X94837536Y-83536832D02*
X102948536Y-83536832D01*
X81844536Y-84816832D02*
X103350536Y-84816832D01*
X82088536Y-83976832D02*
X90357536Y-83976832D01*
X81770536Y-85136832D02*
X103424536Y-85136832D01*
X94837536Y-82256832D02*
X102365536Y-82256832D01*
X81573536Y-86376832D02*
X103621536Y-86376832D01*
X94837536Y-84696832D02*
X103319536Y-84696832D01*
X87856536Y-77457832D02*
X97338536Y-77457832D01*
X94837536Y-82056832D02*
X102256536Y-82056832D01*
X84672536Y-79736832D02*
X100522536Y-79736832D01*
X86571536Y-78177832D02*
X98623536Y-78177832D01*
X81952536Y-84416832D02*
X90357536Y-84416832D01*
X94837536Y-82376832D02*
X102429536Y-82376832D01*
X81705536Y-85456832D02*
X103489536Y-85456832D01*
X94837536Y-84496832D02*
X103265536Y-84496832D01*
X103717536Y-87497832D02*
G75*
G03*
X103717536Y-87497832I-11120000J0D01*
G01*
%TO.C,D2*%
X228290000Y-127726868D02*
X228290000Y-126706868D01*
X229760000Y-121266868D02*
X226820000Y-121266868D01*
X229760000Y-122286868D02*
X226820000Y-122286868D01*
X229760000Y-122046868D02*
X226820000Y-122046868D01*
X228290000Y-120246868D02*
X228290000Y-121266868D01*
X226820000Y-126706868D02*
X229760000Y-126706868D01*
X229760000Y-122166868D02*
X226820000Y-122166868D01*
X229760000Y-126706868D02*
X229760000Y-121266868D01*
X226820000Y-121266868D02*
X226820000Y-126706868D01*
%TO.C,C13*%
X73288848Y-141240000D02*
X80728848Y-141240000D01*
X80728848Y-141240000D02*
X80728848Y-133800000D01*
X73288848Y-141240000D02*
X73288848Y-133800000D01*
X73288848Y-133800000D02*
X80728848Y-133800000D01*
%TO.C,R12*%
X132357064Y-93807689D02*
X130902936Y-93807689D01*
X132357064Y-91987689D02*
X130902936Y-91987689D01*
%TO.C,R2*%
X112810000Y-141407064D02*
X112810000Y-139952936D01*
X114630000Y-141407064D02*
X114630000Y-139952936D01*
%TO.C,R4*%
X93174600Y-120392464D02*
X91720472Y-120392464D01*
X93174600Y-122212464D02*
X91720472Y-122212464D01*
%TO.C,C5*%
X202668657Y-122130000D02*
X182428657Y-122130000D01*
X192548657Y-120890000D02*
X192548657Y-122130000D01*
X202668657Y-122130000D02*
X202668657Y-124230000D01*
X202668657Y-126330000D02*
X202668657Y-151370000D01*
X196598657Y-120730000D02*
X194498657Y-120730000D01*
X202668657Y-124230000D02*
X201618657Y-125280000D01*
X192548657Y-152610000D02*
X192548657Y-151370000D01*
X202668657Y-151370000D02*
X182428657Y-151370000D01*
X195548657Y-119680000D02*
X195548657Y-121780000D01*
X201618657Y-125280000D02*
X202668657Y-126330000D01*
X182428657Y-124230000D02*
X183478657Y-125280000D01*
X182428657Y-126330000D02*
X182428657Y-151370000D01*
X183478657Y-125280000D02*
X182428657Y-126330000D01*
X182428657Y-122130000D02*
X182428657Y-124230000D01*
%TO.C,C8*%
X175540000Y-130213759D02*
X173100000Y-130213759D01*
X130420000Y-130213759D02*
X132860000Y-130213759D01*
X135560000Y-122993759D02*
X136460000Y-122093759D01*
X134660000Y-122093759D02*
X135560000Y-122993759D01*
X136460000Y-138333759D02*
X173100000Y-138333759D01*
X132860000Y-138333759D02*
X134660000Y-138333759D01*
X136460000Y-122093759D02*
X173100000Y-122093759D01*
X130760000Y-127613759D02*
X132560000Y-127613759D01*
X135560000Y-137433759D02*
X136460000Y-138333759D01*
X132860000Y-122093759D02*
X132860000Y-138333759D01*
X134660000Y-138333759D02*
X135560000Y-137433759D01*
X131660000Y-126713759D02*
X131660000Y-128513759D01*
X173100000Y-122093759D02*
X173100000Y-138333759D01*
X132860000Y-122093759D02*
X134660000Y-122093759D01*
%TO.C,R1*%
X213499328Y-106470000D02*
X193259328Y-106470000D01*
X213499328Y-115710000D02*
X213499328Y-106470000D01*
X193259328Y-106470000D02*
X193259328Y-115710000D01*
X189579328Y-111090000D02*
X193259328Y-111090000D01*
X193259328Y-115710000D02*
X213499328Y-115710000D01*
X217179328Y-111090000D02*
X213499328Y-111090000D01*
%TO.C,C15*%
X80728848Y-105944749D02*
X80728848Y-98504749D01*
X73288848Y-98504749D02*
X80728848Y-98504749D01*
X73288848Y-105944749D02*
X80728848Y-105944749D01*
X73288848Y-105944749D02*
X73288848Y-98504749D01*
%TO.C,C3*%
X199654328Y-91860000D02*
X207094328Y-91860000D01*
X207094328Y-99300000D02*
X207094328Y-91860000D01*
X199654328Y-99300000D02*
X199654328Y-91860000D01*
X199654328Y-99300000D02*
X207094328Y-99300000D01*
%TO.C,R11*%
X132357064Y-105300353D02*
X130902936Y-105300353D01*
X132357064Y-107120353D02*
X130902936Y-107120353D01*
%TO.C,R8*%
X99987536Y-104449528D02*
X99987536Y-102995400D01*
X101807536Y-104449528D02*
X101807536Y-102995400D01*
%TO.C,R13*%
X104185333Y-131555400D02*
X104185333Y-133009528D01*
X106005333Y-131555400D02*
X106005333Y-133009528D01*
%TO.C,C18*%
X136390000Y-120513022D02*
X178130000Y-120513022D01*
X136390000Y-100273022D02*
X136390000Y-120513022D01*
X136390000Y-100273022D02*
X178130000Y-100273022D01*
X178130000Y-100273022D02*
X178130000Y-120513022D01*
%TO.C,C10*%
X96317536Y-108842464D02*
X96317536Y-101402464D01*
X88877536Y-108842464D02*
X88877536Y-101402464D01*
X96317536Y-101402464D02*
X88877536Y-101402464D01*
X96317536Y-108842464D02*
X88877536Y-108842464D01*
%TO.C,R9*%
X119130472Y-114372464D02*
X120584600Y-114372464D01*
X119130472Y-112552464D02*
X120584600Y-112552464D01*
%TO.C,C17*%
X135350000Y-120513022D02*
X127910000Y-120513022D01*
X135350000Y-113073022D02*
X135350000Y-120513022D01*
X127910000Y-113073022D02*
X127910000Y-120513022D01*
X135350000Y-113073022D02*
X127910000Y-113073022D01*
%TO.C,C9*%
X173050000Y-140139948D02*
X171250000Y-140139948D01*
X130370000Y-148259948D02*
X132810000Y-148259948D01*
X171250000Y-156379948D02*
X170350000Y-155479948D01*
X171250000Y-140139948D02*
X170350000Y-141039948D01*
X173050000Y-156379948D02*
X171250000Y-156379948D01*
X170350000Y-155479948D02*
X169450000Y-156379948D01*
X174250000Y-151759948D02*
X174250000Y-149959948D01*
X169450000Y-156379948D02*
X132810000Y-156379948D01*
X175150000Y-150859948D02*
X173350000Y-150859948D01*
X170350000Y-141039948D02*
X169450000Y-140139948D01*
X175490000Y-148259948D02*
X173050000Y-148259948D01*
X173050000Y-156379948D02*
X173050000Y-140139948D01*
X169450000Y-140139948D02*
X132810000Y-140139948D01*
X132810000Y-156379948D02*
X132810000Y-140139948D01*
%TO.C,R16*%
X83184666Y-104449528D02*
X83184666Y-102995400D01*
X85004666Y-104449528D02*
X85004666Y-102995400D01*
%TO.C,J2*%
X240680000Y-81008817D02*
X255680000Y-81008817D01*
X255680000Y-96008817D02*
X240680000Y-96008817D01*
X255680000Y-81008817D02*
X255680000Y-96008817D01*
X240680000Y-81008817D02*
X240680000Y-96008817D01*
%TO.C,C11*%
X114777536Y-137402464D02*
X114777536Y-129962464D01*
X107337536Y-137402464D02*
X107337536Y-129962464D01*
X114777536Y-129962464D02*
X107337536Y-129962464D01*
X114777536Y-137402464D02*
X107337536Y-137402464D01*
%TO.C,C7*%
X127910000Y-95834021D02*
X127910000Y-103274021D01*
X127910000Y-95834021D02*
X135350000Y-95834021D01*
X135350000Y-95834021D02*
X135350000Y-103274021D01*
X127910000Y-103274021D02*
X135350000Y-103274021D01*
%TO.C,C1*%
X212829560Y-103946000D02*
X212829560Y-97330000D01*
X213109560Y-104085000D02*
X213109560Y-97330000D01*
X214829560Y-104701000D02*
X214829560Y-87079000D01*
X209349560Y-100769000D02*
X209349560Y-91011000D01*
X211629560Y-103200000D02*
X211629560Y-88580000D01*
X209629560Y-101181000D02*
X209629560Y-90599000D01*
X210989560Y-102684000D02*
X210989560Y-89096000D01*
X225890000Y-101905000D02*
X225890000Y-100105000D01*
X213389560Y-104213000D02*
X213389560Y-97330000D01*
X212709560Y-94450000D02*
X212709560Y-87898000D01*
X216029560Y-104916000D02*
X216029560Y-86864000D01*
X208670560Y-99495000D02*
X208670560Y-92285000D01*
X214309560Y-94450000D02*
X214309560Y-87225000D01*
X211749560Y-103287000D02*
X211749560Y-88493000D01*
X208510560Y-99104000D02*
X208510560Y-92676000D01*
X213549560Y-94450000D02*
X213549560Y-87500000D01*
X213629560Y-94450000D02*
X213629560Y-87467000D01*
X216790560Y-104967000D02*
X216790560Y-86813000D01*
X214669560Y-104660000D02*
X214669560Y-97330000D01*
X213989560Y-104449000D02*
X213989560Y-97330000D01*
X212709560Y-103882000D02*
X212709560Y-97330000D01*
X216109560Y-104924000D02*
X216109560Y-86856000D01*
X207910560Y-95930000D02*
X207910560Y-95850000D01*
X216990560Y-104970000D02*
X216990560Y-86810000D01*
X210269560Y-101972000D02*
X210269560Y-89808000D01*
X214029560Y-94450000D02*
X214029560Y-87317000D01*
X213189560Y-94450000D02*
X213189560Y-87657000D01*
X208390560Y-98770000D02*
X208390560Y-93010000D01*
X212429560Y-94450000D02*
X212429560Y-88055000D01*
X213269560Y-94450000D02*
X213269560Y-87621000D01*
X213429560Y-104230000D02*
X213429560Y-97330000D01*
X214629560Y-94450000D02*
X214629560Y-87131000D01*
X214389560Y-94450000D02*
X214389560Y-87200000D01*
X211869560Y-94450000D02*
X211869560Y-88410000D01*
X214029560Y-104463000D02*
X214029560Y-97330000D01*
X214189560Y-104517000D02*
X214189560Y-97330000D01*
X210749560Y-102464000D02*
X210749560Y-89316000D01*
X210509560Y-102227000D02*
X210509560Y-89553000D01*
X212669560Y-94450000D02*
X212669560Y-87919000D01*
X216590560Y-104960000D02*
X216590560Y-86820000D01*
X213309560Y-104177000D02*
X213309560Y-97330000D01*
X215349560Y-104814000D02*
X215349560Y-86966000D01*
X209989560Y-101648000D02*
X209989560Y-90132000D01*
X213749560Y-104360000D02*
X213749560Y-97330000D01*
X213349560Y-94450000D02*
X213349560Y-87585000D01*
X209429560Y-100892000D02*
X209429560Y-90888000D01*
X216550560Y-104958000D02*
X216550560Y-86822000D01*
X211789560Y-103315000D02*
X211789560Y-88465000D01*
X216390560Y-104948000D02*
X216390560Y-86832000D01*
X209149560Y-100442000D02*
X209149560Y-91338000D01*
X216350560Y-104945000D02*
X216350560Y-86835000D01*
X210629560Y-102348000D02*
X210629560Y-89432000D01*
X212109560Y-103530000D02*
X212109560Y-97330000D01*
X215989560Y-104911000D02*
X215989560Y-86869000D01*
X212909560Y-94450000D02*
X212909560Y-87793000D01*
X213069560Y-104066000D02*
X213069560Y-97330000D01*
X209829560Y-101448000D02*
X209829560Y-90332000D01*
X213589560Y-104297000D02*
X213589560Y-97330000D01*
X208310560Y-98522000D02*
X208310560Y-93258000D01*
X209109560Y-100372000D02*
X209109560Y-91408000D01*
X214509560Y-94450000D02*
X214509560Y-87165000D01*
X212549560Y-94450000D02*
X212549560Y-87986000D01*
X212429560Y-103725000D02*
X212429560Y-97330000D01*
X210149560Y-101837000D02*
X210149560Y-89943000D01*
X211349560Y-102986000D02*
X211349560Y-88794000D01*
X208430560Y-98886000D02*
X208430560Y-92894000D01*
X214749560Y-104681000D02*
X214749560Y-87099000D01*
X216269560Y-104939000D02*
X216269560Y-86841000D01*
X211309560Y-102954000D02*
X211309560Y-88826000D01*
X213669560Y-94450000D02*
X213669560Y-87451000D01*
X216950560Y-104970000D02*
X216950560Y-86810000D01*
X209309560Y-100706000D02*
X209309560Y-91074000D01*
X211909560Y-103398000D02*
X211909560Y-97330000D01*
X214509560Y-104615000D02*
X214509560Y-97330000D01*
X212829560Y-94450000D02*
X212829560Y-87834000D01*
X215509560Y-104843000D02*
X215509560Y-86937000D01*
X208150560Y-97929000D02*
X208150560Y-93851000D01*
X216470560Y-104953000D02*
X216470560Y-86827000D01*
X209909560Y-101550000D02*
X209909560Y-90230000D01*
X215629560Y-104862000D02*
X215629560Y-86918000D01*
X211069560Y-102754000D02*
X211069560Y-89026000D01*
X210109560Y-101791000D02*
X210109560Y-89989000D01*
X210429560Y-102144000D02*
X210429560Y-89636000D01*
X213149560Y-94450000D02*
X213149560Y-87676000D01*
X211589560Y-103170000D02*
X211589560Y-88610000D01*
X216910560Y-104970000D02*
X216910560Y-86810000D01*
X213789560Y-94450000D02*
X213789560Y-87404000D01*
X214429560Y-104592000D02*
X214429560Y-97330000D01*
X212909560Y-103987000D02*
X212909560Y-97330000D01*
X214269560Y-94450000D02*
X214269560Y-87237000D01*
X209549560Y-101068000D02*
X209549560Y-90712000D01*
X213749560Y-94450000D02*
X213749560Y-87420000D01*
X216430560Y-104951000D02*
X216430560Y-86829000D01*
X215029560Y-104748000D02*
X215029560Y-87032000D01*
X211149560Y-102822000D02*
X211149560Y-88958000D01*
X212349560Y-94450000D02*
X212349560Y-88102000D01*
X211949560Y-94450000D02*
X211949560Y-88355000D01*
X215469560Y-104836000D02*
X215469560Y-86944000D01*
X214109560Y-104490000D02*
X214109560Y-97330000D01*
X212669560Y-103861000D02*
X212669560Y-97330000D01*
X211269560Y-102921000D02*
X211269560Y-88859000D01*
X214349560Y-104568000D02*
X214349560Y-97330000D01*
X212229560Y-103605000D02*
X212229560Y-97330000D01*
X215949560Y-104906000D02*
X215949560Y-86874000D01*
X208470560Y-98997000D02*
X208470560Y-92783000D01*
X214149560Y-104504000D02*
X214149560Y-97330000D01*
X213829560Y-94450000D02*
X213829560Y-87389000D01*
X213949560Y-94450000D02*
X213949560Y-87345000D01*
X210189560Y-101883000D02*
X210189560Y-89897000D01*
X210029560Y-101696000D02*
X210029560Y-90084000D01*
X208909560Y-100003000D02*
X208909560Y-91777000D01*
X212069560Y-94450000D02*
X212069560Y-88276000D01*
X212869560Y-94450000D02*
X212869560Y-87814000D01*
X211669560Y-103229000D02*
X211669560Y-88551000D01*
X214589560Y-94450000D02*
X214589560Y-87142000D01*
X208350560Y-98649000D02*
X208350560Y-93131000D01*
X209269560Y-100642000D02*
X209269560Y-91138000D01*
X213829560Y-104391000D02*
X213829560Y-97330000D01*
X213909560Y-104420000D02*
X213909560Y-97330000D01*
X212629560Y-94450000D02*
X212629560Y-87941000D01*
X208630560Y-99402000D02*
X208630560Y-92378000D01*
X209789560Y-101396000D02*
X209789560Y-90384000D01*
X210589560Y-102308000D02*
X210589560Y-89472000D01*
X213589560Y-94450000D02*
X213589560Y-87483000D01*
X216630560Y-104962000D02*
X216630560Y-86818000D01*
X212029560Y-103478000D02*
X212029560Y-97330000D01*
X214269560Y-104543000D02*
X214269560Y-97330000D01*
X216309560Y-104942000D02*
X216309560Y-86838000D01*
X212389560Y-94450000D02*
X212389560Y-88078000D01*
X212149560Y-103555000D02*
X212149560Y-97330000D01*
X209869560Y-101499000D02*
X209869560Y-90281000D01*
X216710560Y-104965000D02*
X216710560Y-86815000D01*
X212749560Y-94450000D02*
X212749560Y-87876000D01*
X211949560Y-103425000D02*
X211949560Y-97330000D01*
X212269560Y-103630000D02*
X212269560Y-97330000D01*
X212989560Y-94450000D02*
X212989560Y-87753000D01*
X213469560Y-94450000D02*
X213469560Y-87533000D01*
X214229560Y-104530000D02*
X214229560Y-97330000D01*
X210869560Y-102576000D02*
X210869560Y-89204000D01*
X208030560Y-97325000D02*
X208030560Y-94455000D01*
X214069560Y-94450000D02*
X214069560Y-87303000D01*
X214389560Y-104580000D02*
X214389560Y-97330000D01*
X213149560Y-104104000D02*
X213149560Y-97330000D01*
X215709560Y-104874000D02*
X215709560Y-86906000D01*
X208869560Y-99923000D02*
X208869560Y-91857000D01*
X215909560Y-104901000D02*
X215909560Y-86879000D01*
X213229560Y-94450000D02*
X213229560Y-87639000D01*
X212229560Y-94450000D02*
X212229560Y-88175000D01*
X209389560Y-100831000D02*
X209389560Y-90949000D01*
X215869560Y-104896000D02*
X215869560Y-86884000D01*
X212309560Y-103654000D02*
X212309560Y-97330000D01*
X215109560Y-104766000D02*
X215109560Y-87014000D01*
X211189560Y-102855000D02*
X211189560Y-88925000D01*
X209749560Y-101344000D02*
X209749560Y-90436000D01*
X212509560Y-103772000D02*
X212509560Y-97330000D01*
X215389560Y-104822000D02*
X215389560Y-86958000D01*
X212549560Y-103794000D02*
X212549560Y-97330000D01*
X208830560Y-99842000D02*
X208830560Y-91938000D01*
X213229560Y-104141000D02*
X213229560Y-97330000D01*
X214469560Y-94450000D02*
X214469560Y-87176000D01*
X209949560Y-101599000D02*
X209949560Y-90181000D01*
X214669560Y-94450000D02*
X214669560Y-87120000D01*
X212269560Y-94450000D02*
X212269560Y-88150000D01*
X213789560Y-104376000D02*
X213789560Y-97330000D01*
X210349560Y-102060000D02*
X210349560Y-89720000D01*
X214989560Y-104739000D02*
X214989560Y-87041000D01*
X210829560Y-102539000D02*
X210829560Y-89241000D01*
X212989560Y-104027000D02*
X212989560Y-97330000D01*
X211549560Y-103140000D02*
X211549560Y-88640000D01*
X215429560Y-104829000D02*
X215429560Y-86951000D01*
X211029560Y-102719000D02*
X211029560Y-89061000D01*
X213709560Y-94450000D02*
X213709560Y-87435000D01*
X212509560Y-94450000D02*
X212509560Y-88008000D01*
X212789560Y-94450000D02*
X212789560Y-87855000D01*
X213029560Y-104046000D02*
X213029560Y-97330000D01*
X215749560Y-104880000D02*
X215749560Y-86900000D01*
X212029560Y-94450000D02*
X212029560Y-88302000D01*
X214309560Y-104555000D02*
X214309560Y-97330000D01*
X213989560Y-94450000D02*
X213989560Y-87331000D01*
X212109560Y-94450000D02*
X212109560Y-88250000D01*
X214549560Y-94450000D02*
X214549560Y-87153000D01*
X226790000Y-101005000D02*
X224990000Y-101005000D01*
X210229560Y-101928000D02*
X210229560Y-89852000D01*
X216830560Y-104968000D02*
X216830560Y-86812000D01*
X210949560Y-102648000D02*
X210949560Y-89132000D01*
X213469560Y-104247000D02*
X213469560Y-97330000D01*
X213869560Y-94450000D02*
X213869560Y-87374000D01*
X215789560Y-104886000D02*
X215789560Y-86894000D01*
X213509560Y-104264000D02*
X213509560Y-97330000D01*
X210309560Y-102016000D02*
X210309560Y-89764000D01*
X209229560Y-100576000D02*
X209229560Y-91204000D01*
X216189560Y-104932000D02*
X216189560Y-86848000D01*
X211709560Y-103258000D02*
X211709560Y-88522000D01*
X211509560Y-103110000D02*
X211509560Y-88670000D01*
X214869560Y-104711000D02*
X214869560Y-87069000D01*
X212069560Y-103504000D02*
X212069560Y-97330000D01*
X213389560Y-94450000D02*
X213389560Y-87567000D01*
X208190560Y-98093000D02*
X208190560Y-93687000D01*
X214109560Y-94450000D02*
X214109560Y-87290000D01*
X210909560Y-102612000D02*
X210909560Y-89168000D01*
X208790560Y-99759000D02*
X208790560Y-92021000D01*
X208710560Y-99586000D02*
X208710560Y-92194000D01*
X215829560Y-104891000D02*
X215829560Y-86889000D01*
X209469560Y-100952000D02*
X209469560Y-90828000D01*
X214349560Y-94450000D02*
X214349560Y-87212000D01*
X209589560Y-101125000D02*
X209589560Y-90655000D01*
X211389560Y-103017000D02*
X211389560Y-88763000D01*
X213429560Y-94450000D02*
X213429560Y-87550000D01*
X208110560Y-97750000D02*
X208110560Y-94030000D01*
X210669560Y-102387000D02*
X210669560Y-89393000D01*
X210789560Y-102502000D02*
X210789560Y-89278000D01*
X215069560Y-104757000D02*
X215069560Y-87023000D01*
X211429560Y-103049000D02*
X211429560Y-88731000D01*
X212389560Y-103702000D02*
X212389560Y-97330000D01*
X213669560Y-104329000D02*
X213669560Y-97330000D01*
X212189560Y-94450000D02*
X212189560Y-88200000D01*
X208070560Y-97551000D02*
X208070560Y-94229000D01*
X214229560Y-94450000D02*
X214229560Y-87250000D01*
X213949560Y-104435000D02*
X213949560Y-97330000D01*
X215229560Y-104791000D02*
X215229560Y-86989000D01*
X210709560Y-102426000D02*
X210709560Y-89354000D01*
X213109560Y-94450000D02*
X213109560Y-87695000D01*
X216229560Y-104935000D02*
X216229560Y-86845000D01*
X211909560Y-94450000D02*
X211909560Y-88382000D01*
X215589560Y-104856000D02*
X215589560Y-86924000D01*
X211109560Y-102788000D02*
X211109560Y-88992000D01*
X211229560Y-102889000D02*
X211229560Y-88891000D01*
X212869560Y-103966000D02*
X212869560Y-97330000D01*
X216149560Y-104928000D02*
X216149560Y-86852000D01*
X214709560Y-94450000D02*
X214709560Y-87110000D01*
X213349560Y-104195000D02*
X213349560Y-97330000D01*
X208270560Y-98388000D02*
X208270560Y-93392000D01*
X214629560Y-104649000D02*
X214629560Y-97330000D01*
X215309560Y-104807000D02*
X215309560Y-86973000D01*
X216870560Y-104969000D02*
X216870560Y-86811000D01*
X210389560Y-102102000D02*
X210389560Y-89678000D01*
X212149560Y-94450000D02*
X212149560Y-88225000D01*
X209509560Y-101010000D02*
X209509560Y-90770000D01*
X213069560Y-94450000D02*
X213069560Y-87714000D01*
X207990560Y-97056000D02*
X207990560Y-94724000D01*
X211829560Y-103343000D02*
X211829560Y-88437000D01*
X215269560Y-104799000D02*
X215269560Y-86981000D01*
X210069560Y-101744000D02*
X210069560Y-90036000D01*
X214469560Y-104604000D02*
X214469560Y-97330000D01*
X208590560Y-99306000D02*
X208590560Y-92474000D01*
X216069560Y-104920000D02*
X216069560Y-86860000D01*
X214189560Y-94450000D02*
X214189560Y-87263000D01*
X214589560Y-104638000D02*
X214589560Y-97330000D01*
X213629560Y-104313000D02*
X213629560Y-97330000D01*
X213909560Y-94450000D02*
X213909560Y-87360000D01*
X207950560Y-96704000D02*
X207950560Y-95076000D01*
X212189560Y-103580000D02*
X212189560Y-97330000D01*
X215669560Y-104869000D02*
X215669560Y-86911000D01*
X216510560Y-104956000D02*
X216510560Y-86824000D01*
X213549560Y-104280000D02*
X213549560Y-97330000D01*
X210549560Y-102268000D02*
X210549560Y-89512000D01*
X212949560Y-104007000D02*
X212949560Y-97330000D01*
X215149560Y-104775000D02*
X215149560Y-87005000D01*
X209029560Y-100229000D02*
X209029560Y-91551000D01*
X214709560Y-104670000D02*
X214709560Y-97330000D01*
X208989560Y-100155000D02*
X208989560Y-91625000D01*
X214069560Y-104477000D02*
X214069560Y-97330000D01*
X213269560Y-104159000D02*
X213269560Y-97330000D01*
X214549560Y-104627000D02*
X214549560Y-97330000D01*
X216750560Y-104966000D02*
X216750560Y-86814000D01*
X215549560Y-104850000D02*
X215549560Y-86930000D01*
X209709560Y-101290000D02*
X209709560Y-90490000D01*
X209069560Y-100302000D02*
X209069560Y-91478000D01*
X208230560Y-98245000D02*
X208230560Y-93535000D01*
X212469560Y-94450000D02*
X212469560Y-88031000D01*
X213189560Y-104123000D02*
X213189560Y-97330000D01*
X212309560Y-94450000D02*
X212309560Y-88126000D01*
X214789560Y-104691000D02*
X214789560Y-87089000D01*
X212789560Y-103925000D02*
X212789560Y-97330000D01*
X213309560Y-94450000D02*
X213309560Y-87603000D01*
X212589560Y-103817000D02*
X212589560Y-97330000D01*
X214909560Y-104721000D02*
X214909560Y-87059000D01*
X211989560Y-103451000D02*
X211989560Y-97330000D01*
X212349560Y-103678000D02*
X212349560Y-97330000D01*
X217030560Y-104971000D02*
X217030560Y-86809000D01*
X212949560Y-94450000D02*
X212949560Y-87773000D01*
X212469560Y-103749000D02*
X212469560Y-97330000D01*
X214149560Y-94450000D02*
X214149560Y-87276000D01*
X209189560Y-100510000D02*
X209189560Y-91270000D01*
X212589560Y-94450000D02*
X212589560Y-87963000D01*
X216670560Y-104963000D02*
X216670560Y-86817000D01*
X211989560Y-94450000D02*
X211989560Y-88329000D01*
X213509560Y-94450000D02*
X213509560Y-87516000D01*
X210469560Y-102186000D02*
X210469560Y-89594000D01*
X211869560Y-103370000D02*
X211869560Y-97330000D01*
X208949560Y-100080000D02*
X208949560Y-91700000D01*
X213029560Y-94450000D02*
X213029560Y-87734000D01*
X209669560Y-101236000D02*
X209669560Y-90544000D01*
X212749560Y-103904000D02*
X212749560Y-97330000D01*
X214949560Y-104730000D02*
X214949560Y-87050000D01*
X213869560Y-104406000D02*
X213869560Y-97330000D01*
X208550560Y-99207000D02*
X208550560Y-92573000D01*
X215189560Y-104783000D02*
X215189560Y-86997000D01*
X214429560Y-94450000D02*
X214429560Y-87188000D01*
X213709560Y-104345000D02*
X213709560Y-97330000D01*
X208750560Y-99674000D02*
X208750560Y-92106000D01*
X211469560Y-103080000D02*
X211469560Y-88700000D01*
X212629560Y-103839000D02*
X212629560Y-97330000D01*
X226150560Y-95890000D02*
G75*
G03*
X226150560Y-95890000I-9120000J0D01*
G01*
%TO.C,U2*%
X69588856Y-137510022D02*
G75*
G03*
X69588856Y-137510022I-11305419J0D01*
G01*
%TO.C,C2*%
X204080000Y-124230000D02*
X205130000Y-125280000D01*
X224320000Y-122130000D02*
X224320000Y-124230000D01*
X224320000Y-122130000D02*
X204080000Y-122130000D01*
X224320000Y-151370000D02*
X204080000Y-151370000D01*
X214200000Y-120890000D02*
X214200000Y-122130000D01*
X204080000Y-126330000D02*
X204080000Y-151370000D01*
X205130000Y-125280000D02*
X204080000Y-126330000D01*
X217200000Y-119680000D02*
X217200000Y-121780000D01*
X224320000Y-124230000D02*
X223270000Y-125280000D01*
X214200000Y-152610000D02*
X214200000Y-151370000D01*
X204080000Y-122130000D02*
X204080000Y-124230000D01*
X223270000Y-125280000D02*
X224320000Y-126330000D01*
X218250000Y-120730000D02*
X216150000Y-120730000D01*
X224320000Y-126330000D02*
X224320000Y-151370000D01*
%TO.C,C12*%
X178130000Y-78595025D02*
X178130000Y-98835025D01*
X136390000Y-78595025D02*
X136390000Y-98835025D01*
X136390000Y-98835025D02*
X178130000Y-98835025D01*
X136390000Y-78595025D02*
X178130000Y-78595025D01*
%TO.C,J3*%
X255680000Y-116358817D02*
X240680000Y-116358817D01*
X240680000Y-101358817D02*
X255680000Y-101358817D01*
X255680000Y-101358817D02*
X255680000Y-116358817D01*
X240680000Y-101358817D02*
X240680000Y-116358817D01*
%TO.C,R10*%
X119130472Y-110141455D02*
X120584600Y-110141455D01*
X119130472Y-111961455D02*
X120584600Y-111961455D01*
%TO.C,U1*%
X117295419Y-117422486D02*
G75*
G03*
X117295419Y-117422486I-11305419J0D01*
G01*
%TO.C,D1*%
X230754851Y-121276868D02*
X230754851Y-126716868D01*
X232224851Y-120256868D02*
X232224851Y-121276868D01*
X232224851Y-127736868D02*
X232224851Y-126716868D01*
X233694851Y-122056868D02*
X230754851Y-122056868D01*
X233694851Y-126716868D02*
X233694851Y-121276868D01*
X233694851Y-122296868D02*
X230754851Y-122296868D01*
X233694851Y-122176868D02*
X230754851Y-122176868D01*
X230754851Y-126716868D02*
X233694851Y-126716868D01*
X233694851Y-121276868D02*
X230754851Y-121276868D01*
%TO.C,U3*%
X69588856Y-102214771D02*
G75*
G03*
X69588856Y-102214771I-11305419J0D01*
G01*
%TO.C,R6*%
X93174600Y-122816527D02*
X91720472Y-122816527D01*
X93174600Y-124636527D02*
X91720472Y-124636527D01*
%TO.C,C14*%
X127910000Y-86035025D02*
X127910000Y-78595025D01*
X127910000Y-86035025D02*
X135350000Y-86035025D01*
X135350000Y-86035025D02*
X135350000Y-78595025D01*
X127910000Y-78595025D02*
X135350000Y-78595025D01*
%TO.C,C4*%
X194799097Y-97330000D02*
X194799097Y-103425000D01*
X191719097Y-87032000D02*
X191719097Y-104748000D01*
X197639097Y-91408000D02*
X197639097Y-100372000D01*
X193919097Y-97330000D02*
X193919097Y-103946000D01*
X192439097Y-87225000D02*
X192439097Y-94450000D01*
X197239097Y-90770000D02*
X197239097Y-101010000D01*
X193119097Y-87467000D02*
X193119097Y-94450000D01*
X193599097Y-87676000D02*
X193599097Y-94450000D01*
X190198097Y-86822000D02*
X190198097Y-104958000D01*
X195679097Y-89026000D02*
X195679097Y-102754000D01*
X190118097Y-86818000D02*
X190118097Y-104962000D01*
X193199097Y-87500000D02*
X193199097Y-94450000D01*
X198798097Y-95076000D02*
X198798097Y-96704000D01*
X194439097Y-88126000D02*
X194439097Y-94450000D01*
X190559097Y-86848000D02*
X190559097Y-104932000D01*
X194159097Y-87963000D02*
X194159097Y-94450000D01*
X193799097Y-97330000D02*
X193799097Y-104007000D01*
X198078097Y-92285000D02*
X198078097Y-99495000D01*
X192879097Y-97330000D02*
X192879097Y-104406000D01*
X190318097Y-86829000D02*
X190318097Y-104951000D01*
X192919097Y-87389000D02*
X192919097Y-94450000D01*
X194759097Y-97330000D02*
X194759097Y-103451000D01*
X193959097Y-87855000D02*
X193959097Y-94450000D01*
X190398097Y-86835000D02*
X190398097Y-104945000D01*
X192479097Y-87237000D02*
X192479097Y-94450000D01*
X195959097Y-89278000D02*
X195959097Y-102502000D01*
X195319097Y-88731000D02*
X195319097Y-103049000D01*
X189798097Y-86810000D02*
X189798097Y-104970000D01*
X193119097Y-97330000D02*
X193119097Y-104313000D01*
X190439097Y-86838000D02*
X190439097Y-104942000D01*
X198398097Y-93131000D02*
X198398097Y-98649000D01*
X193359097Y-97330000D02*
X193359097Y-104213000D01*
X195119097Y-88580000D02*
X195119097Y-103200000D01*
X194399097Y-97330000D02*
X194399097Y-103678000D01*
X193159097Y-87483000D02*
X193159097Y-94450000D01*
X198558097Y-93687000D02*
X198558097Y-98093000D01*
X198758097Y-94724000D02*
X198758097Y-97056000D01*
X189838097Y-86810000D02*
X189838097Y-104970000D01*
X198598097Y-93851000D02*
X198598097Y-97929000D01*
X195199097Y-88640000D02*
X195199097Y-103140000D01*
X197319097Y-90888000D02*
X197319097Y-100892000D01*
X192119097Y-97330000D02*
X192119097Y-104649000D01*
X191439097Y-86973000D02*
X191439097Y-104807000D01*
X194839097Y-88382000D02*
X194839097Y-94450000D01*
X193719097Y-87734000D02*
X193719097Y-94450000D01*
X192239097Y-87165000D02*
X192239097Y-94450000D01*
X189998097Y-86814000D02*
X189998097Y-104966000D01*
X196839097Y-90230000D02*
X196839097Y-101550000D01*
X192199097Y-97330000D02*
X192199097Y-104627000D01*
X179958657Y-90775000D02*
X181758657Y-90775000D01*
X198678097Y-94229000D02*
X198678097Y-97551000D01*
X196519097Y-89852000D02*
X196519097Y-101928000D01*
X194639097Y-88250000D02*
X194639097Y-94450000D01*
X192079097Y-87120000D02*
X192079097Y-94450000D01*
X193279097Y-97330000D02*
X193279097Y-104247000D01*
X198238097Y-92676000D02*
X198238097Y-99104000D01*
X190078097Y-86817000D02*
X190078097Y-104963000D01*
X193759097Y-87753000D02*
X193759097Y-94450000D01*
X194919097Y-88437000D02*
X194919097Y-103343000D01*
X191159097Y-86924000D02*
X191159097Y-104856000D01*
X195839097Y-89168000D02*
X195839097Y-102612000D01*
X194679097Y-97330000D02*
X194679097Y-103504000D01*
X193639097Y-97330000D02*
X193639097Y-104085000D01*
X193719097Y-97330000D02*
X193719097Y-104046000D01*
X198118097Y-92378000D02*
X198118097Y-99402000D01*
X198278097Y-92783000D02*
X198278097Y-98997000D01*
X190839097Y-86879000D02*
X190839097Y-104901000D01*
X196079097Y-89393000D02*
X196079097Y-102387000D01*
X198838097Y-95850000D02*
X198838097Y-95930000D01*
X192759097Y-97330000D02*
X192759097Y-104449000D01*
X197199097Y-90712000D02*
X197199097Y-101068000D01*
X193679097Y-87714000D02*
X193679097Y-94450000D01*
X197679097Y-91478000D02*
X197679097Y-100302000D01*
X194479097Y-97330000D02*
X194479097Y-103630000D01*
X193599097Y-97330000D02*
X193599097Y-104104000D01*
X195079097Y-88551000D02*
X195079097Y-103229000D01*
X197879097Y-91857000D02*
X197879097Y-99923000D01*
X197079097Y-90544000D02*
X197079097Y-101236000D01*
X194599097Y-88225000D02*
X194599097Y-94450000D01*
X198638097Y-94030000D02*
X198638097Y-97750000D01*
X192799097Y-97330000D02*
X192799097Y-104435000D01*
X190919097Y-86889000D02*
X190919097Y-104891000D01*
X192399097Y-87212000D02*
X192399097Y-94450000D01*
X197719097Y-91551000D02*
X197719097Y-100229000D01*
X194759097Y-88329000D02*
X194759097Y-94450000D01*
X196599097Y-89943000D02*
X196599097Y-101837000D01*
X192199097Y-87153000D02*
X192199097Y-94450000D01*
X192159097Y-87142000D02*
X192159097Y-94450000D01*
X191559097Y-86997000D02*
X191559097Y-104783000D01*
X195039097Y-88522000D02*
X195039097Y-103258000D01*
X189958097Y-86813000D02*
X189958097Y-104967000D01*
X191919097Y-87079000D02*
X191919097Y-104701000D01*
X189718097Y-86809000D02*
X189718097Y-104971000D01*
X192999097Y-97330000D02*
X192999097Y-104360000D01*
X190238097Y-86824000D02*
X190238097Y-104956000D01*
X195799097Y-89132000D02*
X195799097Y-102648000D01*
X197159097Y-90655000D02*
X197159097Y-101125000D01*
X191999097Y-87099000D02*
X191999097Y-104681000D01*
X194679097Y-88276000D02*
X194679097Y-94450000D01*
X192359097Y-97330000D02*
X192359097Y-104580000D01*
X192599097Y-97330000D02*
X192599097Y-104504000D01*
X198518097Y-93535000D02*
X198518097Y-98245000D01*
X193839097Y-87793000D02*
X193839097Y-94450000D01*
X192519097Y-97330000D02*
X192519097Y-104530000D01*
X194879097Y-97330000D02*
X194879097Y-103370000D01*
X197359097Y-90949000D02*
X197359097Y-100831000D01*
X196039097Y-89354000D02*
X196039097Y-102426000D01*
X193239097Y-97330000D02*
X193239097Y-104264000D01*
X191399097Y-86966000D02*
X191399097Y-104814000D01*
X191319097Y-86951000D02*
X191319097Y-104829000D01*
X197559097Y-91270000D02*
X197559097Y-100510000D01*
X195759097Y-89096000D02*
X195759097Y-102684000D01*
X194239097Y-97330000D02*
X194239097Y-103772000D01*
X195439097Y-88826000D02*
X195439097Y-102954000D01*
X193479097Y-87621000D02*
X193479097Y-94450000D01*
X196959097Y-90384000D02*
X196959097Y-101396000D01*
X196159097Y-89472000D02*
X196159097Y-102308000D01*
X191519097Y-86989000D02*
X191519097Y-104791000D01*
X198158097Y-92474000D02*
X198158097Y-99306000D01*
X194719097Y-88302000D02*
X194719097Y-94450000D01*
X191679097Y-87023000D02*
X191679097Y-104757000D01*
X192839097Y-97330000D02*
X192839097Y-104420000D01*
X192279097Y-87176000D02*
X192279097Y-94450000D01*
X192039097Y-97330000D02*
X192039097Y-104670000D01*
X191799097Y-87050000D02*
X191799097Y-104730000D01*
X193239097Y-87516000D02*
X193239097Y-94450000D01*
X194039097Y-97330000D02*
X194039097Y-103882000D01*
X194279097Y-88031000D02*
X194279097Y-94450000D01*
X194879097Y-88410000D02*
X194879097Y-94450000D01*
X194119097Y-97330000D02*
X194119097Y-103839000D01*
X196719097Y-90084000D02*
X196719097Y-101696000D01*
X194559097Y-88200000D02*
X194559097Y-94450000D01*
X191759097Y-87041000D02*
X191759097Y-104739000D01*
X197439097Y-91074000D02*
X197439097Y-100706000D01*
X190999097Y-86900000D02*
X190999097Y-104880000D01*
X197839097Y-91777000D02*
X197839097Y-100003000D01*
X194479097Y-88150000D02*
X194479097Y-94450000D01*
X196559097Y-89897000D02*
X196559097Y-101883000D01*
X194359097Y-88078000D02*
X194359097Y-94450000D01*
X194319097Y-88055000D02*
X194319097Y-94450000D01*
X193559097Y-97330000D02*
X193559097Y-104123000D01*
X192719097Y-87317000D02*
X192719097Y-94450000D01*
X190479097Y-86841000D02*
X190479097Y-104939000D01*
X190038097Y-86815000D02*
X190038097Y-104965000D01*
X197119097Y-90599000D02*
X197119097Y-101181000D01*
X192159097Y-97330000D02*
X192159097Y-104638000D01*
X197399097Y-91011000D02*
X197399097Y-100769000D01*
X197279097Y-90828000D02*
X197279097Y-100952000D01*
X193559097Y-87657000D02*
X193559097Y-94450000D01*
X190719097Y-86864000D02*
X190719097Y-104916000D01*
X192519097Y-87250000D02*
X192519097Y-94450000D01*
X193399097Y-97330000D02*
X193399097Y-104195000D01*
X193679097Y-97330000D02*
X193679097Y-104066000D01*
X193279097Y-87533000D02*
X193279097Y-94450000D01*
X180858657Y-89875000D02*
X180858657Y-91675000D01*
X192319097Y-97330000D02*
X192319097Y-104592000D01*
X195559097Y-88925000D02*
X195559097Y-102855000D01*
X195999097Y-89316000D02*
X195999097Y-102464000D01*
X192399097Y-97330000D02*
X192399097Y-104568000D01*
X198198097Y-92573000D02*
X198198097Y-99207000D01*
X191599097Y-87005000D02*
X191599097Y-104775000D01*
X198358097Y-93010000D02*
X198358097Y-98770000D01*
X193839097Y-97330000D02*
X193839097Y-103987000D01*
X193079097Y-97330000D02*
X193079097Y-104329000D01*
X193359097Y-87567000D02*
X193359097Y-94450000D01*
X197479097Y-91138000D02*
X197479097Y-100642000D01*
X197799097Y-91700000D02*
X197799097Y-100080000D01*
X193639097Y-87695000D02*
X193639097Y-94450000D01*
X189918097Y-86812000D02*
X189918097Y-104968000D01*
X194199097Y-87986000D02*
X194199097Y-94450000D01*
X193999097Y-87876000D02*
X193999097Y-94450000D01*
X193439097Y-87603000D02*
X193439097Y-94450000D01*
X190879097Y-86884000D02*
X190879097Y-104896000D01*
X195719097Y-89061000D02*
X195719097Y-102719000D01*
X195919097Y-89241000D02*
X195919097Y-102539000D01*
X194439097Y-97330000D02*
X194439097Y-103654000D01*
X191359097Y-86958000D02*
X191359097Y-104822000D01*
X193879097Y-87814000D02*
X193879097Y-94450000D01*
X194159097Y-97330000D02*
X194159097Y-103817000D01*
X193999097Y-97330000D02*
X193999097Y-103904000D01*
X195399097Y-88794000D02*
X195399097Y-102986000D01*
X198318097Y-92894000D02*
X198318097Y-98886000D01*
X192279097Y-97330000D02*
X192279097Y-104604000D01*
X195159097Y-88610000D02*
X195159097Y-103170000D01*
X191199097Y-86930000D02*
X191199097Y-104850000D01*
X194839097Y-97330000D02*
X194839097Y-103398000D01*
X192639097Y-97330000D02*
X192639097Y-104490000D01*
X192799097Y-87345000D02*
X192799097Y-94450000D01*
X195479097Y-88859000D02*
X195479097Y-102921000D01*
X198478097Y-93392000D02*
X198478097Y-98388000D01*
X190278097Y-86827000D02*
X190278097Y-104953000D01*
X196799097Y-90181000D02*
X196799097Y-101599000D01*
X194959097Y-88465000D02*
X194959097Y-103315000D01*
X193319097Y-87550000D02*
X193319097Y-94450000D01*
X196319097Y-89636000D02*
X196319097Y-102144000D01*
X192919097Y-97330000D02*
X192919097Y-104391000D01*
X196759097Y-90132000D02*
X196759097Y-101648000D01*
X194239097Y-88008000D02*
X194239097Y-94450000D01*
X194799097Y-88355000D02*
X194799097Y-94450000D01*
X195519097Y-88891000D02*
X195519097Y-102889000D01*
X197519097Y-91204000D02*
X197519097Y-100576000D01*
X194719097Y-97330000D02*
X194719097Y-103478000D01*
X197918097Y-91938000D02*
X197918097Y-99842000D01*
X196919097Y-90332000D02*
X196919097Y-101448000D01*
X193799097Y-87773000D02*
X193799097Y-94450000D01*
X195639097Y-88992000D02*
X195639097Y-102788000D01*
X193079097Y-87451000D02*
X193079097Y-94450000D01*
X190799097Y-86874000D02*
X190799097Y-104906000D01*
X196479097Y-89808000D02*
X196479097Y-101972000D01*
X194999097Y-88493000D02*
X194999097Y-103287000D01*
X193519097Y-97330000D02*
X193519097Y-104141000D01*
X190759097Y-86869000D02*
X190759097Y-104911000D01*
X190959097Y-86894000D02*
X190959097Y-104886000D01*
X192479097Y-97330000D02*
X192479097Y-104543000D01*
X191879097Y-87069000D02*
X191879097Y-104711000D01*
X192839097Y-87360000D02*
X192839097Y-94450000D01*
X192359097Y-87200000D02*
X192359097Y-94450000D01*
X194519097Y-88175000D02*
X194519097Y-94450000D01*
X194319097Y-97330000D02*
X194319097Y-103725000D01*
X193879097Y-97330000D02*
X193879097Y-103966000D01*
X196119097Y-89432000D02*
X196119097Y-102348000D01*
X191479097Y-86981000D02*
X191479097Y-104799000D01*
X191039097Y-86906000D02*
X191039097Y-104874000D01*
X191279097Y-86944000D02*
X191279097Y-104836000D01*
X191079097Y-86911000D02*
X191079097Y-104869000D01*
X191839097Y-87059000D02*
X191839097Y-104721000D01*
X190519097Y-86845000D02*
X190519097Y-104935000D01*
X193439097Y-97330000D02*
X193439097Y-104177000D01*
X193039097Y-87435000D02*
X193039097Y-94450000D01*
X195239097Y-88670000D02*
X195239097Y-103110000D01*
X196239097Y-89553000D02*
X196239097Y-102227000D01*
X189758097Y-86810000D02*
X189758097Y-104970000D01*
X197599097Y-91338000D02*
X197599097Y-100442000D01*
X197998097Y-92106000D02*
X197998097Y-99674000D01*
X198438097Y-93258000D02*
X198438097Y-98522000D01*
X194599097Y-97330000D02*
X194599097Y-103555000D01*
X193319097Y-97330000D02*
X193319097Y-104230000D01*
X192719097Y-97330000D02*
X192719097Y-104463000D01*
X193759097Y-97330000D02*
X193759097Y-104027000D01*
X192999097Y-87420000D02*
X192999097Y-94450000D01*
X192239097Y-97330000D02*
X192239097Y-104615000D01*
X194199097Y-97330000D02*
X194199097Y-103794000D01*
X194399097Y-88102000D02*
X194399097Y-94450000D01*
X194079097Y-87919000D02*
X194079097Y-94450000D01*
X195359097Y-88763000D02*
X195359097Y-103017000D01*
X193039097Y-97330000D02*
X193039097Y-104345000D01*
X194559097Y-97330000D02*
X194559097Y-103580000D01*
X196399097Y-89720000D02*
X196399097Y-102060000D01*
X197039097Y-90490000D02*
X197039097Y-101290000D01*
X193959097Y-97330000D02*
X193959097Y-103925000D01*
X198718097Y-94455000D02*
X198718097Y-97325000D01*
X191639097Y-87014000D02*
X191639097Y-104766000D01*
X192039097Y-87110000D02*
X192039097Y-94450000D01*
X190599097Y-86852000D02*
X190599097Y-104928000D01*
X191959097Y-87089000D02*
X191959097Y-104691000D01*
X192759097Y-87331000D02*
X192759097Y-94450000D01*
X196879097Y-90281000D02*
X196879097Y-101499000D01*
X190679097Y-86860000D02*
X190679097Y-104920000D01*
X192959097Y-87404000D02*
X192959097Y-94450000D01*
X193479097Y-97330000D02*
X193479097Y-104159000D01*
X190358097Y-86832000D02*
X190358097Y-104948000D01*
X196679097Y-90036000D02*
X196679097Y-101744000D01*
X194639097Y-97330000D02*
X194639097Y-103530000D01*
X193199097Y-97330000D02*
X193199097Y-104280000D01*
X190158097Y-86820000D02*
X190158097Y-104960000D01*
X195599097Y-88958000D02*
X195599097Y-102822000D01*
X193159097Y-97330000D02*
X193159097Y-104297000D01*
X195279097Y-88700000D02*
X195279097Y-103080000D01*
X194519097Y-97330000D02*
X194519097Y-103605000D01*
X193519097Y-87639000D02*
X193519097Y-94450000D01*
X192679097Y-97330000D02*
X192679097Y-104477000D01*
X190639097Y-86856000D02*
X190639097Y-104924000D01*
X198038097Y-92194000D02*
X198038097Y-99586000D01*
X192879097Y-87374000D02*
X192879097Y-94450000D01*
X196439097Y-89764000D02*
X196439097Y-102016000D01*
X196279097Y-89594000D02*
X196279097Y-102186000D01*
X192599097Y-87276000D02*
X192599097Y-94450000D01*
X194279097Y-97330000D02*
X194279097Y-103749000D01*
X194039097Y-87898000D02*
X194039097Y-94450000D01*
X192559097Y-87263000D02*
X192559097Y-94450000D01*
X195879097Y-89204000D02*
X195879097Y-102576000D01*
X189878097Y-86811000D02*
X189878097Y-104969000D01*
X191239097Y-86937000D02*
X191239097Y-104843000D01*
X196639097Y-89989000D02*
X196639097Y-101791000D01*
X197759097Y-91625000D02*
X197759097Y-100155000D01*
X192439097Y-97330000D02*
X192439097Y-104555000D01*
X192559097Y-97330000D02*
X192559097Y-104517000D01*
X192119097Y-87131000D02*
X192119097Y-94450000D01*
X192959097Y-97330000D02*
X192959097Y-104376000D01*
X192319097Y-87188000D02*
X192319097Y-94450000D01*
X192639097Y-87290000D02*
X192639097Y-94450000D01*
X193919097Y-87834000D02*
X193919097Y-94450000D01*
X191119097Y-86918000D02*
X191119097Y-104862000D01*
X192079097Y-97330000D02*
X192079097Y-104660000D01*
X196359097Y-89678000D02*
X196359097Y-102102000D01*
X194079097Y-97330000D02*
X194079097Y-103861000D01*
X192679097Y-87303000D02*
X192679097Y-94450000D01*
X193399097Y-87585000D02*
X193399097Y-94450000D01*
X194359097Y-97330000D02*
X194359097Y-103702000D01*
X197958097Y-92021000D02*
X197958097Y-99759000D01*
X196199097Y-89512000D02*
X196199097Y-102268000D01*
X194119097Y-87941000D02*
X194119097Y-94450000D01*
X196999097Y-90436000D02*
X196999097Y-101344000D01*
X198838097Y-95890000D02*
G75*
G03*
X198838097Y-95890000I-9120000J0D01*
G01*
%TO.C,R18*%
X44830000Y-144357064D02*
X44830000Y-140002936D01*
X41410000Y-144357064D02*
X41410000Y-140002936D01*
%TO.C,R7*%
X110320000Y-84082936D02*
X110320000Y-88437064D01*
X113740000Y-84082936D02*
X113740000Y-88437064D01*
%TO.C,R21*%
X41410000Y-109047064D02*
X41410000Y-104692936D01*
X44830000Y-109047064D02*
X44830000Y-104692936D01*
%TO.C,R14*%
X103409572Y-133009528D02*
X103409572Y-131555400D01*
X101589572Y-133009528D02*
X101589572Y-131555400D01*
%TO.C,R3*%
X112000000Y-141407064D02*
X112000000Y-139952936D01*
X110180000Y-141407064D02*
X110180000Y-139952936D01*
%TO.C,R5*%
X97457536Y-104449528D02*
X97457536Y-102995400D01*
X99277536Y-104449528D02*
X99277536Y-102995400D01*
%TO.C,R19*%
X130902936Y-109226685D02*
X132357064Y-109226685D01*
X130902936Y-111046685D02*
X132357064Y-111046685D01*
%TD*%
M02*
