%TF.GenerationSoftware,KiCad,Pcbnew,(6.0.0)*%
%TF.CreationDate,2022-08-03T23:03:17+01:00*%
%TF.ProjectId,Lynx Phono,4c796e78-2050-4686-9f6e-6f2e6b696361,rev?*%
%TF.SameCoordinates,Original*%
%TF.FileFunction,Copper,L2,Bot*%
%TF.FilePolarity,Positive*%
%FSLAX46Y46*%
G04 Gerber Fmt 4.6, Leading zero omitted, Abs format (unit mm)*
G04 Created by KiCad (PCBNEW (6.0.0)) date 2022-08-03 23:03:17*
%MOMM*%
%LPD*%
G01*
G04 APERTURE LIST*
%TA.AperFunction,ComponentPad*%
%ADD10C,1.800000*%
%TD*%
%TA.AperFunction,ComponentPad*%
%ADD11R,1.600000X1.600000*%
%TD*%
%TA.AperFunction,ComponentPad*%
%ADD12C,1.600000*%
%TD*%
%TA.AperFunction,ComponentPad*%
%ADD13O,1.600000X1.600000*%
%TD*%
%TA.AperFunction,ComponentPad*%
%ADD14C,2.000000*%
%TD*%
%TA.AperFunction,ComponentPad*%
%ADD15C,3.000000*%
%TD*%
%TA.AperFunction,ComponentPad*%
%ADD16R,2.100000X2.100000*%
%TD*%
%TA.AperFunction,ComponentPad*%
%ADD17C,2.100000*%
%TD*%
%TA.AperFunction,ComponentPad*%
%ADD18R,1.700000X1.700000*%
%TD*%
%TA.AperFunction,ComponentPad*%
%ADD19O,1.700000X1.700000*%
%TD*%
G04 APERTURE END LIST*
D10*
%TO.P,RV1,1,1*%
%TO.N,Net-(C3-Pad2)*%
X23947993Y-65245000D03*
%TO.P,RV1,2,2*%
X23947993Y-67745000D03*
%TO.P,RV1,3,3*%
%TO.N,Net-(R1-Pad1)*%
X23947993Y-70245000D03*
%TO.P,RV1,4,4*%
%TO.N,Net-(C4-Pad2)*%
X26447993Y-65245000D03*
%TO.P,RV1,5,5*%
X26447993Y-67745000D03*
%TO.P,RV1,6,6*%
%TO.N,Net-(R2-Pad1)*%
X26447993Y-70245000D03*
%TD*%
D11*
%TO.P,C13,1*%
%TO.N,Net-(C11-Pad2)*%
X76830000Y-102557324D03*
X78430000Y-101886387D03*
D12*
%TO.P,C13,2*%
%TO.N,Net-(C13-Pad2)*%
X75230000Y-105728261D03*
X76830000Y-105057324D03*
%TD*%
%TO.P,R6,1*%
%TO.N,GND*%
X54424788Y-96091269D03*
D13*
%TO.P,R6,2*%
%TO.N,Net-(C14-Pad2)*%
X54424788Y-88471269D03*
%TD*%
D14*
%TO.P,RCA 4LEG,1*%
%TO.N,In L*%
X33037057Y-82683592D03*
D15*
%TO.P,RCA 4LEG,2*%
%TO.N,GND*%
X27937057Y-77633592D03*
X27937057Y-87733592D03*
D14*
X33037057Y-85183592D03*
%TD*%
D11*
%TO.P,C3,1*%
%TO.N,Net-(C3-Pad1)*%
X45544929Y-70933615D03*
X47144929Y-70262678D03*
D12*
%TO.P,C3,2*%
%TO.N,Net-(C3-Pad2)*%
X48744929Y-67091741D03*
X47144929Y-67762678D03*
%TD*%
D11*
%TO.P,C12,1*%
%TO.N,Net-(C10-Pad2)*%
X76830000Y-70241881D03*
X75230000Y-70912818D03*
D12*
%TO.P,C12,2*%
%TO.N,Net-(C12-Pad2)*%
X76830000Y-67741881D03*
X78430000Y-67070944D03*
%TD*%
%TO.P,R11,1*%
%TO.N,Out L*%
X84040000Y-72934204D03*
D13*
%TO.P,R11,2*%
%TO.N,Net-(C12-Pad2)*%
X84040000Y-65314204D03*
%TD*%
D11*
%TO.P,C1,1*%
%TO.N,Net-(C1-Pad1)*%
X45544929Y-82583615D03*
X47144929Y-81912678D03*
D12*
%TO.P,C1,2*%
%TO.N,Net-(C1-Pad2)*%
X48744929Y-78741741D03*
X47144929Y-79412678D03*
%TD*%
D14*
%TO.P,C6,1*%
%TO.N,Net-(C1-Pad1)*%
X59122464Y-84545001D03*
%TO.P,C6,2*%
%TO.N,GND*%
X59122464Y-77045001D03*
%TD*%
D12*
%TO.P,R1,1*%
%TO.N,Net-(R1-Pad1)*%
X30687525Y-71555000D03*
D13*
%TO.P,R1,2*%
%TO.N,GND*%
X30687525Y-63935000D03*
%TD*%
D16*
%TO.P,J3,1,Pin_1*%
%TO.N,Out L*%
X99488414Y-82500000D03*
D17*
%TO.P,J3,2,Pin_2*%
%TO.N,GND*%
X99488414Y-85040000D03*
%TO.P,J3,3,Pin_3*%
X99488414Y-87580000D03*
%TO.P,J3,4,Pin_4*%
%TO.N,Out R*%
X99488414Y-90120000D03*
%TD*%
D12*
%TO.P,R2,1*%
%TO.N,Net-(R2-Pad1)*%
X34077057Y-71555000D03*
D13*
%TO.P,R2,2*%
%TO.N,GND*%
X34077057Y-63935000D03*
%TD*%
D12*
%TO.P,R12,1*%
%TO.N,Out R*%
X84040000Y-99865001D03*
D13*
%TO.P,R12,2*%
%TO.N,Net-(C13-Pad2)*%
X84040000Y-107485001D03*
%TD*%
D12*
%TO.P,R3,1*%
%TO.N,In L*%
X35860000Y-74970001D03*
D13*
%TO.P,R3,2*%
%TO.N,Net-(C1-Pad2)*%
X43480000Y-74970001D03*
%TD*%
D11*
%TO.P,C2,1*%
%TO.N,Net-(C14-Pad2)*%
X48744929Y-90492655D03*
X47144929Y-91163592D03*
D12*
%TO.P,C2,2*%
%TO.N,Net-(C2-Pad2)*%
X45544929Y-94334529D03*
X47144929Y-93663592D03*
%TD*%
%TO.P,R4,1*%
%TO.N,In r*%
X35860000Y-97988533D03*
D13*
%TO.P,R4,2*%
%TO.N,Net-(C2-Pad2)*%
X43480000Y-97988533D03*
%TD*%
D18*
%TO.P,J2,1,Pin_1*%
%TO.N,In L*%
X27823971Y-93031796D03*
D19*
%TO.P,J2,2,Pin_2*%
%TO.N,GND*%
X30363971Y-93031796D03*
%TO.P,J2,3,Pin_3*%
X32903971Y-93031796D03*
%TO.P,J2,4,Pin_4*%
%TO.N,In r*%
X35443971Y-93031796D03*
%TD*%
D14*
%TO.P,C11,1*%
%TO.N,Net-(C11-Pad1)*%
X64970000Y-107425001D03*
%TO.P,C11,2*%
%TO.N,Net-(C11-Pad2)*%
X64970000Y-99925001D03*
%TD*%
D12*
%TO.P,R7,1*%
%TO.N,Net-(C10-Pad1)*%
X54449858Y-65335001D03*
D13*
%TO.P,R7,2*%
%TO.N,Net-(C3-Pad1)*%
X54449858Y-72955001D03*
%TD*%
D12*
%TO.P,R10,1*%
%TO.N,Net-(C11-Pad2)*%
X69620000Y-99865001D03*
D13*
%TO.P,R10,2*%
%TO.N,Net-(C11-Pad1)*%
X69620000Y-107485001D03*
%TD*%
D14*
%TO.P,C8,1*%
%TO.N,Net-(C3-Pad1)*%
X59122464Y-72895001D03*
%TO.P,C8,2*%
%TO.N,Net-(C10-Pad1)*%
X59122464Y-65395001D03*
%TD*%
%TO.P,RCA 4LEG,1*%
%TO.N,Out R*%
X88845000Y-101000001D03*
%TO.P,RCA 4LEG,2*%
%TO.N,GND*%
X88845000Y-98500001D03*
D15*
X93945000Y-106050001D03*
X93945000Y-95950001D03*
%TD*%
D14*
%TO.P,C10,1*%
%TO.N,Net-(C10-Pad1)*%
X64970000Y-65374204D03*
%TO.P,C10,2*%
%TO.N,Net-(C10-Pad2)*%
X64970000Y-72874204D03*
%TD*%
%TO.P,RCA 4LEG,1*%
%TO.N,Out L*%
X88845000Y-71799204D03*
D15*
%TO.P,RCA 4LEG,2*%
%TO.N,GND*%
X93945000Y-76849204D03*
X93945000Y-66749204D03*
D14*
X88845000Y-69299204D03*
%TD*%
%TO.P,C5,1*%
%TO.N,Net-(C3-Pad1)*%
X64970000Y-77024204D03*
%TO.P,C5,2*%
%TO.N,Net-(C1-Pad1)*%
X64970000Y-84524204D03*
%TD*%
%TO.P,C14,1*%
%TO.N,Net-(C14-Pad1)*%
X65020000Y-96031269D03*
%TO.P,C14,2*%
%TO.N,Net-(C14-Pad2)*%
X65020000Y-88531269D03*
%TD*%
%TO.P,C9,1*%
%TO.N,Net-(C14-Pad1)*%
X59122464Y-99945798D03*
%TO.P,C9,2*%
%TO.N,Net-(C11-Pad1)*%
X59122464Y-107445798D03*
%TD*%
%TO.P,RCA 4LEG,1*%
%TO.N,In r*%
X33037057Y-103280000D03*
D15*
%TO.P,RCA 4LEG,2*%
%TO.N,GND*%
X27937057Y-98230000D03*
D14*
X33037057Y-105780000D03*
D15*
X27937057Y-108330000D03*
%TD*%
D16*
%TO.P,J1,1,Pin_1*%
%TO.N,/V-*%
X83420000Y-83815001D03*
D17*
%TO.P,J1,2,Pin_2*%
%TO.N,GND*%
X83420000Y-86355001D03*
%TO.P,J1,3,Pin_3*%
%TO.N,/V+*%
X83420000Y-88895001D03*
%TD*%
D14*
%TO.P,C7,1*%
%TO.N,GND*%
X59097394Y-96031269D03*
%TO.P,C7,2*%
%TO.N,Net-(C14-Pad2)*%
X59097394Y-88531269D03*
%TD*%
D12*
%TO.P,R9,1*%
%TO.N,Net-(C10-Pad2)*%
X69620000Y-72934204D03*
D13*
%TO.P,R9,2*%
%TO.N,Net-(C10-Pad1)*%
X69620000Y-65314204D03*
%TD*%
D12*
%TO.P,R8,1*%
%TO.N,Net-(C11-Pad1)*%
X54449858Y-107505798D03*
D13*
%TO.P,R8,2*%
%TO.N,Net-(C14-Pad1)*%
X54449858Y-99885798D03*
%TD*%
D11*
%TO.P,C4,1*%
%TO.N,Net-(C14-Pad1)*%
X48744929Y-101907184D03*
X47144929Y-102578121D03*
D12*
%TO.P,C4,2*%
%TO.N,Net-(C4-Pad2)*%
X45544929Y-105749058D03*
X47144929Y-105078121D03*
%TD*%
%TO.P,R5,1*%
%TO.N,GND*%
X54449858Y-76985001D03*
D13*
%TO.P,R5,2*%
%TO.N,Net-(C1-Pad1)*%
X54449858Y-84605001D03*
%TD*%
D11*
%TO.P,U1,1*%
%TO.N,Net-(C10-Pad2)*%
X77560000Y-82695001D03*
D13*
%TO.P,U1,2,-*%
%TO.N,Net-(C3-Pad1)*%
X75020000Y-82695001D03*
%TO.P,U1,3,+*%
%TO.N,Net-(C1-Pad1)*%
X72480000Y-82695001D03*
%TO.P,U1,4,V-*%
%TO.N,/V-*%
X69940000Y-82695001D03*
%TO.P,U1,5,+*%
%TO.N,Net-(C14-Pad2)*%
X69940000Y-90315001D03*
%TO.P,U1,6,-*%
%TO.N,Net-(C14-Pad1)*%
X72480000Y-90315001D03*
%TO.P,U1,7*%
%TO.N,Net-(C11-Pad2)*%
X75020000Y-90315001D03*
%TO.P,U1,8,V+*%
%TO.N,/V+*%
X77560000Y-90315001D03*
%TD*%
%TA.AperFunction,Conductor*%
%TO.N,GND*%
G36*
X102334121Y-61068002D02*
G01*
X102380614Y-61121658D01*
X102392000Y-61174000D01*
X102392000Y-111646000D01*
X102371998Y-111714121D01*
X102318342Y-111760614D01*
X102266000Y-111772000D01*
X19594000Y-111772000D01*
X19525879Y-111751998D01*
X19479386Y-111698342D01*
X19468000Y-111646000D01*
X19468000Y-108191428D01*
X36960743Y-108191428D01*
X36998268Y-108476459D01*
X36999401Y-108480599D01*
X36999401Y-108480601D01*
X37003332Y-108494970D01*
X37074129Y-108753761D01*
X37075813Y-108757709D01*
X37161656Y-108958963D01*
X37186923Y-109018201D01*
X37334561Y-109264886D01*
X37514313Y-109489253D01*
X37722851Y-109687148D01*
X37956317Y-109854911D01*
X37960112Y-109856920D01*
X37960113Y-109856921D01*
X37981869Y-109868440D01*
X38210392Y-109989437D01*
X38480373Y-110088236D01*
X38761264Y-110149480D01*
X38789841Y-110151729D01*
X38984282Y-110167032D01*
X38984291Y-110167032D01*
X38986739Y-110167225D01*
X39142271Y-110167225D01*
X39144407Y-110167079D01*
X39144418Y-110167079D01*
X39352548Y-110152890D01*
X39352554Y-110152889D01*
X39356825Y-110152598D01*
X39361020Y-110151729D01*
X39361022Y-110151729D01*
X39497584Y-110123448D01*
X39638342Y-110094299D01*
X39909343Y-109998332D01*
X40164812Y-109866475D01*
X40168313Y-109864014D01*
X40168317Y-109864012D01*
X40282417Y-109783821D01*
X40400023Y-109701166D01*
X40610622Y-109505465D01*
X40792713Y-109282993D01*
X40942927Y-109037867D01*
X41009567Y-108886058D01*
X41056757Y-108778555D01*
X41058483Y-108774623D01*
X41074247Y-108719285D01*
X41132220Y-108515767D01*
X41137244Y-108498131D01*
X41177751Y-108213509D01*
X41177845Y-108195676D01*
X41179235Y-107930308D01*
X41179235Y-107930301D01*
X41179257Y-107926022D01*
X41178197Y-107917965D01*
X41150502Y-107707608D01*
X41141732Y-107640991D01*
X41104747Y-107505798D01*
X53136360Y-107505798D01*
X53156315Y-107733885D01*
X53157739Y-107739198D01*
X53157739Y-107739200D01*
X53208579Y-107928934D01*
X53215574Y-107955041D01*
X53217897Y-107960022D01*
X53217897Y-107960023D01*
X53310009Y-108157560D01*
X53310012Y-108157565D01*
X53312335Y-108162547D01*
X53385760Y-108267409D01*
X53429098Y-108329301D01*
X53443660Y-108350098D01*
X53605558Y-108511996D01*
X53610066Y-108515153D01*
X53610069Y-108515155D01*
X53615525Y-108518975D01*
X53793109Y-108643321D01*
X53798091Y-108645644D01*
X53798096Y-108645647D01*
X53956015Y-108719285D01*
X54000615Y-108740082D01*
X54005923Y-108741504D01*
X54005925Y-108741505D01*
X54216456Y-108797917D01*
X54216458Y-108797917D01*
X54221771Y-108799341D01*
X54449858Y-108819296D01*
X54677945Y-108799341D01*
X54683258Y-108797917D01*
X54683260Y-108797917D01*
X54893791Y-108741505D01*
X54893793Y-108741504D01*
X54899101Y-108740082D01*
X54943701Y-108719285D01*
X55101620Y-108645647D01*
X55101625Y-108645644D01*
X55106607Y-108643321D01*
X55284191Y-108518975D01*
X55289647Y-108515155D01*
X55289650Y-108515153D01*
X55294158Y-108511996D01*
X55456056Y-108350098D01*
X55470619Y-108329301D01*
X55513956Y-108267409D01*
X55587381Y-108162547D01*
X55589704Y-108157565D01*
X55589707Y-108157560D01*
X55681819Y-107960023D01*
X55681819Y-107960022D01*
X55684142Y-107955041D01*
X55691138Y-107928934D01*
X55741977Y-107739200D01*
X55741977Y-107739198D01*
X55743401Y-107733885D01*
X55763356Y-107505798D01*
X55758107Y-107445798D01*
X57609299Y-107445798D01*
X57627929Y-107682509D01*
X57629083Y-107687316D01*
X57629084Y-107687322D01*
X57640263Y-107733885D01*
X57683359Y-107913392D01*
X57685252Y-107917963D01*
X57685253Y-107917965D01*
X57767358Y-108116184D01*
X57774224Y-108132761D01*
X57776810Y-108136981D01*
X57895705Y-108331000D01*
X57895709Y-108331006D01*
X57898288Y-108335214D01*
X58052495Y-108515767D01*
X58233048Y-108669974D01*
X58237256Y-108672553D01*
X58237262Y-108672557D01*
X58403819Y-108774623D01*
X58435501Y-108794038D01*
X58440071Y-108795931D01*
X58440075Y-108795933D01*
X58650297Y-108883009D01*
X58654870Y-108884903D01*
X58735073Y-108904158D01*
X58880940Y-108939178D01*
X58880946Y-108939179D01*
X58885753Y-108940333D01*
X59122464Y-108958963D01*
X59359175Y-108940333D01*
X59363982Y-108939179D01*
X59363988Y-108939178D01*
X59509855Y-108904158D01*
X59590058Y-108884903D01*
X59594631Y-108883009D01*
X59804853Y-108795933D01*
X59804857Y-108795931D01*
X59809427Y-108794038D01*
X59841109Y-108774623D01*
X60007666Y-108672557D01*
X60007672Y-108672553D01*
X60011880Y-108669974D01*
X60192433Y-108515767D01*
X60346640Y-108335214D01*
X60349219Y-108331006D01*
X60349223Y-108331000D01*
X60468118Y-108136981D01*
X60470704Y-108132761D01*
X60477571Y-108116184D01*
X60559675Y-107917965D01*
X60559676Y-107917963D01*
X60561569Y-107913392D01*
X60604665Y-107733885D01*
X60615844Y-107687322D01*
X60615845Y-107687316D01*
X60616999Y-107682509D01*
X60635629Y-107445798D01*
X60633992Y-107425001D01*
X63456835Y-107425001D01*
X63475465Y-107661712D01*
X63476619Y-107666519D01*
X63476620Y-107666525D01*
X63492792Y-107733885D01*
X63530895Y-107892595D01*
X63532788Y-107897166D01*
X63532789Y-107897168D01*
X63541404Y-107917965D01*
X63621760Y-108111964D01*
X63624346Y-108116184D01*
X63743241Y-108310203D01*
X63743245Y-108310209D01*
X63745824Y-108314417D01*
X63900031Y-108494970D01*
X64080584Y-108649177D01*
X64084792Y-108651756D01*
X64084798Y-108651760D01*
X64257691Y-108757709D01*
X64283037Y-108773241D01*
X64287607Y-108775134D01*
X64287611Y-108775136D01*
X64394224Y-108819296D01*
X64502406Y-108864106D01*
X64581143Y-108883009D01*
X64728476Y-108918381D01*
X64728482Y-108918382D01*
X64733289Y-108919536D01*
X64970000Y-108938166D01*
X65206711Y-108919536D01*
X65211518Y-108918382D01*
X65211524Y-108918381D01*
X65358857Y-108883009D01*
X65437594Y-108864106D01*
X65545776Y-108819296D01*
X65652389Y-108775136D01*
X65652393Y-108775134D01*
X65656963Y-108773241D01*
X65682309Y-108757709D01*
X65855202Y-108651760D01*
X65855208Y-108651756D01*
X65859416Y-108649177D01*
X66039969Y-108494970D01*
X66194176Y-108314417D01*
X66196755Y-108310209D01*
X66196759Y-108310203D01*
X66315654Y-108116184D01*
X66318240Y-108111964D01*
X66398597Y-107917965D01*
X66407211Y-107897168D01*
X66407212Y-107897166D01*
X66409105Y-107892595D01*
X66447208Y-107733885D01*
X66463380Y-107666525D01*
X66463381Y-107666519D01*
X66464535Y-107661712D01*
X66478443Y-107485001D01*
X68306502Y-107485001D01*
X68326457Y-107713088D01*
X68327881Y-107718401D01*
X68327881Y-107718403D01*
X68382375Y-107921774D01*
X68385716Y-107934244D01*
X68388039Y-107939225D01*
X68388039Y-107939226D01*
X68480151Y-108136763D01*
X68480154Y-108136768D01*
X68482477Y-108141750D01*
X68613802Y-108329301D01*
X68775700Y-108491199D01*
X68780208Y-108494356D01*
X68780211Y-108494358D01*
X68815368Y-108518975D01*
X68963251Y-108622524D01*
X68968233Y-108624847D01*
X68968238Y-108624850D01*
X69165775Y-108716962D01*
X69170757Y-108719285D01*
X69176065Y-108720707D01*
X69176067Y-108720708D01*
X69386598Y-108777120D01*
X69386600Y-108777120D01*
X69391913Y-108778544D01*
X69620000Y-108798499D01*
X69848087Y-108778544D01*
X69853400Y-108777120D01*
X69853402Y-108777120D01*
X70063933Y-108720708D01*
X70063935Y-108720707D01*
X70069243Y-108719285D01*
X70074225Y-108716962D01*
X70271762Y-108624850D01*
X70271767Y-108624847D01*
X70276749Y-108622524D01*
X70424632Y-108518975D01*
X70459789Y-108494358D01*
X70459792Y-108494356D01*
X70464300Y-108491199D01*
X70626198Y-108329301D01*
X70757523Y-108141750D01*
X70759846Y-108136768D01*
X70759849Y-108136763D01*
X70851961Y-107939226D01*
X70851961Y-107939225D01*
X70854284Y-107934244D01*
X70857626Y-107921774D01*
X70912119Y-107718403D01*
X70912119Y-107718401D01*
X70913543Y-107713088D01*
X70933498Y-107485001D01*
X82726502Y-107485001D01*
X82746457Y-107713088D01*
X82747881Y-107718401D01*
X82747881Y-107718403D01*
X82802375Y-107921774D01*
X82805716Y-107934244D01*
X82808039Y-107939225D01*
X82808039Y-107939226D01*
X82900151Y-108136763D01*
X82900154Y-108136768D01*
X82902477Y-108141750D01*
X83033802Y-108329301D01*
X83195700Y-108491199D01*
X83200208Y-108494356D01*
X83200211Y-108494358D01*
X83235368Y-108518975D01*
X83383251Y-108622524D01*
X83388233Y-108624847D01*
X83388238Y-108624850D01*
X83585775Y-108716962D01*
X83590757Y-108719285D01*
X83596065Y-108720707D01*
X83596067Y-108720708D01*
X83806598Y-108777120D01*
X83806600Y-108777120D01*
X83811913Y-108778544D01*
X84040000Y-108798499D01*
X84268087Y-108778544D01*
X84273400Y-108777120D01*
X84273402Y-108777120D01*
X84483933Y-108720708D01*
X84483935Y-108720707D01*
X84489243Y-108719285D01*
X84494225Y-108716962D01*
X84691762Y-108624850D01*
X84691767Y-108624847D01*
X84696749Y-108622524D01*
X84844632Y-108518975D01*
X84879789Y-108494358D01*
X84879792Y-108494356D01*
X84884300Y-108491199D01*
X85046198Y-108329301D01*
X85177523Y-108141750D01*
X85179846Y-108136768D01*
X85179849Y-108136763D01*
X85271961Y-107939226D01*
X85271961Y-107939225D01*
X85274284Y-107934244D01*
X85277626Y-107921774D01*
X85332119Y-107718403D01*
X85332119Y-107718401D01*
X85333543Y-107713088D01*
X85353498Y-107485001D01*
X85333543Y-107256914D01*
X85315155Y-107188290D01*
X85275707Y-107041068D01*
X85275706Y-107041066D01*
X85274284Y-107035758D01*
X85248759Y-106981019D01*
X85179849Y-106833239D01*
X85179846Y-106833234D01*
X85177523Y-106828252D01*
X85063919Y-106666009D01*
X85049357Y-106645212D01*
X85049355Y-106645209D01*
X85046198Y-106640701D01*
X84884300Y-106478803D01*
X84879792Y-106475646D01*
X84879789Y-106475644D01*
X84786489Y-106410315D01*
X84696749Y-106347478D01*
X84691767Y-106345155D01*
X84691762Y-106345152D01*
X84494225Y-106253040D01*
X84494224Y-106253040D01*
X84489243Y-106250717D01*
X84483935Y-106249295D01*
X84483933Y-106249294D01*
X84273402Y-106192882D01*
X84273400Y-106192882D01*
X84268087Y-106191458D01*
X84040000Y-106171503D01*
X83811913Y-106191458D01*
X83806600Y-106192882D01*
X83806598Y-106192882D01*
X83596067Y-106249294D01*
X83596065Y-106249295D01*
X83590757Y-106250717D01*
X83585776Y-106253040D01*
X83585775Y-106253040D01*
X83388238Y-106345152D01*
X83388233Y-106345155D01*
X83383251Y-106347478D01*
X83293511Y-106410315D01*
X83200211Y-106475644D01*
X83200208Y-106475646D01*
X83195700Y-106478803D01*
X83033802Y-106640701D01*
X83030645Y-106645209D01*
X83030643Y-106645212D01*
X83016081Y-106666009D01*
X82902477Y-106828252D01*
X82900154Y-106833234D01*
X82900151Y-106833239D01*
X82831241Y-106981019D01*
X82805716Y-107035758D01*
X82804294Y-107041066D01*
X82804293Y-107041068D01*
X82764845Y-107188290D01*
X82746457Y-107256914D01*
X82726502Y-107485001D01*
X70933498Y-107485001D01*
X70913543Y-107256914D01*
X70895155Y-107188290D01*
X70855707Y-107041068D01*
X70855706Y-107041066D01*
X70854284Y-107035758D01*
X70828759Y-106981019D01*
X70759849Y-106833239D01*
X70759846Y-106833234D01*
X70757523Y-106828252D01*
X70643919Y-106666009D01*
X70629357Y-106645212D01*
X70629355Y-106645209D01*
X70626198Y-106640701D01*
X70464300Y-106478803D01*
X70459792Y-106475646D01*
X70459789Y-106475644D01*
X70366489Y-106410315D01*
X70276749Y-106347478D01*
X70271767Y-106345155D01*
X70271762Y-106345152D01*
X70074225Y-106253040D01*
X70074224Y-106253040D01*
X70069243Y-106250717D01*
X70063935Y-106249295D01*
X70063933Y-106249294D01*
X69853402Y-106192882D01*
X69853400Y-106192882D01*
X69848087Y-106191458D01*
X69620000Y-106171503D01*
X69391913Y-106191458D01*
X69386600Y-106192882D01*
X69386598Y-106192882D01*
X69176067Y-106249294D01*
X69176065Y-106249295D01*
X69170757Y-106250717D01*
X69165776Y-106253040D01*
X69165775Y-106253040D01*
X68968238Y-106345152D01*
X68968233Y-106345155D01*
X68963251Y-106347478D01*
X68873511Y-106410315D01*
X68780211Y-106475644D01*
X68780208Y-106475646D01*
X68775700Y-106478803D01*
X68613802Y-106640701D01*
X68610645Y-106645209D01*
X68610643Y-106645212D01*
X68596081Y-106666009D01*
X68482477Y-106828252D01*
X68480154Y-106833234D01*
X68480151Y-106833239D01*
X68411241Y-106981019D01*
X68385716Y-107035758D01*
X68384294Y-107041066D01*
X68384293Y-107041068D01*
X68344845Y-107188290D01*
X68326457Y-107256914D01*
X68306502Y-107485001D01*
X66478443Y-107485001D01*
X66483165Y-107425001D01*
X66464535Y-107188290D01*
X66409105Y-106957407D01*
X66379768Y-106886581D01*
X66320135Y-106742612D01*
X66320133Y-106742608D01*
X66318240Y-106738038D01*
X66313659Y-106730562D01*
X66196759Y-106539799D01*
X66196755Y-106539793D01*
X66194176Y-106535585D01*
X66039969Y-106355032D01*
X65859416Y-106200825D01*
X65855208Y-106198246D01*
X65855202Y-106198242D01*
X65661183Y-106079347D01*
X65656963Y-106076761D01*
X65652393Y-106074868D01*
X65652389Y-106074866D01*
X65442167Y-105987790D01*
X65442165Y-105987789D01*
X65437594Y-105985896D01*
X65336656Y-105961663D01*
X65211524Y-105931621D01*
X65211518Y-105931620D01*
X65206711Y-105930466D01*
X64970000Y-105911836D01*
X64733289Y-105930466D01*
X64728482Y-105931620D01*
X64728476Y-105931621D01*
X64603344Y-105961663D01*
X64502406Y-105985896D01*
X64497835Y-105987789D01*
X64497833Y-105987790D01*
X64287611Y-106074866D01*
X64287607Y-106074868D01*
X64283037Y-106076761D01*
X64278817Y-106079347D01*
X64084798Y-106198242D01*
X64084792Y-106198246D01*
X64080584Y-106200825D01*
X63900031Y-106355032D01*
X63745824Y-106535585D01*
X63743245Y-106539793D01*
X63743241Y-106539799D01*
X63626341Y-106730562D01*
X63621760Y-106738038D01*
X63619867Y-106742608D01*
X63619865Y-106742612D01*
X63560232Y-106886581D01*
X63530895Y-106957407D01*
X63475465Y-107188290D01*
X63456835Y-107425001D01*
X60633992Y-107425001D01*
X60616999Y-107209087D01*
X60612007Y-107188290D01*
X60572036Y-107021804D01*
X60561569Y-106978204D01*
X60552955Y-106957407D01*
X60472599Y-106763409D01*
X60472597Y-106763405D01*
X60470704Y-106758835D01*
X60466123Y-106751359D01*
X60349223Y-106560596D01*
X60349219Y-106560590D01*
X60346640Y-106556382D01*
X60192433Y-106375829D01*
X60011880Y-106221622D01*
X60007672Y-106219043D01*
X60007666Y-106219039D01*
X59813647Y-106100144D01*
X59809427Y-106097558D01*
X59804857Y-106095665D01*
X59804853Y-106095663D01*
X59594631Y-106008587D01*
X59594629Y-106008586D01*
X59590058Y-106006693D01*
X59489120Y-105982460D01*
X59363988Y-105952418D01*
X59363982Y-105952417D01*
X59359175Y-105951263D01*
X59122464Y-105932633D01*
X58885753Y-105951263D01*
X58880946Y-105952417D01*
X58880940Y-105952418D01*
X58755808Y-105982460D01*
X58654870Y-106006693D01*
X58650299Y-106008586D01*
X58650297Y-106008587D01*
X58440075Y-106095663D01*
X58440071Y-106095665D01*
X58435501Y-106097558D01*
X58431281Y-106100144D01*
X58237262Y-106219039D01*
X58237256Y-106219043D01*
X58233048Y-106221622D01*
X58052495Y-106375829D01*
X57898288Y-106556382D01*
X57895709Y-106560590D01*
X57895705Y-106560596D01*
X57778805Y-106751359D01*
X57774224Y-106758835D01*
X57772331Y-106763405D01*
X57772329Y-106763409D01*
X57691973Y-106957407D01*
X57683359Y-106978204D01*
X57672892Y-107021804D01*
X57632922Y-107188290D01*
X57627929Y-107209087D01*
X57609299Y-107445798D01*
X55758107Y-107445798D01*
X55743401Y-107277711D01*
X55739297Y-107262394D01*
X55685565Y-107061865D01*
X55685564Y-107061863D01*
X55684142Y-107056555D01*
X55668161Y-107022283D01*
X55589707Y-106854036D01*
X55589704Y-106854031D01*
X55587381Y-106849049D01*
X55456056Y-106661498D01*
X55294158Y-106499600D01*
X55289650Y-106496443D01*
X55289647Y-106496441D01*
X55211469Y-106441700D01*
X55106607Y-106368275D01*
X55101625Y-106365952D01*
X55101620Y-106365949D01*
X54904083Y-106273837D01*
X54904082Y-106273837D01*
X54899101Y-106271514D01*
X54893793Y-106270092D01*
X54893791Y-106270091D01*
X54683260Y-106213679D01*
X54683258Y-106213679D01*
X54677945Y-106212255D01*
X54449858Y-106192300D01*
X54221771Y-106212255D01*
X54216458Y-106213679D01*
X54216456Y-106213679D01*
X54005925Y-106270091D01*
X54005923Y-106270092D01*
X54000615Y-106271514D01*
X53995634Y-106273837D01*
X53995633Y-106273837D01*
X53798096Y-106365949D01*
X53798091Y-106365952D01*
X53793109Y-106368275D01*
X53688247Y-106441700D01*
X53610069Y-106496441D01*
X53610066Y-106496443D01*
X53605558Y-106499600D01*
X53443660Y-106661498D01*
X53312335Y-106849049D01*
X53310012Y-106854031D01*
X53310009Y-106854036D01*
X53231555Y-107022283D01*
X53215574Y-107056555D01*
X53214152Y-107061863D01*
X53214151Y-107061865D01*
X53160419Y-107262394D01*
X53156315Y-107277711D01*
X53136360Y-107505798D01*
X41104747Y-107505798D01*
X41065871Y-107363689D01*
X41055295Y-107338895D01*
X40954763Y-107103201D01*
X40954761Y-107103197D01*
X40953077Y-107099249D01*
X40825798Y-106886581D01*
X40807643Y-106856246D01*
X40807640Y-106856242D01*
X40805439Y-106852564D01*
X40625687Y-106628197D01*
X40472365Y-106482700D01*
X40420258Y-106433252D01*
X40420255Y-106433250D01*
X40417149Y-106430302D01*
X40183683Y-106262539D01*
X40161843Y-106250975D01*
X40095114Y-106215644D01*
X39929608Y-106128013D01*
X39659627Y-106029214D01*
X39378736Y-105967970D01*
X39347685Y-105965526D01*
X39155718Y-105950418D01*
X39155709Y-105950418D01*
X39153261Y-105950225D01*
X38997729Y-105950225D01*
X38995593Y-105950371D01*
X38995582Y-105950371D01*
X38787452Y-105964560D01*
X38787446Y-105964561D01*
X38783175Y-105964852D01*
X38778980Y-105965721D01*
X38778978Y-105965721D01*
X38687134Y-105984741D01*
X38501658Y-106023151D01*
X38230657Y-106119118D01*
X38226848Y-106121084D01*
X38032059Y-106221622D01*
X37975188Y-106250975D01*
X37971687Y-106253436D01*
X37971683Y-106253438D01*
X37920678Y-106289285D01*
X37739977Y-106416284D01*
X37724892Y-106430302D01*
X37567610Y-106576458D01*
X37529378Y-106611985D01*
X37347287Y-106834457D01*
X37197073Y-107079583D01*
X37081517Y-107342827D01*
X37080342Y-107346954D01*
X37080341Y-107346955D01*
X37042577Y-107479526D01*
X37002756Y-107619319D01*
X36999672Y-107640991D01*
X36964549Y-107887783D01*
X36962249Y-107903941D01*
X36962227Y-107908230D01*
X36962226Y-107908237D01*
X36960765Y-108187142D01*
X36960743Y-108191428D01*
X19468000Y-108191428D01*
X19468000Y-105749058D01*
X44231431Y-105749058D01*
X44251386Y-105977145D01*
X44252810Y-105982458D01*
X44252810Y-105982460D01*
X44308874Y-106191690D01*
X44310645Y-106198301D01*
X44312968Y-106203282D01*
X44312968Y-106203283D01*
X44405080Y-106400820D01*
X44405083Y-106400825D01*
X44407406Y-106405807D01*
X44480831Y-106510669D01*
X44524169Y-106572561D01*
X44538731Y-106593358D01*
X44700629Y-106755256D01*
X44705137Y-106758413D01*
X44705140Y-106758415D01*
X44783318Y-106813156D01*
X44888180Y-106886581D01*
X44893162Y-106888904D01*
X44893167Y-106888907D01*
X45084667Y-106978204D01*
X45095686Y-106983342D01*
X45100994Y-106984764D01*
X45100996Y-106984765D01*
X45311527Y-107041177D01*
X45311529Y-107041177D01*
X45316842Y-107042601D01*
X45544929Y-107062556D01*
X45773016Y-107042601D01*
X45778329Y-107041177D01*
X45778331Y-107041177D01*
X45988862Y-106984765D01*
X45988864Y-106984764D01*
X45994172Y-106983342D01*
X46005191Y-106978204D01*
X46196691Y-106888907D01*
X46196696Y-106888904D01*
X46201678Y-106886581D01*
X46306540Y-106813156D01*
X46384718Y-106758415D01*
X46384721Y-106758413D01*
X46389229Y-106755256D01*
X46551127Y-106593358D01*
X46565690Y-106572561D01*
X46628611Y-106482700D01*
X46682452Y-106405807D01*
X46683030Y-106404567D01*
X46733490Y-106356456D01*
X46803204Y-106343021D01*
X46823835Y-106346743D01*
X46911527Y-106370240D01*
X46911529Y-106370240D01*
X46916842Y-106371664D01*
X47144929Y-106391619D01*
X47373016Y-106371664D01*
X47378329Y-106370240D01*
X47378331Y-106370240D01*
X47588862Y-106313828D01*
X47588864Y-106313827D01*
X47594172Y-106312405D01*
X47638772Y-106291608D01*
X47796691Y-106217970D01*
X47796696Y-106217967D01*
X47801678Y-106215644D01*
X47970322Y-106097558D01*
X47984718Y-106087478D01*
X47984721Y-106087476D01*
X47989229Y-106084319D01*
X48151127Y-105922421D01*
X48165690Y-105901624D01*
X48209027Y-105839732D01*
X48282452Y-105734870D01*
X48284775Y-105729888D01*
X48284778Y-105729883D01*
X48285534Y-105728261D01*
X73916502Y-105728261D01*
X73936457Y-105956348D01*
X73937881Y-105961661D01*
X73937881Y-105961663D01*
X73982060Y-106126538D01*
X73995716Y-106177504D01*
X73998039Y-106182485D01*
X73998039Y-106182486D01*
X74090151Y-106380023D01*
X74090154Y-106380028D01*
X74092477Y-106385010D01*
X74223802Y-106572561D01*
X74385700Y-106734459D01*
X74390208Y-106737616D01*
X74390211Y-106737618D01*
X74468389Y-106792359D01*
X74573251Y-106865784D01*
X74578233Y-106868107D01*
X74578238Y-106868110D01*
X74769738Y-106957407D01*
X74780757Y-106962545D01*
X74786065Y-106963967D01*
X74786067Y-106963968D01*
X74996598Y-107020380D01*
X74996600Y-107020380D01*
X75001913Y-107021804D01*
X75230000Y-107041759D01*
X75458087Y-107021804D01*
X75463400Y-107020380D01*
X75463402Y-107020380D01*
X75673933Y-106963968D01*
X75673935Y-106963967D01*
X75679243Y-106962545D01*
X75690262Y-106957407D01*
X75881762Y-106868110D01*
X75881767Y-106868107D01*
X75886749Y-106865784D01*
X75991611Y-106792359D01*
X76069789Y-106737618D01*
X76069792Y-106737616D01*
X76074300Y-106734459D01*
X76236198Y-106572561D01*
X76259139Y-106539799D01*
X76343581Y-106419203D01*
X76367523Y-106385010D01*
X76368101Y-106383770D01*
X76418561Y-106335659D01*
X76488275Y-106322224D01*
X76508906Y-106325946D01*
X76596598Y-106349443D01*
X76596600Y-106349443D01*
X76601913Y-106350867D01*
X76830000Y-106370822D01*
X77058087Y-106350867D01*
X77063400Y-106349443D01*
X77063402Y-106349443D01*
X77273933Y-106293031D01*
X77273935Y-106293030D01*
X77279243Y-106291608D01*
X77284225Y-106289285D01*
X77481762Y-106197173D01*
X77481767Y-106197170D01*
X77486749Y-106194847D01*
X77628398Y-106095663D01*
X77669789Y-106066681D01*
X77669792Y-106066679D01*
X77674300Y-106063522D01*
X77836198Y-105901624D01*
X77967523Y-105714073D01*
X77969846Y-105709091D01*
X77969849Y-105709086D01*
X78061961Y-105511549D01*
X78061961Y-105511548D01*
X78064284Y-105506567D01*
X78117971Y-105306208D01*
X78122119Y-105290726D01*
X78122119Y-105290724D01*
X78123543Y-105285411D01*
X78143498Y-105057324D01*
X78123543Y-104829237D01*
X78122119Y-104823922D01*
X78065707Y-104613391D01*
X78065706Y-104613389D01*
X78064284Y-104608081D01*
X78015833Y-104504176D01*
X77969849Y-104405562D01*
X77969846Y-104405557D01*
X77967523Y-104400575D01*
X77853919Y-104238332D01*
X77839357Y-104217535D01*
X77839355Y-104217532D01*
X77836198Y-104213024D01*
X77690498Y-104067324D01*
X77656472Y-104005012D01*
X77661537Y-103934197D01*
X77704084Y-103877361D01*
X77740737Y-103860192D01*
X77740316Y-103859069D01*
X77868297Y-103811091D01*
X77876705Y-103807939D01*
X77993261Y-103720585D01*
X78080615Y-103604029D01*
X78131745Y-103467640D01*
X78138500Y-103405458D01*
X78138500Y-103320887D01*
X78158502Y-103252766D01*
X78212158Y-103206273D01*
X78264500Y-103194887D01*
X79278134Y-103194887D01*
X79340316Y-103188132D01*
X79476705Y-103137002D01*
X79593261Y-103049648D01*
X79680615Y-102933092D01*
X79731745Y-102796703D01*
X79738500Y-102734521D01*
X79738500Y-101038253D01*
X79731745Y-100976071D01*
X79680615Y-100839682D01*
X79593261Y-100723126D01*
X79476705Y-100635772D01*
X79340316Y-100584642D01*
X79278134Y-100577887D01*
X77581866Y-100577887D01*
X77519684Y-100584642D01*
X77383295Y-100635772D01*
X77266739Y-100723126D01*
X77179385Y-100839682D01*
X77128255Y-100976071D01*
X77121500Y-101038253D01*
X77121500Y-101122824D01*
X77101498Y-101190945D01*
X77047842Y-101237438D01*
X76995500Y-101248824D01*
X75981866Y-101248824D01*
X75919684Y-101255579D01*
X75783295Y-101306709D01*
X75666739Y-101394063D01*
X75579385Y-101510619D01*
X75528255Y-101647008D01*
X75521500Y-101709190D01*
X75521500Y-103405458D01*
X75528255Y-103467640D01*
X75579385Y-103604029D01*
X75666739Y-103720585D01*
X75783295Y-103807939D01*
X75791703Y-103811091D01*
X75919684Y-103859069D01*
X75918954Y-103861015D01*
X75971205Y-103890869D01*
X76004021Y-103953827D01*
X75997591Y-104024531D01*
X75969502Y-104067324D01*
X75823802Y-104213024D01*
X75820645Y-104217532D01*
X75820643Y-104217535D01*
X75806081Y-104238332D01*
X75692477Y-104400575D01*
X75691899Y-104401815D01*
X75641439Y-104449926D01*
X75571725Y-104463361D01*
X75551094Y-104459639D01*
X75463402Y-104436142D01*
X75463400Y-104436142D01*
X75458087Y-104434718D01*
X75230000Y-104414763D01*
X75001913Y-104434718D01*
X74996600Y-104436142D01*
X74996598Y-104436142D01*
X74786067Y-104492554D01*
X74786065Y-104492555D01*
X74780757Y-104493977D01*
X74775776Y-104496300D01*
X74775775Y-104496300D01*
X74578238Y-104588412D01*
X74578233Y-104588415D01*
X74573251Y-104590738D01*
X74511198Y-104634188D01*
X74390211Y-104718904D01*
X74390208Y-104718906D01*
X74385700Y-104722063D01*
X74223802Y-104883961D01*
X74220645Y-104888469D01*
X74220643Y-104888472D01*
X74206081Y-104909269D01*
X74092477Y-105071512D01*
X74090154Y-105076494D01*
X74090151Y-105076499D01*
X73998039Y-105274036D01*
X73995716Y-105279018D01*
X73994294Y-105284326D01*
X73994293Y-105284328D01*
X73988430Y-105306208D01*
X73936457Y-105500174D01*
X73916502Y-105728261D01*
X48285534Y-105728261D01*
X48376890Y-105532346D01*
X48376890Y-105532345D01*
X48379213Y-105527364D01*
X48386209Y-105501257D01*
X48437048Y-105311523D01*
X48437048Y-105311521D01*
X48438472Y-105306208D01*
X48458427Y-105078121D01*
X48438472Y-104850034D01*
X48434368Y-104834717D01*
X48380636Y-104634188D01*
X48380635Y-104634186D01*
X48379213Y-104628878D01*
X48326006Y-104514774D01*
X48284778Y-104426359D01*
X48284775Y-104426354D01*
X48282452Y-104421372D01*
X48151127Y-104233821D01*
X48005427Y-104088121D01*
X47971401Y-104025809D01*
X47976466Y-103954994D01*
X48019013Y-103898158D01*
X48055666Y-103880989D01*
X48055245Y-103879866D01*
X48183226Y-103831888D01*
X48191634Y-103828736D01*
X48308190Y-103741382D01*
X48395544Y-103624826D01*
X48446674Y-103488437D01*
X48453429Y-103426255D01*
X48453429Y-103341684D01*
X48473431Y-103273563D01*
X48527087Y-103227070D01*
X48579429Y-103215684D01*
X49593063Y-103215684D01*
X49655245Y-103208929D01*
X49791634Y-103157799D01*
X49908190Y-103070445D01*
X49995544Y-102953889D01*
X50046674Y-102817500D01*
X50053429Y-102755318D01*
X50053429Y-101059050D01*
X50046674Y-100996868D01*
X49995544Y-100860479D01*
X49908190Y-100743923D01*
X49791634Y-100656569D01*
X49655245Y-100605439D01*
X49593063Y-100598684D01*
X47896795Y-100598684D01*
X47834613Y-100605439D01*
X47698224Y-100656569D01*
X47581668Y-100743923D01*
X47494314Y-100860479D01*
X47443184Y-100996868D01*
X47436429Y-101059050D01*
X47436429Y-101143621D01*
X47416427Y-101211742D01*
X47362771Y-101258235D01*
X47310429Y-101269621D01*
X46296795Y-101269621D01*
X46234613Y-101276376D01*
X46098224Y-101327506D01*
X45981668Y-101414860D01*
X45894314Y-101531416D01*
X45843184Y-101667805D01*
X45836429Y-101729987D01*
X45836429Y-103426255D01*
X45843184Y-103488437D01*
X45894314Y-103624826D01*
X45981668Y-103741382D01*
X46098224Y-103828736D01*
X46106632Y-103831888D01*
X46234613Y-103879866D01*
X46233883Y-103881812D01*
X46286134Y-103911666D01*
X46318950Y-103974624D01*
X46312520Y-104045328D01*
X46284431Y-104088121D01*
X46138731Y-104233821D01*
X46007406Y-104421372D01*
X46006828Y-104422612D01*
X45956368Y-104470723D01*
X45886654Y-104484158D01*
X45866023Y-104480436D01*
X45778331Y-104456939D01*
X45778329Y-104456939D01*
X45773016Y-104455515D01*
X45544929Y-104435560D01*
X45316842Y-104455515D01*
X45311529Y-104456939D01*
X45311527Y-104456939D01*
X45100996Y-104513351D01*
X45100994Y-104513352D01*
X45095686Y-104514774D01*
X45090705Y-104517097D01*
X45090704Y-104517097D01*
X44893167Y-104609209D01*
X44893162Y-104609212D01*
X44888180Y-104611535D01*
X44783318Y-104684960D01*
X44705140Y-104739701D01*
X44705137Y-104739703D01*
X44700629Y-104742860D01*
X44538731Y-104904758D01*
X44407406Y-105092309D01*
X44405083Y-105097291D01*
X44405080Y-105097296D01*
X44322666Y-105274036D01*
X44310645Y-105299815D01*
X44309223Y-105305123D01*
X44309222Y-105305125D01*
X44252810Y-105515656D01*
X44251386Y-105520971D01*
X44231431Y-105749058D01*
X19468000Y-105749058D01*
X19468000Y-103280000D01*
X31523892Y-103280000D01*
X31542522Y-103516711D01*
X31543676Y-103521518D01*
X31543677Y-103521524D01*
X31563485Y-103604029D01*
X31597952Y-103747594D01*
X31599845Y-103752165D01*
X31599846Y-103752167D01*
X31653547Y-103881812D01*
X31688817Y-103966963D01*
X31691403Y-103971183D01*
X31810298Y-104165202D01*
X31810302Y-104165208D01*
X31812881Y-104169416D01*
X31967088Y-104349969D01*
X32147641Y-104504176D01*
X32151849Y-104506755D01*
X32151855Y-104506759D01*
X32319038Y-104609209D01*
X32350094Y-104628240D01*
X32354664Y-104630133D01*
X32354668Y-104630135D01*
X32564890Y-104717211D01*
X32569463Y-104719105D01*
X32649666Y-104738360D01*
X32795533Y-104773380D01*
X32795539Y-104773381D01*
X32800346Y-104774535D01*
X33037057Y-104793165D01*
X33273768Y-104774535D01*
X33278575Y-104773381D01*
X33278581Y-104773380D01*
X33424448Y-104738360D01*
X33504651Y-104719105D01*
X33509224Y-104717211D01*
X33719446Y-104630135D01*
X33719450Y-104630133D01*
X33724020Y-104628240D01*
X33755076Y-104609209D01*
X33922259Y-104506759D01*
X33922265Y-104506755D01*
X33926473Y-104504176D01*
X34107026Y-104349969D01*
X34261233Y-104169416D01*
X34263812Y-104165208D01*
X34263816Y-104165202D01*
X34382711Y-103971183D01*
X34385297Y-103966963D01*
X34420568Y-103881812D01*
X34474268Y-103752167D01*
X34474269Y-103752165D01*
X34476162Y-103747594D01*
X34510629Y-103604029D01*
X34530437Y-103521524D01*
X34530438Y-103521518D01*
X34531592Y-103516711D01*
X34550222Y-103280000D01*
X34531592Y-103043289D01*
X34508111Y-102945481D01*
X34477317Y-102817218D01*
X34476162Y-102812406D01*
X34474268Y-102807833D01*
X34387192Y-102597611D01*
X34387190Y-102597607D01*
X34385297Y-102593037D01*
X34325173Y-102494924D01*
X34263816Y-102394798D01*
X34263812Y-102394792D01*
X34261233Y-102390584D01*
X34107026Y-102210031D01*
X33926473Y-102055824D01*
X33922265Y-102053245D01*
X33922259Y-102053241D01*
X33728240Y-101934346D01*
X33724020Y-101931760D01*
X33719450Y-101929867D01*
X33719446Y-101929865D01*
X33509224Y-101842789D01*
X33509222Y-101842788D01*
X33504651Y-101840895D01*
X33424448Y-101821640D01*
X33278581Y-101786620D01*
X33278575Y-101786619D01*
X33273768Y-101785465D01*
X33037057Y-101766835D01*
X32800346Y-101785465D01*
X32795539Y-101786619D01*
X32795533Y-101786620D01*
X32649666Y-101821640D01*
X32569463Y-101840895D01*
X32564892Y-101842788D01*
X32564890Y-101842789D01*
X32354668Y-101929865D01*
X32354664Y-101929867D01*
X32350094Y-101931760D01*
X32345874Y-101934346D01*
X32151855Y-102053241D01*
X32151849Y-102053245D01*
X32147641Y-102055824D01*
X31967088Y-102210031D01*
X31812881Y-102390584D01*
X31810302Y-102394792D01*
X31810298Y-102394798D01*
X31748941Y-102494924D01*
X31688817Y-102593037D01*
X31686924Y-102597607D01*
X31686922Y-102597611D01*
X31599846Y-102807833D01*
X31597952Y-102812406D01*
X31596797Y-102817218D01*
X31566004Y-102945481D01*
X31542522Y-103043289D01*
X31523892Y-103280000D01*
X19468000Y-103280000D01*
X19468000Y-99885798D01*
X53136360Y-99885798D01*
X53156315Y-100113885D01*
X53157739Y-100119198D01*
X53157739Y-100119200D01*
X53208579Y-100308934D01*
X53215574Y-100335041D01*
X53217897Y-100340022D01*
X53217897Y-100340023D01*
X53310009Y-100537560D01*
X53310012Y-100537565D01*
X53312335Y-100542547D01*
X53363896Y-100616184D01*
X53429098Y-100709301D01*
X53443660Y-100730098D01*
X53605558Y-100891996D01*
X53610066Y-100895153D01*
X53610069Y-100895155D01*
X53688247Y-100949896D01*
X53793109Y-101023321D01*
X53798091Y-101025644D01*
X53798096Y-101025647D01*
X53956015Y-101099285D01*
X54000615Y-101120082D01*
X54005923Y-101121504D01*
X54005925Y-101121505D01*
X54216456Y-101177917D01*
X54216458Y-101177917D01*
X54221771Y-101179341D01*
X54449858Y-101199296D01*
X54677945Y-101179341D01*
X54683258Y-101177917D01*
X54683260Y-101177917D01*
X54893791Y-101121505D01*
X54893793Y-101121504D01*
X54899101Y-101120082D01*
X54943701Y-101099285D01*
X55101620Y-101025647D01*
X55101625Y-101025644D01*
X55106607Y-101023321D01*
X55211469Y-100949896D01*
X55289647Y-100895155D01*
X55289650Y-100895153D01*
X55294158Y-100891996D01*
X55456056Y-100730098D01*
X55470619Y-100709301D01*
X55535820Y-100616184D01*
X55587381Y-100542547D01*
X55589704Y-100537565D01*
X55589707Y-100537560D01*
X55681819Y-100340023D01*
X55681819Y-100340022D01*
X55684142Y-100335041D01*
X55691138Y-100308934D01*
X55741977Y-100119200D01*
X55741977Y-100119198D01*
X55743401Y-100113885D01*
X55758107Y-99945798D01*
X57609299Y-99945798D01*
X57627929Y-100182509D01*
X57683359Y-100413392D01*
X57685252Y-100417963D01*
X57685253Y-100417965D01*
X57767358Y-100616184D01*
X57774224Y-100632761D01*
X57776810Y-100636981D01*
X57895705Y-100831000D01*
X57895709Y-100831006D01*
X57898288Y-100835214D01*
X58052495Y-101015767D01*
X58233048Y-101169974D01*
X58237256Y-101172553D01*
X58237262Y-101172557D01*
X58404656Y-101275136D01*
X58435501Y-101294038D01*
X58440071Y-101295931D01*
X58440075Y-101295933D01*
X58650297Y-101383009D01*
X58654870Y-101384903D01*
X58722931Y-101401243D01*
X58880940Y-101439178D01*
X58880946Y-101439179D01*
X58885753Y-101440333D01*
X59122464Y-101458963D01*
X59359175Y-101440333D01*
X59363982Y-101439179D01*
X59363988Y-101439178D01*
X59521997Y-101401243D01*
X59590058Y-101384903D01*
X59594631Y-101383009D01*
X59804853Y-101295933D01*
X59804857Y-101295931D01*
X59809427Y-101294038D01*
X59840272Y-101275136D01*
X60007666Y-101172557D01*
X60007672Y-101172553D01*
X60011880Y-101169974D01*
X60192433Y-101015767D01*
X60346640Y-100835214D01*
X60349219Y-100831006D01*
X60349223Y-100831000D01*
X60468118Y-100636981D01*
X60470704Y-100632761D01*
X60477571Y-100616184D01*
X60559675Y-100417965D01*
X60559676Y-100417963D01*
X60561569Y-100413392D01*
X60616999Y-100182509D01*
X60635629Y-99945798D01*
X60633992Y-99925001D01*
X63456835Y-99925001D01*
X63475465Y-100161712D01*
X63476619Y-100166519D01*
X63476620Y-100166525D01*
X63481613Y-100187322D01*
X63530895Y-100392595D01*
X63532788Y-100397166D01*
X63532789Y-100397168D01*
X63610090Y-100583789D01*
X63621760Y-100611964D01*
X63624346Y-100616184D01*
X63743241Y-100810203D01*
X63743245Y-100810209D01*
X63745824Y-100814417D01*
X63900031Y-100994970D01*
X63903787Y-100998178D01*
X63908876Y-101002524D01*
X64080584Y-101149177D01*
X64084792Y-101151756D01*
X64084798Y-101151760D01*
X64258742Y-101258353D01*
X64283037Y-101273241D01*
X64287607Y-101275134D01*
X64287611Y-101275136D01*
X64414045Y-101327506D01*
X64502406Y-101364106D01*
X64581143Y-101383009D01*
X64728476Y-101418381D01*
X64728482Y-101418382D01*
X64733289Y-101419536D01*
X64970000Y-101438166D01*
X65206711Y-101419536D01*
X65211518Y-101418382D01*
X65211524Y-101418381D01*
X65358857Y-101383009D01*
X65437594Y-101364106D01*
X65525955Y-101327506D01*
X65652389Y-101275136D01*
X65652393Y-101275134D01*
X65656963Y-101273241D01*
X65681258Y-101258353D01*
X65855202Y-101151760D01*
X65855208Y-101151756D01*
X65859416Y-101149177D01*
X66031124Y-101002524D01*
X66036213Y-100998178D01*
X66039969Y-100994970D01*
X66194176Y-100814417D01*
X66196755Y-100810209D01*
X66196759Y-100810203D01*
X66315654Y-100616184D01*
X66318240Y-100611964D01*
X66329911Y-100583789D01*
X66407211Y-100397168D01*
X66407212Y-100397166D01*
X66409105Y-100392595D01*
X66458387Y-100187322D01*
X66463380Y-100166525D01*
X66463381Y-100166519D01*
X66464535Y-100161712D01*
X66483165Y-99925001D01*
X66478443Y-99865001D01*
X68306502Y-99865001D01*
X68326457Y-100093088D01*
X68327881Y-100098401D01*
X68327881Y-100098403D01*
X68346135Y-100166525D01*
X68385716Y-100314244D01*
X68388039Y-100319225D01*
X68388039Y-100319226D01*
X68480151Y-100516763D01*
X68480154Y-100516768D01*
X68482477Y-100521750D01*
X68500196Y-100547055D01*
X68576879Y-100656569D01*
X68613802Y-100709301D01*
X68775700Y-100871199D01*
X68780208Y-100874356D01*
X68780211Y-100874358D01*
X68858389Y-100929099D01*
X68963251Y-101002524D01*
X68968233Y-101004847D01*
X68968238Y-101004850D01*
X69165775Y-101096962D01*
X69170757Y-101099285D01*
X69176065Y-101100707D01*
X69176067Y-101100708D01*
X69386598Y-101157120D01*
X69386600Y-101157120D01*
X69391913Y-101158544D01*
X69620000Y-101178499D01*
X69848087Y-101158544D01*
X69853400Y-101157120D01*
X69853402Y-101157120D01*
X70063933Y-101100708D01*
X70063935Y-101100707D01*
X70069243Y-101099285D01*
X70074225Y-101096962D01*
X70271762Y-101004850D01*
X70271767Y-101004847D01*
X70276749Y-101002524D01*
X70381611Y-100929099D01*
X70459789Y-100874358D01*
X70459792Y-100874356D01*
X70464300Y-100871199D01*
X70626198Y-100709301D01*
X70663122Y-100656569D01*
X70739804Y-100547055D01*
X70757523Y-100521750D01*
X70759846Y-100516768D01*
X70759849Y-100516763D01*
X70851961Y-100319226D01*
X70851961Y-100319225D01*
X70854284Y-100314244D01*
X70893866Y-100166525D01*
X70912119Y-100098403D01*
X70912119Y-100098401D01*
X70913543Y-100093088D01*
X70933498Y-99865001D01*
X82726502Y-99865001D01*
X82746457Y-100093088D01*
X82747881Y-100098401D01*
X82747881Y-100098403D01*
X82766135Y-100166525D01*
X82805716Y-100314244D01*
X82808039Y-100319225D01*
X82808039Y-100319226D01*
X82900151Y-100516763D01*
X82900154Y-100516768D01*
X82902477Y-100521750D01*
X82920196Y-100547055D01*
X82996879Y-100656569D01*
X83033802Y-100709301D01*
X83195700Y-100871199D01*
X83200208Y-100874356D01*
X83200211Y-100874358D01*
X83278389Y-100929099D01*
X83383251Y-101002524D01*
X83388233Y-101004847D01*
X83388238Y-101004850D01*
X83585775Y-101096962D01*
X83590757Y-101099285D01*
X83596065Y-101100707D01*
X83596067Y-101100708D01*
X83806598Y-101157120D01*
X83806600Y-101157120D01*
X83811913Y-101158544D01*
X84040000Y-101178499D01*
X84268087Y-101158544D01*
X84273400Y-101157120D01*
X84273402Y-101157120D01*
X84483933Y-101100708D01*
X84483935Y-101100707D01*
X84489243Y-101099285D01*
X84494225Y-101096962D01*
X84691762Y-101004850D01*
X84691767Y-101004847D01*
X84696749Y-101002524D01*
X84700352Y-101000001D01*
X87331835Y-101000001D01*
X87350465Y-101236712D01*
X87351619Y-101241519D01*
X87351620Y-101241525D01*
X87381327Y-101365261D01*
X87405895Y-101467595D01*
X87407788Y-101472166D01*
X87407789Y-101472168D01*
X87483464Y-101654864D01*
X87496760Y-101686964D01*
X87499346Y-101691184D01*
X87618241Y-101885203D01*
X87618245Y-101885209D01*
X87620824Y-101889417D01*
X87775031Y-102069970D01*
X87955584Y-102224177D01*
X87959792Y-102226756D01*
X87959798Y-102226760D01*
X88153817Y-102345655D01*
X88158037Y-102348241D01*
X88162607Y-102350134D01*
X88162611Y-102350136D01*
X88270436Y-102394798D01*
X88377406Y-102439106D01*
X88457609Y-102458361D01*
X88603476Y-102493381D01*
X88603482Y-102493382D01*
X88608289Y-102494536D01*
X88845000Y-102513166D01*
X89081711Y-102494536D01*
X89086518Y-102493382D01*
X89086524Y-102493381D01*
X89232391Y-102458361D01*
X89312594Y-102439106D01*
X89419564Y-102394798D01*
X89527389Y-102350136D01*
X89527393Y-102350134D01*
X89531963Y-102348241D01*
X89536183Y-102345655D01*
X89730202Y-102226760D01*
X89730208Y-102226756D01*
X89734416Y-102224177D01*
X89914969Y-102069970D01*
X90069176Y-101889417D01*
X90071755Y-101885209D01*
X90071759Y-101885203D01*
X90190654Y-101691184D01*
X90193240Y-101686964D01*
X90206537Y-101654864D01*
X90282211Y-101472168D01*
X90282212Y-101472166D01*
X90284105Y-101467595D01*
X90308673Y-101365261D01*
X90338380Y-101241525D01*
X90338381Y-101241519D01*
X90339535Y-101236712D01*
X90358165Y-101000001D01*
X90339535Y-100763290D01*
X90336610Y-100751103D01*
X90295024Y-100577887D01*
X90284105Y-100532407D01*
X90228088Y-100397168D01*
X90195135Y-100317612D01*
X90195133Y-100317608D01*
X90193240Y-100313038D01*
X90116201Y-100187322D01*
X90071759Y-100114799D01*
X90071755Y-100114793D01*
X90069176Y-100110585D01*
X89914969Y-99930032D01*
X89909079Y-99925001D01*
X89845238Y-99870476D01*
X89734416Y-99775825D01*
X89730208Y-99773246D01*
X89730202Y-99773242D01*
X89536183Y-99654347D01*
X89531963Y-99651761D01*
X89527393Y-99649868D01*
X89527389Y-99649866D01*
X89317167Y-99562790D01*
X89317165Y-99562789D01*
X89312594Y-99560896D01*
X89232391Y-99541641D01*
X89086524Y-99506621D01*
X89086518Y-99506620D01*
X89081711Y-99505466D01*
X88845000Y-99486836D01*
X88608289Y-99505466D01*
X88603482Y-99506620D01*
X88603476Y-99506621D01*
X88457609Y-99541641D01*
X88377406Y-99560896D01*
X88372835Y-99562789D01*
X88372833Y-99562790D01*
X88162611Y-99649866D01*
X88162607Y-99649868D01*
X88158037Y-99651761D01*
X88153817Y-99654347D01*
X87959798Y-99773242D01*
X87959792Y-99773246D01*
X87955584Y-99775825D01*
X87844762Y-99870476D01*
X87780922Y-99925001D01*
X87775031Y-99930032D01*
X87620824Y-100110585D01*
X87618245Y-100114793D01*
X87618241Y-100114799D01*
X87573799Y-100187322D01*
X87496760Y-100313038D01*
X87494867Y-100317608D01*
X87494865Y-100317612D01*
X87461912Y-100397168D01*
X87405895Y-100532407D01*
X87394976Y-100577887D01*
X87353391Y-100751103D01*
X87350465Y-100763290D01*
X87331835Y-101000001D01*
X84700352Y-101000001D01*
X84801611Y-100929099D01*
X84879789Y-100874358D01*
X84879792Y-100874356D01*
X84884300Y-100871199D01*
X85046198Y-100709301D01*
X85083122Y-100656569D01*
X85159804Y-100547055D01*
X85177523Y-100521750D01*
X85179846Y-100516768D01*
X85179849Y-100516763D01*
X85271961Y-100319226D01*
X85271961Y-100319225D01*
X85274284Y-100314244D01*
X85313866Y-100166525D01*
X85332119Y-100098403D01*
X85332119Y-100098401D01*
X85333543Y-100093088D01*
X85353498Y-99865001D01*
X85333543Y-99636914D01*
X85332119Y-99631599D01*
X85275707Y-99421068D01*
X85275706Y-99421066D01*
X85274284Y-99415758D01*
X85221253Y-99302031D01*
X85179849Y-99213239D01*
X85179846Y-99213234D01*
X85177523Y-99208252D01*
X85063919Y-99046009D01*
X85049357Y-99025212D01*
X85049355Y-99025209D01*
X85046198Y-99020701D01*
X84884300Y-98858803D01*
X84879792Y-98855646D01*
X84879789Y-98855644D01*
X84801611Y-98800903D01*
X84696749Y-98727478D01*
X84691767Y-98725155D01*
X84691762Y-98725152D01*
X84494225Y-98633040D01*
X84494224Y-98633040D01*
X84489243Y-98630717D01*
X84483935Y-98629295D01*
X84483933Y-98629294D01*
X84273402Y-98572882D01*
X84273400Y-98572882D01*
X84268087Y-98571458D01*
X84040000Y-98551503D01*
X83811913Y-98571458D01*
X83806600Y-98572882D01*
X83806598Y-98572882D01*
X83596067Y-98629294D01*
X83596065Y-98629295D01*
X83590757Y-98630717D01*
X83585776Y-98633040D01*
X83585775Y-98633040D01*
X83388238Y-98725152D01*
X83388233Y-98725155D01*
X83383251Y-98727478D01*
X83278389Y-98800903D01*
X83200211Y-98855644D01*
X83200208Y-98855646D01*
X83195700Y-98858803D01*
X83033802Y-99020701D01*
X83030645Y-99025209D01*
X83030643Y-99025212D01*
X83016081Y-99046009D01*
X82902477Y-99208252D01*
X82900154Y-99213234D01*
X82900151Y-99213239D01*
X82858747Y-99302031D01*
X82805716Y-99415758D01*
X82804294Y-99421066D01*
X82804293Y-99421068D01*
X82747881Y-99631599D01*
X82746457Y-99636914D01*
X82726502Y-99865001D01*
X70933498Y-99865001D01*
X70913543Y-99636914D01*
X70912119Y-99631599D01*
X70855707Y-99421068D01*
X70855706Y-99421066D01*
X70854284Y-99415758D01*
X70801253Y-99302031D01*
X70759849Y-99213239D01*
X70759846Y-99213234D01*
X70757523Y-99208252D01*
X70643919Y-99046009D01*
X70629357Y-99025212D01*
X70629355Y-99025209D01*
X70626198Y-99020701D01*
X70464300Y-98858803D01*
X70459792Y-98855646D01*
X70459789Y-98855644D01*
X70381611Y-98800903D01*
X70276749Y-98727478D01*
X70271767Y-98725155D01*
X70271762Y-98725152D01*
X70074225Y-98633040D01*
X70074224Y-98633040D01*
X70069243Y-98630717D01*
X70063935Y-98629295D01*
X70063933Y-98629294D01*
X69853402Y-98572882D01*
X69853400Y-98572882D01*
X69848087Y-98571458D01*
X69620000Y-98551503D01*
X69391913Y-98571458D01*
X69386600Y-98572882D01*
X69386598Y-98572882D01*
X69176067Y-98629294D01*
X69176065Y-98629295D01*
X69170757Y-98630717D01*
X69165776Y-98633040D01*
X69165775Y-98633040D01*
X68968238Y-98725152D01*
X68968233Y-98725155D01*
X68963251Y-98727478D01*
X68858389Y-98800903D01*
X68780211Y-98855644D01*
X68780208Y-98855646D01*
X68775700Y-98858803D01*
X68613802Y-99020701D01*
X68610645Y-99025209D01*
X68610643Y-99025212D01*
X68596081Y-99046009D01*
X68482477Y-99208252D01*
X68480154Y-99213234D01*
X68480151Y-99213239D01*
X68438747Y-99302031D01*
X68385716Y-99415758D01*
X68384294Y-99421066D01*
X68384293Y-99421068D01*
X68327881Y-99631599D01*
X68326457Y-99636914D01*
X68306502Y-99865001D01*
X66478443Y-99865001D01*
X66464535Y-99688290D01*
X66458510Y-99663191D01*
X66410260Y-99462219D01*
X66409105Y-99457407D01*
X66407211Y-99452834D01*
X66320135Y-99242612D01*
X66320133Y-99242608D01*
X66318240Y-99238038D01*
X66297225Y-99203744D01*
X66196759Y-99039799D01*
X66196755Y-99039793D01*
X66194176Y-99035585D01*
X66039969Y-98855032D01*
X65859416Y-98700825D01*
X65855208Y-98698246D01*
X65855202Y-98698242D01*
X65661183Y-98579347D01*
X65656963Y-98576761D01*
X65652393Y-98574868D01*
X65652389Y-98574866D01*
X65442167Y-98487790D01*
X65442165Y-98487789D01*
X65437594Y-98485896D01*
X65357391Y-98466641D01*
X65211524Y-98431621D01*
X65211518Y-98431620D01*
X65206711Y-98430466D01*
X64970000Y-98411836D01*
X64733289Y-98430466D01*
X64728482Y-98431620D01*
X64728476Y-98431621D01*
X64582609Y-98466641D01*
X64502406Y-98485896D01*
X64497835Y-98487789D01*
X64497833Y-98487790D01*
X64287611Y-98574866D01*
X64287607Y-98574868D01*
X64283037Y-98576761D01*
X64278817Y-98579347D01*
X64084798Y-98698242D01*
X64084792Y-98698246D01*
X64080584Y-98700825D01*
X63900031Y-98855032D01*
X63745824Y-99035585D01*
X63743245Y-99039793D01*
X63743241Y-99039799D01*
X63642775Y-99203744D01*
X63621760Y-99238038D01*
X63619867Y-99242608D01*
X63619865Y-99242612D01*
X63532789Y-99452834D01*
X63530895Y-99457407D01*
X63529740Y-99462219D01*
X63481491Y-99663191D01*
X63475465Y-99688290D01*
X63456835Y-99925001D01*
X60633992Y-99925001D01*
X60616999Y-99709087D01*
X60612007Y-99688290D01*
X60568021Y-99505078D01*
X60561569Y-99478204D01*
X60552955Y-99457407D01*
X60472599Y-99263409D01*
X60472597Y-99263405D01*
X60470704Y-99258835D01*
X60468118Y-99254615D01*
X60349223Y-99060596D01*
X60349219Y-99060590D01*
X60346640Y-99056382D01*
X60192433Y-98875829D01*
X60011880Y-98721622D01*
X60007672Y-98719043D01*
X60007666Y-98719039D01*
X59813647Y-98600144D01*
X59809427Y-98597558D01*
X59804857Y-98595665D01*
X59804853Y-98595663D01*
X59594631Y-98508587D01*
X59594629Y-98508586D01*
X59590058Y-98506693D01*
X59498621Y-98484741D01*
X59363988Y-98452418D01*
X59363982Y-98452417D01*
X59359175Y-98451263D01*
X59122464Y-98432633D01*
X58885753Y-98451263D01*
X58880946Y-98452417D01*
X58880940Y-98452418D01*
X58746307Y-98484741D01*
X58654870Y-98506693D01*
X58650299Y-98508586D01*
X58650297Y-98508587D01*
X58440075Y-98595663D01*
X58440071Y-98595665D01*
X58435501Y-98597558D01*
X58431281Y-98600144D01*
X58237262Y-98719039D01*
X58237256Y-98719043D01*
X58233048Y-98721622D01*
X58052495Y-98875829D01*
X57898288Y-99056382D01*
X57895709Y-99060590D01*
X57895705Y-99060596D01*
X57776810Y-99254615D01*
X57774224Y-99258835D01*
X57772331Y-99263405D01*
X57772329Y-99263409D01*
X57691973Y-99457407D01*
X57683359Y-99478204D01*
X57676907Y-99505078D01*
X57632922Y-99688290D01*
X57627929Y-99709087D01*
X57609299Y-99945798D01*
X55758107Y-99945798D01*
X55763356Y-99885798D01*
X55743401Y-99657711D01*
X55739297Y-99642394D01*
X55685565Y-99441865D01*
X55685564Y-99441863D01*
X55684142Y-99436555D01*
X55621413Y-99302031D01*
X55589707Y-99234036D01*
X55589704Y-99234031D01*
X55587381Y-99229049D01*
X55456056Y-99041498D01*
X55294158Y-98879600D01*
X55289650Y-98876443D01*
X55289647Y-98876441D01*
X55211469Y-98821700D01*
X55106607Y-98748275D01*
X55101625Y-98745952D01*
X55101620Y-98745949D01*
X54904083Y-98653837D01*
X54904082Y-98653837D01*
X54899101Y-98651514D01*
X54893793Y-98650092D01*
X54893791Y-98650091D01*
X54683260Y-98593679D01*
X54683258Y-98593679D01*
X54677945Y-98592255D01*
X54449858Y-98572300D01*
X54221771Y-98592255D01*
X54216458Y-98593679D01*
X54216456Y-98593679D01*
X54005925Y-98650091D01*
X54005923Y-98650092D01*
X54000615Y-98651514D01*
X53995634Y-98653837D01*
X53995633Y-98653837D01*
X53798096Y-98745949D01*
X53798091Y-98745952D01*
X53793109Y-98748275D01*
X53688247Y-98821700D01*
X53610069Y-98876441D01*
X53610066Y-98876443D01*
X53605558Y-98879600D01*
X53443660Y-99041498D01*
X53312335Y-99229049D01*
X53310012Y-99234031D01*
X53310009Y-99234036D01*
X53278303Y-99302031D01*
X53215574Y-99436555D01*
X53214152Y-99441863D01*
X53214151Y-99441865D01*
X53160419Y-99642394D01*
X53156315Y-99657711D01*
X53136360Y-99885798D01*
X19468000Y-99885798D01*
X19468000Y-97988533D01*
X34546502Y-97988533D01*
X34566457Y-98216620D01*
X34625716Y-98437776D01*
X34628039Y-98442757D01*
X34628039Y-98442758D01*
X34720151Y-98640295D01*
X34720154Y-98640300D01*
X34722477Y-98645282D01*
X34853802Y-98832833D01*
X35015700Y-98994731D01*
X35020208Y-98997888D01*
X35020211Y-98997890D01*
X35082490Y-99041498D01*
X35203251Y-99126056D01*
X35208233Y-99128379D01*
X35208238Y-99128382D01*
X35405775Y-99220494D01*
X35410757Y-99222817D01*
X35416065Y-99224239D01*
X35416067Y-99224240D01*
X35626598Y-99280652D01*
X35626600Y-99280652D01*
X35631913Y-99282076D01*
X35860000Y-99302031D01*
X36088087Y-99282076D01*
X36093400Y-99280652D01*
X36093402Y-99280652D01*
X36303933Y-99224240D01*
X36303935Y-99224239D01*
X36309243Y-99222817D01*
X36314225Y-99220494D01*
X36511762Y-99128382D01*
X36511767Y-99128379D01*
X36516749Y-99126056D01*
X36637510Y-99041498D01*
X36699789Y-98997890D01*
X36699792Y-98997888D01*
X36704300Y-98994731D01*
X36866198Y-98832833D01*
X36997523Y-98645282D01*
X36999846Y-98640300D01*
X36999849Y-98640295D01*
X37091961Y-98442758D01*
X37091961Y-98442757D01*
X37094284Y-98437776D01*
X37153543Y-98216620D01*
X37173498Y-97988533D01*
X42166502Y-97988533D01*
X42186457Y-98216620D01*
X42245716Y-98437776D01*
X42248039Y-98442757D01*
X42248039Y-98442758D01*
X42340151Y-98640295D01*
X42340154Y-98640300D01*
X42342477Y-98645282D01*
X42473802Y-98832833D01*
X42635700Y-98994731D01*
X42640208Y-98997888D01*
X42640211Y-98997890D01*
X42702490Y-99041498D01*
X42823251Y-99126056D01*
X42828233Y-99128379D01*
X42828238Y-99128382D01*
X43025775Y-99220494D01*
X43030757Y-99222817D01*
X43036065Y-99224239D01*
X43036067Y-99224240D01*
X43246598Y-99280652D01*
X43246600Y-99280652D01*
X43251913Y-99282076D01*
X43480000Y-99302031D01*
X43708087Y-99282076D01*
X43713400Y-99280652D01*
X43713402Y-99280652D01*
X43923933Y-99224240D01*
X43923935Y-99224239D01*
X43929243Y-99222817D01*
X43934225Y-99220494D01*
X44131762Y-99128382D01*
X44131767Y-99128379D01*
X44136749Y-99126056D01*
X44257510Y-99041498D01*
X44319789Y-98997890D01*
X44319792Y-98997888D01*
X44324300Y-98994731D01*
X44486198Y-98832833D01*
X44617523Y-98645282D01*
X44619846Y-98640300D01*
X44619849Y-98640295D01*
X44711961Y-98442758D01*
X44711961Y-98442757D01*
X44714284Y-98437776D01*
X44773543Y-98216620D01*
X44793498Y-97988533D01*
X44773543Y-97760446D01*
X44714284Y-97539290D01*
X44708176Y-97526192D01*
X44619849Y-97336771D01*
X44619846Y-97336766D01*
X44617523Y-97331784D01*
X44486198Y-97144233D01*
X44324300Y-96982335D01*
X44319792Y-96979178D01*
X44319789Y-96979176D01*
X44230237Y-96916471D01*
X44136749Y-96851010D01*
X44131767Y-96848687D01*
X44131762Y-96848684D01*
X43934225Y-96756572D01*
X43934224Y-96756572D01*
X43929243Y-96754249D01*
X43923935Y-96752827D01*
X43923933Y-96752826D01*
X43713402Y-96696414D01*
X43713400Y-96696414D01*
X43708087Y-96694990D01*
X43480000Y-96675035D01*
X43251913Y-96694990D01*
X43246600Y-96696414D01*
X43246598Y-96696414D01*
X43036067Y-96752826D01*
X43036065Y-96752827D01*
X43030757Y-96754249D01*
X43025776Y-96756572D01*
X43025775Y-96756572D01*
X42828238Y-96848684D01*
X42828233Y-96848687D01*
X42823251Y-96851010D01*
X42729763Y-96916471D01*
X42640211Y-96979176D01*
X42640208Y-96979178D01*
X42635700Y-96982335D01*
X42473802Y-97144233D01*
X42342477Y-97331784D01*
X42340154Y-97336766D01*
X42340151Y-97336771D01*
X42251824Y-97526192D01*
X42245716Y-97539290D01*
X42186457Y-97760446D01*
X42166502Y-97988533D01*
X37173498Y-97988533D01*
X37153543Y-97760446D01*
X37094284Y-97539290D01*
X37088176Y-97526192D01*
X36999849Y-97336771D01*
X36999846Y-97336766D01*
X36997523Y-97331784D01*
X36866198Y-97144233D01*
X36704300Y-96982335D01*
X36699792Y-96979178D01*
X36699789Y-96979176D01*
X36610237Y-96916471D01*
X36516749Y-96851010D01*
X36511767Y-96848687D01*
X36511762Y-96848684D01*
X36314225Y-96756572D01*
X36314224Y-96756572D01*
X36309243Y-96754249D01*
X36303935Y-96752827D01*
X36303933Y-96752826D01*
X36093402Y-96696414D01*
X36093400Y-96696414D01*
X36088087Y-96694990D01*
X35860000Y-96675035D01*
X35631913Y-96694990D01*
X35626600Y-96696414D01*
X35626598Y-96696414D01*
X35416067Y-96752826D01*
X35416065Y-96752827D01*
X35410757Y-96754249D01*
X35405776Y-96756572D01*
X35405775Y-96756572D01*
X35208238Y-96848684D01*
X35208233Y-96848687D01*
X35203251Y-96851010D01*
X35109763Y-96916471D01*
X35020211Y-96979176D01*
X35020208Y-96979178D01*
X35015700Y-96982335D01*
X34853802Y-97144233D01*
X34722477Y-97331784D01*
X34720154Y-97336766D01*
X34720151Y-97336771D01*
X34631824Y-97526192D01*
X34625716Y-97539290D01*
X34566457Y-97760446D01*
X34546502Y-97988533D01*
X19468000Y-97988533D01*
X19468000Y-96031269D01*
X63506835Y-96031269D01*
X63525465Y-96267980D01*
X63580895Y-96498863D01*
X63582788Y-96503434D01*
X63582789Y-96503436D01*
X63662723Y-96696414D01*
X63671760Y-96718232D01*
X63674346Y-96722452D01*
X63793241Y-96916471D01*
X63793245Y-96916477D01*
X63795824Y-96920685D01*
X63950031Y-97101238D01*
X64130584Y-97255445D01*
X64134792Y-97258024D01*
X64134798Y-97258028D01*
X64255157Y-97331784D01*
X64333037Y-97379509D01*
X64337607Y-97381402D01*
X64337611Y-97381404D01*
X64547833Y-97468480D01*
X64552406Y-97470374D01*
X64632609Y-97489629D01*
X64778476Y-97524649D01*
X64778482Y-97524650D01*
X64783289Y-97525804D01*
X65020000Y-97544434D01*
X65256711Y-97525804D01*
X65261518Y-97524650D01*
X65261524Y-97524649D01*
X65407391Y-97489629D01*
X65487594Y-97470374D01*
X65492167Y-97468480D01*
X65702389Y-97381404D01*
X65702393Y-97381402D01*
X65706963Y-97379509D01*
X65784843Y-97331784D01*
X65905202Y-97258028D01*
X65905208Y-97258024D01*
X65909416Y-97255445D01*
X66089969Y-97101238D01*
X66244176Y-96920685D01*
X66246755Y-96916477D01*
X66246759Y-96916471D01*
X66365654Y-96722452D01*
X66368240Y-96718232D01*
X66377278Y-96696414D01*
X66457211Y-96503436D01*
X66457212Y-96503434D01*
X66459105Y-96498863D01*
X66514535Y-96267980D01*
X66533165Y-96031269D01*
X66514535Y-95794558D01*
X66459105Y-95563675D01*
X66368240Y-95344306D01*
X66363659Y-95336830D01*
X66246759Y-95146067D01*
X66246755Y-95146061D01*
X66244176Y-95141853D01*
X66089969Y-94961300D01*
X65909416Y-94807093D01*
X65905208Y-94804514D01*
X65905202Y-94804510D01*
X65711183Y-94685615D01*
X65706963Y-94683029D01*
X65702393Y-94681136D01*
X65702389Y-94681134D01*
X65492167Y-94594058D01*
X65492165Y-94594057D01*
X65487594Y-94592164D01*
X65386656Y-94567931D01*
X65261524Y-94537889D01*
X65261518Y-94537888D01*
X65256711Y-94536734D01*
X65020000Y-94518104D01*
X64783289Y-94536734D01*
X64778482Y-94537888D01*
X64778476Y-94537889D01*
X64653344Y-94567931D01*
X64552406Y-94592164D01*
X64547835Y-94594057D01*
X64547833Y-94594058D01*
X64337611Y-94681134D01*
X64337607Y-94681136D01*
X64333037Y-94683029D01*
X64328817Y-94685615D01*
X64134798Y-94804510D01*
X64134792Y-94804514D01*
X64130584Y-94807093D01*
X63950031Y-94961300D01*
X63795824Y-95141853D01*
X63793245Y-95146061D01*
X63793241Y-95146067D01*
X63676341Y-95336830D01*
X63671760Y-95344306D01*
X63580895Y-95563675D01*
X63525465Y-95794558D01*
X63506835Y-96031269D01*
X19468000Y-96031269D01*
X19468000Y-93929930D01*
X26465471Y-93929930D01*
X26472226Y-93992112D01*
X26523356Y-94128501D01*
X26610710Y-94245057D01*
X26727266Y-94332411D01*
X26863655Y-94383541D01*
X26925837Y-94390296D01*
X28722105Y-94390296D01*
X28784287Y-94383541D01*
X28920676Y-94332411D01*
X29037232Y-94245057D01*
X29124586Y-94128501D01*
X29175716Y-93992112D01*
X29182471Y-93929930D01*
X29182471Y-92998491D01*
X34081222Y-92998491D01*
X34081519Y-93003644D01*
X34081519Y-93003647D01*
X34086982Y-93098386D01*
X34094081Y-93221511D01*
X34095218Y-93226557D01*
X34095219Y-93226563D01*
X34115090Y-93314735D01*
X34143193Y-93439435D01*
X34227237Y-93646412D01*
X34343958Y-93836884D01*
X34490221Y-94005734D01*
X34662097Y-94148428D01*
X34854971Y-94261134D01*
X35063663Y-94340826D01*
X35068731Y-94341857D01*
X35068734Y-94341858D01*
X35175988Y-94363679D01*
X35282568Y-94385363D01*
X35287743Y-94385553D01*
X35287745Y-94385553D01*
X35500644Y-94393360D01*
X35500648Y-94393360D01*
X35505808Y-94393549D01*
X35510928Y-94392893D01*
X35510930Y-94392893D01*
X35722259Y-94365821D01*
X35722260Y-94365821D01*
X35727387Y-94365164D01*
X35732337Y-94363679D01*
X35829499Y-94334529D01*
X44231431Y-94334529D01*
X44251386Y-94562616D01*
X44310645Y-94783772D01*
X44312968Y-94788753D01*
X44312968Y-94788754D01*
X44405080Y-94986291D01*
X44405083Y-94986296D01*
X44407406Y-94991278D01*
X44538731Y-95178829D01*
X44700629Y-95340727D01*
X44705137Y-95343884D01*
X44705140Y-95343886D01*
X44783318Y-95398627D01*
X44888180Y-95472052D01*
X44893162Y-95474375D01*
X44893167Y-95474378D01*
X45084667Y-95563675D01*
X45095686Y-95568813D01*
X45100994Y-95570235D01*
X45100996Y-95570236D01*
X45311527Y-95626648D01*
X45311529Y-95626648D01*
X45316842Y-95628072D01*
X45544929Y-95648027D01*
X45773016Y-95628072D01*
X45778329Y-95626648D01*
X45778331Y-95626648D01*
X45988862Y-95570236D01*
X45988864Y-95570235D01*
X45994172Y-95568813D01*
X46005191Y-95563675D01*
X46196691Y-95474378D01*
X46196696Y-95474375D01*
X46201678Y-95472052D01*
X46306540Y-95398627D01*
X46384718Y-95343886D01*
X46384721Y-95343884D01*
X46389229Y-95340727D01*
X46551127Y-95178829D01*
X46574068Y-95146067D01*
X46679298Y-94995782D01*
X46682452Y-94991278D01*
X46683030Y-94990038D01*
X46733490Y-94941927D01*
X46803204Y-94928492D01*
X46823835Y-94932214D01*
X46911527Y-94955711D01*
X46911529Y-94955711D01*
X46916842Y-94957135D01*
X47144929Y-94977090D01*
X47373016Y-94957135D01*
X47378329Y-94955711D01*
X47378331Y-94955711D01*
X47588862Y-94899299D01*
X47588864Y-94899298D01*
X47594172Y-94897876D01*
X47599154Y-94895553D01*
X47796691Y-94803441D01*
X47796696Y-94803438D01*
X47801678Y-94801115D01*
X47970322Y-94683029D01*
X47984718Y-94672949D01*
X47984721Y-94672947D01*
X47989229Y-94669790D01*
X48151127Y-94507892D01*
X48282452Y-94320341D01*
X48284775Y-94315359D01*
X48284778Y-94315354D01*
X48376890Y-94117817D01*
X48376890Y-94117816D01*
X48379213Y-94112835D01*
X48427313Y-93933327D01*
X48437048Y-93896994D01*
X48437048Y-93896992D01*
X48438472Y-93891679D01*
X48458427Y-93663592D01*
X48438472Y-93435505D01*
X48379213Y-93214349D01*
X48326006Y-93100245D01*
X48284778Y-93011830D01*
X48284775Y-93011825D01*
X48282452Y-93006843D01*
X48151127Y-92819292D01*
X48005427Y-92673592D01*
X47971401Y-92611280D01*
X47976466Y-92540465D01*
X48019013Y-92483629D01*
X48055666Y-92466460D01*
X48055245Y-92465337D01*
X48183226Y-92417359D01*
X48191634Y-92414207D01*
X48308190Y-92326853D01*
X48395544Y-92210297D01*
X48446674Y-92073908D01*
X48453429Y-92011726D01*
X48453429Y-91927155D01*
X48473431Y-91859034D01*
X48527087Y-91812541D01*
X48579429Y-91801155D01*
X49593063Y-91801155D01*
X49655245Y-91794400D01*
X49791634Y-91743270D01*
X49908190Y-91655916D01*
X49995544Y-91539360D01*
X50046674Y-91402971D01*
X50053429Y-91340789D01*
X50053429Y-90315001D01*
X68626502Y-90315001D01*
X68646457Y-90543088D01*
X68705716Y-90764244D01*
X68708039Y-90769225D01*
X68708039Y-90769226D01*
X68800151Y-90966763D01*
X68800154Y-90966768D01*
X68802477Y-90971750D01*
X68933802Y-91159301D01*
X69095700Y-91321199D01*
X69100208Y-91324356D01*
X69100211Y-91324358D01*
X69178389Y-91379099D01*
X69283251Y-91452524D01*
X69288233Y-91454847D01*
X69288238Y-91454850D01*
X69484883Y-91546546D01*
X69490757Y-91549285D01*
X69496065Y-91550707D01*
X69496067Y-91550708D01*
X69706598Y-91607120D01*
X69706600Y-91607120D01*
X69711913Y-91608544D01*
X69940000Y-91628499D01*
X70168087Y-91608544D01*
X70173400Y-91607120D01*
X70173402Y-91607120D01*
X70383933Y-91550708D01*
X70383935Y-91550707D01*
X70389243Y-91549285D01*
X70395117Y-91546546D01*
X70591762Y-91454850D01*
X70591767Y-91454847D01*
X70596749Y-91452524D01*
X70701611Y-91379099D01*
X70779789Y-91324358D01*
X70779792Y-91324356D01*
X70784300Y-91321199D01*
X70946198Y-91159301D01*
X71077523Y-90971750D01*
X71079846Y-90966768D01*
X71079849Y-90966763D01*
X71095805Y-90932544D01*
X71142722Y-90879259D01*
X71210999Y-90859798D01*
X71278959Y-90880340D01*
X71324195Y-90932544D01*
X71340151Y-90966763D01*
X71340154Y-90966768D01*
X71342477Y-90971750D01*
X71473802Y-91159301D01*
X71635700Y-91321199D01*
X71640208Y-91324356D01*
X71640211Y-91324358D01*
X71718389Y-91379099D01*
X71823251Y-91452524D01*
X71828233Y-91454847D01*
X71828238Y-91454850D01*
X72024883Y-91546546D01*
X72030757Y-91549285D01*
X72036065Y-91550707D01*
X72036067Y-91550708D01*
X72246598Y-91607120D01*
X72246600Y-91607120D01*
X72251913Y-91608544D01*
X72480000Y-91628499D01*
X72708087Y-91608544D01*
X72713400Y-91607120D01*
X72713402Y-91607120D01*
X72923933Y-91550708D01*
X72923935Y-91550707D01*
X72929243Y-91549285D01*
X72935117Y-91546546D01*
X73131762Y-91454850D01*
X73131767Y-91454847D01*
X73136749Y-91452524D01*
X73241611Y-91379099D01*
X73319789Y-91324358D01*
X73319792Y-91324356D01*
X73324300Y-91321199D01*
X73486198Y-91159301D01*
X73617523Y-90971750D01*
X73619846Y-90966768D01*
X73619849Y-90966763D01*
X73635805Y-90932544D01*
X73682722Y-90879259D01*
X73750999Y-90859798D01*
X73818959Y-90880340D01*
X73864195Y-90932544D01*
X73880151Y-90966763D01*
X73880154Y-90966768D01*
X73882477Y-90971750D01*
X74013802Y-91159301D01*
X74175700Y-91321199D01*
X74180208Y-91324356D01*
X74180211Y-91324358D01*
X74258389Y-91379099D01*
X74363251Y-91452524D01*
X74368233Y-91454847D01*
X74368238Y-91454850D01*
X74564883Y-91546546D01*
X74570757Y-91549285D01*
X74576065Y-91550707D01*
X74576067Y-91550708D01*
X74786598Y-91607120D01*
X74786600Y-91607120D01*
X74791913Y-91608544D01*
X75020000Y-91628499D01*
X75248087Y-91608544D01*
X75253400Y-91607120D01*
X75253402Y-91607120D01*
X75463933Y-91550708D01*
X75463935Y-91550707D01*
X75469243Y-91549285D01*
X75475117Y-91546546D01*
X75671762Y-91454850D01*
X75671767Y-91454847D01*
X75676749Y-91452524D01*
X75781611Y-91379099D01*
X75859789Y-91324358D01*
X75859792Y-91324356D01*
X75864300Y-91321199D01*
X76026198Y-91159301D01*
X76157523Y-90971750D01*
X76159846Y-90966768D01*
X76159849Y-90966763D01*
X76175805Y-90932544D01*
X76222722Y-90879259D01*
X76290999Y-90859798D01*
X76358959Y-90880340D01*
X76404195Y-90932544D01*
X76420151Y-90966763D01*
X76420154Y-90966768D01*
X76422477Y-90971750D01*
X76553802Y-91159301D01*
X76715700Y-91321199D01*
X76720208Y-91324356D01*
X76720211Y-91324358D01*
X76798389Y-91379099D01*
X76903251Y-91452524D01*
X76908233Y-91454847D01*
X76908238Y-91454850D01*
X77104883Y-91546546D01*
X77110757Y-91549285D01*
X77116065Y-91550707D01*
X77116067Y-91550708D01*
X77326598Y-91607120D01*
X77326600Y-91607120D01*
X77331913Y-91608544D01*
X77560000Y-91628499D01*
X77788087Y-91608544D01*
X77793400Y-91607120D01*
X77793402Y-91607120D01*
X78003933Y-91550708D01*
X78003935Y-91550707D01*
X78009243Y-91549285D01*
X78015117Y-91546546D01*
X78211762Y-91454850D01*
X78211767Y-91454847D01*
X78216749Y-91452524D01*
X78321611Y-91379099D01*
X78399789Y-91324358D01*
X78399792Y-91324356D01*
X78404300Y-91321199D01*
X78566198Y-91159301D01*
X78697523Y-90971750D01*
X78699846Y-90966768D01*
X78699849Y-90966763D01*
X78791961Y-90769226D01*
X78791961Y-90769225D01*
X78794284Y-90764244D01*
X78853543Y-90543088D01*
X78873498Y-90315001D01*
X78853543Y-90086914D01*
X78852119Y-90081599D01*
X78795707Y-89871068D01*
X78795706Y-89871066D01*
X78794284Y-89865758D01*
X78791961Y-89860776D01*
X78699849Y-89663239D01*
X78699846Y-89663234D01*
X78697523Y-89658252D01*
X78566198Y-89470701D01*
X78404300Y-89308803D01*
X78399792Y-89305646D01*
X78399789Y-89305644D01*
X78280978Y-89222452D01*
X78216749Y-89177478D01*
X78211767Y-89175155D01*
X78211762Y-89175152D01*
X78014225Y-89083040D01*
X78014224Y-89083040D01*
X78009243Y-89080717D01*
X78003935Y-89079295D01*
X78003933Y-89079294D01*
X77793402Y-89022882D01*
X77793400Y-89022882D01*
X77788087Y-89021458D01*
X77560000Y-89001503D01*
X77331913Y-89021458D01*
X77326600Y-89022882D01*
X77326598Y-89022882D01*
X77116067Y-89079294D01*
X77116065Y-89079295D01*
X77110757Y-89080717D01*
X77105776Y-89083040D01*
X77105775Y-89083040D01*
X76908238Y-89175152D01*
X76908233Y-89175155D01*
X76903251Y-89177478D01*
X76839022Y-89222452D01*
X76720211Y-89305644D01*
X76720208Y-89305646D01*
X76715700Y-89308803D01*
X76553802Y-89470701D01*
X76422477Y-89658252D01*
X76420154Y-89663234D01*
X76420151Y-89663239D01*
X76404195Y-89697458D01*
X76357278Y-89750743D01*
X76289001Y-89770204D01*
X76221041Y-89749662D01*
X76175805Y-89697458D01*
X76159849Y-89663239D01*
X76159846Y-89663234D01*
X76157523Y-89658252D01*
X76026198Y-89470701D01*
X75864300Y-89308803D01*
X75859792Y-89305646D01*
X75859789Y-89305644D01*
X75740978Y-89222452D01*
X75676749Y-89177478D01*
X75671767Y-89175155D01*
X75671762Y-89175152D01*
X75474225Y-89083040D01*
X75474224Y-89083040D01*
X75469243Y-89080717D01*
X75463935Y-89079295D01*
X75463933Y-89079294D01*
X75253402Y-89022882D01*
X75253400Y-89022882D01*
X75248087Y-89021458D01*
X75020000Y-89001503D01*
X74791913Y-89021458D01*
X74786600Y-89022882D01*
X74786598Y-89022882D01*
X74576067Y-89079294D01*
X74576065Y-89079295D01*
X74570757Y-89080717D01*
X74565776Y-89083040D01*
X74565775Y-89083040D01*
X74368238Y-89175152D01*
X74368233Y-89175155D01*
X74363251Y-89177478D01*
X74299022Y-89222452D01*
X74180211Y-89305644D01*
X74180208Y-89305646D01*
X74175700Y-89308803D01*
X74013802Y-89470701D01*
X73882477Y-89658252D01*
X73880154Y-89663234D01*
X73880151Y-89663239D01*
X73864195Y-89697458D01*
X73817278Y-89750743D01*
X73749001Y-89770204D01*
X73681041Y-89749662D01*
X73635805Y-89697458D01*
X73619849Y-89663239D01*
X73619846Y-89663234D01*
X73617523Y-89658252D01*
X73486198Y-89470701D01*
X73324300Y-89308803D01*
X73319792Y-89305646D01*
X73319789Y-89305644D01*
X73200978Y-89222452D01*
X73136749Y-89177478D01*
X73131767Y-89175155D01*
X73131762Y-89175152D01*
X72934225Y-89083040D01*
X72934224Y-89083040D01*
X72929243Y-89080717D01*
X72923935Y-89079295D01*
X72923933Y-89079294D01*
X72713402Y-89022882D01*
X72713400Y-89022882D01*
X72708087Y-89021458D01*
X72480000Y-89001503D01*
X72251913Y-89021458D01*
X72246600Y-89022882D01*
X72246598Y-89022882D01*
X72036067Y-89079294D01*
X72036065Y-89079295D01*
X72030757Y-89080717D01*
X72025776Y-89083040D01*
X72025775Y-89083040D01*
X71828238Y-89175152D01*
X71828233Y-89175155D01*
X71823251Y-89177478D01*
X71759022Y-89222452D01*
X71640211Y-89305644D01*
X71640208Y-89305646D01*
X71635700Y-89308803D01*
X71473802Y-89470701D01*
X71342477Y-89658252D01*
X71340154Y-89663234D01*
X71340151Y-89663239D01*
X71324195Y-89697458D01*
X71277278Y-89750743D01*
X71209001Y-89770204D01*
X71141041Y-89749662D01*
X71095805Y-89697458D01*
X71079849Y-89663239D01*
X71079846Y-89663234D01*
X71077523Y-89658252D01*
X70946198Y-89470701D01*
X70784300Y-89308803D01*
X70779792Y-89305646D01*
X70779789Y-89305644D01*
X70660978Y-89222452D01*
X70596749Y-89177478D01*
X70591767Y-89175155D01*
X70591762Y-89175152D01*
X70394225Y-89083040D01*
X70394224Y-89083040D01*
X70389243Y-89080717D01*
X70383935Y-89079295D01*
X70383933Y-89079294D01*
X70173402Y-89022882D01*
X70173400Y-89022882D01*
X70168087Y-89021458D01*
X69940000Y-89001503D01*
X69711913Y-89021458D01*
X69706600Y-89022882D01*
X69706598Y-89022882D01*
X69496067Y-89079294D01*
X69496065Y-89079295D01*
X69490757Y-89080717D01*
X69485776Y-89083040D01*
X69485775Y-89083040D01*
X69288238Y-89175152D01*
X69288233Y-89175155D01*
X69283251Y-89177478D01*
X69219022Y-89222452D01*
X69100211Y-89305644D01*
X69100208Y-89305646D01*
X69095700Y-89308803D01*
X68933802Y-89470701D01*
X68802477Y-89658252D01*
X68800154Y-89663234D01*
X68800151Y-89663239D01*
X68708039Y-89860776D01*
X68705716Y-89865758D01*
X68704294Y-89871066D01*
X68704293Y-89871068D01*
X68647881Y-90081599D01*
X68646457Y-90086914D01*
X68626502Y-90315001D01*
X50053429Y-90315001D01*
X50053429Y-89644521D01*
X50046674Y-89582339D01*
X49995544Y-89445950D01*
X49908190Y-89329394D01*
X49791634Y-89242040D01*
X49655245Y-89190910D01*
X49593063Y-89184155D01*
X47896795Y-89184155D01*
X47834613Y-89190910D01*
X47698224Y-89242040D01*
X47581668Y-89329394D01*
X47494314Y-89445950D01*
X47443184Y-89582339D01*
X47436429Y-89644521D01*
X47436429Y-89729092D01*
X47416427Y-89797213D01*
X47362771Y-89843706D01*
X47310429Y-89855092D01*
X46296795Y-89855092D01*
X46234613Y-89861847D01*
X46098224Y-89912977D01*
X45981668Y-90000331D01*
X45894314Y-90116887D01*
X45843184Y-90253276D01*
X45836429Y-90315458D01*
X45836429Y-92011726D01*
X45843184Y-92073908D01*
X45894314Y-92210297D01*
X45981668Y-92326853D01*
X46098224Y-92414207D01*
X46106632Y-92417359D01*
X46234613Y-92465337D01*
X46233883Y-92467283D01*
X46286134Y-92497137D01*
X46318950Y-92560095D01*
X46312520Y-92630799D01*
X46284431Y-92673592D01*
X46138731Y-92819292D01*
X46007406Y-93006843D01*
X46006828Y-93008083D01*
X45956368Y-93056194D01*
X45886654Y-93069629D01*
X45866023Y-93065907D01*
X45778331Y-93042410D01*
X45778329Y-93042410D01*
X45773016Y-93040986D01*
X45544929Y-93021031D01*
X45316842Y-93040986D01*
X45311529Y-93042410D01*
X45311527Y-93042410D01*
X45100996Y-93098822D01*
X45100994Y-93098823D01*
X45095686Y-93100245D01*
X45090705Y-93102568D01*
X45090704Y-93102568D01*
X44893167Y-93194680D01*
X44893162Y-93194683D01*
X44888180Y-93197006D01*
X44783318Y-93270431D01*
X44705140Y-93325172D01*
X44705137Y-93325174D01*
X44700629Y-93328331D01*
X44538731Y-93490229D01*
X44407406Y-93677780D01*
X44405083Y-93682762D01*
X44405080Y-93682767D01*
X44312968Y-93880304D01*
X44310645Y-93885286D01*
X44309223Y-93890594D01*
X44309222Y-93890596D01*
X44260355Y-94072969D01*
X44251386Y-94106442D01*
X44231431Y-94334529D01*
X35829499Y-94334529D01*
X35936400Y-94302457D01*
X35936405Y-94302455D01*
X35941355Y-94300970D01*
X36141965Y-94202692D01*
X36323831Y-94072969D01*
X36482067Y-93915285D01*
X36541565Y-93832485D01*
X36609406Y-93738073D01*
X36612424Y-93733873D01*
X36711401Y-93533607D01*
X36776341Y-93319865D01*
X36805500Y-93098386D01*
X36806868Y-93042410D01*
X36807045Y-93035161D01*
X36807045Y-93035157D01*
X36807127Y-93031796D01*
X36788823Y-92809157D01*
X36734402Y-92592498D01*
X36645325Y-92387636D01*
X36535248Y-92217483D01*
X36526793Y-92204413D01*
X36526791Y-92204410D01*
X36523985Y-92200073D01*
X36373641Y-92034847D01*
X36369590Y-92031648D01*
X36369586Y-92031644D01*
X36202385Y-91899596D01*
X36202381Y-91899594D01*
X36198330Y-91896394D01*
X36002760Y-91788434D01*
X35997891Y-91786710D01*
X35997887Y-91786708D01*
X35797058Y-91715591D01*
X35797054Y-91715590D01*
X35792183Y-91713865D01*
X35787090Y-91712958D01*
X35787087Y-91712957D01*
X35577344Y-91675596D01*
X35577338Y-91675595D01*
X35572255Y-91674690D01*
X35498423Y-91673788D01*
X35354052Y-91672024D01*
X35354050Y-91672024D01*
X35348882Y-91671961D01*
X35128062Y-91705751D01*
X34915727Y-91775153D01*
X34717578Y-91878303D01*
X34713445Y-91881406D01*
X34713442Y-91881408D01*
X34544426Y-92008309D01*
X34538936Y-92012431D01*
X34384600Y-92173934D01*
X34258714Y-92358476D01*
X34164659Y-92561101D01*
X34104960Y-92776366D01*
X34081222Y-92998491D01*
X29182471Y-92998491D01*
X29182471Y-92133662D01*
X29175716Y-92071480D01*
X29124586Y-91935091D01*
X29037232Y-91818535D01*
X28920676Y-91731181D01*
X28784287Y-91680051D01*
X28722105Y-91673296D01*
X26925837Y-91673296D01*
X26863655Y-91680051D01*
X26727266Y-91731181D01*
X26610710Y-91818535D01*
X26523356Y-91935091D01*
X26472226Y-92071480D01*
X26465471Y-92133662D01*
X26465471Y-93929930D01*
X19468000Y-93929930D01*
X19468000Y-88471269D01*
X53111290Y-88471269D01*
X53131245Y-88699356D01*
X53132669Y-88704669D01*
X53132669Y-88704671D01*
X53150923Y-88772793D01*
X53190504Y-88920512D01*
X53192827Y-88925493D01*
X53192827Y-88925494D01*
X53284939Y-89123031D01*
X53284942Y-89123036D01*
X53287265Y-89128018D01*
X53418590Y-89315569D01*
X53580488Y-89477467D01*
X53584996Y-89480624D01*
X53584999Y-89480626D01*
X53663177Y-89535367D01*
X53768039Y-89608792D01*
X53773021Y-89611115D01*
X53773026Y-89611118D01*
X53958185Y-89697458D01*
X53975545Y-89705553D01*
X53980853Y-89706975D01*
X53980855Y-89706976D01*
X54191386Y-89763388D01*
X54191388Y-89763388D01*
X54196701Y-89764812D01*
X54424788Y-89784767D01*
X54652875Y-89764812D01*
X54658188Y-89763388D01*
X54658190Y-89763388D01*
X54868721Y-89706976D01*
X54868723Y-89706975D01*
X54874031Y-89705553D01*
X54891391Y-89697458D01*
X55076550Y-89611118D01*
X55076555Y-89611115D01*
X55081537Y-89608792D01*
X55186399Y-89535367D01*
X55264577Y-89480626D01*
X55264580Y-89480624D01*
X55269088Y-89477467D01*
X55430986Y-89315569D01*
X55562311Y-89128018D01*
X55564634Y-89123036D01*
X55564637Y-89123031D01*
X55656749Y-88925494D01*
X55656749Y-88925493D01*
X55659072Y-88920512D01*
X55698654Y-88772793D01*
X55716907Y-88704671D01*
X55716907Y-88704669D01*
X55718331Y-88699356D01*
X55733037Y-88531269D01*
X57584229Y-88531269D01*
X57602859Y-88767980D01*
X57658289Y-88998863D01*
X57660182Y-89003434D01*
X57660183Y-89003436D01*
X57743810Y-89205330D01*
X57749154Y-89218232D01*
X57751740Y-89222452D01*
X57870635Y-89416471D01*
X57870639Y-89416477D01*
X57873218Y-89420685D01*
X58027425Y-89601238D01*
X58207978Y-89755445D01*
X58212186Y-89758024D01*
X58212192Y-89758028D01*
X58395942Y-89870630D01*
X58410431Y-89879509D01*
X58415001Y-89881402D01*
X58415005Y-89881404D01*
X58491230Y-89912977D01*
X58629800Y-89970374D01*
X58710003Y-89989629D01*
X58855870Y-90024649D01*
X58855876Y-90024650D01*
X58860683Y-90025804D01*
X59097394Y-90044434D01*
X59334105Y-90025804D01*
X59338912Y-90024650D01*
X59338918Y-90024649D01*
X59484785Y-89989629D01*
X59564988Y-89970374D01*
X59703558Y-89912977D01*
X59779783Y-89881404D01*
X59779787Y-89881402D01*
X59784357Y-89879509D01*
X59798846Y-89870630D01*
X59982596Y-89758028D01*
X59982602Y-89758024D01*
X59986810Y-89755445D01*
X60167363Y-89601238D01*
X60321570Y-89420685D01*
X60324149Y-89416477D01*
X60324153Y-89416471D01*
X60443048Y-89222452D01*
X60445634Y-89218232D01*
X60450979Y-89205330D01*
X60534605Y-89003436D01*
X60534606Y-89003434D01*
X60536499Y-88998863D01*
X60591929Y-88767980D01*
X60610559Y-88531269D01*
X63506835Y-88531269D01*
X63525465Y-88767980D01*
X63580895Y-88998863D01*
X63582788Y-89003434D01*
X63582789Y-89003436D01*
X63666416Y-89205330D01*
X63671760Y-89218232D01*
X63674346Y-89222452D01*
X63793241Y-89416471D01*
X63793245Y-89416477D01*
X63795824Y-89420685D01*
X63950031Y-89601238D01*
X64130584Y-89755445D01*
X64134792Y-89758024D01*
X64134798Y-89758028D01*
X64318548Y-89870630D01*
X64333037Y-89879509D01*
X64337607Y-89881402D01*
X64337611Y-89881404D01*
X64413836Y-89912977D01*
X64552406Y-89970374D01*
X64632609Y-89989629D01*
X64778476Y-90024649D01*
X64778482Y-90024650D01*
X64783289Y-90025804D01*
X65020000Y-90044434D01*
X65256711Y-90025804D01*
X65261518Y-90024650D01*
X65261524Y-90024649D01*
X65407391Y-89989629D01*
X65487594Y-89970374D01*
X65626164Y-89912977D01*
X65702389Y-89881404D01*
X65702393Y-89881402D01*
X65706963Y-89879509D01*
X65721452Y-89870630D01*
X65905202Y-89758028D01*
X65905208Y-89758024D01*
X65909416Y-89755445D01*
X66089969Y-89601238D01*
X66244176Y-89420685D01*
X66246755Y-89416477D01*
X66246759Y-89416471D01*
X66365654Y-89222452D01*
X66368240Y-89218232D01*
X66373585Y-89205330D01*
X66457211Y-89003436D01*
X66457212Y-89003434D01*
X66459105Y-88998863D01*
X66484040Y-88895001D01*
X81856681Y-88895001D01*
X81875928Y-89139558D01*
X81877082Y-89144365D01*
X81877083Y-89144371D01*
X81901825Y-89247426D01*
X81933195Y-89378093D01*
X82027073Y-89604733D01*
X82155248Y-89813897D01*
X82158463Y-89817661D01*
X82158465Y-89817664D01*
X82211286Y-89879509D01*
X82314567Y-90000434D01*
X82318323Y-90003642D01*
X82454560Y-90120000D01*
X82501104Y-90159753D01*
X82505327Y-90162341D01*
X82505330Y-90162343D01*
X82574515Y-90204739D01*
X82710268Y-90287928D01*
X82854967Y-90347865D01*
X82932335Y-90379912D01*
X82932337Y-90379913D01*
X82936908Y-90381806D01*
X83019563Y-90401650D01*
X83170630Y-90437918D01*
X83170636Y-90437919D01*
X83175443Y-90439073D01*
X83420000Y-90458320D01*
X83664557Y-90439073D01*
X83669364Y-90437919D01*
X83669370Y-90437918D01*
X83820437Y-90401650D01*
X83903092Y-90381806D01*
X83907663Y-90379913D01*
X83907665Y-90379912D01*
X83985033Y-90347865D01*
X84129732Y-90287928D01*
X84265485Y-90204739D01*
X84334670Y-90162343D01*
X84334673Y-90162341D01*
X84338896Y-90159753D01*
X84385441Y-90120000D01*
X97925095Y-90120000D01*
X97944342Y-90364557D01*
X97945496Y-90369364D01*
X97945497Y-90369370D01*
X97962325Y-90439461D01*
X98001609Y-90603092D01*
X98095487Y-90829732D01*
X98223662Y-91038896D01*
X98382981Y-91225433D01*
X98386737Y-91228641D01*
X98522022Y-91344186D01*
X98569518Y-91384752D01*
X98573741Y-91387340D01*
X98573744Y-91387342D01*
X98586429Y-91395115D01*
X98778682Y-91512927D01*
X98869893Y-91550708D01*
X99000749Y-91604911D01*
X99000751Y-91604912D01*
X99005322Y-91606805D01*
X99087977Y-91626649D01*
X99239044Y-91662917D01*
X99239050Y-91662918D01*
X99243857Y-91664072D01*
X99488414Y-91683319D01*
X99732971Y-91664072D01*
X99737778Y-91662918D01*
X99737784Y-91662917D01*
X99888851Y-91626649D01*
X99971506Y-91606805D01*
X99976077Y-91604912D01*
X99976079Y-91604911D01*
X100106935Y-91550708D01*
X100198146Y-91512927D01*
X100390399Y-91395115D01*
X100403084Y-91387342D01*
X100403087Y-91387340D01*
X100407310Y-91384752D01*
X100454807Y-91344186D01*
X100590091Y-91228641D01*
X100593847Y-91225433D01*
X100753166Y-91038896D01*
X100881341Y-90829732D01*
X100975219Y-90603092D01*
X101014503Y-90439461D01*
X101031331Y-90369370D01*
X101031332Y-90369364D01*
X101032486Y-90364557D01*
X101051733Y-90120000D01*
X101032486Y-89875443D01*
X101029018Y-89860994D01*
X100977867Y-89647938D01*
X100975219Y-89636908D01*
X100964537Y-89611118D01*
X100896121Y-89445950D01*
X100881341Y-89410268D01*
X100781552Y-89247426D01*
X100755756Y-89205330D01*
X100755754Y-89205327D01*
X100753166Y-89201104D01*
X100744460Y-89190910D01*
X100597055Y-89018323D01*
X100593847Y-89014567D01*
X100459627Y-88899931D01*
X100411077Y-88858465D01*
X100411074Y-88858463D01*
X100407310Y-88855248D01*
X100403087Y-88852660D01*
X100403084Y-88852658D01*
X100333899Y-88810262D01*
X100198146Y-88727073D01*
X100025060Y-88655378D01*
X99976079Y-88635089D01*
X99976077Y-88635088D01*
X99971506Y-88633195D01*
X99888851Y-88613351D01*
X99737784Y-88577083D01*
X99737778Y-88577082D01*
X99732971Y-88575928D01*
X99488414Y-88556681D01*
X99243857Y-88575928D01*
X99239050Y-88577082D01*
X99239044Y-88577083D01*
X99087977Y-88613351D01*
X99005322Y-88633195D01*
X99000751Y-88635088D01*
X99000749Y-88635089D01*
X98951768Y-88655378D01*
X98778682Y-88727073D01*
X98642929Y-88810262D01*
X98573744Y-88852658D01*
X98573741Y-88852660D01*
X98569518Y-88855248D01*
X98565754Y-88858463D01*
X98565751Y-88858465D01*
X98517201Y-88899931D01*
X98382981Y-89014567D01*
X98379773Y-89018323D01*
X98232369Y-89190910D01*
X98223662Y-89201104D01*
X98221074Y-89205327D01*
X98221072Y-89205330D01*
X98195276Y-89247426D01*
X98095487Y-89410268D01*
X98080707Y-89445950D01*
X98012292Y-89611118D01*
X98001609Y-89636908D01*
X97998961Y-89647938D01*
X97947811Y-89860994D01*
X97944342Y-89875443D01*
X97925095Y-90120000D01*
X84385441Y-90120000D01*
X84521677Y-90003642D01*
X84525433Y-90000434D01*
X84628714Y-89879509D01*
X84681535Y-89817664D01*
X84681537Y-89817661D01*
X84684752Y-89813897D01*
X84812927Y-89604733D01*
X84906805Y-89378093D01*
X84938175Y-89247426D01*
X84962917Y-89144371D01*
X84962918Y-89144365D01*
X84964072Y-89139558D01*
X84983319Y-88895001D01*
X84964072Y-88650444D01*
X84946183Y-88575928D01*
X84907960Y-88416721D01*
X84906805Y-88411909D01*
X84812927Y-88185269D01*
X84684752Y-87976105D01*
X84675186Y-87964904D01*
X84528641Y-87793324D01*
X84525433Y-87789568D01*
X84483174Y-87753475D01*
X84342663Y-87633466D01*
X84342660Y-87633464D01*
X84338896Y-87630249D01*
X84334673Y-87627661D01*
X84334670Y-87627659D01*
X84204001Y-87547586D01*
X84129732Y-87502074D01*
X83985033Y-87442137D01*
X83907665Y-87410090D01*
X83907663Y-87410089D01*
X83903092Y-87408196D01*
X83820437Y-87388352D01*
X83669370Y-87352084D01*
X83669364Y-87352083D01*
X83664557Y-87350929D01*
X83420000Y-87331682D01*
X83175443Y-87350929D01*
X83170636Y-87352083D01*
X83170630Y-87352084D01*
X83019563Y-87388352D01*
X82936908Y-87408196D01*
X82932337Y-87410089D01*
X82932335Y-87410090D01*
X82854967Y-87442137D01*
X82710268Y-87502074D01*
X82635999Y-87547586D01*
X82505330Y-87627659D01*
X82505327Y-87627661D01*
X82501104Y-87630249D01*
X82497340Y-87633464D01*
X82497337Y-87633466D01*
X82356826Y-87753475D01*
X82314567Y-87789568D01*
X82311359Y-87793324D01*
X82164815Y-87964904D01*
X82155248Y-87976105D01*
X82027073Y-88185269D01*
X81933195Y-88411909D01*
X81932040Y-88416721D01*
X81893818Y-88575928D01*
X81875928Y-88650444D01*
X81856681Y-88895001D01*
X66484040Y-88895001D01*
X66514535Y-88767980D01*
X66533165Y-88531269D01*
X66514535Y-88294558D01*
X66503517Y-88248662D01*
X66460260Y-88068487D01*
X66459105Y-88063675D01*
X66422833Y-87976105D01*
X66370135Y-87848880D01*
X66370133Y-87848876D01*
X66368240Y-87844306D01*
X66336998Y-87793324D01*
X66246759Y-87646067D01*
X66246755Y-87646061D01*
X66244176Y-87641853D01*
X66089969Y-87461300D01*
X65909416Y-87307093D01*
X65905208Y-87304514D01*
X65905202Y-87304510D01*
X65711183Y-87185615D01*
X65706963Y-87183029D01*
X65702393Y-87181136D01*
X65702389Y-87181134D01*
X65492167Y-87094058D01*
X65492165Y-87094057D01*
X65487594Y-87092164D01*
X65407391Y-87072909D01*
X65261524Y-87037889D01*
X65261518Y-87037888D01*
X65256711Y-87036734D01*
X65020000Y-87018104D01*
X64783289Y-87036734D01*
X64778482Y-87037888D01*
X64778476Y-87037889D01*
X64632609Y-87072909D01*
X64552406Y-87092164D01*
X64547835Y-87094057D01*
X64547833Y-87094058D01*
X64337611Y-87181134D01*
X64337607Y-87181136D01*
X64333037Y-87183029D01*
X64328817Y-87185615D01*
X64134798Y-87304510D01*
X64134792Y-87304514D01*
X64130584Y-87307093D01*
X63950031Y-87461300D01*
X63795824Y-87641853D01*
X63793245Y-87646061D01*
X63793241Y-87646067D01*
X63703002Y-87793324D01*
X63671760Y-87844306D01*
X63669867Y-87848876D01*
X63669865Y-87848880D01*
X63617167Y-87976105D01*
X63580895Y-88063675D01*
X63579740Y-88068487D01*
X63536484Y-88248662D01*
X63525465Y-88294558D01*
X63506835Y-88531269D01*
X60610559Y-88531269D01*
X60591929Y-88294558D01*
X60580911Y-88248662D01*
X60537654Y-88068487D01*
X60536499Y-88063675D01*
X60500227Y-87976105D01*
X60447529Y-87848880D01*
X60447527Y-87848876D01*
X60445634Y-87844306D01*
X60414392Y-87793324D01*
X60324153Y-87646067D01*
X60324149Y-87646061D01*
X60321570Y-87641853D01*
X60167363Y-87461300D01*
X59986810Y-87307093D01*
X59982602Y-87304514D01*
X59982596Y-87304510D01*
X59788577Y-87185615D01*
X59784357Y-87183029D01*
X59779787Y-87181136D01*
X59779783Y-87181134D01*
X59569561Y-87094058D01*
X59569559Y-87094057D01*
X59564988Y-87092164D01*
X59484785Y-87072909D01*
X59338918Y-87037889D01*
X59338912Y-87037888D01*
X59334105Y-87036734D01*
X59097394Y-87018104D01*
X58860683Y-87036734D01*
X58855876Y-87037888D01*
X58855870Y-87037889D01*
X58710003Y-87072909D01*
X58629800Y-87092164D01*
X58625229Y-87094057D01*
X58625227Y-87094058D01*
X58415005Y-87181134D01*
X58415001Y-87181136D01*
X58410431Y-87183029D01*
X58406211Y-87185615D01*
X58212192Y-87304510D01*
X58212186Y-87304514D01*
X58207978Y-87307093D01*
X58027425Y-87461300D01*
X57873218Y-87641853D01*
X57870639Y-87646061D01*
X57870635Y-87646067D01*
X57780396Y-87793324D01*
X57749154Y-87844306D01*
X57747261Y-87848876D01*
X57747259Y-87848880D01*
X57694561Y-87976105D01*
X57658289Y-88063675D01*
X57657134Y-88068487D01*
X57613878Y-88248662D01*
X57602859Y-88294558D01*
X57584229Y-88531269D01*
X55733037Y-88531269D01*
X55738286Y-88471269D01*
X55718331Y-88243182D01*
X55701683Y-88181050D01*
X55660495Y-88027336D01*
X55660494Y-88027334D01*
X55659072Y-88022026D01*
X55656749Y-88017044D01*
X55564637Y-87819507D01*
X55564634Y-87819502D01*
X55562311Y-87814520D01*
X55438776Y-87638094D01*
X55434145Y-87631480D01*
X55434143Y-87631477D01*
X55430986Y-87626969D01*
X55269088Y-87465071D01*
X55264580Y-87461914D01*
X55264577Y-87461912D01*
X55107726Y-87352084D01*
X55081537Y-87333746D01*
X55076555Y-87331423D01*
X55076550Y-87331420D01*
X54879013Y-87239308D01*
X54879012Y-87239308D01*
X54874031Y-87236985D01*
X54868723Y-87235563D01*
X54868721Y-87235562D01*
X54658190Y-87179150D01*
X54658188Y-87179150D01*
X54652875Y-87177726D01*
X54424788Y-87157771D01*
X54196701Y-87177726D01*
X54191388Y-87179150D01*
X54191386Y-87179150D01*
X53980855Y-87235562D01*
X53980853Y-87235563D01*
X53975545Y-87236985D01*
X53970564Y-87239308D01*
X53970563Y-87239308D01*
X53773026Y-87331420D01*
X53773021Y-87331423D01*
X53768039Y-87333746D01*
X53741850Y-87352084D01*
X53584999Y-87461912D01*
X53584996Y-87461914D01*
X53580488Y-87465071D01*
X53418590Y-87626969D01*
X53415433Y-87631477D01*
X53415431Y-87631480D01*
X53410800Y-87638094D01*
X53287265Y-87814520D01*
X53284942Y-87819502D01*
X53284939Y-87819507D01*
X53192827Y-88017044D01*
X53190504Y-88022026D01*
X53189082Y-88027334D01*
X53189081Y-88027336D01*
X53147893Y-88181050D01*
X53131245Y-88243182D01*
X53111290Y-88471269D01*
X19468000Y-88471269D01*
X19468000Y-86452703D01*
X89401671Y-86452703D01*
X89439196Y-86737734D01*
X89515057Y-87015036D01*
X89516741Y-87018984D01*
X89587816Y-87185615D01*
X89627851Y-87279476D01*
X89670383Y-87350541D01*
X89741260Y-87468968D01*
X89775489Y-87526161D01*
X89955241Y-87750528D01*
X90163779Y-87948423D01*
X90397245Y-88116186D01*
X90401040Y-88118195D01*
X90401041Y-88118196D01*
X90422797Y-88129715D01*
X90651320Y-88250712D01*
X90921301Y-88349511D01*
X91202192Y-88410755D01*
X91230769Y-88413004D01*
X91425210Y-88428307D01*
X91425219Y-88428307D01*
X91427667Y-88428500D01*
X91583199Y-88428500D01*
X91585335Y-88428354D01*
X91585346Y-88428354D01*
X91793476Y-88414165D01*
X91793482Y-88414164D01*
X91797753Y-88413873D01*
X91801948Y-88413004D01*
X91801950Y-88413004D01*
X91938512Y-88384723D01*
X92079270Y-88355574D01*
X92350271Y-88259607D01*
X92438291Y-88214177D01*
X92601933Y-88129715D01*
X92601934Y-88129715D01*
X92605740Y-88127750D01*
X92609241Y-88125289D01*
X92609245Y-88125287D01*
X92826869Y-87972338D01*
X92840951Y-87962441D01*
X92968079Y-87844306D01*
X93048407Y-87769661D01*
X93048409Y-87769658D01*
X93051550Y-87766740D01*
X93233641Y-87544268D01*
X93383855Y-87299142D01*
X93499411Y-87035898D01*
X93578172Y-86759406D01*
X93618679Y-86474784D01*
X93618773Y-86456951D01*
X93620163Y-86191583D01*
X93620163Y-86191576D01*
X93620185Y-86187297D01*
X93582660Y-85902266D01*
X93580710Y-85895136D01*
X93507931Y-85629103D01*
X93506799Y-85624964D01*
X93414855Y-85409406D01*
X93395691Y-85364476D01*
X93395689Y-85364472D01*
X93394005Y-85360524D01*
X93301879Y-85206593D01*
X93248571Y-85117521D01*
X93248568Y-85117517D01*
X93246367Y-85113839D01*
X93066615Y-84889472D01*
X92858077Y-84691577D01*
X92624611Y-84523814D01*
X92616037Y-84519274D01*
X92579582Y-84499972D01*
X92370536Y-84389288D01*
X92235545Y-84339888D01*
X92104586Y-84291964D01*
X92104584Y-84291963D01*
X92100555Y-84290489D01*
X91819664Y-84229245D01*
X91788613Y-84226801D01*
X91596646Y-84211693D01*
X91596637Y-84211693D01*
X91594189Y-84211500D01*
X91438657Y-84211500D01*
X91436521Y-84211646D01*
X91436510Y-84211646D01*
X91228380Y-84225835D01*
X91228374Y-84225836D01*
X91224103Y-84226127D01*
X91219908Y-84226996D01*
X91219906Y-84226996D01*
X91083345Y-84255276D01*
X90942586Y-84284426D01*
X90671585Y-84380393D01*
X90416116Y-84512250D01*
X90412615Y-84514711D01*
X90412611Y-84514713D01*
X90369516Y-84545001D01*
X90180905Y-84677559D01*
X90165820Y-84691577D01*
X90007817Y-84838403D01*
X89970306Y-84873260D01*
X89788215Y-85095732D01*
X89638001Y-85340858D01*
X89636275Y-85344791D01*
X89636274Y-85344792D01*
X89525395Y-85597381D01*
X89522445Y-85604102D01*
X89443684Y-85880594D01*
X89403177Y-86165216D01*
X89403155Y-86169505D01*
X89403154Y-86169512D01*
X89401693Y-86448417D01*
X89401671Y-86452703D01*
X19468000Y-86452703D01*
X19468000Y-84605001D01*
X53136360Y-84605001D01*
X53156315Y-84833088D01*
X53157739Y-84838401D01*
X53157739Y-84838403D01*
X53198842Y-84991798D01*
X53215574Y-85054244D01*
X53217897Y-85059225D01*
X53217897Y-85059226D01*
X53310009Y-85256763D01*
X53310012Y-85256768D01*
X53312335Y-85261750D01*
X53443660Y-85449301D01*
X53605558Y-85611199D01*
X53610066Y-85614356D01*
X53610069Y-85614358D01*
X53615525Y-85618178D01*
X53793109Y-85742524D01*
X53798091Y-85744847D01*
X53798096Y-85744850D01*
X53995633Y-85836962D01*
X54000615Y-85839285D01*
X54005923Y-85840707D01*
X54005925Y-85840708D01*
X54216456Y-85897120D01*
X54216458Y-85897120D01*
X54221771Y-85898544D01*
X54449858Y-85918499D01*
X54677945Y-85898544D01*
X54683258Y-85897120D01*
X54683260Y-85897120D01*
X54893791Y-85840708D01*
X54893793Y-85840707D01*
X54899101Y-85839285D01*
X54904083Y-85836962D01*
X55101620Y-85744850D01*
X55101625Y-85744847D01*
X55106607Y-85742524D01*
X55284191Y-85618178D01*
X55289647Y-85614358D01*
X55289650Y-85614356D01*
X55294158Y-85611199D01*
X55456056Y-85449301D01*
X55587381Y-85261750D01*
X55589704Y-85256768D01*
X55589707Y-85256763D01*
X55681819Y-85059226D01*
X55681819Y-85059225D01*
X55684142Y-85054244D01*
X55700875Y-84991798D01*
X55741977Y-84838403D01*
X55741977Y-84838401D01*
X55743401Y-84833088D01*
X55763356Y-84605001D01*
X55758107Y-84545001D01*
X57609299Y-84545001D01*
X57627929Y-84781712D01*
X57629083Y-84786519D01*
X57629084Y-84786525D01*
X57653092Y-84886525D01*
X57683359Y-85012595D01*
X57685252Y-85017166D01*
X57685253Y-85017168D01*
X57769717Y-85221082D01*
X57774224Y-85231964D01*
X57776810Y-85236184D01*
X57895705Y-85430203D01*
X57895709Y-85430209D01*
X57898288Y-85434417D01*
X58052495Y-85614970D01*
X58233048Y-85769177D01*
X58237256Y-85771756D01*
X58237262Y-85771760D01*
X58431281Y-85890655D01*
X58435501Y-85893241D01*
X58440071Y-85895134D01*
X58440075Y-85895136D01*
X58650297Y-85982212D01*
X58654870Y-85984106D01*
X58735073Y-86003361D01*
X58880940Y-86038381D01*
X58880946Y-86038382D01*
X58885753Y-86039536D01*
X59122464Y-86058166D01*
X59359175Y-86039536D01*
X59363982Y-86038382D01*
X59363988Y-86038381D01*
X59509855Y-86003361D01*
X59590058Y-85984106D01*
X59594631Y-85982212D01*
X59804853Y-85895136D01*
X59804857Y-85895134D01*
X59809427Y-85893241D01*
X59813647Y-85890655D01*
X60007666Y-85771760D01*
X60007672Y-85771756D01*
X60011880Y-85769177D01*
X60192433Y-85614970D01*
X60346640Y-85434417D01*
X60349219Y-85430209D01*
X60349223Y-85430203D01*
X60468118Y-85236184D01*
X60470704Y-85231964D01*
X60475212Y-85221082D01*
X60559675Y-85017168D01*
X60559676Y-85017166D01*
X60561569Y-85012595D01*
X60591836Y-84886525D01*
X60615844Y-84786525D01*
X60615845Y-84786519D01*
X60616999Y-84781712D01*
X60635629Y-84545001D01*
X60633992Y-84524204D01*
X63456835Y-84524204D01*
X63475465Y-84760915D01*
X63476619Y-84765722D01*
X63476620Y-84765728D01*
X63503233Y-84876579D01*
X63530895Y-84991798D01*
X63532788Y-84996369D01*
X63532789Y-84996371D01*
X63583539Y-85118892D01*
X63621760Y-85211167D01*
X63624346Y-85215387D01*
X63743241Y-85409406D01*
X63743245Y-85409412D01*
X63745824Y-85413620D01*
X63900031Y-85594173D01*
X64080584Y-85748380D01*
X64084792Y-85750959D01*
X64084798Y-85750963D01*
X64231249Y-85840708D01*
X64283037Y-85872444D01*
X64287607Y-85874337D01*
X64287611Y-85874339D01*
X64394224Y-85918499D01*
X64502406Y-85963309D01*
X64581143Y-85982212D01*
X64728476Y-86017584D01*
X64728482Y-86017585D01*
X64733289Y-86018739D01*
X64970000Y-86037369D01*
X65206711Y-86018739D01*
X65211518Y-86017585D01*
X65211524Y-86017584D01*
X65358857Y-85982212D01*
X65437594Y-85963309D01*
X65545776Y-85918499D01*
X65652389Y-85874339D01*
X65652393Y-85874337D01*
X65656963Y-85872444D01*
X65708751Y-85840708D01*
X65855202Y-85750963D01*
X65855208Y-85750959D01*
X65859416Y-85748380D01*
X66039969Y-85594173D01*
X66194176Y-85413620D01*
X66196755Y-85409412D01*
X66196759Y-85409406D01*
X66315654Y-85215387D01*
X66318240Y-85211167D01*
X66356462Y-85118892D01*
X66407211Y-84996371D01*
X66407212Y-84996369D01*
X66409105Y-84991798D01*
X66427991Y-84913135D01*
X81861500Y-84913135D01*
X81868255Y-84975317D01*
X81919385Y-85111706D01*
X82006739Y-85228262D01*
X82123295Y-85315616D01*
X82259684Y-85366746D01*
X82321866Y-85373501D01*
X84518134Y-85373501D01*
X84580316Y-85366746D01*
X84716705Y-85315616D01*
X84833261Y-85228262D01*
X84920615Y-85111706D01*
X84971745Y-84975317D01*
X84978500Y-84913135D01*
X84978500Y-83598134D01*
X97929914Y-83598134D01*
X97936669Y-83660316D01*
X97987799Y-83796705D01*
X98075153Y-83913261D01*
X98191709Y-84000615D01*
X98328098Y-84051745D01*
X98390280Y-84058500D01*
X100586548Y-84058500D01*
X100648730Y-84051745D01*
X100785119Y-84000615D01*
X100901675Y-83913261D01*
X100989029Y-83796705D01*
X101040159Y-83660316D01*
X101046914Y-83598134D01*
X101046914Y-81401866D01*
X101040159Y-81339684D01*
X100989029Y-81203295D01*
X100901675Y-81086739D01*
X100785119Y-80999385D01*
X100648730Y-80948255D01*
X100586548Y-80941500D01*
X98390280Y-80941500D01*
X98328098Y-80948255D01*
X98191709Y-80999385D01*
X98075153Y-81086739D01*
X97987799Y-81203295D01*
X97936669Y-81339684D01*
X97929914Y-81401866D01*
X97929914Y-83598134D01*
X84978500Y-83598134D01*
X84978500Y-82716867D01*
X84971745Y-82654685D01*
X84920615Y-82518296D01*
X84833261Y-82401740D01*
X84716705Y-82314386D01*
X84580316Y-82263256D01*
X84518134Y-82256501D01*
X82321866Y-82256501D01*
X82259684Y-82263256D01*
X82123295Y-82314386D01*
X82006739Y-82401740D01*
X81919385Y-82518296D01*
X81868255Y-82654685D01*
X81861500Y-82716867D01*
X81861500Y-84913135D01*
X66427991Y-84913135D01*
X66436767Y-84876579D01*
X66463380Y-84765728D01*
X66463381Y-84765722D01*
X66464535Y-84760915D01*
X66483165Y-84524204D01*
X66464535Y-84287493D01*
X66450471Y-84228909D01*
X66410260Y-84061422D01*
X66409105Y-84056610D01*
X66389177Y-84008499D01*
X66320135Y-83841815D01*
X66320133Y-83841811D01*
X66318240Y-83837241D01*
X66297803Y-83803891D01*
X66196759Y-83639002D01*
X66196755Y-83638996D01*
X66194176Y-83634788D01*
X66039969Y-83454235D01*
X65859416Y-83300028D01*
X65855208Y-83297449D01*
X65855202Y-83297445D01*
X65661183Y-83178550D01*
X65656963Y-83175964D01*
X65652393Y-83174071D01*
X65652389Y-83174069D01*
X65442167Y-83086993D01*
X65442165Y-83086992D01*
X65437594Y-83085099D01*
X65357391Y-83065844D01*
X65211524Y-83030824D01*
X65211518Y-83030823D01*
X65206711Y-83029669D01*
X64970000Y-83011039D01*
X64733289Y-83029669D01*
X64728482Y-83030823D01*
X64728476Y-83030824D01*
X64582609Y-83065844D01*
X64502406Y-83085099D01*
X64497835Y-83086992D01*
X64497833Y-83086993D01*
X64287611Y-83174069D01*
X64287607Y-83174071D01*
X64283037Y-83175964D01*
X64278817Y-83178550D01*
X64084798Y-83297445D01*
X64084792Y-83297449D01*
X64080584Y-83300028D01*
X63900031Y-83454235D01*
X63745824Y-83634788D01*
X63743245Y-83638996D01*
X63743241Y-83639002D01*
X63642197Y-83803891D01*
X63621760Y-83837241D01*
X63619867Y-83841811D01*
X63619865Y-83841815D01*
X63550823Y-84008499D01*
X63530895Y-84056610D01*
X63529740Y-84061422D01*
X63489530Y-84228909D01*
X63475465Y-84287493D01*
X63456835Y-84524204D01*
X60633992Y-84524204D01*
X60616999Y-84308290D01*
X60613080Y-84291964D01*
X60562724Y-84082219D01*
X60561569Y-84077407D01*
X60551293Y-84052598D01*
X60472599Y-83862612D01*
X60472597Y-83862608D01*
X60470704Y-83858038D01*
X60466441Y-83851082D01*
X60349223Y-83659799D01*
X60349219Y-83659793D01*
X60346640Y-83655585D01*
X60192433Y-83475032D01*
X60011880Y-83320825D01*
X60007672Y-83318246D01*
X60007666Y-83318242D01*
X59813647Y-83199347D01*
X59809427Y-83196761D01*
X59804857Y-83194868D01*
X59804853Y-83194866D01*
X59594631Y-83107790D01*
X59594629Y-83107789D01*
X59590058Y-83105896D01*
X59498621Y-83083944D01*
X59363988Y-83051621D01*
X59363982Y-83051620D01*
X59359175Y-83050466D01*
X59122464Y-83031836D01*
X58885753Y-83050466D01*
X58880946Y-83051620D01*
X58880940Y-83051621D01*
X58746307Y-83083944D01*
X58654870Y-83105896D01*
X58650299Y-83107789D01*
X58650297Y-83107790D01*
X58440075Y-83194866D01*
X58440071Y-83194868D01*
X58435501Y-83196761D01*
X58431281Y-83199347D01*
X58237262Y-83318242D01*
X58237256Y-83318246D01*
X58233048Y-83320825D01*
X58052495Y-83475032D01*
X57898288Y-83655585D01*
X57895709Y-83659793D01*
X57895705Y-83659799D01*
X57778487Y-83851082D01*
X57774224Y-83858038D01*
X57772331Y-83862608D01*
X57772329Y-83862612D01*
X57693635Y-84052598D01*
X57683359Y-84077407D01*
X57682204Y-84082219D01*
X57631849Y-84291964D01*
X57627929Y-84308290D01*
X57609299Y-84545001D01*
X55758107Y-84545001D01*
X55743401Y-84376914D01*
X55725013Y-84308290D01*
X55685565Y-84161068D01*
X55685564Y-84161066D01*
X55684142Y-84155758D01*
X55668726Y-84122697D01*
X55589707Y-83953239D01*
X55589704Y-83953234D01*
X55587381Y-83948252D01*
X55486298Y-83803891D01*
X55459215Y-83765212D01*
X55459213Y-83765209D01*
X55456056Y-83760701D01*
X55294158Y-83598803D01*
X55289650Y-83595646D01*
X55289647Y-83595644D01*
X55176273Y-83516259D01*
X55106607Y-83467478D01*
X55101625Y-83465155D01*
X55101620Y-83465152D01*
X54904083Y-83373040D01*
X54904082Y-83373040D01*
X54899101Y-83370717D01*
X54893793Y-83369295D01*
X54893791Y-83369294D01*
X54683260Y-83312882D01*
X54683258Y-83312882D01*
X54677945Y-83311458D01*
X54449858Y-83291503D01*
X54221771Y-83311458D01*
X54216458Y-83312882D01*
X54216456Y-83312882D01*
X54005925Y-83369294D01*
X54005923Y-83369295D01*
X54000615Y-83370717D01*
X53995634Y-83373040D01*
X53995633Y-83373040D01*
X53798096Y-83465152D01*
X53798091Y-83465155D01*
X53793109Y-83467478D01*
X53723443Y-83516259D01*
X53610069Y-83595644D01*
X53610066Y-83595646D01*
X53605558Y-83598803D01*
X53443660Y-83760701D01*
X53440503Y-83765209D01*
X53440501Y-83765212D01*
X53413418Y-83803891D01*
X53312335Y-83948252D01*
X53310012Y-83953234D01*
X53310009Y-83953239D01*
X53230990Y-84122697D01*
X53215574Y-84155758D01*
X53214152Y-84161066D01*
X53214151Y-84161068D01*
X53174703Y-84308290D01*
X53156315Y-84376914D01*
X53136360Y-84605001D01*
X19468000Y-84605001D01*
X19468000Y-82683592D01*
X31523892Y-82683592D01*
X31542522Y-82920303D01*
X31543676Y-82925110D01*
X31543677Y-82925116D01*
X31564306Y-83011039D01*
X31597952Y-83151186D01*
X31599845Y-83155757D01*
X31599846Y-83155759D01*
X31681028Y-83351750D01*
X31688817Y-83370555D01*
X31691403Y-83374775D01*
X31810298Y-83568794D01*
X31810302Y-83568800D01*
X31812881Y-83573008D01*
X31967088Y-83753561D01*
X32147641Y-83907768D01*
X32151849Y-83910347D01*
X32151855Y-83910351D01*
X32312018Y-84008499D01*
X32350094Y-84031832D01*
X32354664Y-84033725D01*
X32354668Y-84033727D01*
X32564890Y-84120803D01*
X32569463Y-84122697D01*
X32649666Y-84141952D01*
X32795533Y-84176972D01*
X32795539Y-84176973D01*
X32800346Y-84178127D01*
X33037057Y-84196757D01*
X33273768Y-84178127D01*
X33278575Y-84176973D01*
X33278581Y-84176972D01*
X33424448Y-84141952D01*
X33504651Y-84122697D01*
X33509224Y-84120803D01*
X33719446Y-84033727D01*
X33719450Y-84033725D01*
X33724020Y-84031832D01*
X33762096Y-84008499D01*
X33922259Y-83910351D01*
X33922265Y-83910347D01*
X33926473Y-83907768D01*
X34107026Y-83753561D01*
X34261233Y-83573008D01*
X34263812Y-83568800D01*
X34263816Y-83568794D01*
X34347797Y-83431749D01*
X44236429Y-83431749D01*
X44243184Y-83493931D01*
X44294314Y-83630320D01*
X44381668Y-83746876D01*
X44498224Y-83834230D01*
X44634613Y-83885360D01*
X44696795Y-83892115D01*
X46393063Y-83892115D01*
X46455245Y-83885360D01*
X46591634Y-83834230D01*
X46708190Y-83746876D01*
X46795544Y-83630320D01*
X46846674Y-83493931D01*
X46853429Y-83431749D01*
X46853429Y-83347178D01*
X46873431Y-83279057D01*
X46927087Y-83232564D01*
X46979429Y-83221178D01*
X47993063Y-83221178D01*
X48055245Y-83214423D01*
X48191634Y-83163293D01*
X48308190Y-83075939D01*
X48395544Y-82959383D01*
X48446674Y-82822994D01*
X48453429Y-82760812D01*
X48453429Y-82695001D01*
X68626502Y-82695001D01*
X68646457Y-82923088D01*
X68647881Y-82928401D01*
X68647881Y-82928403D01*
X68695441Y-83105896D01*
X68705716Y-83144244D01*
X68708039Y-83149225D01*
X68708039Y-83149226D01*
X68800151Y-83346763D01*
X68800154Y-83346768D01*
X68802477Y-83351750D01*
X68933802Y-83539301D01*
X69095700Y-83701199D01*
X69100208Y-83704356D01*
X69100211Y-83704358D01*
X69141542Y-83733298D01*
X69283251Y-83832524D01*
X69288233Y-83834847D01*
X69288238Y-83834850D01*
X69456393Y-83913261D01*
X69490757Y-83929285D01*
X69496065Y-83930707D01*
X69496067Y-83930708D01*
X69706598Y-83987120D01*
X69706600Y-83987120D01*
X69711913Y-83988544D01*
X69940000Y-84008499D01*
X70168087Y-83988544D01*
X70173400Y-83987120D01*
X70173402Y-83987120D01*
X70383933Y-83930708D01*
X70383935Y-83930707D01*
X70389243Y-83929285D01*
X70423607Y-83913261D01*
X70591762Y-83834850D01*
X70591767Y-83834847D01*
X70596749Y-83832524D01*
X70738458Y-83733298D01*
X70779789Y-83704358D01*
X70779792Y-83704356D01*
X70784300Y-83701199D01*
X70946198Y-83539301D01*
X71077523Y-83351750D01*
X71079846Y-83346768D01*
X71079849Y-83346763D01*
X71095805Y-83312544D01*
X71142722Y-83259259D01*
X71210999Y-83239798D01*
X71278959Y-83260340D01*
X71324195Y-83312544D01*
X71340151Y-83346763D01*
X71340154Y-83346768D01*
X71342477Y-83351750D01*
X71473802Y-83539301D01*
X71635700Y-83701199D01*
X71640208Y-83704356D01*
X71640211Y-83704358D01*
X71681542Y-83733298D01*
X71823251Y-83832524D01*
X71828233Y-83834847D01*
X71828238Y-83834850D01*
X71996393Y-83913261D01*
X72030757Y-83929285D01*
X72036065Y-83930707D01*
X72036067Y-83930708D01*
X72246598Y-83987120D01*
X72246600Y-83987120D01*
X72251913Y-83988544D01*
X72480000Y-84008499D01*
X72708087Y-83988544D01*
X72713400Y-83987120D01*
X72713402Y-83987120D01*
X72923933Y-83930708D01*
X72923935Y-83930707D01*
X72929243Y-83929285D01*
X72963607Y-83913261D01*
X73131762Y-83834850D01*
X73131767Y-83834847D01*
X73136749Y-83832524D01*
X73278458Y-83733298D01*
X73319789Y-83704358D01*
X73319792Y-83704356D01*
X73324300Y-83701199D01*
X73486198Y-83539301D01*
X73617523Y-83351750D01*
X73619846Y-83346768D01*
X73619849Y-83346763D01*
X73635805Y-83312544D01*
X73682722Y-83259259D01*
X73750999Y-83239798D01*
X73818959Y-83260340D01*
X73864195Y-83312544D01*
X73880151Y-83346763D01*
X73880154Y-83346768D01*
X73882477Y-83351750D01*
X74013802Y-83539301D01*
X74175700Y-83701199D01*
X74180208Y-83704356D01*
X74180211Y-83704358D01*
X74221542Y-83733298D01*
X74363251Y-83832524D01*
X74368233Y-83834847D01*
X74368238Y-83834850D01*
X74536393Y-83913261D01*
X74570757Y-83929285D01*
X74576065Y-83930707D01*
X74576067Y-83930708D01*
X74786598Y-83987120D01*
X74786600Y-83987120D01*
X74791913Y-83988544D01*
X75020000Y-84008499D01*
X75248087Y-83988544D01*
X75253400Y-83987120D01*
X75253402Y-83987120D01*
X75463933Y-83930708D01*
X75463935Y-83930707D01*
X75469243Y-83929285D01*
X75503607Y-83913261D01*
X75671762Y-83834850D01*
X75671767Y-83834847D01*
X75676749Y-83832524D01*
X75818458Y-83733298D01*
X75859789Y-83704358D01*
X75859792Y-83704356D01*
X75864300Y-83701199D01*
X76026198Y-83539301D01*
X76029357Y-83534790D01*
X76032892Y-83530577D01*
X76034026Y-83531528D01*
X76084071Y-83491530D01*
X76154690Y-83484225D01*
X76218049Y-83516259D01*
X76254030Y-83577463D01*
X76257082Y-83594518D01*
X76258255Y-83605317D01*
X76309385Y-83741706D01*
X76396739Y-83858262D01*
X76513295Y-83945616D01*
X76649684Y-83996746D01*
X76711866Y-84003501D01*
X78408134Y-84003501D01*
X78470316Y-83996746D01*
X78606705Y-83945616D01*
X78723261Y-83858262D01*
X78810615Y-83741706D01*
X78861745Y-83605317D01*
X78868500Y-83543135D01*
X78868500Y-81846867D01*
X78861745Y-81784685D01*
X78810615Y-81648296D01*
X78723261Y-81531740D01*
X78606705Y-81444386D01*
X78470316Y-81393256D01*
X78408134Y-81386501D01*
X76711866Y-81386501D01*
X76649684Y-81393256D01*
X76513295Y-81444386D01*
X76396739Y-81531740D01*
X76309385Y-81648296D01*
X76258255Y-81784685D01*
X76257083Y-81795475D01*
X76256197Y-81797607D01*
X76255575Y-81800223D01*
X76255152Y-81800122D01*
X76229845Y-81861036D01*
X76171483Y-81901464D01*
X76100529Y-81903923D01*
X76039510Y-81867630D01*
X76032511Y-81858970D01*
X76029354Y-81855208D01*
X76026198Y-81850701D01*
X75864300Y-81688803D01*
X75859792Y-81685646D01*
X75859789Y-81685644D01*
X75756932Y-81613623D01*
X75676749Y-81557478D01*
X75671767Y-81555155D01*
X75671762Y-81555152D01*
X75474225Y-81463040D01*
X75474224Y-81463040D01*
X75469243Y-81460717D01*
X75463935Y-81459295D01*
X75463933Y-81459294D01*
X75253402Y-81402882D01*
X75253400Y-81402882D01*
X75248087Y-81401458D01*
X75020000Y-81381503D01*
X74791913Y-81401458D01*
X74786600Y-81402882D01*
X74786598Y-81402882D01*
X74576067Y-81459294D01*
X74576065Y-81459295D01*
X74570757Y-81460717D01*
X74565776Y-81463040D01*
X74565775Y-81463040D01*
X74368238Y-81555152D01*
X74368233Y-81555155D01*
X74363251Y-81557478D01*
X74283068Y-81613623D01*
X74180211Y-81685644D01*
X74180208Y-81685646D01*
X74175700Y-81688803D01*
X74013802Y-81850701D01*
X73882477Y-82038252D01*
X73880154Y-82043234D01*
X73880151Y-82043239D01*
X73864195Y-82077458D01*
X73817278Y-82130743D01*
X73749001Y-82150204D01*
X73681041Y-82129662D01*
X73635805Y-82077458D01*
X73619849Y-82043239D01*
X73619846Y-82043234D01*
X73617523Y-82038252D01*
X73486198Y-81850701D01*
X73324300Y-81688803D01*
X73319792Y-81685646D01*
X73319789Y-81685644D01*
X73216932Y-81613623D01*
X73136749Y-81557478D01*
X73131767Y-81555155D01*
X73131762Y-81555152D01*
X72934225Y-81463040D01*
X72934224Y-81463040D01*
X72929243Y-81460717D01*
X72923935Y-81459295D01*
X72923933Y-81459294D01*
X72713402Y-81402882D01*
X72713400Y-81402882D01*
X72708087Y-81401458D01*
X72480000Y-81381503D01*
X72251913Y-81401458D01*
X72246600Y-81402882D01*
X72246598Y-81402882D01*
X72036067Y-81459294D01*
X72036065Y-81459295D01*
X72030757Y-81460717D01*
X72025776Y-81463040D01*
X72025775Y-81463040D01*
X71828238Y-81555152D01*
X71828233Y-81555155D01*
X71823251Y-81557478D01*
X71743068Y-81613623D01*
X71640211Y-81685644D01*
X71640208Y-81685646D01*
X71635700Y-81688803D01*
X71473802Y-81850701D01*
X71342477Y-82038252D01*
X71340154Y-82043234D01*
X71340151Y-82043239D01*
X71324195Y-82077458D01*
X71277278Y-82130743D01*
X71209001Y-82150204D01*
X71141041Y-82129662D01*
X71095805Y-82077458D01*
X71079849Y-82043239D01*
X71079846Y-82043234D01*
X71077523Y-82038252D01*
X70946198Y-81850701D01*
X70784300Y-81688803D01*
X70779792Y-81685646D01*
X70779789Y-81685644D01*
X70676932Y-81613623D01*
X70596749Y-81557478D01*
X70591767Y-81555155D01*
X70591762Y-81555152D01*
X70394225Y-81463040D01*
X70394224Y-81463040D01*
X70389243Y-81460717D01*
X70383935Y-81459295D01*
X70383933Y-81459294D01*
X70173402Y-81402882D01*
X70173400Y-81402882D01*
X70168087Y-81401458D01*
X69940000Y-81381503D01*
X69711913Y-81401458D01*
X69706600Y-81402882D01*
X69706598Y-81402882D01*
X69496067Y-81459294D01*
X69496065Y-81459295D01*
X69490757Y-81460717D01*
X69485776Y-81463040D01*
X69485775Y-81463040D01*
X69288238Y-81555152D01*
X69288233Y-81555155D01*
X69283251Y-81557478D01*
X69203068Y-81613623D01*
X69100211Y-81685644D01*
X69100208Y-81685646D01*
X69095700Y-81688803D01*
X68933802Y-81850701D01*
X68802477Y-82038252D01*
X68800154Y-82043234D01*
X68800151Y-82043239D01*
X68719593Y-82215998D01*
X68705716Y-82245758D01*
X68704294Y-82251066D01*
X68704293Y-82251068D01*
X68651825Y-82446881D01*
X68646457Y-82466914D01*
X68626502Y-82695001D01*
X48453429Y-82695001D01*
X48453429Y-81064544D01*
X48446674Y-81002362D01*
X48395544Y-80865973D01*
X48308190Y-80749417D01*
X48191634Y-80662063D01*
X48055245Y-80610933D01*
X48055975Y-80608987D01*
X48003724Y-80579133D01*
X47970908Y-80516175D01*
X47977338Y-80445471D01*
X48005427Y-80402678D01*
X48151127Y-80256978D01*
X48282452Y-80069427D01*
X48283030Y-80068187D01*
X48333490Y-80020076D01*
X48403204Y-80006641D01*
X48423835Y-80010363D01*
X48511527Y-80033860D01*
X48511529Y-80033860D01*
X48516842Y-80035284D01*
X48744929Y-80055239D01*
X48973016Y-80035284D01*
X48978329Y-80033860D01*
X48978331Y-80033860D01*
X49188862Y-79977448D01*
X49188864Y-79977447D01*
X49194172Y-79976025D01*
X49199154Y-79973702D01*
X49396691Y-79881590D01*
X49396696Y-79881587D01*
X49401678Y-79879264D01*
X49506540Y-79805839D01*
X49584718Y-79751098D01*
X49584721Y-79751096D01*
X49589229Y-79747939D01*
X49751127Y-79586041D01*
X49882452Y-79398490D01*
X49884775Y-79393508D01*
X49884778Y-79393503D01*
X49976890Y-79195966D01*
X49976890Y-79195965D01*
X49979213Y-79190984D01*
X50038472Y-78969828D01*
X50058427Y-78741741D01*
X50038472Y-78513654D01*
X50037048Y-78508339D01*
X49980636Y-78297808D01*
X49980635Y-78297806D01*
X49979213Y-78292498D01*
X49926006Y-78178394D01*
X49884778Y-78089979D01*
X49884775Y-78089974D01*
X49882452Y-78084992D01*
X49751127Y-77897441D01*
X49589229Y-77735543D01*
X49584721Y-77732386D01*
X49584718Y-77732384D01*
X49506540Y-77677643D01*
X49401678Y-77604218D01*
X49396696Y-77601895D01*
X49396691Y-77601892D01*
X49199154Y-77509780D01*
X49199153Y-77509780D01*
X49194172Y-77507457D01*
X49188864Y-77506035D01*
X49188862Y-77506034D01*
X48978331Y-77449622D01*
X48978329Y-77449622D01*
X48973016Y-77448198D01*
X48744929Y-77428243D01*
X48516842Y-77448198D01*
X48511529Y-77449622D01*
X48511527Y-77449622D01*
X48300996Y-77506034D01*
X48300994Y-77506035D01*
X48295686Y-77507457D01*
X48290705Y-77509780D01*
X48290704Y-77509780D01*
X48093167Y-77601892D01*
X48093162Y-77601895D01*
X48088180Y-77604218D01*
X47983318Y-77677643D01*
X47905140Y-77732384D01*
X47905137Y-77732386D01*
X47900629Y-77735543D01*
X47738731Y-77897441D01*
X47607406Y-78084992D01*
X47606828Y-78086232D01*
X47556368Y-78134343D01*
X47486654Y-78147778D01*
X47466023Y-78144056D01*
X47378331Y-78120559D01*
X47378329Y-78120559D01*
X47373016Y-78119135D01*
X47144929Y-78099180D01*
X46916842Y-78119135D01*
X46911529Y-78120559D01*
X46911527Y-78120559D01*
X46700996Y-78176971D01*
X46700994Y-78176972D01*
X46695686Y-78178394D01*
X46690705Y-78180717D01*
X46690704Y-78180717D01*
X46493167Y-78272829D01*
X46493162Y-78272832D01*
X46488180Y-78275155D01*
X46383318Y-78348580D01*
X46305140Y-78403321D01*
X46305137Y-78403323D01*
X46300629Y-78406480D01*
X46138731Y-78568378D01*
X46007406Y-78755929D01*
X46005083Y-78760911D01*
X46005080Y-78760916D01*
X45912968Y-78958453D01*
X45910645Y-78963435D01*
X45851386Y-79184591D01*
X45831431Y-79412678D01*
X45851386Y-79640765D01*
X45910645Y-79861921D01*
X45912968Y-79866902D01*
X45912968Y-79866903D01*
X46005080Y-80064440D01*
X46005083Y-80064445D01*
X46007406Y-80069427D01*
X46138731Y-80256978D01*
X46284431Y-80402678D01*
X46318457Y-80464990D01*
X46313392Y-80535805D01*
X46270845Y-80592641D01*
X46234192Y-80609810D01*
X46234613Y-80610933D01*
X46098224Y-80662063D01*
X45981668Y-80749417D01*
X45894314Y-80865973D01*
X45843184Y-81002362D01*
X45836429Y-81064544D01*
X45836429Y-81149115D01*
X45816427Y-81217236D01*
X45762771Y-81263729D01*
X45710429Y-81275115D01*
X44696795Y-81275115D01*
X44634613Y-81281870D01*
X44498224Y-81333000D01*
X44381668Y-81420354D01*
X44294314Y-81536910D01*
X44243184Y-81673299D01*
X44236429Y-81735481D01*
X44236429Y-83431749D01*
X34347797Y-83431749D01*
X34382711Y-83374775D01*
X34385297Y-83370555D01*
X34393087Y-83351750D01*
X34474268Y-83155759D01*
X34474269Y-83155757D01*
X34476162Y-83151186D01*
X34509808Y-83011039D01*
X34530437Y-82925116D01*
X34530438Y-82925110D01*
X34531592Y-82920303D01*
X34550222Y-82683592D01*
X34531592Y-82446881D01*
X34522479Y-82408920D01*
X34495417Y-82296201D01*
X34476162Y-82215998D01*
X34474268Y-82211425D01*
X34387192Y-82001203D01*
X34387190Y-82001199D01*
X34385297Y-81996629D01*
X34382711Y-81992409D01*
X34263816Y-81798390D01*
X34263812Y-81798384D01*
X34261233Y-81794176D01*
X34107026Y-81613623D01*
X33926473Y-81459416D01*
X33922265Y-81456837D01*
X33922259Y-81456833D01*
X33728240Y-81337938D01*
X33724020Y-81335352D01*
X33719450Y-81333459D01*
X33719446Y-81333457D01*
X33509224Y-81246381D01*
X33509222Y-81246380D01*
X33504651Y-81244487D01*
X33424448Y-81225232D01*
X33278581Y-81190212D01*
X33278575Y-81190211D01*
X33273768Y-81189057D01*
X33037057Y-81170427D01*
X32800346Y-81189057D01*
X32795539Y-81190211D01*
X32795533Y-81190212D01*
X32649666Y-81225232D01*
X32569463Y-81244487D01*
X32564892Y-81246380D01*
X32564890Y-81246381D01*
X32354668Y-81333457D01*
X32354664Y-81333459D01*
X32350094Y-81335352D01*
X32345874Y-81337938D01*
X32151855Y-81456833D01*
X32151849Y-81456837D01*
X32147641Y-81459416D01*
X31967088Y-81613623D01*
X31812881Y-81794176D01*
X31810302Y-81798384D01*
X31810298Y-81798390D01*
X31691403Y-81992409D01*
X31688817Y-81996629D01*
X31686924Y-82001199D01*
X31686922Y-82001203D01*
X31599846Y-82211425D01*
X31597952Y-82215998D01*
X31578697Y-82296201D01*
X31551636Y-82408920D01*
X31542522Y-82446881D01*
X31523892Y-82683592D01*
X19468000Y-82683592D01*
X19468000Y-77024204D01*
X63456835Y-77024204D01*
X63475465Y-77260915D01*
X63530895Y-77491798D01*
X63532788Y-77496369D01*
X63532789Y-77496371D01*
X63577461Y-77604218D01*
X63621760Y-77711167D01*
X63624346Y-77715387D01*
X63743241Y-77909406D01*
X63743245Y-77909412D01*
X63745824Y-77913620D01*
X63900031Y-78094173D01*
X64080584Y-78248380D01*
X64084792Y-78250959D01*
X64084798Y-78250963D01*
X64278817Y-78369858D01*
X64283037Y-78372444D01*
X64287607Y-78374337D01*
X64287611Y-78374339D01*
X64497833Y-78461415D01*
X64502406Y-78463309D01*
X64582609Y-78482564D01*
X64728476Y-78517584D01*
X64728482Y-78517585D01*
X64733289Y-78518739D01*
X64970000Y-78537369D01*
X65206711Y-78518739D01*
X65211518Y-78517585D01*
X65211524Y-78517584D01*
X65357391Y-78482564D01*
X65437594Y-78463309D01*
X65442167Y-78461415D01*
X65652389Y-78374339D01*
X65652393Y-78374337D01*
X65656963Y-78372444D01*
X65661183Y-78369858D01*
X65855202Y-78250963D01*
X65855208Y-78250959D01*
X65859416Y-78248380D01*
X66039969Y-78094173D01*
X66194176Y-77913620D01*
X66196755Y-77909412D01*
X66196759Y-77909406D01*
X66315654Y-77715387D01*
X66318240Y-77711167D01*
X66362540Y-77604218D01*
X66407211Y-77496371D01*
X66407212Y-77496369D01*
X66409105Y-77491798D01*
X66464535Y-77260915D01*
X66483165Y-77024204D01*
X66464535Y-76787493D01*
X66409105Y-76556610D01*
X66318240Y-76337241D01*
X66236764Y-76204285D01*
X66196759Y-76139002D01*
X66196755Y-76138996D01*
X66194176Y-76134788D01*
X66039969Y-75954235D01*
X65859416Y-75800028D01*
X65855208Y-75797449D01*
X65855202Y-75797445D01*
X65661183Y-75678550D01*
X65656963Y-75675964D01*
X65652393Y-75674071D01*
X65652389Y-75674069D01*
X65442167Y-75586993D01*
X65442165Y-75586992D01*
X65437594Y-75585099D01*
X65357391Y-75565844D01*
X65211524Y-75530824D01*
X65211518Y-75530823D01*
X65206711Y-75529669D01*
X64970000Y-75511039D01*
X64733289Y-75529669D01*
X64728482Y-75530823D01*
X64728476Y-75530824D01*
X64582609Y-75565844D01*
X64502406Y-75585099D01*
X64497835Y-75586992D01*
X64497833Y-75586993D01*
X64287611Y-75674069D01*
X64287607Y-75674071D01*
X64283037Y-75675964D01*
X64278817Y-75678550D01*
X64084798Y-75797445D01*
X64084792Y-75797449D01*
X64080584Y-75800028D01*
X63900031Y-75954235D01*
X63745824Y-76134788D01*
X63743245Y-76138996D01*
X63743241Y-76139002D01*
X63703236Y-76204285D01*
X63621760Y-76337241D01*
X63530895Y-76556610D01*
X63475465Y-76787493D01*
X63456835Y-77024204D01*
X19468000Y-77024204D01*
X19468000Y-74970001D01*
X34546502Y-74970001D01*
X34566457Y-75198088D01*
X34625716Y-75419244D01*
X34628039Y-75424225D01*
X34628039Y-75424226D01*
X34720151Y-75621763D01*
X34720154Y-75621768D01*
X34722477Y-75626750D01*
X34853802Y-75814301D01*
X35015700Y-75976199D01*
X35020208Y-75979356D01*
X35020211Y-75979358D01*
X35098389Y-76034099D01*
X35203251Y-76107524D01*
X35208233Y-76109847D01*
X35208238Y-76109850D01*
X35405775Y-76201962D01*
X35410757Y-76204285D01*
X35416065Y-76205707D01*
X35416067Y-76205708D01*
X35626598Y-76262120D01*
X35626600Y-76262120D01*
X35631913Y-76263544D01*
X35860000Y-76283499D01*
X36088087Y-76263544D01*
X36093400Y-76262120D01*
X36093402Y-76262120D01*
X36303933Y-76205708D01*
X36303935Y-76205707D01*
X36309243Y-76204285D01*
X36314225Y-76201962D01*
X36511762Y-76109850D01*
X36511767Y-76109847D01*
X36516749Y-76107524D01*
X36621611Y-76034099D01*
X36699789Y-75979358D01*
X36699792Y-75979356D01*
X36704300Y-75976199D01*
X36866198Y-75814301D01*
X36997523Y-75626750D01*
X36999846Y-75621768D01*
X36999849Y-75621763D01*
X37091961Y-75424226D01*
X37091961Y-75424225D01*
X37094284Y-75419244D01*
X37153543Y-75198088D01*
X37173498Y-74970001D01*
X42166502Y-74970001D01*
X42186457Y-75198088D01*
X42245716Y-75419244D01*
X42248039Y-75424225D01*
X42248039Y-75424226D01*
X42340151Y-75621763D01*
X42340154Y-75621768D01*
X42342477Y-75626750D01*
X42473802Y-75814301D01*
X42635700Y-75976199D01*
X42640208Y-75979356D01*
X42640211Y-75979358D01*
X42718389Y-76034099D01*
X42823251Y-76107524D01*
X42828233Y-76109847D01*
X42828238Y-76109850D01*
X43025775Y-76201962D01*
X43030757Y-76204285D01*
X43036065Y-76205707D01*
X43036067Y-76205708D01*
X43246598Y-76262120D01*
X43246600Y-76262120D01*
X43251913Y-76263544D01*
X43480000Y-76283499D01*
X43708087Y-76263544D01*
X43713400Y-76262120D01*
X43713402Y-76262120D01*
X43923933Y-76205708D01*
X43923935Y-76205707D01*
X43929243Y-76204285D01*
X43934225Y-76201962D01*
X44131762Y-76109850D01*
X44131767Y-76109847D01*
X44136749Y-76107524D01*
X44241611Y-76034099D01*
X44319789Y-75979358D01*
X44319792Y-75979356D01*
X44324300Y-75976199D01*
X44486198Y-75814301D01*
X44617523Y-75626750D01*
X44619846Y-75621768D01*
X44619849Y-75621763D01*
X44711961Y-75424226D01*
X44711961Y-75424225D01*
X44714284Y-75419244D01*
X44773543Y-75198088D01*
X44793498Y-74970001D01*
X44773543Y-74741914D01*
X44714284Y-74520758D01*
X44652084Y-74387369D01*
X44619849Y-74318239D01*
X44619846Y-74318234D01*
X44617523Y-74313252D01*
X44486198Y-74125701D01*
X44324300Y-73963803D01*
X44319792Y-73960646D01*
X44319789Y-73960644D01*
X44241611Y-73905903D01*
X44136749Y-73832478D01*
X44131767Y-73830155D01*
X44131762Y-73830152D01*
X43934225Y-73738040D01*
X43934224Y-73738040D01*
X43929243Y-73735717D01*
X43923935Y-73734295D01*
X43923933Y-73734294D01*
X43713402Y-73677882D01*
X43713400Y-73677882D01*
X43708087Y-73676458D01*
X43480000Y-73656503D01*
X43251913Y-73676458D01*
X43246600Y-73677882D01*
X43246598Y-73677882D01*
X43036067Y-73734294D01*
X43036065Y-73734295D01*
X43030757Y-73735717D01*
X43025776Y-73738040D01*
X43025775Y-73738040D01*
X42828238Y-73830152D01*
X42828233Y-73830155D01*
X42823251Y-73832478D01*
X42718389Y-73905903D01*
X42640211Y-73960644D01*
X42640208Y-73960646D01*
X42635700Y-73963803D01*
X42473802Y-74125701D01*
X42342477Y-74313252D01*
X42340154Y-74318234D01*
X42340151Y-74318239D01*
X42307916Y-74387369D01*
X42245716Y-74520758D01*
X42186457Y-74741914D01*
X42166502Y-74970001D01*
X37173498Y-74970001D01*
X37153543Y-74741914D01*
X37094284Y-74520758D01*
X37032084Y-74387369D01*
X36999849Y-74318239D01*
X36999846Y-74318234D01*
X36997523Y-74313252D01*
X36866198Y-74125701D01*
X36704300Y-73963803D01*
X36699792Y-73960646D01*
X36699789Y-73960644D01*
X36621611Y-73905903D01*
X36516749Y-73832478D01*
X36511767Y-73830155D01*
X36511762Y-73830152D01*
X36314225Y-73738040D01*
X36314224Y-73738040D01*
X36309243Y-73735717D01*
X36303935Y-73734295D01*
X36303933Y-73734294D01*
X36093402Y-73677882D01*
X36093400Y-73677882D01*
X36088087Y-73676458D01*
X35860000Y-73656503D01*
X35631913Y-73676458D01*
X35626600Y-73677882D01*
X35626598Y-73677882D01*
X35416067Y-73734294D01*
X35416065Y-73734295D01*
X35410757Y-73735717D01*
X35405776Y-73738040D01*
X35405775Y-73738040D01*
X35208238Y-73830152D01*
X35208233Y-73830155D01*
X35203251Y-73832478D01*
X35098389Y-73905903D01*
X35020211Y-73960644D01*
X35020208Y-73960646D01*
X35015700Y-73963803D01*
X34853802Y-74125701D01*
X34722477Y-74313252D01*
X34720154Y-74318234D01*
X34720151Y-74318239D01*
X34687916Y-74387369D01*
X34625716Y-74520758D01*
X34566457Y-74741914D01*
X34546502Y-74970001D01*
X19468000Y-74970001D01*
X19468000Y-72955001D01*
X53136360Y-72955001D01*
X53156315Y-73183088D01*
X53157739Y-73188401D01*
X53157739Y-73188403D01*
X53208579Y-73378137D01*
X53215574Y-73404244D01*
X53217897Y-73409225D01*
X53217897Y-73409226D01*
X53310009Y-73606763D01*
X53310012Y-73606768D01*
X53312335Y-73611750D01*
X53344007Y-73656982D01*
X53429098Y-73778504D01*
X53443660Y-73799301D01*
X53605558Y-73961199D01*
X53610066Y-73964356D01*
X53610069Y-73964358D01*
X53614842Y-73967700D01*
X53793109Y-74092524D01*
X53798091Y-74094847D01*
X53798096Y-74094850D01*
X53956015Y-74168488D01*
X54000615Y-74189285D01*
X54005923Y-74190707D01*
X54005925Y-74190708D01*
X54216456Y-74247120D01*
X54216458Y-74247120D01*
X54221771Y-74248544D01*
X54449858Y-74268499D01*
X54677945Y-74248544D01*
X54683258Y-74247120D01*
X54683260Y-74247120D01*
X54893791Y-74190708D01*
X54893793Y-74190707D01*
X54899101Y-74189285D01*
X54943701Y-74168488D01*
X55101620Y-74094850D01*
X55101625Y-74094847D01*
X55106607Y-74092524D01*
X55284874Y-73967700D01*
X55289647Y-73964358D01*
X55289650Y-73964356D01*
X55294158Y-73961199D01*
X55456056Y-73799301D01*
X55470619Y-73778504D01*
X55555709Y-73656982D01*
X55587381Y-73611750D01*
X55589704Y-73606768D01*
X55589707Y-73606763D01*
X55681819Y-73409226D01*
X55681819Y-73409225D01*
X55684142Y-73404244D01*
X55691138Y-73378137D01*
X55741977Y-73188403D01*
X55741977Y-73188401D01*
X55743401Y-73183088D01*
X55763356Y-72955001D01*
X55758107Y-72895001D01*
X57609299Y-72895001D01*
X57627929Y-73131712D01*
X57629083Y-73136519D01*
X57629084Y-73136525D01*
X57653798Y-73239464D01*
X57683359Y-73362595D01*
X57685252Y-73367166D01*
X57685253Y-73367168D01*
X57767358Y-73565387D01*
X57774224Y-73581964D01*
X57776810Y-73586184D01*
X57895705Y-73780203D01*
X57895709Y-73780209D01*
X57898288Y-73784417D01*
X58052495Y-73964970D01*
X58233048Y-74119177D01*
X58237256Y-74121756D01*
X58237262Y-74121760D01*
X58404656Y-74224339D01*
X58435501Y-74243241D01*
X58440071Y-74245134D01*
X58440075Y-74245136D01*
X58616563Y-74318239D01*
X58654870Y-74334106D01*
X58735073Y-74353361D01*
X58880940Y-74388381D01*
X58880946Y-74388382D01*
X58885753Y-74389536D01*
X59122464Y-74408166D01*
X59359175Y-74389536D01*
X59363982Y-74388382D01*
X59363988Y-74388381D01*
X59509855Y-74353361D01*
X59590058Y-74334106D01*
X59628365Y-74318239D01*
X59804853Y-74245136D01*
X59804857Y-74245134D01*
X59809427Y-74243241D01*
X59840272Y-74224339D01*
X60007666Y-74121760D01*
X60007672Y-74121756D01*
X60011880Y-74119177D01*
X60192433Y-73964970D01*
X60346640Y-73784417D01*
X60349219Y-73780209D01*
X60349223Y-73780203D01*
X60468118Y-73586184D01*
X60470704Y-73581964D01*
X60477571Y-73565387D01*
X60559675Y-73367168D01*
X60559676Y-73367166D01*
X60561569Y-73362595D01*
X60591130Y-73239464D01*
X60615844Y-73136525D01*
X60615845Y-73136519D01*
X60616999Y-73131712D01*
X60635629Y-72895001D01*
X60633992Y-72874204D01*
X63456835Y-72874204D01*
X63475465Y-73110915D01*
X63476619Y-73115722D01*
X63476620Y-73115728D01*
X63506327Y-73239464D01*
X63530895Y-73341798D01*
X63532788Y-73346369D01*
X63532789Y-73346371D01*
X63541404Y-73367168D01*
X63621760Y-73561167D01*
X63624346Y-73565387D01*
X63743241Y-73759406D01*
X63743245Y-73759412D01*
X63745824Y-73763620D01*
X63900031Y-73944173D01*
X64080584Y-74098380D01*
X64084792Y-74100959D01*
X64084798Y-74100963D01*
X64231249Y-74190708D01*
X64283037Y-74222444D01*
X64287607Y-74224337D01*
X64287611Y-74224339D01*
X64394224Y-74268499D01*
X64502406Y-74313309D01*
X64581143Y-74332212D01*
X64728476Y-74367584D01*
X64728482Y-74367585D01*
X64733289Y-74368739D01*
X64970000Y-74387369D01*
X65206711Y-74368739D01*
X65211518Y-74367585D01*
X65211524Y-74367584D01*
X65358857Y-74332212D01*
X65437594Y-74313309D01*
X65545776Y-74268499D01*
X65652389Y-74224339D01*
X65652393Y-74224337D01*
X65656963Y-74222444D01*
X65708751Y-74190708D01*
X65855202Y-74100963D01*
X65855208Y-74100959D01*
X65859416Y-74098380D01*
X66039969Y-73944173D01*
X66194176Y-73763620D01*
X66196755Y-73759412D01*
X66196759Y-73759406D01*
X66315654Y-73565387D01*
X66318240Y-73561167D01*
X66398597Y-73367168D01*
X66407211Y-73346371D01*
X66407212Y-73346369D01*
X66409105Y-73341798D01*
X66433673Y-73239464D01*
X66463380Y-73115728D01*
X66463381Y-73115722D01*
X66464535Y-73110915D01*
X66478443Y-72934204D01*
X68306502Y-72934204D01*
X68326457Y-73162291D01*
X68327881Y-73167604D01*
X68327881Y-73167606D01*
X68366671Y-73312369D01*
X68385716Y-73383447D01*
X68388039Y-73388428D01*
X68388039Y-73388429D01*
X68480151Y-73585966D01*
X68480154Y-73585971D01*
X68482477Y-73590953D01*
X68613802Y-73778504D01*
X68775700Y-73940402D01*
X68780208Y-73943559D01*
X68780211Y-73943561D01*
X68814685Y-73967700D01*
X68963251Y-74071727D01*
X68968233Y-74074050D01*
X68968238Y-74074053D01*
X69078999Y-74125701D01*
X69170757Y-74168488D01*
X69176065Y-74169910D01*
X69176067Y-74169911D01*
X69386598Y-74226323D01*
X69386600Y-74226323D01*
X69391913Y-74227747D01*
X69620000Y-74247702D01*
X69848087Y-74227747D01*
X69853400Y-74226323D01*
X69853402Y-74226323D01*
X70063933Y-74169911D01*
X70063935Y-74169910D01*
X70069243Y-74168488D01*
X70161001Y-74125701D01*
X70271762Y-74074053D01*
X70271767Y-74074050D01*
X70276749Y-74071727D01*
X70425315Y-73967700D01*
X70459789Y-73943561D01*
X70459792Y-73943559D01*
X70464300Y-73940402D01*
X70626198Y-73778504D01*
X70757523Y-73590953D01*
X70759846Y-73585971D01*
X70759849Y-73585966D01*
X70851961Y-73388429D01*
X70851961Y-73388428D01*
X70854284Y-73383447D01*
X70873330Y-73312369D01*
X70912119Y-73167606D01*
X70912119Y-73167604D01*
X70913543Y-73162291D01*
X70933498Y-72934204D01*
X82726502Y-72934204D01*
X82746457Y-73162291D01*
X82747881Y-73167604D01*
X82747881Y-73167606D01*
X82786671Y-73312369D01*
X82805716Y-73383447D01*
X82808039Y-73388428D01*
X82808039Y-73388429D01*
X82900151Y-73585966D01*
X82900154Y-73585971D01*
X82902477Y-73590953D01*
X83033802Y-73778504D01*
X83195700Y-73940402D01*
X83200208Y-73943559D01*
X83200211Y-73943561D01*
X83234685Y-73967700D01*
X83383251Y-74071727D01*
X83388233Y-74074050D01*
X83388238Y-74074053D01*
X83498999Y-74125701D01*
X83590757Y-74168488D01*
X83596065Y-74169910D01*
X83596067Y-74169911D01*
X83806598Y-74226323D01*
X83806600Y-74226323D01*
X83811913Y-74227747D01*
X84040000Y-74247702D01*
X84268087Y-74227747D01*
X84273400Y-74226323D01*
X84273402Y-74226323D01*
X84483933Y-74169911D01*
X84483935Y-74169910D01*
X84489243Y-74168488D01*
X84581001Y-74125701D01*
X84691762Y-74074053D01*
X84691767Y-74074050D01*
X84696749Y-74071727D01*
X84845315Y-73967700D01*
X84879789Y-73943561D01*
X84879792Y-73943559D01*
X84884300Y-73940402D01*
X85046198Y-73778504D01*
X85177523Y-73590953D01*
X85179846Y-73585971D01*
X85179849Y-73585966D01*
X85271961Y-73388429D01*
X85271961Y-73388428D01*
X85274284Y-73383447D01*
X85293330Y-73312369D01*
X85332119Y-73167606D01*
X85332119Y-73167604D01*
X85333543Y-73162291D01*
X85353498Y-72934204D01*
X85333543Y-72706117D01*
X85330524Y-72694849D01*
X85275707Y-72490271D01*
X85275706Y-72490269D01*
X85274284Y-72484961D01*
X85249690Y-72432219D01*
X85179849Y-72282442D01*
X85179846Y-72282437D01*
X85177523Y-72277455D01*
X85063919Y-72115212D01*
X85049357Y-72094415D01*
X85049355Y-72094412D01*
X85046198Y-72089904D01*
X84884300Y-71928006D01*
X84879792Y-71924849D01*
X84879789Y-71924847D01*
X84801611Y-71870106D01*
X84700352Y-71799204D01*
X87331835Y-71799204D01*
X87350465Y-72035915D01*
X87351619Y-72040722D01*
X87351620Y-72040728D01*
X87365100Y-72096876D01*
X87405895Y-72266798D01*
X87407788Y-72271369D01*
X87407789Y-72271371D01*
X87494197Y-72479979D01*
X87496760Y-72486167D01*
X87499346Y-72490387D01*
X87618241Y-72684406D01*
X87618245Y-72684412D01*
X87620824Y-72688620D01*
X87775031Y-72869173D01*
X87778787Y-72872381D01*
X87786694Y-72879134D01*
X87955584Y-73023380D01*
X87959792Y-73025959D01*
X87959798Y-73025963D01*
X88090376Y-73105981D01*
X88158037Y-73147444D01*
X88162607Y-73149337D01*
X88162611Y-73149339D01*
X88256921Y-73188403D01*
X88377406Y-73238309D01*
X88457609Y-73257564D01*
X88603476Y-73292584D01*
X88603482Y-73292585D01*
X88608289Y-73293739D01*
X88845000Y-73312369D01*
X89081711Y-73293739D01*
X89086518Y-73292585D01*
X89086524Y-73292584D01*
X89232391Y-73257564D01*
X89312594Y-73238309D01*
X89433079Y-73188403D01*
X89527389Y-73149339D01*
X89527393Y-73149337D01*
X89531963Y-73147444D01*
X89599624Y-73105981D01*
X89730202Y-73025963D01*
X89730208Y-73025959D01*
X89734416Y-73023380D01*
X89903306Y-72879134D01*
X89911213Y-72872381D01*
X89914969Y-72869173D01*
X90069176Y-72688620D01*
X90071755Y-72684412D01*
X90071759Y-72684406D01*
X90190654Y-72490387D01*
X90193240Y-72486167D01*
X90195804Y-72479979D01*
X90282211Y-72271371D01*
X90282212Y-72271369D01*
X90284105Y-72266798D01*
X90324900Y-72096876D01*
X90338380Y-72040728D01*
X90338381Y-72040722D01*
X90339535Y-72035915D01*
X90358165Y-71799204D01*
X90339535Y-71562493D01*
X90337737Y-71555000D01*
X90285260Y-71336422D01*
X90284105Y-71331610D01*
X90282211Y-71327037D01*
X90195135Y-71116815D01*
X90195133Y-71116811D01*
X90193240Y-71112241D01*
X90175702Y-71083622D01*
X90071759Y-70914002D01*
X90071755Y-70913996D01*
X90069176Y-70909788D01*
X89914969Y-70729235D01*
X89734416Y-70575028D01*
X89730208Y-70572449D01*
X89730202Y-70572445D01*
X89536183Y-70453550D01*
X89531963Y-70450964D01*
X89527393Y-70449071D01*
X89527389Y-70449069D01*
X89317167Y-70361993D01*
X89317165Y-70361992D01*
X89312594Y-70360099D01*
X89232391Y-70340844D01*
X89086524Y-70305824D01*
X89086518Y-70305823D01*
X89081711Y-70304669D01*
X88845000Y-70286039D01*
X88608289Y-70304669D01*
X88603482Y-70305823D01*
X88603476Y-70305824D01*
X88457609Y-70340844D01*
X88377406Y-70360099D01*
X88372835Y-70361992D01*
X88372833Y-70361993D01*
X88162611Y-70449069D01*
X88162607Y-70449071D01*
X88158037Y-70450964D01*
X88153817Y-70453550D01*
X87959798Y-70572445D01*
X87959792Y-70572449D01*
X87955584Y-70575028D01*
X87775031Y-70729235D01*
X87620824Y-70909788D01*
X87618245Y-70913996D01*
X87618241Y-70914002D01*
X87514298Y-71083622D01*
X87496760Y-71112241D01*
X87494867Y-71116811D01*
X87494865Y-71116815D01*
X87407789Y-71327037D01*
X87405895Y-71331610D01*
X87404740Y-71336422D01*
X87352264Y-71555000D01*
X87350465Y-71562493D01*
X87331835Y-71799204D01*
X84700352Y-71799204D01*
X84696749Y-71796681D01*
X84691767Y-71794358D01*
X84691762Y-71794355D01*
X84494225Y-71702243D01*
X84494224Y-71702243D01*
X84489243Y-71699920D01*
X84483935Y-71698498D01*
X84483933Y-71698497D01*
X84273402Y-71642085D01*
X84273400Y-71642085D01*
X84268087Y-71640661D01*
X84040000Y-71620706D01*
X83811913Y-71640661D01*
X83806600Y-71642085D01*
X83806598Y-71642085D01*
X83596067Y-71698497D01*
X83596065Y-71698498D01*
X83590757Y-71699920D01*
X83585776Y-71702243D01*
X83585775Y-71702243D01*
X83388238Y-71794355D01*
X83388233Y-71794358D01*
X83383251Y-71796681D01*
X83278389Y-71870106D01*
X83200211Y-71924847D01*
X83200208Y-71924849D01*
X83195700Y-71928006D01*
X83033802Y-72089904D01*
X83030645Y-72094412D01*
X83030643Y-72094415D01*
X83016081Y-72115212D01*
X82902477Y-72277455D01*
X82900154Y-72282437D01*
X82900151Y-72282442D01*
X82830310Y-72432219D01*
X82805716Y-72484961D01*
X82804294Y-72490269D01*
X82804293Y-72490271D01*
X82749476Y-72694849D01*
X82746457Y-72706117D01*
X82726502Y-72934204D01*
X70933498Y-72934204D01*
X70913543Y-72706117D01*
X70910524Y-72694849D01*
X70855707Y-72490271D01*
X70855706Y-72490269D01*
X70854284Y-72484961D01*
X70829690Y-72432219D01*
X70759849Y-72282442D01*
X70759846Y-72282437D01*
X70757523Y-72277455D01*
X70643919Y-72115212D01*
X70629357Y-72094415D01*
X70629355Y-72094412D01*
X70626198Y-72089904D01*
X70464300Y-71928006D01*
X70459792Y-71924849D01*
X70459789Y-71924847D01*
X70381611Y-71870106D01*
X70276749Y-71796681D01*
X70271767Y-71794358D01*
X70271762Y-71794355D01*
X70200128Y-71760952D01*
X73921500Y-71760952D01*
X73928255Y-71823134D01*
X73979385Y-71959523D01*
X74066739Y-72076079D01*
X74183295Y-72163433D01*
X74319684Y-72214563D01*
X74381866Y-72221318D01*
X76078134Y-72221318D01*
X76140316Y-72214563D01*
X76276705Y-72163433D01*
X76393261Y-72076079D01*
X76480615Y-71959523D01*
X76531745Y-71823134D01*
X76538500Y-71760952D01*
X76538500Y-71676381D01*
X76558502Y-71608260D01*
X76612158Y-71561767D01*
X76664500Y-71550381D01*
X77678134Y-71550381D01*
X77740316Y-71543626D01*
X77876705Y-71492496D01*
X77993261Y-71405142D01*
X78080615Y-71288586D01*
X78131745Y-71152197D01*
X78138500Y-71090015D01*
X78138500Y-69393747D01*
X78131745Y-69331565D01*
X78080615Y-69195176D01*
X77993261Y-69078620D01*
X77876705Y-68991266D01*
X77740316Y-68940136D01*
X77741046Y-68938190D01*
X77688795Y-68908336D01*
X77655979Y-68845378D01*
X77662409Y-68774674D01*
X77690498Y-68731881D01*
X77836198Y-68586181D01*
X77843805Y-68575318D01*
X77953212Y-68419068D01*
X77967523Y-68398630D01*
X77968101Y-68397390D01*
X78018561Y-68349279D01*
X78088275Y-68335844D01*
X78108906Y-68339566D01*
X78196598Y-68363063D01*
X78196600Y-68363063D01*
X78201913Y-68364487D01*
X78430000Y-68384442D01*
X78658087Y-68364487D01*
X78663400Y-68363063D01*
X78663402Y-68363063D01*
X78873933Y-68306651D01*
X78873935Y-68306650D01*
X78879243Y-68305228D01*
X78884225Y-68302905D01*
X79081762Y-68210793D01*
X79081767Y-68210790D01*
X79086749Y-68208467D01*
X79274300Y-68077142D01*
X79436198Y-67915244D01*
X79567523Y-67727693D01*
X79569846Y-67722711D01*
X79569849Y-67722706D01*
X79661961Y-67525169D01*
X79661961Y-67525168D01*
X79664284Y-67520187D01*
X79717971Y-67319828D01*
X79722119Y-67304346D01*
X79722119Y-67304344D01*
X79723543Y-67299031D01*
X79743498Y-67070944D01*
X79723543Y-66842857D01*
X79715118Y-66811415D01*
X79665707Y-66627011D01*
X79665706Y-66627009D01*
X79664284Y-66621701D01*
X79657113Y-66606323D01*
X79569849Y-66419182D01*
X79569846Y-66419177D01*
X79567523Y-66414195D01*
X79458214Y-66258086D01*
X79439357Y-66231155D01*
X79439355Y-66231152D01*
X79436198Y-66226644D01*
X79274300Y-66064746D01*
X79269792Y-66061589D01*
X79269789Y-66061587D01*
X79162929Y-65986763D01*
X79086749Y-65933421D01*
X79081767Y-65931098D01*
X79081762Y-65931095D01*
X78884225Y-65838983D01*
X78884224Y-65838983D01*
X78879243Y-65836660D01*
X78873935Y-65835238D01*
X78873933Y-65835237D01*
X78663402Y-65778825D01*
X78663400Y-65778825D01*
X78658087Y-65777401D01*
X78430000Y-65757446D01*
X78201913Y-65777401D01*
X78196600Y-65778825D01*
X78196598Y-65778825D01*
X77986067Y-65835237D01*
X77986065Y-65835238D01*
X77980757Y-65836660D01*
X77975776Y-65838983D01*
X77975775Y-65838983D01*
X77778238Y-65931095D01*
X77778233Y-65931098D01*
X77773251Y-65933421D01*
X77697071Y-65986763D01*
X77590211Y-66061587D01*
X77590208Y-66061589D01*
X77585700Y-66064746D01*
X77423802Y-66226644D01*
X77420645Y-66231152D01*
X77420643Y-66231155D01*
X77397911Y-66263620D01*
X77292477Y-66414195D01*
X77291899Y-66415435D01*
X77241439Y-66463546D01*
X77171725Y-66476981D01*
X77151094Y-66473259D01*
X77063402Y-66449762D01*
X77063400Y-66449762D01*
X77058087Y-66448338D01*
X76830000Y-66428383D01*
X76601913Y-66448338D01*
X76596600Y-66449762D01*
X76596598Y-66449762D01*
X76386067Y-66506174D01*
X76386065Y-66506175D01*
X76380757Y-66507597D01*
X76375776Y-66509920D01*
X76375775Y-66509920D01*
X76178238Y-66602032D01*
X76178233Y-66602035D01*
X76173251Y-66604358D01*
X76068389Y-66677783D01*
X75990211Y-66732524D01*
X75990208Y-66732526D01*
X75985700Y-66735683D01*
X75823802Y-66897581D01*
X75820645Y-66902089D01*
X75820643Y-66902092D01*
X75789834Y-66946092D01*
X75692477Y-67085132D01*
X75690154Y-67090114D01*
X75690151Y-67090119D01*
X75614525Y-67252301D01*
X75595716Y-67292638D01*
X75594294Y-67297946D01*
X75594293Y-67297948D01*
X75588430Y-67319828D01*
X75536457Y-67513794D01*
X75516502Y-67741881D01*
X75536457Y-67969968D01*
X75537881Y-67975281D01*
X75537881Y-67975283D01*
X75542030Y-67990765D01*
X75595716Y-68191124D01*
X75598039Y-68196105D01*
X75598039Y-68196106D01*
X75690151Y-68393643D01*
X75690154Y-68393648D01*
X75692477Y-68398630D01*
X75747434Y-68477116D01*
X75816196Y-68575318D01*
X75823802Y-68586181D01*
X75969502Y-68731881D01*
X76003528Y-68794193D01*
X75998463Y-68865008D01*
X75955916Y-68921844D01*
X75919263Y-68939013D01*
X75919684Y-68940136D01*
X75783295Y-68991266D01*
X75666739Y-69078620D01*
X75579385Y-69195176D01*
X75528255Y-69331565D01*
X75521500Y-69393747D01*
X75521500Y-69478318D01*
X75501498Y-69546439D01*
X75447842Y-69592932D01*
X75395500Y-69604318D01*
X74381866Y-69604318D01*
X74319684Y-69611073D01*
X74183295Y-69662203D01*
X74066739Y-69749557D01*
X73979385Y-69866113D01*
X73928255Y-70002502D01*
X73921500Y-70064684D01*
X73921500Y-71760952D01*
X70200128Y-71760952D01*
X70074225Y-71702243D01*
X70074224Y-71702243D01*
X70069243Y-71699920D01*
X70063935Y-71698498D01*
X70063933Y-71698497D01*
X69853402Y-71642085D01*
X69853400Y-71642085D01*
X69848087Y-71640661D01*
X69620000Y-71620706D01*
X69391913Y-71640661D01*
X69386600Y-71642085D01*
X69386598Y-71642085D01*
X69176067Y-71698497D01*
X69176065Y-71698498D01*
X69170757Y-71699920D01*
X69165776Y-71702243D01*
X69165775Y-71702243D01*
X68968238Y-71794355D01*
X68968233Y-71794358D01*
X68963251Y-71796681D01*
X68858389Y-71870106D01*
X68780211Y-71924847D01*
X68780208Y-71924849D01*
X68775700Y-71928006D01*
X68613802Y-72089904D01*
X68610645Y-72094412D01*
X68610643Y-72094415D01*
X68596081Y-72115212D01*
X68482477Y-72277455D01*
X68480154Y-72282437D01*
X68480151Y-72282442D01*
X68410310Y-72432219D01*
X68385716Y-72484961D01*
X68384294Y-72490269D01*
X68384293Y-72490271D01*
X68329476Y-72694849D01*
X68326457Y-72706117D01*
X68306502Y-72934204D01*
X66478443Y-72934204D01*
X66483165Y-72874204D01*
X66464535Y-72637493D01*
X66409105Y-72406610D01*
X66362355Y-72293744D01*
X66320135Y-72191815D01*
X66320133Y-72191811D01*
X66318240Y-72187241D01*
X66300350Y-72158047D01*
X66196759Y-71989002D01*
X66196755Y-71988996D01*
X66194176Y-71984788D01*
X66039969Y-71804235D01*
X66034079Y-71799204D01*
X66013641Y-71781749D01*
X65859416Y-71650028D01*
X65855208Y-71647449D01*
X65855202Y-71647445D01*
X65661183Y-71528550D01*
X65656963Y-71525964D01*
X65652393Y-71524071D01*
X65652389Y-71524069D01*
X65442167Y-71436993D01*
X65442165Y-71436992D01*
X65437594Y-71435099D01*
X65357391Y-71415844D01*
X65211524Y-71380824D01*
X65211518Y-71380823D01*
X65206711Y-71379669D01*
X64970000Y-71361039D01*
X64733289Y-71379669D01*
X64728482Y-71380823D01*
X64728476Y-71380824D01*
X64582609Y-71415844D01*
X64502406Y-71435099D01*
X64497835Y-71436992D01*
X64497833Y-71436993D01*
X64287611Y-71524069D01*
X64287607Y-71524071D01*
X64283037Y-71525964D01*
X64278817Y-71528550D01*
X64084798Y-71647445D01*
X64084792Y-71647449D01*
X64080584Y-71650028D01*
X63926359Y-71781749D01*
X63905922Y-71799204D01*
X63900031Y-71804235D01*
X63745824Y-71984788D01*
X63743245Y-71988996D01*
X63743241Y-71989002D01*
X63639650Y-72158047D01*
X63621760Y-72187241D01*
X63619867Y-72191811D01*
X63619865Y-72191815D01*
X63577645Y-72293744D01*
X63530895Y-72406610D01*
X63475465Y-72637493D01*
X63456835Y-72874204D01*
X60633992Y-72874204D01*
X60616999Y-72658290D01*
X60612007Y-72637493D01*
X60562724Y-72432219D01*
X60561569Y-72427407D01*
X60551541Y-72403197D01*
X60472599Y-72212612D01*
X60472597Y-72212608D01*
X60470704Y-72208038D01*
X60468118Y-72203818D01*
X60349223Y-72009799D01*
X60349219Y-72009793D01*
X60346640Y-72005585D01*
X60192433Y-71825032D01*
X60011880Y-71670825D01*
X60007672Y-71668246D01*
X60007666Y-71668242D01*
X59813647Y-71549347D01*
X59809427Y-71546761D01*
X59804857Y-71544868D01*
X59804853Y-71544866D01*
X59594631Y-71457790D01*
X59594629Y-71457789D01*
X59590058Y-71455896D01*
X59498621Y-71433944D01*
X59363988Y-71401621D01*
X59363982Y-71401620D01*
X59359175Y-71400466D01*
X59122464Y-71381836D01*
X58885753Y-71400466D01*
X58880946Y-71401620D01*
X58880940Y-71401621D01*
X58746307Y-71433944D01*
X58654870Y-71455896D01*
X58650299Y-71457789D01*
X58650297Y-71457790D01*
X58440075Y-71544866D01*
X58440071Y-71544868D01*
X58435501Y-71546761D01*
X58431281Y-71549347D01*
X58237262Y-71668242D01*
X58237256Y-71668246D01*
X58233048Y-71670825D01*
X58052495Y-71825032D01*
X57898288Y-72005585D01*
X57895709Y-72009793D01*
X57895705Y-72009799D01*
X57776810Y-72203818D01*
X57774224Y-72208038D01*
X57772331Y-72212608D01*
X57772329Y-72212612D01*
X57693387Y-72403197D01*
X57683359Y-72427407D01*
X57682204Y-72432219D01*
X57632922Y-72637493D01*
X57627929Y-72658290D01*
X57609299Y-72895001D01*
X55758107Y-72895001D01*
X55743401Y-72726914D01*
X55739297Y-72711597D01*
X55685565Y-72511068D01*
X55685564Y-72511066D01*
X55684142Y-72505758D01*
X55681819Y-72500776D01*
X55589707Y-72303239D01*
X55589704Y-72303234D01*
X55587381Y-72298252D01*
X55495187Y-72166585D01*
X55459215Y-72115212D01*
X55459213Y-72115209D01*
X55456056Y-72110701D01*
X55294158Y-71948803D01*
X55289650Y-71945646D01*
X55289647Y-71945644D01*
X55211469Y-71890903D01*
X55106607Y-71817478D01*
X55101625Y-71815155D01*
X55101620Y-71815152D01*
X54904083Y-71723040D01*
X54904082Y-71723040D01*
X54899101Y-71720717D01*
X54893793Y-71719295D01*
X54893791Y-71719294D01*
X54683260Y-71662882D01*
X54683258Y-71662882D01*
X54677945Y-71661458D01*
X54449858Y-71641503D01*
X54221771Y-71661458D01*
X54216458Y-71662882D01*
X54216456Y-71662882D01*
X54005925Y-71719294D01*
X54005923Y-71719295D01*
X54000615Y-71720717D01*
X53995634Y-71723040D01*
X53995633Y-71723040D01*
X53798096Y-71815152D01*
X53798091Y-71815155D01*
X53793109Y-71817478D01*
X53688247Y-71890903D01*
X53610069Y-71945644D01*
X53610066Y-71945646D01*
X53605558Y-71948803D01*
X53443660Y-72110701D01*
X53440503Y-72115209D01*
X53440501Y-72115212D01*
X53404529Y-72166585D01*
X53312335Y-72298252D01*
X53310012Y-72303234D01*
X53310009Y-72303239D01*
X53217897Y-72500776D01*
X53215574Y-72505758D01*
X53214152Y-72511066D01*
X53214151Y-72511068D01*
X53160419Y-72711597D01*
X53156315Y-72726914D01*
X53136360Y-72955001D01*
X19468000Y-72955001D01*
X19468000Y-70210469D01*
X22535088Y-70210469D01*
X22535385Y-70215622D01*
X22535385Y-70215625D01*
X22547206Y-70420634D01*
X22548420Y-70441697D01*
X22549557Y-70446743D01*
X22549558Y-70446749D01*
X22572557Y-70548802D01*
X22599339Y-70667642D01*
X22601281Y-70672424D01*
X22601282Y-70672428D01*
X22684533Y-70877450D01*
X22686477Y-70882237D01*
X22807494Y-71079719D01*
X22959140Y-71254784D01*
X23137342Y-71402730D01*
X23337315Y-71519584D01*
X23553687Y-71602209D01*
X23558753Y-71603240D01*
X23558754Y-71603240D01*
X23611839Y-71614040D01*
X23780649Y-71648385D01*
X23911317Y-71653176D01*
X24006942Y-71656683D01*
X24006946Y-71656683D01*
X24012106Y-71656872D01*
X24017226Y-71656216D01*
X24017228Y-71656216D01*
X24090263Y-71646860D01*
X24241840Y-71627442D01*
X24246788Y-71625957D01*
X24246795Y-71625956D01*
X24458740Y-71562369D01*
X24463683Y-71560886D01*
X24468317Y-71558616D01*
X24667042Y-71461262D01*
X24667045Y-71461260D01*
X24671677Y-71458991D01*
X24860236Y-71324494D01*
X25024296Y-71161005D01*
X25093363Y-71064888D01*
X25149358Y-71021240D01*
X25220061Y-71014794D01*
X25283026Y-71047597D01*
X25303121Y-71072584D01*
X25304792Y-71075311D01*
X25304797Y-71075317D01*
X25307494Y-71079719D01*
X25459140Y-71254784D01*
X25637342Y-71402730D01*
X25837315Y-71519584D01*
X26053687Y-71602209D01*
X26058753Y-71603240D01*
X26058754Y-71603240D01*
X26111839Y-71614040D01*
X26280649Y-71648385D01*
X26411317Y-71653176D01*
X26506942Y-71656683D01*
X26506946Y-71656683D01*
X26512106Y-71656872D01*
X26517226Y-71656216D01*
X26517228Y-71656216D01*
X26590263Y-71646860D01*
X26741840Y-71627442D01*
X26746788Y-71625957D01*
X26746795Y-71625956D01*
X26958740Y-71562369D01*
X26963683Y-71560886D01*
X26968317Y-71558616D01*
X26975698Y-71555000D01*
X29374027Y-71555000D01*
X29393982Y-71783087D01*
X29395406Y-71788400D01*
X29395406Y-71788402D01*
X29406228Y-71828788D01*
X29453241Y-72004243D01*
X29455564Y-72009224D01*
X29455564Y-72009225D01*
X29547676Y-72206762D01*
X29547679Y-72206767D01*
X29550002Y-72211749D01*
X29681327Y-72399300D01*
X29843225Y-72561198D01*
X29847733Y-72564355D01*
X29847736Y-72564357D01*
X29925914Y-72619098D01*
X30030776Y-72692523D01*
X30035758Y-72694846D01*
X30035763Y-72694849D01*
X30233300Y-72786961D01*
X30238282Y-72789284D01*
X30243590Y-72790706D01*
X30243592Y-72790707D01*
X30454123Y-72847119D01*
X30454125Y-72847119D01*
X30459438Y-72848543D01*
X30687525Y-72868498D01*
X30915612Y-72848543D01*
X30920925Y-72847119D01*
X30920927Y-72847119D01*
X31131458Y-72790707D01*
X31131460Y-72790706D01*
X31136768Y-72789284D01*
X31141750Y-72786961D01*
X31339287Y-72694849D01*
X31339292Y-72694846D01*
X31344274Y-72692523D01*
X31449136Y-72619098D01*
X31527314Y-72564357D01*
X31527317Y-72564355D01*
X31531825Y-72561198D01*
X31693723Y-72399300D01*
X31825048Y-72211749D01*
X31827371Y-72206767D01*
X31827374Y-72206762D01*
X31919486Y-72009225D01*
X31919486Y-72009224D01*
X31921809Y-72004243D01*
X31968823Y-71828788D01*
X31979644Y-71788402D01*
X31979644Y-71788400D01*
X31981068Y-71783087D01*
X32001023Y-71555000D01*
X32763559Y-71555000D01*
X32783514Y-71783087D01*
X32784938Y-71788400D01*
X32784938Y-71788402D01*
X32795760Y-71828788D01*
X32842773Y-72004243D01*
X32845096Y-72009224D01*
X32845096Y-72009225D01*
X32937208Y-72206762D01*
X32937211Y-72206767D01*
X32939534Y-72211749D01*
X33070859Y-72399300D01*
X33232757Y-72561198D01*
X33237265Y-72564355D01*
X33237268Y-72564357D01*
X33315446Y-72619098D01*
X33420308Y-72692523D01*
X33425290Y-72694846D01*
X33425295Y-72694849D01*
X33622832Y-72786961D01*
X33627814Y-72789284D01*
X33633122Y-72790706D01*
X33633124Y-72790707D01*
X33843655Y-72847119D01*
X33843657Y-72847119D01*
X33848970Y-72848543D01*
X34077057Y-72868498D01*
X34305144Y-72848543D01*
X34310457Y-72847119D01*
X34310459Y-72847119D01*
X34520990Y-72790707D01*
X34520992Y-72790706D01*
X34526300Y-72789284D01*
X34531282Y-72786961D01*
X34728819Y-72694849D01*
X34728824Y-72694846D01*
X34733806Y-72692523D01*
X34838668Y-72619098D01*
X34916846Y-72564357D01*
X34916849Y-72564355D01*
X34921357Y-72561198D01*
X35083255Y-72399300D01*
X35214580Y-72211749D01*
X35216903Y-72206767D01*
X35216906Y-72206762D01*
X35309018Y-72009225D01*
X35309018Y-72009224D01*
X35311341Y-72004243D01*
X35358355Y-71828788D01*
X35369176Y-71788402D01*
X35369176Y-71788400D01*
X35370600Y-71783087D01*
X35370717Y-71781749D01*
X44236429Y-71781749D01*
X44243184Y-71843931D01*
X44294314Y-71980320D01*
X44381668Y-72096876D01*
X44498224Y-72184230D01*
X44634613Y-72235360D01*
X44696795Y-72242115D01*
X46393063Y-72242115D01*
X46455245Y-72235360D01*
X46591634Y-72184230D01*
X46708190Y-72096876D01*
X46795544Y-71980320D01*
X46846674Y-71843931D01*
X46853429Y-71781749D01*
X46853429Y-71697178D01*
X46873431Y-71629057D01*
X46927087Y-71582564D01*
X46979429Y-71571178D01*
X47993063Y-71571178D01*
X48055245Y-71564423D01*
X48191634Y-71513293D01*
X48308190Y-71425939D01*
X48395544Y-71309383D01*
X48446674Y-71172994D01*
X48453429Y-71110812D01*
X48453429Y-69414544D01*
X48446674Y-69352362D01*
X48395544Y-69215973D01*
X48308190Y-69099417D01*
X48191634Y-69012063D01*
X48055245Y-68960933D01*
X48055975Y-68958987D01*
X48003724Y-68929133D01*
X47970908Y-68866175D01*
X47977338Y-68795471D01*
X48005427Y-68752678D01*
X48151127Y-68606978D01*
X48165690Y-68586181D01*
X48279298Y-68423931D01*
X48282452Y-68419427D01*
X48283030Y-68418187D01*
X48333490Y-68370076D01*
X48403204Y-68356641D01*
X48423835Y-68360363D01*
X48511527Y-68383860D01*
X48511529Y-68383860D01*
X48516842Y-68385284D01*
X48744929Y-68405239D01*
X48973016Y-68385284D01*
X48978329Y-68383860D01*
X48978331Y-68383860D01*
X49188862Y-68327448D01*
X49188864Y-68327447D01*
X49194172Y-68326025D01*
X49238772Y-68305228D01*
X49396691Y-68231590D01*
X49396696Y-68231587D01*
X49401678Y-68229264D01*
X49506540Y-68155839D01*
X49584718Y-68101098D01*
X49584721Y-68101096D01*
X49589229Y-68097939D01*
X49751127Y-67936041D01*
X49765690Y-67915244D01*
X49834229Y-67817359D01*
X49882452Y-67748490D01*
X49884775Y-67743508D01*
X49884778Y-67743503D01*
X49976890Y-67545966D01*
X49976890Y-67545965D01*
X49979213Y-67540984D01*
X49985019Y-67519318D01*
X50037048Y-67325143D01*
X50037048Y-67325141D01*
X50038472Y-67319828D01*
X50058427Y-67091741D01*
X50038472Y-66863654D01*
X50032913Y-66842907D01*
X49980636Y-66647808D01*
X49980635Y-66647806D01*
X49979213Y-66642498D01*
X49968338Y-66619177D01*
X49884778Y-66439979D01*
X49884775Y-66439974D01*
X49882452Y-66434992D01*
X49759505Y-66259406D01*
X49754286Y-66251952D01*
X49754284Y-66251949D01*
X49751127Y-66247441D01*
X49589229Y-66085543D01*
X49584721Y-66082386D01*
X49584718Y-66082384D01*
X49448157Y-65986763D01*
X49401678Y-65954218D01*
X49396696Y-65951895D01*
X49396691Y-65951892D01*
X49199154Y-65859780D01*
X49199153Y-65859780D01*
X49194172Y-65857457D01*
X49188864Y-65856035D01*
X49188862Y-65856034D01*
X48978331Y-65799622D01*
X48978329Y-65799622D01*
X48973016Y-65798198D01*
X48744929Y-65778243D01*
X48516842Y-65798198D01*
X48511529Y-65799622D01*
X48511527Y-65799622D01*
X48300996Y-65856034D01*
X48300994Y-65856035D01*
X48295686Y-65857457D01*
X48290705Y-65859780D01*
X48290704Y-65859780D01*
X48093167Y-65951892D01*
X48093162Y-65951895D01*
X48088180Y-65954218D01*
X48041701Y-65986763D01*
X47905140Y-66082384D01*
X47905137Y-66082386D01*
X47900629Y-66085543D01*
X47738731Y-66247441D01*
X47735574Y-66251949D01*
X47735572Y-66251952D01*
X47712840Y-66284417D01*
X47607406Y-66434992D01*
X47606828Y-66436232D01*
X47556368Y-66484343D01*
X47486654Y-66497778D01*
X47466023Y-66494056D01*
X47378331Y-66470559D01*
X47378329Y-66470559D01*
X47373016Y-66469135D01*
X47144929Y-66449180D01*
X46916842Y-66469135D01*
X46911529Y-66470559D01*
X46911527Y-66470559D01*
X46700996Y-66526971D01*
X46700994Y-66526972D01*
X46695686Y-66528394D01*
X46690705Y-66530717D01*
X46690704Y-66530717D01*
X46493167Y-66622829D01*
X46493162Y-66622832D01*
X46488180Y-66625155D01*
X46402696Y-66685012D01*
X46305140Y-66753321D01*
X46305137Y-66753323D01*
X46300629Y-66756480D01*
X46138731Y-66918378D01*
X46007406Y-67105929D01*
X46005083Y-67110911D01*
X46005080Y-67110916D01*
X45920343Y-67292638D01*
X45910645Y-67313435D01*
X45909223Y-67318743D01*
X45909222Y-67318745D01*
X45852810Y-67529276D01*
X45851386Y-67534591D01*
X45831431Y-67762678D01*
X45851386Y-67990765D01*
X45852810Y-67996078D01*
X45852810Y-67996080D01*
X45908874Y-68205310D01*
X45910645Y-68211921D01*
X45912968Y-68216902D01*
X45912968Y-68216903D01*
X46005080Y-68414440D01*
X46005083Y-68414445D01*
X46007406Y-68419427D01*
X46074183Y-68514794D01*
X46124169Y-68586181D01*
X46138731Y-68606978D01*
X46284431Y-68752678D01*
X46318457Y-68814990D01*
X46313392Y-68885805D01*
X46270845Y-68942641D01*
X46234192Y-68959810D01*
X46234613Y-68960933D01*
X46098224Y-69012063D01*
X45981668Y-69099417D01*
X45894314Y-69215973D01*
X45843184Y-69352362D01*
X45836429Y-69414544D01*
X45836429Y-69499115D01*
X45816427Y-69567236D01*
X45762771Y-69613729D01*
X45710429Y-69625115D01*
X44696795Y-69625115D01*
X44634613Y-69631870D01*
X44498224Y-69683000D01*
X44381668Y-69770354D01*
X44294314Y-69886910D01*
X44243184Y-70023299D01*
X44236429Y-70085481D01*
X44236429Y-71781749D01*
X35370717Y-71781749D01*
X35390555Y-71555000D01*
X35370600Y-71326913D01*
X35369176Y-71321598D01*
X35312764Y-71111067D01*
X35312763Y-71111065D01*
X35311341Y-71105757D01*
X35309018Y-71100775D01*
X35216906Y-70903238D01*
X35216903Y-70903233D01*
X35214580Y-70898251D01*
X35124723Y-70769922D01*
X35086414Y-70715211D01*
X35086412Y-70715208D01*
X35083255Y-70710700D01*
X34921357Y-70548802D01*
X34916849Y-70545645D01*
X34916846Y-70545643D01*
X34778924Y-70449069D01*
X34733806Y-70417477D01*
X34728824Y-70415154D01*
X34728819Y-70415151D01*
X34531282Y-70323039D01*
X34531281Y-70323039D01*
X34526300Y-70320716D01*
X34520992Y-70319294D01*
X34520990Y-70319293D01*
X34310459Y-70262881D01*
X34310457Y-70262881D01*
X34305144Y-70261457D01*
X34077057Y-70241502D01*
X33848970Y-70261457D01*
X33843657Y-70262881D01*
X33843655Y-70262881D01*
X33633124Y-70319293D01*
X33633122Y-70319294D01*
X33627814Y-70320716D01*
X33622833Y-70323039D01*
X33622832Y-70323039D01*
X33425295Y-70415151D01*
X33425290Y-70415154D01*
X33420308Y-70417477D01*
X33375190Y-70449069D01*
X33237268Y-70545643D01*
X33237265Y-70545645D01*
X33232757Y-70548802D01*
X33070859Y-70710700D01*
X33067702Y-70715208D01*
X33067700Y-70715211D01*
X33029391Y-70769922D01*
X32939534Y-70898251D01*
X32937211Y-70903233D01*
X32937208Y-70903238D01*
X32845096Y-71100775D01*
X32842773Y-71105757D01*
X32841351Y-71111065D01*
X32841350Y-71111067D01*
X32784938Y-71321598D01*
X32783514Y-71326913D01*
X32763559Y-71555000D01*
X32001023Y-71555000D01*
X31981068Y-71326913D01*
X31979644Y-71321598D01*
X31923232Y-71111067D01*
X31923231Y-71111065D01*
X31921809Y-71105757D01*
X31919486Y-71100775D01*
X31827374Y-70903238D01*
X31827371Y-70903233D01*
X31825048Y-70898251D01*
X31735191Y-70769922D01*
X31696882Y-70715211D01*
X31696880Y-70715208D01*
X31693723Y-70710700D01*
X31531825Y-70548802D01*
X31527317Y-70545645D01*
X31527314Y-70545643D01*
X31389392Y-70449069D01*
X31344274Y-70417477D01*
X31339292Y-70415154D01*
X31339287Y-70415151D01*
X31141750Y-70323039D01*
X31141749Y-70323039D01*
X31136768Y-70320716D01*
X31131460Y-70319294D01*
X31131458Y-70319293D01*
X30920927Y-70262881D01*
X30920925Y-70262881D01*
X30915612Y-70261457D01*
X30687525Y-70241502D01*
X30459438Y-70261457D01*
X30454125Y-70262881D01*
X30454123Y-70262881D01*
X30243592Y-70319293D01*
X30243590Y-70319294D01*
X30238282Y-70320716D01*
X30233301Y-70323039D01*
X30233300Y-70323039D01*
X30035763Y-70415151D01*
X30035758Y-70415154D01*
X30030776Y-70417477D01*
X29985658Y-70449069D01*
X29847736Y-70545643D01*
X29847733Y-70545645D01*
X29843225Y-70548802D01*
X29681327Y-70710700D01*
X29678170Y-70715208D01*
X29678168Y-70715211D01*
X29639859Y-70769922D01*
X29550002Y-70898251D01*
X29547679Y-70903233D01*
X29547676Y-70903238D01*
X29455564Y-71100775D01*
X29453241Y-71105757D01*
X29451819Y-71111065D01*
X29451818Y-71111067D01*
X29395406Y-71321598D01*
X29393982Y-71326913D01*
X29374027Y-71555000D01*
X26975698Y-71555000D01*
X27167042Y-71461262D01*
X27167045Y-71461260D01*
X27171677Y-71458991D01*
X27360236Y-71324494D01*
X27524296Y-71161005D01*
X27659451Y-70972917D01*
X27688569Y-70914002D01*
X27759777Y-70769922D01*
X27759778Y-70769920D01*
X27762071Y-70765280D01*
X27829401Y-70543671D01*
X27859633Y-70314041D01*
X27859862Y-70304669D01*
X27861238Y-70248365D01*
X27861238Y-70248361D01*
X27861320Y-70245000D01*
X27847926Y-70082084D01*
X27842766Y-70019318D01*
X27842765Y-70019312D01*
X27842342Y-70014167D01*
X27808572Y-69879724D01*
X27787177Y-69794544D01*
X27787176Y-69794540D01*
X27785918Y-69789533D01*
X27775239Y-69764973D01*
X27695623Y-69581868D01*
X27695621Y-69581865D01*
X27693563Y-69577131D01*
X27567757Y-69382665D01*
X27540184Y-69352362D01*
X27514527Y-69324166D01*
X27411880Y-69211358D01*
X27407829Y-69208159D01*
X27407825Y-69208155D01*
X27261683Y-69092740D01*
X27220620Y-69034823D01*
X27217388Y-68963900D01*
X27253013Y-68902489D01*
X27266606Y-68891279D01*
X27360236Y-68824494D01*
X27524296Y-68661005D01*
X27659451Y-68472917D01*
X27683660Y-68423935D01*
X27759777Y-68269922D01*
X27759778Y-68269920D01*
X27762071Y-68265280D01*
X27829401Y-68043671D01*
X27859633Y-67814041D01*
X27861320Y-67745000D01*
X27855025Y-67668434D01*
X27842766Y-67519318D01*
X27842765Y-67519312D01*
X27842342Y-67514167D01*
X27791922Y-67313435D01*
X27787177Y-67294544D01*
X27787176Y-67294540D01*
X27785918Y-67289533D01*
X27783859Y-67284797D01*
X27695623Y-67081868D01*
X27695621Y-67081865D01*
X27693563Y-67077131D01*
X27567757Y-66882665D01*
X27555439Y-66869127D01*
X27502925Y-66811415D01*
X27411880Y-66711358D01*
X27407829Y-66708159D01*
X27407825Y-66708155D01*
X27261683Y-66592740D01*
X27220620Y-66534823D01*
X27217388Y-66463900D01*
X27253013Y-66402489D01*
X27266606Y-66391279D01*
X27360236Y-66324494D01*
X27524296Y-66161005D01*
X27659451Y-65972917D01*
X27662887Y-65965966D01*
X27759777Y-65769922D01*
X27759778Y-65769920D01*
X27762071Y-65765280D01*
X27829401Y-65543671D01*
X27859633Y-65314041D01*
X27861320Y-65245000D01*
X27848708Y-65091597D01*
X27842766Y-65019318D01*
X27842765Y-65019312D01*
X27842342Y-65014167D01*
X27824081Y-64941466D01*
X36960743Y-64941466D01*
X36961302Y-64945710D01*
X36961302Y-64945714D01*
X36970314Y-65014167D01*
X36998268Y-65226497D01*
X37074129Y-65503799D01*
X37075813Y-65507747D01*
X37182524Y-65757925D01*
X37186923Y-65768239D01*
X37255149Y-65882237D01*
X37323390Y-65996258D01*
X37334561Y-66014924D01*
X37514313Y-66239291D01*
X37561866Y-66284417D01*
X37715793Y-66430488D01*
X37722851Y-66437186D01*
X37908666Y-66570708D01*
X37952258Y-66602032D01*
X37956317Y-66604949D01*
X37960112Y-66606958D01*
X37960113Y-66606959D01*
X37978547Y-66616719D01*
X38210392Y-66739475D01*
X38345383Y-66788875D01*
X38472140Y-66835261D01*
X38480373Y-66838274D01*
X38761264Y-66899518D01*
X38789841Y-66901767D01*
X38984282Y-66917070D01*
X38984291Y-66917070D01*
X38986739Y-66917263D01*
X39142271Y-66917263D01*
X39144407Y-66917117D01*
X39144418Y-66917117D01*
X39352548Y-66902928D01*
X39352554Y-66902927D01*
X39356825Y-66902636D01*
X39361020Y-66901767D01*
X39361022Y-66901767D01*
X39570728Y-66858339D01*
X39638342Y-66844337D01*
X39909343Y-66748370D01*
X40144261Y-66627120D01*
X40161005Y-66618478D01*
X40161006Y-66618478D01*
X40164812Y-66616513D01*
X40168313Y-66614052D01*
X40168317Y-66614050D01*
X40292217Y-66526971D01*
X40400023Y-66451204D01*
X40537383Y-66323561D01*
X40607479Y-66258424D01*
X40607481Y-66258421D01*
X40610622Y-66255503D01*
X40792713Y-66033031D01*
X40942927Y-65787905D01*
X41058483Y-65524661D01*
X41112509Y-65335001D01*
X53136360Y-65335001D01*
X53156315Y-65563088D01*
X53157739Y-65568401D01*
X53157739Y-65568403D01*
X53210493Y-65765280D01*
X53215574Y-65784244D01*
X53217897Y-65789225D01*
X53217897Y-65789226D01*
X53310009Y-65986763D01*
X53310012Y-65986768D01*
X53312335Y-65991750D01*
X53385760Y-66096612D01*
X53429098Y-66158504D01*
X53443660Y-66179301D01*
X53605558Y-66341199D01*
X53610066Y-66344356D01*
X53610069Y-66344358D01*
X53677079Y-66391279D01*
X53793109Y-66472524D01*
X53798091Y-66474847D01*
X53798096Y-66474850D01*
X53959067Y-66549911D01*
X54000615Y-66569285D01*
X54005923Y-66570707D01*
X54005925Y-66570708D01*
X54216456Y-66627120D01*
X54216458Y-66627120D01*
X54221771Y-66628544D01*
X54449858Y-66648499D01*
X54677945Y-66628544D01*
X54683258Y-66627120D01*
X54683260Y-66627120D01*
X54893791Y-66570708D01*
X54893793Y-66570707D01*
X54899101Y-66569285D01*
X54940649Y-66549911D01*
X55101620Y-66474850D01*
X55101625Y-66474847D01*
X55106607Y-66472524D01*
X55222637Y-66391279D01*
X55289647Y-66344358D01*
X55289650Y-66344356D01*
X55294158Y-66341199D01*
X55456056Y-66179301D01*
X55470619Y-66158504D01*
X55513956Y-66096612D01*
X55587381Y-65991750D01*
X55589704Y-65986768D01*
X55589707Y-65986763D01*
X55681819Y-65789226D01*
X55681819Y-65789225D01*
X55684142Y-65784244D01*
X55689224Y-65765280D01*
X55741977Y-65568403D01*
X55741977Y-65568401D01*
X55743401Y-65563088D01*
X55758107Y-65395001D01*
X57609299Y-65395001D01*
X57627929Y-65631712D01*
X57629083Y-65636519D01*
X57629084Y-65636525D01*
X57636555Y-65667642D01*
X57683359Y-65862595D01*
X57685252Y-65867166D01*
X57685253Y-65867168D01*
X57770339Y-66072584D01*
X57774224Y-66081964D01*
X57776810Y-66086184D01*
X57895705Y-66280203D01*
X57895709Y-66280209D01*
X57898288Y-66284417D01*
X58052495Y-66464970D01*
X58233048Y-66619177D01*
X58237256Y-66621756D01*
X58237262Y-66621760D01*
X58426074Y-66737464D01*
X58435501Y-66743241D01*
X58440071Y-66745134D01*
X58440075Y-66745136D01*
X58650297Y-66832212D01*
X58654870Y-66834106D01*
X58735073Y-66853361D01*
X58880940Y-66888381D01*
X58880946Y-66888382D01*
X58885753Y-66889536D01*
X59122464Y-66908166D01*
X59359175Y-66889536D01*
X59363982Y-66888382D01*
X59363988Y-66888381D01*
X59509855Y-66853361D01*
X59590058Y-66834106D01*
X59594631Y-66832212D01*
X59804853Y-66745136D01*
X59804857Y-66745134D01*
X59809427Y-66743241D01*
X59818854Y-66737464D01*
X60007666Y-66621760D01*
X60007672Y-66621756D01*
X60011880Y-66619177D01*
X60192433Y-66464970D01*
X60346640Y-66284417D01*
X60349219Y-66280209D01*
X60349223Y-66280203D01*
X60468118Y-66086184D01*
X60470704Y-66081964D01*
X60474590Y-66072584D01*
X60559675Y-65867168D01*
X60559676Y-65867166D01*
X60561569Y-65862595D01*
X60608373Y-65667642D01*
X60615844Y-65636525D01*
X60615845Y-65636519D01*
X60616999Y-65631712D01*
X60635629Y-65395001D01*
X60633992Y-65374204D01*
X63456835Y-65374204D01*
X63475465Y-65610915D01*
X63476619Y-65615722D01*
X63476620Y-65615728D01*
X63481613Y-65636525D01*
X63530895Y-65841798D01*
X63532788Y-65846369D01*
X63532789Y-65846371D01*
X63610106Y-66033031D01*
X63621760Y-66061167D01*
X63624346Y-66065387D01*
X63743241Y-66259406D01*
X63743245Y-66259412D01*
X63745824Y-66263620D01*
X63864635Y-66402730D01*
X63894064Y-66437186D01*
X63900031Y-66444173D01*
X63903787Y-66447381D01*
X63904908Y-66448338D01*
X64080584Y-66598380D01*
X64084792Y-66600959D01*
X64084798Y-66600963D01*
X64264946Y-66711358D01*
X64283037Y-66722444D01*
X64287607Y-66724337D01*
X64287611Y-66724339D01*
X64497833Y-66811415D01*
X64502406Y-66813309D01*
X64581143Y-66832212D01*
X64728476Y-66867584D01*
X64728482Y-66867585D01*
X64733289Y-66868739D01*
X64970000Y-66887369D01*
X65206711Y-66868739D01*
X65211518Y-66867585D01*
X65211524Y-66867584D01*
X65358857Y-66832212D01*
X65437594Y-66813309D01*
X65442167Y-66811415D01*
X65652389Y-66724339D01*
X65652393Y-66724337D01*
X65656963Y-66722444D01*
X65675054Y-66711358D01*
X65855202Y-66600963D01*
X65855208Y-66600959D01*
X65859416Y-66598380D01*
X66035092Y-66448338D01*
X66036213Y-66447381D01*
X66039969Y-66444173D01*
X66045937Y-66437186D01*
X66075365Y-66402730D01*
X66194176Y-66263620D01*
X66196755Y-66259412D01*
X66196759Y-66259406D01*
X66315654Y-66065387D01*
X66318240Y-66061167D01*
X66329895Y-66033031D01*
X66407211Y-65846371D01*
X66407212Y-65846369D01*
X66409105Y-65841798D01*
X66458387Y-65636525D01*
X66463380Y-65615728D01*
X66463381Y-65615722D01*
X66464535Y-65610915D01*
X66483165Y-65374204D01*
X66478443Y-65314204D01*
X68306502Y-65314204D01*
X68326457Y-65542291D01*
X68327881Y-65547604D01*
X68327881Y-65547606D01*
X68346135Y-65615728D01*
X68385716Y-65763447D01*
X68388039Y-65768428D01*
X68388039Y-65768429D01*
X68480151Y-65965966D01*
X68480154Y-65965971D01*
X68482477Y-65970953D01*
X68613802Y-66158504D01*
X68775700Y-66320402D01*
X68780208Y-66323559D01*
X68780211Y-66323561D01*
X68858389Y-66378302D01*
X68963251Y-66451727D01*
X68968233Y-66454050D01*
X68968238Y-66454053D01*
X69141452Y-66534823D01*
X69170757Y-66548488D01*
X69176065Y-66549910D01*
X69176067Y-66549911D01*
X69386598Y-66606323D01*
X69386600Y-66606323D01*
X69391913Y-66607747D01*
X69620000Y-66627702D01*
X69848087Y-66607747D01*
X69853400Y-66606323D01*
X69853402Y-66606323D01*
X70063933Y-66549911D01*
X70063935Y-66549910D01*
X70069243Y-66548488D01*
X70098548Y-66534823D01*
X70271762Y-66454053D01*
X70271767Y-66454050D01*
X70276749Y-66451727D01*
X70381611Y-66378302D01*
X70459789Y-66323561D01*
X70459792Y-66323559D01*
X70464300Y-66320402D01*
X70626198Y-66158504D01*
X70757523Y-65970953D01*
X70759846Y-65965971D01*
X70759849Y-65965966D01*
X70851961Y-65768429D01*
X70851961Y-65768428D01*
X70854284Y-65763447D01*
X70893866Y-65615728D01*
X70912119Y-65547606D01*
X70912119Y-65547604D01*
X70913543Y-65542291D01*
X70933498Y-65314204D01*
X82726502Y-65314204D01*
X82746457Y-65542291D01*
X82747881Y-65547604D01*
X82747881Y-65547606D01*
X82766135Y-65615728D01*
X82805716Y-65763447D01*
X82808039Y-65768428D01*
X82808039Y-65768429D01*
X82900151Y-65965966D01*
X82900154Y-65965971D01*
X82902477Y-65970953D01*
X83033802Y-66158504D01*
X83195700Y-66320402D01*
X83200208Y-66323559D01*
X83200211Y-66323561D01*
X83278389Y-66378302D01*
X83383251Y-66451727D01*
X83388233Y-66454050D01*
X83388238Y-66454053D01*
X83561452Y-66534823D01*
X83590757Y-66548488D01*
X83596065Y-66549910D01*
X83596067Y-66549911D01*
X83806598Y-66606323D01*
X83806600Y-66606323D01*
X83811913Y-66607747D01*
X84040000Y-66627702D01*
X84268087Y-66607747D01*
X84273400Y-66606323D01*
X84273402Y-66606323D01*
X84483933Y-66549911D01*
X84483935Y-66549910D01*
X84489243Y-66548488D01*
X84518548Y-66534823D01*
X84691762Y-66454053D01*
X84691767Y-66454050D01*
X84696749Y-66451727D01*
X84801611Y-66378302D01*
X84879789Y-66323561D01*
X84879792Y-66323559D01*
X84884300Y-66320402D01*
X85046198Y-66158504D01*
X85177523Y-65970953D01*
X85179846Y-65965971D01*
X85179849Y-65965966D01*
X85271961Y-65768429D01*
X85271961Y-65768428D01*
X85274284Y-65763447D01*
X85313866Y-65615728D01*
X85332119Y-65547606D01*
X85332119Y-65547604D01*
X85333543Y-65542291D01*
X85353498Y-65314204D01*
X85333543Y-65086117D01*
X85292306Y-64932219D01*
X85275707Y-64870271D01*
X85275706Y-64870269D01*
X85274284Y-64864961D01*
X85236903Y-64784797D01*
X85179849Y-64662442D01*
X85179846Y-64662437D01*
X85177523Y-64657455D01*
X85063919Y-64495212D01*
X85049357Y-64474415D01*
X85049355Y-64474412D01*
X85046198Y-64469904D01*
X84884300Y-64308006D01*
X84879792Y-64304849D01*
X84879789Y-64304847D01*
X84801611Y-64250106D01*
X84696749Y-64176681D01*
X84691767Y-64174358D01*
X84691762Y-64174355D01*
X84494225Y-64082243D01*
X84494224Y-64082243D01*
X84489243Y-64079920D01*
X84483935Y-64078498D01*
X84483933Y-64078497D01*
X84273402Y-64022085D01*
X84273400Y-64022085D01*
X84268087Y-64020661D01*
X84040000Y-64000706D01*
X83811913Y-64020661D01*
X83806600Y-64022085D01*
X83806598Y-64022085D01*
X83596067Y-64078497D01*
X83596065Y-64078498D01*
X83590757Y-64079920D01*
X83585776Y-64082243D01*
X83585775Y-64082243D01*
X83388238Y-64174355D01*
X83388233Y-64174358D01*
X83383251Y-64176681D01*
X83278389Y-64250106D01*
X83200211Y-64304847D01*
X83200208Y-64304849D01*
X83195700Y-64308006D01*
X83033802Y-64469904D01*
X83030645Y-64474412D01*
X83030643Y-64474415D01*
X83016081Y-64495212D01*
X82902477Y-64657455D01*
X82900154Y-64662437D01*
X82900151Y-64662442D01*
X82843097Y-64784797D01*
X82805716Y-64864961D01*
X82804294Y-64870269D01*
X82804293Y-64870271D01*
X82787694Y-64932219D01*
X82746457Y-65086117D01*
X82726502Y-65314204D01*
X70933498Y-65314204D01*
X70913543Y-65086117D01*
X70872306Y-64932219D01*
X70855707Y-64870271D01*
X70855706Y-64870269D01*
X70854284Y-64864961D01*
X70816903Y-64784797D01*
X70759849Y-64662442D01*
X70759846Y-64662437D01*
X70757523Y-64657455D01*
X70643919Y-64495212D01*
X70629357Y-64474415D01*
X70629355Y-64474412D01*
X70626198Y-64469904D01*
X70464300Y-64308006D01*
X70459792Y-64304849D01*
X70459789Y-64304847D01*
X70381611Y-64250106D01*
X70276749Y-64176681D01*
X70271767Y-64174358D01*
X70271762Y-64174355D01*
X70074225Y-64082243D01*
X70074224Y-64082243D01*
X70069243Y-64079920D01*
X70063935Y-64078498D01*
X70063933Y-64078497D01*
X69853402Y-64022085D01*
X69853400Y-64022085D01*
X69848087Y-64020661D01*
X69620000Y-64000706D01*
X69391913Y-64020661D01*
X69386600Y-64022085D01*
X69386598Y-64022085D01*
X69176067Y-64078497D01*
X69176065Y-64078498D01*
X69170757Y-64079920D01*
X69165776Y-64082243D01*
X69165775Y-64082243D01*
X68968238Y-64174355D01*
X68968233Y-64174358D01*
X68963251Y-64176681D01*
X68858389Y-64250106D01*
X68780211Y-64304847D01*
X68780208Y-64304849D01*
X68775700Y-64308006D01*
X68613802Y-64469904D01*
X68610645Y-64474412D01*
X68610643Y-64474415D01*
X68596081Y-64495212D01*
X68482477Y-64657455D01*
X68480154Y-64662437D01*
X68480151Y-64662442D01*
X68423097Y-64784797D01*
X68385716Y-64864961D01*
X68384294Y-64870269D01*
X68384293Y-64870271D01*
X68367694Y-64932219D01*
X68326457Y-65086117D01*
X68306502Y-65314204D01*
X66478443Y-65314204D01*
X66464535Y-65137493D01*
X66458510Y-65112394D01*
X66410260Y-64911422D01*
X66409105Y-64906610D01*
X66407211Y-64902037D01*
X66320135Y-64691815D01*
X66320133Y-64691811D01*
X66318240Y-64687241D01*
X66295251Y-64649727D01*
X66196759Y-64489002D01*
X66196755Y-64488996D01*
X66194176Y-64484788D01*
X66039969Y-64304235D01*
X65859416Y-64150028D01*
X65855208Y-64147449D01*
X65855202Y-64147445D01*
X65661183Y-64028550D01*
X65656963Y-64025964D01*
X65652393Y-64024071D01*
X65652389Y-64024069D01*
X65442167Y-63936993D01*
X65442165Y-63936992D01*
X65437594Y-63935099D01*
X65357391Y-63915844D01*
X65211524Y-63880824D01*
X65211518Y-63880823D01*
X65206711Y-63879669D01*
X64970000Y-63861039D01*
X64733289Y-63879669D01*
X64728482Y-63880823D01*
X64728476Y-63880824D01*
X64582609Y-63915844D01*
X64502406Y-63935099D01*
X64497835Y-63936992D01*
X64497833Y-63936993D01*
X64287611Y-64024069D01*
X64287607Y-64024071D01*
X64283037Y-64025964D01*
X64278817Y-64028550D01*
X64084798Y-64147445D01*
X64084792Y-64147449D01*
X64080584Y-64150028D01*
X63900031Y-64304235D01*
X63745824Y-64484788D01*
X63743245Y-64488996D01*
X63743241Y-64489002D01*
X63644749Y-64649727D01*
X63621760Y-64687241D01*
X63619867Y-64691811D01*
X63619865Y-64691815D01*
X63532789Y-64902037D01*
X63530895Y-64906610D01*
X63529740Y-64911422D01*
X63481491Y-65112394D01*
X63475465Y-65137493D01*
X63456835Y-65374204D01*
X60633992Y-65374204D01*
X60616999Y-65158290D01*
X60612007Y-65137493D01*
X60562724Y-64932219D01*
X60561569Y-64927407D01*
X60552955Y-64906610D01*
X60472599Y-64712612D01*
X60472597Y-64712608D01*
X60470704Y-64708038D01*
X60468118Y-64703818D01*
X60349223Y-64509799D01*
X60349219Y-64509793D01*
X60346640Y-64505585D01*
X60192433Y-64325032D01*
X60011880Y-64170825D01*
X60007672Y-64168246D01*
X60007666Y-64168242D01*
X59813647Y-64049347D01*
X59809427Y-64046761D01*
X59804857Y-64044868D01*
X59804853Y-64044866D01*
X59594631Y-63957790D01*
X59594629Y-63957789D01*
X59590058Y-63955896D01*
X59498621Y-63933944D01*
X59363988Y-63901621D01*
X59363982Y-63901620D01*
X59359175Y-63900466D01*
X59122464Y-63881836D01*
X58885753Y-63900466D01*
X58880946Y-63901620D01*
X58880940Y-63901621D01*
X58746307Y-63933944D01*
X58654870Y-63955896D01*
X58650299Y-63957789D01*
X58650297Y-63957790D01*
X58440075Y-64044866D01*
X58440071Y-64044868D01*
X58435501Y-64046761D01*
X58431281Y-64049347D01*
X58237262Y-64168242D01*
X58237256Y-64168246D01*
X58233048Y-64170825D01*
X58052495Y-64325032D01*
X57898288Y-64505585D01*
X57895709Y-64509793D01*
X57895705Y-64509799D01*
X57776810Y-64703818D01*
X57774224Y-64708038D01*
X57772331Y-64712608D01*
X57772329Y-64712612D01*
X57691973Y-64906610D01*
X57683359Y-64927407D01*
X57682204Y-64932219D01*
X57632922Y-65137493D01*
X57627929Y-65158290D01*
X57609299Y-65395001D01*
X55758107Y-65395001D01*
X55763356Y-65335001D01*
X55743401Y-65106914D01*
X55739297Y-65091597D01*
X55685565Y-64891068D01*
X55685564Y-64891066D01*
X55684142Y-64885758D01*
X55672121Y-64859979D01*
X55589707Y-64683239D01*
X55589704Y-64683234D01*
X55587381Y-64678252D01*
X55456056Y-64490701D01*
X55294158Y-64328803D01*
X55289650Y-64325646D01*
X55289647Y-64325644D01*
X55131889Y-64215181D01*
X55106607Y-64197478D01*
X55101625Y-64195155D01*
X55101620Y-64195152D01*
X54904083Y-64103040D01*
X54904082Y-64103040D01*
X54899101Y-64100717D01*
X54893793Y-64099295D01*
X54893791Y-64099294D01*
X54683260Y-64042882D01*
X54683258Y-64042882D01*
X54677945Y-64041458D01*
X54449858Y-64021503D01*
X54221771Y-64041458D01*
X54216458Y-64042882D01*
X54216456Y-64042882D01*
X54005925Y-64099294D01*
X54005923Y-64099295D01*
X54000615Y-64100717D01*
X53995634Y-64103040D01*
X53995633Y-64103040D01*
X53798096Y-64195152D01*
X53798091Y-64195155D01*
X53793109Y-64197478D01*
X53767827Y-64215181D01*
X53610069Y-64325644D01*
X53610066Y-64325646D01*
X53605558Y-64328803D01*
X53443660Y-64490701D01*
X53312335Y-64678252D01*
X53310012Y-64683234D01*
X53310009Y-64683239D01*
X53227595Y-64859979D01*
X53215574Y-64885758D01*
X53214152Y-64891066D01*
X53214151Y-64891068D01*
X53160419Y-65091597D01*
X53156315Y-65106914D01*
X53136360Y-65335001D01*
X41112509Y-65335001D01*
X41137244Y-65248169D01*
X41177751Y-64963547D01*
X41177845Y-64945714D01*
X41179235Y-64680346D01*
X41179235Y-64680339D01*
X41179257Y-64676060D01*
X41141732Y-64391029D01*
X41065871Y-64113727D01*
X41035653Y-64042882D01*
X40954763Y-63853239D01*
X40954761Y-63853235D01*
X40953077Y-63849287D01*
X40805439Y-63602602D01*
X40625687Y-63378235D01*
X40417149Y-63180340D01*
X40183683Y-63012577D01*
X40161843Y-63001013D01*
X40138654Y-62988735D01*
X39929608Y-62878051D01*
X39659627Y-62779252D01*
X39378736Y-62718008D01*
X39347685Y-62715564D01*
X39155718Y-62700456D01*
X39155709Y-62700456D01*
X39153261Y-62700263D01*
X38997729Y-62700263D01*
X38995593Y-62700409D01*
X38995582Y-62700409D01*
X38787452Y-62714598D01*
X38787446Y-62714599D01*
X38783175Y-62714890D01*
X38778980Y-62715759D01*
X38778978Y-62715759D01*
X38642416Y-62744040D01*
X38501658Y-62773189D01*
X38230657Y-62869156D01*
X37975188Y-63001013D01*
X37971687Y-63003474D01*
X37971683Y-63003476D01*
X37961594Y-63010567D01*
X37739977Y-63166322D01*
X37529378Y-63362023D01*
X37347287Y-63584495D01*
X37197073Y-63829621D01*
X37195347Y-63833554D01*
X37195346Y-63833555D01*
X37146646Y-63944496D01*
X37081517Y-64092865D01*
X37080342Y-64096992D01*
X37080341Y-64096993D01*
X37076699Y-64109779D01*
X37002756Y-64369357D01*
X36962249Y-64653979D01*
X36962227Y-64658268D01*
X36962226Y-64658275D01*
X36960791Y-64932219D01*
X36960743Y-64941466D01*
X27824081Y-64941466D01*
X27785918Y-64789533D01*
X27783859Y-64784797D01*
X27695623Y-64581868D01*
X27695621Y-64581865D01*
X27693563Y-64577131D01*
X27567757Y-64382665D01*
X27551892Y-64365229D01*
X27493472Y-64301027D01*
X27411880Y-64211358D01*
X27407829Y-64208159D01*
X27407825Y-64208155D01*
X27234170Y-64071011D01*
X27234165Y-64071008D01*
X27230116Y-64067810D01*
X27225600Y-64065317D01*
X27225597Y-64065315D01*
X27031872Y-63958373D01*
X27031868Y-63958371D01*
X27027348Y-63955876D01*
X27022479Y-63954152D01*
X27022475Y-63954150D01*
X26813896Y-63880288D01*
X26813892Y-63880287D01*
X26809021Y-63878562D01*
X26803928Y-63877655D01*
X26803925Y-63877654D01*
X26586088Y-63838851D01*
X26586082Y-63838850D01*
X26580999Y-63837945D01*
X26508089Y-63837054D01*
X26354574Y-63835179D01*
X26354572Y-63835179D01*
X26349404Y-63835116D01*
X26120457Y-63870150D01*
X25900307Y-63942106D01*
X25895719Y-63944494D01*
X25895715Y-63944496D01*
X25734249Y-64028550D01*
X25694865Y-64049052D01*
X25690732Y-64052155D01*
X25690729Y-64052157D01*
X25513783Y-64185012D01*
X25509648Y-64188117D01*
X25349632Y-64355564D01*
X25302829Y-64424174D01*
X25247920Y-64469175D01*
X25177395Y-64477346D01*
X25113648Y-64446092D01*
X25092952Y-64421609D01*
X25070570Y-64387013D01*
X25070567Y-64387009D01*
X25067757Y-64382665D01*
X25051892Y-64365229D01*
X24993472Y-64301027D01*
X24911880Y-64211358D01*
X24907829Y-64208159D01*
X24907825Y-64208155D01*
X24734170Y-64071011D01*
X24734165Y-64071008D01*
X24730116Y-64067810D01*
X24725600Y-64065317D01*
X24725597Y-64065315D01*
X24531872Y-63958373D01*
X24531868Y-63958371D01*
X24527348Y-63955876D01*
X24522479Y-63954152D01*
X24522475Y-63954150D01*
X24313896Y-63880288D01*
X24313892Y-63880287D01*
X24309021Y-63878562D01*
X24303928Y-63877655D01*
X24303925Y-63877654D01*
X24086088Y-63838851D01*
X24086082Y-63838850D01*
X24080999Y-63837945D01*
X24008089Y-63837054D01*
X23854574Y-63835179D01*
X23854572Y-63835179D01*
X23849404Y-63835116D01*
X23620457Y-63870150D01*
X23400307Y-63942106D01*
X23395719Y-63944494D01*
X23395715Y-63944496D01*
X23234249Y-64028550D01*
X23194865Y-64049052D01*
X23190732Y-64052155D01*
X23190729Y-64052157D01*
X23013783Y-64185012D01*
X23009648Y-64188117D01*
X22849632Y-64355564D01*
X22846723Y-64359829D01*
X22846717Y-64359837D01*
X22831145Y-64382665D01*
X22719112Y-64546899D01*
X22621595Y-64756981D01*
X22559700Y-64980169D01*
X22535088Y-65210469D01*
X22535385Y-65215622D01*
X22535385Y-65215625D01*
X22544813Y-65379134D01*
X22548420Y-65441697D01*
X22549557Y-65446743D01*
X22549558Y-65446749D01*
X22574542Y-65557608D01*
X22599339Y-65667642D01*
X22601281Y-65672424D01*
X22601282Y-65672428D01*
X22667392Y-65835237D01*
X22686477Y-65882237D01*
X22716417Y-65931095D01*
X22798319Y-66064746D01*
X22807494Y-66079719D01*
X22959140Y-66254784D01*
X23067033Y-66344358D01*
X23134455Y-66400333D01*
X23174090Y-66459235D01*
X23175588Y-66530216D01*
X23138474Y-66590739D01*
X23129623Y-66598037D01*
X23070407Y-66642498D01*
X23009648Y-66688117D01*
X22849632Y-66855564D01*
X22846723Y-66859829D01*
X22846717Y-66859837D01*
X22807675Y-66917070D01*
X22719112Y-67046899D01*
X22621595Y-67256981D01*
X22559700Y-67480169D01*
X22535088Y-67710469D01*
X22535385Y-67715622D01*
X22535385Y-67715625D01*
X22541060Y-67814041D01*
X22548420Y-67941697D01*
X22549557Y-67946743D01*
X22549558Y-67946749D01*
X22578066Y-68073245D01*
X22599339Y-68167642D01*
X22601281Y-68172424D01*
X22601282Y-68172428D01*
X22677595Y-68360363D01*
X22686477Y-68382237D01*
X22807494Y-68579719D01*
X22959140Y-68754784D01*
X23109246Y-68879404D01*
X23134455Y-68900333D01*
X23174090Y-68959235D01*
X23175588Y-69030216D01*
X23138474Y-69090739D01*
X23129623Y-69098037D01*
X23009648Y-69188117D01*
X23006076Y-69191855D01*
X22859763Y-69344963D01*
X22849632Y-69355564D01*
X22846723Y-69359829D01*
X22846717Y-69359837D01*
X22807068Y-69417961D01*
X22719112Y-69546899D01*
X22621595Y-69756981D01*
X22559700Y-69980169D01*
X22535088Y-70210469D01*
X19468000Y-70210469D01*
X19468000Y-61174000D01*
X19488002Y-61105879D01*
X19541658Y-61059386D01*
X19594000Y-61048000D01*
X102266000Y-61048000D01*
X102334121Y-61068002D01*
G37*
%TD.AperFunction*%
%TD*%
M02*
