%TF.GenerationSoftware,KiCad,Pcbnew,(6.0.0)*%
%TF.CreationDate,2022-08-03T23:03:17+01:00*%
%TF.ProjectId,Lynx Phono,4c796e78-2050-4686-9f6e-6f2e6b696361,rev?*%
%TF.SameCoordinates,Original*%
%TF.FileFunction,Soldermask,Bot*%
%TF.FilePolarity,Negative*%
%FSLAX46Y46*%
G04 Gerber Fmt 4.6, Leading zero omitted, Abs format (unit mm)*
G04 Created by KiCad (PCBNEW (6.0.0)) date 2022-08-03 23:03:17*
%MOMM*%
%LPD*%
G01*
G04 APERTURE LIST*
%ADD10C,1.800000*%
%ADD11R,1.600000X1.600000*%
%ADD12C,1.600000*%
%ADD13O,1.600000X1.600000*%
%ADD14C,2.000000*%
%ADD15C,3.000000*%
%ADD16C,3.200000*%
%ADD17R,2.100000X2.100000*%
%ADD18C,2.100000*%
%ADD19R,1.700000X1.700000*%
%ADD20O,1.700000X1.700000*%
G04 APERTURE END LIST*
D10*
%TO.C,RV1*%
X23947993Y-65245000D03*
X23947993Y-67745000D03*
X23947993Y-70245000D03*
X26447993Y-65245000D03*
X26447993Y-67745000D03*
X26447993Y-70245000D03*
%TD*%
D11*
%TO.C,C13*%
X76830000Y-102557324D03*
X78430000Y-101886387D03*
D12*
X75230000Y-105728261D03*
X76830000Y-105057324D03*
%TD*%
%TO.C,R6*%
X54424788Y-96091269D03*
D13*
X54424788Y-88471269D03*
%TD*%
D14*
%TO.C,RCA 4LEG*%
X33037057Y-82683592D03*
D15*
X27937057Y-77633592D03*
X27937057Y-87733592D03*
D14*
X33037057Y-85183592D03*
%TD*%
D11*
%TO.C,C3*%
X45544929Y-70933615D03*
X47144929Y-70262678D03*
D12*
X48744929Y-67091741D03*
X47144929Y-67762678D03*
%TD*%
D16*
%TO.C,REF\u002A\u002A*%
X91510928Y-86320000D03*
%TD*%
D11*
%TO.C,C12*%
X76830000Y-70241881D03*
X75230000Y-70912818D03*
D12*
X76830000Y-67741881D03*
X78430000Y-67070944D03*
%TD*%
%TO.C,R11*%
X84040000Y-72934204D03*
D13*
X84040000Y-65314204D03*
%TD*%
D11*
%TO.C,C1*%
X45544929Y-82583615D03*
X47144929Y-81912678D03*
D12*
X48744929Y-78741741D03*
X47144929Y-79412678D03*
%TD*%
D14*
%TO.C,C6*%
X59122464Y-84545001D03*
X59122464Y-77045001D03*
%TD*%
D12*
%TO.C,R1*%
X30687525Y-71555000D03*
D13*
X30687525Y-63935000D03*
%TD*%
D17*
%TO.C,J3*%
X99488414Y-82500000D03*
D18*
X99488414Y-85040000D03*
X99488414Y-87580000D03*
X99488414Y-90120000D03*
%TD*%
D12*
%TO.C,R2*%
X34077057Y-71555000D03*
D13*
X34077057Y-63935000D03*
%TD*%
D12*
%TO.C,R12*%
X84040000Y-99865001D03*
D13*
X84040000Y-107485001D03*
%TD*%
D12*
%TO.C,R3*%
X35860000Y-74970001D03*
D13*
X43480000Y-74970001D03*
%TD*%
D11*
%TO.C,C2*%
X48744929Y-90492655D03*
X47144929Y-91163592D03*
D12*
X45544929Y-94334529D03*
X47144929Y-93663592D03*
%TD*%
%TO.C,R4*%
X35860000Y-97988533D03*
D13*
X43480000Y-97988533D03*
%TD*%
D19*
%TO.C,J2*%
X27823971Y-93031796D03*
D20*
X30363971Y-93031796D03*
X32903971Y-93031796D03*
X35443971Y-93031796D03*
%TD*%
D14*
%TO.C,C11*%
X64970000Y-107425001D03*
X64970000Y-99925001D03*
%TD*%
D12*
%TO.C,R7*%
X54449858Y-65335001D03*
D13*
X54449858Y-72955001D03*
%TD*%
D12*
%TO.C,R10*%
X69620000Y-99865001D03*
D13*
X69620000Y-107485001D03*
%TD*%
D16*
%TO.C,REF\u002A\u002A*%
X39070000Y-64808763D03*
%TD*%
D14*
%TO.C,C8*%
X59122464Y-72895001D03*
X59122464Y-65395001D03*
%TD*%
%TO.C,RCA 4LEG*%
X88845000Y-101000001D03*
X88845000Y-98500001D03*
D15*
X93945000Y-106050001D03*
X93945000Y-95950001D03*
%TD*%
D14*
%TO.C,C10*%
X64970000Y-65374204D03*
X64970000Y-72874204D03*
%TD*%
%TO.C,RCA 4LEG*%
X88845000Y-71799204D03*
D15*
X93945000Y-76849204D03*
X93945000Y-66749204D03*
D14*
X88845000Y-69299204D03*
%TD*%
%TO.C,C5*%
X64970000Y-77024204D03*
X64970000Y-84524204D03*
%TD*%
%TO.C,C14*%
X65020000Y-96031269D03*
X65020000Y-88531269D03*
%TD*%
%TO.C,C9*%
X59122464Y-99945798D03*
X59122464Y-107445798D03*
%TD*%
D16*
%TO.C,REF\u002A\u002A*%
X39070000Y-108058725D03*
%TD*%
D14*
%TO.C,RCA 4LEG*%
X33037057Y-103280000D03*
D15*
X27937057Y-98230000D03*
D14*
X33037057Y-105780000D03*
D15*
X27937057Y-108330000D03*
%TD*%
D17*
%TO.C,J1*%
X83420000Y-83815001D03*
D18*
X83420000Y-86355001D03*
X83420000Y-88895001D03*
%TD*%
D14*
%TO.C,C7*%
X59097394Y-96031269D03*
X59097394Y-88531269D03*
%TD*%
D12*
%TO.C,R9*%
X69620000Y-72934204D03*
D13*
X69620000Y-65314204D03*
%TD*%
D12*
%TO.C,R8*%
X54449858Y-107505798D03*
D13*
X54449858Y-99885798D03*
%TD*%
D11*
%TO.C,C4*%
X48744929Y-101907184D03*
X47144929Y-102578121D03*
D12*
X45544929Y-105749058D03*
X47144929Y-105078121D03*
%TD*%
%TO.C,R5*%
X54449858Y-76985001D03*
D13*
X54449858Y-84605001D03*
%TD*%
D11*
%TO.C,U1*%
X77560000Y-82695001D03*
D13*
X75020000Y-82695001D03*
X72480000Y-82695001D03*
X69940000Y-82695001D03*
X69940000Y-90315001D03*
X72480000Y-90315001D03*
X75020000Y-90315001D03*
X77560000Y-90315001D03*
%TD*%
M02*
