%TF.GenerationSoftware,KiCad,Pcbnew,(6.0.0)*%
%TF.CreationDate,2022-08-03T23:03:17+01:00*%
%TF.ProjectId,Lynx Phono,4c796e78-2050-4686-9f6e-6f2e6b696361,rev?*%
%TF.SameCoordinates,Original*%
%TF.FileFunction,Legend,Top*%
%TF.FilePolarity,Positive*%
%FSLAX46Y46*%
G04 Gerber Fmt 4.6, Leading zero omitted, Abs format (unit mm)*
G04 Created by KiCad (PCBNEW (6.0.0)) date 2022-08-03 23:03:17*
%MOMM*%
%LPD*%
G01*
G04 APERTURE LIST*
%ADD10C,0.150000*%
%ADD11C,0.120000*%
G04 APERTURE END LIST*
D10*
%TO.C,RV1*%
X23352754Y-74197380D02*
X23019421Y-73721190D01*
X22781326Y-74197380D02*
X22781326Y-73197380D01*
X23162278Y-73197380D01*
X23257516Y-73245000D01*
X23305135Y-73292619D01*
X23352754Y-73387857D01*
X23352754Y-73530714D01*
X23305135Y-73625952D01*
X23257516Y-73673571D01*
X23162278Y-73721190D01*
X22781326Y-73721190D01*
X23638469Y-73197380D02*
X23971802Y-74197380D01*
X24305135Y-73197380D01*
X25162278Y-74197380D02*
X24590850Y-74197380D01*
X24876564Y-74197380D02*
X24876564Y-73197380D01*
X24781326Y-73340238D01*
X24686088Y-73435476D01*
X24590850Y-73483095D01*
%TO.C,C13*%
X83437142Y-104450181D02*
X83484761Y-104497800D01*
X83532380Y-104640657D01*
X83532380Y-104735895D01*
X83484761Y-104878752D01*
X83389523Y-104973990D01*
X83294285Y-105021609D01*
X83103809Y-105069228D01*
X82960952Y-105069228D01*
X82770476Y-105021609D01*
X82675238Y-104973990D01*
X82580000Y-104878752D01*
X82532380Y-104735895D01*
X82532380Y-104640657D01*
X82580000Y-104497800D01*
X82627619Y-104450181D01*
X83532380Y-103497800D02*
X83532380Y-104069228D01*
X83532380Y-103783514D02*
X82532380Y-103783514D01*
X82675238Y-103878752D01*
X82770476Y-103973990D01*
X82818095Y-104069228D01*
X82532380Y-103164466D02*
X82532380Y-102545419D01*
X82913333Y-102878752D01*
X82913333Y-102735895D01*
X82960952Y-102640657D01*
X83008571Y-102593038D01*
X83103809Y-102545419D01*
X83341904Y-102545419D01*
X83437142Y-102593038D01*
X83484761Y-102640657D01*
X83532380Y-102735895D01*
X83532380Y-103021609D01*
X83484761Y-103116847D01*
X83437142Y-103164466D01*
%TO.C,R6*%
X52507168Y-92447935D02*
X52030978Y-92781269D01*
X52507168Y-93019364D02*
X51507168Y-93019364D01*
X51507168Y-92638411D01*
X51554788Y-92543173D01*
X51602407Y-92495554D01*
X51697645Y-92447935D01*
X51840502Y-92447935D01*
X51935740Y-92495554D01*
X51983359Y-92543173D01*
X52030978Y-92638411D01*
X52030978Y-93019364D01*
X51507168Y-91590792D02*
X51507168Y-91781269D01*
X51554788Y-91876507D01*
X51602407Y-91924126D01*
X51745264Y-92019364D01*
X51935740Y-92066983D01*
X52316692Y-92066983D01*
X52411930Y-92019364D01*
X52459549Y-91971745D01*
X52507168Y-91876507D01*
X52507168Y-91686030D01*
X52459549Y-91590792D01*
X52411930Y-91543173D01*
X52316692Y-91495554D01*
X52078597Y-91495554D01*
X51983359Y-91543173D01*
X51935740Y-91590792D01*
X51888121Y-91686030D01*
X51888121Y-91876507D01*
X51935740Y-91971745D01*
X51983359Y-92019364D01*
X52078597Y-92066983D01*
%TO.C,RCA 4LEG*%
X20679437Y-85516925D02*
X20203247Y-85850258D01*
X20679437Y-86088353D02*
X19679437Y-86088353D01*
X19679437Y-85707401D01*
X19727057Y-85612163D01*
X19774676Y-85564544D01*
X19869914Y-85516925D01*
X20012771Y-85516925D01*
X20108009Y-85564544D01*
X20155628Y-85612163D01*
X20203247Y-85707401D01*
X20203247Y-86088353D01*
X20584199Y-84516925D02*
X20631818Y-84564544D01*
X20679437Y-84707401D01*
X20679437Y-84802639D01*
X20631818Y-84945496D01*
X20536580Y-85040734D01*
X20441342Y-85088353D01*
X20250866Y-85135972D01*
X20108009Y-85135972D01*
X19917533Y-85088353D01*
X19822295Y-85040734D01*
X19727057Y-84945496D01*
X19679437Y-84802639D01*
X19679437Y-84707401D01*
X19727057Y-84564544D01*
X19774676Y-84516925D01*
X20393723Y-84135972D02*
X20393723Y-83659782D01*
X20679437Y-84231211D02*
X19679437Y-83897877D01*
X20679437Y-83564544D01*
X20012771Y-82040734D02*
X20679437Y-82040734D01*
X19631818Y-82278830D02*
X20346104Y-82516925D01*
X20346104Y-81897877D01*
X20679437Y-81040734D02*
X20679437Y-81516925D01*
X19679437Y-81516925D01*
X20155628Y-80707401D02*
X20155628Y-80374068D01*
X20679437Y-80231211D02*
X20679437Y-80707401D01*
X19679437Y-80707401D01*
X19679437Y-80231211D01*
X19727057Y-79278830D02*
X19679437Y-79374068D01*
X19679437Y-79516925D01*
X19727057Y-79659782D01*
X19822295Y-79755020D01*
X19917533Y-79802639D01*
X20108009Y-79850258D01*
X20250866Y-79850258D01*
X20441342Y-79802639D01*
X20536580Y-79755020D01*
X20631818Y-79659782D01*
X20679437Y-79516925D01*
X20679437Y-79421687D01*
X20631818Y-79278830D01*
X20584199Y-79231211D01*
X20250866Y-79231211D01*
X20250866Y-79421687D01*
X34079628Y-82926449D02*
X34165342Y-82955020D01*
X34308199Y-82955020D01*
X34365342Y-82926449D01*
X34393914Y-82897877D01*
X34422485Y-82840734D01*
X34422485Y-82783592D01*
X34393914Y-82726449D01*
X34365342Y-82697877D01*
X34308199Y-82669306D01*
X34193914Y-82640734D01*
X34136771Y-82612163D01*
X34108199Y-82583592D01*
X34079628Y-82526449D01*
X34079628Y-82469306D01*
X34108199Y-82412163D01*
X34136771Y-82383592D01*
X34193914Y-82355020D01*
X34336771Y-82355020D01*
X34422485Y-82383592D01*
X34993914Y-82383592D02*
X34936771Y-82355020D01*
X34851057Y-82355020D01*
X34765342Y-82383592D01*
X34708199Y-82440734D01*
X34679628Y-82497877D01*
X34651057Y-82612163D01*
X34651057Y-82697877D01*
X34679628Y-82812163D01*
X34708199Y-82869306D01*
X34765342Y-82926449D01*
X34851057Y-82955020D01*
X34908199Y-82955020D01*
X34993914Y-82926449D01*
X35022485Y-82897877D01*
X35022485Y-82697877D01*
X34908199Y-82697877D01*
X34474914Y-84923592D02*
X34417771Y-84895020D01*
X34332057Y-84895020D01*
X34246342Y-84923592D01*
X34189199Y-84980734D01*
X34160628Y-85037877D01*
X34132057Y-85152163D01*
X34132057Y-85237877D01*
X34160628Y-85352163D01*
X34189199Y-85409306D01*
X34246342Y-85466449D01*
X34332057Y-85495020D01*
X34389199Y-85495020D01*
X34474914Y-85466449D01*
X34503485Y-85437877D01*
X34503485Y-85237877D01*
X34389199Y-85237877D01*
X34760628Y-85495020D02*
X34760628Y-84895020D01*
X35103485Y-85495020D01*
X35103485Y-84895020D01*
X35389199Y-85495020D02*
X35389199Y-84895020D01*
X35532057Y-84895020D01*
X35617771Y-84923592D01*
X35674914Y-84980734D01*
X35703485Y-85037877D01*
X35732057Y-85152163D01*
X35732057Y-85237877D01*
X35703485Y-85352163D01*
X35674914Y-85409306D01*
X35617771Y-85466449D01*
X35532057Y-85495020D01*
X35389199Y-85495020D01*
%TO.C,C3*%
X41252071Y-69179344D02*
X41299690Y-69226963D01*
X41347309Y-69369820D01*
X41347309Y-69465058D01*
X41299690Y-69607916D01*
X41204452Y-69703154D01*
X41109214Y-69750773D01*
X40918738Y-69798392D01*
X40775881Y-69798392D01*
X40585405Y-69750773D01*
X40490167Y-69703154D01*
X40394929Y-69607916D01*
X40347309Y-69465058D01*
X40347309Y-69369820D01*
X40394929Y-69226963D01*
X40442548Y-69179344D01*
X40347309Y-68846011D02*
X40347309Y-68226963D01*
X40728262Y-68560297D01*
X40728262Y-68417439D01*
X40775881Y-68322201D01*
X40823500Y-68274582D01*
X40918738Y-68226963D01*
X41156833Y-68226963D01*
X41252071Y-68274582D01*
X41299690Y-68322201D01*
X41347309Y-68417439D01*
X41347309Y-68703154D01*
X41299690Y-68798392D01*
X41252071Y-68846011D01*
%TO.C,C12*%
X70937142Y-69634738D02*
X70984761Y-69682357D01*
X71032380Y-69825214D01*
X71032380Y-69920452D01*
X70984761Y-70063309D01*
X70889523Y-70158547D01*
X70794285Y-70206166D01*
X70603809Y-70253785D01*
X70460952Y-70253785D01*
X70270476Y-70206166D01*
X70175238Y-70158547D01*
X70080000Y-70063309D01*
X70032380Y-69920452D01*
X70032380Y-69825214D01*
X70080000Y-69682357D01*
X70127619Y-69634738D01*
X71032380Y-68682357D02*
X71032380Y-69253785D01*
X71032380Y-68968071D02*
X70032380Y-68968071D01*
X70175238Y-69063309D01*
X70270476Y-69158547D01*
X70318095Y-69253785D01*
X70127619Y-68301404D02*
X70080000Y-68253785D01*
X70032380Y-68158547D01*
X70032380Y-67920452D01*
X70080000Y-67825214D01*
X70127619Y-67777595D01*
X70222857Y-67729976D01*
X70318095Y-67729976D01*
X70460952Y-67777595D01*
X71032380Y-68349023D01*
X71032380Y-67729976D01*
%TO.C,R11*%
X82122380Y-69767061D02*
X81646190Y-70100394D01*
X82122380Y-70338489D02*
X81122380Y-70338489D01*
X81122380Y-69957537D01*
X81170000Y-69862299D01*
X81217619Y-69814680D01*
X81312857Y-69767061D01*
X81455714Y-69767061D01*
X81550952Y-69814680D01*
X81598571Y-69862299D01*
X81646190Y-69957537D01*
X81646190Y-70338489D01*
X82122380Y-68814680D02*
X82122380Y-69386108D01*
X82122380Y-69100394D02*
X81122380Y-69100394D01*
X81265238Y-69195632D01*
X81360476Y-69290870D01*
X81408095Y-69386108D01*
X82122380Y-67862299D02*
X82122380Y-68433727D01*
X82122380Y-68148013D02*
X81122380Y-68148013D01*
X81265238Y-68243251D01*
X81360476Y-68338489D01*
X81408095Y-68433727D01*
%TO.C,C1*%
X41252071Y-80829344D02*
X41299690Y-80876963D01*
X41347309Y-81019820D01*
X41347309Y-81115058D01*
X41299690Y-81257916D01*
X41204452Y-81353154D01*
X41109214Y-81400773D01*
X40918738Y-81448392D01*
X40775881Y-81448392D01*
X40585405Y-81400773D01*
X40490167Y-81353154D01*
X40394929Y-81257916D01*
X40347309Y-81115058D01*
X40347309Y-81019820D01*
X40394929Y-80876963D01*
X40442548Y-80829344D01*
X41347309Y-79876963D02*
X41347309Y-80448392D01*
X41347309Y-80162678D02*
X40347309Y-80162678D01*
X40490167Y-80257916D01*
X40585405Y-80353154D01*
X40633024Y-80448392D01*
%TO.C,C6*%
X55729606Y-80961667D02*
X55777225Y-81009286D01*
X55824844Y-81152143D01*
X55824844Y-81247381D01*
X55777225Y-81390239D01*
X55681987Y-81485477D01*
X55586749Y-81533096D01*
X55396273Y-81580715D01*
X55253416Y-81580715D01*
X55062940Y-81533096D01*
X54967702Y-81485477D01*
X54872464Y-81390239D01*
X54824844Y-81247381D01*
X54824844Y-81152143D01*
X54872464Y-81009286D01*
X54920083Y-80961667D01*
X54824844Y-80104524D02*
X54824844Y-80295001D01*
X54872464Y-80390239D01*
X54920083Y-80437858D01*
X55062940Y-80533096D01*
X55253416Y-80580715D01*
X55634368Y-80580715D01*
X55729606Y-80533096D01*
X55777225Y-80485477D01*
X55824844Y-80390239D01*
X55824844Y-80199762D01*
X55777225Y-80104524D01*
X55729606Y-80056905D01*
X55634368Y-80009286D01*
X55396273Y-80009286D01*
X55301035Y-80056905D01*
X55253416Y-80104524D01*
X55205797Y-80199762D01*
X55205797Y-80390239D01*
X55253416Y-80485477D01*
X55301035Y-80533096D01*
X55396273Y-80580715D01*
%TO.C,R1*%
X28769905Y-67911666D02*
X28293715Y-68245000D01*
X28769905Y-68483095D02*
X27769905Y-68483095D01*
X27769905Y-68102142D01*
X27817525Y-68006904D01*
X27865144Y-67959285D01*
X27960382Y-67911666D01*
X28103239Y-67911666D01*
X28198477Y-67959285D01*
X28246096Y-68006904D01*
X28293715Y-68102142D01*
X28293715Y-68483095D01*
X28769905Y-66959285D02*
X28769905Y-67530714D01*
X28769905Y-67245000D02*
X27769905Y-67245000D01*
X27912763Y-67340238D01*
X28008001Y-67435476D01*
X28055620Y-67530714D01*
%TO.C,J3*%
X103310794Y-86643333D02*
X104025080Y-86643333D01*
X104167937Y-86690952D01*
X104263175Y-86786190D01*
X104310794Y-86929047D01*
X104310794Y-87024285D01*
X103310794Y-86262380D02*
X103310794Y-85643333D01*
X103691747Y-85976666D01*
X103691747Y-85833809D01*
X103739366Y-85738571D01*
X103786985Y-85690952D01*
X103882223Y-85643333D01*
X104120318Y-85643333D01*
X104215556Y-85690952D01*
X104263175Y-85738571D01*
X104310794Y-85833809D01*
X104310794Y-86119523D01*
X104263175Y-86214761D01*
X104215556Y-86262380D01*
%TO.C,R2*%
X32159437Y-67911666D02*
X31683247Y-68245000D01*
X32159437Y-68483095D02*
X31159437Y-68483095D01*
X31159437Y-68102142D01*
X31207057Y-68006904D01*
X31254676Y-67959285D01*
X31349914Y-67911666D01*
X31492771Y-67911666D01*
X31588009Y-67959285D01*
X31635628Y-68006904D01*
X31683247Y-68102142D01*
X31683247Y-68483095D01*
X31254676Y-67530714D02*
X31207057Y-67483095D01*
X31159437Y-67387857D01*
X31159437Y-67149761D01*
X31207057Y-67054523D01*
X31254676Y-67006904D01*
X31349914Y-66959285D01*
X31445152Y-66959285D01*
X31588009Y-67006904D01*
X32159437Y-67578333D01*
X32159437Y-66959285D01*
%TO.C,R12*%
X86862380Y-104317858D02*
X86386190Y-104651191D01*
X86862380Y-104889286D02*
X85862380Y-104889286D01*
X85862380Y-104508334D01*
X85910000Y-104413096D01*
X85957619Y-104365477D01*
X86052857Y-104317858D01*
X86195714Y-104317858D01*
X86290952Y-104365477D01*
X86338571Y-104413096D01*
X86386190Y-104508334D01*
X86386190Y-104889286D01*
X86862380Y-103365477D02*
X86862380Y-103936905D01*
X86862380Y-103651191D02*
X85862380Y-103651191D01*
X86005238Y-103746429D01*
X86100476Y-103841667D01*
X86148095Y-103936905D01*
X85957619Y-102984524D02*
X85910000Y-102936905D01*
X85862380Y-102841667D01*
X85862380Y-102603572D01*
X85910000Y-102508334D01*
X85957619Y-102460715D01*
X86052857Y-102413096D01*
X86148095Y-102413096D01*
X86290952Y-102460715D01*
X86862380Y-103032143D01*
X86862380Y-102413096D01*
%TO.C,R3*%
X39503333Y-73052381D02*
X39170000Y-72576191D01*
X38931904Y-73052381D02*
X38931904Y-72052381D01*
X39312857Y-72052381D01*
X39408095Y-72100001D01*
X39455714Y-72147620D01*
X39503333Y-72242858D01*
X39503333Y-72385715D01*
X39455714Y-72480953D01*
X39408095Y-72528572D01*
X39312857Y-72576191D01*
X38931904Y-72576191D01*
X39836666Y-72052381D02*
X40455714Y-72052381D01*
X40122380Y-72433334D01*
X40265238Y-72433334D01*
X40360476Y-72480953D01*
X40408095Y-72528572D01*
X40455714Y-72623810D01*
X40455714Y-72861905D01*
X40408095Y-72957143D01*
X40360476Y-73004762D01*
X40265238Y-73052381D01*
X39979523Y-73052381D01*
X39884285Y-73004762D01*
X39836666Y-72957143D01*
%TO.C,C2*%
X53752071Y-92580258D02*
X53799690Y-92627877D01*
X53847309Y-92770734D01*
X53847309Y-92865972D01*
X53799690Y-93008830D01*
X53704452Y-93104068D01*
X53609214Y-93151687D01*
X53418738Y-93199306D01*
X53275881Y-93199306D01*
X53085405Y-93151687D01*
X52990167Y-93104068D01*
X52894929Y-93008830D01*
X52847309Y-92865972D01*
X52847309Y-92770734D01*
X52894929Y-92627877D01*
X52942548Y-92580258D01*
X52942548Y-92199306D02*
X52894929Y-92151687D01*
X52847309Y-92056449D01*
X52847309Y-91818353D01*
X52894929Y-91723115D01*
X52942548Y-91675496D01*
X53037786Y-91627877D01*
X53133024Y-91627877D01*
X53275881Y-91675496D01*
X53847309Y-92246925D01*
X53847309Y-91627877D01*
%TO.C,R4*%
X39503333Y-96070913D02*
X39170000Y-95594723D01*
X38931904Y-96070913D02*
X38931904Y-95070913D01*
X39312857Y-95070913D01*
X39408095Y-95118533D01*
X39455714Y-95166152D01*
X39503333Y-95261390D01*
X39503333Y-95404247D01*
X39455714Y-95499485D01*
X39408095Y-95547104D01*
X39312857Y-95594723D01*
X38931904Y-95594723D01*
X40360476Y-95404247D02*
X40360476Y-96070913D01*
X40122380Y-95023294D02*
X39884285Y-95737580D01*
X40503333Y-95737580D01*
%TO.C,J2*%
X21304437Y-93290129D02*
X22018723Y-93290129D01*
X22161580Y-93337748D01*
X22256818Y-93432986D01*
X22304437Y-93575843D01*
X22304437Y-93671081D01*
X21399676Y-92861557D02*
X21352057Y-92813938D01*
X21304437Y-92718700D01*
X21304437Y-92480605D01*
X21352057Y-92385367D01*
X21399676Y-92337748D01*
X21494914Y-92290129D01*
X21590152Y-92290129D01*
X21733009Y-92337748D01*
X22304437Y-92909176D01*
X22304437Y-92290129D01*
%TO.C,C11*%
X61577142Y-104317858D02*
X61624761Y-104365477D01*
X61672380Y-104508334D01*
X61672380Y-104603572D01*
X61624761Y-104746429D01*
X61529523Y-104841667D01*
X61434285Y-104889286D01*
X61243809Y-104936905D01*
X61100952Y-104936905D01*
X60910476Y-104889286D01*
X60815238Y-104841667D01*
X60720000Y-104746429D01*
X60672380Y-104603572D01*
X60672380Y-104508334D01*
X60720000Y-104365477D01*
X60767619Y-104317858D01*
X61672380Y-103365477D02*
X61672380Y-103936905D01*
X61672380Y-103651191D02*
X60672380Y-103651191D01*
X60815238Y-103746429D01*
X60910476Y-103841667D01*
X60958095Y-103936905D01*
X61672380Y-102413096D02*
X61672380Y-102984524D01*
X61672380Y-102698810D02*
X60672380Y-102698810D01*
X60815238Y-102794048D01*
X60910476Y-102889286D01*
X60958095Y-102984524D01*
%TO.C,R7*%
X57272238Y-69311667D02*
X56796048Y-69645001D01*
X57272238Y-69883096D02*
X56272238Y-69883096D01*
X56272238Y-69502143D01*
X56319858Y-69406905D01*
X56367477Y-69359286D01*
X56462715Y-69311667D01*
X56605572Y-69311667D01*
X56700810Y-69359286D01*
X56748429Y-69406905D01*
X56796048Y-69502143D01*
X56796048Y-69883096D01*
X56272238Y-68978334D02*
X56272238Y-68311667D01*
X57272238Y-68740239D01*
%TO.C,R10*%
X72442380Y-104317858D02*
X71966190Y-104651191D01*
X72442380Y-104889286D02*
X71442380Y-104889286D01*
X71442380Y-104508334D01*
X71490000Y-104413096D01*
X71537619Y-104365477D01*
X71632857Y-104317858D01*
X71775714Y-104317858D01*
X71870952Y-104365477D01*
X71918571Y-104413096D01*
X71966190Y-104508334D01*
X71966190Y-104889286D01*
X72442380Y-103365477D02*
X72442380Y-103936905D01*
X72442380Y-103651191D02*
X71442380Y-103651191D01*
X71585238Y-103746429D01*
X71680476Y-103841667D01*
X71728095Y-103936905D01*
X71442380Y-102746429D02*
X71442380Y-102651191D01*
X71490000Y-102555953D01*
X71537619Y-102508334D01*
X71632857Y-102460715D01*
X71823333Y-102413096D01*
X72061428Y-102413096D01*
X72251904Y-102460715D01*
X72347142Y-102508334D01*
X72394761Y-102555953D01*
X72442380Y-102651191D01*
X72442380Y-102746429D01*
X72394761Y-102841667D01*
X72347142Y-102889286D01*
X72251904Y-102936905D01*
X72061428Y-102984524D01*
X71823333Y-102984524D01*
X71632857Y-102936905D01*
X71537619Y-102889286D01*
X71490000Y-102841667D01*
X71442380Y-102746429D01*
%TO.C,C8*%
X55729606Y-69311667D02*
X55777225Y-69359286D01*
X55824844Y-69502143D01*
X55824844Y-69597381D01*
X55777225Y-69740239D01*
X55681987Y-69835477D01*
X55586749Y-69883096D01*
X55396273Y-69930715D01*
X55253416Y-69930715D01*
X55062940Y-69883096D01*
X54967702Y-69835477D01*
X54872464Y-69740239D01*
X54824844Y-69597381D01*
X54824844Y-69502143D01*
X54872464Y-69359286D01*
X54920083Y-69311667D01*
X55253416Y-68740239D02*
X55205797Y-68835477D01*
X55158178Y-68883096D01*
X55062940Y-68930715D01*
X55015321Y-68930715D01*
X54920083Y-68883096D01*
X54872464Y-68835477D01*
X54824844Y-68740239D01*
X54824844Y-68549762D01*
X54872464Y-68454524D01*
X54920083Y-68406905D01*
X55015321Y-68359286D01*
X55062940Y-68359286D01*
X55158178Y-68406905D01*
X55205797Y-68454524D01*
X55253416Y-68549762D01*
X55253416Y-68740239D01*
X55301035Y-68835477D01*
X55348654Y-68883096D01*
X55443892Y-68930715D01*
X55634368Y-68930715D01*
X55729606Y-68883096D01*
X55777225Y-68835477D01*
X55824844Y-68740239D01*
X55824844Y-68549762D01*
X55777225Y-68454524D01*
X55729606Y-68406905D01*
X55634368Y-68359286D01*
X55443892Y-68359286D01*
X55348654Y-68406905D01*
X55301035Y-68454524D01*
X55253416Y-68549762D01*
%TO.C,RCA 4LEG*%
X102107380Y-103833334D02*
X101631190Y-104166667D01*
X102107380Y-104404762D02*
X101107380Y-104404762D01*
X101107380Y-104023810D01*
X101155000Y-103928572D01*
X101202619Y-103880953D01*
X101297857Y-103833334D01*
X101440714Y-103833334D01*
X101535952Y-103880953D01*
X101583571Y-103928572D01*
X101631190Y-104023810D01*
X101631190Y-104404762D01*
X102012142Y-102833334D02*
X102059761Y-102880953D01*
X102107380Y-103023810D01*
X102107380Y-103119048D01*
X102059761Y-103261905D01*
X101964523Y-103357143D01*
X101869285Y-103404762D01*
X101678809Y-103452381D01*
X101535952Y-103452381D01*
X101345476Y-103404762D01*
X101250238Y-103357143D01*
X101155000Y-103261905D01*
X101107380Y-103119048D01*
X101107380Y-103023810D01*
X101155000Y-102880953D01*
X101202619Y-102833334D01*
X101821666Y-102452381D02*
X101821666Y-101976191D01*
X102107380Y-102547620D02*
X101107380Y-102214286D01*
X102107380Y-101880953D01*
X101440714Y-100357143D02*
X102107380Y-100357143D01*
X101059761Y-100595239D02*
X101774047Y-100833334D01*
X101774047Y-100214286D01*
X102107380Y-99357143D02*
X102107380Y-99833334D01*
X101107380Y-99833334D01*
X101583571Y-99023810D02*
X101583571Y-98690477D01*
X102107380Y-98547620D02*
X102107380Y-99023810D01*
X101107380Y-99023810D01*
X101107380Y-98547620D01*
X101155000Y-97595239D02*
X101107380Y-97690477D01*
X101107380Y-97833334D01*
X101155000Y-97976191D01*
X101250238Y-98071429D01*
X101345476Y-98119048D01*
X101535952Y-98166667D01*
X101678809Y-98166667D01*
X101869285Y-98119048D01*
X101964523Y-98071429D01*
X102059761Y-97976191D01*
X102107380Y-97833334D01*
X102107380Y-97738096D01*
X102059761Y-97595239D01*
X102012142Y-97547620D01*
X101678809Y-97547620D01*
X101678809Y-97738096D01*
X86492857Y-98160001D02*
X86435714Y-98131429D01*
X86350000Y-98131429D01*
X86264285Y-98160001D01*
X86207142Y-98217143D01*
X86178571Y-98274286D01*
X86150000Y-98388572D01*
X86150000Y-98474286D01*
X86178571Y-98588572D01*
X86207142Y-98645715D01*
X86264285Y-98702858D01*
X86350000Y-98731429D01*
X86407142Y-98731429D01*
X86492857Y-98702858D01*
X86521428Y-98674286D01*
X86521428Y-98474286D01*
X86407142Y-98474286D01*
X86778571Y-98731429D02*
X86778571Y-98131429D01*
X87121428Y-98731429D01*
X87121428Y-98131429D01*
X87407142Y-98731429D02*
X87407142Y-98131429D01*
X87550000Y-98131429D01*
X87635714Y-98160001D01*
X87692857Y-98217143D01*
X87721428Y-98274286D01*
X87750000Y-98388572D01*
X87750000Y-98474286D01*
X87721428Y-98588572D01*
X87692857Y-98645715D01*
X87635714Y-98702858D01*
X87550000Y-98731429D01*
X87407142Y-98731429D01*
X86859571Y-101242858D02*
X86945285Y-101271429D01*
X87088142Y-101271429D01*
X87145285Y-101242858D01*
X87173857Y-101214286D01*
X87202428Y-101157143D01*
X87202428Y-101100001D01*
X87173857Y-101042858D01*
X87145285Y-101014286D01*
X87088142Y-100985715D01*
X86973857Y-100957143D01*
X86916714Y-100928572D01*
X86888142Y-100900001D01*
X86859571Y-100842858D01*
X86859571Y-100785715D01*
X86888142Y-100728572D01*
X86916714Y-100700001D01*
X86973857Y-100671429D01*
X87116714Y-100671429D01*
X87202428Y-100700001D01*
X87773857Y-100700001D02*
X87716714Y-100671429D01*
X87631000Y-100671429D01*
X87545285Y-100700001D01*
X87488142Y-100757143D01*
X87459571Y-100814286D01*
X87431000Y-100928572D01*
X87431000Y-101014286D01*
X87459571Y-101128572D01*
X87488142Y-101185715D01*
X87545285Y-101242858D01*
X87631000Y-101271429D01*
X87688142Y-101271429D01*
X87773857Y-101242858D01*
X87802428Y-101214286D01*
X87802428Y-101014286D01*
X87688142Y-101014286D01*
%TO.C,C10*%
X69077142Y-69767061D02*
X69124761Y-69814680D01*
X69172380Y-69957537D01*
X69172380Y-70052775D01*
X69124761Y-70195632D01*
X69029523Y-70290870D01*
X68934285Y-70338489D01*
X68743809Y-70386108D01*
X68600952Y-70386108D01*
X68410476Y-70338489D01*
X68315238Y-70290870D01*
X68220000Y-70195632D01*
X68172380Y-70052775D01*
X68172380Y-69957537D01*
X68220000Y-69814680D01*
X68267619Y-69767061D01*
X69172380Y-68814680D02*
X69172380Y-69386108D01*
X69172380Y-69100394D02*
X68172380Y-69100394D01*
X68315238Y-69195632D01*
X68410476Y-69290870D01*
X68458095Y-69386108D01*
X68172380Y-68195632D02*
X68172380Y-68100394D01*
X68220000Y-68005156D01*
X68267619Y-67957537D01*
X68362857Y-67909918D01*
X68553333Y-67862299D01*
X68791428Y-67862299D01*
X68981904Y-67909918D01*
X69077142Y-67957537D01*
X69124761Y-68005156D01*
X69172380Y-68100394D01*
X69172380Y-68195632D01*
X69124761Y-68290870D01*
X69077142Y-68338489D01*
X68981904Y-68386108D01*
X68791428Y-68433727D01*
X68553333Y-68433727D01*
X68362857Y-68386108D01*
X68267619Y-68338489D01*
X68220000Y-68290870D01*
X68172380Y-68195632D01*
%TO.C,RCA 4LEG*%
X102107380Y-74632537D02*
X101631190Y-74965870D01*
X102107380Y-75203965D02*
X101107380Y-75203965D01*
X101107380Y-74823013D01*
X101155000Y-74727775D01*
X101202619Y-74680156D01*
X101297857Y-74632537D01*
X101440714Y-74632537D01*
X101535952Y-74680156D01*
X101583571Y-74727775D01*
X101631190Y-74823013D01*
X101631190Y-75203965D01*
X102012142Y-73632537D02*
X102059761Y-73680156D01*
X102107380Y-73823013D01*
X102107380Y-73918251D01*
X102059761Y-74061108D01*
X101964523Y-74156346D01*
X101869285Y-74203965D01*
X101678809Y-74251584D01*
X101535952Y-74251584D01*
X101345476Y-74203965D01*
X101250238Y-74156346D01*
X101155000Y-74061108D01*
X101107380Y-73918251D01*
X101107380Y-73823013D01*
X101155000Y-73680156D01*
X101202619Y-73632537D01*
X101821666Y-73251584D02*
X101821666Y-72775394D01*
X102107380Y-73346823D02*
X101107380Y-73013489D01*
X102107380Y-72680156D01*
X101440714Y-71156346D02*
X102107380Y-71156346D01*
X101059761Y-71394442D02*
X101774047Y-71632537D01*
X101774047Y-71013489D01*
X102107380Y-70156346D02*
X102107380Y-70632537D01*
X101107380Y-70632537D01*
X101583571Y-69823013D02*
X101583571Y-69489680D01*
X102107380Y-69346823D02*
X102107380Y-69823013D01*
X101107380Y-69823013D01*
X101107380Y-69346823D01*
X101155000Y-68394442D02*
X101107380Y-68489680D01*
X101107380Y-68632537D01*
X101155000Y-68775394D01*
X101250238Y-68870632D01*
X101345476Y-68918251D01*
X101535952Y-68965870D01*
X101678809Y-68965870D01*
X101869285Y-68918251D01*
X101964523Y-68870632D01*
X102059761Y-68775394D01*
X102107380Y-68632537D01*
X102107380Y-68537299D01*
X102059761Y-68394442D01*
X102012142Y-68346823D01*
X101678809Y-68346823D01*
X101678809Y-68537299D01*
X86859571Y-72042061D02*
X86945285Y-72070632D01*
X87088142Y-72070632D01*
X87145285Y-72042061D01*
X87173857Y-72013489D01*
X87202428Y-71956346D01*
X87202428Y-71899204D01*
X87173857Y-71842061D01*
X87145285Y-71813489D01*
X87088142Y-71784918D01*
X86973857Y-71756346D01*
X86916714Y-71727775D01*
X86888142Y-71699204D01*
X86859571Y-71642061D01*
X86859571Y-71584918D01*
X86888142Y-71527775D01*
X86916714Y-71499204D01*
X86973857Y-71470632D01*
X87116714Y-71470632D01*
X87202428Y-71499204D01*
X87773857Y-71499204D02*
X87716714Y-71470632D01*
X87631000Y-71470632D01*
X87545285Y-71499204D01*
X87488142Y-71556346D01*
X87459571Y-71613489D01*
X87431000Y-71727775D01*
X87431000Y-71813489D01*
X87459571Y-71927775D01*
X87488142Y-71984918D01*
X87545285Y-72042061D01*
X87631000Y-72070632D01*
X87688142Y-72070632D01*
X87773857Y-72042061D01*
X87802428Y-72013489D01*
X87802428Y-71813489D01*
X87688142Y-71813489D01*
X86492857Y-68959204D02*
X86435714Y-68930632D01*
X86350000Y-68930632D01*
X86264285Y-68959204D01*
X86207142Y-69016346D01*
X86178571Y-69073489D01*
X86150000Y-69187775D01*
X86150000Y-69273489D01*
X86178571Y-69387775D01*
X86207142Y-69444918D01*
X86264285Y-69502061D01*
X86350000Y-69530632D01*
X86407142Y-69530632D01*
X86492857Y-69502061D01*
X86521428Y-69473489D01*
X86521428Y-69273489D01*
X86407142Y-69273489D01*
X86778571Y-69530632D02*
X86778571Y-68930632D01*
X87121428Y-69530632D01*
X87121428Y-68930632D01*
X87407142Y-69530632D02*
X87407142Y-68930632D01*
X87550000Y-68930632D01*
X87635714Y-68959204D01*
X87692857Y-69016346D01*
X87721428Y-69073489D01*
X87750000Y-69187775D01*
X87750000Y-69273489D01*
X87721428Y-69387775D01*
X87692857Y-69444918D01*
X87635714Y-69502061D01*
X87550000Y-69530632D01*
X87407142Y-69530632D01*
%TO.C,C5*%
X69077142Y-80940870D02*
X69124761Y-80988489D01*
X69172380Y-81131346D01*
X69172380Y-81226584D01*
X69124761Y-81369442D01*
X69029523Y-81464680D01*
X68934285Y-81512299D01*
X68743809Y-81559918D01*
X68600952Y-81559918D01*
X68410476Y-81512299D01*
X68315238Y-81464680D01*
X68220000Y-81369442D01*
X68172380Y-81226584D01*
X68172380Y-81131346D01*
X68220000Y-80988489D01*
X68267619Y-80940870D01*
X68172380Y-80036108D02*
X68172380Y-80512299D01*
X68648571Y-80559918D01*
X68600952Y-80512299D01*
X68553333Y-80417061D01*
X68553333Y-80178965D01*
X68600952Y-80083727D01*
X68648571Y-80036108D01*
X68743809Y-79988489D01*
X68981904Y-79988489D01*
X69077142Y-80036108D01*
X69124761Y-80083727D01*
X69172380Y-80178965D01*
X69172380Y-80417061D01*
X69124761Y-80512299D01*
X69077142Y-80559918D01*
%TO.C,C14*%
X61627142Y-92924126D02*
X61674761Y-92971745D01*
X61722380Y-93114602D01*
X61722380Y-93209840D01*
X61674761Y-93352697D01*
X61579523Y-93447935D01*
X61484285Y-93495554D01*
X61293809Y-93543173D01*
X61150952Y-93543173D01*
X60960476Y-93495554D01*
X60865238Y-93447935D01*
X60770000Y-93352697D01*
X60722380Y-93209840D01*
X60722380Y-93114602D01*
X60770000Y-92971745D01*
X60817619Y-92924126D01*
X61722380Y-91971745D02*
X61722380Y-92543173D01*
X61722380Y-92257459D02*
X60722380Y-92257459D01*
X60865238Y-92352697D01*
X60960476Y-92447935D01*
X61008095Y-92543173D01*
X61055714Y-91114602D02*
X61722380Y-91114602D01*
X60674761Y-91352697D02*
X61389047Y-91590792D01*
X61389047Y-90971745D01*
%TO.C,C9*%
X63229606Y-103862464D02*
X63277225Y-103910083D01*
X63324844Y-104052940D01*
X63324844Y-104148178D01*
X63277225Y-104291036D01*
X63181987Y-104386274D01*
X63086749Y-104433893D01*
X62896273Y-104481512D01*
X62753416Y-104481512D01*
X62562940Y-104433893D01*
X62467702Y-104386274D01*
X62372464Y-104291036D01*
X62324844Y-104148178D01*
X62324844Y-104052940D01*
X62372464Y-103910083D01*
X62420083Y-103862464D01*
X63324844Y-103386274D02*
X63324844Y-103195798D01*
X63277225Y-103100559D01*
X63229606Y-103052940D01*
X63086749Y-102957702D01*
X62896273Y-102910083D01*
X62515321Y-102910083D01*
X62420083Y-102957702D01*
X62372464Y-103005321D01*
X62324844Y-103100559D01*
X62324844Y-103291036D01*
X62372464Y-103386274D01*
X62420083Y-103433893D01*
X62515321Y-103481512D01*
X62753416Y-103481512D01*
X62848654Y-103433893D01*
X62896273Y-103386274D01*
X62943892Y-103291036D01*
X62943892Y-103100559D01*
X62896273Y-103005321D01*
X62848654Y-102957702D01*
X62753416Y-102910083D01*
%TO.C,RCA 4LEG*%
X20679437Y-106113333D02*
X20203247Y-106446666D01*
X20679437Y-106684761D02*
X19679437Y-106684761D01*
X19679437Y-106303809D01*
X19727057Y-106208571D01*
X19774676Y-106160952D01*
X19869914Y-106113333D01*
X20012771Y-106113333D01*
X20108009Y-106160952D01*
X20155628Y-106208571D01*
X20203247Y-106303809D01*
X20203247Y-106684761D01*
X20584199Y-105113333D02*
X20631818Y-105160952D01*
X20679437Y-105303809D01*
X20679437Y-105399047D01*
X20631818Y-105541904D01*
X20536580Y-105637142D01*
X20441342Y-105684761D01*
X20250866Y-105732380D01*
X20108009Y-105732380D01*
X19917533Y-105684761D01*
X19822295Y-105637142D01*
X19727057Y-105541904D01*
X19679437Y-105399047D01*
X19679437Y-105303809D01*
X19727057Y-105160952D01*
X19774676Y-105113333D01*
X20393723Y-104732380D02*
X20393723Y-104256190D01*
X20679437Y-104827619D02*
X19679437Y-104494285D01*
X20679437Y-104160952D01*
X20012771Y-102637142D02*
X20679437Y-102637142D01*
X19631818Y-102875238D02*
X20346104Y-103113333D01*
X20346104Y-102494285D01*
X20679437Y-101637142D02*
X20679437Y-102113333D01*
X19679437Y-102113333D01*
X20155628Y-101303809D02*
X20155628Y-100970476D01*
X20679437Y-100827619D02*
X20679437Y-101303809D01*
X19679437Y-101303809D01*
X19679437Y-100827619D01*
X19727057Y-99875238D02*
X19679437Y-99970476D01*
X19679437Y-100113333D01*
X19727057Y-100256190D01*
X19822295Y-100351428D01*
X19917533Y-100399047D01*
X20108009Y-100446666D01*
X20250866Y-100446666D01*
X20441342Y-100399047D01*
X20536580Y-100351428D01*
X20631818Y-100256190D01*
X20679437Y-100113333D01*
X20679437Y-100018095D01*
X20631818Y-99875238D01*
X20584199Y-99827619D01*
X20250866Y-99827619D01*
X20250866Y-100018095D01*
X34474914Y-105520000D02*
X34417771Y-105491428D01*
X34332057Y-105491428D01*
X34246342Y-105520000D01*
X34189199Y-105577142D01*
X34160628Y-105634285D01*
X34132057Y-105748571D01*
X34132057Y-105834285D01*
X34160628Y-105948571D01*
X34189199Y-106005714D01*
X34246342Y-106062857D01*
X34332057Y-106091428D01*
X34389199Y-106091428D01*
X34474914Y-106062857D01*
X34503485Y-106034285D01*
X34503485Y-105834285D01*
X34389199Y-105834285D01*
X34760628Y-106091428D02*
X34760628Y-105491428D01*
X35103485Y-106091428D01*
X35103485Y-105491428D01*
X35389199Y-106091428D02*
X35389199Y-105491428D01*
X35532057Y-105491428D01*
X35617771Y-105520000D01*
X35674914Y-105577142D01*
X35703485Y-105634285D01*
X35732057Y-105748571D01*
X35732057Y-105834285D01*
X35703485Y-105948571D01*
X35674914Y-106005714D01*
X35617771Y-106062857D01*
X35532057Y-106091428D01*
X35389199Y-106091428D01*
X34079628Y-103522857D02*
X34165342Y-103551428D01*
X34308199Y-103551428D01*
X34365342Y-103522857D01*
X34393914Y-103494285D01*
X34422485Y-103437142D01*
X34422485Y-103380000D01*
X34393914Y-103322857D01*
X34365342Y-103294285D01*
X34308199Y-103265714D01*
X34193914Y-103237142D01*
X34136771Y-103208571D01*
X34108199Y-103180000D01*
X34079628Y-103122857D01*
X34079628Y-103065714D01*
X34108199Y-103008571D01*
X34136771Y-102980000D01*
X34193914Y-102951428D01*
X34336771Y-102951428D01*
X34422485Y-102980000D01*
X34993914Y-102980000D02*
X34936771Y-102951428D01*
X34851057Y-102951428D01*
X34765342Y-102980000D01*
X34708199Y-103037142D01*
X34679628Y-103094285D01*
X34651057Y-103208571D01*
X34651057Y-103294285D01*
X34679628Y-103408571D01*
X34708199Y-103465714D01*
X34765342Y-103522857D01*
X34851057Y-103551428D01*
X34908199Y-103551428D01*
X34993914Y-103522857D01*
X35022485Y-103494285D01*
X35022485Y-103294285D01*
X34908199Y-103294285D01*
%TO.C,J1*%
X87242380Y-86688334D02*
X87956666Y-86688334D01*
X88099523Y-86735953D01*
X88194761Y-86831191D01*
X88242380Y-86974048D01*
X88242380Y-87069286D01*
X88242380Y-85688334D02*
X88242380Y-86259762D01*
X88242380Y-85974048D02*
X87242380Y-85974048D01*
X87385238Y-86069286D01*
X87480476Y-86164524D01*
X87528095Y-86259762D01*
%TO.C,C7*%
X55704536Y-92447935D02*
X55752155Y-92495554D01*
X55799774Y-92638411D01*
X55799774Y-92733649D01*
X55752155Y-92876507D01*
X55656917Y-92971745D01*
X55561679Y-93019364D01*
X55371203Y-93066983D01*
X55228346Y-93066983D01*
X55037870Y-93019364D01*
X54942632Y-92971745D01*
X54847394Y-92876507D01*
X54799774Y-92733649D01*
X54799774Y-92638411D01*
X54847394Y-92495554D01*
X54895013Y-92447935D01*
X54799774Y-92114602D02*
X54799774Y-91447935D01*
X55799774Y-91876507D01*
%TO.C,R9*%
X67702380Y-69290870D02*
X67226190Y-69624204D01*
X67702380Y-69862299D02*
X66702380Y-69862299D01*
X66702380Y-69481346D01*
X66750000Y-69386108D01*
X66797619Y-69338489D01*
X66892857Y-69290870D01*
X67035714Y-69290870D01*
X67130952Y-69338489D01*
X67178571Y-69386108D01*
X67226190Y-69481346D01*
X67226190Y-69862299D01*
X67702380Y-68814680D02*
X67702380Y-68624204D01*
X67654761Y-68528965D01*
X67607142Y-68481346D01*
X67464285Y-68386108D01*
X67273809Y-68338489D01*
X66892857Y-68338489D01*
X66797619Y-68386108D01*
X66750000Y-68433727D01*
X66702380Y-68528965D01*
X66702380Y-68719442D01*
X66750000Y-68814680D01*
X66797619Y-68862299D01*
X66892857Y-68909918D01*
X67130952Y-68909918D01*
X67226190Y-68862299D01*
X67273809Y-68814680D01*
X67321428Y-68719442D01*
X67321428Y-68528965D01*
X67273809Y-68433727D01*
X67226190Y-68386108D01*
X67130952Y-68338489D01*
%TO.C,R8*%
X52532238Y-103862464D02*
X52056048Y-104195798D01*
X52532238Y-104433893D02*
X51532238Y-104433893D01*
X51532238Y-104052940D01*
X51579858Y-103957702D01*
X51627477Y-103910083D01*
X51722715Y-103862464D01*
X51865572Y-103862464D01*
X51960810Y-103910083D01*
X52008429Y-103957702D01*
X52056048Y-104052940D01*
X52056048Y-104433893D01*
X51960810Y-103291036D02*
X51913191Y-103386274D01*
X51865572Y-103433893D01*
X51770334Y-103481512D01*
X51722715Y-103481512D01*
X51627477Y-103433893D01*
X51579858Y-103386274D01*
X51532238Y-103291036D01*
X51532238Y-103100559D01*
X51579858Y-103005321D01*
X51627477Y-102957702D01*
X51722715Y-102910083D01*
X51770334Y-102910083D01*
X51865572Y-102957702D01*
X51913191Y-103005321D01*
X51960810Y-103100559D01*
X51960810Y-103291036D01*
X52008429Y-103386274D01*
X52056048Y-103433893D01*
X52151286Y-103481512D01*
X52341762Y-103481512D01*
X52437000Y-103433893D01*
X52484619Y-103386274D01*
X52532238Y-103291036D01*
X52532238Y-103100559D01*
X52484619Y-103005321D01*
X52437000Y-102957702D01*
X52341762Y-102910083D01*
X52151286Y-102910083D01*
X52056048Y-102957702D01*
X52008429Y-103005321D01*
X51960810Y-103100559D01*
%TO.C,C4*%
X53752071Y-103994787D02*
X53799690Y-104042406D01*
X53847309Y-104185263D01*
X53847309Y-104280501D01*
X53799690Y-104423359D01*
X53704452Y-104518597D01*
X53609214Y-104566216D01*
X53418738Y-104613835D01*
X53275881Y-104613835D01*
X53085405Y-104566216D01*
X52990167Y-104518597D01*
X52894929Y-104423359D01*
X52847309Y-104280501D01*
X52847309Y-104185263D01*
X52894929Y-104042406D01*
X52942548Y-103994787D01*
X53180643Y-103137644D02*
X53847309Y-103137644D01*
X52799690Y-103375740D02*
X53513976Y-103613835D01*
X53513976Y-102994787D01*
%TO.C,R5*%
X57272238Y-80961667D02*
X56796048Y-81295001D01*
X57272238Y-81533096D02*
X56272238Y-81533096D01*
X56272238Y-81152143D01*
X56319858Y-81056905D01*
X56367477Y-81009286D01*
X56462715Y-80961667D01*
X56605572Y-80961667D01*
X56700810Y-81009286D01*
X56748429Y-81056905D01*
X56796048Y-81152143D01*
X56796048Y-81533096D01*
X56272238Y-80056905D02*
X56272238Y-80533096D01*
X56748429Y-80580715D01*
X56700810Y-80533096D01*
X56653191Y-80437858D01*
X56653191Y-80199762D01*
X56700810Y-80104524D01*
X56748429Y-80056905D01*
X56843667Y-80009286D01*
X57081762Y-80009286D01*
X57177000Y-80056905D01*
X57224619Y-80104524D01*
X57272238Y-80199762D01*
X57272238Y-80437858D01*
X57224619Y-80533096D01*
X57177000Y-80580715D01*
%TO.C,U1*%
X79342380Y-87266905D02*
X80151904Y-87266905D01*
X80247142Y-87219286D01*
X80294761Y-87171667D01*
X80342380Y-87076429D01*
X80342380Y-86885953D01*
X80294761Y-86790715D01*
X80247142Y-86743096D01*
X80151904Y-86695477D01*
X79342380Y-86695477D01*
X80342380Y-85695477D02*
X80342380Y-86266905D01*
X80342380Y-85981191D02*
X79342380Y-85981191D01*
X79485238Y-86076429D01*
X79580476Y-86171667D01*
X79628095Y-86266905D01*
D11*
%TO.C,RV1*%
X28618993Y-62875000D02*
X18827993Y-62875000D01*
X13827993Y-64625000D02*
X3827993Y-64625000D01*
X18827993Y-71365000D02*
X13827993Y-71365000D01*
X13827993Y-70865000D02*
X3827993Y-70865000D01*
X13827993Y-71365000D02*
X13827993Y-64125000D01*
X18827993Y-64125000D02*
X13827993Y-64125000D01*
X28618993Y-72615000D02*
X28618993Y-62875000D01*
X28618993Y-72615000D02*
X18827993Y-72615000D01*
X18827993Y-72615000D02*
X18827993Y-62875000D01*
X13827993Y-70865000D02*
X13827993Y-64625000D01*
X3827993Y-70865000D02*
X3827993Y-64625000D01*
X18827993Y-71365000D02*
X18827993Y-64125000D01*
%TO.C,C13*%
X81910000Y-103847324D02*
X71750000Y-103847324D01*
X80391000Y-107448324D02*
X73269000Y-107448324D01*
X81641000Y-105448324D02*
X77870000Y-105448324D01*
X81737000Y-105128324D02*
X77870000Y-105128324D01*
X80205000Y-98827678D02*
X79205000Y-98827678D01*
X74190000Y-105248324D02*
X71956000Y-105248324D01*
X74190000Y-105168324D02*
X71933000Y-105168324D01*
X74190000Y-106528324D02*
X72532000Y-106528324D01*
X81884000Y-104327324D02*
X77870000Y-104327324D01*
X81865000Y-104487324D02*
X77870000Y-104487324D01*
X81910000Y-103807324D02*
X71750000Y-103807324D01*
X74190000Y-106008324D02*
X72246000Y-106008324D01*
X74190000Y-105408324D02*
X72006000Y-105408324D01*
X74190000Y-105208324D02*
X71945000Y-105208324D01*
X74190000Y-106288324D02*
X72390000Y-106288324D01*
X81654000Y-105408324D02*
X77870000Y-105408324D01*
X81727000Y-105168324D02*
X77870000Y-105168324D01*
X81077000Y-106608324D02*
X76270000Y-106608324D01*
X81153000Y-106488324D02*
X76270000Y-106488324D01*
X81898000Y-104167324D02*
X77870000Y-104167324D01*
X80850000Y-106928324D02*
X72810000Y-106928324D01*
X78060000Y-108768324D02*
X75600000Y-108768324D01*
X81201000Y-106408324D02*
X76270000Y-106408324D01*
X80308000Y-107528324D02*
X73352000Y-107528324D01*
X80654000Y-107168324D02*
X73006000Y-107168324D01*
X81225000Y-106368324D02*
X76270000Y-106368324D01*
X75790000Y-104447324D02*
X71790000Y-104447324D01*
X80996000Y-106728324D02*
X76270000Y-106728324D01*
X74190000Y-105848324D02*
X72173000Y-105848324D01*
X74190000Y-105288324D02*
X71968000Y-105288324D01*
X81433000Y-105968324D02*
X77870000Y-105968324D01*
X80688000Y-107128324D02*
X72972000Y-107128324D01*
X81247000Y-106328324D02*
X76270000Y-106328324D01*
X79660000Y-108048324D02*
X74000000Y-108048324D01*
X75790000Y-104487324D02*
X71795000Y-104487324D01*
X74190000Y-106768324D02*
X72692000Y-106768324D01*
X74190000Y-105928324D02*
X72209000Y-105928324D01*
X80431000Y-107408324D02*
X73229000Y-107408324D01*
X74190000Y-106088324D02*
X72285000Y-106088324D01*
X79195000Y-108328324D02*
X74465000Y-108328324D01*
X80509000Y-107328324D02*
X73151000Y-107328324D01*
X81520000Y-105768324D02*
X77870000Y-105768324D01*
X74190000Y-105328324D02*
X71980000Y-105328324D01*
X78774000Y-108528324D02*
X74886000Y-108528324D01*
X81680000Y-105328324D02*
X77870000Y-105328324D01*
X74190000Y-104768324D02*
X71840000Y-104768324D01*
X81292000Y-106248324D02*
X76270000Y-106248324D01*
X75790000Y-104327324D02*
X71776000Y-104327324D01*
X75790000Y-104047324D02*
X71755000Y-104047324D01*
X81905000Y-104047324D02*
X77870000Y-104047324D01*
X81024000Y-106688324D02*
X76270000Y-106688324D01*
X81841000Y-104648324D02*
X77870000Y-104648324D01*
X80222000Y-107608324D02*
X73438000Y-107608324D01*
X74190000Y-106648324D02*
X72609000Y-106648324D01*
X74190000Y-104968324D02*
X71883000Y-104968324D01*
X80755000Y-107048324D02*
X72905000Y-107048324D01*
X80470000Y-107368324D02*
X73190000Y-107368324D01*
X74190000Y-105448324D02*
X72019000Y-105448324D01*
X79039000Y-108408324D02*
X74621000Y-108408324D01*
X81895000Y-104207324D02*
X77870000Y-104207324D01*
X81270000Y-106288324D02*
X76270000Y-106288324D01*
X74190000Y-105528324D02*
X72047000Y-105528324D01*
X79719000Y-108008324D02*
X73941000Y-108008324D01*
X78572000Y-108608324D02*
X75088000Y-108608324D01*
X81334000Y-106168324D02*
X76270000Y-106168324D01*
X81812000Y-104808324D02*
X77870000Y-104808324D01*
X80546000Y-107288324D02*
X73114000Y-107288324D01*
X81598000Y-105568324D02*
X77870000Y-105568324D01*
X74190000Y-104848324D02*
X71856000Y-104848324D01*
X81908000Y-103967324D02*
X71752000Y-103967324D01*
X74190000Y-105128324D02*
X71923000Y-105128324D01*
X75790000Y-104127324D02*
X71760000Y-104127324D01*
X74190000Y-106688324D02*
X72636000Y-106688324D01*
X74190000Y-105968324D02*
X72227000Y-105968324D01*
X81907000Y-104007324D02*
X71753000Y-104007324D01*
X80036000Y-107768324D02*
X73624000Y-107768324D01*
X79775000Y-107968324D02*
X73885000Y-107968324D01*
X74190000Y-106168324D02*
X72326000Y-106168324D01*
X81051000Y-106648324D02*
X76270000Y-106648324D01*
X79409000Y-108208324D02*
X74251000Y-108208324D01*
X81667000Y-105368324D02*
X77870000Y-105368324D01*
X78955000Y-108448324D02*
X74705000Y-108448324D01*
X74190000Y-106448324D02*
X72483000Y-106448324D01*
X75790000Y-104087324D02*
X71757000Y-104087324D01*
X81804000Y-104848324D02*
X77870000Y-104848324D01*
X81768000Y-105008324D02*
X77870000Y-105008324D01*
X75790000Y-104648324D02*
X71819000Y-104648324D01*
X74190000Y-106128324D02*
X72305000Y-106128324D01*
X74190000Y-106728324D02*
X72664000Y-106728324D01*
X80131000Y-107688324D02*
X73529000Y-107688324D01*
X79539000Y-108128324D02*
X74121000Y-108128324D01*
X74190000Y-104728324D02*
X71833000Y-104728324D01*
X81355000Y-106128324D02*
X76270000Y-106128324D01*
X81584000Y-105608324D02*
X77870000Y-105608324D01*
X74190000Y-106248324D02*
X72368000Y-106248324D01*
X81394000Y-106048324D02*
X77870000Y-106048324D01*
X81786000Y-104928324D02*
X77870000Y-104928324D01*
X80880000Y-106888324D02*
X72780000Y-106888324D01*
X77692000Y-108848324D02*
X75968000Y-108848324D01*
X81909000Y-103927324D02*
X71751000Y-103927324D01*
X81128000Y-106528324D02*
X76270000Y-106528324D01*
X81870000Y-104447324D02*
X77870000Y-104447324D01*
X81537000Y-105728324D02*
X77870000Y-105728324D01*
X81777000Y-104968324D02*
X77870000Y-104968324D01*
X80177000Y-107648324D02*
X73483000Y-107648324D01*
X75790000Y-104247324D02*
X71768000Y-104247324D01*
X77429000Y-108888324D02*
X76231000Y-108888324D01*
X81880000Y-104367324D02*
X77870000Y-104367324D01*
X80266000Y-107568324D02*
X73394000Y-107568324D01*
X80583000Y-107248324D02*
X73077000Y-107248324D01*
X81758000Y-105048324D02*
X77870000Y-105048324D01*
X74190000Y-106568324D02*
X72557000Y-106568324D01*
X74190000Y-106608324D02*
X72583000Y-106608324D01*
X74190000Y-106208324D02*
X72347000Y-106208324D01*
X80968000Y-106768324D02*
X76270000Y-106768324D01*
X79340000Y-108248324D02*
X74320000Y-108248324D01*
X81313000Y-106208324D02*
X76270000Y-106208324D01*
X78340000Y-108688324D02*
X75320000Y-108688324D01*
X78460000Y-108648324D02*
X75200000Y-108648324D01*
X80619000Y-107208324D02*
X73041000Y-107208324D01*
X81854000Y-104568324D02*
X77870000Y-104568324D01*
X74190000Y-105688324D02*
X72107000Y-105688324D01*
X80084000Y-107728324D02*
X73576000Y-107728324D01*
X81504000Y-105808324D02*
X77870000Y-105808324D01*
X75790000Y-104287324D02*
X71772000Y-104287324D01*
X75790000Y-104367324D02*
X71780000Y-104367324D01*
X74190000Y-106048324D02*
X72266000Y-106048324D01*
X74190000Y-104928324D02*
X71874000Y-104928324D01*
X75790000Y-104167324D02*
X71762000Y-104167324D01*
X74190000Y-106488324D02*
X72507000Y-106488324D01*
X74190000Y-105048324D02*
X71902000Y-105048324D01*
X81568000Y-105648324D02*
X77870000Y-105648324D01*
X79986000Y-107808324D02*
X73674000Y-107808324D01*
X75790000Y-104608324D02*
X71812000Y-104608324D01*
X79119000Y-108368324D02*
X74541000Y-108368324D01*
X81827000Y-104728324D02*
X77870000Y-104728324D01*
X81875000Y-104407324D02*
X77870000Y-104407324D01*
X75790000Y-104688324D02*
X71826000Y-104688324D01*
X75790000Y-104528324D02*
X71800000Y-104528324D01*
X74190000Y-104888324D02*
X71865000Y-104888324D01*
X81487000Y-105848324D02*
X77870000Y-105848324D01*
X81910000Y-103887324D02*
X71750000Y-103887324D01*
X80940000Y-106808324D02*
X72720000Y-106808324D01*
X74190000Y-105648324D02*
X72092000Y-105648324D01*
X74190000Y-105568324D02*
X72062000Y-105568324D01*
X78208000Y-108728324D02*
X75452000Y-108728324D01*
X81469000Y-105888324D02*
X77870000Y-105888324D01*
X74190000Y-105088324D02*
X71912000Y-105088324D01*
X80722000Y-107088324D02*
X72938000Y-107088324D01*
X74190000Y-106408324D02*
X72459000Y-106408324D01*
X74190000Y-105488324D02*
X72033000Y-105488324D01*
X74190000Y-105888324D02*
X72191000Y-105888324D01*
X74190000Y-105808324D02*
X72156000Y-105808324D01*
X79884000Y-107888324D02*
X73776000Y-107888324D01*
X81613000Y-105528324D02*
X77870000Y-105528324D01*
X81103000Y-106568324D02*
X76270000Y-106568324D01*
X79830000Y-107928324D02*
X73830000Y-107928324D01*
X81715000Y-105208324D02*
X77870000Y-105208324D01*
X81900000Y-104127324D02*
X77870000Y-104127324D01*
X74190000Y-105368324D02*
X71993000Y-105368324D01*
X74190000Y-104808324D02*
X71848000Y-104808324D01*
X80910000Y-106848324D02*
X72750000Y-106848324D01*
X81820000Y-104768324D02*
X77870000Y-104768324D01*
X75790000Y-104568324D02*
X71806000Y-104568324D01*
X74190000Y-106368324D02*
X72435000Y-106368324D01*
X81834000Y-104688324D02*
X77870000Y-104688324D01*
X74190000Y-105008324D02*
X71892000Y-105008324D01*
X81177000Y-106448324D02*
X76270000Y-106448324D01*
X79475000Y-108168324D02*
X74185000Y-108168324D01*
X80350000Y-107488324D02*
X73310000Y-107488324D01*
X80787000Y-107008324D02*
X72873000Y-107008324D01*
X79936000Y-107848324D02*
X73724000Y-107848324D01*
X81451000Y-105928324D02*
X77870000Y-105928324D01*
X81553000Y-105688324D02*
X77870000Y-105688324D01*
X81748000Y-105088324D02*
X77870000Y-105088324D01*
X81903000Y-104087324D02*
X77870000Y-104087324D01*
X79600000Y-108088324D02*
X74060000Y-108088324D01*
X75790000Y-104407324D02*
X71785000Y-104407324D01*
X78676000Y-108568324D02*
X74984000Y-108568324D01*
X81888000Y-104287324D02*
X77870000Y-104287324D01*
X81860000Y-104528324D02*
X77870000Y-104528324D01*
X80819000Y-106968324D02*
X72841000Y-106968324D01*
X81627000Y-105488324D02*
X77870000Y-105488324D01*
X74190000Y-105608324D02*
X72076000Y-105608324D01*
X79269000Y-108288324D02*
X74391000Y-108288324D01*
X74190000Y-105728324D02*
X72123000Y-105728324D01*
X75790000Y-104207324D02*
X71765000Y-104207324D01*
X81892000Y-104247324D02*
X77870000Y-104247324D01*
X81704000Y-105248324D02*
X77870000Y-105248324D01*
X81375000Y-106088324D02*
X77870000Y-106088324D01*
X81795000Y-104888324D02*
X77870000Y-104888324D01*
X81414000Y-106008324D02*
X77870000Y-106008324D01*
X81692000Y-105288324D02*
X77870000Y-105288324D01*
X74190000Y-105768324D02*
X72140000Y-105768324D01*
X77892000Y-108808324D02*
X75768000Y-108808324D01*
X78867000Y-108488324D02*
X74793000Y-108488324D01*
X74190000Y-106328324D02*
X72413000Y-106328324D01*
X79705000Y-98327678D02*
X79705000Y-99327678D01*
X81848000Y-104608324D02*
X77870000Y-104608324D01*
X81950000Y-103807324D02*
G75*
G03*
X81950000Y-103807324I-5120000J0D01*
G01*
%TO.C,R6*%
X55794788Y-95551269D02*
X55794788Y-89011269D01*
X55464788Y-95551269D02*
X55794788Y-95551269D01*
X53384788Y-95551269D02*
X53054788Y-95551269D01*
X53054788Y-95551269D02*
X53054788Y-89011269D01*
X53054788Y-89011269D02*
X53384788Y-89011269D01*
X55794788Y-89011269D02*
X55464788Y-89011269D01*
%TO.C,RCA 4LEG*%
X18987057Y-75183592D02*
X33987057Y-75183592D01*
X18987057Y-90183592D02*
X18987057Y-75183592D01*
X33987057Y-90183592D02*
X33987057Y-75183592D01*
X33987057Y-90183592D02*
X18987057Y-90183592D01*
%TO.C,C3*%
X49784929Y-67411678D02*
X51968929Y-67411678D01*
X49784929Y-67651678D02*
X52041929Y-67651678D01*
X42188929Y-67891678D02*
X46104929Y-67891678D01*
X44269929Y-74492324D02*
X44269929Y-73492324D01*
X42179929Y-67931678D02*
X46104929Y-67931678D01*
X42361929Y-67291678D02*
X46104929Y-67291678D01*
X49784929Y-67291678D02*
X51927929Y-67291678D01*
X43064929Y-65971678D02*
X51224929Y-65971678D01*
X48184929Y-68652678D02*
X52212929Y-68652678D01*
X42114929Y-68291678D02*
X46104929Y-68291678D01*
X43124929Y-65891678D02*
X51164929Y-65891678D01*
X43769929Y-73992324D02*
X44769929Y-73992324D01*
X49784929Y-67331678D02*
X51941929Y-67331678D01*
X49784929Y-66211678D02*
X51391929Y-66211678D01*
X48184929Y-68372678D02*
X52184929Y-68372678D01*
X48184929Y-68732678D02*
X52217929Y-68732678D01*
X42120929Y-68251678D02*
X46104929Y-68251678D01*
X42950929Y-66131678D02*
X47704929Y-66131678D01*
X43797929Y-65171678D02*
X50491929Y-65171678D01*
X42226929Y-67731678D02*
X46104929Y-67731678D01*
X44855929Y-64451678D02*
X49433929Y-64451678D01*
X49784929Y-67611678D02*
X52029929Y-67611678D01*
X44779929Y-64491678D02*
X49509929Y-64491678D01*
X45914929Y-64051678D02*
X48374929Y-64051678D01*
X43252929Y-65731678D02*
X51036929Y-65731678D01*
X42376929Y-67251678D02*
X46104929Y-67251678D01*
X49784929Y-66251678D02*
X51417929Y-66251678D01*
X43890929Y-65091678D02*
X50398929Y-65091678D01*
X42099929Y-68412678D02*
X46104929Y-68412678D01*
X43988929Y-65011678D02*
X50300929Y-65011678D01*
X42066929Y-68852678D02*
X52222929Y-68852678D01*
X44374929Y-64731678D02*
X49914929Y-64731678D01*
X49784929Y-66051678D02*
X51282929Y-66051678D01*
X45634929Y-64131678D02*
X48654929Y-64131678D01*
X48184929Y-68171678D02*
X52155929Y-68171678D01*
X42259929Y-67611678D02*
X46104929Y-67611678D01*
X49784929Y-66571678D02*
X51606929Y-66571678D01*
X42773929Y-66411678D02*
X47704929Y-66411678D01*
X42086929Y-68532678D02*
X46104929Y-68532678D01*
X43543929Y-65411678D02*
X50745929Y-65411678D01*
X42079929Y-68612678D02*
X46104929Y-68612678D01*
X43752929Y-65211678D02*
X50536929Y-65211678D01*
X42064929Y-69012678D02*
X52224929Y-69012678D01*
X42749929Y-66451678D02*
X47704929Y-66451678D01*
X49784929Y-66291678D02*
X51442929Y-66291678D01*
X42071929Y-68732678D02*
X46104929Y-68732678D01*
X42065929Y-68892678D02*
X52223929Y-68892678D01*
X42109929Y-68332678D02*
X46104929Y-68332678D01*
X43624929Y-65331678D02*
X50664929Y-65331678D01*
X42154929Y-68051678D02*
X46104929Y-68051678D01*
X42523929Y-66891678D02*
X46104929Y-66891678D01*
X45107929Y-64331678D02*
X49181929Y-64331678D01*
X49784929Y-66531678D02*
X51584929Y-66531678D01*
X42074929Y-68692678D02*
X46104929Y-68692678D01*
X48184929Y-68131678D02*
X52148929Y-68131678D01*
X42682929Y-66571678D02*
X47704929Y-66571678D01*
X42082929Y-68572678D02*
X46104929Y-68572678D01*
X42162929Y-68011678D02*
X46104929Y-68011678D01*
X44705929Y-64531678D02*
X49583929Y-64531678D01*
X42978929Y-66091678D02*
X47704929Y-66091678D01*
X49784929Y-66771678D02*
X51708929Y-66771678D01*
X49784929Y-67771678D02*
X52072929Y-67771678D01*
X49784929Y-66411678D02*
X51515929Y-66411678D01*
X42727929Y-66491678D02*
X47704929Y-66491678D01*
X42487929Y-66971678D02*
X46104929Y-66971678D01*
X42140929Y-68131678D02*
X46104929Y-68131678D01*
X42247929Y-67651678D02*
X46104929Y-67651678D01*
X42541929Y-66851678D02*
X46104929Y-66851678D01*
X49784929Y-67531678D02*
X52006929Y-67531678D01*
X49784929Y-66971678D02*
X51801929Y-66971678D01*
X42076929Y-68652678D02*
X46104929Y-68652678D01*
X42923929Y-66171678D02*
X47704929Y-66171678D01*
X48184929Y-68332678D02*
X52179929Y-68332678D01*
X49784929Y-67851678D02*
X52091929Y-67851678D01*
X42064929Y-68972678D02*
X52224929Y-68972678D01*
X49784929Y-66451678D02*
X51539929Y-66451678D01*
X49784929Y-67891678D02*
X52100929Y-67891678D01*
X43034929Y-66011678D02*
X51254929Y-66011678D01*
X43219929Y-65771678D02*
X51069929Y-65771678D01*
X44314929Y-64771678D02*
X49974929Y-64771678D01*
X42704929Y-66531678D02*
X47704929Y-66531678D01*
X42599929Y-66731678D02*
X46104929Y-66731678D01*
X44565929Y-64611678D02*
X49723929Y-64611678D01*
X44038929Y-64971678D02*
X50250929Y-64971678D01*
X43708929Y-65251678D02*
X50580929Y-65251678D01*
X42126929Y-68211678D02*
X46104929Y-68211678D01*
X49784929Y-66651678D02*
X51648929Y-66651678D01*
X49784929Y-66811678D02*
X51728929Y-66811678D01*
X49784929Y-67931678D02*
X52109929Y-67931678D01*
X49784929Y-67971678D02*
X52118929Y-67971678D01*
X43504929Y-65451678D02*
X50784929Y-65451678D01*
X43320929Y-65651678D02*
X50968929Y-65651678D01*
X49784929Y-66171678D02*
X51365929Y-66171678D01*
X49784929Y-67571678D02*
X52018929Y-67571678D01*
X45514929Y-64171678D02*
X48774929Y-64171678D01*
X49784929Y-67451678D02*
X51981929Y-67451678D01*
X49784929Y-67251678D02*
X51912929Y-67251678D01*
X43583929Y-65371678D02*
X50705929Y-65371678D01*
X46082929Y-64011678D02*
X48206929Y-64011678D01*
X42104929Y-68372678D02*
X46104929Y-68372678D01*
X49784929Y-67131678D02*
X51867929Y-67131678D01*
X42090929Y-68492678D02*
X46104929Y-68492678D01*
X42294929Y-67491678D02*
X46104929Y-67491678D01*
X42619929Y-66691678D02*
X47704929Y-66691678D01*
X49784929Y-66371678D02*
X51491929Y-66371678D01*
X43465929Y-65491678D02*
X50823929Y-65491678D01*
X43843929Y-65131678D02*
X50445929Y-65131678D01*
X49784929Y-68051678D02*
X52134929Y-68051678D01*
X42094929Y-68452678D02*
X46104929Y-68452678D01*
X45766929Y-64091678D02*
X48522929Y-64091678D01*
X49784929Y-66491678D02*
X51561929Y-66491678D01*
X42797929Y-66371678D02*
X47704929Y-66371678D01*
X49784929Y-67491678D02*
X51994929Y-67491678D01*
X48184929Y-68452678D02*
X52194929Y-68452678D01*
X43938929Y-65051678D02*
X50350929Y-65051678D01*
X44435929Y-64691678D02*
X49853929Y-64691678D01*
X48184929Y-68772678D02*
X52219929Y-68772678D01*
X49784929Y-68011678D02*
X52126929Y-68011678D01*
X45019929Y-64371678D02*
X49269929Y-64371678D01*
X48184929Y-68692678D02*
X52214929Y-68692678D01*
X46545929Y-63931678D02*
X47743929Y-63931678D01*
X49784929Y-66331678D02*
X51467929Y-66331678D01*
X49784929Y-66091678D02*
X51310929Y-66091678D01*
X42821929Y-66331678D02*
X47704929Y-66331678D01*
X49784929Y-66131678D02*
X51338929Y-66131678D01*
X42206929Y-67811678D02*
X46104929Y-67811678D01*
X46282929Y-63971678D02*
X48006929Y-63971678D01*
X42216929Y-67771678D02*
X46104929Y-67771678D01*
X48184929Y-68532678D02*
X52202929Y-68532678D01*
X44634929Y-64571678D02*
X49654929Y-64571678D01*
X49784929Y-67051678D02*
X51834929Y-67051678D01*
X42661929Y-66611678D02*
X47704929Y-66611678D01*
X44499929Y-64651678D02*
X49789929Y-64651678D01*
X48184929Y-68251678D02*
X52168929Y-68251678D01*
X43428929Y-65531678D02*
X50860929Y-65531678D01*
X42505929Y-66931678D02*
X46104929Y-66931678D01*
X42470929Y-67011678D02*
X46104929Y-67011678D01*
X42133929Y-68171678D02*
X46104929Y-68171678D01*
X42237929Y-67691678D02*
X46104929Y-67691678D01*
X42307929Y-67451678D02*
X46104929Y-67451678D01*
X44144929Y-64891678D02*
X50144929Y-64891678D01*
X49784929Y-67691678D02*
X52051929Y-67691678D01*
X42406929Y-67171678D02*
X46104929Y-67171678D01*
X42560929Y-66811678D02*
X46104929Y-66811678D01*
X48184929Y-68492678D02*
X52198929Y-68492678D01*
X42347929Y-67331678D02*
X46104929Y-67331678D01*
X43094929Y-65931678D02*
X51194929Y-65931678D01*
X42437929Y-67091678D02*
X46104929Y-67091678D01*
X45298929Y-64251678D02*
X48990929Y-64251678D01*
X45402929Y-64211678D02*
X48886929Y-64211678D01*
X42333929Y-67371678D02*
X46104929Y-67371678D01*
X49784929Y-67011678D02*
X51818929Y-67011678D01*
X42282929Y-67531678D02*
X46104929Y-67531678D01*
X42069929Y-68772678D02*
X46104929Y-68772678D01*
X42067929Y-68812678D02*
X52221929Y-68812678D01*
X44255929Y-64811678D02*
X50033929Y-64811678D01*
X49784929Y-67211678D02*
X51898929Y-67211678D01*
X48184929Y-68572678D02*
X52206929Y-68572678D01*
X42320929Y-67411678D02*
X46104929Y-67411678D01*
X49784929Y-67171678D02*
X51882929Y-67171678D01*
X49784929Y-67371678D02*
X51955929Y-67371678D01*
X44935929Y-64411678D02*
X49353929Y-64411678D01*
X42270929Y-67571678D02*
X46104929Y-67571678D01*
X48184929Y-68412678D02*
X52189929Y-68412678D01*
X42147929Y-68091678D02*
X46104929Y-68091678D01*
X43391929Y-65571678D02*
X50897929Y-65571678D01*
X42897929Y-66211678D02*
X47704929Y-66211678D01*
X42871929Y-66251678D02*
X47704929Y-66251678D01*
X43355929Y-65611678D02*
X50933929Y-65611678D01*
X49784929Y-68091678D02*
X52141929Y-68091678D01*
X42170929Y-67971678D02*
X46104929Y-67971678D01*
X49784929Y-67731678D02*
X52062929Y-67731678D01*
X48184929Y-68211678D02*
X52162929Y-68211678D01*
X42640929Y-66651678D02*
X47704929Y-66651678D01*
X43666929Y-65291678D02*
X50622929Y-65291678D01*
X49784929Y-66931678D02*
X51783929Y-66931678D01*
X43187929Y-65811678D02*
X51101929Y-65811678D01*
X44090929Y-64931678D02*
X50198929Y-64931678D01*
X43006929Y-66051678D02*
X47704929Y-66051678D01*
X42064929Y-68932678D02*
X52224929Y-68932678D01*
X42580929Y-66771678D02*
X46104929Y-66771678D01*
X43286929Y-65691678D02*
X51002929Y-65691678D01*
X44199929Y-64851678D02*
X50089929Y-64851678D01*
X42197929Y-67851678D02*
X46104929Y-67851678D01*
X42390929Y-67211678D02*
X46104929Y-67211678D01*
X49784929Y-67811678D02*
X52082929Y-67811678D01*
X43155929Y-65851678D02*
X51133929Y-65851678D01*
X49784929Y-66611678D02*
X51627929Y-66611678D01*
X49784929Y-66731678D02*
X51689929Y-66731678D01*
X49784929Y-66851678D02*
X51747929Y-66851678D01*
X45200929Y-64291678D02*
X49088929Y-64291678D01*
X48184929Y-68612678D02*
X52209929Y-68612678D01*
X49784929Y-67091678D02*
X51851929Y-67091678D01*
X49784929Y-66691678D02*
X51669929Y-66691678D01*
X42421929Y-67131678D02*
X46104929Y-67131678D01*
X42454929Y-67051678D02*
X46104929Y-67051678D01*
X48184929Y-68291678D02*
X52174929Y-68291678D01*
X42846929Y-66291678D02*
X47704929Y-66291678D01*
X49784929Y-66891678D02*
X51765929Y-66891678D01*
X52264929Y-69012678D02*
G75*
G03*
X52264929Y-69012678I-5120000J0D01*
G01*
%TO.C,C12*%
X71912000Y-67710881D02*
X75790000Y-67710881D01*
X79470000Y-66590881D02*
X81313000Y-66590881D01*
X72692000Y-66030881D02*
X77390000Y-66030881D01*
X71762000Y-68631881D02*
X75790000Y-68631881D01*
X72092000Y-67150881D02*
X75790000Y-67150881D01*
X79470000Y-67990881D02*
X81812000Y-67990881D01*
X73830000Y-64870881D02*
X79830000Y-64870881D01*
X74391000Y-64510881D02*
X79269000Y-64510881D01*
X72413000Y-66470881D02*
X77390000Y-66470881D01*
X73438000Y-65190881D02*
X80222000Y-65190881D01*
X77870000Y-68150881D02*
X81841000Y-68150881D01*
X79470000Y-67150881D02*
X81568000Y-67150881D01*
X72972000Y-65670881D02*
X80688000Y-65670881D01*
X71819000Y-68150881D02*
X75790000Y-68150881D01*
X72905000Y-65750881D02*
X80755000Y-65750881D01*
X71752000Y-68831881D02*
X81908000Y-68831881D01*
X79470000Y-66710881D02*
X81375000Y-66710881D01*
X73229000Y-65390881D02*
X80431000Y-65390881D01*
X79470000Y-67830881D02*
X81777000Y-67830881D01*
X72076000Y-67190881D02*
X75790000Y-67190881D01*
X71780000Y-68431881D02*
X75790000Y-68431881D01*
X73310000Y-65310881D02*
X80350000Y-65310881D01*
X79470000Y-67510881D02*
X81692000Y-67510881D01*
X79470000Y-66750881D02*
X81394000Y-66750881D01*
X79470000Y-66470881D02*
X81247000Y-66470881D01*
X79470000Y-66390881D02*
X81201000Y-66390881D01*
X79470000Y-66990881D02*
X81504000Y-66990881D01*
X79470000Y-67310881D02*
X81627000Y-67310881D01*
X71757000Y-68711881D02*
X75790000Y-68711881D01*
X74541000Y-64430881D02*
X79119000Y-64430881D01*
X79470000Y-66870881D02*
X81451000Y-66870881D01*
X74320000Y-64550881D02*
X79340000Y-64550881D01*
X72532000Y-66270881D02*
X77390000Y-66270881D01*
X72483000Y-66350881D02*
X77390000Y-66350881D01*
X75452000Y-64070881D02*
X78208000Y-64070881D01*
X71968000Y-67510881D02*
X75790000Y-67510881D01*
X73776000Y-64910881D02*
X79884000Y-64910881D01*
X73114000Y-65510881D02*
X80546000Y-65510881D01*
X71750000Y-68991881D02*
X81910000Y-68991881D01*
X79470000Y-67030881D02*
X81520000Y-67030881D01*
X72583000Y-66190881D02*
X77390000Y-66190881D01*
X79470000Y-66030881D02*
X80968000Y-66030881D01*
X72227000Y-66830881D02*
X75790000Y-66830881D01*
X73941000Y-64790881D02*
X79719000Y-64790881D01*
X73352000Y-65270881D02*
X80308000Y-65270881D01*
X72435000Y-66430881D02*
X77390000Y-66430881D01*
X75600000Y-64030881D02*
X78060000Y-64030881D01*
X71790000Y-68351881D02*
X75790000Y-68351881D01*
X72266000Y-66750881D02*
X75790000Y-66750881D01*
X73483000Y-65150881D02*
X80177000Y-65150881D01*
X72209000Y-66870881D02*
X75790000Y-66870881D01*
X71776000Y-68471881D02*
X75790000Y-68471881D01*
X76231000Y-63910881D02*
X77429000Y-63910881D01*
X72938000Y-65710881D02*
X80722000Y-65710881D01*
X79470000Y-67710881D02*
X81748000Y-67710881D01*
X75968000Y-63950881D02*
X77692000Y-63950881D01*
X72664000Y-66070881D02*
X77390000Y-66070881D01*
X79470000Y-66310881D02*
X81153000Y-66310881D01*
X75088000Y-64190881D02*
X78572000Y-64190881D01*
X75768000Y-63990881D02*
X77892000Y-63990881D01*
X71750000Y-68911881D02*
X81910000Y-68911881D01*
X74705000Y-64350881D02*
X78955000Y-64350881D01*
X73576000Y-65070881D02*
X80084000Y-65070881D01*
X71874000Y-67870881D02*
X75790000Y-67870881D01*
X74121000Y-64670881D02*
X79539000Y-64670881D01*
X73041000Y-65590881D02*
X80619000Y-65590881D01*
X77870000Y-68270881D02*
X81860000Y-68270881D01*
X71993000Y-67430881D02*
X75790000Y-67430881D01*
X72720000Y-65990881D02*
X80940000Y-65990881D01*
X72636000Y-66110881D02*
X77390000Y-66110881D01*
X72006000Y-67390881D02*
X75790000Y-67390881D01*
X79470000Y-66150881D02*
X81051000Y-66150881D01*
X79470000Y-67550881D02*
X81704000Y-67550881D01*
X79470000Y-67750881D02*
X81758000Y-67750881D01*
X72326000Y-66630881D02*
X77390000Y-66630881D01*
X79470000Y-67390881D02*
X81654000Y-67390881D01*
X79470000Y-66350881D02*
X81177000Y-66350881D01*
X72062000Y-67230881D02*
X75790000Y-67230881D01*
X72810000Y-65870881D02*
X80850000Y-65870881D01*
X71753000Y-68791881D02*
X81907000Y-68791881D01*
X79470000Y-67190881D02*
X81584000Y-67190881D01*
X79470000Y-67350881D02*
X81641000Y-67350881D01*
X72557000Y-66230881D02*
X77390000Y-66230881D01*
X79470000Y-66070881D02*
X80996000Y-66070881D01*
X79470000Y-66790881D02*
X81414000Y-66790881D01*
X73455000Y-73971527D02*
X74455000Y-73971527D01*
X71812000Y-68190881D02*
X75790000Y-68190881D01*
X79470000Y-66270881D02*
X81128000Y-66270881D01*
X79470000Y-66910881D02*
X81469000Y-66910881D01*
X72347000Y-66590881D02*
X77390000Y-66590881D01*
X79470000Y-67430881D02*
X81667000Y-67430881D01*
X72780000Y-65910881D02*
X80880000Y-65910881D01*
X73885000Y-64830881D02*
X79775000Y-64830881D01*
X72191000Y-66910881D02*
X75790000Y-66910881D01*
X79470000Y-66190881D02*
X81077000Y-66190881D01*
X72507000Y-66310881D02*
X77390000Y-66310881D01*
X79470000Y-67870881D02*
X81786000Y-67870881D01*
X72368000Y-66550881D02*
X77390000Y-66550881D01*
X79470000Y-66510881D02*
X81270000Y-66510881D01*
X71865000Y-67910881D02*
X75790000Y-67910881D01*
X73006000Y-65630881D02*
X80654000Y-65630881D01*
X74185000Y-64630881D02*
X79475000Y-64630881D01*
X79470000Y-68030881D02*
X81820000Y-68030881D01*
X72750000Y-65950881D02*
X80910000Y-65950881D01*
X79470000Y-66110881D02*
X81024000Y-66110881D01*
X71883000Y-67830881D02*
X75790000Y-67830881D01*
X71772000Y-68511881D02*
X75790000Y-68511881D01*
X77870000Y-68751881D02*
X81905000Y-68751881D01*
X77870000Y-68551881D02*
X81892000Y-68551881D01*
X73674000Y-64990881D02*
X79986000Y-64990881D01*
X71840000Y-68030881D02*
X75790000Y-68030881D01*
X71933000Y-67630881D02*
X75790000Y-67630881D01*
X79470000Y-66830881D02*
X81433000Y-66830881D01*
X79470000Y-67790881D02*
X81768000Y-67790881D01*
X77870000Y-68671881D02*
X81900000Y-68671881D01*
X71760000Y-68671881D02*
X75790000Y-68671881D01*
X77870000Y-68631881D02*
X81898000Y-68631881D01*
X72173000Y-66950881D02*
X75790000Y-66950881D01*
X79470000Y-66950881D02*
X81487000Y-66950881D01*
X73955000Y-74471527D02*
X73955000Y-73471527D01*
X71806000Y-68230881D02*
X75790000Y-68230881D01*
X71856000Y-67950881D02*
X75790000Y-67950881D01*
X72019000Y-67350881D02*
X75790000Y-67350881D01*
X71945000Y-67590881D02*
X75790000Y-67590881D01*
X72123000Y-67070881D02*
X75790000Y-67070881D01*
X79470000Y-67590881D02*
X81715000Y-67590881D01*
X74886000Y-64270881D02*
X78774000Y-64270881D01*
X74465000Y-64470881D02*
X79195000Y-64470881D01*
X79470000Y-67950881D02*
X81804000Y-67950881D01*
X72459000Y-66390881D02*
X77390000Y-66390881D01*
X79470000Y-67070881D02*
X81537000Y-67070881D01*
X72033000Y-67310881D02*
X75790000Y-67310881D01*
X72156000Y-66990881D02*
X75790000Y-66990881D01*
X72107000Y-67110881D02*
X75790000Y-67110881D01*
X77870000Y-68711881D02*
X81903000Y-68711881D01*
X79470000Y-67910881D02*
X81795000Y-67910881D01*
X71892000Y-67790881D02*
X75790000Y-67790881D01*
X79470000Y-67670881D02*
X81737000Y-67670881D01*
X77870000Y-68591881D02*
X81895000Y-68591881D01*
X71956000Y-67550881D02*
X75790000Y-67550881D01*
X71923000Y-67670881D02*
X75790000Y-67670881D01*
X72047000Y-67270881D02*
X75790000Y-67270881D01*
X71826000Y-68110881D02*
X75790000Y-68110881D01*
X79470000Y-66550881D02*
X81292000Y-66550881D01*
X72285000Y-66710881D02*
X75790000Y-66710881D01*
X79470000Y-67110881D02*
X81553000Y-67110881D01*
X73269000Y-65350881D02*
X80391000Y-65350881D01*
X77870000Y-68431881D02*
X81880000Y-68431881D01*
X72841000Y-65830881D02*
X80819000Y-65830881D01*
X79470000Y-66430881D02*
X81225000Y-66430881D01*
X72609000Y-66150881D02*
X77390000Y-66150881D01*
X79470000Y-66630881D02*
X81334000Y-66630881D01*
X73151000Y-65470881D02*
X80509000Y-65470881D01*
X73724000Y-64950881D02*
X79936000Y-64950881D01*
X72140000Y-67030881D02*
X75790000Y-67030881D01*
X79470000Y-66230881D02*
X81103000Y-66230881D01*
X77870000Y-68311881D02*
X81865000Y-68311881D01*
X77870000Y-68391881D02*
X81875000Y-68391881D01*
X71833000Y-68070881D02*
X75790000Y-68070881D01*
X71848000Y-67990881D02*
X75790000Y-67990881D01*
X74060000Y-64710881D02*
X79600000Y-64710881D01*
X71902000Y-67750881D02*
X75790000Y-67750881D01*
X74621000Y-64390881D02*
X79039000Y-64390881D01*
X71795000Y-68311881D02*
X75790000Y-68311881D01*
X77870000Y-68471881D02*
X81884000Y-68471881D01*
X71980000Y-67470881D02*
X75790000Y-67470881D01*
X75200000Y-64150881D02*
X78460000Y-64150881D01*
X71755000Y-68751881D02*
X75790000Y-68751881D01*
X71750000Y-68951881D02*
X81910000Y-68951881D01*
X77870000Y-68190881D02*
X81848000Y-68190881D01*
X79470000Y-67470881D02*
X81680000Y-67470881D01*
X72390000Y-66510881D02*
X77390000Y-66510881D01*
X71785000Y-68391881D02*
X75790000Y-68391881D01*
X71768000Y-68551881D02*
X75790000Y-68551881D01*
X73077000Y-65550881D02*
X80583000Y-65550881D01*
X73394000Y-65230881D02*
X80266000Y-65230881D01*
X77870000Y-68230881D02*
X81854000Y-68230881D01*
X71800000Y-68270881D02*
X75790000Y-68270881D01*
X72873000Y-65790881D02*
X80787000Y-65790881D01*
X71751000Y-68871881D02*
X81909000Y-68871881D01*
X79470000Y-67630881D02*
X81727000Y-67630881D01*
X77870000Y-68351881D02*
X81870000Y-68351881D01*
X79470000Y-66670881D02*
X81355000Y-66670881D01*
X73529000Y-65110881D02*
X80131000Y-65110881D01*
X74251000Y-64590881D02*
X79409000Y-64590881D01*
X73624000Y-65030881D02*
X80036000Y-65030881D01*
X72246000Y-66790881D02*
X75790000Y-66790881D01*
X79470000Y-67270881D02*
X81613000Y-67270881D01*
X74793000Y-64310881D02*
X78867000Y-64310881D01*
X77870000Y-68110881D02*
X81834000Y-68110881D01*
X73190000Y-65430881D02*
X80470000Y-65430881D01*
X79470000Y-67230881D02*
X81598000Y-67230881D01*
X75320000Y-64110881D02*
X78340000Y-64110881D01*
X77870000Y-68511881D02*
X81888000Y-68511881D01*
X79470000Y-68070881D02*
X81827000Y-68070881D01*
X74984000Y-64230881D02*
X78676000Y-64230881D01*
X74000000Y-64750881D02*
X79660000Y-64750881D01*
X72305000Y-66670881D02*
X77390000Y-66670881D01*
X71765000Y-68591881D02*
X75790000Y-68591881D01*
X81950000Y-68991881D02*
G75*
G03*
X81950000Y-68991881I-5120000J0D01*
G01*
%TO.C,R11*%
X85080000Y-72394204D02*
X85410000Y-72394204D01*
X85410000Y-72394204D02*
X85410000Y-65854204D01*
X85410000Y-65854204D02*
X85080000Y-65854204D01*
X82670000Y-65854204D02*
X83000000Y-65854204D01*
X82670000Y-72394204D02*
X82670000Y-65854204D01*
X83000000Y-72394204D02*
X82670000Y-72394204D01*
%TO.C,C1*%
X42064929Y-80662678D02*
X52224929Y-80662678D01*
X49784929Y-78021678D02*
X51491929Y-78021678D01*
X43769929Y-85642324D02*
X44769929Y-85642324D01*
X42897929Y-77861678D02*
X47704929Y-77861678D01*
X48184929Y-79901678D02*
X52168929Y-79901678D01*
X43355929Y-77261678D02*
X50933929Y-77261678D01*
X49784929Y-78581678D02*
X51783929Y-78581678D01*
X44038929Y-76621678D02*
X50250929Y-76621678D01*
X42065929Y-80542678D02*
X52223929Y-80542678D01*
X49784929Y-79221678D02*
X52018929Y-79221678D01*
X42090929Y-80142678D02*
X46104929Y-80142678D01*
X49784929Y-79341678D02*
X52051929Y-79341678D01*
X46282929Y-75621678D02*
X48006929Y-75621678D01*
X42114929Y-79941678D02*
X46104929Y-79941678D01*
X44090929Y-76581678D02*
X50198929Y-76581678D01*
X44634929Y-76221678D02*
X49654929Y-76221678D01*
X42133929Y-79821678D02*
X46104929Y-79821678D01*
X42580929Y-78421678D02*
X46104929Y-78421678D01*
X49784929Y-78941678D02*
X51927929Y-78941678D01*
X42247929Y-79301678D02*
X46104929Y-79301678D01*
X45107929Y-75981678D02*
X49181929Y-75981678D01*
X42086929Y-80182678D02*
X46104929Y-80182678D01*
X42069929Y-80422678D02*
X46104929Y-80422678D01*
X49784929Y-78621678D02*
X51801929Y-78621678D01*
X45200929Y-75941678D02*
X49088929Y-75941678D01*
X49784929Y-78061678D02*
X51515929Y-78061678D01*
X42226929Y-79381678D02*
X46104929Y-79381678D01*
X49784929Y-79021678D02*
X51955929Y-79021678D01*
X43124929Y-77541678D02*
X51164929Y-77541678D01*
X43797929Y-76821678D02*
X50491929Y-76821678D01*
X42197929Y-79501678D02*
X46104929Y-79501678D01*
X48184929Y-80302678D02*
X52212929Y-80302678D01*
X44499929Y-76301678D02*
X49789929Y-76301678D01*
X49784929Y-78181678D02*
X51584929Y-78181678D01*
X49784929Y-79181678D02*
X52006929Y-79181678D01*
X42640929Y-78301678D02*
X47704929Y-78301678D01*
X42140929Y-79781678D02*
X46104929Y-79781678D01*
X49784929Y-77941678D02*
X51442929Y-77941678D01*
X42661929Y-78261678D02*
X47704929Y-78261678D01*
X49784929Y-78461678D02*
X51728929Y-78461678D01*
X46545929Y-75581678D02*
X47743929Y-75581678D01*
X42333929Y-79021678D02*
X46104929Y-79021678D01*
X49784929Y-78741678D02*
X51851929Y-78741678D01*
X49784929Y-79501678D02*
X52091929Y-79501678D01*
X44144929Y-76541678D02*
X50144929Y-76541678D01*
X42541929Y-78501678D02*
X46104929Y-78501678D01*
X45514929Y-75821678D02*
X48774929Y-75821678D01*
X45298929Y-75901678D02*
X48990929Y-75901678D01*
X42082929Y-80222678D02*
X46104929Y-80222678D01*
X45402929Y-75861678D02*
X48886929Y-75861678D01*
X44374929Y-76381678D02*
X49914929Y-76381678D01*
X49784929Y-79741678D02*
X52141929Y-79741678D01*
X48184929Y-79861678D02*
X52162929Y-79861678D01*
X49784929Y-78981678D02*
X51941929Y-78981678D01*
X44199929Y-76501678D02*
X50089929Y-76501678D01*
X49784929Y-77981678D02*
X51467929Y-77981678D01*
X44435929Y-76341678D02*
X49853929Y-76341678D01*
X46082929Y-75661678D02*
X48206929Y-75661678D01*
X45766929Y-75741678D02*
X48522929Y-75741678D01*
X42126929Y-79861678D02*
X46104929Y-79861678D01*
X49784929Y-78501678D02*
X51747929Y-78501678D01*
X49784929Y-78301678D02*
X51648929Y-78301678D01*
X43890929Y-76741678D02*
X50398929Y-76741678D01*
X42619929Y-78341678D02*
X47704929Y-78341678D01*
X44935929Y-76061678D02*
X49353929Y-76061678D01*
X43252929Y-77381678D02*
X51036929Y-77381678D01*
X42109929Y-79982678D02*
X46104929Y-79982678D01*
X49784929Y-79261678D02*
X52029929Y-79261678D01*
X42099929Y-80062678D02*
X46104929Y-80062678D01*
X42978929Y-77741678D02*
X47704929Y-77741678D01*
X49784929Y-79101678D02*
X51981929Y-79101678D01*
X49784929Y-79301678D02*
X52041929Y-79301678D01*
X44255929Y-76461678D02*
X50033929Y-76461678D01*
X44779929Y-76141678D02*
X49509929Y-76141678D01*
X45914929Y-75701678D02*
X48374929Y-75701678D01*
X43006929Y-77701678D02*
X47704929Y-77701678D01*
X44855929Y-76101678D02*
X49433929Y-76101678D01*
X42094929Y-80102678D02*
X46104929Y-80102678D01*
X48184929Y-80382678D02*
X52217929Y-80382678D01*
X48184929Y-80342678D02*
X52214929Y-80342678D01*
X49784929Y-77901678D02*
X51417929Y-77901678D01*
X45634929Y-75781678D02*
X48654929Y-75781678D01*
X42704929Y-78181678D02*
X47704929Y-78181678D01*
X43583929Y-77021678D02*
X50705929Y-77021678D01*
X49784929Y-78541678D02*
X51765929Y-78541678D01*
X42682929Y-78221678D02*
X47704929Y-78221678D01*
X43428929Y-77181678D02*
X50860929Y-77181678D01*
X42188929Y-79541678D02*
X46104929Y-79541678D01*
X43752929Y-76861678D02*
X50536929Y-76861678D01*
X49784929Y-77861678D02*
X51391929Y-77861678D01*
X42361929Y-78941678D02*
X46104929Y-78941678D01*
X43543929Y-77061678D02*
X50745929Y-77061678D01*
X42064929Y-80582678D02*
X52224929Y-80582678D01*
X49784929Y-79421678D02*
X52072929Y-79421678D01*
X48184929Y-80262678D02*
X52209929Y-80262678D01*
X43938929Y-76701678D02*
X50350929Y-76701678D01*
X42066929Y-80502678D02*
X52222929Y-80502678D01*
X43320929Y-77301678D02*
X50968929Y-77301678D01*
X42923929Y-77821678D02*
X47704929Y-77821678D01*
X43504929Y-77101678D02*
X50784929Y-77101678D01*
X43708929Y-76901678D02*
X50580929Y-76901678D01*
X49784929Y-77741678D02*
X51310929Y-77741678D01*
X48184929Y-80182678D02*
X52202929Y-80182678D01*
X42487929Y-78621678D02*
X46104929Y-78621678D01*
X49784929Y-79581678D02*
X52109929Y-79581678D01*
X43286929Y-77341678D02*
X51002929Y-77341678D01*
X42120929Y-79901678D02*
X46104929Y-79901678D01*
X43155929Y-77501678D02*
X51133929Y-77501678D01*
X42170929Y-79621678D02*
X46104929Y-79621678D01*
X43843929Y-76781678D02*
X50445929Y-76781678D01*
X42147929Y-79741678D02*
X46104929Y-79741678D01*
X49784929Y-78421678D02*
X51708929Y-78421678D01*
X49784929Y-78141678D02*
X51561929Y-78141678D01*
X44705929Y-76181678D02*
X49583929Y-76181678D01*
X42104929Y-80022678D02*
X46104929Y-80022678D01*
X42846929Y-77941678D02*
X47704929Y-77941678D01*
X49784929Y-78661678D02*
X51818929Y-78661678D01*
X48184929Y-80422678D02*
X52219929Y-80422678D01*
X49784929Y-78901678D02*
X51912929Y-78901678D01*
X42523929Y-78541678D02*
X46104929Y-78541678D01*
X42162929Y-79661678D02*
X46104929Y-79661678D01*
X45019929Y-76021678D02*
X49269929Y-76021678D01*
X49784929Y-79701678D02*
X52134929Y-79701678D01*
X48184929Y-80102678D02*
X52194929Y-80102678D01*
X49784929Y-79461678D02*
X52082929Y-79461678D01*
X49784929Y-77701678D02*
X51282929Y-77701678D01*
X44565929Y-76261678D02*
X49723929Y-76261678D01*
X42076929Y-80302678D02*
X46104929Y-80302678D01*
X49784929Y-78341678D02*
X51669929Y-78341678D01*
X42067929Y-80462678D02*
X52221929Y-80462678D01*
X42871929Y-77901678D02*
X47704929Y-77901678D01*
X42206929Y-79461678D02*
X46104929Y-79461678D01*
X48184929Y-80022678D02*
X52184929Y-80022678D01*
X48184929Y-80222678D02*
X52206929Y-80222678D01*
X43094929Y-77581678D02*
X51194929Y-77581678D01*
X48184929Y-79982678D02*
X52179929Y-79982678D01*
X44314929Y-76421678D02*
X49974929Y-76421678D01*
X48184929Y-80062678D02*
X52189929Y-80062678D01*
X42390929Y-78861678D02*
X46104929Y-78861678D01*
X42079929Y-80262678D02*
X46104929Y-80262678D01*
X42259929Y-79261678D02*
X46104929Y-79261678D01*
X42773929Y-78061678D02*
X47704929Y-78061678D01*
X42071929Y-80382678D02*
X46104929Y-80382678D01*
X42797929Y-78021678D02*
X47704929Y-78021678D01*
X42179929Y-79581678D02*
X46104929Y-79581678D01*
X42294929Y-79141678D02*
X46104929Y-79141678D01*
X49784929Y-79381678D02*
X52062929Y-79381678D01*
X42599929Y-78381678D02*
X46104929Y-78381678D01*
X49784929Y-77821678D02*
X51365929Y-77821678D01*
X49784929Y-79541678D02*
X52100929Y-79541678D01*
X43624929Y-76981678D02*
X50664929Y-76981678D01*
X42950929Y-77781678D02*
X47704929Y-77781678D01*
X43988929Y-76661678D02*
X50300929Y-76661678D01*
X42154929Y-79701678D02*
X46104929Y-79701678D01*
X42216929Y-79421678D02*
X46104929Y-79421678D01*
X43187929Y-77461678D02*
X51101929Y-77461678D01*
X43391929Y-77221678D02*
X50897929Y-77221678D01*
X42237929Y-79341678D02*
X46104929Y-79341678D01*
X42320929Y-79061678D02*
X46104929Y-79061678D01*
X42347929Y-78981678D02*
X46104929Y-78981678D01*
X42376929Y-78901678D02*
X46104929Y-78901678D01*
X49784929Y-78781678D02*
X51867929Y-78781678D01*
X42270929Y-79221678D02*
X46104929Y-79221678D01*
X43064929Y-77621678D02*
X51224929Y-77621678D01*
X42727929Y-78141678D02*
X47704929Y-78141678D01*
X49784929Y-77781678D02*
X51338929Y-77781678D01*
X49784929Y-79661678D02*
X52126929Y-79661678D01*
X43465929Y-77141678D02*
X50823929Y-77141678D01*
X43219929Y-77421678D02*
X51069929Y-77421678D01*
X49784929Y-78101678D02*
X51539929Y-78101678D01*
X48184929Y-79781678D02*
X52148929Y-79781678D01*
X49784929Y-78221678D02*
X51606929Y-78221678D01*
X42454929Y-78701678D02*
X46104929Y-78701678D01*
X42505929Y-78581678D02*
X46104929Y-78581678D01*
X49784929Y-78701678D02*
X51834929Y-78701678D01*
X42437929Y-78741678D02*
X46104929Y-78741678D01*
X42421929Y-78781678D02*
X46104929Y-78781678D01*
X42821929Y-77981678D02*
X47704929Y-77981678D01*
X42749929Y-78101678D02*
X47704929Y-78101678D01*
X48184929Y-79821678D02*
X52155929Y-79821678D01*
X49784929Y-78821678D02*
X51882929Y-78821678D01*
X42470929Y-78661678D02*
X46104929Y-78661678D01*
X42307929Y-79101678D02*
X46104929Y-79101678D01*
X43034929Y-77661678D02*
X51254929Y-77661678D01*
X49784929Y-78381678D02*
X51689929Y-78381678D01*
X48184929Y-80142678D02*
X52198929Y-80142678D01*
X42282929Y-79181678D02*
X46104929Y-79181678D01*
X49784929Y-78861678D02*
X51898929Y-78861678D01*
X43666929Y-76941678D02*
X50622929Y-76941678D01*
X44269929Y-86142324D02*
X44269929Y-85142324D01*
X48184929Y-79941678D02*
X52174929Y-79941678D01*
X49784929Y-79621678D02*
X52118929Y-79621678D01*
X49784929Y-78261678D02*
X51627929Y-78261678D01*
X42064929Y-80622678D02*
X52224929Y-80622678D01*
X42560929Y-78461678D02*
X46104929Y-78461678D01*
X42406929Y-78821678D02*
X46104929Y-78821678D01*
X49784929Y-79141678D02*
X51994929Y-79141678D01*
X49784929Y-79061678D02*
X51968929Y-79061678D01*
X42074929Y-80342678D02*
X46104929Y-80342678D01*
X52264929Y-80662678D02*
G75*
G03*
X52264929Y-80662678I-5120000J0D01*
G01*
%TO.C,C6*%
X56502464Y-75425001D02*
X61742464Y-75425001D01*
X61742464Y-86165001D02*
X61742464Y-75425001D01*
X56502464Y-86165001D02*
X61742464Y-86165001D01*
X56502464Y-86165001D02*
X56502464Y-75425001D01*
%TO.C,R1*%
X32057525Y-71015000D02*
X32057525Y-64475000D01*
X31727525Y-71015000D02*
X32057525Y-71015000D01*
X29647525Y-71015000D02*
X29317525Y-71015000D01*
X29317525Y-71015000D02*
X29317525Y-64475000D01*
X29317525Y-64475000D02*
X29647525Y-64475000D01*
X32057525Y-64475000D02*
X31727525Y-64475000D01*
%TO.C,J3*%
X95878414Y-80640000D02*
X95878414Y-81040000D01*
X102858414Y-80880000D02*
X96118414Y-80880000D01*
X96518414Y-80640000D02*
X95878414Y-80640000D01*
X96638414Y-80880000D02*
X96638414Y-91741000D01*
X101738414Y-80880000D02*
X101738414Y-91741000D01*
X96118414Y-80880000D02*
X96118414Y-91741000D01*
X102858414Y-91741000D02*
X96118414Y-91741000D01*
X102858414Y-80880000D02*
X102858414Y-91741000D01*
%TO.C,R2*%
X33037057Y-71015000D02*
X32707057Y-71015000D01*
X35117057Y-71015000D02*
X35447057Y-71015000D01*
X32707057Y-71015000D02*
X32707057Y-64475000D01*
X35447057Y-64475000D02*
X35117057Y-64475000D01*
X35447057Y-71015000D02*
X35447057Y-64475000D01*
X32707057Y-64475000D02*
X33037057Y-64475000D01*
%TO.C,R12*%
X85410000Y-106945001D02*
X85080000Y-106945001D01*
X85080000Y-100405001D02*
X85410000Y-100405001D01*
X82670000Y-106945001D02*
X83000000Y-106945001D01*
X82670000Y-100405001D02*
X82670000Y-106945001D01*
X83000000Y-100405001D02*
X82670000Y-100405001D01*
X85410000Y-100405001D02*
X85410000Y-106945001D01*
%TO.C,R3*%
X36400000Y-73930001D02*
X36400000Y-73600001D01*
X36400000Y-76340001D02*
X42940000Y-76340001D01*
X42940000Y-76340001D02*
X42940000Y-76010001D01*
X36400000Y-76010001D02*
X36400000Y-76340001D01*
X36400000Y-73600001D02*
X42940000Y-73600001D01*
X42940000Y-73600001D02*
X42940000Y-73930001D01*
%TO.C,C2*%
X44504929Y-93814592D02*
X42259929Y-93814592D01*
X49509929Y-96934592D02*
X44779929Y-96934592D01*
X44504929Y-94974592D02*
X42749929Y-94974592D01*
X52194929Y-92973592D02*
X48184929Y-92973592D01*
X48374929Y-97374592D02*
X45914929Y-97374592D01*
X51994929Y-93934592D02*
X48184929Y-93934592D01*
X46104929Y-93214592D02*
X42126929Y-93214592D01*
X51669929Y-94734592D02*
X46584929Y-94734592D01*
X52126929Y-93414592D02*
X48184929Y-93414592D01*
X46104929Y-93093592D02*
X42109929Y-93093592D01*
X44504929Y-94494592D02*
X42505929Y-94494592D01*
X52214929Y-92733592D02*
X48184929Y-92733592D01*
X44504929Y-94774592D02*
X42640929Y-94774592D01*
X52091929Y-93574592D02*
X48184929Y-93574592D01*
X44504929Y-94934592D02*
X42727929Y-94934592D01*
X51002929Y-95734592D02*
X43286929Y-95734592D01*
X51310929Y-95334592D02*
X46584929Y-95334592D01*
X51101929Y-95614592D02*
X43187929Y-95614592D01*
X44504929Y-93494592D02*
X42179929Y-93494592D01*
X49181929Y-97094592D02*
X45107929Y-97094592D01*
X46104929Y-92853592D02*
X42082929Y-92853592D01*
X51783929Y-94494592D02*
X48184929Y-94494592D01*
X51627929Y-94814592D02*
X46584929Y-94814592D01*
X44504929Y-95294592D02*
X42950929Y-95294592D01*
X51133929Y-95574592D02*
X43155929Y-95574592D01*
X49914929Y-96694592D02*
X44374929Y-96694592D01*
X51584929Y-94894592D02*
X46584929Y-94894592D01*
X52179929Y-93093592D02*
X48184929Y-93093592D01*
X52141929Y-93334592D02*
X48184929Y-93334592D01*
X52082929Y-93614592D02*
X48184929Y-93614592D01*
X49269929Y-97054592D02*
X45019929Y-97054592D01*
X44504929Y-93974592D02*
X42307929Y-93974592D01*
X52224929Y-92493592D02*
X42064929Y-92493592D01*
X51867929Y-94294592D02*
X48184929Y-94294592D01*
X44504929Y-94014592D02*
X42320929Y-94014592D01*
X51442929Y-95134592D02*
X46584929Y-95134592D01*
X51955929Y-94054592D02*
X48184929Y-94054592D01*
X44504929Y-95214592D02*
X42897929Y-95214592D01*
X46104929Y-92893592D02*
X42086929Y-92893592D01*
X50860929Y-95894592D02*
X43428929Y-95894592D01*
X46104929Y-92973592D02*
X42094929Y-92973592D01*
X52051929Y-93734592D02*
X48184929Y-93734592D01*
X52206929Y-92853592D02*
X48184929Y-92853592D01*
X44504929Y-93574592D02*
X42197929Y-93574592D01*
X44504929Y-94534592D02*
X42523929Y-94534592D01*
X50897929Y-95854592D02*
X43391929Y-95854592D01*
X50536929Y-96214592D02*
X43752929Y-96214592D01*
X44504929Y-95174592D02*
X42871929Y-95174592D01*
X51606929Y-94854592D02*
X46584929Y-94854592D01*
X50089929Y-96574592D02*
X44199929Y-96574592D01*
X44504929Y-94374592D02*
X42454929Y-94374592D01*
X50705929Y-96054592D02*
X43583929Y-96054592D01*
X44504929Y-95334592D02*
X42978929Y-95334592D01*
X46104929Y-92813592D02*
X42079929Y-92813592D01*
X52072929Y-93654592D02*
X48184929Y-93654592D01*
X52217929Y-92693592D02*
X48184929Y-92693592D01*
X52162929Y-93214592D02*
X48184929Y-93214592D01*
X51927929Y-94134592D02*
X48184929Y-94134592D01*
X52118929Y-93454592D02*
X48184929Y-93454592D01*
X51561929Y-94934592D02*
X46584929Y-94934592D01*
X52198929Y-92933592D02*
X48184929Y-92933592D01*
X49654929Y-96854592D02*
X44634929Y-96854592D01*
X52168929Y-93174592D02*
X48184929Y-93174592D01*
X48654929Y-97294592D02*
X45634929Y-97294592D01*
X49853929Y-96734592D02*
X44435929Y-96734592D01*
X51898929Y-94214592D02*
X48184929Y-94214592D01*
X51365929Y-95254592D02*
X46584929Y-95254592D01*
X51689929Y-94694592D02*
X48184929Y-94694592D01*
X50019929Y-86933946D02*
X50019929Y-87933946D01*
X50144929Y-96534592D02*
X44144929Y-96534592D01*
X50519929Y-87433946D02*
X49519929Y-87433946D01*
X44504929Y-95254592D02*
X42923929Y-95254592D01*
X44504929Y-93374592D02*
X42154929Y-93374592D01*
X44504929Y-93614592D02*
X42206929Y-93614592D01*
X44504929Y-94294592D02*
X42421929Y-94294592D01*
X44504929Y-93654592D02*
X42216929Y-93654592D01*
X51036929Y-95694592D02*
X43252929Y-95694592D01*
X44504929Y-94414592D02*
X42470929Y-94414592D01*
X52212929Y-92773592D02*
X48184929Y-92773592D01*
X49353929Y-97014592D02*
X44935929Y-97014592D01*
X46104929Y-92733592D02*
X42074929Y-92733592D01*
X48522929Y-97334592D02*
X45766929Y-97334592D01*
X48006929Y-97454592D02*
X46282929Y-97454592D01*
X44504929Y-93734592D02*
X42237929Y-93734592D01*
X50445929Y-96294592D02*
X43843929Y-96294592D01*
X46104929Y-92933592D02*
X42090929Y-92933592D01*
X44504929Y-94094592D02*
X42347929Y-94094592D01*
X51728929Y-94614592D02*
X48184929Y-94614592D01*
X48886929Y-97214592D02*
X45402929Y-97214592D01*
X44504929Y-94254592D02*
X42406929Y-94254592D01*
X52062929Y-93694592D02*
X48184929Y-93694592D01*
X51851929Y-94334592D02*
X48184929Y-94334592D01*
X52100929Y-93534592D02*
X48184929Y-93534592D01*
X52209929Y-92813592D02*
X48184929Y-92813592D01*
X44504929Y-94454592D02*
X42487929Y-94454592D01*
X51801929Y-94454592D02*
X48184929Y-94454592D01*
X44504929Y-93934592D02*
X42294929Y-93934592D01*
X51818929Y-94414592D02*
X48184929Y-94414592D01*
X51254929Y-95414592D02*
X43034929Y-95414592D01*
X46104929Y-92653592D02*
X42069929Y-92653592D01*
X51224929Y-95454592D02*
X43064929Y-95454592D01*
X44504929Y-94814592D02*
X42661929Y-94814592D01*
X48774929Y-97254592D02*
X45514929Y-97254592D01*
X50033929Y-96614592D02*
X44255929Y-96614592D01*
X50580929Y-96174592D02*
X43708929Y-96174592D01*
X44504929Y-93334592D02*
X42147929Y-93334592D01*
X50398929Y-96334592D02*
X43890929Y-96334592D01*
X49974929Y-96654592D02*
X44314929Y-96654592D01*
X47743929Y-97494592D02*
X46545929Y-97494592D01*
X51941929Y-94094592D02*
X48184929Y-94094592D01*
X51708929Y-94654592D02*
X48184929Y-94654592D01*
X44504929Y-94614592D02*
X42560929Y-94614592D01*
X52174929Y-93134592D02*
X48184929Y-93134592D01*
X51539929Y-94974592D02*
X46584929Y-94974592D01*
X52219929Y-92653592D02*
X48184929Y-92653592D01*
X44504929Y-95094592D02*
X42821929Y-95094592D01*
X51882929Y-94254592D02*
X48184929Y-94254592D01*
X50745929Y-96014592D02*
X43543929Y-96014592D01*
X52189929Y-93013592D02*
X48184929Y-93013592D01*
X51391929Y-95214592D02*
X46584929Y-95214592D01*
X44504929Y-93694592D02*
X42226929Y-93694592D01*
X52155929Y-93254592D02*
X48184929Y-93254592D01*
X52134929Y-93374592D02*
X48184929Y-93374592D01*
X51467929Y-95094592D02*
X46584929Y-95094592D01*
X44504929Y-93774592D02*
X42247929Y-93774592D01*
X44504929Y-94334592D02*
X42437929Y-94334592D01*
X50968929Y-95774592D02*
X43320929Y-95774592D01*
X50198929Y-96494592D02*
X44090929Y-96494592D01*
X44504929Y-95134592D02*
X42846929Y-95134592D01*
X50784929Y-95974592D02*
X43504929Y-95974592D01*
X52222929Y-92573592D02*
X42066929Y-92573592D01*
X46104929Y-93294592D02*
X42140929Y-93294592D01*
X46104929Y-92693592D02*
X42071929Y-92693592D01*
X50664929Y-96094592D02*
X43624929Y-96094592D01*
X52029929Y-93814592D02*
X48184929Y-93814592D01*
X44504929Y-94054592D02*
X42333929Y-94054592D01*
X51834929Y-94374592D02*
X48184929Y-94374592D01*
X44504929Y-94894592D02*
X42704929Y-94894592D01*
X46104929Y-92773592D02*
X42076929Y-92773592D01*
X44504929Y-94214592D02*
X42390929Y-94214592D01*
X49583929Y-96894592D02*
X44705929Y-96894592D01*
X44504929Y-95054592D02*
X42797929Y-95054592D01*
X51765929Y-94534592D02*
X48184929Y-94534592D01*
X52184929Y-93053592D02*
X48184929Y-93053592D01*
X49723929Y-96814592D02*
X44565929Y-96814592D01*
X50491929Y-96254592D02*
X43797929Y-96254592D01*
X44504929Y-94654592D02*
X42580929Y-94654592D01*
X52018929Y-93854592D02*
X48184929Y-93854592D01*
X44504929Y-93894592D02*
X42282929Y-93894592D01*
X46104929Y-93134592D02*
X42114929Y-93134592D01*
X48206929Y-97414592D02*
X46082929Y-97414592D01*
X52224929Y-92453592D02*
X42064929Y-92453592D01*
X50933929Y-95814592D02*
X43355929Y-95814592D01*
X50823929Y-95934592D02*
X43465929Y-95934592D01*
X50350929Y-96374592D02*
X43938929Y-96374592D01*
X46104929Y-93254592D02*
X42133929Y-93254592D01*
X51164929Y-95534592D02*
X43124929Y-95534592D01*
X44504929Y-94694592D02*
X42599929Y-94694592D01*
X44504929Y-93854592D02*
X42270929Y-93854592D01*
X51515929Y-95014592D02*
X46584929Y-95014592D01*
X44504929Y-94574592D02*
X42541929Y-94574592D01*
X44504929Y-94134592D02*
X42361929Y-94134592D01*
X49789929Y-96774592D02*
X44499929Y-96774592D01*
X52006929Y-93894592D02*
X48184929Y-93894592D01*
X51981929Y-93974592D02*
X48184929Y-93974592D01*
X52223929Y-92533592D02*
X42065929Y-92533592D01*
X52109929Y-93494592D02*
X48184929Y-93494592D01*
X46104929Y-93053592D02*
X42104929Y-93053592D01*
X44504929Y-95374592D02*
X43006929Y-95374592D01*
X44504929Y-94174592D02*
X42376929Y-94174592D01*
X51069929Y-95654592D02*
X43219929Y-95654592D01*
X44504929Y-94734592D02*
X42619929Y-94734592D01*
X50622929Y-96134592D02*
X43666929Y-96134592D01*
X51491929Y-95054592D02*
X46584929Y-95054592D01*
X51282929Y-95374592D02*
X46584929Y-95374592D01*
X44504929Y-94854592D02*
X42682929Y-94854592D01*
X49433929Y-96974592D02*
X44855929Y-96974592D01*
X50250929Y-96454592D02*
X44038929Y-96454592D01*
X52221929Y-92613592D02*
X42067929Y-92613592D01*
X49088929Y-97134592D02*
X45200929Y-97134592D01*
X52224929Y-92413592D02*
X42064929Y-92413592D01*
X51968929Y-94014592D02*
X48184929Y-94014592D01*
X51912929Y-94174592D02*
X48184929Y-94174592D01*
X52041929Y-93774592D02*
X48184929Y-93774592D01*
X44504929Y-93534592D02*
X42188929Y-93534592D01*
X51648929Y-94774592D02*
X46584929Y-94774592D01*
X51194929Y-95494592D02*
X43094929Y-95494592D01*
X44504929Y-93454592D02*
X42170929Y-93454592D01*
X50300929Y-96414592D02*
X43988929Y-96414592D01*
X51417929Y-95174592D02*
X46584929Y-95174592D01*
X44504929Y-95014592D02*
X42773929Y-95014592D01*
X46104929Y-93013592D02*
X42099929Y-93013592D01*
X48990929Y-97174592D02*
X45298929Y-97174592D01*
X51747929Y-94574592D02*
X48184929Y-94574592D01*
X46104929Y-93174592D02*
X42120929Y-93174592D01*
X52148929Y-93294592D02*
X48184929Y-93294592D01*
X51338929Y-95294592D02*
X46584929Y-95294592D01*
X44504929Y-93414592D02*
X42162929Y-93414592D01*
X52202929Y-92893592D02*
X48184929Y-92893592D01*
X52264929Y-92413592D02*
G75*
G03*
X52264929Y-92413592I-5120000J0D01*
G01*
%TO.C,R4*%
X42940000Y-99358533D02*
X42940000Y-99028533D01*
X42940000Y-96618533D02*
X42940000Y-96948533D01*
X36400000Y-99358533D02*
X42940000Y-99358533D01*
X36400000Y-96948533D02*
X36400000Y-96618533D01*
X36400000Y-99028533D02*
X36400000Y-99358533D01*
X36400000Y-96618533D02*
X42940000Y-96618533D01*
%TO.C,J2*%
X26493971Y-93031796D02*
X26493971Y-91701796D01*
X36773971Y-94361796D02*
X36773971Y-91701796D01*
X26493971Y-91701796D02*
X27823971Y-91701796D01*
X29093971Y-91701796D02*
X36773971Y-91701796D01*
X29093971Y-94361796D02*
X29093971Y-91701796D01*
X29093971Y-94361796D02*
X36773971Y-94361796D01*
%TO.C,C11*%
X67590000Y-109045001D02*
X67590000Y-98305001D01*
X62350000Y-109045001D02*
X67590000Y-109045001D01*
X62350000Y-109045001D02*
X62350000Y-98305001D01*
X62350000Y-98305001D02*
X67590000Y-98305001D01*
%TO.C,R7*%
X55819858Y-65875001D02*
X55819858Y-72415001D01*
X53079858Y-72415001D02*
X53409858Y-72415001D01*
X55819858Y-72415001D02*
X55489858Y-72415001D01*
X55489858Y-65875001D02*
X55819858Y-65875001D01*
X53079858Y-65875001D02*
X53079858Y-72415001D01*
X53409858Y-65875001D02*
X53079858Y-65875001D01*
%TO.C,R10*%
X68250000Y-100405001D02*
X68250000Y-106945001D01*
X70660000Y-100405001D02*
X70990000Y-100405001D01*
X70990000Y-106945001D02*
X70660000Y-106945001D01*
X68580000Y-100405001D02*
X68250000Y-100405001D01*
X68250000Y-106945001D02*
X68580000Y-106945001D01*
X70990000Y-100405001D02*
X70990000Y-106945001D01*
%TO.C,C8*%
X56502464Y-74515001D02*
X61742464Y-74515001D01*
X61742464Y-74515001D02*
X61742464Y-63775001D01*
X56502464Y-74515001D02*
X56502464Y-63775001D01*
X56502464Y-63775001D02*
X61742464Y-63775001D01*
%TO.C,RCA 4LEG*%
X102895000Y-108500001D02*
X87895000Y-108500001D01*
X102895000Y-93500001D02*
X102895000Y-108500001D01*
X87895000Y-93500001D02*
X102895000Y-93500001D01*
X87895000Y-93500001D02*
X87895000Y-108500001D01*
%TO.C,C10*%
X62350000Y-63754204D02*
X62350000Y-74494204D01*
X67590000Y-63754204D02*
X67590000Y-74494204D01*
X67590000Y-74494204D02*
X62350000Y-74494204D01*
X67590000Y-63754204D02*
X62350000Y-63754204D01*
%TO.C,RCA 4LEG*%
X87895000Y-64299204D02*
X102895000Y-64299204D01*
X102895000Y-64299204D02*
X102895000Y-79299204D01*
X102895000Y-79299204D02*
X87895000Y-79299204D01*
X87895000Y-64299204D02*
X87895000Y-79299204D01*
%TO.C,C5*%
X67590000Y-75404204D02*
X62350000Y-75404204D01*
X62350000Y-75404204D02*
X62350000Y-86144204D01*
X67590000Y-86144204D02*
X62350000Y-86144204D01*
X67590000Y-75404204D02*
X67590000Y-86144204D01*
%TO.C,C14*%
X62400000Y-97651269D02*
X62400000Y-86911269D01*
X62400000Y-97651269D02*
X67640000Y-97651269D01*
X67640000Y-97651269D02*
X67640000Y-86911269D01*
X62400000Y-86911269D02*
X67640000Y-86911269D01*
%TO.C,C9*%
X56502464Y-98325798D02*
X56502464Y-109065798D01*
X61742464Y-98325798D02*
X61742464Y-109065798D01*
X61742464Y-98325798D02*
X56502464Y-98325798D01*
X61742464Y-109065798D02*
X56502464Y-109065798D01*
%TO.C,RCA 4LEG*%
X18987057Y-95780000D02*
X33987057Y-95780000D01*
X33987057Y-110780000D02*
X18987057Y-110780000D01*
X33987057Y-110780000D02*
X33987057Y-95780000D01*
X18987057Y-110780000D02*
X18987057Y-95780000D01*
%TO.C,J1*%
X80450000Y-81955001D02*
X79810000Y-81955001D01*
X86790000Y-82195001D02*
X86790000Y-90515001D01*
X80050000Y-82195001D02*
X80050000Y-90515001D01*
X86790000Y-82195001D02*
X80050000Y-82195001D01*
X80570000Y-82195001D02*
X80570000Y-90515001D01*
X85670000Y-82195001D02*
X85670000Y-90515001D01*
X79810000Y-81955001D02*
X79810000Y-82355001D01*
X86790000Y-90515001D02*
X80050000Y-90515001D01*
%TO.C,C7*%
X56477394Y-97651269D02*
X61717394Y-97651269D01*
X56477394Y-86911269D02*
X61717394Y-86911269D01*
X61717394Y-97651269D02*
X61717394Y-86911269D01*
X56477394Y-97651269D02*
X56477394Y-86911269D01*
%TO.C,R9*%
X70990000Y-72394204D02*
X70990000Y-65854204D01*
X68250000Y-72394204D02*
X68250000Y-65854204D01*
X70660000Y-72394204D02*
X70990000Y-72394204D01*
X70990000Y-65854204D02*
X70660000Y-65854204D01*
X68580000Y-72394204D02*
X68250000Y-72394204D01*
X68250000Y-65854204D02*
X68580000Y-65854204D01*
%TO.C,R8*%
X55819858Y-106965798D02*
X55819858Y-100425798D01*
X53079858Y-106965798D02*
X53079858Y-100425798D01*
X53409858Y-106965798D02*
X53079858Y-106965798D01*
X55819858Y-100425798D02*
X55489858Y-100425798D01*
X53079858Y-100425798D02*
X53409858Y-100425798D01*
X55489858Y-106965798D02*
X55819858Y-106965798D01*
%TO.C,C4*%
X52155929Y-104669121D02*
X48184929Y-104669121D01*
X52148929Y-104709121D02*
X48184929Y-104709121D01*
X51417929Y-106589121D02*
X46584929Y-106589121D01*
X44504929Y-105709121D02*
X42421929Y-105709121D01*
X50784929Y-107389121D02*
X43504929Y-107389121D01*
X44504929Y-105069121D02*
X42216929Y-105069121D01*
X44504929Y-106069121D02*
X42580929Y-106069121D01*
X51783929Y-105909121D02*
X48184929Y-105909121D01*
X48886929Y-108629121D02*
X45402929Y-108629121D01*
X44504929Y-106429121D02*
X42773929Y-106429121D01*
X52206929Y-104268121D02*
X48184929Y-104268121D01*
X52202929Y-104308121D02*
X48184929Y-104308121D01*
X46104929Y-104629121D02*
X42126929Y-104629121D01*
X44504929Y-105189121D02*
X42247929Y-105189121D01*
X51515929Y-106429121D02*
X46584929Y-106429121D01*
X48206929Y-108829121D02*
X46082929Y-108829121D01*
X51584929Y-106309121D02*
X46584929Y-106309121D01*
X44504929Y-105469121D02*
X42333929Y-105469121D01*
X44504929Y-105989121D02*
X42541929Y-105989121D01*
X44504929Y-105789121D02*
X42454929Y-105789121D01*
X52224929Y-103908121D02*
X42064929Y-103908121D01*
X49974929Y-108069121D02*
X44314929Y-108069121D01*
X44504929Y-106029121D02*
X42560929Y-106029121D01*
X51539929Y-106389121D02*
X46584929Y-106389121D01*
X46104929Y-104188121D02*
X42076929Y-104188121D01*
X50033929Y-108029121D02*
X44255929Y-108029121D01*
X52100929Y-104949121D02*
X48184929Y-104949121D01*
X46104929Y-104348121D02*
X42090929Y-104348121D01*
X51867929Y-105709121D02*
X48184929Y-105709121D01*
X44504929Y-105549121D02*
X42361929Y-105549121D01*
X44504929Y-104829121D02*
X42162929Y-104829121D01*
X44504929Y-106509121D02*
X42821929Y-106509121D01*
X50019929Y-98348475D02*
X50019929Y-99348475D01*
X51689929Y-106109121D02*
X48184929Y-106109121D01*
X51069929Y-107069121D02*
X43219929Y-107069121D01*
X46104929Y-104549121D02*
X42114929Y-104549121D01*
X50144929Y-107949121D02*
X44144929Y-107949121D01*
X52189929Y-104428121D02*
X48184929Y-104428121D01*
X51561929Y-106349121D02*
X46584929Y-106349121D01*
X44504929Y-106109121D02*
X42599929Y-106109121D01*
X52029929Y-105229121D02*
X48184929Y-105229121D01*
X51491929Y-106469121D02*
X46584929Y-106469121D01*
X51708929Y-106069121D02*
X48184929Y-106069121D01*
X51941929Y-105509121D02*
X48184929Y-105509121D01*
X44504929Y-106549121D02*
X42846929Y-106549121D01*
X51801929Y-105869121D02*
X48184929Y-105869121D01*
X52006929Y-105309121D02*
X48184929Y-105309121D01*
X44504929Y-104989121D02*
X42197929Y-104989121D01*
X44504929Y-106789121D02*
X43006929Y-106789121D01*
X50300929Y-107829121D02*
X43988929Y-107829121D01*
X49433929Y-108389121D02*
X44855929Y-108389121D01*
X52126929Y-104829121D02*
X48184929Y-104829121D01*
X52134929Y-104789121D02*
X48184929Y-104789121D01*
X52162929Y-104629121D02*
X48184929Y-104629121D01*
X51310929Y-106749121D02*
X46584929Y-106749121D01*
X44504929Y-106749121D02*
X42978929Y-106749121D01*
X50198929Y-107909121D02*
X44090929Y-107909121D01*
X51728929Y-106029121D02*
X48184929Y-106029121D01*
X52041929Y-105189121D02*
X48184929Y-105189121D01*
X51391929Y-106629121D02*
X46584929Y-106629121D01*
X49269929Y-108469121D02*
X45019929Y-108469121D01*
X50250929Y-107869121D02*
X44038929Y-107869121D01*
X51669929Y-106149121D02*
X46584929Y-106149121D01*
X46104929Y-104669121D02*
X42133929Y-104669121D01*
X52091929Y-104989121D02*
X48184929Y-104989121D01*
X46104929Y-104308121D02*
X42086929Y-104308121D01*
X52082929Y-105029121D02*
X48184929Y-105029121D01*
X51002929Y-107149121D02*
X43286929Y-107149121D01*
X44504929Y-105589121D02*
X42376929Y-105589121D01*
X52209929Y-104228121D02*
X48184929Y-104228121D01*
X52221929Y-104028121D02*
X42067929Y-104028121D01*
X44504929Y-105829121D02*
X42470929Y-105829121D01*
X49853929Y-108149121D02*
X44435929Y-108149121D01*
X46104929Y-104428121D02*
X42099929Y-104428121D01*
X51442929Y-106549121D02*
X46584929Y-106549121D01*
X44504929Y-106669121D02*
X42923929Y-106669121D01*
X44504929Y-105949121D02*
X42523929Y-105949121D01*
X44504929Y-105349121D02*
X42294929Y-105349121D01*
X51851929Y-105749121D02*
X48184929Y-105749121D01*
X44504929Y-105669121D02*
X42406929Y-105669121D01*
X46104929Y-104709121D02*
X42140929Y-104709121D01*
X50398929Y-107749121D02*
X43890929Y-107749121D01*
X50933929Y-107229121D02*
X43355929Y-107229121D01*
X49181929Y-108509121D02*
X45107929Y-108509121D01*
X51912929Y-105589121D02*
X48184929Y-105589121D01*
X50580929Y-107589121D02*
X43708929Y-107589121D01*
X44504929Y-106149121D02*
X42619929Y-106149121D01*
X51194929Y-106909121D02*
X43094929Y-106909121D01*
X50664929Y-107509121D02*
X43624929Y-107509121D01*
X50745929Y-107429121D02*
X43543929Y-107429121D01*
X48374929Y-108789121D02*
X45914929Y-108789121D01*
X52118929Y-104869121D02*
X48184929Y-104869121D01*
X44504929Y-104749121D02*
X42147929Y-104749121D01*
X44504929Y-106629121D02*
X42897929Y-106629121D01*
X51747929Y-105989121D02*
X48184929Y-105989121D01*
X48990929Y-108589121D02*
X45298929Y-108589121D01*
X50519929Y-98848475D02*
X49519929Y-98848475D01*
X44504929Y-105869121D02*
X42487929Y-105869121D01*
X51627929Y-106229121D02*
X46584929Y-106229121D01*
X52018929Y-105269121D02*
X48184929Y-105269121D01*
X51648929Y-106189121D02*
X46584929Y-106189121D01*
X50897929Y-107269121D02*
X43391929Y-107269121D01*
X46104929Y-104268121D02*
X42082929Y-104268121D01*
X50622929Y-107549121D02*
X43666929Y-107549121D01*
X44504929Y-106349121D02*
X42727929Y-106349121D01*
X49353929Y-108429121D02*
X44935929Y-108429121D01*
X51101929Y-107029121D02*
X43187929Y-107029121D01*
X52212929Y-104188121D02*
X48184929Y-104188121D01*
X49723929Y-108229121D02*
X44565929Y-108229121D01*
X51365929Y-106669121D02*
X46584929Y-106669121D01*
X44504929Y-105509121D02*
X42347929Y-105509121D01*
X50968929Y-107189121D02*
X43320929Y-107189121D01*
X44504929Y-105629121D02*
X42390929Y-105629121D01*
X51036929Y-107109121D02*
X43252929Y-107109121D01*
X51955929Y-105469121D02*
X48184929Y-105469121D01*
X44504929Y-105909121D02*
X42505929Y-105909121D01*
X44504929Y-104909121D02*
X42179929Y-104909121D01*
X46104929Y-104108121D02*
X42071929Y-104108121D01*
X51981929Y-105389121D02*
X48184929Y-105389121D01*
X48006929Y-108869121D02*
X46282929Y-108869121D01*
X52214929Y-104148121D02*
X48184929Y-104148121D01*
X44504929Y-104789121D02*
X42154929Y-104789121D01*
X44504929Y-105749121D02*
X42437929Y-105749121D01*
X49583929Y-108309121D02*
X44705929Y-108309121D01*
X52224929Y-103868121D02*
X42064929Y-103868121D01*
X52051929Y-105149121D02*
X48184929Y-105149121D01*
X51927929Y-105549121D02*
X48184929Y-105549121D01*
X52198929Y-104348121D02*
X48184929Y-104348121D01*
X52184929Y-104468121D02*
X48184929Y-104468121D01*
X51282929Y-106789121D02*
X46584929Y-106789121D01*
X44504929Y-106189121D02*
X42640929Y-106189121D01*
X44504929Y-105149121D02*
X42237929Y-105149121D01*
X44504929Y-106469121D02*
X42797929Y-106469121D01*
X50089929Y-107989121D02*
X44199929Y-107989121D01*
X51133929Y-106989121D02*
X43155929Y-106989121D01*
X51467929Y-106509121D02*
X46584929Y-106509121D01*
X51224929Y-106869121D02*
X43064929Y-106869121D01*
X44504929Y-105029121D02*
X42206929Y-105029121D01*
X52109929Y-104909121D02*
X48184929Y-104909121D01*
X44504929Y-105309121D02*
X42282929Y-105309121D01*
X51254929Y-106829121D02*
X43034929Y-106829121D01*
X44504929Y-106269121D02*
X42682929Y-106269121D01*
X44504929Y-105389121D02*
X42307929Y-105389121D01*
X46104929Y-104388121D02*
X42094929Y-104388121D01*
X49088929Y-108549121D02*
X45200929Y-108549121D01*
X52179929Y-104508121D02*
X48184929Y-104508121D01*
X50823929Y-107349121D02*
X43465929Y-107349121D01*
X50445929Y-107709121D02*
X43843929Y-107709121D01*
X49914929Y-108109121D02*
X44374929Y-108109121D01*
X47743929Y-108909121D02*
X46545929Y-108909121D01*
X51994929Y-105349121D02*
X48184929Y-105349121D01*
X50491929Y-107669121D02*
X43797929Y-107669121D01*
X44504929Y-104869121D02*
X42170929Y-104869121D01*
X52219929Y-104068121D02*
X48184929Y-104068121D01*
X44504929Y-105269121D02*
X42270929Y-105269121D01*
X46104929Y-104468121D02*
X42104929Y-104468121D01*
X51765929Y-105949121D02*
X48184929Y-105949121D01*
X51606929Y-106269121D02*
X46584929Y-106269121D01*
X51164929Y-106949121D02*
X43124929Y-106949121D01*
X46104929Y-104148121D02*
X42074929Y-104148121D01*
X52072929Y-105069121D02*
X48184929Y-105069121D01*
X51968929Y-105429121D02*
X48184929Y-105429121D01*
X44504929Y-105109121D02*
X42226929Y-105109121D01*
X46104929Y-104508121D02*
X42109929Y-104508121D01*
X52062929Y-105109121D02*
X48184929Y-105109121D01*
X52222929Y-103988121D02*
X42066929Y-103988121D01*
X51338929Y-106709121D02*
X46584929Y-106709121D01*
X44504929Y-106389121D02*
X42749929Y-106389121D01*
X46104929Y-104068121D02*
X42069929Y-104068121D01*
X44504929Y-105229121D02*
X42259929Y-105229121D01*
X52174929Y-104549121D02*
X48184929Y-104549121D01*
X44504929Y-106589121D02*
X42871929Y-106589121D01*
X48774929Y-108669121D02*
X45514929Y-108669121D01*
X51834929Y-105789121D02*
X48184929Y-105789121D01*
X49789929Y-108189121D02*
X44499929Y-108189121D01*
X44504929Y-106309121D02*
X42704929Y-106309121D01*
X49654929Y-108269121D02*
X44634929Y-108269121D01*
X44504929Y-106229121D02*
X42661929Y-106229121D01*
X52224929Y-103828121D02*
X42064929Y-103828121D01*
X48522929Y-108749121D02*
X45766929Y-108749121D01*
X52223929Y-103948121D02*
X42065929Y-103948121D01*
X52168929Y-104589121D02*
X48184929Y-104589121D01*
X44504929Y-104949121D02*
X42188929Y-104949121D01*
X50705929Y-107469121D02*
X43583929Y-107469121D01*
X51818929Y-105829121D02*
X48184929Y-105829121D01*
X44504929Y-106709121D02*
X42950929Y-106709121D01*
X46104929Y-104228121D02*
X42079929Y-104228121D01*
X48654929Y-108709121D02*
X45634929Y-108709121D01*
X52217929Y-104108121D02*
X48184929Y-104108121D01*
X51882929Y-105669121D02*
X48184929Y-105669121D01*
X46104929Y-104589121D02*
X42120929Y-104589121D01*
X44504929Y-105429121D02*
X42320929Y-105429121D01*
X52194929Y-104388121D02*
X48184929Y-104388121D01*
X50860929Y-107309121D02*
X43428929Y-107309121D01*
X52141929Y-104749121D02*
X48184929Y-104749121D01*
X50536929Y-107629121D02*
X43752929Y-107629121D01*
X51898929Y-105629121D02*
X48184929Y-105629121D01*
X49509929Y-108349121D02*
X44779929Y-108349121D01*
X50350929Y-107789121D02*
X43938929Y-107789121D01*
X52264929Y-103828121D02*
G75*
G03*
X52264929Y-103828121I-5120000J0D01*
G01*
%TO.C,R5*%
X55489858Y-77525001D02*
X55819858Y-77525001D01*
X53079858Y-77525001D02*
X53079858Y-84065001D01*
X53409858Y-77525001D02*
X53079858Y-77525001D01*
X55819858Y-84065001D02*
X55489858Y-84065001D01*
X53079858Y-84065001D02*
X53409858Y-84065001D01*
X55819858Y-77525001D02*
X55819858Y-84065001D01*
%TO.C,U1*%
X78890000Y-89155001D02*
X78890000Y-87505001D01*
X78890000Y-83855001D02*
X68610000Y-83855001D01*
X68610000Y-89155001D02*
X78890000Y-89155001D01*
X78950000Y-91645001D02*
X78950000Y-81365001D01*
X78950000Y-81365001D02*
X68550000Y-81365001D01*
X68610000Y-83855001D02*
X68610000Y-89155001D01*
X68550000Y-91645001D02*
X78950000Y-91645001D01*
X68550000Y-81365001D02*
X68550000Y-91645001D01*
X78890000Y-85505001D02*
X78890000Y-83855001D01*
X78890000Y-85505001D02*
G75*
G03*
X78890000Y-87505001I0J-1000000D01*
G01*
%TD*%
M02*
