M48
; DRILL file {KiCad (6.0.0)} date Wed Aug  3 23:03:20 2022
; FORMAT={-:-/ absolute / inch / decimal}
; #@! TF.CreationDate,2022-08-03T23:03:20+01:00
; #@! TF.GenerationSoftware,Kicad,Pcbnew,(6.0.0)
; #@! TF.FileFunction,Plated,1,2,PTH
FMAT,2
INCH
; #@! TA.AperFunction,Plated,PTH,ComponentDrill
T1C0.0315
; #@! TA.AperFunction,Plated,PTH,ComponentDrill
T2C0.0394
; #@! TA.AperFunction,Plated,PTH,ComponentDrill
T3C0.0433
; #@! TA.AperFunction,Plated,PTH,ComponentDrill
T4C0.0787
%
G90
G05
T1
X1.2082Y-2.5171
X1.2082Y-2.8171
X1.3416Y-2.5171
X1.3416Y-2.8171
X1.4118Y-2.9516
X1.4118Y-3.8578
X1.7118Y-2.9516
X1.7118Y-3.8578
X1.7931Y-2.7927
X1.7931Y-3.2513
X1.7931Y-3.714
X1.7931Y-4.1633
X1.8561Y-2.6678
X1.8561Y-2.7662
X1.8561Y-3.1265
X1.8561Y-3.2249
X1.8561Y-3.5891
X1.8561Y-3.6875
X1.8561Y-4.0385
X1.8561Y-4.1369
X1.9191Y-2.6414
X1.9191Y-3.1001
X1.9191Y-3.5627
X1.9191Y-4.0121
X2.1427Y-3.4831
X2.1427Y-3.7831
X2.1437Y-2.5722
X2.1437Y-2.8722
X2.1437Y-3.0309
X2.1437Y-3.3309
X2.1437Y-3.9325
X2.1437Y-4.2325
X2.7409Y-2.5714
X2.7409Y-2.8714
X2.7409Y-3.9317
X2.7409Y-4.2317
X2.7535Y-3.2557
X2.7535Y-3.5557
X2.8535Y-3.2557
X2.8535Y-3.5557
X2.9535Y-3.2557
X2.9535Y-3.5557
X2.9618Y-2.7918
X2.9618Y-4.1625
X3.0248Y-2.667
X3.0248Y-2.7654
X3.0248Y-4.0377
X3.0248Y-4.1361
X3.0535Y-3.2557
X3.0535Y-3.5557
X3.0878Y-2.6406
X3.0878Y-4.0113
X3.3087Y-2.5714
X3.3087Y-2.8714
X3.3087Y-3.9317
X3.3087Y-4.2317
T2
X0.9428Y-2.5687
X0.9428Y-2.6671
X0.9428Y-2.7656
X1.0413Y-2.5687
X1.0413Y-2.6671
X1.0413Y-2.7656
X1.0954Y-3.6627
X1.1954Y-3.6627
X1.2954Y-3.6627
X1.3007Y-3.2553
X1.3007Y-3.3537
X1.3007Y-4.0661
X1.3007Y-4.1646
X1.3954Y-3.6627
X2.3267Y-3.4855
X2.3267Y-3.7808
X2.3277Y-2.5746
X2.3277Y-2.8699
X2.3277Y-3.0333
X2.3277Y-3.3285
X2.3277Y-3.9349
X2.3277Y-4.2301
X2.5579Y-2.5738
X2.5579Y-2.8691
X2.5579Y-3.0324
X2.5579Y-3.3277
X2.5579Y-3.9341
X2.5579Y-4.2293
X2.5598Y-3.4855
X2.5598Y-3.7808
X3.4978Y-2.7283
X3.4978Y-2.8267
X3.4978Y-3.878
X3.4978Y-3.9764
T3
X3.2843Y-3.2998
X3.2843Y-3.3998
X3.2843Y-3.4998
X3.9169Y-3.248
X3.9169Y-3.348
X3.9169Y-3.448
X3.9169Y-3.548
T4
X1.0999Y-3.0564
X1.0999Y-3.4541
X1.0999Y-3.8673
X1.0999Y-4.265
X3.6986Y-2.6279
X3.6986Y-3.0256
X3.6986Y-3.7776
X3.6986Y-4.1752
T0
M30
