; Drill file
; Format: 2.4 (00.0000)
M48
INCH
T01C0.0276
T02C0.0315
T03C0.0354
T04C0.0394
T05C0.0433
T06C0.0472
T07C0.0591
T08C0.0787
T09C0.0866
T10C0.1181
%
G05
G90
T01
X006420Y003390
X007440Y003390
X008330Y004740
X009020Y005400
X008900Y005960
X007850Y006250
X007440Y005380
X006420Y006380
X006070Y008500
X007070Y008500
X007850Y009250
X008900Y008960
X009760Y010180
X010490Y011160
X011430Y011160
X011870Y009350
X012560Y008690
X011870Y008030
X010780Y007330
X009760Y007180
X010180Y006230
X011190Y006230
X012210Y006230
X013260Y005440
X013570Y006340
X014070Y007130
X013680Y007480
X014890Y007660
X015960Y007820
X015960Y007150
X016570Y006340
X017400Y006220
X017720Y005440
X016570Y005370
X015880Y004710
X016570Y004050
X017720Y003440
X018800Y003230
X018800Y006230
X018180Y006990
X017400Y008220
X015960Y009200
X014890Y009660
X013680Y009480
X010780Y009330
X008120Y010880
X008120Y011980
X009880Y014320
X010570Y013680
X010570Y014970
X012780Y015200
X012780Y014100
X014330Y014320
X014330Y015320
X014880Y005350
X014190Y004710
X014880Y004060
X013260Y003440
X012210Y003230
X011190Y003230
X010180Y003230
X009020Y004080
X020180Y006990
X036100Y015200
X036100Y016300
X037590Y019030
X038590Y019030
X039590Y019030
X040340Y014060
X041920Y014060
T02
X004920Y009610
X004920Y011180
X004090Y012420
X004090Y015420
X006130Y015030
X007130Y015720
X008490Y015720
X009650Y017750
X010590Y016810
X012590Y016810
X012650Y017750
X011670Y018720
X013920Y019020
X014850Y019170
X015600Y018710
X013920Y017020
X013750Y015880
X014850Y016170
X014880Y013150
X013880Y013150
X015880Y013150
X016880Y013150
X018170Y010610
X016880Y010150
X015880Y010150
X014880Y010150
X013880Y010150
X018170Y007610
X016130Y002640
X018460Y001900
X019250Y001900
X021250Y001900
X008490Y012720
X007130Y012720
X006740Y010520
X008670Y018720
X018600Y018710
X029290Y028860
X029290Y031860
X032930Y031870
X032930Y028870
X036250Y021080
X036250Y020060
X036040Y018450
X036040Y017450
X037590Y018110
X038590Y018110
X039590Y018110
X039250Y020060
X039250Y021080
X040910Y020700
X041910Y020700
X041910Y021700
X040910Y021700
X039590Y015110
X038590Y015110
X037590Y015110
X040270Y009360
X041270Y009360
X042270Y009360
X042270Y005670
X041270Y005670
X040270Y005670
T03
X005440Y011980
X005440Y015030
X009530Y013280
X009530Y011190
X012680Y010110
X012680Y013160
X032490Y007580
X032490Y005580
X032490Y003150
X032490Y001150
X037180Y001150
X037180Y003150
X037180Y005580
X037180Y007580
X035760Y012670
X035760Y014050
X038810Y014050
X038810Y012670
T04
X005070Y017750
X006950Y017750
X012940Y025200
X012940Y026840
X012920Y031390
X012920Y033030
X026830Y033270
X026830Y027270
X030050Y025810
X032050Y025810
X032800Y025810
X035480Y027270
X035480Y033270
X017080Y016730
T05
X019400Y009580
X019400Y010580
X019400Y017550
X019400Y018560
X018090Y019840
X017090Y019840
X016090Y019840
X011170Y019840
X010170Y019840
X009170Y019840
X022000Y023140
X030250Y023140
X033430Y022700
X033430Y025060
X032930Y027610
X029310Y027610
X029310Y033110
X032930Y033110
X038590Y032730
X039620Y031270
X039990Y030730
X038080Y030030
X038080Y029390
X038080Y027390
X041540Y018440
X041540Y017440
X041540Y016440
X042270Y011300
X040270Y011300
X040270Y007480
X042270Y007480
X042250Y003810
X040250Y003810
X035410Y004140
X035410Y004920
X028230Y005810
X028230Y006810
X028230Y007810
X028230Y003220
X028230Y002220
X028230Y001220
T06
X023220Y010450
X025190Y010450
X027160Y010450
X029130Y010450
X031090Y010450
X033060Y010450
X031090Y019420
X027160Y019420
T07
X023910Y001080
X023910Y003330
X023880Y005580
X023880Y007810
X029450Y007810
X029450Y005580
X029480Y003330
X029480Y001080
X023980Y026900
X023980Y028900
X023980Y030900
X023980Y032900
X019350Y028100
X016570Y030880
X009300Y028060
X006510Y030840
X041290Y028720
X041290Y026720
T08
X025930Y005690
T09
X041300Y003840
X041250Y007500
X041250Y011310
T10
X004710Y001290
X004880Y022040
X004710Y024540
X037160Y009860
X041630Y001260
X041570Y032910
M30
