%FSLAX34Y34*%
%MOMM*%
%LNSOLDERMASK_TOP*%
G71*
G01*
%ADD10C,3.800*%
%ADD11C,1.900*%
%ADD12C,2.200*%
%ADD13C,1.950*%
%ADD14C,2.150*%
%ADD15C,2.300*%
%ADD16C,2.500*%
%ADD17C,2.500*%
%ADD18C,2.400*%
%ADD19C,2.550*%
%ADD20C,2.300*%
%ADD21C,3.100*%
%ADD22C,3.500*%
%ADD23C,2.250*%
%ADD24C,2.750*%
%ADD25C,2.600*%
%ADD26C,3.700*%
%ADD27C,2.950*%
%ADD28C,3.000*%
%ADD29C,3.150*%
%ADD30C,3.100*%
%ADD31C,2.600*%
%ADD32C,2.700*%
%ADD33C,2.900*%
%ADD34C,6.200*%
%ADD35C,3.100*%
%ADD36C,2.700*%
%ADD37C,4.100*%
%ADD38C,2.500*%
%ADD39C,3.600*%
%ADD40C,3.400*%
%ADD41C,1.300*%
%ADD42C,3.200*%
%ADD43C,3.500*%
%ADD44C,2.600*%
%ADD45C,4.600*%
%ADD46C,2.500*%
%LPD*%
X491487Y713696D02*
G54D10*
D03*
X420777Y784407D02*
G54D10*
D03*
G54D11*
X154243Y222327D02*
X154243Y209327D01*
G54D11*
X179644Y222326D02*
X179644Y209326D01*
X477594Y158116D02*
G54D12*
D03*
X477593Y81916D02*
G54D12*
D03*
G54D13*
X266399Y290326D02*
X266399Y276826D01*
G54D13*
X290368Y290326D02*
X290368Y276826D01*
G54D14*
X352522Y250028D02*
X352522Y265528D01*
G54D14*
X377922Y250028D02*
X377922Y265528D01*
G54D14*
X403322Y250028D02*
X403322Y265528D01*
G54D14*
X428722Y250028D02*
X428722Y265528D01*
G54D14*
X352522Y326229D02*
X352522Y341729D01*
G54D14*
X377921Y326228D02*
X377921Y341728D01*
G54D14*
X403322Y326228D02*
X403322Y341728D01*
G54D14*
X428722Y326228D02*
X428722Y341728D01*
X405306Y233569D02*
G54D12*
D03*
X405307Y198644D02*
G54D12*
D03*
X310112Y158115D02*
G54D12*
D03*
X310113Y81916D02*
G54D12*
D03*
X284316Y158116D02*
G54D12*
D03*
X284315Y81916D02*
G54D12*
D03*
X247918Y182315D02*
G54D12*
D03*
X247918Y258515D02*
G54D12*
D03*
X258519Y158116D02*
G54D12*
D03*
X258519Y81916D02*
G54D12*
D03*
X420784Y160941D02*
G54D12*
D03*
X344584Y160940D02*
G54D12*
D03*
X357284Y181181D02*
G54D12*
D03*
X405306Y181578D02*
G54D12*
D03*
X225974Y227569D02*
G54D12*
D03*
X225974Y151369D02*
G54D12*
D03*
X324688Y386148D02*
G54D15*
D03*
X324689Y358211D02*
G54D15*
D03*
X450209Y138272D02*
G54D12*
D03*
X450209Y87472D02*
G54D12*
D03*
X336703Y138272D02*
G54D12*
D03*
X336703Y87472D02*
G54D12*
D03*
X188953Y136779D02*
G54D12*
D03*
X188953Y85980D02*
G54D12*
D03*
X347419Y240666D02*
G54D12*
D03*
X347419Y189866D02*
G54D12*
D03*
X273715Y237083D02*
G54D12*
D03*
X273715Y186283D02*
G54D12*
D03*
X206190Y276370D02*
G54D15*
D03*
X206191Y304308D02*
G54D15*
D03*
X364031Y389144D02*
G54D15*
D03*
X364031Y363744D02*
G54D15*
D03*
X124907Y243993D02*
G54D16*
D03*
X124907Y283993D02*
G54D16*
D03*
X241950Y337372D02*
G54D17*
D03*
X241950Y284192D02*
G54D17*
D03*
X155742Y381783D02*
G54D16*
D03*
X296319Y475519D02*
G54D18*
D03*
X220119Y475519D02*
G54D18*
D03*
X232963Y503841D02*
G54D19*
D03*
X258362Y503841D02*
G54D19*
D03*
X283763Y503841D02*
G54D19*
D03*
X408778Y503841D02*
G54D19*
D03*
G54D20*
X434178Y512341D02*
X434178Y495341D01*
X459579Y503841D02*
G54D19*
D03*
X472532Y475123D02*
G54D18*
D03*
X396332Y475123D02*
G54D18*
D03*
X319734Y427100D02*
G54D18*
D03*
X268934Y427100D02*
G54D18*
D03*
X353470Y432260D02*
G54D18*
D03*
X353469Y483060D02*
G54D18*
D03*
X849223Y576542D02*
G54D21*
D03*
X849223Y636546D02*
G54D21*
D03*
X839780Y265492D02*
G54D22*
D03*
X789780Y265492D02*
G54D22*
D03*
X739780Y265492D02*
G54D22*
D03*
X689780Y265492D02*
G54D22*
D03*
X639780Y265492D02*
G54D22*
D03*
X589780Y265492D02*
G54D22*
D03*
X789780Y493274D02*
G54D22*
D03*
X689781Y493273D02*
G54D22*
D03*
X441972Y158020D02*
G54D15*
D03*
X441972Y208820D02*
G54D15*
D03*
X512616Y177467D02*
G54D15*
D03*
X461815Y177468D02*
G54D15*
D03*
X378319Y194677D02*
G54D12*
D03*
X378319Y245477D02*
G54D12*
D03*
X171176Y267172D02*
G54D16*
D03*
X229038Y103620D02*
G54D12*
D03*
X211575Y120398D02*
G54D12*
D03*
X229037Y137176D02*
G54D12*
D03*
X377922Y103176D02*
G54D23*
D03*
X360459Y119558D02*
G54D23*
D03*
X377922Y135939D02*
G54D23*
D03*
X420785Y102779D02*
G54D12*
D03*
X403322Y119557D02*
G54D12*
D03*
X420784Y136336D02*
G54D12*
D03*
X301496Y237480D02*
G54D12*
D03*
X318959Y220702D02*
G54D12*
D03*
X301496Y203925D02*
G54D12*
D03*
X268541Y347473D02*
G54D23*
D03*
X251078Y363854D02*
G54D23*
D03*
X268541Y380235D02*
G54D23*
D03*
X321962Y256876D02*
G54D17*
D03*
X321962Y334376D02*
G54D17*
D03*
X763344Y655548D02*
G54D24*
D03*
X814144Y655548D02*
G54D24*
D03*
X409698Y67148D02*
G54D16*
D03*
X349346Y403432D02*
G54D25*
D03*
X1048681Y729417D02*
G54D26*
D03*
X1048681Y678617D02*
G54D26*
D03*
X980258Y831260D02*
G54D27*
D03*
X1015813Y780483D02*
G54D27*
D03*
X1006252Y794137D02*
G54D27*
D03*
X744474Y840972D02*
G54D28*
D03*
X744474Y701272D02*
G54D28*
D03*
X836548Y840972D02*
G54D28*
D03*
X836548Y701272D02*
G54D28*
D03*
X836548Y733418D02*
G54D16*
D03*
X836548Y809618D02*
G54D16*
D03*
X901239Y844940D02*
G54D29*
D03*
X901239Y692540D02*
G54D29*
D03*
X744076Y733022D02*
G54D16*
D03*
X744076Y809222D02*
G54D16*
D03*
X967259Y746432D02*
G54D27*
D03*
X967259Y695632D02*
G54D27*
D03*
X128803Y450759D02*
G54D30*
D03*
X176503Y450758D02*
G54D30*
D03*
X492772Y445749D02*
G54D21*
D03*
X492772Y268749D02*
G54D21*
D03*
X539846Y48228D02*
G54D25*
D03*
X489047Y48228D02*
G54D25*
D03*
X908307Y321822D02*
G54D31*
D03*
X985806Y321822D02*
G54D31*
D03*
X908306Y356747D02*
G54D31*
D03*
X985806Y356747D02*
G54D31*
D03*
X433782Y425024D02*
G54D32*
D03*
X163157Y162179D02*
G54D12*
D03*
X163156Y85980D02*
G54D12*
D03*
X328282Y839013D02*
G54D33*
D03*
X328282Y797341D02*
G54D33*
D03*
X492772Y243349D02*
G54D21*
D03*
X236138Y712708D02*
G54D10*
D03*
X165428Y783418D02*
G54D10*
D03*
X328678Y640179D02*
G54D33*
D03*
X328678Y681851D02*
G54D33*
D03*
X943762Y250411D02*
G54D34*
D03*
X825312Y141842D02*
G54D35*
D03*
X825311Y192642D02*
G54D35*
D03*
X825311Y29129D02*
G54D35*
D03*
X825311Y79930D02*
G54D35*
D03*
X1022753Y286902D02*
G54D21*
D03*
X1073553Y286902D02*
G54D21*
D03*
X1022753Y190065D02*
G54D21*
D03*
X1073553Y190065D02*
G54D21*
D03*
X1022356Y96799D02*
G54D21*
D03*
X1073156Y96799D02*
G54D21*
D03*
X899330Y124974D02*
G54D36*
D03*
X899330Y105130D02*
G54D36*
D03*
X609022Y683257D02*
G54D37*
D03*
X609022Y734057D02*
G54D37*
D03*
X609022Y784857D02*
G54D37*
D03*
X609022Y835657D02*
G54D37*
D03*
X1064661Y357060D02*
G54D38*
D03*
X1024661Y357060D02*
G54D38*
D03*
X833041Y655638D02*
G54D24*
D03*
X606478Y141624D02*
G54D39*
D03*
X747909Y141625D02*
G54D39*
D03*
X606476Y198378D02*
G54D39*
D03*
X747908Y198378D02*
G54D39*
D03*
X748703Y27325D02*
G54D39*
D03*
X607272Y27324D02*
G54D39*
D03*
X748704Y84475D02*
G54D39*
D03*
X607273Y84474D02*
G54D39*
D03*
X716954Y30896D02*
G54D19*
D03*
X716954Y56296D02*
G54D19*
D03*
X716954Y81696D02*
G54D19*
D03*
X716952Y147578D02*
G54D19*
D03*
X716952Y172978D02*
G54D19*
D03*
X716952Y198378D02*
G54D19*
D03*
X658708Y144469D02*
G54D40*
D03*
G54D41*
X607272Y29309D02*
X624224Y29309D01*
X631031Y36116D01*
X688181Y36116D01*
X692944Y31353D01*
X716497Y31353D01*
X716954Y30896D01*
G54D41*
X682228Y36116D02*
X682228Y81636D01*
X689408Y88816D01*
X689408Y185774D01*
X700484Y196850D01*
X715424Y196850D01*
X716952Y198378D01*
X492772Y471546D02*
G54D42*
D03*
X199484Y234869D02*
G54D38*
D03*
X199484Y158670D02*
G54D12*
D03*
X558798Y587730D02*
G54D43*
D03*
X768349Y587730D02*
G54D43*
D03*
X1005651Y483350D02*
G54D44*
D03*
X980251Y483350D02*
G54D44*
D03*
X954851Y483349D02*
G54D44*
D03*
X681371Y844940D02*
G54D29*
D03*
X681370Y692540D02*
G54D29*
D03*
X1005651Y459934D02*
G54D16*
D03*
X1005650Y383735D02*
G54D16*
D03*
X980251Y459934D02*
G54D16*
D03*
X980250Y383735D02*
G54D16*
D03*
X954851Y459934D02*
G54D16*
D03*
X954850Y383735D02*
G54D16*
D03*
X916878Y385970D02*
G54D15*
D03*
X916878Y413907D02*
G54D15*
D03*
X996920Y509543D02*
G54D16*
D03*
X920720Y509544D02*
G54D16*
D03*
X996920Y535340D02*
G54D16*
D03*
X920721Y535341D02*
G54D16*
D03*
X915290Y468676D02*
G54D16*
D03*
X915290Y443276D02*
G54D16*
D03*
X944374Y141842D02*
G54D35*
D03*
X944374Y192642D02*
G54D35*
D03*
X944374Y29129D02*
G54D35*
D03*
X944374Y79930D02*
G54D35*
D03*
X1022753Y237690D02*
G54D25*
D03*
X1073553Y237690D02*
G54D25*
D03*
X1022753Y144027D02*
G54D25*
D03*
X1073553Y144027D02*
G54D25*
D03*
X1047750Y190500D02*
G54D45*
D03*
X1048941Y97631D02*
G54D45*
D03*
X1047750Y287338D02*
G54D45*
D03*
X1073553Y237690D02*
G54D25*
D03*
X1048153Y237689D02*
G54D25*
D03*
X1073553Y144027D02*
G54D25*
D03*
X1048153Y144027D02*
G54D25*
D03*
X1055104Y417665D02*
G54D46*
D03*
X1055104Y443065D02*
G54D46*
D03*
X1055104Y468465D02*
G54D46*
D03*
X1039019Y551259D02*
G54D16*
D03*
X1039019Y525859D02*
G54D16*
D03*
X1064419Y551259D02*
G54D16*
D03*
X1064419Y525859D02*
G54D16*
D03*
X321322Y450913D02*
G54D18*
D03*
X245122Y450913D02*
G54D18*
D03*
X377282Y410829D02*
G54D18*
D03*
X377282Y487029D02*
G54D18*
D03*
X103873Y315346D02*
G54D18*
D03*
X103873Y391546D02*
G54D18*
D03*
X461418Y193343D02*
G54D18*
D03*
X461418Y269543D02*
G54D18*
D03*
X181228Y323085D02*
G54D18*
D03*
X181228Y399285D02*
G54D18*
D03*
X215756Y323085D02*
G54D18*
D03*
X215756Y399285D02*
G54D18*
D03*
X138279Y381783D02*
G54D31*
D03*
X138279Y304283D02*
G54D31*
D03*
X967259Y762704D02*
G54D27*
D03*
X468807Y48228D02*
G54D25*
D03*
M02*
