%FSLAX34Y34*%
%MOMM*%
%LNSILK_TOP*%
G71*
G01*
%ADD10C,0.150*%
%ADD11C,0.280*%
%ADD12C,0.900*%
%ADD13C,0.191*%
%ADD14C,0.100*%
%ADD15C,0.133*%
%ADD16C,0.144*%
%ADD17C,0.120*%
%ADD18C,0.500*%
%ADD19C,0.600*%
%ADD20C,0.200*%
%ADD21C,0.206*%
%ADD22C,0.175*%
%ADD23C,0.000*%
%ADD24C,0.238*%
%ADD25C,0.025*%
%ADD26C,0.254*%
%ADD27C,0.318*%
%ADD28C,0.270*%
%ADD29C,0.333*%
%ADD30C,0.010*%
%ADD31C,0.159*%
%LPD*%
G54D10*
G75*
G01X565920Y749263D02*
G03X565920Y749263I-110000J0D01*
G01*
G54D11*
X402871Y802422D02*
X393443Y811850D01*
G54D11*
X394229Y803208D02*
X402085Y811064D01*
G54D12*
G75*
G01X452315Y642148D02*
G03X562315Y752148I0J110000D01*
G01*
G54D10*
G75*
G01X181336Y224277D02*
G03X153399Y229203I-15893J-8450D01*
G01*
G54D10*
G75*
G01X153873Y202038D02*
G03X181336Y207376I11570J13789D01*
G01*
G54D10*
X153443Y229326D02*
X153443Y224527D01*
G54D10*
X153543Y202326D02*
X153543Y207126D01*
G54D13*
X158376Y132522D02*
X169043Y132522D01*
X162376Y137322D01*
X161043Y137322D01*
X161043Y130922D01*
G54D13*
X169043Y127188D02*
X169043Y120788D01*
X167709Y121588D01*
X165709Y123188D01*
X163043Y124788D01*
X161043Y125588D01*
X158376Y125588D01*
G54D13*
X158376Y117056D02*
X169043Y117056D01*
G54D13*
X161709Y117056D02*
X169043Y110656D01*
G54D13*
X163709Y114656D02*
X158376Y110656D01*
G54D13*
X249636Y233401D02*
X253636Y229401D01*
X242969Y229401D01*
G54D13*
X242969Y219268D02*
X242969Y225668D01*
X243636Y225668D01*
X244969Y224868D01*
X248969Y220068D01*
X250302Y219268D01*
X251636Y219268D01*
X252969Y220068D01*
X253636Y221668D01*
X253636Y223268D01*
X252969Y224868D01*
X251636Y225668D01*
G54D13*
X242969Y215535D02*
X253636Y215535D01*
G54D13*
X246302Y215535D02*
X253636Y209135D01*
G54D13*
X248302Y213135D02*
X242969Y209135D01*
G54D13*
X173928Y66405D02*
X177928Y70405D01*
X177928Y59738D01*
G54D13*
X188061Y68405D02*
X188061Y61738D01*
X187261Y60405D01*
X185661Y59738D01*
X184061Y59738D01*
X182461Y60405D01*
X181661Y61738D01*
X181661Y68405D01*
X182461Y69738D01*
X184061Y70405D01*
X185661Y70405D01*
X187261Y69738D01*
X188061Y68405D01*
G54D13*
X198194Y68405D02*
X198194Y61738D01*
X197394Y60405D01*
X195794Y59738D01*
X194194Y59738D01*
X192594Y60405D01*
X191794Y61738D01*
X191794Y68405D01*
X192594Y69738D01*
X194194Y70405D01*
X195794Y70405D01*
X197394Y69738D01*
X198194Y68405D01*
G54D13*
X201927Y59738D02*
X201927Y70405D01*
X208327Y59738D01*
X208327Y70405D01*
G54D13*
X194065Y208688D02*
X204731Y208688D01*
X198065Y213488D01*
X196731Y213488D01*
X196731Y207088D01*
G54D13*
X194065Y203355D02*
X194065Y203355D01*
G54D13*
X204731Y199622D02*
X204731Y193222D01*
X203398Y194022D01*
X201398Y195622D01*
X198731Y197222D01*
X196731Y198022D01*
X194065Y198022D01*
G54D13*
X194065Y189489D02*
X204731Y189489D01*
G54D13*
X197398Y189489D02*
X204731Y183089D01*
G54D13*
X199398Y187089D02*
X194065Y183089D01*
G54D13*
X311563Y131970D02*
X315563Y127970D01*
X304896Y127970D01*
G54D13*
X304896Y117837D02*
X304896Y124237D01*
X305563Y124237D01*
X306896Y123437D01*
X310896Y118637D01*
X312230Y117837D01*
X313563Y117837D01*
X314896Y118637D01*
X315563Y120237D01*
X315563Y121837D01*
X314896Y123437D01*
X313563Y124237D01*
G54D13*
X304896Y114104D02*
X315563Y114104D01*
G54D13*
X308230Y114104D02*
X315563Y107704D01*
G54D13*
X310230Y111704D02*
X304896Y107704D01*
G54D13*
X285437Y131916D02*
X289437Y127916D01*
X278771Y127916D01*
G54D13*
X278771Y117783D02*
X278771Y124183D01*
X279437Y124183D01*
X280771Y123383D01*
X284771Y118583D01*
X286104Y117783D01*
X287437Y117783D01*
X288771Y118583D01*
X289437Y120183D01*
X289437Y121783D01*
X288771Y123383D01*
X287437Y124183D01*
G54D13*
X278771Y114050D02*
X289437Y114050D01*
G54D13*
X282104Y114050D02*
X289437Y107650D01*
G54D13*
X284104Y111650D02*
X278771Y107650D01*
G54D13*
X340087Y129421D02*
X344087Y125421D01*
X333420Y125421D01*
G54D13*
X342087Y115288D02*
X335420Y115288D01*
X334087Y116088D01*
X333420Y117688D01*
X333420Y119288D01*
X334087Y120888D01*
X335420Y121688D01*
X342087Y121688D01*
X343420Y120888D01*
X344087Y119288D01*
X344087Y117688D01*
X343420Y116088D01*
X342087Y115288D01*
G54D13*
X342087Y105155D02*
X335420Y105155D01*
X334087Y105955D01*
X333420Y107555D01*
X333420Y109155D01*
X334087Y110755D01*
X335420Y111555D01*
X342087Y111555D01*
X343420Y110755D01*
X344087Y109155D01*
X344087Y107555D01*
X343420Y105955D01*
X342087Y105155D01*
G54D13*
X333420Y101422D02*
X344087Y101422D01*
X333420Y95022D01*
X344087Y95022D01*
G54D13*
X220132Y200468D02*
X220132Y206868D01*
X220799Y206868D01*
X222132Y206068D01*
X226132Y201268D01*
X227466Y200468D01*
X228799Y200468D01*
X230132Y201268D01*
X230799Y202868D01*
X230799Y204468D01*
X230132Y206068D01*
X228799Y206868D01*
G54D13*
X220132Y196735D02*
X220132Y196735D01*
G54D13*
X220132Y186602D02*
X220132Y193002D01*
X220799Y193002D01*
X222132Y192202D01*
X226132Y187402D01*
X227466Y186602D01*
X228799Y186602D01*
X230132Y187402D01*
X230799Y189002D01*
X230799Y190602D01*
X230132Y192202D01*
X228799Y193002D01*
G54D13*
X220132Y182869D02*
X230799Y182869D01*
G54D13*
X223466Y182869D02*
X230799Y176469D01*
G54D13*
X225466Y180469D02*
X220132Y176469D01*
G54D13*
X445893Y124708D02*
X456559Y124708D01*
X449893Y129508D01*
X448559Y129508D01*
X448559Y123108D01*
G54D13*
X456559Y119375D02*
X456559Y112975D01*
X455226Y113775D01*
X453226Y115375D01*
X450559Y116975D01*
X448559Y117775D01*
X445893Y117775D01*
G54D13*
X454559Y102842D02*
X447893Y102842D01*
X446559Y103642D01*
X445893Y105242D01*
X445893Y106842D01*
X446559Y108442D01*
X447893Y109242D01*
X454559Y109242D01*
X455893Y108442D01*
X456559Y106842D01*
X456559Y105242D01*
X455893Y103642D01*
X454559Y102842D01*
G54D13*
X445893Y99109D02*
X456559Y99109D01*
X445893Y92709D01*
X456559Y92709D01*
G54D13*
X445893Y88976D02*
X456559Y88976D01*
X456559Y83376D01*
G54D13*
X451226Y88976D02*
X451226Y83376D01*
G54D14*
X485594Y150116D02*
X489593Y146116D01*
X489593Y138116D01*
X487594Y136117D01*
X487593Y104116D01*
X489594Y102116D01*
X489594Y94117D01*
X485594Y90116D01*
X469593Y90117D01*
X465593Y94117D01*
X465593Y102116D01*
X467593Y104116D01*
X467593Y136116D01*
X465594Y138116D01*
X465594Y146116D01*
X469593Y150116D01*
X485594Y150116D01*
G54D14*
X487594Y136117D02*
X467593Y136116D01*
G54D14*
X487593Y104116D02*
X467593Y104116D01*
G54D15*
X287478Y266459D02*
X293878Y266459D01*
G54D15*
X290678Y269126D02*
X290678Y263792D01*
G54D10*
G75*
G01X304972Y283576D02*
G03X304972Y283576I-25000J0D01*
G01*
G54D10*
X339822Y324478D02*
X339822Y300579D01*
X349322Y300578D01*
X349322Y291178D01*
X339822Y291178D01*
X339822Y267278D01*
X441422Y267278D01*
X441421Y324479D01*
X339822Y324478D01*
G36*
X339722Y267278D02*
X339722Y279978D01*
X352522Y267278D01*
X339722Y267278D01*
G37*
G54D10*
X418006Y243970D02*
X392606Y243970D01*
X392606Y188244D01*
X418006Y188245D01*
X418006Y243970D01*
G54D14*
X318112Y150116D02*
X322112Y146116D01*
X322112Y138116D01*
X320112Y136117D01*
X320112Y104116D01*
X322112Y102116D01*
X322112Y94116D01*
X318112Y90116D01*
X302112Y90116D01*
X298112Y94116D01*
X298112Y102116D01*
X300112Y104116D01*
X300112Y136116D01*
X298112Y138116D01*
X298112Y146116D01*
X302112Y150116D01*
X318112Y150116D01*
G54D14*
X320112Y136117D02*
X300112Y136116D01*
G54D14*
X320112Y104116D02*
X300112Y104116D01*
G54D14*
X292316Y150116D02*
X296316Y146116D01*
X296316Y138116D01*
X294316Y136116D01*
X294316Y104116D01*
X296315Y102117D01*
X296315Y94116D01*
X292316Y90116D01*
X276315Y90116D01*
X272316Y94116D01*
X272316Y102116D01*
X274315Y104116D01*
X274315Y136116D01*
X272315Y138116D01*
X272315Y146116D01*
X276315Y150116D01*
X292316Y150116D01*
G54D14*
X294316Y136116D02*
X274315Y136116D01*
G54D14*
X294316Y104116D02*
X274315Y104116D01*
G54D14*
X239918Y190315D02*
X235918Y194315D01*
X235918Y202316D01*
X237918Y204315D01*
X237918Y236315D01*
X235918Y238315D01*
X235918Y246315D01*
X239918Y250315D01*
X255918Y250315D01*
X259918Y246315D01*
X259918Y238315D01*
X257918Y236315D01*
X257918Y204315D01*
X259918Y202315D01*
X259918Y194315D01*
X255918Y190315D01*
X239918Y190315D01*
G54D14*
X237918Y204315D02*
X257918Y204315D01*
G54D14*
X237918Y236315D02*
X257918Y236315D01*
G54D14*
X266518Y150116D02*
X270519Y146116D01*
X270519Y138116D01*
X268519Y136116D01*
X268519Y104116D01*
X270519Y102116D01*
X270519Y94116D01*
X266519Y90116D01*
X250519Y90116D01*
X246519Y94116D01*
X246518Y102117D01*
X248519Y104116D01*
X248519Y136117D01*
X246519Y138116D01*
X246519Y146116D01*
X250519Y150116D01*
X266518Y150116D01*
G54D14*
X268519Y136116D02*
X248519Y136117D01*
G54D14*
X268519Y104116D02*
X248519Y104116D01*
G54D14*
X412784Y152940D02*
X408784Y148941D01*
X400784Y148941D01*
X398784Y150941D01*
X366784Y150941D01*
X364784Y148941D01*
X356784Y148941D01*
X352784Y152940D01*
X352784Y168941D01*
X356784Y172941D01*
X364784Y172941D01*
X366784Y170941D01*
X398784Y170941D01*
X400784Y172941D01*
X408784Y172941D01*
X412784Y168940D01*
X412784Y152940D01*
G54D14*
X233974Y219569D02*
X237974Y215570D01*
X237975Y207570D01*
X235975Y205569D01*
X235975Y173568D01*
X237975Y171569D01*
X237974Y163568D01*
X233975Y159569D01*
X217975Y159568D01*
X213974Y163568D01*
X213974Y171569D01*
X215975Y173568D01*
X215975Y205570D01*
X213975Y207570D01*
X213974Y215570D01*
X217974Y219569D01*
X233974Y219569D01*
G54D16*
X307165Y365070D02*
X307165Y358137D01*
G54D16*
X310054Y361604D02*
X304276Y361604D01*
G54D10*
G75*
G01X349688Y371783D02*
G03X349688Y371783I-25000J0D01*
G01*
G54D13*
X472700Y128156D02*
X483367Y128156D01*
X476700Y132956D01*
X475367Y132956D01*
X475367Y126556D01*
G54D13*
X483367Y122823D02*
X483367Y116423D01*
X482034Y117223D01*
X480034Y118823D01*
X477367Y120423D01*
X475367Y121223D01*
X472700Y121223D01*
G54D13*
X472700Y112690D02*
X483367Y112690D01*
G54D13*
X476034Y112690D02*
X483367Y106290D01*
G54D13*
X478034Y110290D02*
X472700Y106290D01*
G54D13*
X374002Y156178D02*
X367602Y156178D01*
X367602Y156845D01*
X368402Y158178D01*
X373202Y162178D01*
X374002Y163511D01*
X374002Y164845D01*
X373202Y166178D01*
X371602Y166845D01*
X370002Y166845D01*
X368402Y166178D01*
X367602Y164845D01*
G54D13*
X377735Y156178D02*
X377735Y156178D01*
G54D13*
X387868Y156178D02*
X381468Y156178D01*
X381468Y156845D01*
X382268Y158178D01*
X387068Y162178D01*
X387868Y163511D01*
X387868Y164845D01*
X387068Y166178D01*
X385468Y166845D01*
X383868Y166845D01*
X382268Y166178D01*
X381468Y164845D01*
G54D13*
X391601Y156178D02*
X391601Y166845D01*
G54D13*
X391601Y159511D02*
X398001Y166845D01*
G54D13*
X394001Y161511D02*
X398001Y156178D01*
G54D13*
X255855Y171041D02*
X259855Y175041D01*
X259855Y164374D01*
G54D13*
X269988Y173041D02*
X269988Y166374D01*
X269188Y165041D01*
X267588Y164374D01*
X265988Y164374D01*
X264388Y165041D01*
X263588Y166374D01*
X263588Y173041D01*
X264388Y174374D01*
X265988Y175041D01*
X267588Y175041D01*
X269188Y174374D01*
X269988Y173041D01*
G54D13*
X280121Y173041D02*
X280121Y166374D01*
X279321Y165041D01*
X277721Y164374D01*
X276121Y164374D01*
X274521Y165041D01*
X273721Y166374D01*
X273721Y173041D01*
X274521Y174374D01*
X276121Y175041D01*
X277721Y175041D01*
X279321Y174374D01*
X280121Y173041D01*
G54D13*
X283854Y164374D02*
X283854Y175041D01*
X290254Y164374D01*
X290254Y175041D01*
G54D13*
X259641Y131519D02*
X263641Y127519D01*
X252974Y127519D01*
G54D13*
X252974Y117386D02*
X252974Y123786D01*
X253641Y123786D01*
X254974Y122986D01*
X258974Y118186D01*
X260307Y117386D01*
X261641Y117386D01*
X262974Y118186D01*
X263641Y119786D01*
X263641Y121386D01*
X262974Y122986D01*
X261641Y123786D01*
G54D13*
X252974Y113653D02*
X263641Y113653D01*
G54D13*
X256307Y113653D02*
X263641Y107253D01*
G54D13*
X258307Y111253D02*
X252974Y107253D01*
G54D10*
X462909Y148672D02*
X437509Y148672D01*
X437509Y77072D01*
X462909Y77072D01*
X462909Y148672D01*
G54D10*
X349403Y148672D02*
X324003Y148672D01*
X324003Y77073D01*
X349403Y77072D01*
X349403Y148672D01*
G54D10*
X201653Y147179D02*
X176253Y147179D01*
X176253Y75579D01*
X201653Y75579D01*
X201653Y147179D01*
G54D10*
X360118Y251066D02*
X334719Y251066D01*
X334719Y179465D01*
X360119Y179465D01*
X360118Y251066D01*
G54D10*
X286415Y247484D02*
X261015Y247484D01*
X261015Y175883D01*
X286415Y175883D01*
X286415Y247484D01*
G54D15*
X223705Y296654D02*
X223705Y303054D01*
G54D15*
X221038Y299854D02*
X226372Y299854D01*
G54D10*
G75*
G01X231191Y289942D02*
G03X231191Y289942I-25000J0D01*
G01*
G54D10*
X376731Y399544D02*
X351331Y399544D01*
X351331Y353345D01*
X376731Y353344D01*
X376731Y399544D01*
G54D17*
X141154Y286024D02*
X141154Y275324D01*
G54D17*
X136754Y280725D02*
X145654Y280725D01*
G54D10*
X251450Y325082D02*
X251450Y296482D01*
X232450Y296482D01*
X232450Y325082D01*
X251450Y325082D01*
G54D18*
X248937Y322866D02*
X234650Y322866D01*
G36*
X248937Y320366D02*
X248937Y325366D01*
X251437Y325366D01*
X251437Y320366D01*
X248937Y320366D01*
G37*
G36*
X234650Y325366D02*
X234650Y320366D01*
X232150Y320366D01*
X232150Y325366D01*
X234650Y325366D01*
G37*
G54D10*
X288319Y467519D02*
X284319Y463519D01*
X276319Y463520D01*
X274319Y465519D01*
X242319Y465519D01*
X240319Y463519D01*
X232319Y463519D01*
X228319Y467519D01*
X228319Y483519D01*
X232319Y487519D01*
X240319Y487519D01*
X242319Y485519D01*
X274319Y485519D01*
X276319Y487519D01*
X284319Y487519D01*
X288319Y483520D01*
X288319Y467519D01*
G54D10*
X274319Y465519D02*
X274319Y485519D01*
G54D10*
X242319Y465519D02*
X242319Y485519D01*
G54D10*
X215163Y526741D02*
X215163Y486041D01*
X301563Y486041D01*
X301563Y526741D01*
X215163Y526741D01*
G54D10*
X215163Y521641D02*
X301563Y521641D01*
G54D10*
X390978Y526741D02*
X390978Y486041D01*
X477379Y486041D01*
X477379Y526741D01*
X390978Y526741D01*
G54D10*
X390978Y521641D02*
X477379Y521641D01*
G54D10*
X464532Y467123D02*
X460532Y463122D01*
X452532Y463122D01*
X450532Y465122D01*
X418532Y465122D01*
X416532Y463122D01*
X408532Y463122D01*
X404532Y467123D01*
X404532Y483123D01*
X408532Y487122D01*
X416532Y487122D01*
X418532Y485123D01*
X450532Y485123D01*
X452531Y487122D01*
X460532Y487122D01*
X464532Y483123D01*
X464532Y467123D01*
G54D10*
X450532Y465122D02*
X450532Y485123D01*
G54D10*
X418532Y465122D02*
X418532Y485123D01*
G54D14*
X308635Y417601D02*
X280034Y417601D01*
X280035Y436601D01*
X308635Y436601D01*
X308635Y417601D01*
G54D19*
X305447Y433451D02*
X305447Y420751D01*
G36*
X308447Y433451D02*
X302447Y433451D01*
X302447Y436451D01*
X308447Y436451D01*
X308447Y433451D01*
G37*
G36*
X302447Y420751D02*
X308447Y420751D01*
X308447Y417751D01*
X302447Y417751D01*
X302447Y420751D01*
G37*
G54D14*
X343969Y443360D02*
X343970Y471960D01*
X362969Y471960D01*
X362970Y443360D01*
X343969Y443360D01*
G54D19*
X359819Y446548D02*
X347119Y446548D01*
G36*
X359819Y443548D02*
X359819Y449548D01*
X362819Y449548D01*
X362819Y443548D01*
X359819Y443548D01*
G37*
G36*
X347119Y449548D02*
X347119Y443548D01*
X344119Y443548D01*
X344119Y449548D01*
X347119Y449548D01*
G37*
G54D10*
X853123Y624242D02*
X853123Y576642D01*
G54D10*
G75*
G01X876223Y576542D02*
G03X876223Y576542I-27000J0D01*
G01*
G54D10*
X845223Y624242D02*
X845223Y576642D01*
G54D20*
X857031Y527192D02*
X879256Y506554D01*
X879256Y225567D01*
X545881Y225568D01*
X545880Y527192D01*
X857031Y527192D01*
G54D14*
X432472Y169120D02*
X432472Y197720D01*
X451472Y197720D01*
X451472Y169120D01*
X432472Y169120D01*
G54D19*
X448322Y172308D02*
X435622Y172307D01*
G36*
X448322Y169308D02*
X448322Y175308D01*
X451322Y175308D01*
X451322Y169308D01*
X448322Y169308D01*
G37*
G36*
X435622Y175307D02*
X435622Y169307D01*
X432622Y169307D01*
X432622Y175307D01*
X435622Y175307D01*
G37*
G54D14*
X501516Y167967D02*
X472916Y167967D01*
X472916Y186967D01*
X501516Y186967D01*
X501516Y167967D01*
G54D10*
X368819Y205777D02*
X368819Y234377D01*
X387819Y234377D01*
X387819Y205776D01*
X368819Y205777D01*
G54D13*
X217092Y373101D02*
X221092Y369101D01*
X210425Y369101D01*
G54D13*
X210425Y365368D02*
X210425Y365368D01*
G54D13*
X217092Y361635D02*
X221092Y357635D01*
X210425Y357635D01*
G54D13*
X210425Y353902D02*
X221092Y353902D01*
G54D13*
X213759Y353902D02*
X221092Y347502D01*
G54D13*
X215759Y351502D02*
X210425Y347502D01*
G54D13*
X243683Y319523D02*
X247683Y315523D01*
X237016Y315523D01*
G54D13*
X245683Y305390D02*
X247016Y306190D01*
X247683Y307790D01*
X247683Y309390D01*
X247016Y310990D01*
X245683Y311790D01*
X242350Y311790D01*
X241683Y311790D01*
X243016Y309390D01*
X243016Y307790D01*
X242350Y306190D01*
X241016Y305390D01*
X239016Y305390D01*
X237683Y306190D01*
X237016Y307790D01*
X237016Y309390D01*
X237683Y310990D01*
X239016Y311790D01*
X242350Y311790D01*
G54D13*
X247683Y301657D02*
X237016Y297657D01*
X247683Y293657D01*
G54D13*
X199872Y284950D02*
X193472Y284950D01*
X193472Y285617D01*
X194272Y286950D01*
X199072Y290950D01*
X199872Y292283D01*
X199872Y293617D01*
X199072Y294950D01*
X197472Y295617D01*
X195872Y295617D01*
X194272Y294950D01*
X193472Y293617D01*
G54D13*
X203605Y284950D02*
X203605Y284950D01*
G54D13*
X213738Y284950D02*
X207338Y284950D01*
X207338Y285617D01*
X208138Y286950D01*
X212938Y290950D01*
X213738Y292283D01*
X213738Y293617D01*
X212938Y294950D01*
X211338Y295617D01*
X209738Y295617D01*
X208138Y294950D01*
X207338Y293617D01*
G54D13*
X217471Y295617D02*
X217471Y286950D01*
X218271Y285617D01*
X219871Y284950D01*
X221471Y284950D01*
X223071Y285617D01*
X223871Y286950D01*
X223871Y295617D01*
G54D21*
X142786Y399086D02*
X142786Y410642D01*
X148853Y410642D01*
G54D21*
X142786Y404864D02*
X148853Y404864D01*
G54D21*
X152897Y404142D02*
X159830Y404142D01*
G54D21*
X156364Y407031D02*
X156364Y401253D01*
G54D21*
X164429Y241694D02*
X164429Y253249D01*
X170496Y253249D01*
G54D21*
X164429Y247471D02*
X170496Y247471D01*
G54D21*
X174540Y246749D02*
X181474Y246749D01*
G54D13*
X103972Y225837D02*
X107972Y229837D01*
X107972Y219170D01*
G54D13*
X118105Y227837D02*
X118105Y221170D01*
X117305Y219837D01*
X115705Y219170D01*
X114105Y219170D01*
X112505Y219837D01*
X111705Y221170D01*
X111705Y227837D01*
X112505Y229170D01*
X114105Y229837D01*
X115705Y229837D01*
X117305Y229170D01*
X118105Y227837D01*
G54D13*
X128238Y227837D02*
X128238Y221170D01*
X127438Y219837D01*
X125838Y219170D01*
X124238Y219170D01*
X122638Y219837D01*
X121838Y221170D01*
X121838Y227837D01*
X122638Y229170D01*
X124238Y229837D01*
X125838Y229837D01*
X127438Y229170D01*
X128238Y227837D01*
G54D13*
X131971Y229837D02*
X131971Y221170D01*
X132771Y219837D01*
X134371Y219170D01*
X135971Y219170D01*
X137571Y219837D01*
X138371Y221170D01*
X138371Y229837D01*
G54D13*
X143704Y219170D02*
X143704Y229170D01*
X144504Y229837D01*
X145304Y229437D01*
G54D13*
X142104Y225170D02*
X145304Y225170D01*
G54D13*
X495317Y378608D02*
X488650Y378608D01*
X487317Y379408D01*
X486650Y381008D01*
X486650Y382608D01*
X487317Y384208D01*
X488650Y385008D01*
X495317Y385008D01*
X496650Y384208D01*
X497317Y382608D01*
X497317Y381008D01*
X496650Y379408D01*
X495317Y378608D01*
G54D13*
X486650Y374875D02*
X486650Y374875D01*
G54D13*
X486650Y366342D02*
X497317Y366342D01*
X490650Y371142D01*
X489317Y371142D01*
X489317Y364742D01*
G54D13*
X497317Y361009D02*
X497317Y354609D01*
X495984Y355409D01*
X493984Y357009D01*
X491317Y358609D01*
X489317Y359409D01*
X486650Y359409D01*
G54D13*
X491317Y350876D02*
X491317Y344476D01*
G54D13*
X495317Y340743D02*
X496650Y339943D01*
X497317Y338343D01*
X497317Y336743D01*
X496650Y335143D01*
X495317Y334343D01*
X493984Y334343D01*
X492650Y335143D01*
X491984Y336743D01*
X491317Y335143D01*
X489984Y334343D01*
X488650Y334343D01*
X487317Y335143D01*
X486650Y336743D01*
X486650Y338343D01*
X487317Y339943D01*
X488650Y340743D01*
G54D13*
X497317Y330610D02*
X486650Y330610D01*
X493317Y326610D01*
X486650Y322610D01*
X497317Y322610D01*
G54D13*
X466758Y237320D02*
X466758Y243720D01*
X462091Y243720D01*
X462091Y242920D01*
X462758Y241320D01*
X462758Y239720D01*
X462091Y238120D01*
X460758Y237320D01*
X458091Y237320D01*
X456758Y238120D01*
X456091Y239720D01*
X456091Y241320D01*
X456758Y242920D01*
X458091Y243720D01*
G54D13*
X456091Y233587D02*
X456091Y233587D01*
G54D13*
X464758Y223454D02*
X466091Y224254D01*
X466758Y225854D01*
X466758Y227454D01*
X466091Y229054D01*
X464758Y229854D01*
X461424Y229854D01*
X460758Y229854D01*
X462091Y227454D01*
X462091Y225854D01*
X461424Y224254D01*
X460091Y223454D01*
X458091Y223454D01*
X456758Y224254D01*
X456091Y225854D01*
X456091Y227454D01*
X456758Y229054D01*
X458091Y229854D01*
X461424Y229854D01*
G54D13*
X456091Y219721D02*
X466758Y219721D01*
G54D13*
X459424Y219721D02*
X466758Y213321D01*
G54D13*
X461424Y217321D02*
X456091Y213321D01*
G54D10*
X229037Y93698D02*
X244237Y98598D01*
X244237Y142197D01*
X229037Y147097D01*
G54D10*
G75*
G01X228937Y147048D02*
G03X228937Y93748I0J-26650D01*
G01*
G54D13*
X224324Y61602D02*
X224324Y55202D01*
X228990Y55202D01*
X228990Y56002D01*
X228324Y57602D01*
X228324Y59202D01*
X228990Y60802D01*
X230324Y61602D01*
X232990Y61602D01*
X234324Y60802D01*
X234990Y59202D01*
X234990Y57602D01*
X234324Y56002D01*
X232990Y55202D01*
G54D13*
X224324Y71735D02*
X224324Y65335D01*
X228990Y65335D01*
X228990Y66135D01*
X228324Y67735D01*
X228324Y69335D01*
X228990Y70935D01*
X230324Y71735D01*
X232990Y71735D01*
X234324Y70935D01*
X234990Y69335D01*
X234990Y67735D01*
X234324Y66135D01*
X232990Y65335D01*
G54D13*
X224324Y81868D02*
X224324Y75468D01*
X228990Y75468D01*
X228990Y76268D01*
X228324Y77868D01*
X228324Y79468D01*
X228990Y81068D01*
X230324Y81868D01*
X232990Y81868D01*
X234324Y81068D01*
X234990Y79468D01*
X234990Y77868D01*
X234324Y76268D01*
X232990Y75468D01*
G54D13*
X228324Y85601D02*
X224324Y89601D01*
X234990Y89601D01*
G54D10*
X377922Y92858D02*
X393121Y97758D01*
X393121Y141357D01*
X377922Y146257D01*
G54D10*
G75*
G01X377822Y146208D02*
G03X377822Y92908I0J-26650D01*
G01*
G54D13*
X369239Y58379D02*
X369239Y51979D01*
X373906Y51979D01*
X373906Y52779D01*
X373239Y54379D01*
X373239Y55979D01*
X373906Y57579D01*
X375239Y58379D01*
X377906Y58379D01*
X379239Y57579D01*
X379906Y55979D01*
X379906Y54379D01*
X379239Y52779D01*
X377906Y51979D01*
G54D13*
X369239Y68512D02*
X369239Y62112D01*
X373906Y62112D01*
X373906Y62912D01*
X373239Y64512D01*
X373239Y66112D01*
X373906Y67712D01*
X375239Y68512D01*
X377906Y68512D01*
X379239Y67712D01*
X379906Y66112D01*
X379906Y64512D01*
X379239Y62912D01*
X377906Y62112D01*
G54D13*
X369239Y78645D02*
X369239Y72245D01*
X373906Y72245D01*
X373906Y73045D01*
X373239Y74645D01*
X373239Y76245D01*
X373906Y77845D01*
X375239Y78645D01*
X377906Y78645D01*
X379239Y77845D01*
X379906Y76245D01*
X379906Y74645D01*
X379239Y73045D01*
X377906Y72245D01*
G54D13*
X373239Y82378D02*
X369239Y86378D01*
X379906Y86378D01*
G54D10*
X420784Y92858D02*
X435984Y97758D01*
X435984Y141357D01*
X420785Y146257D01*
G54D10*
G75*
G01X420684Y146208D02*
G03X420684Y92908I0J-26650D01*
G01*
G54D13*
X422420Y60364D02*
X422420Y53964D01*
X427087Y53964D01*
X427087Y54764D01*
X426420Y56364D01*
X426420Y57964D01*
X427087Y59564D01*
X428420Y60364D01*
X431087Y60364D01*
X432420Y59564D01*
X433087Y57964D01*
X433087Y56364D01*
X432420Y54764D01*
X431087Y53964D01*
G54D13*
X422420Y70497D02*
X422420Y64097D01*
X427087Y64097D01*
X427087Y64897D01*
X426420Y66497D01*
X426420Y68097D01*
X427087Y69697D01*
X428420Y70497D01*
X431087Y70497D01*
X432420Y69697D01*
X433087Y68097D01*
X433087Y66497D01*
X432420Y64897D01*
X431087Y64097D01*
G54D13*
X422420Y80630D02*
X422420Y74230D01*
X427087Y74230D01*
X427087Y75030D01*
X426420Y76630D01*
X426420Y78230D01*
X427087Y79830D01*
X428420Y80630D01*
X431087Y80630D01*
X432420Y79830D01*
X433087Y78230D01*
X433087Y76630D01*
X432420Y75030D01*
X431087Y74230D01*
G54D13*
X426420Y84363D02*
X422420Y88363D01*
X433087Y88363D01*
G54D10*
X301496Y247403D02*
X286297Y242502D01*
X286297Y198903D01*
X301496Y194003D01*
G54D10*
G75*
G01X301597Y194053D02*
G03X301597Y247353I0J26650D01*
G01*
G54D22*
X283890Y220898D02*
X283890Y226765D01*
X279612Y226765D01*
X279612Y226032D01*
X280223Y224565D01*
X280223Y223098D01*
X279612Y221632D01*
X278390Y220898D01*
X275945Y220898D01*
X274723Y221632D01*
X274112Y223098D01*
X274112Y224565D01*
X274723Y226032D01*
X275945Y226765D01*
G54D22*
X274112Y213076D02*
X283890Y213076D01*
X277779Y217476D01*
X276557Y217476D01*
X276557Y211609D01*
G54D22*
X282057Y202320D02*
X275945Y202320D01*
X274723Y203054D01*
X274112Y204520D01*
X274112Y205987D01*
X274723Y207454D01*
X275945Y208187D01*
X282057Y208187D01*
X283279Y207454D01*
X283890Y205987D01*
X283890Y204520D01*
X283279Y203054D01*
X282057Y202320D01*
G54D22*
X280223Y198898D02*
X283890Y195231D01*
X274112Y195231D01*
G54D10*
X268541Y337154D02*
X283741Y342054D01*
X283741Y385654D01*
X268541Y390554D01*
G54D10*
G75*
G01X268441Y390504D02*
G03X268441Y337204I0J-26650D01*
G01*
G54D13*
X285655Y353873D02*
X285655Y347473D01*
X290322Y347473D01*
X290322Y348273D01*
X289655Y349873D01*
X289655Y351473D01*
X290322Y353073D01*
X291655Y353873D01*
X294322Y353873D01*
X295655Y353073D01*
X296322Y351473D01*
X296322Y349873D01*
X295655Y348273D01*
X294322Y347473D01*
G54D13*
X285655Y364006D02*
X285655Y357606D01*
X290322Y357606D01*
X290322Y358406D01*
X289655Y360006D01*
X289655Y361606D01*
X290322Y363206D01*
X291655Y364006D01*
X294322Y364006D01*
X295655Y363206D01*
X296322Y361606D01*
X296322Y360006D01*
X295655Y358406D01*
X294322Y357606D01*
G54D13*
X285655Y374139D02*
X285655Y367739D01*
X290322Y367739D01*
X290322Y368539D01*
X289655Y370139D01*
X289655Y371739D01*
X290322Y373339D01*
X291655Y374139D01*
X294322Y374139D01*
X295655Y373339D01*
X296322Y371739D01*
X296322Y370139D01*
X295655Y368539D01*
X294322Y367739D01*
G54D13*
X289655Y377872D02*
X285655Y381872D01*
X296322Y381872D01*
G54D13*
X328959Y270023D02*
X318293Y270023D01*
G54D13*
X328959Y276423D02*
X318293Y276423D01*
G54D13*
X323626Y270023D02*
X323626Y276423D01*
G54D13*
X328959Y285756D02*
X328959Y280156D01*
X318293Y280156D01*
X318293Y285756D01*
G54D13*
X323626Y280156D02*
X323626Y285756D01*
G54D13*
X323626Y292689D02*
X324959Y295089D01*
X326293Y295889D01*
X328959Y295889D01*
G54D13*
X328959Y289489D02*
X318293Y289489D01*
X318293Y293489D01*
X318959Y295089D01*
X320293Y295889D01*
X321626Y295889D01*
X322959Y295089D01*
X323626Y293489D01*
X323626Y289489D01*
G54D13*
X322293Y299622D02*
X318293Y303622D01*
X328959Y303622D01*
G54D13*
X320293Y313755D02*
X326959Y313755D01*
X328293Y312955D01*
X328959Y311355D01*
X328959Y309755D01*
X328293Y308155D01*
X326959Y307355D01*
X320293Y307355D01*
X318959Y308155D01*
X318293Y309755D01*
X318293Y311355D01*
X318959Y312955D01*
X320293Y313755D01*
G54D13*
X318293Y317488D02*
X318293Y323888D01*
X319626Y323088D01*
X321626Y321488D01*
X324293Y319888D01*
X326293Y319088D01*
X328959Y319088D01*
G54D10*
X335662Y269576D02*
X308263Y269576D01*
X308262Y321676D01*
X335662Y321676D01*
X335662Y269576D01*
G54D10*
X308262Y315276D02*
X335663Y315276D01*
G54D10*
X752944Y668248D02*
X752944Y642849D01*
X824544Y642848D01*
X824544Y668248D01*
X752944Y668248D01*
G54D20*
X1008480Y755217D02*
X1008480Y653217D01*
G54D20*
X1008480Y755217D02*
X1088481Y755217D01*
X1088481Y653217D01*
X1008480Y653217D01*
G54D10*
G75*
G01X1007258Y831260D02*
G03X1007258Y831260I-27000J0D01*
G01*
G54D10*
X844485Y799696D02*
X844485Y863196D01*
G54D10*
X844485Y863196D02*
X854010Y863196D01*
X854010Y799696D01*
G54D10*
X727011Y799696D02*
X727011Y863196D01*
X736536Y863196D01*
X736536Y799696D01*
G54D10*
X727011Y799696D02*
X727011Y679046D01*
X736536Y679046D01*
X736536Y799696D01*
G54D10*
X844485Y799696D02*
X844485Y679046D01*
X854010Y679046D01*
X854010Y799696D01*
G54D10*
X727011Y679046D02*
X712723Y693333D01*
X712723Y799696D01*
G54D10*
X727011Y863196D02*
X712723Y848909D01*
X712723Y799696D01*
G54D10*
X854010Y863196D02*
X868298Y848909D01*
X868298Y799696D01*
G54D10*
X854010Y679046D02*
X868298Y693333D01*
X868298Y799696D01*
G54D10*
X844548Y741418D02*
X848548Y745418D01*
X848548Y753418D01*
X846548Y755418D01*
X846548Y787418D01*
X848548Y789419D01*
X848548Y797418D01*
X844548Y801418D01*
X828548Y801418D01*
X824548Y797418D01*
X824548Y789418D01*
X826548Y787418D01*
X826548Y755418D01*
X824548Y753418D01*
X824548Y745418D01*
X828548Y741418D01*
X844548Y741418D01*
G54D10*
X846548Y755418D02*
X826548Y755418D01*
G54D10*
X846548Y787418D02*
X826548Y787418D01*
G54D10*
X871139Y858440D02*
X931138Y858440D01*
X931138Y678440D01*
X871139Y678440D01*
X871139Y858440D01*
G54D10*
X752076Y741022D02*
X756076Y745022D01*
X756076Y753022D01*
X754076Y755022D01*
X754076Y787022D01*
X756076Y789022D01*
X756076Y797022D01*
X752076Y801022D01*
X736076Y801022D01*
X732076Y797022D01*
X732076Y789022D01*
X734076Y787022D01*
X734076Y755022D01*
X732076Y753022D01*
X732076Y745022D01*
X736076Y741022D01*
X752076Y741022D01*
G54D10*
X754076Y755022D02*
X734076Y755022D01*
G54D10*
X754076Y787022D02*
X734076Y787022D01*
G54D10*
X954558Y756832D02*
X979958Y756832D01*
X979959Y685232D01*
X954559Y685232D01*
X954558Y756832D01*
G54D23*
X176503Y446858D02*
X128903Y446858D01*
G54D23*
G75*
G01X155803Y450759D02*
G03X155803Y450759I-27000J0D01*
G01*
G54D23*
X176503Y454758D02*
X128903Y454758D01*
G54D24*
X1042069Y766475D02*
X1034069Y766475D01*
X1034069Y767308D01*
X1035069Y768975D01*
X1041069Y773975D01*
X1042069Y775641D01*
X1042069Y777308D01*
X1041069Y778975D01*
X1039069Y779808D01*
X1037069Y779808D01*
X1035069Y778975D01*
X1034069Y777308D01*
G54D24*
X1054736Y766475D02*
X1046736Y766475D01*
X1046736Y767308D01*
X1047736Y768975D01*
X1053736Y773975D01*
X1054736Y775641D01*
X1054736Y777308D01*
X1053736Y778975D01*
X1051736Y779808D01*
X1049736Y779808D01*
X1047736Y778975D01*
X1046736Y777308D01*
G54D24*
X1067403Y777308D02*
X1067403Y768975D01*
X1066403Y767308D01*
X1064403Y766475D01*
X1062403Y766475D01*
X1060403Y767308D01*
X1059403Y768975D01*
X1059403Y777308D01*
X1060403Y778975D01*
X1062403Y779808D01*
X1064403Y779808D01*
X1066403Y778975D01*
X1067403Y777308D01*
G54D24*
X1072070Y779808D02*
X1077070Y766475D01*
X1082070Y779808D01*
G54D25*
X953179Y636797D02*
X939942Y623560D01*
G54D25*
X952910Y636851D02*
X940535Y624476D01*
G54D25*
X952622Y636887D02*
X941128Y625392D01*
G54D25*
X952335Y636922D02*
X941702Y626290D01*
G54D25*
X952047Y636958D02*
X942295Y627206D01*
G54D25*
X953053Y635701D02*
X951760Y636994D01*
X942888Y628122D01*
G54D25*
X951473Y637030D02*
X943462Y629020D01*
G54D25*
X951186Y637066D02*
X944055Y629936D01*
G54D25*
X950898Y637102D02*
X944648Y630852D01*
X947396Y628104D01*
G54D25*
X950611Y637138D02*
X945222Y631750D01*
G54D25*
X950323Y637174D02*
X945815Y632666D01*
G54D25*
X950036Y637210D02*
X946408Y633582D01*
G54D25*
X949749Y637246D02*
X946983Y634480D01*
G54D25*
X949479Y637300D02*
X947019Y634839D01*
G54D25*
X949192Y637336D02*
X946731Y634875D01*
G54D25*
X948904Y637372D02*
X946444Y634911D01*
G54D25*
X948617Y637407D02*
X946157Y634947D01*
G54D25*
X948330Y637443D02*
X945869Y634983D01*
G54D25*
X951670Y633851D02*
X948042Y637479D01*
X945582Y635019D01*
G54D25*
X947755Y637515D02*
X945312Y635072D01*
G54D25*
X947468Y637551D02*
X945025Y635108D01*
G54D25*
X947180Y637587D02*
X944738Y635144D01*
G54D25*
X953592Y636456D02*
X953251Y636797D01*
G54D25*
X953466Y636258D02*
X952874Y636851D01*
G54D25*
X953323Y636078D02*
X952515Y636887D01*
G54D25*
X953179Y635899D02*
X952137Y636940D01*
G54D25*
X952910Y635522D02*
X951383Y637048D01*
G54D25*
X952766Y635342D02*
X951024Y637084D01*
G54D25*
X952640Y635144D02*
X950647Y637138D01*
G54D25*
X952496Y634965D02*
X950269Y637192D01*
G54D25*
X952353Y634785D02*
X949910Y637228D01*
G54D25*
X952227Y634588D02*
X949533Y637282D01*
G54D25*
X935398Y617723D02*
X952083Y634408D01*
X949156Y637335D01*
G54D25*
X951940Y634228D02*
X948779Y637389D01*
G54D25*
X951814Y634031D02*
X948420Y637425D01*
G54D25*
X951527Y633672D02*
X947665Y637533D01*
G54D25*
X951401Y633474D02*
X947306Y637569D01*
G54D25*
X951257Y633294D02*
X946929Y637623D01*
G54D25*
X951114Y633115D02*
X946552Y637677D01*
G54D25*
X950988Y632917D02*
X946174Y637731D01*
G54D25*
X950844Y632738D02*
X945815Y637767D01*
G54D25*
X950701Y632558D02*
X945438Y637821D01*
G54D25*
X950575Y632360D02*
X945061Y637874D01*
G54D25*
X950431Y632181D02*
X944702Y637910D01*
G54D25*
X950287Y632002D02*
X944324Y637964D01*
X941864Y635504D01*
G54D25*
X950162Y631804D02*
X943947Y638018D01*
G54D25*
X950018Y631624D02*
X947054Y634588D01*
G54D25*
X946767Y634875D02*
X943570Y638072D01*
G54D25*
X949874Y631445D02*
X946929Y634390D01*
G54D25*
X946390Y634929D02*
X943211Y638108D01*
G54D25*
X949749Y631247D02*
X946803Y634192D01*
G54D25*
X946031Y634965D02*
X942834Y638162D01*
G54D25*
X949605Y631068D02*
X946677Y633995D01*
G54D25*
X945654Y635019D02*
X942457Y638216D01*
G54D25*
X949461Y630888D02*
X946552Y633798D01*
G54D25*
X945277Y635072D02*
X942079Y638270D01*
G54D25*
X949335Y630690D02*
X946426Y633600D01*
G54D25*
X949192Y630511D02*
X946300Y633402D01*
G54D25*
X949048Y630331D02*
X946174Y633205D01*
G54D25*
X948922Y630134D02*
X946049Y633007D01*
G54D25*
X948779Y629954D02*
X945905Y632828D01*
G54D25*
X948635Y629774D02*
X945779Y632630D01*
G54D25*
X948509Y629577D02*
X945654Y632432D01*
G54D25*
X935254Y616286D02*
X948366Y629398D01*
X945528Y632235D01*
G54D25*
X948222Y629217D02*
X945402Y632038D01*
G54D25*
X948096Y629020D02*
X945276Y631840D01*
G54D25*
X947952Y628840D02*
X945151Y631643D01*
G54D25*
X947809Y628661D02*
X945025Y631445D01*
G54D25*
X947683Y628463D02*
X944900Y631247D01*
G54D25*
X947540Y628283D02*
X944773Y631049D01*
G54D25*
X947270Y627906D02*
X944522Y630654D01*
G54D25*
X947126Y627727D02*
X944396Y630457D01*
G54D25*
X946983Y627547D02*
X944271Y630260D01*
G54D25*
X946857Y627349D02*
X944145Y630062D01*
G54D25*
X946713Y627170D02*
X944019Y629864D01*
G54D25*
X946570Y626990D02*
X943894Y629666D01*
G54D25*
X946444Y626793D02*
X943750Y629487D01*
G54D25*
X946300Y626613D02*
X943624Y629289D01*
G54D25*
X948743Y619644D02*
X948473Y619914D01*
G54D25*
X948491Y619573D02*
X948096Y619968D01*
G54D25*
X948258Y619483D02*
X947719Y620022D01*
X946552Y618854D01*
G54D25*
X948024Y619393D02*
X947342Y620075D01*
G54D25*
X947791Y619303D02*
X946965Y620129D01*
G54D25*
X947557Y619213D02*
X946588Y620183D01*
X944540Y618136D01*
G54D25*
X947306Y619142D02*
X946210Y620237D01*
G54D25*
X948006Y619986D02*
X947072Y619052D01*
X945833Y620291D01*
G54D25*
X946839Y618962D02*
X945456Y620345D01*
X942511Y617399D01*
G54D25*
X946606Y618872D02*
X945097Y620381D01*
G54D25*
X946372Y618782D02*
X944720Y620435D01*
G54D25*
X946121Y618711D02*
X944342Y620489D01*
G54D25*
X945887Y618621D02*
X943965Y620542D01*
G54D25*
X945654Y618531D02*
X943588Y620596D01*
G54D25*
X945420Y618441D02*
X943211Y620650D01*
G54D25*
X942438Y621423D02*
X940086Y623775D01*
G54D25*
X945169Y618369D02*
X942834Y620704D01*
G54D25*
X942313Y621225D02*
X939960Y623578D01*
G54D25*
X944935Y618279D02*
X942457Y620758D01*
G54D25*
X942169Y621045D02*
X939834Y623380D01*
G54D25*
X944702Y618190D02*
X939709Y623183D01*
G54D25*
X944468Y618100D02*
X939583Y622985D01*
G54D25*
X944235Y618010D02*
X939457Y622787D01*
G54D25*
X935093Y614723D02*
X936404Y627709D01*
X939403Y622734D01*
X947216Y634821D01*
X936296Y636222D01*
X948096Y657721D01*
X955604Y654524D01*
X941595Y638323D01*
X953790Y636725D01*
X942008Y620812D01*
X949210Y619824D01*
X935093Y614723D01*
G54D25*
X948851Y619860D02*
X948581Y619590D01*
G54D25*
X948581Y619914D02*
X948078Y619411D01*
G54D25*
X948294Y619950D02*
X947575Y619231D01*
G54D25*
X947432Y620058D02*
X946049Y618675D01*
G54D25*
X947144Y620094D02*
X945546Y618495D01*
G54D25*
X946875Y620147D02*
X945043Y618315D01*
G54D25*
X946300Y620219D02*
X944019Y617938D01*
G54D25*
X946013Y620255D02*
X943516Y617759D01*
X936153Y625122D01*
G54D25*
X945725Y620291D02*
X943013Y617579D01*
G54D25*
X945169Y620381D02*
X942008Y617220D01*
G54D25*
X944881Y620417D02*
X941487Y617022D01*
G54D25*
X944594Y620453D02*
X940984Y616843D01*
G54D25*
X944307Y620489D02*
X940481Y616663D01*
G54D25*
X944037Y620543D02*
X939978Y616483D01*
G54D25*
X943750Y620578D02*
X939475Y616304D01*
X935650Y620129D01*
G54D25*
X943462Y620614D02*
X938954Y616106D01*
G54D25*
X943175Y620650D02*
X938451Y615927D01*
G54D25*
X942888Y620686D02*
X937948Y615747D01*
G54D25*
X942618Y620740D02*
X937446Y615567D01*
G54D25*
X942331Y620776D02*
X936943Y615388D01*
G54D25*
X942044Y620812D02*
X936422Y615190D01*
G54D25*
X942798Y621890D02*
X935919Y615011D01*
X935201Y615729D01*
G54D25*
X943714Y623129D02*
X935416Y614831D01*
G54D25*
X942115Y626918D02*
X944648Y624386D01*
X935111Y614849D01*
G54D25*
X945582Y625643D02*
X935147Y615208D01*
G54D25*
X946516Y626901D02*
X935182Y615567D01*
G54D25*
X947432Y628140D02*
X935218Y615927D01*
G54D25*
X949300Y630654D02*
X935290Y616645D01*
G54D25*
X950216Y631893D02*
X935326Y617004D01*
G54D25*
X951149Y633151D02*
X935362Y617364D01*
G54D25*
X953017Y635665D02*
X935434Y618082D01*
X937823Y615693D01*
G54D25*
X953754Y636725D02*
X935470Y618441D01*
G54D25*
X939403Y622698D02*
X935506Y618800D01*
G54D25*
X939296Y622913D02*
X935542Y619159D01*
G54D25*
X939170Y623111D02*
X935578Y619519D01*
G54D25*
X939044Y623308D02*
X935614Y619878D01*
G54D25*
X938919Y623506D02*
X935650Y620237D01*
G54D25*
X938810Y623721D02*
X935686Y620596D01*
G54D25*
X938685Y623919D02*
X935722Y620956D01*
G54D25*
X938559Y624117D02*
X935758Y621315D01*
X940427Y616645D01*
G54D25*
X938433Y624314D02*
X935793Y621674D01*
G54D25*
X938326Y624530D02*
X935829Y622033D01*
G54D25*
X938200Y624727D02*
X935865Y622392D01*
G54D25*
X938074Y624925D02*
X935901Y622752D01*
G54D25*
X937948Y625122D02*
X935937Y623111D01*
G54D25*
X937841Y625338D02*
X935973Y623470D01*
G54D25*
X937715Y625535D02*
X936009Y623829D01*
G54D25*
X937589Y625733D02*
X936045Y624188D01*
G54D25*
X937464Y625931D02*
X936080Y624548D01*
X943032Y617597D01*
G54D25*
X937356Y626146D02*
X936117Y624907D01*
G54D25*
X937230Y626344D02*
X936152Y625266D01*
G54D25*
X937104Y626541D02*
X936188Y625625D01*
G54D25*
X936979Y626739D02*
X936224Y625985D01*
G54D25*
X936871Y626954D02*
X936260Y626344D01*
G54D25*
X936745Y627152D02*
X936296Y626703D01*
G54D25*
X936619Y627349D02*
X936332Y627062D01*
G54D25*
X946605Y637659D02*
X944163Y635216D01*
X938739Y640640D01*
G54D25*
X946336Y637713D02*
X943876Y635252D01*
G54D25*
X946049Y637749D02*
X943588Y635288D01*
G54D25*
X945761Y637785D02*
X943301Y635324D01*
G54D25*
X945474Y637820D02*
X943013Y635360D01*
G54D25*
X945187Y637856D02*
X942726Y635396D01*
G54D25*
X944899Y637892D02*
X942439Y635432D01*
G54D25*
X944612Y637928D02*
X942151Y635468D01*
G54D25*
X944037Y638000D02*
X941577Y635539D01*
X937931Y639185D01*
G54D25*
X943750Y638036D02*
X941289Y635575D01*
G54D25*
X943463Y638072D02*
X941002Y635612D01*
G54D25*
X943175Y638108D02*
X940715Y635647D01*
G54D25*
X942906Y638162D02*
X940427Y635684D01*
G54D25*
X942618Y638198D02*
X940140Y635720D01*
G54D25*
X942331Y638234D02*
X939852Y635755D01*
G54D25*
X942043Y638269D02*
X939565Y635791D01*
G54D25*
X941756Y638305D02*
X939278Y635827D01*
G54D25*
X942600Y639473D02*
X938990Y635863D01*
G54D25*
X952048Y656032D02*
X941253Y645238D01*
X944648Y641844D01*
X938703Y635899D01*
G54D25*
X946695Y644214D02*
X938434Y635953D01*
G54D25*
X948761Y646604D02*
X938146Y635989D01*
G54D25*
X950808Y648974D02*
X937859Y636024D01*
X936781Y637102D01*
G54D25*
X952874Y651363D02*
X937571Y636060D01*
G54D25*
X954921Y653734D02*
X937284Y636097D01*
G54D25*
X955460Y654596D02*
X936997Y636132D01*
G54D25*
X955226Y654685D02*
X936709Y636168D01*
G54D25*
X954993Y654776D02*
X936422Y636205D01*
G54D25*
X954777Y654883D02*
X936530Y636635D01*
G54D25*
X954544Y654973D02*
X936925Y637354D01*
G54D25*
X954311Y655063D02*
X937320Y638072D01*
G54D25*
X954095Y655170D02*
X937715Y638790D01*
G54D25*
X953862Y655261D02*
X938110Y639509D01*
G54D25*
X953646Y655368D02*
X938505Y640227D01*
X943427Y635306D01*
G54D25*
X953413Y655458D02*
X938900Y640946D01*
G54D25*
X953179Y655548D02*
X939278Y641646D01*
G54D25*
X952964Y655656D02*
X939673Y642364D01*
G54D25*
X952730Y655746D02*
X940068Y643083D01*
G54D25*
X952515Y655853D02*
X940463Y643802D01*
G54D25*
X952281Y655943D02*
X940858Y644520D01*
G54D25*
X951832Y656141D02*
X941648Y645957D01*
G54D25*
X954544Y653285D02*
X951598Y656230D01*
X942026Y646658D01*
G54D25*
X951383Y656338D02*
X942421Y647376D01*
G54D25*
X951150Y656428D02*
X942816Y648094D01*
G54D25*
X950916Y656517D02*
X943211Y648812D01*
G54D25*
X950701Y656626D02*
X943606Y649531D01*
G54D25*
X954239Y652944D02*
X950467Y656715D01*
X944001Y650250D01*
X948240Y646010D01*
G54D25*
X950234Y656805D02*
X944396Y650968D01*
G54D25*
X950018Y656912D02*
X944791Y651686D01*
G54D25*
X949784Y657002D02*
X945169Y652386D01*
G54D25*
X949569Y657110D02*
X945564Y653105D01*
G54D25*
X953933Y652602D02*
X949335Y657200D01*
X945959Y653824D01*
G54D25*
X949102Y657290D02*
X946354Y654542D01*
G54D25*
X948886Y657398D02*
X946749Y655260D01*
X951832Y650178D01*
G54D25*
X948653Y657488D02*
X947144Y655979D01*
G54D25*
X948437Y657595D02*
X947540Y656697D01*
G54D25*
X953646Y652243D02*
X948204Y657685D01*
X947935Y657415D01*
G54D25*
X946893Y637623D02*
X944450Y635180D01*
G54D25*
X955442Y654326D02*
X954975Y654794D01*
G54D25*
X955280Y654165D02*
X954418Y655027D01*
G54D25*
X955137Y653985D02*
X953844Y655278D01*
G54D25*
X954993Y653806D02*
X953287Y655512D01*
G54D25*
X954831Y653644D02*
X952712Y655764D01*
G54D25*
X954688Y653464D02*
X952155Y655997D01*
G54D25*
X954382Y653123D02*
X951024Y656482D01*
G54D25*
X954095Y652764D02*
X949892Y656966D01*
G54D25*
X953790Y652422D02*
X948779Y657433D01*
G54D25*
X953484Y652082D02*
X948007Y657560D01*
G54D25*
X953341Y651902D02*
X947899Y657343D01*
G54D25*
X953197Y651722D02*
X947773Y657146D01*
G54D25*
X953035Y651560D02*
X947665Y656930D01*
G54D25*
X952892Y651381D02*
X947557Y656715D01*
G54D25*
X952748Y651202D02*
X947432Y656518D01*
G54D25*
X952586Y651040D02*
X947324Y656302D01*
G54D25*
X952443Y650860D02*
X947198Y656104D01*
G54D25*
X952281Y650698D02*
X947090Y655889D01*
G54D25*
X952137Y650519D02*
X946983Y655674D01*
G54D25*
X951994Y650339D02*
X946857Y655476D01*
G54D25*
X951688Y649998D02*
X946642Y655045D01*
G54D25*
X951545Y649819D02*
X946516Y654848D01*
G54D25*
X951383Y649657D02*
X946408Y654632D01*
G54D25*
X951239Y649477D02*
X946282Y654434D01*
G54D25*
X951096Y649298D02*
X946175Y654218D01*
G54D25*
X950934Y649136D02*
X946067Y654003D01*
G54D25*
X950790Y648956D02*
X945941Y653806D01*
G54D25*
X950647Y648776D02*
X945833Y653590D01*
G54D25*
X950485Y648615D02*
X945725Y653374D01*
G54D25*
X950341Y648435D02*
X945600Y653177D01*
G54D25*
X950198Y648256D02*
X945492Y652962D01*
G54D25*
X950036Y648094D02*
X945366Y652764D01*
G54D25*
X949892Y647914D02*
X945258Y652549D01*
G54D25*
X949749Y647735D02*
X945151Y652333D01*
G54D25*
X949587Y647573D02*
X945025Y652135D01*
G54D25*
X949443Y647393D02*
X944917Y651920D01*
G54D25*
X949300Y647214D02*
X944810Y651704D01*
G54D25*
X949138Y647052D02*
X944684Y651506D01*
G54D25*
X948994Y646873D02*
X944576Y651291D01*
G54D25*
X948850Y646693D02*
X944450Y651094D01*
G54D25*
X948689Y646532D02*
X944342Y650878D01*
G54D25*
X948545Y646352D02*
X944235Y650663D01*
G54D25*
X948402Y646172D02*
X944109Y650465D01*
G54D25*
X948096Y645831D02*
X943893Y650034D01*
G54D25*
X947953Y645652D02*
X943768Y649836D01*
G54D25*
X947791Y645490D02*
X943660Y649621D01*
G54D25*
X947647Y645310D02*
X943534Y649424D01*
G54D25*
X947504Y645130D02*
X943426Y649208D01*
G54D25*
X947342Y644969D02*
X943319Y648992D01*
G54D25*
X947198Y644789D02*
X943193Y648795D01*
G54D25*
X947037Y644627D02*
X943085Y648579D01*
G54D25*
X946893Y644448D02*
X942978Y648364D01*
G54D25*
X946749Y644268D02*
X942852Y648166D01*
G54D25*
X946587Y644107D02*
X942744Y647951D01*
G54D25*
X946444Y643927D02*
X942618Y647753D01*
G54D25*
X946300Y643747D02*
X942511Y647538D01*
G54D25*
X946139Y643586D02*
X942403Y647322D01*
G54D25*
X945995Y643406D02*
X942277Y647124D01*
G54D25*
X945851Y643227D02*
X942169Y646909D01*
G54D25*
X945689Y643065D02*
X942062Y646693D01*
G54D25*
X945546Y642885D02*
X941936Y646495D01*
G54D25*
X945402Y642706D02*
X941828Y646280D01*
G54D25*
X945240Y642544D02*
X941702Y646082D01*
G54D25*
X945097Y642364D02*
X941594Y645867D01*
G54D25*
X944953Y642185D02*
X941487Y645651D01*
G54D25*
X944792Y642023D02*
X941361Y645454D01*
G54D25*
X944504Y641664D02*
X941146Y645023D01*
G54D25*
X944343Y641502D02*
X941020Y644825D01*
G54D25*
X944199Y641323D02*
X940912Y644610D01*
G54D25*
X944055Y641143D02*
X940786Y644412D01*
G54D25*
X943894Y640982D02*
X940679Y644197D01*
G54D25*
X943750Y640802D02*
X940571Y643981D01*
G54D25*
X943606Y640622D02*
X940445Y643783D01*
G54D25*
X943444Y640461D02*
X940337Y643568D01*
G54D25*
X943301Y640281D02*
X940229Y643352D01*
G54D25*
X943157Y640102D02*
X940104Y643155D01*
G54D25*
X942995Y639940D02*
X939996Y642939D01*
G54D25*
X942852Y639760D02*
X939870Y642742D01*
G54D25*
X942708Y639581D02*
X939763Y642526D01*
G54D25*
X942546Y639419D02*
X939655Y642311D01*
G54D25*
X942403Y639239D02*
X939529Y642113D01*
G54D25*
X942241Y639078D02*
X939421Y641898D01*
G54D25*
X942098Y638898D02*
X939314Y641682D01*
G54D25*
X941954Y638719D02*
X939188Y641484D01*
G54D25*
X941792Y638557D02*
X939080Y641269D01*
G54D25*
X944917Y635109D02*
X938954Y641071D01*
G54D25*
X944540Y635162D02*
X938847Y640856D01*
G54D25*
X943804Y635252D02*
X938613Y640443D01*
G54D25*
X943049Y635360D02*
X938397Y640012D01*
G54D25*
X942690Y635396D02*
X938272Y639814D01*
G54D25*
X942313Y635450D02*
X938164Y639599D01*
G54D25*
X941954Y635486D02*
X938038Y639401D01*
G54D25*
X941199Y635593D02*
X937823Y638970D01*
G54D25*
X940840Y635629D02*
X937697Y638772D01*
G54D25*
X940463Y635684D02*
X937589Y638557D01*
G54D25*
X940086Y635737D02*
X937464Y638359D01*
G54D25*
X939727Y635773D02*
X937356Y638144D01*
G54D25*
X939350Y635827D02*
X937248Y637928D01*
G54D25*
X938972Y635881D02*
X937122Y637731D01*
G54D25*
X938613Y635917D02*
X937015Y637516D01*
G54D25*
X938236Y635971D02*
X936907Y637300D01*
G54D25*
X937500Y636060D02*
X936674Y636887D01*
G54D25*
X937122Y636115D02*
X936548Y636689D01*
G54D25*
X936763Y636151D02*
X936440Y636473D01*
G54D25*
X946156Y626434D02*
X943498Y629092D01*
G54D25*
X946031Y626236D02*
X943373Y628894D01*
G54D25*
X945887Y626056D02*
X943247Y628697D01*
G54D25*
X945743Y625877D02*
X943121Y628499D01*
G54D25*
X945618Y625679D02*
X942995Y628301D01*
G54D25*
X945474Y625500D02*
X942870Y628104D01*
G54D25*
X945330Y625320D02*
X942744Y627906D01*
G54D25*
X945205Y625122D02*
X942618Y627709D01*
G54D25*
X945061Y624943D02*
X942493Y627511D01*
G54D25*
X944917Y624763D02*
X942367Y627314D01*
G54D25*
X944791Y624566D02*
X942241Y627116D01*
G54D25*
X944504Y624206D02*
X941990Y626721D01*
G54D25*
X944379Y624009D02*
X941864Y626523D01*
G54D25*
X944235Y623829D02*
X941738Y626326D01*
G54D25*
X944091Y623650D02*
X941612Y626128D01*
G54D25*
X943965Y623452D02*
X941469Y625949D01*
G54D25*
X943822Y623273D02*
X941343Y625751D01*
G54D25*
X943678Y623093D02*
X941218Y625553D01*
G54D25*
X943552Y622895D02*
X941092Y625356D01*
G54D25*
X943409Y622716D02*
X940966Y625158D01*
G54D25*
X943265Y622536D02*
X940840Y624961D01*
G54D25*
X943139Y622339D02*
X940714Y624763D01*
G54D25*
X942995Y622159D02*
X940589Y624566D01*
G54D25*
X942852Y621979D02*
X940463Y624368D01*
G54D25*
X942726Y621782D02*
X940337Y624170D01*
G54D25*
X942582Y621602D02*
X940212Y623973D01*
G54D25*
X936799Y627062D02*
X936386Y627475D01*
G54D25*
X937284Y626254D02*
X936350Y627188D01*
G54D25*
X937769Y625446D02*
X936314Y626901D01*
G54D25*
X938254Y624637D02*
X936296Y626595D01*
G54D25*
X938739Y623829D02*
X936260Y626308D01*
G54D25*
X939224Y623021D02*
X936224Y626020D01*
G54D25*
X943983Y617938D02*
X936206Y625715D01*
G54D25*
X943750Y617848D02*
X936170Y625428D01*
G54D25*
X943283Y617669D02*
X936116Y624835D01*
G54D25*
X942798Y617507D02*
X936063Y624242D01*
G54D25*
X942564Y617417D02*
X936027Y623955D01*
G54D25*
X942331Y617328D02*
X935991Y623668D01*
G54D25*
X942098Y617238D02*
X935973Y623362D01*
G54D25*
X941846Y617166D02*
X935937Y623075D01*
G54D25*
X941612Y617076D02*
X935901Y622787D01*
G54D25*
X941379Y616986D02*
X935883Y622482D01*
G54D25*
X941145Y616896D02*
X935847Y622195D01*
G54D25*
X940894Y616825D02*
X935811Y621907D01*
G54D25*
X940661Y616735D02*
X935793Y621602D01*
G54D25*
X940194Y616555D02*
X935739Y621009D01*
G54D25*
X939960Y616465D02*
X935704Y620722D01*
G54D25*
X939708Y616394D02*
X935668Y620435D01*
G54D25*
X939242Y616214D02*
X935614Y619842D01*
G54D25*
X939008Y616124D02*
X935578Y619555D01*
G54D25*
X938757Y616052D02*
X935560Y619249D01*
G54D25*
X938523Y615963D02*
X935524Y618962D01*
G54D25*
X938290Y615873D02*
X935488Y618675D01*
G54D25*
X938056Y615783D02*
X935470Y618369D01*
G54D25*
X937571Y615621D02*
X935398Y617794D01*
G54D25*
X937338Y615532D02*
X935380Y617489D01*
G54D25*
X937104Y615442D02*
X935344Y617202D01*
G54D25*
X936871Y615352D02*
X935326Y616897D01*
G54D25*
X936638Y615262D02*
X935290Y616609D01*
G54D25*
X936386Y615190D02*
X935254Y616322D01*
G54D25*
X936152Y615100D02*
X935236Y616016D01*
G54D25*
X935686Y614921D02*
X935165Y615442D01*
G54D25*
X935434Y614849D02*
X935147Y615136D01*
G54D26*
X913792Y610987D02*
X983604Y610969D01*
G54D26*
X983407Y611131D02*
X949605Y674532D01*
X913612Y611275D01*
G54D14*
X513772Y433749D02*
X517772Y429749D01*
X517772Y411749D01*
X516772Y407749D01*
X516772Y306749D01*
X517772Y302749D01*
X517772Y284749D01*
X513772Y280749D01*
X472772Y280749D01*
X467772Y285749D01*
X467772Y302749D01*
X468772Y306749D01*
X468772Y407749D01*
X467772Y412749D01*
X467772Y429749D01*
X471772Y433749D01*
X513772Y433749D01*
G54D14*
X516772Y407749D02*
X468772Y407749D01*
G54D14*
X516772Y306749D02*
X468772Y306749D01*
G54D14*
X496772Y433749D02*
X496772Y447749D01*
X488772Y447749D01*
X488772Y433749D01*
G54D14*
X488772Y280749D02*
X488772Y266749D01*
X496772Y266749D01*
X496772Y280749D01*
G54D10*
X550247Y35528D02*
X550247Y60928D01*
X478647Y60928D01*
X478647Y35528D01*
X550247Y35528D01*
G54D10*
X921006Y308122D02*
X921006Y335522D01*
X973107Y335522D01*
X973106Y308122D01*
X921006Y308122D01*
G54D10*
X966706Y335522D02*
X966706Y308122D01*
G54D10*
X921006Y343047D02*
X921006Y370447D01*
X973106Y370447D01*
X973106Y343047D01*
X921006Y343047D01*
G54D10*
X966706Y370447D02*
X966706Y343047D01*
G54D14*
G75*
G01X154907Y263771D02*
G03X154907Y263771I-30000J0D01*
G01*
G54D14*
X171157Y154180D02*
X175156Y150179D01*
X175156Y142180D01*
X173157Y140180D01*
X173156Y108180D01*
X175157Y106180D01*
X175157Y98180D01*
X171157Y94180D01*
X155156Y94180D01*
X151156Y98180D01*
X151156Y106180D01*
X153156Y108180D01*
X153156Y140180D01*
X151157Y142180D01*
X151157Y150179D01*
X155156Y154179D01*
X171157Y154180D01*
G54D14*
X173157Y140180D02*
X153156Y140180D01*
G54D14*
X173156Y108180D02*
X153156Y108180D01*
G54D10*
X324282Y804088D02*
X324282Y837413D01*
G54D10*
X332281Y804101D02*
X332282Y839013D01*
G54D10*
G75*
G01X353682Y839013D02*
G03X353682Y839013I-25400J0D01*
G01*
G54D10*
G75*
G01X310571Y748275D02*
G03X310571Y748275I-110000J0D01*
G01*
G54D11*
X147413Y801324D02*
X137984Y810752D01*
G54D11*
X146627Y809966D02*
X138770Y802110D01*
G54D12*
G75*
G01X197406Y642161D02*
G03X307406Y752161I0J110000D01*
G01*
G54D10*
X332678Y675104D02*
X332678Y641779D01*
G54D10*
X324678Y675091D02*
X324678Y640179D01*
G54D10*
G75*
G01X354078Y640179D02*
G03X354078Y640179I-25400J0D01*
G01*
G54D27*
X994417Y268379D02*
X994417Y273712D01*
X999972Y273713D01*
X1002195Y272379D01*
X1003306Y269712D01*
X1003306Y267046D01*
X1002195Y264379D01*
X999972Y263046D01*
X988861Y263046D01*
X986639Y264379D01*
X985528Y267046D01*
X985528Y269712D01*
X986639Y272379D01*
X988861Y273713D01*
G54D27*
X1003306Y279935D02*
X985528Y279935D01*
X1003306Y290601D01*
X985528Y290601D01*
G54D27*
X1003306Y296824D02*
X985528Y296824D01*
X985528Y303490D01*
X986639Y306157D01*
X988861Y307490D01*
X999972Y307490D01*
X1002195Y306157D01*
X1003306Y303490D01*
X1003306Y296824D01*
G54D27*
X1021325Y46653D02*
X1021325Y57320D01*
G54D27*
X1016880Y51986D02*
X1025769Y51986D01*
G54D27*
X1011324Y63542D02*
X1029103Y70208D01*
X1011324Y76875D01*
G54D27*
X1001481Y188734D02*
X1001481Y199401D01*
G54D27*
X991481Y205623D02*
X1009259Y212290D01*
X991481Y218956D01*
G54D10*
G75*
G01X875312Y167042D02*
G03X875312Y167042I-50000J0D01*
G01*
G54D10*
G75*
G01X875310Y54328D02*
G03X875310Y54328I-50000J0D01*
G01*
G54D10*
X1010053Y274202D02*
X1010053Y299602D01*
X1086253Y299602D01*
X1086253Y274202D01*
X1010053Y274202D01*
G54D10*
X1010053Y177365D02*
X1010053Y202765D01*
X1086253Y202765D01*
X1086253Y177365D01*
X1010053Y177365D01*
G54D10*
X1009656Y84099D02*
X1009656Y109499D01*
X1085856Y109499D01*
X1085856Y84099D01*
X1009656Y84099D01*
G54D28*
X840196Y137142D02*
X849262Y137142D01*
G54D28*
X844729Y140919D02*
X844729Y133364D01*
G54D28*
X840593Y29590D02*
X849660Y29590D01*
G54D28*
X845127Y33368D02*
X845127Y25812D01*
G54D20*
X640772Y651557D02*
X577272Y651557D01*
G54D20*
X640772Y867457D02*
X577272Y867457D01*
G54D20*
X577272Y651557D02*
X577272Y867457D01*
G54D20*
X640772Y651557D02*
X640772Y867457D01*
G54D27*
X629487Y834779D02*
X640154Y834779D01*
G54D27*
X634821Y830335D02*
X634821Y839223D01*
G54D27*
X630915Y680407D02*
X630915Y691074D01*
G54D13*
X627162Y727657D02*
X637829Y731657D01*
X627162Y735657D01*
G54D13*
X631162Y729257D02*
X631162Y734057D01*
G54D13*
X629162Y745790D02*
X627829Y744990D01*
X627162Y743390D01*
X627162Y741790D01*
X627829Y740190D01*
X629162Y739390D01*
X635829Y739390D01*
X637162Y740190D01*
X637829Y741790D01*
X637829Y743390D01*
X637162Y744990D01*
X635829Y745790D01*
G54D13*
X627162Y778457D02*
X637829Y782457D01*
X627162Y786457D01*
G54D13*
X631162Y780057D02*
X631162Y784857D01*
G54D13*
X629162Y796590D02*
X627829Y795790D01*
X627162Y794190D01*
X627162Y792590D01*
X627829Y790990D01*
X629162Y790190D01*
X635829Y790190D01*
X637162Y790990D01*
X637829Y792590D01*
X637829Y794190D01*
X637162Y795790D01*
X635829Y796590D01*
G54D18*
G75*
G01X188398Y275104D02*
G03X223753Y275104I17677J17678D01*
G01*
G54D18*
G75*
G01X265056Y301169D02*
G03X265056Y265814I17678J-17678D01*
G01*
G54D18*
G75*
G01X342366Y386682D02*
G03X307010Y386682I-17678J-17677D01*
G01*
G54D18*
G75*
G01X103297Y245336D02*
G03X145723Y245336I21213J21213D01*
G01*
G54D18*
G75*
G01X860495Y199868D02*
G03X789784Y199868I-35355J-35355D01*
G01*
G54D18*
G75*
G01X860892Y86759D02*
G03X790182Y86759I-35355J-35355D01*
G01*
G54D17*
X1022630Y373307D02*
X1033330Y373307D01*
G54D17*
X1027930Y368907D02*
X1027930Y377807D01*
G54D14*
G75*
G01X1074883Y357060D02*
G03X1074883Y357060I-30000J0D01*
G01*
G54D18*
G75*
G01X1063318Y335450D02*
G03X1063318Y377876I-21213J21213D01*
G01*
G54D14*
X630589Y114624D02*
X724590Y114625D01*
X724590Y168624D01*
X630590Y168624D01*
X630589Y114624D01*
G54D14*
X642589Y114624D02*
X642589Y168625D01*
G54D14*
X650589Y114625D02*
X650590Y168624D01*
G54D14*
X630588Y171378D02*
X724588Y171377D01*
X724589Y225377D01*
X630588Y225378D01*
X630588Y171378D01*
G54D14*
X642588Y171377D02*
X642588Y225376D01*
G54D14*
X650588Y171377D02*
X650588Y225378D01*
G54D14*
X724591Y324D02*
X630591Y325D01*
X630590Y54325D01*
X724591Y54324D01*
X724591Y324D01*
G54D14*
X712591Y324D02*
X712591Y54324D01*
G54D14*
X704591Y325D02*
X704591Y54325D01*
G54D14*
X724593Y57474D02*
X630592Y57474D01*
X630592Y111474D01*
X724592Y111474D01*
X724593Y57474D01*
G54D14*
X712593Y57474D02*
X712592Y111474D01*
G54D14*
X704593Y57474D02*
X704592Y111474D01*
G54D13*
X642475Y86942D02*
X643275Y85609D01*
X644875Y84942D01*
X646475Y84942D01*
X648075Y85609D01*
X648875Y86942D01*
X648875Y88276D01*
X648075Y89609D01*
X646475Y90276D01*
X644875Y90276D01*
X643275Y90942D01*
X642475Y92276D01*
X642475Y93609D01*
X643275Y94942D01*
X644875Y95609D01*
X646475Y95609D01*
X648075Y94942D01*
X648875Y93609D01*
G54D13*
X655808Y90276D02*
X658208Y88942D01*
X659008Y87609D01*
X659008Y84942D01*
G54D13*
X652608Y84942D02*
X652608Y95609D01*
X656608Y95609D01*
X658208Y94942D01*
X659008Y93609D01*
X659008Y92276D01*
X658208Y90942D01*
X656608Y90276D01*
X652608Y90276D01*
G54D13*
X669141Y95609D02*
X662741Y95609D01*
X662741Y90942D01*
X663541Y90942D01*
X665141Y91609D01*
X666741Y91609D01*
X668341Y90942D01*
X669141Y89609D01*
X669141Y86942D01*
X668341Y85609D01*
X666741Y84942D01*
X665141Y84942D01*
X663541Y85609D01*
X662741Y86942D01*
G54D13*
X672874Y91609D02*
X676874Y95609D01*
X676874Y84942D01*
G54D13*
X687007Y93609D02*
X687007Y86942D01*
X686207Y85609D01*
X684607Y84942D01*
X683007Y84942D01*
X681407Y85609D01*
X680607Y86942D01*
X680607Y93609D01*
X681407Y94942D01*
X683007Y95609D01*
X684607Y95609D01*
X686207Y94942D01*
X687007Y93609D01*
G54D13*
X697140Y93609D02*
X697140Y86942D01*
X696340Y85609D01*
X694740Y84942D01*
X693140Y84942D01*
X691540Y85609D01*
X690740Y86942D01*
X690740Y93609D01*
X691540Y94942D01*
X693140Y95609D01*
X694740Y95609D01*
X696340Y94942D01*
X697140Y93609D01*
G54D14*
X207484Y226870D02*
X211484Y222870D01*
X211484Y214870D01*
X209484Y212870D01*
X209484Y180870D01*
X211484Y178870D01*
X211484Y170871D01*
X207484Y166870D01*
X191484Y166871D01*
X187484Y170871D01*
X187484Y178870D01*
X189484Y180870D01*
X189484Y212870D01*
X187484Y214870D01*
X187484Y222870D01*
X191484Y226870D01*
X207484Y226870D01*
G54D10*
X774722Y629026D02*
X774722Y546525D01*
X552472Y546526D01*
X552472Y629025D01*
X774722Y629026D01*
G54D10*
X94156Y536782D02*
X499269Y536782D01*
X499269Y582612D01*
X94156Y582612D01*
X94156Y536782D01*
G54D10*
X954851Y483349D02*
X1005651Y483350D01*
G54D10*
G75*
G01X1006901Y483350D02*
G03X953601Y483350I-26650J0D01*
G01*
G54D10*
X711470Y858440D02*
X651472Y858440D01*
X651472Y678440D01*
X711470Y678440D01*
X711470Y858440D01*
G54D14*
X1013651Y451935D02*
X1017650Y447934D01*
X1017650Y439935D01*
X1015651Y437935D01*
X1015651Y405935D01*
X1017651Y403935D01*
X1017651Y395935D01*
X1013651Y391935D01*
X997651Y391935D01*
X993650Y395935D01*
X993650Y403935D01*
X995651Y405935D01*
X995651Y437935D01*
X993651Y439935D01*
X993651Y447934D01*
X997651Y451934D01*
X1013651Y451935D01*
G54D14*
X1015651Y437935D02*
X995651Y437935D01*
G54D14*
X1015651Y405935D02*
X995651Y405935D01*
G54D14*
X988251Y451935D02*
X992250Y447934D01*
X992250Y439935D01*
X990250Y437935D01*
X990250Y405935D01*
X992250Y403935D01*
X992250Y395935D01*
X988251Y391935D01*
X972250Y391935D01*
X968250Y395935D01*
X968250Y403935D01*
X970250Y405935D01*
X970250Y437935D01*
X968251Y439935D01*
X968251Y447934D01*
X972250Y451934D01*
X988251Y451935D01*
G54D14*
X990250Y437935D02*
X970250Y437935D01*
G54D14*
X990250Y405935D02*
X970250Y405935D01*
G54D14*
X962851Y451935D02*
X966850Y447934D01*
X966850Y439935D01*
X964851Y437935D01*
X964851Y405935D01*
X966850Y403935D01*
X966850Y395935D01*
X962851Y391935D01*
X946851Y391935D01*
X942850Y395935D01*
X942850Y403935D01*
X944851Y405935D01*
X944851Y437935D01*
X942851Y439935D01*
X942851Y447934D01*
X946851Y451934D01*
X962851Y451935D01*
G54D14*
X964851Y437935D02*
X944851Y437935D01*
G54D14*
X964851Y405935D02*
X944851Y405935D01*
G54D16*
X934401Y407047D02*
X934401Y413981D01*
G54D16*
X931512Y410514D02*
X937290Y410514D01*
G54D10*
G75*
G01X941878Y400335D02*
G03X941878Y400335I-25000J0D01*
G01*
G54D14*
X988920Y501543D02*
X984920Y497544D01*
X976920Y497544D01*
X974921Y499543D01*
X942920Y499543D01*
X940920Y497544D01*
X932921Y497544D01*
X928920Y501543D01*
X928921Y517543D01*
X932921Y521544D01*
X940920Y521544D01*
X942920Y519543D01*
X974920Y519543D01*
X976920Y521543D01*
X984920Y521543D01*
X988920Y517543D01*
X988920Y501543D01*
G54D14*
X988920Y527340D02*
X984920Y523341D01*
X976921Y523341D01*
X974922Y525340D01*
X942921Y525340D01*
X940921Y523340D01*
X932922Y523340D01*
X928921Y527340D01*
X928922Y543340D01*
X932922Y547340D01*
X940921Y547340D01*
X942921Y545340D01*
X974921Y545340D01*
X976921Y547340D01*
X984920Y547340D01*
X988920Y543340D01*
X988920Y527340D01*
G54D14*
X974922Y525340D02*
X974921Y545340D01*
G54D14*
X942921Y525340D02*
X942921Y545340D01*
G54D10*
X902590Y481376D02*
X927990Y481376D01*
X927990Y430576D01*
X902590Y430576D01*
X902590Y481376D01*
G54D20*
X1084263Y592534D02*
X917575Y592534D01*
X893762Y568722D01*
X893762Y496094D01*
G54D29*
X1055699Y574863D02*
X1066899Y574863D01*
G54D29*
X1061299Y579530D02*
X1061299Y570196D01*
G54D26*
X1051440Y571941D02*
X1037217Y571941D01*
X1037217Y579407D01*
G54D26*
X1044328Y571941D02*
X1044329Y579407D01*
G54D21*
X899040Y442559D02*
X887484Y442559D01*
X899040Y449493D01*
X887484Y449493D01*
G54D21*
X899040Y457003D02*
X887484Y457003D01*
G54D21*
X887484Y453536D02*
X887484Y460470D01*
G54D21*
X896873Y471447D02*
X898318Y470580D01*
X899040Y468847D01*
X899040Y467113D01*
X898318Y465380D01*
X896873Y464513D01*
X889651Y464513D01*
X888206Y465380D01*
X887484Y467113D01*
X887484Y468847D01*
X888206Y470580D01*
X889651Y471447D01*
G54D10*
G75*
G01X994374Y167042D02*
G03X994374Y167042I-50000J0D01*
G01*
G54D28*
X959258Y137142D02*
X968325Y137142D01*
G54D28*
X963792Y140919D02*
X963792Y133364D01*
G54D18*
G75*
G01X979558Y199868D02*
G03X908847Y199868I-35356J-35355D01*
G01*
G54D10*
G75*
G01X994373Y54328D02*
G03X994373Y54328I-50000J0D01*
G01*
G54D28*
X959656Y29589D02*
X968722Y29589D01*
G54D28*
X964189Y33367D02*
X964189Y25812D01*
G54D18*
G75*
G01X979955Y86759D02*
G03X909244Y86759I-35355J-35356D01*
G01*
G54D10*
X1012353Y250390D02*
X1012353Y224990D01*
X1083953Y224990D01*
X1083953Y250390D01*
X1012353Y250390D01*
G54D10*
X1012353Y156727D02*
X1012353Y131327D01*
X1083953Y131327D01*
X1083953Y156727D01*
X1012353Y156727D01*
G54D10*
X1083953Y224989D02*
X1083953Y250389D01*
X1037753Y250389D01*
X1037753Y224989D01*
X1083953Y224989D01*
G54D10*
X1083953Y131327D02*
X1083953Y156727D01*
X1037753Y156727D01*
X1037753Y131327D01*
X1083953Y131327D01*
G54D18*
G75*
G01X897613Y382261D02*
G03X932969Y382261I17678J17677D01*
G01*
G54D10*
X1032201Y399865D02*
X1072904Y399865D01*
X1072904Y486265D01*
X1032201Y486265D01*
X1032201Y399865D01*
G54D10*
X1037303Y399865D02*
X1037303Y486265D01*
G54D20*
X1051719Y551259D02*
X1051719Y557659D01*
X1045419Y563959D01*
X1032619Y563959D01*
X1026319Y557659D01*
X1026319Y544859D01*
X1032619Y538559D01*
X1045419Y538559D01*
X1051719Y544859D01*
X1051719Y551259D01*
G54D20*
X1051719Y525859D02*
X1051719Y532259D01*
X1045419Y538559D01*
X1032619Y538559D01*
X1026319Y532259D01*
X1026319Y519459D01*
X1032619Y513159D01*
X1045419Y513159D01*
X1051719Y519459D01*
X1051719Y525859D01*
G54D20*
X1077119Y551259D02*
X1077119Y557659D01*
X1070819Y563959D01*
X1058019Y563959D01*
X1051719Y557659D01*
X1051719Y544859D01*
X1058019Y538559D01*
X1070819Y538559D01*
X1077119Y544859D01*
X1077119Y551259D01*
G54D20*
X1077119Y525859D02*
X1077119Y532259D01*
X1070819Y538559D01*
X1058019Y538559D01*
X1051719Y532259D01*
X1051719Y519459D01*
X1058019Y513159D01*
X1070819Y513159D01*
X1077119Y519459D01*
X1077119Y525859D01*
G54D26*
X1066897Y505056D02*
X1066897Y496523D01*
G54D26*
X1055410Y497328D02*
X1041187Y497328D01*
X1041187Y504795D01*
G54D26*
X1048298Y497328D02*
X1048299Y504795D01*
G54D10*
X313322Y442913D02*
X309322Y438913D01*
X301322Y438913D01*
X299322Y440913D01*
X267322Y440913D01*
X265322Y438913D01*
X257322Y438913D01*
X253322Y442913D01*
X253322Y458913D01*
X257322Y462913D01*
X265322Y462913D01*
X267322Y460913D01*
X299322Y460913D01*
X301322Y462913D01*
X309322Y462913D01*
X313322Y458913D01*
X313322Y442913D01*
G54D10*
X299322Y440913D02*
X299322Y460913D01*
G54D10*
X267322Y440913D02*
X267322Y460913D01*
G54D10*
X369282Y418829D02*
X365282Y422829D01*
X365282Y430829D01*
X367282Y432829D01*
X367282Y464829D01*
X365282Y466829D01*
X365282Y474829D01*
X369282Y478829D01*
X385282Y478829D01*
X389282Y474829D01*
X389282Y466829D01*
X387282Y464829D01*
X387282Y432829D01*
X389282Y430829D01*
X389282Y422829D01*
X385282Y418829D01*
X369282Y418829D01*
G54D10*
X367282Y432829D02*
X387282Y432829D01*
G54D10*
X367282Y464829D02*
X387282Y464829D01*
G54D10*
X95873Y323346D02*
X91873Y327346D01*
X91873Y335346D01*
X93873Y337346D01*
X93873Y369346D01*
X91873Y371346D01*
X91873Y379346D01*
X95873Y383346D01*
X111873Y383346D01*
X115873Y379346D01*
X115873Y371346D01*
X113873Y369346D01*
X113873Y337346D01*
X115873Y335346D01*
X115873Y327346D01*
X111873Y323346D01*
X95873Y323346D01*
G54D10*
X93873Y337346D02*
X113873Y337346D01*
G54D10*
X93873Y369346D02*
X113873Y369346D01*
G54D10*
X453418Y201343D02*
X449418Y205343D01*
X449418Y213343D01*
X451418Y215343D01*
X451418Y247343D01*
X449418Y249343D01*
X449418Y257343D01*
X453418Y261343D01*
X469418Y261343D01*
X473418Y257343D01*
X473418Y249343D01*
X471418Y247343D01*
X471418Y215343D01*
X473418Y213343D01*
X473418Y205343D01*
X469419Y201343D01*
X453418Y201343D01*
G54D10*
X173228Y331085D02*
X169228Y335085D01*
X169228Y343085D01*
X171228Y345085D01*
X171228Y377085D01*
X169228Y379085D01*
X169228Y387085D01*
X173228Y391084D01*
X189228Y391084D01*
X193228Y387085D01*
X193228Y379085D01*
X191228Y377085D01*
X191228Y345085D01*
X193228Y343085D01*
X193228Y335085D01*
X189228Y331085D01*
X173228Y331085D01*
G54D10*
X171228Y345085D02*
X191228Y345085D01*
G54D10*
X171228Y377085D02*
X191228Y377085D01*
G54D10*
X207756Y331085D02*
X203756Y335085D01*
X203756Y343085D01*
X205756Y345085D01*
X205756Y377085D01*
X203756Y379085D01*
X203756Y387085D01*
X207756Y391084D01*
X223756Y391084D01*
X227756Y387085D01*
X227756Y379085D01*
X225756Y377085D01*
X225756Y345085D01*
X227756Y343085D01*
X227756Y335085D01*
X223756Y331085D01*
X207756Y331085D01*
G54D10*
X205756Y345085D02*
X225756Y345085D01*
G54D10*
X205756Y377085D02*
X225756Y377085D01*
G54D10*
X124579Y369083D02*
X151979Y369084D01*
X151979Y316983D01*
X124579Y316983D01*
X124579Y369083D01*
G54D10*
X151979Y323383D02*
X124579Y323383D01*
G54D13*
X182902Y373065D02*
X186902Y369065D01*
X176236Y369065D01*
G54D13*
X184902Y358932D02*
X178236Y358932D01*
X176902Y359732D01*
X176236Y361332D01*
X176236Y362932D01*
X176902Y364532D01*
X178236Y365332D01*
X184902Y365332D01*
X186236Y364532D01*
X186902Y362932D01*
X186902Y361332D01*
X186236Y359732D01*
X184902Y358932D01*
G54D13*
X184902Y348799D02*
X178236Y348799D01*
X176902Y349599D01*
X176236Y351199D01*
X176236Y352799D01*
X176902Y354399D01*
X178236Y355199D01*
X184902Y355199D01*
X186236Y354399D01*
X186902Y352799D01*
X186902Y351199D01*
X186236Y349599D01*
X184902Y348799D01*
G54D13*
X348593Y231278D02*
X352593Y227278D01*
X341926Y227278D01*
G54D13*
X350593Y217145D02*
X343926Y217145D01*
X342593Y217945D01*
X341926Y219545D01*
X341926Y221145D01*
X342593Y222745D01*
X343926Y223545D01*
X350593Y223545D01*
X351926Y222745D01*
X352593Y221145D01*
X352593Y219545D01*
X351926Y217945D01*
X350593Y217145D01*
G54D13*
X350593Y207012D02*
X343926Y207012D01*
X342593Y207812D01*
X341926Y209412D01*
X341926Y211012D01*
X342593Y212612D01*
X343926Y213412D01*
X350593Y213412D01*
X351926Y212612D01*
X352593Y211012D01*
X352593Y209412D01*
X351926Y207812D01*
X350593Y207012D01*
G54D13*
X341926Y203279D02*
X352593Y203279D01*
X341926Y196879D01*
X352593Y196879D01*
G54D13*
X252080Y470786D02*
X245680Y470786D01*
X245680Y471452D01*
X246480Y472786D01*
X251280Y476786D01*
X252080Y478119D01*
X252080Y479452D01*
X251280Y480786D01*
X249680Y481452D01*
X248080Y481452D01*
X246480Y480786D01*
X245680Y479452D01*
G54D13*
X262213Y470786D02*
X255813Y470786D01*
X255813Y471452D01*
X256613Y472786D01*
X261413Y476786D01*
X262213Y478119D01*
X262213Y479452D01*
X261413Y480786D01*
X259813Y481452D01*
X258213Y481452D01*
X256613Y480786D01*
X255813Y479452D01*
G54D13*
X265946Y470786D02*
X265946Y481452D01*
G54D13*
X265946Y474119D02*
X272346Y481452D01*
G54D13*
X268346Y476119D02*
X272346Y470786D01*
G54D13*
X427896Y470389D02*
X421496Y470389D01*
X421496Y471055D01*
X422296Y472389D01*
X427096Y476389D01*
X427896Y477722D01*
X427896Y479055D01*
X427096Y480389D01*
X425496Y481055D01*
X423896Y481055D01*
X422296Y480389D01*
X421496Y479055D01*
G54D13*
X438029Y470389D02*
X431629Y470389D01*
X431629Y471055D01*
X432429Y472389D01*
X437229Y476389D01*
X438029Y477722D01*
X438029Y479055D01*
X437229Y480389D01*
X435629Y481055D01*
X434029Y481055D01*
X432429Y480389D01*
X431629Y479055D01*
G54D13*
X441762Y470389D02*
X441762Y481055D01*
G54D13*
X441762Y473722D02*
X448162Y481055D01*
G54D13*
X444162Y475722D02*
X448162Y470389D01*
G54D13*
X282639Y445782D02*
X276239Y445782D01*
X276239Y446449D01*
X277039Y447782D01*
X281839Y451782D01*
X282639Y453116D01*
X282639Y454449D01*
X281839Y455782D01*
X280239Y456449D01*
X278639Y456449D01*
X277039Y455782D01*
X276239Y454449D01*
G54D13*
X292772Y445782D02*
X286372Y445782D01*
X286372Y446449D01*
X287172Y447782D01*
X291972Y451782D01*
X292772Y453116D01*
X292772Y454449D01*
X291972Y455782D01*
X290372Y456449D01*
X288772Y456449D01*
X287172Y455782D01*
X286372Y454449D01*
G54D13*
X371858Y451672D02*
X371858Y458072D01*
X372525Y458072D01*
X373858Y457272D01*
X377858Y452472D01*
X379192Y451672D01*
X380525Y451672D01*
X381858Y452472D01*
X382525Y454072D01*
X382525Y455672D01*
X381858Y457272D01*
X380525Y458072D01*
G54D13*
X371858Y441539D02*
X371858Y447939D01*
X372525Y447939D01*
X373858Y447139D01*
X377858Y442339D01*
X379192Y441539D01*
X380525Y441539D01*
X381858Y442339D01*
X382525Y443939D01*
X382525Y445539D01*
X381858Y447139D01*
X380525Y447939D01*
G54D13*
X332562Y467663D02*
X343229Y467663D01*
X336562Y472463D01*
X335229Y472463D01*
X335229Y466063D01*
G54D13*
X339229Y462330D02*
X343229Y458330D01*
X332562Y458330D01*
G54D13*
X332562Y449797D02*
X343229Y449797D01*
X336562Y454597D01*
X335229Y454597D01*
X335229Y448197D01*
G54D13*
X337895Y440464D02*
X337895Y442064D01*
X338562Y443664D01*
X339895Y444464D01*
X341229Y444464D01*
X342562Y443664D01*
X343229Y442064D01*
X343229Y440464D01*
X342562Y438864D01*
X341229Y438064D01*
X339895Y438064D01*
X338562Y438864D01*
X337895Y440464D01*
X337229Y438864D01*
X335895Y438064D01*
X334562Y438064D01*
X333229Y438864D01*
X332562Y440464D01*
X332562Y442064D01*
X333229Y443664D01*
X334562Y444464D01*
X335895Y444464D01*
X337229Y443664D01*
X337895Y442064D01*
G54D13*
X277705Y404596D02*
X277705Y415263D01*
X272905Y408596D01*
X272905Y407263D01*
X279305Y407263D01*
G54D13*
X283038Y411263D02*
X287038Y415263D01*
X287038Y404596D01*
G54D13*
X295571Y404596D02*
X295571Y415263D01*
X290771Y408596D01*
X290771Y407263D01*
X297171Y407263D01*
G54D13*
X304904Y409930D02*
X303304Y409930D01*
X301704Y410596D01*
X300904Y411930D01*
X300904Y413263D01*
X301704Y414596D01*
X303304Y415263D01*
X304904Y415263D01*
X306504Y414596D01*
X307304Y413263D01*
X307304Y411930D01*
X306504Y410596D01*
X304904Y409930D01*
X306504Y409263D01*
X307304Y407930D01*
X307304Y406596D01*
X306504Y405263D01*
X304904Y404596D01*
X303304Y404596D01*
X301704Y405263D01*
X300904Y406596D01*
X300904Y407930D01*
X301704Y409263D01*
X303304Y409930D01*
G54D13*
X314092Y408163D02*
X318092Y412163D01*
X318092Y401497D01*
G54D13*
X328225Y410163D02*
X328225Y403497D01*
X327425Y402163D01*
X325825Y401497D01*
X324225Y401497D01*
X322625Y402163D01*
X321825Y403497D01*
X321825Y410163D01*
X322625Y411497D01*
X324225Y412163D01*
X325825Y412163D01*
X327425Y411497D01*
X328225Y410163D01*
G54D13*
X336758Y407497D02*
X336758Y401497D01*
G54D13*
X336758Y402830D02*
X335958Y401763D01*
X334358Y401497D01*
X332758Y401763D01*
X331958Y402830D01*
X331958Y407497D01*
G54D13*
X379974Y380382D02*
X383974Y384382D01*
X383974Y373715D01*
G54D13*
X387706Y373715D02*
X387706Y379715D01*
G54D13*
X387706Y378382D02*
X388506Y379315D01*
X390106Y379715D01*
X391706Y379315D01*
X392506Y378382D01*
X392506Y373715D01*
G54D13*
X420272Y201756D02*
X430938Y201756D01*
X424272Y206556D01*
X422938Y206556D01*
X422938Y200156D01*
G54D13*
X426938Y196423D02*
X430938Y192423D01*
X420272Y192423D01*
G54D13*
X420272Y183890D02*
X430938Y183890D01*
X424272Y188690D01*
X422938Y188690D01*
X422938Y182290D01*
G54D13*
X425605Y174557D02*
X425605Y176157D01*
X426272Y177757D01*
X427605Y178557D01*
X428938Y178557D01*
X430272Y177757D01*
X430938Y176157D01*
X430938Y174557D01*
X430272Y172957D01*
X428938Y172157D01*
X427605Y172157D01*
X426272Y172957D01*
X425605Y174557D01*
X424938Y172957D01*
X423605Y172157D01*
X422272Y172157D01*
X420938Y172957D01*
X420272Y174557D01*
X420272Y176157D01*
X420938Y177757D01*
X422272Y178557D01*
X423605Y178557D01*
X424938Y177757D01*
X425605Y176157D01*
G54D13*
X115880Y192711D02*
X115880Y182044D01*
X121480Y182044D01*
G54D13*
X130814Y182044D02*
X125214Y182044D01*
X125214Y192711D01*
X130814Y192711D01*
G54D13*
X125214Y187378D02*
X130814Y187378D01*
G54D13*
X134546Y182044D02*
X134546Y192711D01*
X138546Y192711D01*
X140146Y192044D01*
X140946Y190711D01*
X140946Y184044D01*
X140146Y182711D01*
X138546Y182044D01*
X134546Y182044D01*
G54D13*
X148572Y190711D02*
X149372Y192044D01*
X150972Y192711D01*
X152572Y192711D01*
X154172Y192044D01*
X154972Y190711D01*
X154972Y189378D01*
X154172Y188044D01*
X152572Y187378D01*
X154172Y186711D01*
X154972Y185378D01*
X154972Y184044D01*
X154172Y182711D01*
X152572Y182044D01*
X150972Y182044D01*
X149372Y182711D01*
X148572Y184044D01*
G54D13*
X158706Y182044D02*
X158706Y192711D01*
X162706Y186044D01*
X166706Y192711D01*
X166706Y182044D01*
G54D13*
X170438Y182044D02*
X170438Y192711D01*
X174438Y186044D01*
X178438Y192711D01*
X178438Y182044D01*
G54D15*
X182033Y194261D02*
X182033Y200661D01*
G54D15*
X179367Y197461D02*
X184700Y197461D01*
G54D13*
X133770Y367112D02*
X144437Y367112D01*
G54D13*
X133770Y360712D02*
X144437Y360712D01*
G54D13*
X139103Y367112D02*
X139103Y360712D01*
G54D13*
X133770Y351379D02*
X133770Y356979D01*
X144437Y356979D01*
X144437Y351379D01*
G54D13*
X139103Y356979D02*
X139103Y351379D01*
G54D13*
X139103Y344446D02*
X137770Y342046D01*
X136437Y341246D01*
X133770Y341246D01*
G54D13*
X133770Y347646D02*
X144437Y347646D01*
X144437Y343646D01*
X143770Y342046D01*
X142437Y341246D01*
X141103Y341246D01*
X139770Y342046D01*
X139103Y343646D01*
X139103Y347646D01*
G54D13*
X140437Y337513D02*
X144437Y333513D01*
X133770Y333513D01*
G54D13*
X142437Y323380D02*
X135770Y323380D01*
X134437Y324180D01*
X133770Y325780D01*
X133770Y327380D01*
X134437Y328980D01*
X135770Y329780D01*
X142437Y329780D01*
X143770Y328980D01*
X144437Y327380D01*
X144437Y325780D01*
X143770Y324180D01*
X142437Y323380D01*
G54D13*
X144437Y319647D02*
X144437Y313247D01*
X143103Y314047D01*
X141103Y315647D01*
X138437Y317247D01*
X136437Y318047D01*
X133770Y318047D01*
G54D13*
X103642Y496167D02*
X107642Y500167D01*
X107642Y489500D01*
G54D13*
X117775Y498167D02*
X117775Y491500D01*
X116975Y490167D01*
X115375Y489500D01*
X113775Y489500D01*
X112175Y490167D01*
X111375Y491500D01*
X111375Y498167D01*
X112175Y499500D01*
X113775Y500167D01*
X115375Y500167D01*
X116975Y499500D01*
X117775Y498167D01*
G54D13*
X127908Y498167D02*
X127908Y491500D01*
X127108Y490167D01*
X125508Y489500D01*
X123908Y489500D01*
X122308Y490167D01*
X121508Y491500D01*
X121508Y498167D01*
X122308Y499500D01*
X123908Y500167D01*
X125508Y500167D01*
X127108Y499500D01*
X127908Y498167D01*
G54D13*
X131641Y489500D02*
X131641Y500167D01*
G54D13*
X131641Y492834D02*
X138041Y500167D01*
G54D13*
X134041Y494834D02*
X138041Y489500D01*
G54D13*
X152067Y489500D02*
X145667Y489500D01*
X145667Y490167D01*
X146467Y491500D01*
X151267Y495500D01*
X152067Y496834D01*
X152067Y498167D01*
X151267Y499500D01*
X149667Y500167D01*
X148067Y500167D01*
X146467Y499500D01*
X145667Y498167D01*
G54D13*
X155800Y500167D02*
X155800Y489500D01*
X159800Y496167D01*
X163800Y489500D01*
X163800Y500167D01*
G54D13*
X268928Y312334D02*
X262528Y312334D01*
X262528Y313001D01*
X263328Y314334D01*
X268128Y318334D01*
X268928Y319668D01*
X268928Y321001D01*
X268128Y322334D01*
X266528Y323001D01*
X264928Y323001D01*
X263328Y322334D01*
X262528Y321001D01*
G54D13*
X272662Y312334D02*
X272662Y312334D01*
G54D13*
X282794Y312334D02*
X276394Y312334D01*
X276394Y313001D01*
X277194Y314334D01*
X281994Y318334D01*
X282794Y319668D01*
X282794Y321001D01*
X281994Y322334D01*
X280394Y323001D01*
X278794Y323001D01*
X277194Y322334D01*
X276394Y321001D01*
G54D13*
X286528Y323001D02*
X286528Y314334D01*
X287328Y313001D01*
X288928Y312334D01*
X290528Y312334D01*
X292128Y313001D01*
X292928Y314334D01*
X292928Y323001D01*
G54D13*
X652694Y198038D02*
X653494Y196705D01*
X655094Y196038D01*
X656694Y196038D01*
X658294Y196705D01*
X659094Y198038D01*
X659094Y199372D01*
X658294Y200705D01*
X656694Y201372D01*
X655094Y201372D01*
X653494Y202038D01*
X652694Y203372D01*
X652694Y204705D01*
X653494Y206038D01*
X655094Y206705D01*
X656694Y206705D01*
X658294Y206038D01*
X659094Y204705D01*
G54D13*
X666026Y201372D02*
X668426Y200038D01*
X669226Y198705D01*
X669226Y196038D01*
G54D13*
X662826Y196038D02*
X662826Y206705D01*
X666826Y206705D01*
X668426Y206038D01*
X669226Y204705D01*
X669226Y203372D01*
X668426Y202038D01*
X666826Y201372D01*
X662826Y201372D01*
G54D13*
X679360Y206705D02*
X672960Y206705D01*
X672960Y202038D01*
X673760Y202038D01*
X675360Y202705D01*
X676960Y202705D01*
X678560Y202038D01*
X679360Y200705D01*
X679360Y198038D01*
X678560Y196705D01*
X676960Y196038D01*
X675360Y196038D01*
X673760Y196705D01*
X672960Y198038D01*
G54D13*
X683092Y202705D02*
X687092Y206705D01*
X687092Y196038D01*
G54D13*
X697226Y204705D02*
X697226Y198038D01*
X696426Y196705D01*
X694826Y196038D01*
X693226Y196038D01*
X691626Y196705D01*
X690826Y198038D01*
X690826Y204705D01*
X691626Y206038D01*
X693226Y206705D01*
X694826Y206705D01*
X696426Y206038D01*
X697226Y204705D01*
G54D13*
X707358Y204705D02*
X707358Y198038D01*
X706558Y196705D01*
X704958Y196038D01*
X703358Y196038D01*
X701758Y196705D01*
X700958Y198038D01*
X700958Y204705D01*
X701758Y206038D01*
X703358Y206705D01*
X704958Y206705D01*
X706558Y206038D01*
X707358Y204705D01*
G54D13*
X655868Y122632D02*
X656668Y121299D01*
X658268Y120632D01*
X659868Y120632D01*
X661468Y121299D01*
X662268Y122632D01*
X662268Y123966D01*
X661468Y125299D01*
X659868Y125966D01*
X658268Y125966D01*
X656668Y126632D01*
X655868Y127966D01*
X655868Y129299D01*
X656668Y130632D01*
X658268Y131299D01*
X659868Y131299D01*
X661468Y130632D01*
X662268Y129299D01*
G54D13*
X669202Y125966D02*
X671602Y124632D01*
X672402Y123299D01*
X672402Y120632D01*
G54D13*
X666002Y120632D02*
X666002Y131299D01*
X670002Y131299D01*
X671602Y130632D01*
X672402Y129299D01*
X672402Y127966D01*
X671602Y126632D01*
X670002Y125966D01*
X666002Y125966D01*
G54D13*
X682534Y131299D02*
X676134Y131299D01*
X676134Y126632D01*
X676934Y126632D01*
X678534Y127299D01*
X680134Y127299D01*
X681734Y126632D01*
X682534Y125299D01*
X682534Y122632D01*
X681734Y121299D01*
X680134Y120632D01*
X678534Y120632D01*
X676934Y121299D01*
X676134Y122632D01*
G54D13*
X686268Y127299D02*
X690268Y131299D01*
X690268Y120632D01*
G54D13*
X700400Y129299D02*
X700400Y122632D01*
X699600Y121299D01*
X698000Y120632D01*
X696400Y120632D01*
X694800Y121299D01*
X694000Y122632D01*
X694000Y129299D01*
X694800Y130632D01*
X696400Y131299D01*
X698000Y131299D01*
X699600Y130632D01*
X700400Y129299D01*
G54D13*
X710534Y129299D02*
X710534Y122632D01*
X709734Y121299D01*
X708134Y120632D01*
X706534Y120632D01*
X704934Y121299D01*
X704134Y122632D01*
X704134Y129299D01*
X704934Y130632D01*
X706534Y131299D01*
X708134Y131299D01*
X709734Y130632D01*
X710534Y129299D01*
G54D13*
X513653Y89821D02*
X517653Y93821D01*
X517653Y83154D01*
G54D13*
X521386Y83154D02*
X521386Y93821D01*
X527786Y83154D01*
X527786Y93821D01*
G54D13*
X531519Y83154D02*
X531519Y93821D01*
X537119Y93821D01*
G54D13*
X531519Y88488D02*
X537119Y88488D01*
G54D13*
X518465Y66486D02*
X512065Y66486D01*
X512065Y67152D01*
X512865Y68486D01*
X517665Y72486D01*
X518465Y73819D01*
X518465Y75152D01*
X517665Y76486D01*
X516065Y77152D01*
X514465Y77152D01*
X512865Y76486D01*
X512065Y75152D01*
G54D13*
X522198Y66486D02*
X522198Y77152D01*
G54D13*
X522198Y69819D02*
X528598Y77152D01*
G54D13*
X524598Y71819D02*
X528598Y66486D01*
G54D13*
X532331Y77152D02*
X536331Y66486D01*
X540331Y77152D01*
G54D13*
X1023375Y343215D02*
X1024175Y344548D01*
X1025775Y345215D01*
X1027375Y345215D01*
X1028975Y344548D01*
X1029775Y343215D01*
X1029775Y341881D01*
X1028975Y340548D01*
X1027375Y339881D01*
X1028975Y339215D01*
X1029775Y337881D01*
X1029775Y336548D01*
X1028975Y335215D01*
X1027375Y334548D01*
X1025775Y334548D01*
X1024175Y335215D01*
X1023375Y336548D01*
G54D13*
X1033508Y343215D02*
X1034308Y344548D01*
X1035908Y345215D01*
X1037508Y345215D01*
X1039108Y344548D01*
X1039908Y343215D01*
X1039908Y341881D01*
X1039108Y340548D01*
X1037508Y339881D01*
X1039108Y339215D01*
X1039908Y337881D01*
X1039908Y336548D01*
X1039108Y335215D01*
X1037508Y334548D01*
X1035908Y334548D01*
X1034308Y335215D01*
X1033508Y336548D01*
G54D13*
X1050041Y343215D02*
X1050041Y336548D01*
X1049241Y335215D01*
X1047641Y334548D01*
X1046041Y334548D01*
X1044441Y335215D01*
X1043641Y336548D01*
X1043641Y343215D01*
X1044441Y344548D01*
X1046041Y345215D01*
X1047641Y345215D01*
X1049241Y344548D01*
X1050041Y343215D01*
G54D13*
X1053774Y345215D02*
X1053774Y336548D01*
X1054574Y335215D01*
X1056174Y334548D01*
X1057774Y334548D01*
X1059374Y335215D01*
X1060174Y336548D01*
X1060174Y345215D01*
G54D13*
X1063907Y334548D02*
X1063907Y345215D01*
X1069507Y345215D01*
G54D13*
X1063907Y339881D02*
X1069507Y339881D01*
G54D13*
X999413Y429817D02*
X1010080Y429817D01*
X1003413Y434617D01*
X1002080Y434617D01*
X1002080Y428217D01*
G54D13*
X999413Y424484D02*
X1010080Y424484D01*
G54D13*
X1002746Y424484D02*
X1010080Y418084D01*
G54D13*
X1004746Y422084D02*
X999413Y418084D01*
G54D13*
X1010080Y414351D02*
X1010080Y407951D01*
X1008746Y408751D01*
X1006746Y410351D01*
X1004080Y411951D01*
X1002080Y412751D01*
X999413Y412751D01*
G54D13*
X984267Y435411D02*
X985600Y434611D01*
X986267Y433011D01*
X986267Y431411D01*
X985600Y429811D01*
X984267Y429011D01*
X982934Y429011D01*
X981600Y429811D01*
X980934Y431411D01*
X980267Y429811D01*
X978934Y429011D01*
X977600Y429011D01*
X976267Y429811D01*
X975600Y431411D01*
X975600Y433011D01*
X976267Y434611D01*
X977600Y435411D01*
G54D13*
X975600Y425278D02*
X986267Y425278D01*
G54D13*
X978934Y425278D02*
X986267Y418878D01*
G54D13*
X980934Y422878D02*
X975600Y418878D01*
G54D13*
X984267Y415145D02*
X985600Y414345D01*
X986267Y412745D01*
X986267Y411145D01*
X985600Y409545D01*
X984267Y408745D01*
X982934Y408745D01*
X981600Y409545D01*
X980934Y411145D01*
X980267Y409545D01*
X978934Y408745D01*
X977600Y408745D01*
X976267Y409545D01*
X975600Y411145D01*
X975600Y412745D01*
X976267Y414345D01*
X977600Y415145D01*
G54D13*
X958470Y435014D02*
X959804Y434214D01*
X960470Y432614D01*
X960470Y431014D01*
X959804Y429414D01*
X958470Y428614D01*
X957137Y428614D01*
X955804Y429414D01*
X955137Y431014D01*
X954470Y429414D01*
X953137Y428614D01*
X951804Y428614D01*
X950470Y429414D01*
X949804Y431014D01*
X949804Y432614D01*
X950470Y434214D01*
X951804Y435014D01*
G54D13*
X958470Y424881D02*
X959804Y424081D01*
X960470Y422481D01*
X960470Y420881D01*
X959804Y419281D01*
X958470Y418481D01*
X957137Y418481D01*
X955804Y419281D01*
X955137Y420881D01*
X954470Y419281D01*
X953137Y418481D01*
X951804Y418481D01*
X950470Y419281D01*
X949804Y420881D01*
X949804Y422481D01*
X950470Y424081D01*
X951804Y424881D01*
G54D13*
X958470Y408348D02*
X951804Y408348D01*
X950470Y409148D01*
X949804Y410748D01*
X949804Y412348D01*
X950470Y413948D01*
X951804Y414748D01*
X958470Y414748D01*
X959804Y413948D01*
X960470Y412348D01*
X960470Y410748D01*
X959804Y409148D01*
X958470Y408348D01*
G54D13*
X951315Y529663D02*
X944915Y529663D01*
X944915Y530330D01*
X945715Y531663D01*
X950515Y535663D01*
X951315Y536997D01*
X951315Y538330D01*
X950515Y539663D01*
X948915Y540330D01*
X947315Y540330D01*
X945715Y539663D01*
X944915Y538330D01*
G54D13*
X961448Y529663D02*
X955048Y529663D01*
X955048Y530330D01*
X955848Y531663D01*
X960648Y535663D01*
X961448Y536997D01*
X961448Y538330D01*
X960648Y539663D01*
X959048Y540330D01*
X957448Y540330D01*
X955848Y539663D01*
X955048Y538330D01*
G54D13*
X965181Y529663D02*
X965181Y540330D01*
G54D13*
X965181Y532997D02*
X971581Y540330D01*
G54D13*
X967581Y534997D02*
X971581Y529663D01*
G54D13*
X940946Y510930D02*
X944946Y514930D01*
X944946Y504263D01*
G54D13*
X955079Y512930D02*
X955079Y506263D01*
X954279Y504930D01*
X952679Y504263D01*
X951079Y504263D01*
X949479Y504930D01*
X948679Y506263D01*
X948679Y512930D01*
X949479Y514263D01*
X951079Y514930D01*
X952679Y514930D01*
X954279Y514263D01*
X955079Y512930D01*
G54D13*
X965212Y512930D02*
X965212Y506263D01*
X964412Y504930D01*
X962812Y504263D01*
X961212Y504263D01*
X959612Y504930D01*
X958812Y506263D01*
X958812Y512930D01*
X959612Y514263D01*
X961212Y514930D01*
X962812Y514930D01*
X964412Y514263D01*
X965212Y512930D01*
G54D13*
X968945Y504263D02*
X968945Y514930D01*
G54D13*
X968945Y507597D02*
X975345Y514930D01*
G54D13*
X971345Y509597D02*
X975345Y504263D01*
G54D13*
X900068Y491880D02*
X904068Y495880D01*
X904068Y485213D01*
G54D13*
X914201Y493880D02*
X914201Y487213D01*
X913401Y485880D01*
X911801Y485213D01*
X910201Y485213D01*
X908601Y485880D01*
X907801Y487213D01*
X907801Y493880D01*
X908601Y495213D01*
X910201Y495880D01*
X911801Y495880D01*
X913401Y495213D01*
X914201Y493880D01*
G54D13*
X917934Y485213D02*
X917934Y495880D01*
G54D13*
X917934Y488547D02*
X924334Y495880D01*
G54D13*
X920334Y490547D02*
X924334Y485213D01*
G54D13*
X912421Y394329D02*
X906021Y394329D01*
X906021Y394996D01*
X906821Y396329D01*
X911621Y400329D01*
X912421Y401662D01*
X912421Y402996D01*
X911621Y404329D01*
X910021Y404996D01*
X908421Y404996D01*
X906821Y404329D01*
X906021Y402996D01*
G54D13*
X922554Y394329D02*
X916154Y394329D01*
X916154Y394996D01*
X916954Y396329D01*
X921754Y400329D01*
X922554Y401662D01*
X922554Y402996D01*
X921754Y404329D01*
X920154Y404996D01*
X918554Y404996D01*
X916954Y404329D01*
X916154Y402996D01*
G54D13*
X926287Y404996D02*
X926287Y396329D01*
X927087Y394996D01*
X928687Y394329D01*
X930287Y394329D01*
X931887Y394996D01*
X932687Y396329D01*
X932687Y404996D01*
G54D13*
X921611Y351302D02*
X921611Y361968D01*
G54D13*
X928011Y351302D02*
X928011Y361968D01*
G54D13*
X921611Y356635D02*
X928011Y356635D01*
G54D13*
X937344Y351302D02*
X931744Y351302D01*
X931744Y361968D01*
X937344Y361968D01*
G54D13*
X931744Y356635D02*
X937344Y356635D01*
G54D13*
X944277Y356635D02*
X946677Y355302D01*
X947477Y353968D01*
X947477Y351302D01*
G54D13*
X941077Y351302D02*
X941077Y361968D01*
X945077Y361968D01*
X946677Y361302D01*
X947477Y359968D01*
X947477Y358635D01*
X946677Y357302D01*
X945077Y356635D01*
X941077Y356635D01*
G54D13*
X951210Y357968D02*
X955210Y361968D01*
X955210Y351302D01*
G54D13*
X965343Y359968D02*
X965343Y353302D01*
X964543Y351968D01*
X962943Y351302D01*
X961343Y351302D01*
X959743Y351968D01*
X958943Y353302D01*
X958943Y359968D01*
X959743Y361302D01*
X961343Y361968D01*
X962943Y361968D01*
X964543Y361302D01*
X965343Y359968D01*
G54D13*
X969076Y361968D02*
X975476Y361968D01*
X974676Y360635D01*
X973076Y358635D01*
X971476Y355968D01*
X970676Y353968D01*
X970676Y351302D01*
G54D13*
X922801Y317964D02*
X922801Y328631D01*
G54D13*
X929201Y317964D02*
X929201Y328631D01*
G54D13*
X922801Y323298D02*
X929201Y323298D01*
G54D13*
X938534Y317964D02*
X932934Y317964D01*
X932934Y328631D01*
X938534Y328631D01*
G54D13*
X932934Y323298D02*
X938534Y323298D01*
G54D13*
X945467Y323298D02*
X947867Y321964D01*
X948667Y320631D01*
X948667Y317964D01*
G54D13*
X942267Y317964D02*
X942267Y328631D01*
X946267Y328631D01*
X947867Y327964D01*
X948667Y326631D01*
X948667Y325298D01*
X947867Y323964D01*
X946267Y323298D01*
X942267Y323298D01*
G54D13*
X952400Y324631D02*
X956400Y328631D01*
X956400Y317964D01*
G54D13*
X966533Y326631D02*
X966533Y319964D01*
X965733Y318631D01*
X964133Y317964D01*
X962533Y317964D01*
X960933Y318631D01*
X960133Y319964D01*
X960133Y326631D01*
X960933Y327964D01*
X962533Y328631D01*
X964133Y328631D01*
X965733Y327964D01*
X966533Y326631D01*
G54D13*
X970266Y328631D02*
X976666Y328631D01*
X975866Y327298D01*
X974266Y325298D01*
X972666Y322631D01*
X971866Y320631D01*
X971866Y317964D01*
G54D13*
X915288Y786126D02*
X919288Y782126D01*
X908621Y782126D01*
G54D13*
X917288Y771993D02*
X910621Y771993D01*
X909288Y772793D01*
X908621Y774393D01*
X908621Y775993D01*
X909288Y777593D01*
X910621Y778393D01*
X917288Y778393D01*
X918621Y777593D01*
X919288Y775993D01*
X919288Y774393D01*
X918621Y772793D01*
X917288Y771993D01*
G54D13*
X917288Y761860D02*
X910621Y761860D01*
X909288Y762660D01*
X908621Y764260D01*
X908621Y765860D01*
X909288Y767460D01*
X910621Y768260D01*
X917288Y768260D01*
X918621Y767460D01*
X919288Y765860D01*
X919288Y764260D01*
X918621Y762660D01*
X917288Y761860D01*
G54D13*
X908621Y758127D02*
X919288Y758127D01*
X908621Y751727D01*
X919288Y751727D01*
G54D13*
X908621Y747994D02*
X919288Y747994D01*
X919288Y742394D01*
G54D13*
X913954Y747994D02*
X913954Y742394D01*
G54D13*
X894730Y787663D02*
X894730Y794063D01*
X895397Y794063D01*
X896730Y793263D01*
X900730Y788463D01*
X902064Y787663D01*
X903397Y787663D01*
X904730Y788463D01*
X905397Y790063D01*
X905397Y791663D01*
X904730Y793263D01*
X903397Y794063D01*
G54D13*
X905397Y783930D02*
X905397Y777530D01*
X904064Y778330D01*
X902064Y779930D01*
X899397Y781530D01*
X897397Y782330D01*
X894730Y782330D01*
G54D13*
X905397Y767397D02*
X905397Y773797D01*
X900730Y773797D01*
X900730Y772997D01*
X901397Y771397D01*
X901397Y769797D01*
X900730Y768197D01*
X899397Y767397D01*
X896730Y767397D01*
X895397Y768197D01*
X894730Y769797D01*
X894730Y771397D01*
X895397Y772997D01*
X896730Y773797D01*
G54D13*
X905397Y763664D02*
X894730Y759664D01*
X905397Y755664D01*
G54D13*
X894730Y751931D02*
X905397Y747931D01*
X894730Y743931D01*
G54D13*
X898730Y750331D02*
X898730Y745531D01*
G54D13*
X896730Y733798D02*
X895397Y734598D01*
X894730Y736198D01*
X894730Y737798D01*
X895397Y739398D01*
X896730Y740198D01*
X903397Y740198D01*
X904730Y739398D01*
X905397Y737798D01*
X905397Y736198D01*
X904730Y734598D01*
X903397Y733798D01*
G54D13*
X755717Y773894D02*
X759717Y777894D01*
X759717Y767227D01*
G54D13*
X763450Y767227D02*
X763450Y777894D01*
X767450Y771227D01*
X771450Y777894D01*
X771450Y767227D01*
G54D13*
X808104Y774290D02*
X812104Y778290D01*
X812104Y767624D01*
G54D13*
X815837Y767624D02*
X815837Y778290D01*
X819837Y771624D01*
X823837Y778290D01*
X823837Y767624D01*
G54D13*
X312445Y598555D02*
X312445Y609222D01*
X307645Y602555D01*
X307645Y601222D01*
X314045Y601222D01*
G54D13*
X317778Y609222D02*
X324178Y609222D01*
X323378Y607888D01*
X321778Y605888D01*
X320178Y603222D01*
X319378Y601222D01*
X319378Y598555D01*
G54D13*
X327911Y598555D02*
X327911Y609222D01*
G54D13*
X327911Y601888D02*
X334311Y609222D01*
G54D13*
X330311Y603888D02*
X334311Y598555D01*
G54D13*
X348337Y598555D02*
X341937Y598555D01*
X341937Y599222D01*
X342737Y600555D01*
X347537Y604555D01*
X348337Y605888D01*
X348337Y607222D01*
X347537Y608555D01*
X345937Y609222D01*
X344337Y609222D01*
X342737Y608555D01*
X341937Y607222D01*
G54D13*
X352070Y609222D02*
X352070Y598555D01*
X356070Y605222D01*
X360070Y598555D01*
X360070Y609222D01*
G54D13*
X315223Y772386D02*
X315223Y783053D01*
X310423Y776386D01*
X310423Y775053D01*
X316823Y775053D01*
G54D13*
X320556Y783053D02*
X326956Y783053D01*
X326156Y781720D01*
X324556Y779720D01*
X322956Y777053D01*
X322156Y775053D01*
X322156Y772386D01*
G54D13*
X330689Y772386D02*
X330689Y783053D01*
G54D13*
X330689Y775720D02*
X337089Y783053D01*
G54D13*
X333089Y777720D02*
X337089Y772386D01*
G54D13*
X351115Y772386D02*
X344715Y772386D01*
X344715Y773053D01*
X345515Y774386D01*
X350315Y778386D01*
X351115Y779720D01*
X351115Y781053D01*
X350315Y782386D01*
X348715Y783053D01*
X347115Y783053D01*
X345515Y782386D01*
X344715Y781053D01*
G54D13*
X354848Y783053D02*
X354848Y772386D01*
X358848Y779053D01*
X362848Y772386D01*
X362848Y783053D01*
G54D13*
X428482Y744459D02*
X422082Y744459D01*
X422082Y745125D01*
X422882Y746459D01*
X427682Y750459D01*
X428482Y751792D01*
X428482Y753125D01*
X427682Y754459D01*
X426082Y755125D01*
X424482Y755125D01*
X422882Y754459D01*
X422082Y753125D01*
G54D13*
X438615Y744459D02*
X432215Y744459D01*
X432215Y745125D01*
X433015Y746459D01*
X437815Y750459D01*
X438615Y751792D01*
X438615Y753125D01*
X437815Y754459D01*
X436215Y755125D01*
X434615Y755125D01*
X433015Y754459D01*
X432215Y753125D01*
G54D13*
X448748Y753125D02*
X448748Y746459D01*
X447948Y745125D01*
X446348Y744459D01*
X444748Y744459D01*
X443148Y745125D01*
X442348Y746459D01*
X442348Y753125D01*
X443148Y754459D01*
X444748Y755125D01*
X446348Y755125D01*
X447948Y754459D01*
X448748Y753125D01*
G54D13*
X452481Y755125D02*
X452481Y746459D01*
X453281Y745125D01*
X454881Y744459D01*
X456481Y744459D01*
X458081Y745125D01*
X458881Y746459D01*
X458881Y755125D01*
G54D13*
X462614Y744459D02*
X462614Y755125D01*
X468214Y755125D01*
G54D13*
X462614Y749792D02*
X468214Y749792D01*
G54D13*
X482240Y744459D02*
X475840Y744459D01*
X475840Y745125D01*
X476640Y746459D01*
X481440Y750459D01*
X482240Y751792D01*
X482240Y753125D01*
X481440Y754459D01*
X479840Y755125D01*
X478240Y755125D01*
X476640Y754459D01*
X475840Y753125D01*
G54D13*
X492373Y753125D02*
X492373Y746459D01*
X491573Y745125D01*
X489973Y744459D01*
X488373Y744459D01*
X486773Y745125D01*
X485973Y746459D01*
X485973Y753125D01*
X486773Y754459D01*
X488373Y755125D01*
X489973Y755125D01*
X491573Y754459D01*
X492373Y753125D01*
G54D13*
X502506Y753125D02*
X502506Y746459D01*
X501706Y745125D01*
X500106Y744459D01*
X498506Y744459D01*
X496906Y745125D01*
X496106Y746459D01*
X496106Y753125D01*
X496906Y754459D01*
X498506Y755125D01*
X500106Y755125D01*
X501706Y754459D01*
X502506Y753125D01*
G54D13*
X506239Y755125D02*
X510239Y744459D01*
X514239Y755125D01*
G54D13*
X181625Y746046D02*
X175225Y746046D01*
X175225Y746713D01*
X176025Y748046D01*
X180825Y752046D01*
X181625Y753380D01*
X181625Y754713D01*
X180825Y756046D01*
X179225Y756713D01*
X177625Y756713D01*
X176025Y756046D01*
X175225Y754713D01*
G54D13*
X191758Y746046D02*
X185358Y746046D01*
X185358Y746713D01*
X186158Y748046D01*
X190958Y752046D01*
X191758Y753380D01*
X191758Y754713D01*
X190958Y756046D01*
X189358Y756713D01*
X187758Y756713D01*
X186158Y756046D01*
X185358Y754713D01*
G54D13*
X201891Y754713D02*
X201891Y748046D01*
X201091Y746713D01*
X199491Y746046D01*
X197891Y746046D01*
X196291Y746713D01*
X195491Y748046D01*
X195491Y754713D01*
X196291Y756046D01*
X197891Y756713D01*
X199491Y756713D01*
X201091Y756046D01*
X201891Y754713D01*
G54D13*
X205624Y756713D02*
X205624Y748046D01*
X206424Y746713D01*
X208024Y746046D01*
X209624Y746046D01*
X211224Y746713D01*
X212024Y748046D01*
X212024Y756713D01*
G54D13*
X215757Y746046D02*
X215757Y756713D01*
X221357Y756713D01*
G54D13*
X215757Y751380D02*
X221357Y751380D01*
G54D13*
X235383Y746046D02*
X228983Y746046D01*
X228983Y746713D01*
X229783Y748046D01*
X234583Y752046D01*
X235383Y753380D01*
X235383Y754713D01*
X234583Y756046D01*
X232983Y756713D01*
X231383Y756713D01*
X229783Y756046D01*
X228983Y754713D01*
G54D13*
X245516Y754713D02*
X245516Y748046D01*
X244716Y746713D01*
X243116Y746046D01*
X241516Y746046D01*
X239916Y746713D01*
X239116Y748046D01*
X239116Y754713D01*
X239916Y756046D01*
X241516Y756713D01*
X243116Y756713D01*
X244716Y756046D01*
X245516Y754713D01*
G54D13*
X255649Y754713D02*
X255649Y748046D01*
X254849Y746713D01*
X253249Y746046D01*
X251649Y746046D01*
X250049Y746713D01*
X249249Y748046D01*
X249249Y754713D01*
X250049Y756046D01*
X251649Y756713D01*
X253249Y756713D01*
X254849Y756046D01*
X255649Y754713D01*
G54D13*
X259382Y756713D02*
X263382Y746046D01*
X267382Y756713D01*
G54D13*
X581228Y805974D02*
X581228Y816641D01*
G54D13*
X581228Y809308D02*
X587628Y816641D01*
G54D13*
X583628Y811308D02*
X587628Y805974D01*
G54D13*
X591362Y805974D02*
X591362Y816641D01*
X595362Y816641D01*
X596962Y815974D01*
X597762Y814641D01*
X597762Y813308D01*
X596962Y811974D01*
X595362Y811308D01*
X596962Y810641D01*
X597762Y809308D01*
X597762Y807974D01*
X596962Y806641D01*
X595362Y805974D01*
X591362Y805974D01*
G54D13*
X591362Y811308D02*
X595362Y811308D01*
G54D13*
X601494Y816641D02*
X601494Y805974D01*
X607094Y805974D01*
G54D13*
X615628Y805974D02*
X615628Y816641D01*
X610828Y809974D01*
X610828Y808641D01*
X617228Y808641D01*
G54D13*
X620960Y812641D02*
X624960Y816641D01*
X624960Y805974D01*
G54D13*
X635094Y814641D02*
X635094Y807974D01*
X634294Y806641D01*
X632694Y805974D01*
X631094Y805974D01*
X629494Y806641D01*
X628694Y807974D01*
X628694Y814641D01*
X629494Y815974D01*
X631094Y816641D01*
X632694Y816641D01*
X634294Y815974D01*
X635094Y814641D01*
G54D25*
X279285Y616953D02*
X266048Y603716D01*
G54D25*
X279016Y617007D02*
X266641Y604632D01*
G54D25*
X278728Y617043D02*
X267234Y605548D01*
G54D25*
X278441Y617078D02*
X267809Y606446D01*
G54D25*
X278154Y617114D02*
X268401Y607362D01*
G54D25*
X279160Y615858D02*
X277866Y617150D01*
X268994Y608278D01*
G54D25*
X277579Y617187D02*
X269569Y609176D01*
G54D25*
X277292Y617223D02*
X270161Y610092D01*
G54D25*
X277004Y617259D02*
X270754Y611008D01*
X273502Y608260D01*
G54D25*
X276717Y617294D02*
X271329Y611906D01*
G54D25*
X276430Y617330D02*
X271921Y612822D01*
G54D25*
X276142Y617366D02*
X272514Y613738D01*
G54D25*
X275855Y617402D02*
X273089Y614636D01*
G54D25*
X275586Y617456D02*
X273125Y614996D01*
G54D25*
X275298Y617492D02*
X272838Y615031D01*
G54D25*
X275011Y617528D02*
X272550Y615067D01*
G54D25*
X274723Y617564D02*
X272263Y615103D01*
G54D25*
X274436Y617600D02*
X271975Y615139D01*
G54D25*
X277777Y614008D02*
X274149Y617636D01*
X271688Y615175D01*
G54D25*
X273861Y617672D02*
X271419Y615228D01*
G54D25*
X273574Y617708D02*
X271131Y615264D01*
G54D25*
X273286Y617743D02*
X270844Y615300D01*
G54D25*
X279698Y616612D02*
X279357Y616953D01*
G54D25*
X279573Y616414D02*
X278980Y617007D01*
G54D25*
X279429Y616235D02*
X278621Y617043D01*
G54D25*
X279285Y616055D02*
X278244Y617096D01*
G54D25*
X279016Y615678D02*
X277490Y617205D01*
G54D25*
X278872Y615498D02*
X277130Y617240D01*
G54D25*
X278747Y615300D02*
X276753Y617294D01*
G54D25*
X278603Y615121D02*
X276376Y617348D01*
G54D25*
X278459Y614942D02*
X276017Y617384D01*
G54D25*
X278333Y614744D02*
X275639Y617438D01*
G54D25*
X261505Y597879D02*
X278190Y614564D01*
X275262Y617492D01*
G54D25*
X278046Y614384D02*
X274885Y617546D01*
G54D25*
X277920Y614188D02*
X274526Y617582D01*
G54D25*
X277633Y613828D02*
X273772Y617690D01*
G54D25*
X277507Y613631D02*
X273412Y617726D01*
G54D25*
X277363Y613450D02*
X273035Y617779D01*
G54D25*
X277220Y613271D02*
X272658Y617833D01*
G54D25*
X277094Y613074D02*
X272281Y617887D01*
G54D25*
X276951Y612894D02*
X271922Y617923D01*
G54D25*
X276807Y612715D02*
X271544Y617977D01*
G54D25*
X276681Y612517D02*
X271167Y618031D01*
G54D25*
X276537Y612337D02*
X270808Y618066D01*
G54D25*
X276394Y612158D02*
X270431Y618121D01*
X267970Y615660D01*
G54D25*
X276268Y611960D02*
X270054Y618174D01*
G54D25*
X276124Y611781D02*
X273161Y614744D01*
G54D25*
X272873Y615032D02*
X269676Y618228D01*
G54D25*
X275981Y611601D02*
X273035Y614546D01*
G54D25*
X272496Y615085D02*
X269317Y618264D01*
G54D25*
X275855Y611403D02*
X272910Y614348D01*
G54D25*
X272137Y615121D02*
X268940Y618318D01*
G54D25*
X275711Y611224D02*
X272784Y614151D01*
G54D25*
X271760Y615175D02*
X268563Y618372D01*
G54D25*
X275568Y611044D02*
X272658Y613954D01*
G54D25*
X271383Y615228D02*
X268186Y618426D01*
G54D25*
X275442Y610847D02*
X272532Y613756D01*
G54D25*
X275298Y610668D02*
X272406Y613558D01*
G54D25*
X275154Y610487D02*
X272281Y613362D01*
G54D25*
X275029Y610290D02*
X272155Y613164D01*
G54D25*
X274885Y610110D02*
X272012Y612984D01*
G54D25*
X274741Y609931D02*
X271886Y612786D01*
G54D25*
X274616Y609733D02*
X271760Y612589D01*
G54D25*
X261361Y596442D02*
X274472Y609554D01*
X271634Y612391D01*
G54D25*
X274328Y609374D02*
X271508Y612194D01*
G54D25*
X274203Y609176D02*
X271383Y611996D01*
G54D25*
X274059Y608997D02*
X271257Y611799D01*
G54D25*
X273915Y608817D02*
X271131Y611601D01*
G54D25*
X273790Y608620D02*
X271006Y611403D01*
G54D25*
X273646Y608440D02*
X270880Y611206D01*
G54D25*
X273376Y608062D02*
X270628Y610810D01*
G54D25*
X273233Y607883D02*
X270503Y610614D01*
G54D25*
X273089Y607704D02*
X270377Y610416D01*
G54D25*
X272963Y607506D02*
X270251Y610218D01*
G54D25*
X272820Y607326D02*
X270125Y610020D01*
G54D25*
X272676Y607147D02*
X270000Y609822D01*
G54D25*
X272550Y606949D02*
X269856Y609643D01*
G54D25*
X272407Y606770D02*
X269730Y609446D01*
G54D25*
X274849Y599801D02*
X274580Y600070D01*
G54D25*
X274598Y599729D02*
X274203Y600124D01*
G54D25*
X274364Y599639D02*
X273825Y600178D01*
X272658Y599010D01*
G54D25*
X274130Y599549D02*
X273448Y600232D01*
G54D25*
X273897Y599460D02*
X273071Y600286D01*
G54D25*
X273664Y599370D02*
X272694Y600340D01*
X270646Y598292D01*
G54D25*
X273412Y599298D02*
X272317Y600394D01*
G54D25*
X274113Y600142D02*
X273179Y599208D01*
X271939Y600447D01*
G54D25*
X272945Y599118D02*
X271562Y600501D01*
X268617Y597556D01*
G54D25*
X272712Y599028D02*
X271203Y600537D01*
G54D25*
X272478Y598938D02*
X270826Y600591D01*
G54D25*
X272227Y598867D02*
X270449Y600645D01*
G54D25*
X271993Y598777D02*
X270072Y600698D01*
G54D25*
X271760Y598687D02*
X269694Y600752D01*
G54D25*
X271526Y598598D02*
X269317Y600807D01*
G54D25*
X268545Y601579D02*
X266192Y603932D01*
G54D25*
X271275Y598526D02*
X268940Y600860D01*
G54D25*
X268419Y601381D02*
X266066Y603734D01*
G54D25*
X271042Y598436D02*
X268563Y600914D01*
G54D25*
X268275Y601202D02*
X265941Y603537D01*
G54D25*
X270808Y598346D02*
X265815Y603339D01*
G54D25*
X270575Y598256D02*
X265689Y603142D01*
G54D25*
X270341Y598167D02*
X265564Y602944D01*
G54D25*
X261199Y594880D02*
X262510Y607865D01*
X265510Y602890D01*
X273322Y614978D01*
X262402Y616378D01*
X274203Y637877D01*
X281710Y634680D01*
X267701Y618480D01*
X279896Y616881D01*
X268114Y600968D01*
X275316Y599981D01*
X261199Y594880D01*
G54D25*
X274957Y600016D02*
X274687Y599746D01*
G54D25*
X274687Y600070D02*
X274185Y599567D01*
G54D25*
X274400Y600106D02*
X273682Y599388D01*
G54D25*
X273538Y600214D02*
X272155Y598831D01*
G54D25*
X273251Y600250D02*
X271652Y598651D01*
G54D25*
X272981Y600304D02*
X271149Y598472D01*
G54D25*
X272406Y600376D02*
X270125Y598095D01*
G54D25*
X272119Y600412D02*
X269623Y597915D01*
X262259Y605278D01*
G54D25*
X271832Y600447D02*
X269120Y597735D01*
G54D25*
X271275Y600537D02*
X268114Y597376D01*
G54D25*
X270988Y600573D02*
X267593Y597179D01*
G54D25*
X270700Y600609D02*
X267090Y596999D01*
G54D25*
X270413Y600645D02*
X266587Y596819D01*
G54D25*
X270144Y600699D02*
X266084Y596640D01*
G54D25*
X269856Y600735D02*
X265582Y596460D01*
X261756Y600286D01*
G54D25*
X269569Y600770D02*
X265061Y596263D01*
G54D25*
X269281Y600807D02*
X264558Y596083D01*
G54D25*
X268994Y600842D02*
X264055Y595904D01*
G54D25*
X268724Y600896D02*
X263552Y595724D01*
G54D25*
X268437Y600932D02*
X263049Y595544D01*
G54D25*
X268150Y600968D02*
X262528Y595346D01*
G54D25*
X268904Y602046D02*
X262025Y595167D01*
X261307Y595886D01*
G54D25*
X269820Y603285D02*
X261522Y594987D01*
G54D25*
X268222Y607074D02*
X270754Y604543D01*
X261217Y595005D01*
G54D25*
X271688Y605800D02*
X261253Y595365D01*
G54D25*
X272622Y607057D02*
X261289Y595724D01*
G54D25*
X273538Y608296D02*
X261325Y596083D01*
G54D25*
X275406Y610810D02*
X261397Y596802D01*
G54D25*
X276322Y612050D02*
X261433Y597160D01*
G54D25*
X277256Y613308D02*
X261469Y597520D01*
G54D25*
X279124Y615822D02*
X261540Y598238D01*
X263929Y595850D01*
G54D25*
X279860Y616881D02*
X261576Y598598D01*
G54D25*
X265510Y602854D02*
X261612Y598957D01*
G54D25*
X265402Y603070D02*
X261648Y599316D01*
G54D25*
X265276Y603267D02*
X261684Y599675D01*
G54D25*
X265150Y603465D02*
X261720Y600034D01*
G54D25*
X265025Y603662D02*
X261756Y600394D01*
G54D25*
X264917Y603878D02*
X261792Y600752D01*
G54D25*
X264791Y604075D02*
X261828Y601112D01*
G54D25*
X264666Y604273D02*
X261864Y601471D01*
X266533Y596801D01*
G54D25*
X264540Y604471D02*
X261900Y601830D01*
G54D25*
X264432Y604686D02*
X261935Y602190D01*
G54D25*
X264306Y604884D02*
X261971Y602548D01*
G54D25*
X264181Y605081D02*
X262007Y602908D01*
G54D25*
X264055Y605278D02*
X262043Y603267D01*
G54D25*
X263947Y605494D02*
X262079Y603626D01*
G54D25*
X263821Y605692D02*
X262115Y603986D01*
G54D25*
X263696Y605890D02*
X262151Y604345D01*
G54D25*
X263570Y606087D02*
X262187Y604704D01*
X269138Y597753D01*
G54D25*
X263462Y606302D02*
X262223Y605063D01*
G54D25*
X263336Y606500D02*
X262259Y605422D01*
G54D25*
X263211Y606698D02*
X262294Y605782D01*
G54D25*
X263085Y606895D02*
X262331Y606141D01*
G54D25*
X262977Y607110D02*
X262366Y606500D01*
G54D25*
X262851Y607308D02*
X262402Y606859D01*
G54D25*
X262726Y607506D02*
X262438Y607218D01*
G54D25*
X272712Y617815D02*
X270269Y615373D01*
X264845Y620796D01*
G54D25*
X272442Y617869D02*
X269982Y615408D01*
G54D25*
X272155Y617905D02*
X269694Y615444D01*
G54D25*
X271868Y617941D02*
X269407Y615480D01*
G54D25*
X271580Y617976D02*
X269120Y615516D01*
G54D25*
X271293Y618013D02*
X268832Y615552D01*
G54D25*
X271006Y618048D02*
X268545Y615588D01*
G54D25*
X270718Y618084D02*
X268258Y615625D01*
G54D25*
X270143Y618157D02*
X267683Y615696D01*
X264037Y619342D01*
G54D25*
X269856Y618192D02*
X267395Y615732D01*
G54D25*
X269569Y618228D02*
X267108Y615768D01*
G54D25*
X269281Y618264D02*
X266821Y615804D01*
G54D25*
X269012Y618318D02*
X266533Y615840D01*
G54D25*
X268725Y618354D02*
X266246Y615876D01*
G54D25*
X268437Y618390D02*
X265959Y615912D01*
G54D25*
X268150Y618426D02*
X265671Y615947D01*
G54D25*
X267863Y618462D02*
X265384Y615984D01*
G54D25*
X268707Y619629D02*
X265096Y616019D01*
G54D25*
X278154Y636189D02*
X267359Y625395D01*
X270754Y622000D01*
X264809Y616055D01*
G54D25*
X272802Y624370D02*
X264540Y616109D01*
G54D25*
X274867Y626760D02*
X264252Y616145D01*
G54D25*
X276915Y629130D02*
X263965Y616180D01*
X262887Y617259D01*
G54D25*
X278980Y631519D02*
X263678Y616216D01*
G54D25*
X281027Y633890D02*
X263390Y616253D01*
G54D25*
X281566Y634752D02*
X263103Y616289D01*
G54D25*
X281333Y634842D02*
X262816Y616324D01*
G54D25*
X281099Y634932D02*
X262528Y616361D01*
G54D25*
X280884Y635039D02*
X262636Y616792D01*
G54D25*
X280650Y635129D02*
X263031Y617510D01*
G54D25*
X280417Y635219D02*
X263426Y618228D01*
G54D25*
X280201Y635327D02*
X263821Y618946D01*
G54D25*
X279968Y635417D02*
X264216Y619665D01*
G54D25*
X279752Y635524D02*
X264612Y620384D01*
X269533Y615463D01*
G54D25*
X279519Y635614D02*
X265007Y621102D01*
G54D25*
X279285Y635704D02*
X265384Y621803D01*
G54D25*
X279070Y635812D02*
X265779Y622520D01*
G54D25*
X278836Y635902D02*
X266174Y623239D01*
G54D25*
X278621Y636009D02*
X266569Y623958D01*
G54D25*
X278387Y636099D02*
X266964Y624676D01*
G54D25*
X277938Y636297D02*
X267755Y626113D01*
G54D25*
X280650Y633441D02*
X277705Y636386D01*
X268132Y626814D01*
G54D25*
X277490Y636494D02*
X268527Y627532D01*
G54D25*
X277256Y636584D02*
X268922Y628250D01*
G54D25*
X277022Y636674D02*
X269318Y628969D01*
G54D25*
X276807Y636782D02*
X269712Y629687D01*
G54D25*
X280345Y633100D02*
X276573Y636871D01*
X270108Y630406D01*
X274346Y626167D01*
G54D25*
X276340Y636961D02*
X270503Y631124D01*
G54D25*
X276124Y637069D02*
X270898Y631842D01*
G54D25*
X275891Y637159D02*
X271275Y632543D01*
G54D25*
X275675Y637267D02*
X271670Y633261D01*
G54D25*
X280040Y632758D02*
X275442Y637356D01*
X272065Y633980D01*
G54D25*
X275208Y637446D02*
X272460Y634698D01*
G54D25*
X274993Y637554D02*
X272856Y635416D01*
X277938Y630334D01*
G54D25*
X274759Y637644D02*
X273251Y636135D01*
G54D25*
X274544Y637751D02*
X273646Y636853D01*
G54D25*
X279752Y632399D02*
X274310Y637841D01*
X274041Y637572D01*
G54D25*
X272999Y617779D02*
X270556Y615336D01*
G54D25*
X281548Y634483D02*
X281081Y634950D01*
G54D25*
X281387Y634321D02*
X280525Y635183D01*
G54D25*
X281243Y634141D02*
X279950Y635435D01*
G54D25*
X281099Y633962D02*
X279393Y635668D01*
G54D25*
X280938Y633800D02*
X278818Y635920D01*
G54D25*
X280794Y633621D02*
X278261Y636153D01*
G54D25*
X280489Y633279D02*
X277130Y636638D01*
G54D25*
X280202Y632920D02*
X275998Y637123D01*
G54D25*
X279896Y632579D02*
X274885Y637590D01*
G54D25*
X279591Y632238D02*
X274113Y637716D01*
G54D25*
X279447Y632058D02*
X274005Y637500D01*
G54D25*
X279303Y631878D02*
X273880Y637302D01*
G54D25*
X279142Y631717D02*
X273771Y637087D01*
G54D25*
X278998Y631537D02*
X273664Y636871D01*
G54D25*
X278854Y631358D02*
X273538Y636674D01*
G54D25*
X278693Y631196D02*
X273430Y636458D01*
G54D25*
X278549Y631016D02*
X273304Y636261D01*
G54D25*
X278387Y630855D02*
X273197Y636045D01*
G54D25*
X278244Y630675D02*
X273089Y635830D01*
G54D25*
X278100Y630495D02*
X272963Y635632D01*
G54D25*
X277795Y630154D02*
X272748Y635201D01*
G54D25*
X277651Y629975D02*
X272622Y635004D01*
G54D25*
X277489Y629813D02*
X272514Y634788D01*
G54D25*
X277345Y629633D02*
X272388Y634590D01*
G54D25*
X277202Y629454D02*
X272281Y634375D01*
G54D25*
X277040Y629292D02*
X272173Y634159D01*
G54D25*
X276897Y629112D02*
X272047Y633962D01*
G54D25*
X276753Y628933D02*
X271939Y633746D01*
G54D25*
X276591Y628771D02*
X271832Y633531D01*
G54D25*
X276448Y628592D02*
X271706Y633333D01*
G54D25*
X276304Y628412D02*
X271598Y633118D01*
G54D25*
X276142Y628250D02*
X271472Y632920D01*
G54D25*
X275998Y628071D02*
X271365Y632705D01*
G54D25*
X275855Y627891D02*
X271257Y632489D01*
G54D25*
X275693Y627729D02*
X271131Y632291D01*
G54D25*
X275550Y627550D02*
X271023Y632076D01*
G54D25*
X275406Y627370D02*
X270916Y631861D01*
G54D25*
X275244Y627209D02*
X270790Y631663D01*
G54D25*
X275101Y627029D02*
X270682Y631447D01*
G54D25*
X274957Y626849D02*
X270556Y631250D01*
G54D25*
X274795Y626688D02*
X270449Y631034D01*
G54D25*
X274652Y626508D02*
X270341Y630819D01*
G54D25*
X274508Y626329D02*
X270215Y630621D01*
G54D25*
X274203Y625987D02*
X270000Y630190D01*
G54D25*
X274059Y625808D02*
X269874Y629993D01*
G54D25*
X273897Y625646D02*
X269766Y629777D01*
G54D25*
X273754Y625467D02*
X269641Y629580D01*
G54D25*
X273610Y625286D02*
X269533Y629364D01*
G54D25*
X273448Y625125D02*
X269425Y629148D01*
G54D25*
X273304Y624946D02*
X269299Y628951D01*
G54D25*
X273143Y624784D02*
X269192Y628735D01*
G54D25*
X272999Y624604D02*
X269084Y628520D01*
G54D25*
X272856Y624424D02*
X268958Y628322D01*
G54D25*
X272694Y624263D02*
X268850Y628107D01*
G54D25*
X272550Y624084D02*
X268724Y627909D01*
G54D25*
X272406Y623904D02*
X268617Y627694D01*
G54D25*
X272245Y623742D02*
X268509Y627478D01*
G54D25*
X272101Y623562D02*
X268383Y627281D01*
G54D25*
X271958Y623383D02*
X268276Y627065D01*
G54D25*
X271795Y623221D02*
X268168Y626849D01*
G54D25*
X271652Y623042D02*
X268042Y626652D01*
G54D25*
X271508Y622862D02*
X267934Y626436D01*
G54D25*
X271347Y622701D02*
X267809Y626239D01*
G54D25*
X271203Y622521D02*
X267701Y626023D01*
G54D25*
X271059Y622341D02*
X267593Y625808D01*
G54D25*
X270898Y622180D02*
X267467Y625610D01*
G54D25*
X270610Y621821D02*
X267252Y625179D01*
G54D25*
X270449Y621658D02*
X267126Y624982D01*
G54D25*
X270305Y621479D02*
X267018Y624766D01*
G54D25*
X270161Y621300D02*
X266893Y624568D01*
G54D25*
X270000Y621138D02*
X266785Y624353D01*
G54D25*
X269856Y620958D02*
X266677Y624137D01*
G54D25*
X269712Y620778D02*
X266552Y623940D01*
G54D25*
X269551Y620617D02*
X266444Y623724D01*
G54D25*
X269407Y620438D02*
X266336Y623508D01*
G54D25*
X269263Y620258D02*
X266210Y623311D01*
G54D25*
X269102Y620096D02*
X266102Y623096D01*
G54D25*
X268958Y619916D02*
X265976Y622898D01*
G54D25*
X268814Y619737D02*
X265869Y622683D01*
G54D25*
X268653Y619575D02*
X265761Y622467D01*
G54D25*
X268509Y619396D02*
X265635Y622269D01*
G54D25*
X268347Y619234D02*
X265528Y622054D01*
G54D25*
X268204Y619054D02*
X265420Y621838D01*
G54D25*
X268060Y618875D02*
X265294Y621641D01*
G54D25*
X267898Y618713D02*
X265186Y621425D01*
G54D25*
X271023Y615265D02*
X265061Y621228D01*
G54D25*
X270646Y615318D02*
X264953Y621012D01*
G54D25*
X269910Y615408D02*
X264719Y620599D01*
G54D25*
X269156Y615516D02*
X264504Y620168D01*
G54D25*
X268796Y615552D02*
X264378Y619970D01*
G54D25*
X268419Y615606D02*
X264270Y619755D01*
G54D25*
X268060Y615642D02*
X264145Y619558D01*
G54D25*
X267306Y615750D02*
X263929Y619126D01*
G54D25*
X266946Y615786D02*
X263803Y618928D01*
G54D25*
X266569Y615840D02*
X263696Y618713D01*
G54D25*
X266192Y615894D02*
X263570Y618516D01*
G54D25*
X265833Y615929D02*
X263462Y618300D01*
G54D25*
X265456Y615983D02*
X263354Y618085D01*
G54D25*
X265078Y616037D02*
X263229Y617887D01*
G54D25*
X264719Y616073D02*
X263121Y617672D01*
G54D25*
X264342Y616127D02*
X263013Y617456D01*
G54D25*
X263606Y616216D02*
X262780Y617043D01*
G54D25*
X263228Y616271D02*
X262654Y616846D01*
G54D25*
X262869Y616307D02*
X262546Y616630D01*
G54D25*
X272263Y606590D02*
X269605Y609248D01*
G54D25*
X272137Y606392D02*
X269479Y609050D01*
G54D25*
X271993Y606212D02*
X269353Y608853D01*
G54D25*
X271850Y606033D02*
X269227Y608656D01*
G54D25*
X271724Y605836D02*
X269102Y608458D01*
G54D25*
X271580Y605656D02*
X268976Y608260D01*
G54D25*
X271437Y605476D02*
X268850Y608063D01*
G54D25*
X271311Y605278D02*
X268724Y607865D01*
G54D25*
X271167Y605099D02*
X268599Y607668D01*
G54D25*
X271023Y604920D02*
X268473Y607470D01*
G54D25*
X270898Y604722D02*
X268347Y607272D01*
G54D25*
X270610Y604362D02*
X268096Y606877D01*
G54D25*
X270485Y604165D02*
X267970Y606680D01*
G54D25*
X270341Y603986D02*
X267844Y606482D01*
G54D25*
X270198Y603806D02*
X267719Y606284D01*
G54D25*
X270072Y603609D02*
X267575Y606105D01*
G54D25*
X269928Y603429D02*
X267449Y605908D01*
G54D25*
X269784Y603249D02*
X267324Y605710D01*
G54D25*
X269658Y603052D02*
X267198Y605512D01*
G54D25*
X269515Y602872D02*
X267072Y605314D01*
G54D25*
X269371Y602693D02*
X266946Y605117D01*
G54D25*
X269245Y602495D02*
X266821Y604920D01*
G54D25*
X269102Y602315D02*
X266695Y604722D01*
G54D25*
X268958Y602136D02*
X266569Y604524D01*
G54D25*
X268832Y601938D02*
X266443Y604327D01*
G54D25*
X268689Y601759D02*
X266318Y604129D01*
G54D25*
X262905Y607219D02*
X262492Y607632D01*
G54D25*
X263390Y606410D02*
X262456Y607344D01*
G54D25*
X263875Y605602D02*
X262420Y607057D01*
G54D25*
X264360Y604794D02*
X262402Y606752D01*
G54D25*
X264845Y603986D02*
X262367Y606464D01*
G54D25*
X265330Y603177D02*
X262331Y606176D01*
G54D25*
X270090Y598094D02*
X262313Y605872D01*
G54D25*
X269856Y598005D02*
X262277Y605584D01*
G54D25*
X269389Y597825D02*
X262223Y604992D01*
G54D25*
X268904Y597664D02*
X262169Y604398D01*
G54D25*
X268671Y597574D02*
X262133Y604111D01*
G54D25*
X268437Y597484D02*
X262097Y603824D01*
G54D25*
X268204Y597394D02*
X262079Y603518D01*
G54D25*
X267952Y597322D02*
X262043Y603231D01*
G54D25*
X267719Y597232D02*
X262007Y602944D01*
G54D25*
X267485Y597143D02*
X261989Y602638D01*
G54D25*
X267252Y597053D02*
X261953Y602351D01*
G54D25*
X267000Y596981D02*
X261918Y602064D01*
G54D25*
X266767Y596891D02*
X261900Y601759D01*
G54D25*
X266300Y596711D02*
X261846Y601166D01*
G54D25*
X266066Y596622D02*
X261810Y600879D01*
G54D25*
X265815Y596550D02*
X261774Y600591D01*
G54D25*
X265348Y596370D02*
X261720Y599998D01*
G54D25*
X265114Y596281D02*
X261684Y599711D01*
G54D25*
X264863Y596208D02*
X261666Y599406D01*
G54D25*
X264630Y596119D02*
X261630Y599118D01*
G54D25*
X264396Y596029D02*
X261594Y598831D01*
G54D25*
X264163Y595939D02*
X261576Y598526D01*
G54D25*
X263678Y595778D02*
X261504Y597951D01*
G54D25*
X263444Y595688D02*
X261486Y597646D01*
G54D25*
X263210Y595598D02*
X261450Y597358D01*
G54D25*
X262977Y595508D02*
X261433Y597053D01*
G54D25*
X262744Y595418D02*
X261397Y596766D01*
G54D25*
X262492Y595346D02*
X261361Y596478D01*
G54D25*
X262259Y595256D02*
X261343Y596172D01*
G54D25*
X261792Y595077D02*
X261271Y595598D01*
G54D25*
X261540Y595005D02*
X261253Y595292D01*
G54D26*
X239898Y591144D02*
X309710Y591126D01*
G54D26*
X309513Y591288D02*
X275711Y654688D01*
X239718Y591431D01*
G36*
X728561Y451756D02*
X728232Y451700D01*
X727287Y451884D01*
X726902Y452163D01*
X726281Y452438D01*
X725604Y452390D01*
X724854Y452263D01*
X724280Y452354D01*
X720642Y452324D01*
X719175Y452158D01*
X718821Y452126D01*
X717133Y451975D01*
X715734Y451848D01*
X715011Y451780D01*
X714577Y451856D01*
X712817Y451876D01*
X706929Y451376D01*
X704606Y451160D01*
X702548Y450936D01*
X700968Y450728D01*
X700079Y450563D01*
X699195Y450499D01*
X697221Y450451D01*
X695725Y450152D01*
X694528Y449981D01*
X693151Y449876D01*
X691916Y449850D01*
X689191Y448725D01*
X689022Y448226D01*
X688788Y447856D01*
X688624Y447659D01*
X687800Y446911D01*
X687162Y446620D01*
X686550Y446312D01*
X685569Y445521D01*
X684817Y444805D01*
X684118Y444090D01*
X683546Y443594D01*
X682929Y443293D01*
X682098Y443164D01*
X680883Y443182D01*
X679112Y443324D01*
X676615Y443567D01*
X676182Y443609D01*
X675088Y443835D01*
X674478Y444139D01*
X672290Y445234D01*
X671453Y445436D01*
X670416Y445882D01*
X669425Y446192D01*
X667779Y446497D01*
X665748Y446753D01*
X664470Y446863D01*
X659776Y447196D01*
X657940Y447600D01*
X656997Y447614D01*
X656848Y447628D01*
X656035Y447588D01*
X654995Y447286D01*
X653585Y446657D01*
X651664Y445640D01*
X649548Y444440D01*
X647294Y443145D01*
X645708Y442269D01*
X644665Y441764D01*
X644037Y441580D01*
X641859Y440186D01*
X641791Y440154D01*
X641076Y439929D01*
X640407Y439187D01*
X639732Y437828D01*
X639002Y435752D01*
X638232Y433098D01*
X637630Y430848D01*
X637130Y428886D01*
X636778Y427400D01*
X636621Y426579D01*
X636617Y426517D01*
X636666Y426235D01*
X636772Y424381D01*
X636817Y424222D01*
X636908Y419530D01*
X636968Y417447D01*
X637102Y415852D01*
X637376Y414451D01*
X637859Y412948D01*
X638618Y411048D01*
X639133Y409832D01*
X641055Y405865D01*
X643350Y401984D01*
X644369Y400488D01*
X645506Y398918D01*
X646462Y397693D01*
X647395Y396679D01*
X648461Y395739D01*
X649816Y394736D01*
X651619Y393535D01*
X654024Y391998D01*
X654419Y391747D01*
X661368Y387343D01*
X660558Y380613D01*
X660204Y377684D01*
X659959Y375540D01*
X659835Y374050D01*
X659845Y373081D01*
X660000Y372500D01*
X660311Y372175D01*
X660790Y371974D01*
X661336Y371801D01*
X662965Y371264D01*
X662651Y366416D01*
X662338Y361567D01*
X665462Y361876D01*
X666338Y356180D01*
X666714Y353777D01*
X667020Y352160D01*
X667335Y351207D01*
X667735Y350792D01*
X668299Y350792D01*
X669104Y351081D01*
X669440Y351220D01*
X669811Y351212D01*
X670151Y350760D01*
X670518Y349729D01*
X670968Y347982D01*
X671195Y347001D01*
X671853Y344111D01*
X672346Y342011D01*
X672720Y340588D01*
X673022Y339733D01*
X673298Y339335D01*
X673594Y339283D01*
X673955Y339467D01*
X674254Y339666D01*
X674754Y340002D01*
X675105Y340144D01*
X675377Y339960D01*
X675637Y339320D01*
X675954Y338095D01*
X676398Y336153D01*
X676619Y335176D01*
X677084Y333318D01*
X677478Y332234D01*
X677863Y331785D01*
X678157Y331772D01*
X679159Y332064D01*
X679440Y332148D01*
X679909Y331854D01*
X680702Y330923D01*
X681684Y329522D01*
X682248Y328625D01*
X683432Y326766D01*
X684320Y325619D01*
X685016Y325065D01*
X685472Y324965D01*
X685992Y324918D01*
X686361Y324622D01*
X686642Y323914D01*
X686900Y322629D01*
X687197Y320603D01*
X687222Y320419D01*
X687525Y318217D01*
X691842Y318790D01*
X698260Y305119D01*
X700200Y301019D01*
X701798Y297717D01*
X703078Y295166D01*
X704067Y293318D01*
X704790Y292122D01*
X705272Y291533D01*
X705445Y291449D01*
X706417Y291597D01*
X707626Y291941D01*
X708755Y292183D01*
X709854Y291966D01*
X710823Y291524D01*
X712606Y290614D01*
X715264Y292550D01*
X717003Y291598D01*
X718153Y291023D01*
X718975Y290894D01*
X719940Y291191D01*
X720513Y291443D01*
X721702Y291921D01*
X722545Y291981D01*
X723520Y291619D01*
X723940Y291412D01*
X725003Y290928D01*
X725757Y290852D01*
X726622Y291214D01*
X727375Y291658D01*
X728562Y292305D01*
X729449Y292485D01*
X730498Y292253D01*
X730973Y292090D01*
X732250Y291685D01*
X733199Y291463D01*
X733358Y291449D01*
X733714Y291858D01*
X734313Y292983D01*
X735084Y294672D01*
X735956Y296774D01*
X736356Y297799D01*
X739198Y304334D01*
X742854Y311235D01*
X745489Y315626D01*
X746601Y317405D01*
X747718Y316356D01*
X748526Y315699D01*
X749014Y315493D01*
X749276Y316005D01*
X749739Y317159D01*
X750341Y318753D01*
X750576Y319396D01*
X751263Y321208D01*
X751785Y322310D01*
X752259Y322874D01*
X752800Y323070D01*
X753081Y323084D01*
X753722Y323237D01*
X754488Y323771D01*
X755494Y324794D01*
X756854Y326415D01*
X757693Y327471D01*
X759254Y329511D01*
X760324Y331075D01*
X761026Y332379D01*
X761479Y333637D01*
X761718Y334629D01*
X762154Y336699D01*
X762465Y337995D01*
X762728Y338642D01*
X763018Y338769D01*
X763412Y338502D01*
X763807Y338132D01*
X764832Y337168D01*
X768958Y348018D01*
X770291Y351488D01*
X771352Y354168D01*
X772179Y356137D01*
X772809Y357476D01*
X773277Y358266D01*
X773620Y358586D01*
X773777Y358588D01*
X774662Y358228D01*
X775293Y358060D01*
X775732Y358203D01*
X776038Y358777D01*
X776273Y359900D01*
X776496Y361692D01*
X776768Y364271D01*
X776796Y364532D01*
X777076Y367187D01*
X778711Y367187D01*
X779790Y367242D01*
X780181Y367579D01*
X780120Y368456D01*
X780080Y368688D01*
X779407Y373343D01*
X779016Y377958D01*
X778941Y382141D01*
X778949Y382427D01*
X779088Y386814D01*
X780944Y387738D01*
X781993Y388234D01*
X783702Y389011D01*
X785882Y389986D01*
X788346Y391075D01*
X790059Y391824D01*
X797317Y394987D01*
X800970Y399559D01*
X802518Y401526D01*
X803584Y402995D01*
X804284Y404174D01*
X804730Y405271D01*
X805036Y406494D01*
X805178Y407250D01*
X805546Y409578D01*
X805884Y412187D01*
X806174Y414884D01*
X806401Y417475D01*
X806548Y419765D01*
X806579Y420894D01*
X805010Y420894D01*
X804726Y418898D01*
X804272Y417688D01*
X803826Y416292D01*
X803386Y414263D01*
X802996Y411888D01*
X802697Y409457D01*
X802534Y407258D01*
X802527Y405904D01*
X802426Y404463D01*
X801830Y403572D01*
X800818Y403018D01*
X799493Y402151D01*
X798383Y400655D01*
X798084Y400097D01*
X797330Y398734D01*
X796639Y397687D01*
X796327Y397332D01*
X795516Y396842D01*
X794025Y396102D01*
X792038Y395193D01*
X789740Y394194D01*
X787313Y393185D01*
X784940Y392246D01*
X782819Y391462D01*
X780274Y390458D01*
X778589Y389534D01*
X777811Y388822D01*
X776967Y387001D01*
X776541Y384366D01*
X776535Y380928D01*
X776949Y376697D01*
X777052Y375963D01*
X777417Y373211D01*
X777574Y371290D01*
X777508Y370126D01*
X777204Y369648D01*
X776645Y369783D01*
X775863Y370412D01*
X775050Y371087D01*
X774566Y371322D01*
X774504Y370786D01*
X774573Y369598D01*
X774730Y367994D01*
X774743Y367880D01*
X774944Y365821D01*
X775088Y363746D01*
X775139Y362367D01*
X775163Y360087D01*
X773782Y361410D01*
X772878Y362176D01*
X772264Y362513D01*
X772164Y362495D01*
X771934Y361962D01*
X771552Y360781D01*
X771097Y359200D01*
X771060Y359065D01*
X770592Y357493D01*
X769905Y355376D01*
X769064Y352898D01*
X768136Y350244D01*
X767187Y347598D01*
X766281Y345143D01*
X765484Y343063D01*
X764864Y341543D01*
X764561Y340894D01*
X763955Y339770D01*
X763055Y341525D01*
X762435Y342504D01*
X761924Y342922D01*
X761784Y342880D01*
X761528Y342251D01*
X761206Y340978D01*
X760886Y339330D01*
X760872Y339247D01*
X760420Y337178D01*
X759796Y335087D01*
X759256Y333705D01*
X758550Y332448D01*
X757509Y330898D01*
X756290Y329256D01*
X755052Y327723D01*
X753951Y326499D01*
X753145Y325786D01*
X752977Y325699D01*
X752594Y325987D01*
X752258Y326896D01*
X752230Y327028D01*
X752074Y327638D01*
X751887Y327787D01*
X751604Y327376D01*
X751160Y326302D01*
X750491Y324468D01*
X750389Y324181D01*
X749703Y322262D01*
X749116Y320626D01*
X748707Y319499D01*
X748582Y319161D01*
X748287Y318814D01*
X747801Y319181D01*
X747496Y319564D01*
X746671Y320657D01*
X744604Y317945D01*
X743238Y316065D01*
X741809Y313964D01*
X740853Y312462D01*
X739972Y310900D01*
X738896Y308818D01*
X737707Y306398D01*
X736490Y303820D01*
X735327Y301267D01*
X734303Y298920D01*
X733501Y296959D01*
X733004Y295568D01*
X732911Y295217D01*
X732684Y294355D01*
X732332Y293952D01*
X731645Y293978D01*
X730414Y294403D01*
X729581Y294735D01*
X728480Y295079D01*
X727750Y294939D01*
X727236Y294543D01*
X726396Y293935D01*
X725558Y293826D01*
X724391Y294210D01*
X723774Y294494D01*
X722668Y294937D01*
X721773Y294952D01*
X720586Y294542D01*
X720502Y294508D01*
X719305Y294083D01*
X718360Y294055D01*
X717171Y294427D01*
X716890Y294538D01*
X715521Y294983D01*
X714608Y294969D01*
X714149Y294756D01*
X712537Y294249D01*
X710827Y294642D01*
X710267Y294962D01*
X709472Y295396D01*
X708786Y295393D01*
X707814Y294923D01*
X707494Y294736D01*
X705853Y293767D01*
X704906Y295956D01*
X704255Y297499D01*
X703438Y299486D01*
X702627Y301502D01*
X702584Y301609D01*
X701566Y304034D01*
X700309Y306815D01*
X698916Y309741D01*
X697492Y312605D01*
X696139Y315196D01*
X694962Y317306D01*
X694243Y318465D01*
X693291Y319785D01*
X692494Y320460D01*
X691533Y320640D01*
X690092Y320474D01*
X689991Y320458D01*
X689534Y320488D01*
X689206Y320870D01*
X688936Y321774D01*
X688658Y323371D01*
X688555Y324062D01*
X688201Y326297D01*
X687885Y327711D01*
X687556Y328403D01*
X687162Y328470D01*
X686653Y328013D01*
X686555Y327894D01*
X686167Y327466D01*
X685827Y327373D01*
X685420Y327728D01*
X684830Y328645D01*
X683939Y330236D01*
X683702Y330668D01*
X682502Y332850D01*
X681656Y334332D01*
X681072Y335226D01*
X680660Y335641D01*
X680328Y335688D01*
X679986Y335478D01*
X679836Y335354D01*
X679138Y334950D01*
X678843Y334967D01*
X678654Y335493D01*
X678333Y336722D01*
X677929Y338453D01*
X677619Y339882D01*
X677184Y341817D01*
X676784Y343362D01*
X676471Y344328D01*
X676327Y344558D01*
X675933Y344187D01*
X675494Y343404D01*
X674992Y342556D01*
X674610Y342249D01*
X674383Y342673D01*
X674016Y343834D01*
X673556Y345564D01*
X673050Y347695D01*
X672951Y348137D01*
X672332Y350953D01*
X671878Y352978D01*
X671540Y354320D01*
X671272Y355087D01*
X671024Y355387D01*
X670750Y355327D01*
X670402Y355017D01*
X670057Y354679D01*
X669219Y354059D01*
X668655Y353938D01*
X668466Y354529D01*
X668291Y355817D01*
X668120Y357622D01*
X668000Y359357D01*
X667858Y361426D01*
X667705Y363134D01*
X667559Y364283D01*
X667459Y364670D01*
X666913Y364675D01*
X666000Y364358D01*
X665068Y364021D01*
X664586Y364002D01*
X664553Y364512D01*
X664620Y365704D01*
X664764Y367346D01*
X664963Y369204D01*
X665192Y371045D01*
X665429Y372637D01*
X665460Y372814D01*
X665676Y374052D01*
X664028Y373364D01*
X662922Y372976D01*
X662226Y372871D01*
X662153Y372901D01*
X662136Y373412D01*
X662235Y374679D01*
X662433Y376547D01*
X662714Y378859D01*
X662951Y380653D01*
X663975Y388179D01*
X662348Y389575D01*
X661268Y390368D01*
X659612Y391430D01*
X657626Y392607D01*
X656000Y393511D01*
X653589Y394873D01*
X651726Y396117D01*
X650107Y397477D01*
X648424Y399184D01*
X648077Y399563D01*
X646054Y401836D01*
X644536Y403720D01*
X643368Y405469D01*
X642392Y407341D01*
X641453Y409589D01*
X640681Y411671D01*
X639910Y413855D01*
X639386Y415544D01*
X639058Y417029D01*
X638877Y418600D01*
X638792Y420545D01*
X638758Y422836D01*
X638741Y425308D01*
X638773Y427082D01*
X638890Y428380D01*
X639128Y429429D01*
X639524Y430452D01*
X640112Y431675D01*
X640196Y431842D01*
X640945Y433489D01*
X641483Y434953D01*
X641696Y435926D01*
X642092Y437092D01*
X643133Y438360D01*
X644598Y439542D01*
X646269Y440429D01*
X646577Y440543D01*
X647950Y441119D01*
X649682Y441992D01*
X651116Y442806D01*
X653838Y444450D01*
X661855Y444174D01*
X664770Y444069D01*
X666948Y443962D01*
X668577Y443823D01*
X669844Y443622D01*
X670936Y443329D01*
X672039Y442913D01*
X673341Y442344D01*
X673449Y442296D01*
X676551Y441132D01*
X679473Y440456D01*
X680028Y440387D01*
X681730Y440252D01*
X682859Y440322D01*
X683758Y440658D01*
X684646Y441236D01*
X685977Y442134D01*
X687654Y443195D01*
X688719Y443836D01*
X690611Y445191D01*
X691600Y446509D01*
X691650Y446641D01*
X692088Y447508D01*
X692507Y447765D01*
X693148Y447723D01*
X694417Y447868D01*
X696094Y448158D01*
X696528Y448246D01*
X698887Y448640D01*
X702045Y449020D01*
X705879Y449375D01*
X710264Y449696D01*
X715075Y449971D01*
X719479Y450164D01*
X722359Y450238D01*
X724634Y450196D01*
X726617Y450016D01*
X728622Y449677D01*
X729639Y449461D01*
X732183Y448991D01*
X735089Y448595D01*
X737798Y448348D01*
X738217Y448326D01*
X741937Y447962D01*
X744815Y447262D01*
X745098Y447157D01*
X746345Y446592D01*
X748138Y445672D01*
X750282Y444508D01*
X752585Y443212D01*
X754854Y441892D01*
X756897Y440661D01*
X758518Y439628D01*
X759527Y438905D01*
X760524Y438499D01*
X762132Y438323D01*
X764143Y438326D01*
X766307Y438493D01*
X768377Y438809D01*
X770104Y439258D01*
X770854Y439575D01*
X772241Y440310D01*
X774003Y441242D01*
X775343Y441950D01*
X777138Y442788D01*
X778763Y443231D01*
X780449Y443278D01*
X782429Y442927D01*
X784936Y442175D01*
X785864Y441858D01*
X789309Y440547D01*
X791990Y439254D01*
X794061Y437891D01*
X795677Y436368D01*
X796041Y435935D01*
X797182Y434601D01*
X798652Y432999D01*
X799985Y431625D01*
X801173Y430321D01*
X802037Y429142D01*
X802407Y428326D01*
X802410Y428275D01*
X802627Y427330D01*
X803179Y425999D01*
X803530Y425319D01*
X804620Y422949D01*
X805010Y420894D01*
X806579Y420894D01*
X806597Y421560D01*
X806533Y422667D01*
X806511Y422769D01*
X806184Y423991D01*
X804950Y425859D01*
X802627Y429428D01*
X802034Y430373D01*
X801479Y431359D01*
X800926Y432477D01*
X800339Y433820D01*
X799684Y435481D01*
X797281Y437384D01*
X796657Y437867D01*
X796238Y438119D01*
X796073Y438247D01*
X795156Y439350D01*
X785440Y444186D01*
X783649Y444582D01*
X781152Y444922D01*
X778524Y444939D01*
X776255Y444630D01*
X776202Y444617D01*
X774701Y444237D01*
X772593Y443649D01*
X769219Y442714D01*
X767255Y442385D01*
X762593Y442636D01*
X758460Y444808D01*
X753131Y448060D01*
X728561Y451756D01*
G37*
G36*
X722650Y311000D02*
X721752Y308776D01*
X721568Y307254D01*
X721609Y306024D01*
X721872Y305458D01*
X722564Y305300D01*
X723137Y305292D01*
X724281Y305427D01*
X724908Y306012D01*
X725215Y306746D01*
X725674Y308686D01*
X725475Y310236D01*
X724726Y311515D01*
X723729Y312782D01*
X722650Y311000D01*
G37*
G54D30*
X723729Y312782D02*
X722650Y311000D01*
X721752Y308776D01*
X721568Y307254D01*
X721609Y306024D01*
X721872Y305458D01*
X722564Y305300D01*
X723137Y305292D01*
X724281Y305427D01*
X724908Y306012D01*
X725215Y306746D01*
X725674Y308686D01*
X725475Y310236D01*
X724726Y311515D01*
X723729Y312782D01*
G36*
X717792Y311276D02*
X717116Y309492D01*
X717040Y307667D01*
X717163Y306361D01*
X717452Y305713D01*
X718122Y305461D01*
X718911Y305379D01*
X720642Y305236D01*
X720642Y307403D01*
X720270Y309829D01*
X719663Y311155D01*
X718683Y312741D01*
X717792Y311276D01*
G37*
G54D30*
X718683Y312741D02*
X717792Y311276D01*
X717116Y309492D01*
X717040Y307667D01*
X717163Y306361D01*
X717452Y305713D01*
X718122Y305461D01*
X718911Y305379D01*
X720642Y305236D01*
X720642Y307403D01*
X720270Y309829D01*
X719663Y311155D01*
X718683Y312741D01*
G36*
X713059Y311670D02*
X712525Y310310D01*
X712346Y308558D01*
X712544Y306880D01*
X712808Y306185D01*
X713710Y305443D01*
X714712Y305292D01*
X716138Y305292D01*
X715933Y307769D01*
X715523Y309932D01*
X714758Y311479D01*
X713789Y312712D01*
X713059Y311670D01*
G37*
G54D30*
X713789Y312712D02*
X713059Y311670D01*
X712525Y310310D01*
X712346Y308558D01*
X712544Y306880D01*
X712808Y306185D01*
X713710Y305443D01*
X714712Y305292D01*
X716138Y305292D01*
X715933Y307769D01*
X715523Y309932D01*
X714758Y311479D01*
X713789Y312712D01*
G36*
X728114Y315513D02*
X727669Y312745D01*
X727305Y310283D01*
X727041Y308274D01*
X726896Y306866D01*
X726888Y306204D01*
X727620Y305783D01*
X728794Y305764D01*
X730054Y306079D01*
X731032Y306680D01*
X731589Y307840D01*
X731870Y309654D01*
X731926Y311979D01*
X731762Y314624D01*
X731384Y317398D01*
X730796Y320111D01*
X730688Y320510D01*
X729596Y324413D01*
X728114Y315513D01*
G37*
G54D30*
X729596Y324413D02*
X728114Y315513D01*
X727669Y312745D01*
X727305Y310283D01*
X727041Y308274D01*
X726896Y306866D01*
X726888Y306204D01*
X726897Y306183D01*
X727620Y305783D01*
X728794Y305764D01*
X730054Y306079D01*
X731032Y306680D01*
X731077Y306728D01*
X731589Y307840D01*
X731870Y309654D01*
X731926Y311979D01*
X731762Y314624D01*
X731384Y317398D01*
X730796Y320111D01*
X730688Y320510D01*
X729596Y324413D01*
G36*
X707472Y323025D02*
X707067Y321933D01*
X706685Y320283D01*
X706355Y318197D01*
X706106Y315797D01*
X705990Y313835D01*
X705907Y311464D01*
X705896Y309823D01*
X705981Y308719D01*
X706182Y307961D01*
X706522Y307356D01*
X706773Y307024D01*
X707791Y306186D01*
X709016Y305752D01*
X710123Y305789D01*
X710714Y306217D01*
X710735Y306796D01*
X710623Y308104D01*
X710407Y309961D01*
X710111Y312186D01*
X709764Y314599D01*
X709392Y317018D01*
X709020Y319263D01*
X708678Y321154D01*
X708389Y322509D01*
X708230Y323054D01*
X707869Y323440D01*
X707472Y323025D01*
G37*
G54D30*
X707869Y323440D02*
X707472Y323025D01*
X707067Y321933D01*
X706685Y320283D01*
X706355Y318197D01*
X706106Y315797D01*
X705990Y313835D01*
X705907Y311464D01*
X705896Y309823D01*
X705981Y308719D01*
X706182Y307961D01*
X706522Y307356D01*
X706773Y307024D01*
X707791Y306186D01*
X709016Y305752D01*
X710123Y305789D01*
X710714Y306217D01*
X710735Y306796D01*
X710623Y308104D01*
X710407Y309961D01*
X710111Y312186D01*
X709764Y314599D01*
X709392Y317018D01*
X709020Y319263D01*
X708678Y321154D01*
X708389Y322509D01*
X708230Y323054D01*
X707869Y323440D01*
G36*
X721335Y448198D02*
X720378Y448105D01*
X718646Y447955D01*
X716285Y447761D01*
X713441Y447533D01*
X710261Y447284D01*
X707393Y447064D01*
X703738Y446783D01*
X700890Y446552D01*
X698732Y446352D01*
X697150Y446165D01*
X696027Y445973D01*
X695249Y445758D01*
X694701Y445501D01*
X694266Y445184D01*
X694000Y444946D01*
X692810Y443970D01*
X691199Y442802D01*
X689411Y441604D01*
X687692Y440536D01*
X686290Y439760D01*
X685633Y439477D01*
X684647Y438800D01*
X684144Y438025D01*
X683577Y437183D01*
X683007Y436910D01*
X682321Y436711D01*
X681017Y436174D01*
X679297Y435386D01*
X677783Y434646D01*
X673271Y432382D01*
X671500Y427834D01*
X669730Y423286D01*
X670516Y421208D01*
X671230Y419230D01*
X671580Y417972D01*
X671578Y417316D01*
X671238Y417138D01*
X670945Y417191D01*
X669906Y417430D01*
X668522Y417694D01*
X668358Y417722D01*
X666642Y418011D01*
X667370Y416262D01*
X668098Y414616D01*
X668902Y412934D01*
X668980Y412780D01*
X669510Y411692D01*
X669616Y411193D01*
X669297Y411055D01*
X668984Y411048D01*
X667988Y411222D01*
X666674Y411650D01*
X666450Y411741D01*
X665328Y412185D01*
X664616Y412422D01*
X664542Y412434D01*
X664629Y412052D01*
X665063Y411022D01*
X665767Y409517D01*
X666374Y408286D01*
X667251Y406519D01*
X667945Y405075D01*
X668369Y404144D01*
X668457Y403899D01*
X668032Y403786D01*
X666907Y403701D01*
X665304Y403661D01*
X664903Y403659D01*
X661349Y403659D01*
X664326Y401535D01*
X667302Y399412D01*
X663146Y399732D01*
X658990Y400053D01*
X667416Y391421D01*
X666565Y385186D01*
X666169Y382230D01*
X665905Y380066D01*
X665769Y378572D01*
X665758Y377629D01*
X665867Y377112D01*
X666092Y376903D01*
X666307Y376874D01*
X667063Y376557D01*
X667754Y375962D01*
X668187Y375330D01*
X668384Y374502D01*
X668378Y373217D01*
X668259Y371807D01*
X668111Y370095D01*
X668126Y369030D01*
X668363Y368342D01*
X668882Y367760D01*
X669210Y367471D01*
X669877Y366798D01*
X670294Y366014D01*
X670546Y364858D01*
X670722Y363068D01*
X670739Y362834D01*
X670900Y361008D01*
X671107Y359880D01*
X671436Y359226D01*
X671966Y358820D01*
X672152Y358726D01*
X673382Y357645D01*
X674417Y355746D01*
X675213Y353120D01*
X675473Y351779D01*
X675785Y350139D01*
X676139Y349150D01*
X676681Y348545D01*
X677509Y348081D01*
X678253Y347689D01*
X678770Y347230D01*
X679144Y346515D01*
X679462Y345352D01*
X679806Y343553D01*
X679988Y342508D01*
X680256Y341059D01*
X680473Y340053D01*
X680578Y339737D01*
X681628Y339150D01*
X682635Y338054D01*
X683717Y336301D01*
X684390Y335000D01*
X685286Y333230D01*
X685924Y332146D01*
X686435Y331599D01*
X686954Y331440D01*
X687507Y331499D01*
X688323Y331547D01*
X688885Y331185D01*
X689430Y330215D01*
X689655Y329710D01*
X690289Y327959D01*
X690777Y326116D01*
X690856Y325689D01*
X691106Y324457D01*
X691438Y323934D01*
X692028Y323907D01*
X692299Y323969D01*
X693189Y323963D01*
X694101Y323436D01*
X695110Y322301D01*
X696292Y320474D01*
X697723Y317868D01*
X698689Y316053D01*
X699305Y315008D01*
X699656Y314620D01*
X699813Y314805D01*
X699845Y315285D01*
X699728Y316063D01*
X699390Y317608D01*
X698864Y319797D01*
X698183Y322511D01*
X697378Y325626D01*
X696483Y329022D01*
X695530Y332577D01*
X694552Y336168D01*
X693580Y339676D01*
X692648Y342978D01*
X691788Y345952D01*
X691032Y348477D01*
X690608Y349836D01*
X689954Y351754D01*
X689338Y353350D01*
X688846Y354410D01*
X688639Y354705D01*
X687999Y355212D01*
X686881Y356081D01*
X685678Y357008D01*
X683840Y358580D01*
X682747Y359886D01*
X682438Y360876D01*
X682535Y361160D01*
X683104Y361438D01*
X684308Y361720D01*
X685558Y361903D01*
X688315Y362215D01*
X688315Y379464D01*
X689760Y381748D01*
X691735Y384524D01*
X694033Y387199D01*
X696401Y389494D01*
X697965Y390728D01*
X699187Y391622D01*
X700034Y392319D01*
X700301Y392629D01*
X700057Y393147D01*
X699432Y394044D01*
X699325Y394180D01*
X698583Y394979D01*
X697822Y395253D01*
X696631Y395132D01*
X696439Y395097D01*
X694765Y394879D01*
X692846Y394755D01*
X692240Y394744D01*
X690700Y394831D01*
X688785Y395062D01*
X686769Y395389D01*
X684924Y395764D01*
X683524Y396139D01*
X682932Y396388D01*
X682660Y396964D01*
X682341Y398253D01*
X682020Y400047D01*
X681802Y401620D01*
X681504Y403863D01*
X681227Y405379D01*
X680911Y406362D01*
X680499Y407006D01*
X680079Y407392D01*
X678508Y408238D01*
X677126Y408229D01*
X675999Y407425D01*
X675194Y405885D01*
X674775Y403669D01*
X674730Y402504D01*
X674913Y400225D01*
X675543Y398258D01*
X676740Y396341D01*
X678499Y394343D01*
X679777Y392858D01*
X680323Y391808D01*
X680311Y391456D01*
X679798Y390834D01*
X678949Y390895D01*
X677699Y391664D01*
X676087Y393068D01*
X674178Y395083D01*
X672902Y397026D01*
X672068Y399244D01*
X671657Y401086D01*
X671451Y403884D01*
X671996Y406390D01*
X673356Y408873D01*
X673536Y409126D01*
X674327Y410283D01*
X674826Y411138D01*
X674917Y411390D01*
X674560Y411835D01*
X673673Y412532D01*
X673256Y412813D01*
X672294Y413509D01*
X671817Y413999D01*
X671812Y414096D01*
X672317Y414140D01*
X673602Y414142D01*
X675523Y414104D01*
X677940Y414028D01*
X680708Y413919D01*
X681208Y413897D01*
X684788Y413715D01*
X687559Y413521D01*
X689636Y413302D01*
X691134Y413046D01*
X692167Y412741D01*
X692240Y412711D01*
X693357Y412040D01*
X694929Y410818D01*
X696794Y409180D01*
X698539Y407510D01*
X702990Y403086D01*
X709392Y405220D01*
X712019Y406078D01*
X714020Y406670D01*
X715642Y407046D01*
X717126Y407253D01*
X718719Y407339D01*
X720199Y407354D01*
X722086Y407329D01*
X723633Y407220D01*
X725097Y406974D01*
X726738Y406538D01*
X728812Y405862D01*
X730542Y405259D01*
X732922Y404426D01*
X734591Y403874D01*
X735707Y403576D01*
X736430Y403503D01*
X736918Y403627D01*
X737330Y403918D01*
X737452Y404025D01*
X738132Y404624D01*
X739360Y405701D01*
X740986Y407125D01*
X742861Y408766D01*
X743796Y409583D01*
X749169Y414281D01*
X763843Y414281D01*
X767643Y418100D01*
X769139Y419647D01*
X770358Y420987D01*
X771169Y421972D01*
X771442Y422439D01*
X771280Y423350D01*
X770865Y424800D01*
X770305Y426476D01*
X769708Y428068D01*
X769181Y429263D01*
X768953Y429648D01*
X768166Y430224D01*
X766827Y430818D01*
X765841Y431129D01*
X764402Y431485D01*
X763556Y431556D01*
X763010Y431316D01*
X762552Y430836D01*
X761858Y429821D01*
X761938Y429257D01*
X762814Y429057D01*
X763014Y429053D01*
X764776Y428909D01*
X765978Y428374D01*
X766892Y427262D01*
X767550Y425937D01*
X768316Y424029D01*
X768598Y422717D01*
X768392Y421805D01*
X767693Y421097D01*
X767402Y420905D01*
X766297Y420110D01*
X764961Y419002D01*
X764374Y418470D01*
X762617Y416821D01*
X754777Y416979D01*
X746938Y417137D01*
X745451Y415568D01*
X744167Y414337D01*
X742607Y413006D01*
X741886Y412443D01*
X740387Y411271D01*
X738932Y410054D01*
X738356Y409539D01*
X736904Y408191D01*
X732814Y409822D01*
X730550Y410642D01*
X728146Y411380D01*
X726032Y411908D01*
X725535Y412003D01*
X722450Y412329D01*
X719119Y412336D01*
X715868Y412045D01*
X713023Y411478D01*
X711868Y411102D01*
X710502Y410581D01*
X709549Y410227D01*
X709250Y410125D01*
X708942Y410484D01*
X708752Y410790D01*
X702777Y410790D01*
X702410Y410400D01*
X702324Y410334D01*
X701470Y409818D01*
X700753Y409833D01*
X699964Y410464D01*
X698942Y411734D01*
X697244Y413698D01*
X695335Y415247D01*
X693053Y416460D01*
X690236Y417416D01*
X686722Y418194D01*
X685150Y418463D01*
X683064Y418810D01*
X681341Y419117D01*
X680169Y419351D01*
X679738Y419471D01*
X680061Y419729D01*
X681061Y420318D01*
X682589Y421153D01*
X684498Y422152D01*
X684819Y422316D01*
X687815Y423904D01*
X690115Y425279D01*
X691882Y426564D01*
X693280Y427883D01*
X694474Y429360D01*
X694851Y429903D01*
X696037Y431559D01*
X697204Y433006D01*
X698200Y434071D01*
X698874Y434581D01*
X698967Y434601D01*
X699350Y434223D01*
X699816Y433322D01*
X700064Y432415D01*
X700002Y431383D01*
X699598Y429920D01*
X699380Y429281D01*
X698826Y427300D01*
X698369Y424965D01*
X698148Y423179D01*
X698134Y420306D01*
X698662Y417818D01*
X699826Y415421D01*
X701328Y413308D01*
X702306Y412035D01*
X702765Y411266D01*
X702777Y410790D01*
X708752Y410790D01*
X708406Y411346D01*
X707825Y412386D01*
X707382Y413280D01*
X707250Y413671D01*
X707662Y413960D01*
X708810Y414502D01*
X710556Y415241D01*
X712768Y416117D01*
X715308Y417076D01*
X717862Y418032D01*
X720076Y418891D01*
X721827Y419602D01*
X722981Y420111D01*
X723402Y420362D01*
X722969Y420683D01*
X721685Y421196D01*
X719601Y421887D01*
X716767Y422739D01*
X713232Y423735D01*
X712330Y423981D01*
X710214Y424586D01*
X708415Y425153D01*
X707129Y425619D01*
X706557Y425912D01*
X706712Y426094D01*
X707625Y426199D01*
X709342Y426228D01*
X711907Y426183D01*
X713946Y426118D01*
X721797Y425837D01*
X719719Y426689D01*
X718385Y427224D01*
X716489Y427970D01*
X714332Y428810D01*
X713036Y429310D01*
X708431Y431081D01*
X710002Y431721D01*
X711074Y432106D01*
X712789Y432660D01*
X714896Y433305D01*
X716855Y433881D01*
X722138Y435399D01*
X718966Y436111D01*
X717356Y436470D01*
X715103Y436968D01*
X712468Y437549D01*
X709710Y438156D01*
X708750Y438366D01*
X706344Y438908D01*
X704292Y439396D01*
X702748Y439794D01*
X701865Y440061D01*
X701715Y440142D01*
X702132Y440360D01*
X703290Y440835D01*
X705061Y441517D01*
X707315Y442358D01*
X709924Y443307D01*
X710605Y443551D01*
X713431Y444571D01*
X716076Y445541D01*
X718373Y446401D01*
X720155Y447086D01*
X721254Y447534D01*
X721335Y447570D01*
X723182Y448412D01*
X721335Y448198D01*
G37*
G54D30*
X723182Y448412D02*
X721335Y448198D01*
X720378Y448105D01*
X718646Y447955D01*
X716285Y447761D01*
X713441Y447533D01*
X710261Y447284D01*
X707393Y447064D01*
X703738Y446783D01*
X700890Y446552D01*
X698732Y446352D01*
X697150Y446165D01*
X696027Y445973D01*
X695249Y445758D01*
X694701Y445501D01*
X694266Y445184D01*
X694000Y444946D01*
X692810Y443970D01*
X691199Y442802D01*
X689411Y441604D01*
X687692Y440536D01*
X686290Y439760D01*
X685633Y439477D01*
X684647Y438800D01*
X684144Y438025D01*
X683577Y437183D01*
X683007Y436910D01*
X682321Y436711D01*
X681017Y436174D01*
X679297Y435386D01*
X677783Y434646D01*
X673271Y432382D01*
X671500Y427834D01*
X669730Y423286D01*
X670516Y421208D01*
X671230Y419230D01*
X671580Y417972D01*
X671578Y417316D01*
X671238Y417138D01*
X670945Y417191D01*
X669906Y417430D01*
X668522Y417694D01*
X668358Y417722D01*
X666642Y418011D01*
X667370Y416262D01*
X668098Y414616D01*
X668902Y412934D01*
X668980Y412780D01*
X669510Y411692D01*
X669616Y411193D01*
X669297Y411055D01*
X668984Y411048D01*
X667988Y411222D01*
X666674Y411650D01*
X666450Y411741D01*
X665328Y412185D01*
X664616Y412422D01*
X664542Y412434D01*
X664629Y412052D01*
X665063Y411022D01*
X665767Y409517D01*
X666374Y408286D01*
X667251Y406519D01*
X667945Y405075D01*
X668369Y404144D01*
X668457Y403899D01*
X668032Y403786D01*
X666907Y403701D01*
X665304Y403661D01*
X664903Y403659D01*
X661349Y403659D01*
X664326Y401535D01*
X667302Y399412D01*
X663146Y399732D01*
X658990Y400053D01*
X667416Y391421D01*
X666565Y385186D01*
X666169Y382230D01*
X665905Y380066D01*
X665769Y378572D01*
X665758Y377629D01*
X665867Y377112D01*
X666092Y376903D01*
X666307Y376874D01*
X667063Y376557D01*
X667754Y375962D01*
X668187Y375330D01*
X668384Y374502D01*
X668378Y373217D01*
X668259Y371807D01*
X668111Y370095D01*
X668126Y369030D01*
X668363Y368342D01*
X668882Y367760D01*
X669210Y367471D01*
X669877Y366798D01*
X670294Y366014D01*
X670546Y364858D01*
X670722Y363068D01*
X670739Y362834D01*
X670900Y361008D01*
X671107Y359880D01*
X671436Y359226D01*
X671966Y358820D01*
X672152Y358726D01*
X673382Y357645D01*
X674417Y355746D01*
X675213Y353120D01*
X675473Y351779D01*
X675785Y350139D01*
X676139Y349150D01*
X676681Y348545D01*
X677509Y348081D01*
X678253Y347689D01*
X678770Y347230D01*
X679144Y346515D01*
X679462Y345352D01*
X679806Y343553D01*
X679988Y342508D01*
X680256Y341059D01*
X680473Y340053D01*
X680578Y339737D01*
X681628Y339150D01*
X682635Y338054D01*
X683717Y336301D01*
X684390Y335000D01*
X685286Y333230D01*
X685924Y332146D01*
X686435Y331599D01*
X686954Y331440D01*
X687507Y331499D01*
X688323Y331547D01*
X688885Y331185D01*
X689430Y330215D01*
X689655Y329710D01*
X690289Y327959D01*
X690777Y326116D01*
X690856Y325689D01*
X691106Y324457D01*
X691438Y323934D01*
X692028Y323907D01*
X692299Y323969D01*
X693189Y323963D01*
X694101Y323436D01*
X695110Y322301D01*
X696292Y320474D01*
X697723Y317868D01*
X697736Y317842D01*
X698689Y316053D01*
X699305Y315008D01*
X699656Y314620D01*
X699813Y314805D01*
X699845Y315285D01*
X699728Y316063D01*
X699390Y317608D01*
X698864Y319797D01*
X698183Y322511D01*
X697378Y325626D01*
X696483Y329022D01*
X695530Y332577D01*
X694552Y336168D01*
X693580Y339676D01*
X692648Y342978D01*
X691788Y345952D01*
X691032Y348477D01*
X690608Y349836D01*
X689954Y351754D01*
X689338Y353350D01*
X688846Y354410D01*
X688639Y354705D01*
X687999Y355212D01*
X686881Y356081D01*
X685678Y357008D01*
X683840Y358580D01*
X682747Y359886D01*
X682438Y360876D01*
X682535Y361160D01*
X683104Y361438D01*
X684308Y361720D01*
X685558Y361903D01*
X688315Y362215D01*
X688315Y379464D01*
X689760Y381748D01*
X691735Y384524D01*
X694033Y387199D01*
X696401Y389494D01*
X697965Y390728D01*
X699187Y391622D01*
X700034Y392319D01*
X700301Y392629D01*
X700057Y393147D01*
X699432Y394044D01*
X699325Y394180D01*
X698583Y394979D01*
X697822Y395253D01*
X696631Y395132D01*
X696439Y395097D01*
X694765Y394879D01*
X692846Y394755D01*
X692240Y394744D01*
X690700Y394831D01*
X688785Y395062D01*
X686769Y395389D01*
X684924Y395764D01*
X683524Y396139D01*
X682932Y396388D01*
X682660Y396964D01*
X682341Y398253D01*
X682020Y400047D01*
X681802Y401620D01*
X681504Y403863D01*
X681227Y405379D01*
X680911Y406362D01*
X680499Y407006D01*
X680079Y407392D01*
X678508Y408238D01*
X677126Y408229D01*
X675999Y407425D01*
X675194Y405885D01*
X674775Y403669D01*
X674730Y402504D01*
X674913Y400225D01*
X675543Y398258D01*
X676740Y396341D01*
X678499Y394343D01*
X679777Y392858D01*
X680323Y391808D01*
X680311Y391456D01*
X679798Y390834D01*
X678949Y390895D01*
X677699Y391664D01*
X676087Y393068D01*
X674178Y395083D01*
X672902Y397026D01*
X672068Y399244D01*
X671657Y401086D01*
X671451Y403884D01*
X671996Y406390D01*
X673356Y408873D01*
X673536Y409126D01*
X674327Y410283D01*
X674826Y411138D01*
X674917Y411390D01*
X674560Y411835D01*
X673673Y412532D01*
X673256Y412813D01*
X672294Y413509D01*
X671817Y413999D01*
X671812Y414096D01*
X672317Y414140D01*
X673602Y414142D01*
X675523Y414104D01*
X677940Y414028D01*
X680708Y413919D01*
X681208Y413897D01*
X684788Y413715D01*
X687559Y413521D01*
X689636Y413302D01*
X691134Y413046D01*
X692167Y412741D01*
X692240Y412711D01*
X693357Y412040D01*
X694929Y410818D01*
X696794Y409180D01*
X698539Y407510D01*
X702990Y403086D01*
X709392Y405220D01*
X712019Y406078D01*
X714020Y406670D01*
X715642Y407046D01*
X717126Y407253D01*
X718719Y407339D01*
X720199Y407354D01*
X722086Y407329D01*
X723633Y407220D01*
X725097Y406974D01*
X726738Y406538D01*
X728812Y405862D01*
X730542Y405259D01*
X732922Y404426D01*
X734591Y403874D01*
X735707Y403576D01*
X736430Y403503D01*
X736918Y403627D01*
X737330Y403918D01*
X737452Y404025D01*
X738132Y404624D01*
X739360Y405701D01*
X740986Y407125D01*
X742861Y408766D01*
X743796Y409583D01*
X749169Y414281D01*
X763843Y414281D01*
X767643Y418100D01*
X769139Y419647D01*
X770358Y420987D01*
X771169Y421972D01*
X771442Y422439D01*
X771280Y423350D01*
X770865Y424800D01*
X770305Y426476D01*
X769708Y428068D01*
X769181Y429263D01*
X768953Y429648D01*
X768166Y430224D01*
X766827Y430818D01*
X765841Y431129D01*
X764402Y431485D01*
X763556Y431556D01*
X763010Y431316D01*
X762552Y430836D01*
X761858Y429821D01*
X761938Y429257D01*
X762814Y429057D01*
X763014Y429053D01*
X764776Y428909D01*
X765978Y428374D01*
X766892Y427262D01*
X767550Y425937D01*
X768316Y424029D01*
X768598Y422717D01*
X768392Y421805D01*
X767693Y421097D01*
X767402Y420905D01*
X766297Y420110D01*
X764961Y419002D01*
X764374Y418470D01*
X762617Y416821D01*
X754777Y416979D01*
X746938Y417137D01*
X745451Y415568D01*
X744167Y414337D01*
X742607Y413006D01*
X741886Y412443D01*
X740387Y411271D01*
X738932Y410054D01*
X738356Y409539D01*
X736904Y408191D01*
X732814Y409822D01*
X730550Y410642D01*
X728146Y411380D01*
X726032Y411908D01*
X725535Y412003D01*
X722450Y412329D01*
X719119Y412336D01*
X715868Y412045D01*
X713023Y411478D01*
X711868Y411102D01*
X710502Y410581D01*
X709549Y410227D01*
X709250Y410125D01*
X708942Y410484D01*
X708752Y410790D01*
X702777Y410790D01*
X702410Y410400D01*
X702324Y410334D01*
X701470Y409818D01*
X700753Y409833D01*
X699964Y410464D01*
X698942Y411734D01*
X697244Y413698D01*
X695335Y415247D01*
X693053Y416460D01*
X690236Y417416D01*
X686722Y418194D01*
X685150Y418463D01*
X683064Y418810D01*
X681341Y419117D01*
X680169Y419351D01*
X679738Y419471D01*
X680061Y419729D01*
X681061Y420318D01*
X682589Y421153D01*
X684498Y422152D01*
X684819Y422316D01*
X687815Y423904D01*
X690115Y425279D01*
X691882Y426564D01*
X693280Y427883D01*
X694474Y429360D01*
X694851Y429903D01*
X696037Y431559D01*
X697204Y433006D01*
X698200Y434071D01*
X698874Y434581D01*
X698967Y434601D01*
X699350Y434223D01*
X699816Y433322D01*
X700064Y432415D01*
X700002Y431383D01*
X699598Y429920D01*
X699380Y429281D01*
X698826Y427300D01*
X698369Y424965D01*
X698148Y423179D01*
X698134Y420306D01*
X698662Y417818D01*
X699826Y415421D01*
X701328Y413308D01*
X702306Y412035D01*
X702765Y411266D01*
X702777Y410790D01*
X708752Y410790D01*
X708406Y411346D01*
X707825Y412386D01*
X707382Y413280D01*
X707250Y413671D01*
X707662Y413960D01*
X708810Y414502D01*
X710556Y415241D01*
X712768Y416117D01*
X715308Y417076D01*
X715320Y417080D01*
X717862Y418032D01*
X720076Y418891D01*
X721827Y419602D01*
X722981Y420111D01*
X723402Y420362D01*
X723402Y420362D01*
X722969Y420683D01*
X721685Y421196D01*
X719601Y421887D01*
X716767Y422739D01*
X713232Y423735D01*
X712330Y423981D01*
X710214Y424586D01*
X708415Y425153D01*
X707129Y425619D01*
X706557Y425912D01*
X706712Y426094D01*
X707625Y426199D01*
X709342Y426228D01*
X711907Y426183D01*
X713946Y426118D01*
X721797Y425837D01*
X719719Y426689D01*
X718385Y427224D01*
X716489Y427970D01*
X714332Y428810D01*
X713036Y429310D01*
X708431Y431081D01*
X710002Y431721D01*
X711074Y432106D01*
X712789Y432660D01*
X714896Y433305D01*
X716855Y433881D01*
X722138Y435399D01*
X718966Y436111D01*
X717356Y436470D01*
X715103Y436968D01*
X712468Y437549D01*
X709710Y438156D01*
X708750Y438366D01*
X706344Y438908D01*
X704292Y439396D01*
X702748Y439794D01*
X701865Y440061D01*
X701715Y440142D01*
X702132Y440360D01*
X703290Y440835D01*
X705061Y441517D01*
X707315Y442358D01*
X709924Y443307D01*
X710605Y443551D01*
X713431Y444571D01*
X716076Y445541D01*
X718373Y446401D01*
X720155Y447086D01*
X721254Y447534D01*
X721335Y447570D01*
X723182Y448412D01*
G36*
X740338Y359568D02*
X740499Y358822D01*
X741315Y357907D01*
X741397Y357841D01*
X742713Y356784D01*
X741586Y351474D01*
X741047Y348820D01*
X740506Y345973D01*
X740042Y343349D01*
X739825Y342006D01*
X739282Y339254D01*
X738470Y336638D01*
X737259Y333751D01*
X737027Y333252D01*
X735631Y330196D01*
X734402Y327331D01*
X733394Y324798D01*
X732662Y322734D01*
X732258Y321278D01*
X732195Y320773D01*
X732419Y319635D01*
X732650Y319146D01*
X733009Y318710D01*
X733103Y319116D01*
X733104Y319222D01*
X733293Y320129D01*
X733805Y321706D01*
X734576Y323786D01*
X735538Y326203D01*
X736628Y328788D01*
X737778Y331374D01*
X738415Y332740D01*
X739655Y335555D01*
X740493Y338015D01*
X741057Y340521D01*
X741218Y341515D01*
X741584Y343758D01*
X742078Y346504D01*
X742628Y349355D01*
X743014Y351243D01*
X743465Y353414D01*
X743835Y355266D01*
X744086Y356605D01*
X744180Y357240D01*
X743830Y357764D01*
X742948Y358553D01*
X742386Y358974D01*
X741256Y359702D01*
X740635Y359877D01*
X740338Y359568D01*
G37*
G54D30*
X740635Y359877D02*
X740338Y359568D01*
X740499Y358822D01*
X741315Y357907D01*
X741397Y357841D01*
X742713Y356784D01*
X741586Y351474D01*
X741047Y348820D01*
X740506Y345973D01*
X740042Y343349D01*
X739825Y342006D01*
X739282Y339254D01*
X738470Y336638D01*
X737259Y333751D01*
X737027Y333252D01*
X735631Y330196D01*
X734402Y327331D01*
X733394Y324798D01*
X732662Y322734D01*
X732258Y321278D01*
X732195Y320773D01*
X732419Y319635D01*
X732650Y319146D01*
X733009Y318710D01*
X733103Y319116D01*
X733104Y319222D01*
X733293Y320129D01*
X733805Y321706D01*
X734576Y323786D01*
X735538Y326203D01*
X736628Y328788D01*
X737778Y331374D01*
X738415Y332740D01*
X739655Y335555D01*
X740493Y338015D01*
X741057Y340521D01*
X741218Y341515D01*
X741584Y343758D01*
X742078Y346504D01*
X742628Y349355D01*
X743014Y351243D01*
X743465Y353414D01*
X743835Y355266D01*
X744086Y356605D01*
X744180Y357240D01*
X744180Y357246D01*
X743830Y357764D01*
X742948Y358553D01*
X742386Y358974D01*
X741256Y359702D01*
X740635Y359877D01*
G36*
X697774Y360077D02*
X697520Y359928D01*
X696462Y359288D01*
X695716Y358707D01*
X695257Y358029D01*
X695057Y357099D01*
X695088Y355762D01*
X695324Y353861D01*
X695737Y351241D01*
X695862Y350475D01*
X696291Y347746D01*
X696686Y345079D01*
X697012Y342726D01*
X697231Y340938D01*
X697278Y340473D01*
X697892Y337384D01*
X699188Y333882D01*
X699236Y333777D01*
X700074Y331788D01*
X701063Y329262D01*
X702073Y326541D01*
X702877Y324250D01*
X703670Y321945D01*
X704232Y320423D01*
X704614Y319584D01*
X704868Y319331D01*
X705044Y319568D01*
X705141Y319933D01*
X705135Y321398D01*
X704646Y323632D01*
X703681Y326618D01*
X702244Y330340D01*
X701018Y333241D01*
X699644Y336788D01*
X698868Y339751D01*
X698712Y340861D01*
X698518Y342534D01*
X698216Y344805D01*
X697848Y347362D01*
X697501Y349626D01*
X697140Y351915D01*
X696823Y353942D01*
X696583Y355495D01*
X696454Y356359D01*
X696715Y357383D01*
X697626Y358141D01*
X698568Y358967D01*
X698937Y359839D01*
X698888Y360424D01*
X698581Y360498D01*
X697774Y360077D01*
G37*
G54D30*
X698581Y360498D02*
X697774Y360077D01*
X697520Y359928D01*
X696462Y359288D01*
X695716Y358707D01*
X695257Y358029D01*
X695057Y357099D01*
X695088Y355762D01*
X695324Y353861D01*
X695737Y351241D01*
X695862Y350475D01*
X696291Y347746D01*
X696686Y345079D01*
X697012Y342726D01*
X697231Y340938D01*
X697278Y340473D01*
X697892Y337384D01*
X699188Y333882D01*
X699236Y333777D01*
X700074Y331788D01*
X701063Y329262D01*
X702073Y326541D01*
X702877Y324250D01*
X703670Y321945D01*
X704232Y320423D01*
X704614Y319584D01*
X704868Y319331D01*
X705044Y319568D01*
X705141Y319933D01*
X705135Y321398D01*
X704646Y323632D01*
X703681Y326618D01*
X702244Y330340D01*
X701018Y333241D01*
X699644Y336788D01*
X698868Y339751D01*
X698712Y340861D01*
X698518Y342534D01*
X698216Y344805D01*
X697848Y347362D01*
X697501Y349626D01*
X697140Y351915D01*
X696823Y353942D01*
X696583Y355495D01*
X696454Y356359D01*
X696450Y356383D01*
X696715Y357383D01*
X697626Y358141D01*
X698568Y358967D01*
X698937Y359839D01*
X698888Y360424D01*
X698581Y360498D01*
G36*
X709971Y348908D02*
X710657Y348258D01*
X711478Y347582D01*
X713258Y346154D01*
X714430Y345117D01*
X715118Y344303D01*
X715452Y343546D01*
X715556Y342677D01*
X715562Y342211D01*
X715688Y340538D01*
X716024Y338278D01*
X716509Y335727D01*
X717081Y333181D01*
X717678Y330935D01*
X718241Y329286D01*
X719103Y327256D01*
X719877Y328437D01*
X720244Y329324D01*
X720707Y330911D01*
X721219Y332982D01*
X721735Y335325D01*
X722212Y337726D01*
X722602Y339970D01*
X722863Y341844D01*
X722949Y343050D01*
X723005Y343877D01*
X723266Y344560D01*
X723873Y345266D01*
X724968Y346164D01*
X726574Y347335D01*
X727653Y348162D01*
X728300Y348764D01*
X728393Y348957D01*
X727899Y348917D01*
X726715Y348660D01*
X725035Y348231D01*
X723640Y347846D01*
X719073Y346549D01*
X714662Y347848D01*
X712754Y348401D01*
X711178Y348838D01*
X710142Y349103D01*
X709862Y349156D01*
X709971Y348908D01*
G37*
G54D30*
X709862Y349156D02*
X709971Y348908D01*
X710657Y348258D01*
X711478Y347582D01*
X713258Y346154D01*
X714430Y345117D01*
X715118Y344303D01*
X715452Y343546D01*
X715556Y342677D01*
X715562Y342211D01*
X715688Y340538D01*
X716024Y338278D01*
X716509Y335727D01*
X717081Y333181D01*
X717678Y330935D01*
X718241Y329286D01*
X718256Y329251D01*
X719103Y327256D01*
X719877Y328437D01*
X720244Y329324D01*
X720707Y330911D01*
X721219Y332982D01*
X721735Y335325D01*
X722212Y337726D01*
X722602Y339970D01*
X722863Y341844D01*
X722949Y343050D01*
X723005Y343877D01*
X723266Y344560D01*
X723873Y345266D01*
X724968Y346164D01*
X726574Y347335D01*
X727653Y348162D01*
X728300Y348764D01*
X728393Y348957D01*
X727899Y348917D01*
X726715Y348660D01*
X725035Y348231D01*
X723640Y347846D01*
X719073Y346549D01*
X714662Y347848D01*
X712754Y348401D01*
X711178Y348838D01*
X710142Y349103D01*
X709862Y349156D01*
G36*
X732761Y365535D02*
X732457Y365360D01*
X731882Y364314D01*
X731772Y362607D01*
X732126Y360375D01*
X732502Y359021D01*
X732869Y357696D01*
X733039Y356489D01*
X733023Y355095D01*
X732829Y353207D01*
X732717Y352339D01*
X732490Y350475D01*
X732351Y348987D01*
X732316Y348090D01*
X732345Y347929D01*
X732722Y348146D01*
X733522Y348899D01*
X734505Y349953D01*
X736384Y352456D01*
X737763Y355102D01*
X738601Y357728D01*
X738856Y360170D01*
X738487Y362265D01*
X737919Y363330D01*
X736798Y364406D01*
X735373Y365203D01*
X733931Y365615D01*
X732761Y365535D01*
G37*
G54D30*
X733931Y365615D02*
X732761Y365535D01*
X732457Y365360D01*
X731882Y364314D01*
X731772Y362607D01*
X732126Y360375D01*
X732502Y359021D01*
X732869Y357696D01*
X733039Y356489D01*
X733023Y355095D01*
X732829Y353207D01*
X732717Y352339D01*
X732490Y350475D01*
X732351Y348987D01*
X732316Y348090D01*
X732345Y347929D01*
X732722Y348146D01*
X733522Y348899D01*
X734505Y349953D01*
X736384Y352456D01*
X737763Y355102D01*
X738601Y357728D01*
X738856Y360170D01*
X738487Y362265D01*
X737919Y363330D01*
X736798Y364406D01*
X735373Y365203D01*
X733931Y365615D01*
G36*
X704050Y365220D02*
X703072Y364799D01*
X701942Y363808D01*
X700968Y362725D01*
X700492Y361756D01*
X700333Y360465D01*
X700322Y359675D01*
X700726Y356981D01*
X701874Y354093D01*
X703676Y351211D01*
X704977Y349626D01*
X706006Y348503D01*
X706543Y348014D01*
X706711Y348105D01*
X706635Y348725D01*
X706597Y348934D01*
X706082Y352473D01*
X705991Y355436D01*
X706322Y358068D01*
X706532Y358937D01*
X706931Y360751D01*
X707157Y362464D01*
X707172Y363482D01*
X706988Y364548D01*
X706514Y365038D01*
X705449Y365226D01*
X705270Y365242D01*
X704050Y365220D01*
G37*
G54D30*
X705270Y365242D02*
X704050Y365220D01*
X703072Y364799D01*
X701942Y363808D01*
X701922Y363787D01*
X700968Y362725D01*
X700492Y361756D01*
X700333Y360465D01*
X700322Y359675D01*
X700726Y356981D01*
X701874Y354093D01*
X703676Y351211D01*
X704977Y349626D01*
X706006Y348503D01*
X706543Y348014D01*
X706711Y348105D01*
X706635Y348725D01*
X706597Y348934D01*
X706082Y352473D01*
X705991Y355436D01*
X706322Y358068D01*
X706532Y358937D01*
X706931Y360751D01*
X707157Y362464D01*
X707172Y363482D01*
X706988Y364548D01*
X706514Y365038D01*
X705449Y365226D01*
X705270Y365242D01*
G36*
X726713Y366654D02*
X726319Y366309D01*
X726194Y365434D01*
X726184Y364560D01*
X726590Y362059D01*
X727358Y360404D01*
X728058Y359260D01*
X728557Y358535D01*
X728694Y358401D01*
X728946Y358786D01*
X729391Y359756D01*
X729598Y360258D01*
X730089Y361994D01*
X730334Y363857D01*
X730341Y364134D01*
X730209Y365571D01*
X729684Y366358D01*
X728568Y366674D01*
X727532Y366714D01*
X726713Y366654D01*
G37*
G54D30*
X727532Y366714D02*
X726713Y366654D01*
X726319Y366309D01*
X726194Y365434D01*
X726184Y364560D01*
X726590Y362059D01*
X727358Y360404D01*
X728058Y359260D01*
X728557Y358535D01*
X728694Y358401D01*
X728946Y358786D01*
X729391Y359756D01*
X729598Y360258D01*
X730089Y361994D01*
X730334Y363857D01*
X730341Y364134D01*
X730209Y365571D01*
X729684Y366358D01*
X728568Y366674D01*
X727532Y366714D01*
G36*
X709767Y366579D02*
X708981Y366046D01*
X708670Y364915D01*
X708635Y363950D01*
X708746Y362693D01*
X709028Y361232D01*
X709404Y359844D01*
X709800Y358809D01*
X710140Y358406D01*
X710435Y358758D01*
X711037Y359630D01*
X711291Y360016D01*
X712034Y361609D01*
X712318Y363553D01*
X712330Y364167D01*
X712298Y365625D01*
X712139Y366385D01*
X711753Y366673D01*
X711213Y366714D01*
X709767Y366579D01*
G37*
G54D30*
X711213Y366714D02*
X709767Y366579D01*
X708981Y366046D01*
X708670Y364915D01*
X708635Y363950D01*
X708746Y362693D01*
X709028Y361232D01*
X709404Y359844D01*
X709800Y358809D01*
X710140Y358406D01*
X710142Y358407D01*
X710435Y358758D01*
X711037Y359630D01*
X711291Y360016D01*
X712034Y361609D01*
X712318Y363553D01*
X712330Y364167D01*
X712298Y365625D01*
X712139Y366385D01*
X711753Y366673D01*
X711213Y366714D01*
G36*
X720994Y366759D02*
X720380Y366038D01*
X719959Y364594D01*
X720289Y362861D01*
X721333Y361028D01*
X721460Y360865D01*
X722259Y359866D01*
X723298Y361474D01*
X724067Y363116D01*
X724327Y364711D01*
X724072Y366011D01*
X723444Y366697D01*
X722064Y367143D01*
X720994Y366759D01*
G37*
G54D30*
X722064Y367143D02*
X720994Y366759D01*
X720380Y366038D01*
X719959Y364594D01*
X720289Y362861D01*
X721333Y361028D01*
X721460Y360865D01*
X722259Y359866D01*
X723298Y361474D01*
X724067Y363116D01*
X724327Y364711D01*
X724072Y366011D01*
X723444Y366697D01*
X722064Y367143D01*
G36*
X715872Y367467D02*
X714830Y366809D01*
X714391Y365613D01*
X714549Y364039D01*
X715298Y362245D01*
X716105Y361028D01*
X716531Y360589D01*
X716911Y360683D01*
X717433Y361426D01*
X717800Y362067D01*
X718561Y363926D01*
X718705Y365542D01*
X718284Y366771D01*
X717350Y367468D01*
X715954Y367487D01*
X715872Y367467D01*
G37*
G54D30*
X715954Y367487D02*
X715872Y367467D01*
X714830Y366809D01*
X714391Y365613D01*
X714549Y364039D01*
X715298Y362245D01*
X716105Y361028D01*
X716531Y360589D01*
X716911Y360683D01*
X717433Y361426D01*
X717800Y362067D01*
X718561Y363926D01*
X718705Y365542D01*
X718284Y366771D01*
X717350Y367468D01*
X715954Y367487D01*
G36*
X732389Y392335D02*
X731043Y391477D01*
X729669Y389774D01*
X729544Y389587D01*
X728505Y388179D01*
X727061Y386453D01*
X725479Y384723D01*
X725042Y384275D01*
X723629Y382831D01*
X722746Y381810D01*
X722267Y380979D01*
X722069Y380108D01*
X722028Y378966D01*
X722028Y378660D01*
X722028Y376082D01*
X725785Y375824D01*
X729084Y375336D01*
X732173Y374290D01*
X735213Y372606D01*
X738366Y370200D01*
X740261Y368490D01*
X741935Y366924D01*
X743058Y365938D01*
X743738Y365462D01*
X744080Y365425D01*
X744191Y365758D01*
X744195Y365913D01*
X743879Y368506D01*
X742911Y370492D01*
X742226Y371235D01*
X740735Y372596D01*
X739809Y373486D01*
X739318Y374044D01*
X739133Y374410D01*
X739115Y374570D01*
X739457Y374636D01*
X740322Y374265D01*
X740847Y373960D01*
X742327Y373046D01*
X743190Y372539D01*
X743602Y372355D01*
X743726Y372411D01*
X743733Y372487D01*
X743439Y372936D01*
X742660Y373867D01*
X741552Y375094D01*
X741309Y375355D01*
X738884Y377937D01*
X740673Y377656D01*
X742117Y377255D01*
X743309Y376641D01*
X743428Y376547D01*
X744082Y376008D01*
X744137Y376107D01*
X743676Y376874D01*
X742929Y377727D01*
X741681Y378828D01*
X740291Y379875D01*
X738932Y380837D01*
X738254Y381405D01*
X738175Y381698D01*
X738606Y381837D01*
X738865Y381872D01*
X740207Y381828D01*
X741572Y381527D01*
X743040Y381033D01*
X741886Y381946D01*
X740581Y382765D01*
X739231Y383365D01*
X738223Y383813D01*
X737738Y384238D01*
X738136Y384873D01*
X739138Y385388D01*
X740410Y385693D01*
X741193Y385716D01*
X741867Y385689D01*
X742120Y385821D01*
X741892Y386242D01*
X741123Y387083D01*
X740078Y388148D01*
X738551Y389565D01*
X736946Y390849D01*
X735610Y391724D01*
X733860Y392401D01*
X732389Y392335D01*
G37*
G54D30*
X733860Y392401D02*
X732389Y392335D01*
X731043Y391477D01*
X729669Y389774D01*
X729544Y389587D01*
X728505Y388179D01*
X727061Y386453D01*
X725479Y384723D01*
X725042Y384275D01*
X723629Y382831D01*
X722746Y381810D01*
X722267Y380979D01*
X722069Y380108D01*
X722028Y378966D01*
X722028Y378660D01*
X722028Y376082D01*
X725785Y375824D01*
X729084Y375336D01*
X732173Y374290D01*
X735213Y372606D01*
X738366Y370200D01*
X740261Y368490D01*
X741935Y366924D01*
X743058Y365938D01*
X743738Y365462D01*
X744080Y365425D01*
X744191Y365758D01*
X744195Y365913D01*
X743879Y368506D01*
X742911Y370492D01*
X742226Y371235D01*
X740735Y372596D01*
X739809Y373486D01*
X739318Y374044D01*
X739133Y374410D01*
X739115Y374570D01*
X739457Y374636D01*
X740322Y374265D01*
X740847Y373960D01*
X742327Y373046D01*
X743190Y372539D01*
X743602Y372355D01*
X743726Y372411D01*
X743733Y372487D01*
X743439Y372936D01*
X742660Y373867D01*
X741552Y375094D01*
X741309Y375355D01*
X738884Y377937D01*
X740673Y377656D01*
X742117Y377255D01*
X743309Y376641D01*
X743428Y376547D01*
X744082Y376008D01*
X744137Y376107D01*
X743676Y376874D01*
X742929Y377727D01*
X741681Y378828D01*
X740291Y379875D01*
X738932Y380837D01*
X738254Y381405D01*
X738175Y381698D01*
X738606Y381837D01*
X738865Y381872D01*
X740207Y381828D01*
X741572Y381527D01*
X743040Y381033D01*
X741886Y381946D01*
X740581Y382765D01*
X739231Y383365D01*
X738223Y383813D01*
X737738Y384238D01*
X737730Y384282D01*
X738136Y384873D01*
X739138Y385388D01*
X740410Y385693D01*
X741193Y385716D01*
X741867Y385689D01*
X742120Y385821D01*
X741892Y386242D01*
X741123Y387083D01*
X740078Y388148D01*
X738551Y389565D01*
X736946Y390849D01*
X735610Y391724D01*
X735604Y391727D01*
X733860Y392401D01*
G36*
X706529Y392416D02*
X705241Y391950D01*
X703567Y390980D01*
X703314Y390817D01*
X701672Y389676D01*
X699989Y388393D01*
X698432Y387109D01*
X697168Y385967D01*
X696365Y385109D01*
X696166Y384740D01*
X696547Y384646D01*
X697499Y384857D01*
X697898Y384990D01*
X699356Y385461D01*
X700370Y385591D01*
X701348Y385395D01*
X702010Y385159D01*
X703296Y384670D01*
X700771Y383290D01*
X699068Y382317D01*
X698046Y381641D01*
X697743Y381299D01*
X698199Y381325D01*
X698800Y381513D01*
X700236Y381833D01*
X701509Y381872D01*
X702130Y381760D01*
X702253Y381542D01*
X701796Y381093D01*
X700674Y380287D01*
X700272Y380009D01*
X698874Y378964D01*
X697740Y377967D01*
X697188Y377333D01*
X696837Y376709D01*
X696995Y376612D01*
X697807Y376998D01*
X697974Y377084D01*
X699250Y377589D01*
X700363Y377797D01*
X700824Y377722D01*
X700833Y377404D01*
X700321Y376708D01*
X699231Y375508D01*
X698154Y374317D01*
X697385Y373390D01*
X697090Y372929D01*
X697449Y372969D01*
X698376Y373382D01*
X699238Y373839D01*
X700474Y374469D01*
X701352Y374806D01*
X701612Y374814D01*
X701417Y374412D01*
X700689Y373569D01*
X699584Y372461D01*
X699501Y372383D01*
X697950Y370730D01*
X697090Y369301D01*
X696853Y368492D01*
X696646Y367077D01*
X696714Y366290D01*
X697134Y366138D01*
X697988Y366629D01*
X699352Y367771D01*
X700553Y368869D01*
X703864Y371667D01*
X706987Y373689D01*
X710084Y375014D01*
X713316Y375721D01*
X714898Y375861D01*
X718795Y376066D01*
X718795Y381427D01*
X715308Y384560D01*
X713414Y386404D01*
X711797Y388248D01*
X710676Y389837D01*
X710574Y390019D01*
X709778Y391377D01*
X709091Y392102D01*
X708261Y392413D01*
X707701Y392482D01*
X706529Y392416D01*
G37*
G54D30*
X707701Y392482D02*
X706529Y392416D01*
X705241Y391950D01*
X703567Y390980D01*
X703314Y390817D01*
X701672Y389676D01*
X699989Y388393D01*
X698432Y387109D01*
X697168Y385967D01*
X696365Y385109D01*
X696166Y384740D01*
X696547Y384646D01*
X697499Y384857D01*
X697898Y384990D01*
X699356Y385461D01*
X700370Y385591D01*
X701348Y385395D01*
X702010Y385159D01*
X703296Y384670D01*
X700771Y383290D01*
X699068Y382317D01*
X698046Y381641D01*
X697743Y381299D01*
X698199Y381325D01*
X698800Y381513D01*
X700236Y381833D01*
X701509Y381872D01*
X702130Y381760D01*
X702253Y381542D01*
X701796Y381093D01*
X700674Y380287D01*
X700272Y380009D01*
X698874Y378964D01*
X697740Y377967D01*
X697188Y377333D01*
X696837Y376709D01*
X696995Y376612D01*
X697807Y376998D01*
X697974Y377084D01*
X699250Y377589D01*
X700363Y377797D01*
X700824Y377722D01*
X700833Y377404D01*
X700321Y376708D01*
X699231Y375508D01*
X698154Y374317D01*
X697385Y373390D01*
X697090Y372929D01*
X697090Y372928D01*
X697449Y372969D01*
X698376Y373382D01*
X699238Y373839D01*
X700474Y374469D01*
X701352Y374806D01*
X701612Y374814D01*
X701417Y374412D01*
X700689Y373569D01*
X699584Y372461D01*
X699501Y372383D01*
X697950Y370730D01*
X697090Y369301D01*
X696853Y368492D01*
X696646Y367077D01*
X696714Y366290D01*
X697134Y366138D01*
X697988Y366629D01*
X699352Y367771D01*
X700553Y368869D01*
X703864Y371667D01*
X706987Y373689D01*
X710084Y375014D01*
X713316Y375721D01*
X714898Y375861D01*
X718795Y376066D01*
X718795Y381427D01*
X715308Y384560D01*
X713414Y386404D01*
X711797Y388248D01*
X710676Y389837D01*
X710574Y390019D01*
X709778Y391377D01*
X709091Y392102D01*
X708261Y392413D01*
X707701Y392482D01*
G36*
X715807Y399720D02*
X714062Y399001D01*
X712666Y398272D01*
X712023Y397730D01*
X712033Y397206D01*
X712594Y396534D01*
X713043Y396241D01*
X713805Y396037D01*
X715023Y395907D01*
X716844Y395838D01*
X719410Y395815D01*
X720098Y395815D01*
X722528Y395840D01*
X724638Y395903D01*
X726250Y395995D01*
X727188Y396110D01*
X727339Y396162D01*
X727997Y396793D01*
X728398Y397265D01*
X728600Y397663D01*
X728407Y398013D01*
X727682Y398405D01*
X726285Y398925D01*
X725218Y399286D01*
X721762Y400160D01*
X718688Y400307D01*
X715807Y399720D01*
G37*
G54D30*
X718688Y400307D02*
X715807Y399720D01*
X714062Y399001D01*
X712666Y398272D01*
X712023Y397730D01*
X712033Y397206D01*
X712594Y396534D01*
X713043Y396241D01*
X713805Y396037D01*
X715023Y395907D01*
X716844Y395838D01*
X719410Y395815D01*
X720098Y395815D01*
X722528Y395840D01*
X724638Y395903D01*
X726250Y395995D01*
X727188Y396110D01*
X727339Y396162D01*
X727997Y396793D01*
X728398Y397265D01*
X728600Y397663D01*
X728407Y398013D01*
X727682Y398405D01*
X726285Y398925D01*
X725218Y399286D01*
X721762Y400160D01*
X718688Y400307D01*
G36*
X780725Y435968D02*
X778534Y435948D01*
X777046Y435877D01*
X776041Y435707D01*
X775298Y435389D01*
X774597Y434876D01*
X774213Y434548D01*
X772597Y433148D01*
X774906Y433528D01*
X776538Y433701D01*
X778596Y433784D01*
X780840Y433784D01*
X783028Y433708D01*
X784916Y433562D01*
X786265Y433352D01*
X786702Y433205D01*
X787536Y432404D01*
X787849Y431792D01*
X788271Y430833D01*
X789065Y429319D01*
X790103Y427469D01*
X791257Y425503D01*
X792398Y423642D01*
X793399Y422106D01*
X793917Y421380D01*
X795175Y419731D01*
X794046Y418864D01*
X793066Y418240D01*
X792348Y417986D01*
X791769Y417780D01*
X790515Y417216D01*
X788732Y416363D01*
X786565Y415290D01*
X784576Y414281D01*
X782295Y413094D01*
X780380Y412066D01*
X778950Y411262D01*
X778121Y410749D01*
X777986Y410589D01*
X778751Y410662D01*
X780099Y410847D01*
X781343Y411041D01*
X782828Y411247D01*
X783905Y411328D01*
X784293Y411283D01*
X784073Y410888D01*
X783328Y409949D01*
X782165Y408593D01*
X780692Y406948D01*
X780177Y406386D01*
X775853Y401697D01*
X779699Y403631D01*
X781393Y404448D01*
X782759Y405043D01*
X783603Y405333D01*
X783774Y405336D01*
X783560Y404938D01*
X782811Y404015D01*
X781641Y402700D01*
X780164Y401125D01*
X779966Y400920D01*
X778480Y399350D01*
X777307Y398054D01*
X776553Y397155D01*
X776324Y396774D01*
X776874Y396984D01*
X778075Y397553D01*
X779796Y398402D01*
X781886Y399459D01*
X783219Y400143D01*
X785655Y401404D01*
X787998Y402623D01*
X790035Y403689D01*
X791554Y404491D01*
X791990Y404724D01*
X793350Y405409D01*
X794422Y405861D01*
X794843Y405968D01*
X795828Y406389D01*
X796534Y407513D01*
X796839Y409133D01*
X796843Y409349D01*
X796926Y410728D01*
X797144Y412647D01*
X797456Y414741D01*
X797535Y415204D01*
X797849Y417041D01*
X798089Y418543D01*
X798216Y419467D01*
X798227Y419614D01*
X797968Y420154D01*
X797259Y421271D01*
X796209Y422806D01*
X794923Y424597D01*
X794852Y424694D01*
X793353Y426803D01*
X791896Y428970D01*
X790664Y430916D01*
X789953Y432148D01*
X789096Y433626D01*
X788236Y434669D01*
X787195Y435351D01*
X785796Y435746D01*
X783858Y435927D01*
X781204Y435969D01*
X780725Y435968D01*
G37*
G54D30*
X781204Y435969D02*
X780725Y435968D01*
X778534Y435948D01*
X777046Y435877D01*
X776041Y435707D01*
X775298Y435389D01*
X774597Y434876D01*
X774213Y434548D01*
X772597Y433148D01*
X774906Y433528D01*
X776538Y433701D01*
X778596Y433784D01*
X780840Y433784D01*
X783028Y433708D01*
X784916Y433562D01*
X786265Y433352D01*
X786702Y433205D01*
X787536Y432404D01*
X787849Y431792D01*
X788271Y430833D01*
X789065Y429319D01*
X790103Y427469D01*
X791257Y425503D01*
X792398Y423642D01*
X793399Y422106D01*
X793917Y421380D01*
X795175Y419731D01*
X794046Y418864D01*
X793066Y418240D01*
X792348Y417986D01*
X791769Y417780D01*
X790515Y417216D01*
X788732Y416363D01*
X786565Y415290D01*
X784576Y414281D01*
X782295Y413094D01*
X780380Y412066D01*
X778950Y411262D01*
X778121Y410749D01*
X777986Y410589D01*
X778751Y410662D01*
X780099Y410847D01*
X781343Y411041D01*
X782828Y411247D01*
X783905Y411328D01*
X784293Y411283D01*
X784073Y410888D01*
X783328Y409949D01*
X782165Y408593D01*
X780692Y406948D01*
X780177Y406386D01*
X775853Y401697D01*
X779699Y403631D01*
X781393Y404448D01*
X782759Y405043D01*
X783603Y405333D01*
X783774Y405336D01*
X783560Y404938D01*
X782811Y404015D01*
X781641Y402700D01*
X780164Y401125D01*
X779966Y400920D01*
X778480Y399350D01*
X777307Y398054D01*
X776553Y397155D01*
X776324Y396774D01*
X776341Y396769D01*
X776874Y396984D01*
X778075Y397553D01*
X779796Y398402D01*
X781886Y399459D01*
X783219Y400143D01*
X785655Y401404D01*
X787998Y402623D01*
X790035Y403689D01*
X791554Y404491D01*
X791990Y404724D01*
X793350Y405409D01*
X794422Y405861D01*
X794843Y405968D01*
X795828Y406389D01*
X796534Y407513D01*
X796839Y409133D01*
X796843Y409349D01*
X796926Y410728D01*
X797144Y412647D01*
X797456Y414741D01*
X797535Y415204D01*
X797849Y417041D01*
X798089Y418543D01*
X798216Y419467D01*
X798227Y419614D01*
X797968Y420154D01*
X797259Y421271D01*
X796209Y422806D01*
X794923Y424597D01*
X794852Y424694D01*
X793353Y426803D01*
X791896Y428970D01*
X790664Y430916D01*
X789953Y432148D01*
X789096Y433626D01*
X788236Y434669D01*
X787195Y435351D01*
X785796Y435746D01*
X783858Y435927D01*
X781204Y435969D01*
G36*
X648036Y435876D02*
X647054Y434926D01*
X646002Y433195D01*
X645193Y431566D01*
X644079Y428827D01*
X643573Y426398D01*
X643642Y423926D01*
X644212Y421208D01*
X644605Y419433D01*
X644854Y417715D01*
X644899Y416959D01*
X645002Y414696D01*
X645362Y412805D01*
X646081Y411071D01*
X647260Y409278D01*
X649003Y407212D01*
X650037Y406093D01*
X651573Y404433D01*
X652847Y403001D01*
X653740Y401936D01*
X654132Y401376D01*
X654482Y400842D01*
X655324Y400112D01*
X655526Y399964D01*
X656417Y399392D01*
X656889Y399207D01*
X656749Y399742D01*
X656307Y400930D01*
X655650Y402628D01*
X654845Y404662D01*
X654777Y404832D01*
X653982Y406878D01*
X653357Y408598D01*
X652962Y409821D01*
X652857Y410375D01*
X653352Y410302D01*
X654411Y409867D01*
X655708Y409226D01*
X657010Y408573D01*
X657882Y408197D01*
X658134Y408177D01*
X657835Y408675D01*
X657152Y409808D01*
X656179Y411423D01*
X655009Y413365D01*
X654666Y413934D01*
X653506Y415898D01*
X652577Y417544D01*
X651956Y418733D01*
X651720Y419322D01*
X652294Y419122D01*
X653305Y418518D01*
X653825Y418174D01*
X655572Y416987D01*
X654133Y419837D01*
X653443Y421278D01*
X652992Y422363D01*
X652875Y422866D01*
X653317Y422718D01*
X654298Y422143D01*
X655617Y421267D01*
X655740Y421181D01*
X657187Y420229D01*
X657962Y419874D01*
X658089Y420107D01*
X657546Y421630D01*
X657180Y423017D01*
X657042Y424019D01*
X657109Y424330D01*
X657486Y424420D01*
X657851Y423983D01*
X658639Y423083D01*
X659546Y422061D01*
X660760Y420872D01*
X661551Y420478D01*
X661901Y420876D01*
X661790Y422064D01*
X661723Y422349D01*
X661709Y423382D01*
X662276Y423754D01*
X663320Y423420D01*
X663726Y423166D01*
X664976Y422343D01*
X666438Y421426D01*
X666711Y421260D01*
X668429Y420226D01*
X667954Y421590D01*
X667057Y423317D01*
X665517Y425112D01*
X663264Y427038D01*
X660228Y429161D01*
X658891Y430010D01*
X656742Y431362D01*
X654733Y432657D01*
X653069Y433759D01*
X651954Y434536D01*
X651832Y434628D01*
X650297Y435669D01*
X649075Y436104D01*
X648036Y435876D01*
G37*
G54D30*
X649075Y436104D02*
X648036Y435876D01*
X647054Y434926D01*
X646002Y433195D01*
X645193Y431566D01*
X644079Y428827D01*
X643573Y426398D01*
X643642Y423926D01*
X644212Y421208D01*
X644605Y419433D01*
X644854Y417715D01*
X644899Y416959D01*
X645002Y414696D01*
X645362Y412805D01*
X646081Y411071D01*
X647260Y409278D01*
X649003Y407212D01*
X650037Y406093D01*
X651573Y404433D01*
X652847Y403001D01*
X653740Y401936D01*
X654132Y401376D01*
X654140Y401342D01*
X654482Y400842D01*
X655324Y400112D01*
X655526Y399964D01*
X656417Y399392D01*
X656889Y399207D01*
X656912Y399238D01*
X656749Y399742D01*
X656307Y400930D01*
X655650Y402628D01*
X654845Y404662D01*
X654777Y404832D01*
X653982Y406878D01*
X653357Y408598D01*
X652962Y409821D01*
X652857Y410375D01*
X652863Y410386D01*
X653352Y410302D01*
X654411Y409867D01*
X655708Y409226D01*
X657010Y408573D01*
X657882Y408197D01*
X658134Y408177D01*
X657835Y408675D01*
X657152Y409808D01*
X656179Y411423D01*
X655009Y413365D01*
X654666Y413934D01*
X653506Y415898D01*
X652577Y417544D01*
X651956Y418733D01*
X651720Y419322D01*
X651737Y419361D01*
X652294Y419122D01*
X653305Y418518D01*
X653825Y418174D01*
X655572Y416987D01*
X654133Y419837D01*
X653443Y421278D01*
X652992Y422363D01*
X652875Y422866D01*
X652879Y422871D01*
X653317Y422718D01*
X654298Y422143D01*
X655617Y421267D01*
X655740Y421181D01*
X657187Y420229D01*
X657962Y419874D01*
X658089Y420107D01*
X658076Y420141D01*
X657546Y421630D01*
X657180Y423017D01*
X657042Y424019D01*
X657109Y424330D01*
X657486Y424420D01*
X657500Y424402D01*
X657851Y423983D01*
X658639Y423083D01*
X659546Y422061D01*
X660760Y420872D01*
X661551Y420478D01*
X661901Y420876D01*
X661790Y422064D01*
X661723Y422349D01*
X661709Y423382D01*
X662276Y423754D01*
X663320Y423420D01*
X663726Y423166D01*
X664976Y422343D01*
X666438Y421426D01*
X666711Y421260D01*
X668429Y420226D01*
X667954Y421590D01*
X667057Y423317D01*
X665517Y425112D01*
X663264Y427038D01*
X660228Y429161D01*
X658891Y430010D01*
X656742Y431362D01*
X654733Y432657D01*
X653069Y433759D01*
X651954Y434536D01*
X651832Y434628D01*
X650297Y435669D01*
X649075Y436104D01*
G36*
X684856Y407511D02*
X684983Y406787D01*
X685289Y405742D01*
X686215Y403336D01*
X687398Y401620D01*
X688918Y400406D01*
X691068Y399612D01*
X693420Y399666D01*
X695822Y400558D01*
X696122Y400731D01*
X697284Y401465D01*
X697752Y401930D01*
X697638Y402300D01*
X697328Y402556D01*
X696618Y402894D01*
X695888Y402650D01*
X695346Y402256D01*
X693727Y401519D01*
X692206Y401350D01*
X690730Y401478D01*
X689976Y401821D01*
X690018Y402320D01*
X690499Y402693D01*
X691034Y403086D01*
X690794Y403152D01*
X689874Y402885D01*
X689536Y402760D01*
X688539Y402580D01*
X687873Y403025D01*
X687431Y404213D01*
X687244Y405217D01*
X687045Y406435D01*
X686812Y407044D01*
X686346Y407341D01*
X685674Y407554D01*
X685072Y407700D01*
X684856Y407511D01*
G37*
G54D30*
X685072Y407700D02*
X684856Y407511D01*
X684983Y406787D01*
X685289Y405742D01*
X686215Y403336D01*
X687398Y401620D01*
X688918Y400406D01*
X691068Y399612D01*
X693420Y399666D01*
X695822Y400558D01*
X696122Y400731D01*
X697284Y401465D01*
X697752Y401930D01*
X697638Y402300D01*
X697328Y402556D01*
X696618Y402894D01*
X695888Y402650D01*
X695346Y402256D01*
X693727Y401519D01*
X692206Y401350D01*
X690730Y401478D01*
X689976Y401821D01*
X690018Y402320D01*
X690499Y402693D01*
X691034Y403086D01*
X690794Y403152D01*
X689874Y402885D01*
X689536Y402760D01*
X688539Y402580D01*
X687873Y403025D01*
X687431Y404213D01*
X687244Y405217D01*
X687045Y406435D01*
X686812Y407044D01*
X686346Y407341D01*
X685674Y407554D01*
X685072Y407700D01*
G36*
X755524Y407654D02*
X754628Y407393D01*
X754317Y407354D01*
X754014Y406954D01*
X753893Y406030D01*
X753477Y404361D01*
X752374Y403012D01*
X750808Y402128D01*
X748998Y401854D01*
X747844Y402057D01*
X747114Y402350D01*
X747218Y402682D01*
X747661Y403025D01*
X748073Y403493D01*
X747822Y403674D01*
X747135Y403529D01*
X746520Y403217D01*
X745599Y403076D01*
X745272Y403262D01*
X744407Y403517D01*
X743731Y403427D01*
X743070Y403090D01*
X743217Y402577D01*
X743363Y402392D01*
X744423Y401553D01*
X746006Y400760D01*
X747715Y400183D01*
X749044Y399985D01*
X750354Y400180D01*
X751902Y400667D01*
X752312Y400840D01*
X753930Y401935D01*
X755092Y403611D01*
X755892Y406011D01*
X755975Y406384D01*
X756136Y407411D01*
X755967Y407752D01*
X755524Y407654D01*
G37*
G54D30*
X755967Y407752D02*
X755524Y407654D01*
X754628Y407393D01*
X754317Y407354D01*
X754014Y406954D01*
X753893Y406030D01*
X753477Y404361D01*
X752374Y403012D01*
X750808Y402128D01*
X748998Y401854D01*
X747844Y402057D01*
X747114Y402350D01*
X747218Y402682D01*
X747661Y403025D01*
X748073Y403493D01*
X747822Y403674D01*
X747135Y403529D01*
X746520Y403217D01*
X745599Y403076D01*
X745272Y403262D01*
X744407Y403517D01*
X743731Y403427D01*
X743070Y403090D01*
X743217Y402577D01*
X743363Y402392D01*
X744423Y401553D01*
X746006Y400760D01*
X747715Y400183D01*
X749044Y399985D01*
X750354Y400180D01*
X751902Y400667D01*
X752312Y400840D01*
X753930Y401935D01*
X755092Y403611D01*
X755892Y406011D01*
X755975Y406384D01*
X756136Y407411D01*
X755967Y407752D01*
G54D13*
X379946Y232072D02*
X383946Y228072D01*
X373279Y228072D01*
G54D13*
X378612Y220339D02*
X378612Y221939D01*
X379279Y223539D01*
X380612Y224339D01*
X381946Y224339D01*
X383279Y223539D01*
X383946Y221939D01*
X383946Y220339D01*
X383279Y218739D01*
X381946Y217939D01*
X380612Y217939D01*
X379279Y218739D01*
X378612Y220339D01*
X377946Y218739D01*
X376612Y217939D01*
X375279Y217939D01*
X373946Y218739D01*
X373279Y220339D01*
X373279Y221939D01*
X373946Y223539D01*
X375279Y224339D01*
X376612Y224339D01*
X377946Y223539D01*
X378612Y221939D01*
G54D13*
X373279Y214206D02*
X383946Y214206D01*
G54D13*
X376612Y214206D02*
X383946Y207806D01*
G54D13*
X378612Y211806D02*
X373279Y207806D01*
G54D13*
X406536Y222547D02*
X410536Y218547D01*
X399870Y218547D01*
G54D13*
X399870Y214814D02*
X410536Y214814D01*
X399870Y208414D01*
X410536Y208414D01*
G54D13*
X783490Y627304D02*
X777090Y627304D01*
X777090Y627971D01*
X777890Y629304D01*
X782690Y633304D01*
X783490Y634637D01*
X783490Y635971D01*
X782690Y637304D01*
X781090Y637971D01*
X779490Y637971D01*
X777890Y637304D01*
X777090Y635971D01*
G54D13*
X793623Y627304D02*
X787223Y627304D01*
X787223Y627971D01*
X788023Y629304D01*
X792823Y633304D01*
X793623Y634637D01*
X793623Y635971D01*
X792823Y637304D01*
X791223Y637971D01*
X789623Y637971D01*
X788023Y637304D01*
X787223Y635971D01*
G54D13*
X803756Y635971D02*
X803756Y629304D01*
X802956Y627971D01*
X801356Y627304D01*
X799756Y627304D01*
X798156Y627971D01*
X797356Y629304D01*
X797356Y635971D01*
X798156Y637304D01*
X799756Y637971D01*
X801356Y637971D01*
X802956Y637304D01*
X803756Y635971D01*
G54D13*
X807489Y627304D02*
X807489Y637971D01*
X811489Y637971D01*
X813089Y637304D01*
X813889Y635971D01*
X813889Y634637D01*
X813089Y633304D01*
X811489Y632637D01*
X807489Y632637D01*
G54D13*
X782249Y617699D02*
X786249Y621699D01*
X786249Y611032D01*
G54D13*
X789982Y611032D02*
X789982Y621699D01*
G54D13*
X789982Y614366D02*
X796382Y621699D01*
G54D13*
X792382Y616366D02*
X796382Y611032D01*
G54D13*
X800115Y621699D02*
X804115Y611032D01*
X808115Y621699D01*
G54D13*
X815190Y543483D02*
X819190Y547483D01*
X819190Y536816D01*
G54D13*
X829323Y545483D02*
X829323Y538816D01*
X828523Y537483D01*
X826923Y536816D01*
X825323Y536816D01*
X823723Y537483D01*
X822923Y538816D01*
X822923Y545483D01*
X823723Y546816D01*
X825323Y547483D01*
X826923Y547483D01*
X828523Y546816D01*
X829323Y545483D01*
G54D13*
X839456Y545483D02*
X839456Y538816D01*
X838656Y537483D01*
X837056Y536816D01*
X835456Y536816D01*
X833856Y537483D01*
X833056Y538816D01*
X833056Y545483D01*
X833856Y546816D01*
X835456Y547483D01*
X837056Y547483D01*
X838656Y546816D01*
X839456Y545483D01*
G54D13*
X843189Y541483D02*
X849589Y541483D01*
G54D13*
X859722Y536816D02*
X853322Y536816D01*
X853322Y537483D01*
X854122Y538816D01*
X858922Y542816D01*
X859722Y544150D01*
X859722Y545483D01*
X858922Y546816D01*
X857322Y547483D01*
X855722Y547483D01*
X854122Y546816D01*
X853322Y545483D01*
G54D13*
X863455Y547483D02*
X863455Y536816D01*
X867455Y543483D01*
X871455Y536816D01*
X871455Y547483D01*
G54D31*
X468356Y254040D02*
X463022Y254040D01*
G54D31*
X465689Y251817D02*
X465689Y256262D01*
G54D31*
X467689Y252373D02*
X463689Y255706D01*
G54D31*
X467689Y255706D02*
X463689Y252373D01*
G54D31*
X459912Y254040D02*
X454578Y254040D01*
G54D31*
X457245Y251817D02*
X457245Y256262D01*
G54D31*
X459245Y252373D02*
X455245Y255706D01*
G54D31*
X459245Y255706D02*
X455245Y252373D01*
G54D13*
X483952Y203172D02*
X477552Y203172D01*
X477552Y198505D01*
X478352Y198505D01*
X479952Y199172D01*
X481553Y199172D01*
X483153Y198505D01*
X483952Y197172D01*
X483953Y194505D01*
X483152Y193172D01*
X481553Y192505D01*
X479952Y192505D01*
X478352Y193172D01*
X477552Y194505D01*
G54D13*
X487686Y192505D02*
X487686Y192505D01*
G54D13*
X497819Y201172D02*
X497019Y202505D01*
X495418Y203172D01*
X493818Y203172D01*
X492218Y202505D01*
X491419Y201172D01*
X491419Y197839D01*
X491419Y197172D01*
X493819Y198505D01*
X495419Y198505D01*
X497018Y197839D01*
X497818Y196505D01*
X497819Y194505D01*
X497018Y193172D01*
X495418Y192505D01*
X493818Y192505D01*
X492218Y193172D01*
X491419Y194505D01*
X491419Y197839D01*
G54D13*
X501552Y192505D02*
X501551Y203172D01*
G54D13*
X501551Y195839D02*
X507952Y203172D01*
G54D13*
X503951Y197839D02*
X507952Y192505D01*
G54D31*
X524315Y198874D02*
X518982Y198874D01*
G54D31*
X521648Y196652D02*
X521648Y201096D01*
G54D31*
X523648Y197207D02*
X519648Y200541D01*
G54D31*
X523648Y200541D02*
X519648Y197207D01*
G54D31*
X515871Y198874D02*
X510538Y198874D01*
G54D31*
X513204Y196652D02*
X513204Y201096D01*
G54D31*
X515204Y197207D02*
X511204Y200541D01*
G54D31*
X515204Y200541D02*
X511204Y197207D01*
G54D13*
X104718Y365525D02*
X108718Y361525D01*
X98051Y361525D01*
G54D13*
X106718Y351392D02*
X100051Y351392D01*
X98718Y352192D01*
X98051Y353792D01*
X98051Y355392D01*
X98718Y356992D01*
X100051Y357792D01*
X106718Y357792D01*
X108051Y356992D01*
X108718Y355392D01*
X108718Y353792D01*
X108051Y352192D01*
X106718Y351392D01*
G54D13*
X98051Y347659D02*
X108718Y347659D01*
G54D13*
X101384Y347659D02*
X108718Y341259D01*
G54D13*
X103384Y345259D02*
X98051Y341259D01*
G54D13*
X685497Y786126D02*
X689497Y782126D01*
X678830Y782126D01*
G54D13*
X687497Y771993D02*
X680830Y771993D01*
X679497Y772793D01*
X678830Y774393D01*
X678830Y775993D01*
X679497Y777593D01*
X680830Y778393D01*
X687497Y778393D01*
X688830Y777593D01*
X689497Y775993D01*
X689497Y774393D01*
X688830Y772793D01*
X687497Y771993D01*
G54D13*
X687497Y761860D02*
X680830Y761860D01*
X679497Y762660D01*
X678830Y764260D01*
X678830Y765860D01*
X679497Y767460D01*
X680830Y768260D01*
X687497Y768260D01*
X688830Y767460D01*
X689497Y765860D01*
X689497Y764260D01*
X688830Y762660D01*
X687497Y761860D01*
G54D13*
X678830Y758127D02*
X689497Y758127D01*
X678830Y751727D01*
X689497Y751727D01*
G54D13*
X678830Y747994D02*
X689497Y747994D01*
X689497Y742394D01*
G54D13*
X684164Y747994D02*
X684164Y742394D01*
G54D13*
X664940Y787663D02*
X664940Y794063D01*
X665606Y794063D01*
X666940Y793263D01*
X670940Y788463D01*
X672273Y787663D01*
X673606Y787663D01*
X674940Y788463D01*
X675606Y790063D01*
X675606Y791663D01*
X674940Y793263D01*
X673606Y794063D01*
G54D13*
X675606Y783930D02*
X675606Y777530D01*
X674273Y778330D01*
X672273Y779930D01*
X669606Y781530D01*
X667606Y782330D01*
X664940Y782330D01*
G54D13*
X675606Y767397D02*
X675606Y773797D01*
X670940Y773797D01*
X670940Y772997D01*
X671606Y771397D01*
X671606Y769797D01*
X670940Y768197D01*
X669606Y767397D01*
X666940Y767397D01*
X665606Y768197D01*
X664940Y769797D01*
X664940Y771397D01*
X665606Y772997D01*
X666940Y773797D01*
G54D13*
X675606Y763664D02*
X664940Y759664D01*
X675606Y755664D01*
G54D13*
X664940Y751931D02*
X675606Y747931D01*
X664940Y743931D01*
G54D13*
X668940Y750331D02*
X668940Y745531D01*
G54D13*
X666940Y733798D02*
X665606Y734598D01*
X664940Y736198D01*
X664940Y737798D01*
X665606Y739398D01*
X666940Y740198D01*
X673606Y740198D01*
X674940Y739398D01*
X675606Y737798D01*
X675606Y736198D01*
X674940Y734598D01*
X673606Y733798D01*
G54D13*
X644460Y31777D02*
X645260Y30444D01*
X646860Y29777D01*
X648460Y29777D01*
X650060Y30444D01*
X650860Y31777D01*
X650860Y33110D01*
X650060Y34444D01*
X648460Y35110D01*
X646860Y35110D01*
X645260Y35777D01*
X644460Y37110D01*
X644460Y38444D01*
X645260Y39777D01*
X646860Y40444D01*
X648460Y40444D01*
X650060Y39777D01*
X650860Y38444D01*
G54D13*
X657792Y35110D02*
X660192Y33777D01*
X660992Y32444D01*
X660992Y29777D01*
G54D13*
X654592Y29777D02*
X654592Y40444D01*
X658592Y40444D01*
X660192Y39777D01*
X660992Y38444D01*
X660992Y37110D01*
X660192Y35777D01*
X658592Y35110D01*
X654592Y35110D01*
G54D13*
X671126Y40444D02*
X664726Y40444D01*
X664726Y35777D01*
X665526Y35777D01*
X667126Y36444D01*
X668726Y36444D01*
X670326Y35777D01*
X671126Y34444D01*
X671126Y31777D01*
X670326Y30444D01*
X668726Y29777D01*
X667126Y29777D01*
X665526Y30444D01*
X664726Y31777D01*
G54D13*
X674858Y36444D02*
X678858Y40444D01*
X678858Y29777D01*
G54D13*
X688992Y38444D02*
X688992Y31777D01*
X688192Y30444D01*
X686592Y29777D01*
X684992Y29777D01*
X683392Y30444D01*
X682592Y31777D01*
X682592Y38444D01*
X683392Y39777D01*
X684992Y40444D01*
X686592Y40444D01*
X688192Y39777D01*
X688992Y38444D01*
G54D13*
X699124Y38444D02*
X699124Y31777D01*
X698324Y30444D01*
X696724Y29777D01*
X695124Y29777D01*
X693524Y30444D01*
X692724Y31777D01*
X692724Y38444D01*
X693524Y39777D01*
X695124Y40444D01*
X696724Y40444D01*
X698324Y39777D01*
X699124Y38444D01*
G54D13*
X739760Y52414D02*
X738960Y51081D01*
X737360Y50414D01*
X735760Y50414D01*
X734160Y51081D01*
X733360Y52414D01*
X733360Y59081D01*
X734160Y60414D01*
X735760Y61081D01*
X737360Y61081D01*
X738960Y60414D01*
X739760Y59081D01*
G54D13*
X732903Y166639D02*
X736903Y177305D01*
X740903Y166639D01*
G54D13*
X734503Y170639D02*
X739303Y170639D01*
G54D13*
X811594Y169015D02*
X810794Y170349D01*
X809194Y171015D01*
X807594Y171015D01*
X805994Y170349D01*
X805194Y169015D01*
X805194Y165682D01*
X805194Y165015D01*
X807594Y166349D01*
X809194Y166349D01*
X810794Y165682D01*
X811594Y164349D01*
X811594Y162349D01*
X810794Y161015D01*
X809194Y160349D01*
X807594Y160349D01*
X805994Y161015D01*
X805194Y162349D01*
X805194Y165682D01*
G54D13*
X819327Y165682D02*
X817727Y165682D01*
X816127Y166349D01*
X815327Y167682D01*
X815327Y169015D01*
X816127Y170349D01*
X817727Y171015D01*
X819327Y171015D01*
X820927Y170349D01*
X821727Y169015D01*
X821727Y167682D01*
X820927Y166349D01*
X819327Y165682D01*
X820927Y165015D01*
X821727Y163682D01*
X821727Y162349D01*
X820927Y161015D01*
X819327Y160349D01*
X817727Y160349D01*
X816127Y161015D01*
X815327Y162349D01*
X815327Y163682D01*
X816127Y165015D01*
X817727Y165682D01*
G54D13*
X831860Y169015D02*
X831860Y162349D01*
X831060Y161015D01*
X829460Y160349D01*
X827860Y160349D01*
X826260Y161015D01*
X825460Y162349D01*
X825460Y169015D01*
X826260Y170349D01*
X827860Y171015D01*
X829460Y171015D01*
X831060Y170349D01*
X831860Y169015D01*
G54D13*
X835593Y171015D02*
X835593Y162349D01*
X836393Y161015D01*
X837993Y160349D01*
X839593Y160349D01*
X841193Y161015D01*
X841993Y162349D01*
X841993Y171015D01*
G54D13*
X815960Y57890D02*
X815160Y59224D01*
X813560Y59890D01*
X811960Y59890D01*
X810360Y59224D01*
X809560Y57890D01*
X809560Y54557D01*
X809560Y53890D01*
X811960Y55224D01*
X813560Y55224D01*
X815160Y54557D01*
X815960Y53224D01*
X815960Y51224D01*
X815160Y49890D01*
X813560Y49224D01*
X811960Y49224D01*
X810360Y49890D01*
X809560Y51224D01*
X809560Y54557D01*
G54D13*
X823692Y54557D02*
X822092Y54557D01*
X820492Y55224D01*
X819692Y56557D01*
X819692Y57890D01*
X820492Y59224D01*
X822092Y59890D01*
X823692Y59890D01*
X825292Y59224D01*
X826092Y57890D01*
X826092Y56557D01*
X825292Y55224D01*
X823692Y54557D01*
X825292Y53890D01*
X826092Y52557D01*
X826092Y51224D01*
X825292Y49890D01*
X823692Y49224D01*
X822092Y49224D01*
X820492Y49890D01*
X819692Y51224D01*
X819692Y52557D01*
X820492Y53890D01*
X822092Y54557D01*
G54D13*
X836226Y57890D02*
X836226Y51224D01*
X835426Y49890D01*
X833826Y49224D01*
X832226Y49224D01*
X830626Y49890D01*
X829826Y51224D01*
X829826Y57890D01*
X830626Y59224D01*
X832226Y59890D01*
X833826Y59890D01*
X835426Y59224D01*
X836226Y57890D01*
G54D13*
X839958Y59890D02*
X839958Y51224D01*
X840758Y49890D01*
X842358Y49224D01*
X843958Y49224D01*
X845558Y49890D01*
X846358Y51224D01*
X846358Y59890D01*
G54D13*
X933038Y60272D02*
X932238Y61605D01*
X930638Y62272D01*
X929038Y62272D01*
X927438Y61605D01*
X926638Y60272D01*
X926638Y56938D01*
X926638Y56272D01*
X929038Y57605D01*
X930638Y57605D01*
X932238Y56938D01*
X933038Y55605D01*
X933038Y53605D01*
X932238Y52272D01*
X930638Y51605D01*
X929038Y51605D01*
X927438Y52272D01*
X926638Y53605D01*
X926638Y56938D01*
G54D13*
X940771Y56938D02*
X939171Y56938D01*
X937571Y57605D01*
X936771Y58938D01*
X936771Y60272D01*
X937571Y61605D01*
X939171Y62272D01*
X940771Y62272D01*
X942371Y61605D01*
X943171Y60272D01*
X943171Y58938D01*
X942371Y57605D01*
X940771Y56938D01*
X942371Y56272D01*
X943171Y54938D01*
X943171Y53605D01*
X942371Y52272D01*
X940771Y51605D01*
X939171Y51605D01*
X937571Y52272D01*
X936771Y53605D01*
X936771Y54938D01*
X937571Y56272D01*
X939171Y56938D01*
G54D13*
X953304Y60272D02*
X953304Y53605D01*
X952504Y52272D01*
X950904Y51605D01*
X949304Y51605D01*
X947704Y52272D01*
X946904Y53605D01*
X946904Y60272D01*
X947704Y61605D01*
X949304Y62272D01*
X950904Y62272D01*
X952504Y61605D01*
X953304Y60272D01*
G54D13*
X957037Y62272D02*
X957037Y53605D01*
X957837Y52272D01*
X959437Y51605D01*
X961037Y51605D01*
X962637Y52272D01*
X963437Y53605D01*
X963437Y62272D01*
G54D13*
X935022Y172587D02*
X934222Y173921D01*
X932622Y174587D01*
X931022Y174587D01*
X929422Y173921D01*
X928622Y172587D01*
X928622Y169254D01*
X928622Y168587D01*
X931022Y169921D01*
X932622Y169921D01*
X934222Y169254D01*
X935022Y167921D01*
X935022Y165921D01*
X934222Y164587D01*
X932622Y163921D01*
X931022Y163921D01*
X929422Y164587D01*
X928622Y165921D01*
X928622Y169254D01*
G54D13*
X942755Y169254D02*
X941155Y169254D01*
X939555Y169921D01*
X938755Y171254D01*
X938755Y172587D01*
X939555Y173921D01*
X941155Y174587D01*
X942755Y174587D01*
X944355Y173921D01*
X945155Y172587D01*
X945155Y171254D01*
X944355Y169921D01*
X942755Y169254D01*
X944355Y168587D01*
X945155Y167254D01*
X945155Y165921D01*
X944355Y164587D01*
X942755Y163921D01*
X941155Y163921D01*
X939555Y164587D01*
X938755Y165921D01*
X938755Y167254D01*
X939555Y168587D01*
X941155Y169254D01*
G54D13*
X955288Y172587D02*
X955288Y165921D01*
X954488Y164587D01*
X952888Y163921D01*
X951288Y163921D01*
X949688Y164587D01*
X948888Y165921D01*
X948888Y172587D01*
X949688Y173921D01*
X951288Y174587D01*
X952888Y174587D01*
X954488Y173921D01*
X955288Y172587D01*
G54D13*
X959021Y174587D02*
X959021Y165921D01*
X959821Y164587D01*
X961421Y163921D01*
X963021Y163921D01*
X964621Y164587D01*
X965421Y165921D01*
X965421Y174587D01*
G54D13*
X1032765Y260874D02*
X1036765Y264874D01*
X1036765Y254207D01*
G54D13*
X1046898Y262874D02*
X1046898Y256207D01*
X1046098Y254874D01*
X1044498Y254207D01*
X1042898Y254207D01*
X1041298Y254874D01*
X1040498Y256207D01*
X1040498Y262874D01*
X1041298Y264207D01*
X1042898Y264874D01*
X1044498Y264874D01*
X1046098Y264207D01*
X1046898Y262874D01*
G54D13*
X1057031Y262874D02*
X1057031Y256207D01*
X1056231Y254874D01*
X1054631Y254207D01*
X1053031Y254207D01*
X1051431Y254874D01*
X1050631Y256207D01*
X1050631Y262874D01*
X1051431Y264207D01*
X1053031Y264874D01*
X1054631Y264874D01*
X1056231Y264207D01*
X1057031Y262874D01*
G54D13*
X1060764Y254207D02*
X1060764Y264874D01*
X1067164Y254207D01*
X1067164Y264874D01*
G54D13*
X1034353Y165227D02*
X1038353Y169227D01*
X1038353Y158560D01*
G54D13*
X1048486Y167227D02*
X1048486Y160560D01*
X1047686Y159227D01*
X1046086Y158560D01*
X1044486Y158560D01*
X1042886Y159227D01*
X1042086Y160560D01*
X1042086Y167227D01*
X1042886Y168560D01*
X1044486Y169227D01*
X1046086Y169227D01*
X1047686Y168560D01*
X1048486Y167227D01*
G54D13*
X1058619Y167227D02*
X1058619Y160560D01*
X1057819Y159227D01*
X1056219Y158560D01*
X1054619Y158560D01*
X1053019Y159227D01*
X1052219Y160560D01*
X1052219Y167227D01*
X1053019Y168560D01*
X1054619Y169227D01*
X1056219Y169227D01*
X1057819Y168560D01*
X1058619Y167227D01*
G54D13*
X1062352Y158560D02*
X1062352Y169227D01*
X1068752Y158560D01*
X1068752Y169227D01*
G54D20*
G75*
G01X816815Y836829D02*
G03X799815Y836829I-8500J0D01*
G01*
G54D20*
G75*
G01X799352Y836829D02*
G03X782352Y836829I-8500J0D01*
G01*
G54D20*
G75*
G01X781890Y836829D02*
G03X764890Y836829I-8500J0D01*
G01*
G54D20*
G75*
G01X816418Y698717D02*
G03X799418Y698717I-8500J0D01*
G01*
G54D20*
G75*
G01X798955Y698717D02*
G03X781955Y698717I-8500J0D01*
G01*
G54D20*
G75*
G01X781493Y698717D02*
G03X764493Y698717I-8500J0D01*
G01*
G54D13*
X985036Y755078D02*
X995702Y755078D01*
X985036Y748678D01*
X995702Y748678D01*
G54D13*
X985036Y741745D02*
X995702Y741745D01*
G54D13*
X995702Y744945D02*
X995702Y738545D01*
G54D13*
X987036Y728412D02*
X985702Y729212D01*
X985036Y730812D01*
X985036Y732412D01*
X985702Y734012D01*
X987036Y734812D01*
X993702Y734812D01*
X995036Y734012D01*
X995702Y732412D01*
X995702Y730812D01*
X995036Y729212D01*
X993702Y728412D01*
G54D13*
X991702Y720786D02*
X995702Y716786D01*
X985036Y716786D01*
G54D13*
X993702Y706653D02*
X987036Y706653D01*
X985702Y707453D01*
X985036Y709053D01*
X985036Y710653D01*
X985702Y712253D01*
X987036Y713053D01*
X993702Y713053D01*
X995036Y712253D01*
X995702Y710653D01*
X995702Y709053D01*
X995036Y707453D01*
X993702Y706653D01*
G54D13*
X990369Y699720D02*
X989036Y697320D01*
X987702Y696520D01*
X985036Y696520D01*
G54D13*
X985036Y702920D02*
X995702Y702920D01*
X995702Y698920D01*
X995036Y697320D01*
X993702Y696520D01*
X992369Y696520D01*
X991036Y697320D01*
X990369Y698920D01*
X990369Y702920D01*
G54D13*
X995702Y682494D02*
X995702Y688894D01*
X991036Y688894D01*
X991036Y688094D01*
X991702Y686494D01*
X991702Y684894D01*
X991036Y683294D01*
X989702Y682494D01*
X987036Y682494D01*
X985702Y683294D01*
X985036Y684894D01*
X985036Y686494D01*
X985702Y688094D01*
X987036Y688894D01*
G54D13*
X985036Y678761D02*
X995702Y674761D01*
X985036Y670761D01*
G54D13*
X989036Y677161D02*
X989036Y672361D01*
G54D13*
X1012113Y850327D02*
X1022780Y850327D01*
X1022780Y844727D01*
G54D13*
X1017447Y850327D02*
X1017447Y844727D01*
G54D13*
X1022780Y830701D02*
X1022780Y837101D01*
X1018113Y837101D01*
X1018113Y836301D01*
X1018780Y834701D01*
X1018780Y833101D01*
X1018113Y831501D01*
X1016780Y830701D01*
X1014113Y830701D01*
X1012780Y831501D01*
X1012113Y833101D01*
X1012113Y834701D01*
X1012780Y836301D01*
X1014113Y837101D01*
G54D13*
X1012113Y826968D02*
X1022780Y822968D01*
X1012113Y818968D01*
G54D13*
X1016113Y825368D02*
X1016113Y820568D01*
G54D31*
X506852Y419536D02*
X501519Y419536D01*
G54D31*
X504186Y417314D02*
X504186Y421759D01*
G54D31*
X506186Y417870D02*
X502186Y421203D01*
G54D31*
X506186Y421203D02*
X502186Y417870D01*
G54D31*
X498408Y419536D02*
X493075Y419536D01*
G54D31*
X495742Y417314D02*
X495742Y421759D01*
G54D31*
X497742Y417870D02*
X493742Y421203D01*
G54D31*
X497742Y421203D02*
X493742Y417870D01*
M02*
