%FSLAX34Y34*%
%MOMM*%
%LNCOPPER_BOTTOM*%
G71*
G01*
%ADD10C,3.200*%
%ADD11C,1.300*%
%ADD12C,1.600*%
%ADD13C,1.350*%
%ADD14C,1.550*%
%ADD15C,0.700*%
%ADD16C,0.800*%
%ADD17C,1.000*%
%ADD18C,0.900*%
%ADD19C,1.700*%
%ADD20C,1.100*%
%ADD21C,0.500*%
%ADD22C,0.200*%
%ADD23C,0.600*%
%ADD24C,0.100*%
%ADD25C,1.900*%
%ADD26C,1.900*%
%ADD27C,1.800*%
%ADD28C,1.950*%
%ADD29C,1.700*%
%ADD30C,1.900*%
%ADD31C,3.500*%
%ADD32C,1.200*%
%ADD33C,2.500*%
%ADD34C,2.900*%
%ADD35C,0.400*%
%ADD36C,0.300*%
%ADD37C,1.650*%
%ADD38C,2.150*%
%ADD39C,0.250*%
%ADD40C,2.000*%
%ADD41C,3.100*%
%ADD42C,2.350*%
%ADD43C,2.400*%
%ADD44C,2.550*%
%ADD45C,2.250*%
%ADD46C,2.500*%
%ADD47C,2.000*%
%ADD48C,2.700*%
%ADD49C,2.100*%
%ADD50C,2.000*%
%ADD51C,0.318*%
%ADD52C,2.300*%
%ADD53C,5.600*%
%ADD54C,2.500*%
%ADD55C,4.000*%
%ADD56C,2.100*%
%ADD57C,3.500*%
%ADD58C,1.900*%
%ADD59C,3.000*%
%ADD60C,1.950*%
%ADD61C,3.100*%
%ADD62C,2.800*%
%ADD63C,2.300*%
%ADD64C,3.000*%
%ADD65C,2.500*%
%ADD66C,2.600*%
%ADD67C,2.900*%
%ADD68C,2.000*%
%ADD69C,2.200*%
%ADD70C,2.100*%
%ADD71C,2.600*%
%ADD72C,4.000*%
%ADD73C,1.400*%
%ADD74C,1.500*%
%ADD75C,1.900*%
%ADD76C,1.800*%
%LPD*%
X491487Y713696D02*
G54D10*
D03*
X420777Y784407D02*
G54D10*
D03*
G54D11*
X154243Y222327D02*
X154243Y209327D01*
G54D11*
X179644Y222326D02*
X179644Y209326D01*
X477594Y158116D02*
G54D12*
D03*
X477593Y81916D02*
G54D12*
D03*
G54D13*
X266399Y290326D02*
X266399Y276826D01*
G54D13*
X290368Y290326D02*
X290368Y276826D01*
G54D14*
X352522Y250028D02*
X352522Y265528D01*
G54D14*
X377922Y250028D02*
X377922Y265528D01*
G54D14*
X403322Y250028D02*
X403322Y265528D01*
G54D14*
X428722Y250028D02*
X428722Y265528D01*
G54D14*
X352522Y326229D02*
X352522Y341729D01*
G54D14*
X377921Y326228D02*
X377921Y341728D01*
G54D14*
X403322Y326228D02*
X403322Y341728D01*
G54D14*
X428722Y326228D02*
X428722Y341728D01*
X405306Y233569D02*
G54D12*
D03*
X405307Y198644D02*
G54D12*
D03*
X310112Y158115D02*
G54D12*
D03*
X310113Y81916D02*
G54D12*
D03*
X284316Y158116D02*
G54D12*
D03*
X284315Y81916D02*
G54D12*
D03*
X247918Y182315D02*
G54D12*
D03*
X247918Y258515D02*
G54D12*
D03*
X258519Y158116D02*
G54D12*
D03*
X258519Y81916D02*
G54D12*
D03*
G54D15*
X403322Y119557D02*
X431493Y119558D01*
X450209Y138272D01*
G54D16*
X476006Y158116D02*
X470052Y158116D01*
X450209Y138272D01*
G54D16*
X360459Y119558D02*
X355418Y119557D01*
X336703Y138272D01*
G54D16*
X310112Y158115D02*
X316859Y158116D01*
X336703Y138272D01*
G54D16*
X284315Y81916D02*
X284315Y85885D01*
X336703Y138272D01*
G54D16*
X258519Y158116D02*
X284316Y158116D01*
G54D15*
X211575Y120398D02*
X248206Y120398D01*
X258462Y110141D01*
X258462Y81972D01*
X258519Y81916D01*
G54D17*
X323549Y256479D02*
X351222Y256479D01*
X352522Y257778D01*
G54D16*
X247918Y258515D02*
X252283Y258515D01*
X273715Y237083D01*
X304155Y237084D01*
X323549Y256479D01*
G54D15*
X318958Y220703D02*
X292258Y220703D01*
X273715Y202159D01*
G54D16*
X247918Y182315D02*
X253871Y182315D01*
X273715Y202159D01*
X420784Y160941D02*
G54D12*
D03*
X344584Y160940D02*
G54D12*
D03*
G54D17*
X420784Y134351D02*
X420784Y162925D01*
X357284Y181181D02*
G54D12*
D03*
X405306Y181578D02*
G54D12*
D03*
X225974Y227569D02*
G54D12*
D03*
X225974Y151369D02*
G54D12*
D03*
G54D18*
X225975Y228759D02*
X225975Y204258D01*
X247918Y182315D01*
G54D16*
X211575Y120398D02*
X205334Y120398D01*
X188953Y136779D01*
X324688Y386148D02*
G54D19*
D03*
X324689Y358211D02*
G54D19*
D03*
G54D20*
X323549Y333978D02*
X352522Y333978D01*
G54D16*
X405306Y198645D02*
X405306Y180388D01*
G54D16*
X258519Y158116D02*
X244618Y158116D01*
X228697Y174038D01*
X212131Y174038D01*
X201765Y163672D01*
G54D17*
X289972Y278020D02*
X289971Y247418D01*
X300306Y237084D01*
G54D21*
X289816Y247460D02*
X289815Y239522D01*
G54D21*
X289816Y247460D02*
X280290Y237934D01*
G54D21*
X298150Y242301D02*
X274734Y242301D01*
X274337Y242698D01*
G54D22*
X338631Y256191D02*
X338631Y258572D01*
X346965Y266906D01*
X346965Y264922D01*
X342600Y260557D01*
G54D22*
X338631Y256191D02*
X338631Y255000D01*
X346569Y247063D01*
X346569Y248253D01*
X342600Y252222D01*
G54D21*
X398559Y230791D02*
X398559Y250635D01*
X400147Y252222D01*
G54D21*
X408084Y230791D02*
X408084Y249444D01*
X406893Y250635D01*
G54D21*
X400146Y198247D02*
X400147Y181578D01*
X401337Y180388D01*
G54D21*
X327519Y129985D02*
X327519Y147447D01*
X327121Y147845D01*
G54D21*
X344187Y128001D02*
X327519Y128001D01*
X327121Y128398D01*
X450209Y138272D02*
G54D12*
D03*
X450209Y87472D02*
G54D12*
D03*
X336703Y138272D02*
G54D12*
D03*
X336703Y87472D02*
G54D12*
D03*
X188953Y136779D02*
G54D12*
D03*
X188953Y85980D02*
G54D12*
D03*
X347419Y240666D02*
G54D12*
D03*
X347419Y189866D02*
G54D12*
D03*
G54D16*
X346965Y160940D02*
X341409Y160941D01*
X321169Y181181D01*
X321169Y220532D01*
X321340Y220703D01*
X273715Y237083D02*
G54D12*
D03*
X273715Y186283D02*
G54D12*
D03*
G54D16*
X301722Y204598D02*
X301722Y181181D01*
X284259Y163719D01*
G54D16*
X277116Y186340D02*
X277115Y204598D01*
X277909Y205392D01*
G54D16*
X274734Y189119D02*
X274734Y195072D01*
X273146Y196659D01*
G54D16*
X270369Y187531D02*
X259653Y187531D01*
X262431Y187531D01*
X266400Y191501D01*
G54D16*
X348156Y244285D02*
X311247Y244285D01*
X309659Y242698D01*
G54D16*
X325931Y251429D02*
X344981Y251429D01*
X345378Y251032D01*
X333869Y251032D01*
X331091Y248254D01*
G54D23*
X311247Y245872D02*
X265209Y245872D01*
X262431Y248650D01*
G54D23*
X277909Y243095D02*
X277909Y243888D01*
X287434Y253413D01*
G54D23*
X301325Y243491D02*
X301324Y243888D01*
X291800Y253413D01*
G54D16*
X229038Y104017D02*
X229038Y76860D01*
X229094Y76804D01*
G54D16*
X310113Y81916D02*
X310113Y61270D01*
X310453Y60929D01*
G54D16*
X336703Y87472D02*
X336703Y61667D01*
X337044Y61326D01*
G54D16*
X377922Y103176D02*
X377922Y61326D01*
G54D16*
X420784Y103176D02*
X420784Y60930D01*
X421578Y60136D01*
G54D16*
X450209Y87472D02*
X450209Y60080D01*
X450550Y59738D01*
G54D16*
X476005Y81916D02*
X476005Y61667D01*
X476743Y60929D01*
G36*
X266797Y285957D02*
X165197Y285957D01*
X123922Y249048D01*
X149322Y194676D01*
X127097Y172450D01*
X127097Y96251D01*
X183453Y39894D01*
X486268Y39497D01*
X486665Y81566D01*
X450549Y81566D01*
X429515Y102601D01*
X371174Y102601D01*
X356094Y87520D01*
X314422Y87520D01*
X289815Y62914D01*
X248540Y62913D01*
X235444Y76010D01*
X235444Y103564D01*
X229038Y104017D01*
X220985Y104017D01*
X215600Y98632D01*
X160434Y98632D01*
X145353Y113714D01*
X145353Y170466D01*
X163212Y191103D01*
X163212Y235554D01*
X194169Y264129D01*
X227109Y264128D01*
X237825Y274844D01*
X266796Y274845D01*
X271956Y280004D01*
X271956Y280798D01*
X266797Y285957D01*
G37*
G54D24*
X266797Y285957D02*
X165197Y285957D01*
X123922Y249048D01*
X149322Y194676D01*
X127097Y172450D01*
X127097Y96251D01*
X183453Y39894D01*
X486268Y39497D01*
X486665Y81566D01*
X450549Y81566D01*
X429515Y102601D01*
X371174Y102601D01*
X356094Y87520D01*
X314422Y87520D01*
X289815Y62914D01*
X248540Y62913D01*
X235444Y76010D01*
X235444Y103564D01*
X229038Y104017D01*
X220985Y104017D01*
X215600Y98632D01*
X160434Y98632D01*
X145353Y113714D01*
X145353Y170466D01*
X163212Y191103D01*
X163212Y235554D01*
X194169Y264129D01*
X227109Y264128D01*
X237825Y274844D01*
X266796Y274845D01*
X271956Y280004D01*
X271956Y280798D01*
X266797Y285957D01*
X206190Y276370D02*
G54D19*
D03*
X206191Y304308D02*
G54D19*
D03*
X364031Y389144D02*
G54D19*
D03*
X364031Y363744D02*
G54D19*
D03*
X124907Y243993D02*
G54D25*
D03*
X124907Y283993D02*
G54D25*
D03*
X241950Y337372D02*
G54D26*
D03*
X241950Y284192D02*
G54D26*
D03*
X155742Y381783D02*
G54D25*
D03*
X296319Y475519D02*
G54D27*
D03*
X220119Y475519D02*
G54D27*
D03*
X232963Y503841D02*
G54D28*
D03*
X258362Y503841D02*
G54D28*
D03*
X283763Y503841D02*
G54D28*
D03*
X408778Y503841D02*
G54D28*
D03*
G54D29*
X434178Y512341D02*
X434178Y495341D01*
X459579Y503841D02*
G54D28*
D03*
X472532Y475123D02*
G54D27*
D03*
X396332Y475123D02*
G54D27*
D03*
G54D30*
X284159Y503444D02*
X284160Y521601D01*
X294975Y532416D01*
X422768Y532416D01*
X434278Y520906D01*
X434278Y503741D01*
G54D11*
X283763Y503841D02*
X283763Y490060D01*
X296319Y477504D01*
G54D20*
X321322Y431466D02*
X321322Y453294D01*
X320925Y453691D01*
G54D30*
X284160Y503841D02*
X284160Y532714D01*
X296562Y545116D01*
X424356Y545116D01*
X434278Y535194D01*
X434277Y504139D01*
G54D17*
X283763Y503841D02*
X285847Y503841D01*
X307674Y525669D01*
G54D17*
X432690Y512572D02*
X432690Y513366D01*
X418006Y528050D01*
X123921Y559800D02*
G54D31*
D03*
X319734Y427100D02*
G54D27*
D03*
X268934Y427100D02*
G54D27*
D03*
X353470Y432260D02*
G54D27*
D03*
X353469Y483060D02*
G54D27*
D03*
G54D32*
X433782Y425024D02*
X434278Y526066D01*
X421578Y538766D01*
X297752Y538766D01*
X284259Y525272D01*
X284259Y504635D01*
X284656Y504238D01*
X849223Y576542D02*
G54D33*
D03*
X849223Y636546D02*
G54D33*
D03*
X839780Y265492D02*
G54D34*
D03*
X789780Y265492D02*
G54D34*
D03*
X739780Y265492D02*
G54D34*
D03*
X689780Y265492D02*
G54D34*
D03*
X639780Y265492D02*
G54D34*
D03*
X589780Y265492D02*
G54D34*
D03*
X789780Y493274D02*
G54D34*
D03*
X689781Y493273D02*
G54D34*
D03*
X441972Y158020D02*
G54D19*
D03*
X441972Y208820D02*
G54D19*
D03*
X512616Y177467D02*
G54D19*
D03*
X461815Y177468D02*
G54D19*
D03*
G36*
X482696Y39100D02*
X491825Y39100D01*
X518812Y66088D01*
X518812Y291116D01*
X506906Y279210D01*
X493566Y268749D01*
X482300Y268097D01*
X482300Y205788D01*
X495000Y193088D01*
X494999Y99322D01*
X477593Y81916D01*
X473918Y81916D01*
X464837Y72835D01*
X464837Y60135D01*
X482696Y39100D01*
G37*
G54D17*
X324740Y381760D02*
X339581Y381760D01*
X346965Y389144D01*
X364031Y389144D01*
X369587Y389144D01*
X403322Y355410D01*
X403322Y333978D01*
G54D18*
X377921Y333978D02*
X377922Y314928D01*
X365222Y302228D01*
X315215Y302228D01*
X298150Y319294D01*
X298150Y390345D01*
G36*
X214409Y251032D02*
X239016Y274844D01*
X183452Y274050D01*
X177103Y267700D01*
X171150Y250635D01*
X214409Y251032D01*
G37*
G54D17*
X215756Y327450D02*
X232028Y327450D01*
X241950Y337372D01*
X241950Y354725D01*
X251078Y363854D01*
G54D35*
X256875Y281591D02*
X258066Y281591D01*
X266400Y289926D01*
G54D35*
X352522Y257778D02*
X248654Y257778D01*
X247918Y258515D01*
G54D16*
X316406Y253016D02*
X260844Y253016D01*
X260050Y253810D01*
G54D16*
X262431Y248650D02*
X311247Y248651D01*
X312437Y249841D01*
G54D16*
X273715Y237083D02*
X269349Y237083D01*
X247918Y258515D01*
G54D16*
X248144Y261747D02*
X249731Y261748D01*
X259256Y252223D01*
G54D36*
X288625Y265319D02*
X287831Y265319D01*
X279100Y256588D01*
G54D36*
X279497Y255397D02*
X280687Y255398D01*
X286244Y260954D01*
G54D36*
X291006Y269288D02*
X291006Y266907D01*
X300134Y257778D01*
X297753Y257778D01*
X294181Y261351D01*
G54D17*
X289972Y283576D02*
X289972Y301279D01*
X268384Y322866D01*
X268384Y347316D01*
X268541Y347473D01*
G54D16*
X450209Y138272D02*
X450209Y153354D01*
X445544Y158020D01*
G54D16*
X445544Y158020D02*
X445544Y142937D01*
X450209Y138272D01*
G54D16*
X445544Y158020D02*
X477498Y158020D01*
X477594Y158116D01*
X464789Y158116D01*
X453328Y146653D01*
X453328Y151416D01*
X455709Y153797D01*
G54D16*
X455709Y153797D02*
X473276Y153797D01*
X477594Y158116D01*
G54D18*
X405307Y198644D02*
X405307Y200233D01*
X428722Y223647D01*
X428722Y257778D01*
G54D18*
X460075Y230791D02*
X429912Y230791D01*
X429515Y230394D01*
G54D18*
X460075Y230791D02*
X493809Y230791D01*
X498171Y226429D01*
G54D36*
X438643Y230791D02*
X437850Y230791D01*
X431103Y237538D01*
G54D36*
X439437Y232379D02*
X438643Y232378D01*
X431103Y239919D01*
G54D36*
X427134Y217694D02*
X437850Y228410D01*
G54D36*
X437453Y228806D02*
X435072Y228806D01*
X432293Y226028D01*
X427928Y226029D01*
X427531Y226426D01*
G54D36*
X473965Y230394D02*
X477140Y230394D01*
X486666Y239919D01*
G54D36*
X473965Y230394D02*
X477140Y230394D01*
X485872Y221663D01*
X378319Y194677D02*
G54D12*
D03*
X378319Y245477D02*
G54D12*
D03*
G54D16*
X377922Y135938D02*
X377922Y207376D01*
X403321Y232775D01*
X403322Y257778D01*
X403718Y258176D01*
G36*
X350537Y489951D02*
X384668Y489951D01*
X404512Y509794D01*
X411259Y509794D01*
X417609Y503444D01*
X417609Y501063D01*
X389034Y472488D01*
X354109Y472488D01*
X348156Y478441D01*
X348156Y479632D01*
X357284Y488760D01*
X350537Y489951D01*
G37*
G36*
X405703Y476854D02*
X405703Y491141D01*
X403322Y493523D01*
X401337Y493523D01*
X398559Y490744D01*
X398559Y483998D01*
X405703Y476854D01*
G37*
X171176Y267172D02*
G54D25*
D03*
G36*
X316406Y360569D02*
X316406Y328819D01*
X320374Y324850D01*
X355300Y324850D01*
X358475Y328026D01*
X358475Y344694D01*
X371175Y357394D01*
X371175Y366126D01*
X368396Y368904D01*
X352125Y368903D01*
X348156Y364935D01*
X317994Y364935D01*
X316406Y363347D01*
X316406Y358585D01*
X316406Y360569D01*
G37*
G54D11*
X215756Y323085D02*
X215756Y309506D01*
X206191Y302323D01*
G54D23*
X271162Y183166D02*
X252112Y183166D01*
X250128Y185150D01*
G54D23*
X261240Y190707D02*
X240206Y190707D01*
X239016Y191897D01*
G54D23*
X266400Y194675D02*
X235046Y194676D01*
G54D23*
X281878Y153797D02*
X261637Y153797D01*
X259653Y155782D01*
G54D23*
X282275Y162529D02*
X261240Y162529D01*
X260843Y162132D01*
G54D23*
X309659Y152607D02*
X322756Y152607D01*
G54D23*
X290212Y158163D02*
X290212Y170467D01*
G54D23*
X410465Y182372D02*
X410465Y196660D01*
X409672Y197454D01*
G54D23*
X409672Y197454D02*
X409672Y188722D01*
X406893Y185944D01*
G54D23*
X472378Y230791D02*
X475553Y230791D01*
X485078Y240316D01*
G54D23*
X471981Y230791D02*
X475156Y230791D01*
X488253Y217694D01*
X229038Y103620D02*
G54D12*
D03*
X211575Y120398D02*
G54D12*
D03*
X229037Y137176D02*
G54D12*
D03*
X377922Y103176D02*
G54D37*
D03*
X360459Y119558D02*
G54D37*
D03*
X377922Y135939D02*
G54D37*
D03*
X420785Y102779D02*
G54D12*
D03*
X403322Y119557D02*
G54D12*
D03*
X420784Y136336D02*
G54D12*
D03*
X301496Y237480D02*
G54D12*
D03*
X318959Y220702D02*
G54D12*
D03*
X301496Y203925D02*
G54D12*
D03*
X268541Y347473D02*
G54D37*
D03*
X251078Y363854D02*
G54D37*
D03*
X268541Y380235D02*
G54D37*
D03*
X321962Y256876D02*
G54D26*
D03*
X321962Y334376D02*
G54D26*
D03*
G54D35*
X223140Y137923D02*
X223140Y145463D01*
X221553Y147050D01*
G54D35*
X232268Y151019D02*
X232268Y140010D01*
X229037Y136779D01*
G54D35*
X358872Y87916D02*
X309262Y87916D01*
G54D35*
X408878Y99823D02*
X410862Y99822D01*
X414831Y103792D01*
G54D35*
X388637Y99425D02*
X384272Y103792D01*
G36*
X133050Y133160D02*
X139797Y133159D01*
X180278Y92678D01*
X150115Y92678D01*
X144956Y97838D01*
X144956Y104584D01*
X131065Y118475D01*
X131066Y120857D01*
X140987Y130778D01*
X133050Y133160D01*
G37*
G54D23*
X352522Y269288D02*
X291006Y269288D01*
G54D20*
X350934Y264922D02*
X294578Y264923D01*
X293784Y264129D01*
G54D20*
X309659Y262144D02*
X305847Y262144D01*
X289972Y278020D01*
G54D21*
X343790Y237141D02*
X342203Y237141D01*
X331091Y248254D01*
G54D21*
X215756Y309506D02*
X215756Y311179D01*
X232028Y327450D01*
G54D21*
X217584Y317310D02*
X219965Y317310D01*
X224728Y322072D01*
G54D21*
X221553Y262144D02*
X221553Y261747D01*
X212028Y252222D01*
X167578Y252222D01*
X165593Y250238D01*
G54D21*
X173928Y252619D02*
X189802Y252619D01*
X190200Y253016D01*
G54D21*
X177103Y251826D02*
X184643Y253413D01*
X161228Y233966D01*
G36*
X421975Y106966D02*
X455312Y106966D01*
X498175Y149829D01*
X498175Y71247D01*
X494206Y67278D01*
X437056Y67278D01*
X431103Y73231D01*
X431103Y95456D01*
X422768Y103791D01*
X425943Y106966D01*
X421975Y106966D01*
G37*
X763344Y655548D02*
G54D38*
D03*
X814144Y655548D02*
G54D38*
D03*
G54D39*
X477934Y235156D02*
X434675Y235156D01*
X433881Y235951D01*
X409698Y67148D02*
G54D25*
D03*
X349346Y403432D02*
G54D40*
D03*
G54D35*
X347362Y395891D02*
X347362Y393113D01*
X351331Y389144D01*
G54D35*
X356094Y401844D02*
X356093Y391526D01*
X357284Y390335D01*
G54D35*
X354109Y395494D02*
X354109Y391922D01*
X351331Y389144D01*
X1057366Y31890D02*
G54D31*
D03*
X1048681Y729417D02*
G54D41*
D03*
X1048681Y678617D02*
G54D41*
D03*
X980258Y831260D02*
G54D42*
D03*
X1015813Y780483D02*
G54D42*
D03*
X1006252Y794137D02*
G54D42*
D03*
X744474Y840972D02*
G54D43*
D03*
X744474Y701272D02*
G54D43*
D03*
X836548Y840972D02*
G54D43*
D03*
X836548Y701272D02*
G54D43*
D03*
X836548Y733418D02*
G54D25*
D03*
X836548Y809618D02*
G54D25*
D03*
X901239Y844940D02*
G54D44*
D03*
X901239Y692540D02*
G54D44*
D03*
X744076Y733022D02*
G54D25*
D03*
X744076Y809222D02*
G54D25*
D03*
G54D45*
X854011Y809222D02*
X854011Y840972D01*
X967259Y746432D02*
G54D42*
D03*
X967259Y695632D02*
G54D42*
D03*
X128803Y450759D02*
G54D46*
D03*
X176503Y450758D02*
G54D46*
D03*
X492772Y445749D02*
G54D33*
D03*
X492772Y268749D02*
G54D33*
D03*
X539846Y48228D02*
G54D40*
D03*
X489047Y48228D02*
G54D40*
D03*
X119550Y32684D02*
G54D31*
D03*
X908307Y321822D02*
G54D47*
D03*
X985806Y321822D02*
G54D47*
D03*
X908306Y356747D02*
G54D47*
D03*
X985806Y356747D02*
G54D47*
D03*
G54D48*
X789780Y265492D02*
X839780Y265492D01*
G54D48*
X689780Y265492D02*
X739780Y265492D01*
X433782Y425024D02*
G54D49*
D03*
G54D17*
X99230Y287692D02*
X99230Y244036D01*
X154395Y188870D01*
G36*
X518727Y74570D02*
X518727Y59092D01*
X496898Y37264D01*
X179002Y37264D01*
X94070Y122195D01*
X94070Y318648D01*
X99230Y323808D01*
X105977Y323808D01*
X110342Y319442D01*
X105460Y305432D01*
X104389Y296423D01*
X104389Y252767D01*
X158364Y252767D01*
X159555Y188870D01*
X136139Y165454D01*
X136139Y101161D01*
X186542Y50758D01*
X499677Y50758D01*
X517933Y69014D01*
X518727Y74570D01*
G37*
G54D17*
X428722Y333978D02*
X428722Y381217D01*
X377282Y432657D01*
X353867Y432657D01*
X353470Y432260D01*
G54D17*
X324740Y381760D02*
X327674Y381760D01*
X349346Y403432D01*
G54D17*
X364031Y389144D02*
X364031Y392381D01*
X353627Y402786D01*
G54D50*
X967768Y843897D02*
X856937Y843897D01*
X854011Y840972D01*
G54D18*
X298150Y390345D02*
X298150Y402340D01*
X319734Y429085D01*
G54D51*
X415142Y26308D02*
X413809Y28530D01*
X411142Y29641D01*
X408476Y29641D01*
X405809Y28530D01*
X404476Y26308D01*
X404476Y24086D01*
X405809Y21864D01*
X408476Y20752D01*
X405809Y19641D01*
X404476Y17419D01*
X404476Y15197D01*
X405809Y12975D01*
X408476Y11864D01*
X411142Y11864D01*
X413809Y12975D01*
X415142Y15197D01*
G54D51*
X387587Y11864D02*
X398253Y11864D01*
X398253Y12975D01*
X396920Y15197D01*
X388920Y21864D01*
X387587Y24086D01*
X387587Y26308D01*
X388920Y28530D01*
X391587Y29641D01*
X394253Y29641D01*
X396920Y28530D01*
X398253Y26308D01*
G54D51*
X370698Y26308D02*
X370698Y15197D01*
X372031Y12975D01*
X374698Y11864D01*
X377364Y11864D01*
X380031Y12975D01*
X381364Y15197D01*
X381364Y26308D01*
X380031Y28530D01*
X377364Y29641D01*
X374698Y29641D01*
X372031Y28530D01*
X370698Y26308D01*
G54D51*
X364475Y21864D02*
X359142Y11864D01*
X353809Y21864D01*
G54D51*
X339586Y14530D02*
X339586Y18975D01*
X340920Y21197D01*
X343586Y21864D01*
X346253Y21197D01*
X347586Y18975D01*
X347586Y14530D01*
X346253Y12308D01*
X343586Y11864D01*
X340920Y12308D01*
X339586Y14530D01*
G54D51*
X333364Y11864D02*
X333364Y29641D01*
G54D51*
X324476Y29641D02*
X324476Y12975D01*
X323142Y11864D01*
X321809Y12308D01*
G54D51*
X327142Y21864D02*
X321809Y21864D01*
G54D51*
X315587Y11864D02*
X315587Y11864D01*
G54D51*
X302699Y21197D02*
X305365Y21864D01*
X308032Y21197D01*
X309365Y18975D01*
X309365Y14530D01*
X308032Y12308D01*
X305365Y11864D01*
X302699Y12308D01*
G54D51*
X288476Y14530D02*
X288476Y18975D01*
X289810Y21197D01*
X292476Y21864D01*
X295143Y21197D01*
X296476Y18975D01*
X296476Y14530D01*
X295143Y12308D01*
X292476Y11864D01*
X289810Y12308D01*
X288476Y14530D01*
G54D51*
X282254Y11864D02*
X282254Y21864D01*
G54D51*
X282254Y20086D02*
X279588Y21864D01*
X276921Y21197D01*
X275588Y19641D01*
X275588Y11864D01*
G54D51*
X275588Y20086D02*
X272921Y21864D01*
X270254Y21197D01*
X268921Y19641D01*
X268921Y11864D01*
X163157Y162179D02*
G54D12*
D03*
X163156Y85980D02*
G54D12*
D03*
G54D17*
X188953Y136779D02*
X188953Y137573D01*
X164347Y162179D01*
X328282Y839013D02*
G54D52*
D03*
X328282Y797341D02*
G54D52*
D03*
X492772Y243349D02*
G54D33*
D03*
G36*
X452845Y508751D02*
X452845Y510339D01*
X465148Y522642D01*
X498486Y522642D01*
X510789Y510339D01*
X510789Y442870D01*
X503645Y435726D01*
X503645Y449617D01*
X453242Y500020D01*
X453242Y508354D01*
X454830Y509942D01*
X452845Y508751D01*
G37*
G54D17*
X492772Y445749D02*
X492772Y456867D01*
X472532Y477107D01*
G54D17*
X472532Y477107D02*
X472532Y490888D01*
X459579Y503841D01*
G54D17*
X455624Y502798D02*
X455624Y501608D01*
X471498Y485732D01*
G54D17*
X468720Y477001D02*
X468720Y492082D01*
G54D17*
X490945Y450411D02*
X490945Y453586D01*
X469514Y475017D01*
G54D17*
X485389Y446045D02*
X485389Y465095D01*
G54D21*
X487374Y436917D02*
X501264Y436917D01*
X506820Y442473D01*
G36*
X993906Y854826D02*
X824440Y856017D01*
X824440Y806011D01*
X844284Y790136D01*
X901037Y790136D01*
X937946Y827045D01*
X993906Y827442D01*
X993906Y854826D01*
G37*
G54D21*
X323464Y390879D02*
X339339Y390879D01*
X340530Y392070D01*
G54D24*
X256875Y281591D02*
X256875Y283412D01*
X261552Y288089D01*
X236138Y712708D02*
G54D10*
D03*
X165428Y783418D02*
G54D10*
D03*
X328678Y640179D02*
G54D52*
D03*
X328678Y681851D02*
G54D52*
D03*
X1057366Y31890D02*
G54D31*
D03*
X943762Y250411D02*
G54D53*
D03*
X825312Y141842D02*
G54D54*
D03*
X825311Y192642D02*
G54D54*
D03*
X825311Y29129D02*
G54D54*
D03*
X825311Y79930D02*
G54D54*
D03*
X1022753Y286902D02*
G54D33*
D03*
X1073553Y286902D02*
G54D33*
D03*
X1022753Y190065D02*
G54D33*
D03*
X1073553Y190065D02*
G54D33*
D03*
X1022356Y96799D02*
G54D33*
D03*
X1073156Y96799D02*
G54D33*
D03*
G54D55*
X943762Y250411D02*
X991818Y263111D01*
X1015609Y286902D01*
X1066409Y286902D01*
G36*
X1066409Y266902D02*
X1066409Y306902D01*
X1086409Y306902D01*
X1086409Y266902D01*
X1066409Y266902D01*
G37*
X899330Y124974D02*
G54D56*
D03*
X899330Y105130D02*
G54D56*
D03*
X609022Y683257D02*
G54D57*
D03*
X609022Y734057D02*
G54D57*
D03*
X609022Y784857D02*
G54D57*
D03*
X609022Y835657D02*
G54D57*
D03*
X1064661Y357060D02*
G54D58*
D03*
X1024661Y357060D02*
G54D58*
D03*
X833041Y655638D02*
G54D38*
D03*
X606478Y141624D02*
G54D59*
D03*
X747909Y141625D02*
G54D59*
D03*
X606476Y198378D02*
G54D59*
D03*
X747908Y198378D02*
G54D59*
D03*
X748703Y27325D02*
G54D59*
D03*
X607272Y27324D02*
G54D59*
D03*
X748704Y84475D02*
G54D59*
D03*
X607273Y84474D02*
G54D59*
D03*
X716954Y30896D02*
G54D28*
D03*
X716954Y56296D02*
G54D28*
D03*
X716954Y81696D02*
G54D28*
D03*
X716952Y147578D02*
G54D28*
D03*
X716952Y172978D02*
G54D28*
D03*
X716952Y198378D02*
G54D28*
D03*
G54D60*
X716954Y81696D02*
X716952Y147578D01*
G54D61*
X606478Y141624D02*
X607273Y86856D01*
X658708Y144469D02*
G54D62*
D03*
G54D50*
X607273Y86856D02*
X711794Y86856D01*
X716954Y81696D01*
G54D50*
X617573Y98341D02*
X704887Y98341D01*
X708855Y102310D01*
G54D50*
X625114Y107470D02*
X703696Y107470D01*
X708855Y102310D01*
G54D63*
X639780Y265492D02*
X639780Y176911D01*
X606478Y143609D01*
G54D16*
X621903Y154384D02*
X621903Y126603D01*
X623491Y125016D01*
G54D16*
X626666Y160734D02*
X626666Y121444D01*
X628650Y119459D01*
G54D16*
X631031Y161131D02*
X631031Y121841D01*
X628650Y119459D01*
G54D64*
X747909Y143609D02*
X747908Y198378D01*
G54D60*
X716952Y172978D02*
X746185Y172978D01*
X746522Y172641D01*
G54D60*
X716952Y172978D02*
X731778Y172978D01*
X742950Y184150D01*
G54D60*
X716952Y172978D02*
X730310Y172978D01*
X745728Y157559D01*
G54D55*
X1066409Y190462D02*
X763946Y190065D01*
X746522Y172641D01*
G36*
X1066435Y170462D02*
X1066383Y210462D01*
X1086383Y210488D01*
X1086435Y170488D01*
X1066435Y170462D01*
G37*
G54D65*
X825312Y141842D02*
X869365Y141842D01*
X899330Y111877D01*
G54D65*
X825311Y79930D02*
X866192Y79930D01*
X899330Y113067D01*
G54D65*
X944374Y141842D02*
X922945Y141842D01*
X899330Y118227D01*
G54D65*
X944374Y79930D02*
X926118Y79930D01*
X899330Y106717D01*
G54D63*
X570742Y143188D02*
X570742Y62266D01*
X607272Y25737D01*
G54D63*
X570742Y143188D02*
X570742Y165025D01*
X606476Y200759D01*
G54D63*
X589780Y265492D02*
X589780Y217455D01*
X606476Y200759D01*
G54D20*
X639780Y265492D02*
X639780Y176911D01*
X606478Y143609D01*
G54D20*
X747909Y143609D02*
X749637Y143609D01*
X781050Y175022D01*
G54D20*
X748109Y134541D02*
X752078Y134541D01*
X793750Y176212D01*
G54D20*
X716952Y172978D02*
X772259Y172978D01*
X792162Y192881D01*
X1070736Y192881D01*
X1073553Y190065D01*
G54D20*
X621109Y123428D02*
X621109Y120253D01*
X629047Y112316D01*
G54D20*
X638572Y113903D02*
X683816Y113903D01*
X714375Y144462D01*
G54D20*
X692150Y113903D02*
X694531Y113903D01*
X709216Y128588D01*
G54D20*
X697309Y114300D02*
X706438Y114300D01*
X710009Y117872D01*
G54D20*
X653653Y109141D02*
X647303Y109141D01*
X625078Y131366D01*
G54D20*
X640556Y105172D02*
X640556Y112712D01*
X630634Y122634D01*
G54D20*
X606478Y143609D02*
X606478Y87254D01*
X607273Y86459D01*
X1055778Y835960D02*
G54D31*
D03*
X492772Y471546D02*
G54D66*
D03*
G54D30*
X434178Y503841D02*
X434178Y425421D01*
X433782Y425024D01*
X199484Y234869D02*
G54D58*
D03*
X199484Y158670D02*
G54D12*
D03*
G54D16*
X180441Y215818D02*
X180441Y223303D01*
X199484Y234869D01*
G54D35*
X248047Y287338D02*
X260800Y287338D01*
X261552Y288089D01*
G54D35*
X248047Y287338D02*
X258366Y287338D01*
X262731Y291703D01*
X558798Y587730D02*
G54D67*
D03*
X768349Y587730D02*
G54D67*
D03*
X119550Y623234D02*
G54D31*
D03*
X1005651Y483350D02*
G54D68*
D03*
X980251Y483350D02*
G54D68*
D03*
X954851Y483349D02*
G54D68*
D03*
X681371Y844940D02*
G54D44*
D03*
X681370Y692540D02*
G54D44*
D03*
X1005651Y459934D02*
G54D25*
D03*
X1005650Y383735D02*
G54D25*
D03*
X980251Y459934D02*
G54D25*
D03*
X980250Y383735D02*
G54D25*
D03*
X954851Y459934D02*
G54D25*
D03*
X954850Y383735D02*
G54D25*
D03*
G54D16*
X985806Y361113D02*
X985806Y321822D01*
G54D17*
X1064661Y356663D02*
X1064661Y275950D01*
X1066409Y274202D01*
G54D16*
X985806Y357144D02*
X1020211Y357144D01*
X1024661Y352694D01*
G54D32*
X539846Y48228D02*
X539846Y185834D01*
X549275Y195262D01*
X549275Y278209D01*
X624681Y353616D01*
X767556Y353616D01*
X796528Y382588D01*
X921941Y382588D01*
X943372Y361156D01*
X943372Y250801D01*
X943762Y250411D01*
G54D32*
X908307Y321822D02*
X896110Y321822D01*
X839780Y265492D01*
G54D32*
X908306Y356747D02*
X831035Y356747D01*
X739780Y265492D01*
X916878Y385970D02*
G54D19*
D03*
X916878Y413907D02*
G54D19*
D03*
G54D18*
X980251Y463506D02*
X980251Y483350D01*
G54D18*
X1005650Y383735D02*
X1005650Y408415D01*
X980281Y433784D01*
X980281Y459903D01*
X980251Y459934D01*
G54D18*
X954851Y483349D02*
X954851Y463506D01*
G54D18*
X954850Y383735D02*
X940210Y369094D01*
X996920Y509543D02*
G54D25*
D03*
X920720Y509544D02*
G54D25*
D03*
X996920Y535340D02*
G54D25*
D03*
X920721Y535341D02*
G54D25*
D03*
X915290Y468676D02*
G54D25*
D03*
X915290Y443276D02*
G54D25*
D03*
G54D18*
X920721Y532959D02*
X920720Y508353D01*
G54D18*
X1005651Y483350D02*
X1005651Y499621D01*
X996920Y508353D01*
G54D18*
X915290Y468676D02*
X915290Y483490D01*
X920750Y488950D01*
X920750Y532931D01*
X920721Y532959D01*
G54D18*
X915290Y413510D02*
X907687Y413510D01*
X893366Y427831D01*
X893366Y452041D01*
X909638Y468312D01*
G36*
X993906Y827442D02*
X993906Y819281D01*
X993378Y818753D01*
X925116Y818753D01*
X919559Y824309D01*
X919559Y825897D01*
X934244Y840581D01*
X988616Y840581D01*
X990600Y838597D01*
X993906Y827442D01*
G37*
G54D69*
X1048681Y729417D02*
X1048681Y747615D01*
X1015813Y780483D01*
G54D11*
X689781Y493273D02*
X689781Y586350D01*
X763344Y659914D01*
G54D70*
X833041Y655638D02*
X814233Y655638D01*
X814144Y655548D01*
G36*
X808038Y615553D02*
X760809Y615553D01*
X747316Y602059D01*
X747316Y486569D01*
X771128Y462756D01*
X840581Y462756D01*
X873919Y496094D01*
X873919Y602853D01*
X861219Y615553D01*
X806847Y615553D01*
X808038Y615553D01*
G37*
G54D71*
X609022Y784857D02*
X719712Y784857D01*
X744076Y809222D01*
X744076Y840574D01*
X744474Y840972D01*
G54D71*
X609022Y734057D02*
X743041Y734057D01*
X744076Y733022D01*
X744076Y701669D01*
X744474Y701272D01*
G54D50*
X744474Y701272D02*
X744474Y717217D01*
X729059Y732631D01*
G54D71*
X681371Y844940D02*
X681371Y787464D01*
X682228Y786606D01*
G54D71*
X681370Y692540D02*
X681370Y732170D01*
X681434Y732234D01*
G54D18*
X679847Y809625D02*
X675084Y809625D01*
X654844Y789384D01*
G54D18*
X681831Y817166D02*
X681831Y814387D01*
X707231Y788988D01*
G54D18*
X678656Y706438D02*
X677069Y706438D01*
X657622Y725884D01*
G54D18*
X680244Y706438D02*
X683022Y706438D01*
X705644Y729059D01*
X944374Y141842D02*
G54D54*
D03*
X944374Y192642D02*
G54D54*
D03*
X944374Y29129D02*
G54D54*
D03*
X944374Y79930D02*
G54D54*
D03*
X1022753Y237690D02*
G54D40*
D03*
X1073553Y237690D02*
G54D40*
D03*
X1022753Y144027D02*
G54D40*
D03*
X1073553Y144027D02*
G54D40*
D03*
X1047750Y190500D02*
G54D72*
D03*
X1048941Y97631D02*
G54D72*
D03*
X1047750Y287338D02*
G54D72*
D03*
G54D17*
X1073553Y237690D02*
X1073553Y190065D01*
G54D17*
X1073553Y144027D02*
X1073553Y97196D01*
X1073156Y96799D01*
G54D64*
X159147Y707231D02*
X159147Y760809D01*
X241697Y843359D01*
X605288Y843359D01*
X609022Y839626D01*
G54D64*
X159147Y703262D02*
X159147Y663178D01*
X236934Y585391D01*
G54D30*
X258362Y503841D02*
X258362Y563963D01*
X236934Y585391D01*
G54D73*
X256381Y535384D02*
X205978Y535384D01*
X184547Y513953D01*
G54D16*
X238919Y535781D02*
X242491Y535781D01*
X257572Y550862D01*
G54D16*
X238919Y535781D02*
X240109Y535781D01*
X256778Y519112D01*
G54D16*
X228203Y537369D02*
X228203Y590550D01*
X229394Y591741D01*
G54D16*
X235347Y537766D02*
X235347Y583803D01*
X236934Y585391D01*
X236934Y548481D01*
X242888Y542528D01*
X243284Y542528D01*
X248444Y547688D01*
X248444Y563959D01*
X248047Y564356D01*
X244475Y564356D01*
X241300Y567531D01*
X241300Y549672D01*
X243284Y547688D01*
G54D16*
X263525Y561578D02*
X263525Y574278D01*
X243681Y594122D01*
G36*
X133747Y491331D02*
X133747Y499666D01*
X230584Y596503D01*
X230584Y548481D01*
X255588Y523478D01*
X217488Y523478D01*
X191691Y497681D01*
X159544Y497681D01*
X146050Y511175D01*
X133747Y491331D01*
G37*
G36*
X256778Y511969D02*
X252809Y511969D01*
X237728Y527050D01*
X254000Y527050D01*
X254794Y526256D01*
X254794Y513953D01*
X252809Y511969D01*
X256778Y511969D01*
G37*
G36*
X176609Y521494D02*
X176609Y629841D01*
X183753Y636984D01*
X184150Y636984D01*
X229394Y591741D01*
X229394Y553244D01*
X217884Y541734D01*
X184150Y541734D01*
X173038Y530622D01*
X176609Y521494D01*
G37*
G54D69*
X180181Y641747D02*
X180181Y775494D01*
X179784Y775891D01*
G54D69*
X328282Y835441D02*
X267910Y835441D01*
X170259Y737791D01*
G54D69*
X155178Y733425D02*
X155178Y795734D01*
X202803Y843359D01*
X259953Y843359D01*
G54D69*
X165428Y783418D02*
X168262Y783418D01*
X218281Y833437D01*
G54D69*
X176212Y659209D02*
X176212Y513556D01*
X172641Y509984D01*
G54D69*
X170656Y674291D02*
X170656Y519112D01*
X176212Y513556D01*
G54D69*
X609022Y835657D02*
X609022Y843144D01*
X601662Y850503D01*
X209947Y850503D01*
X167084Y807641D01*
G54D64*
X503634Y272256D02*
X503634Y322659D01*
X608806Y427831D01*
X608806Y683041D01*
X609022Y683257D01*
G36*
X481012Y267494D02*
X481012Y359966D01*
X556022Y434975D01*
X556022Y531019D01*
X593725Y568722D01*
X593725Y626269D01*
X616347Y700088D01*
X640159Y676275D01*
X640159Y432197D01*
X519509Y311547D01*
X519509Y59874D01*
X496898Y37264D01*
X496898Y252402D01*
X484188Y265112D01*
X481012Y267494D01*
G37*
G54D18*
X560388Y527447D02*
X560388Y544116D01*
X559991Y544512D01*
X563959Y544512D01*
X568325Y540147D01*
G54D18*
X563562Y533797D02*
X563562Y534591D01*
X549672Y548481D01*
G54D18*
X608012Y823119D02*
X508794Y823119D01*
X493316Y838597D01*
G54D18*
X511969Y828278D02*
X601643Y828278D01*
X609022Y835657D01*
G54D74*
X492772Y243349D02*
X492772Y276872D01*
X500856Y284956D01*
X500856Y343297D01*
X596106Y438547D01*
X596106Y517128D01*
X617141Y538162D01*
X617141Y637920D01*
G54D74*
X609022Y835657D02*
X537134Y835657D01*
X526653Y846137D01*
X228147Y846137D01*
X165428Y783418D01*
X165428Y656897D01*
X236934Y585391D01*
G54D20*
X236934Y585391D02*
X258362Y563963D01*
X258362Y503841D01*
X1073553Y237690D02*
G54D40*
D03*
X1048153Y237689D02*
G54D40*
D03*
G54D17*
X1048153Y237689D02*
X1022753Y237690D01*
X1073553Y144027D02*
G54D40*
D03*
X1048153Y144027D02*
G54D40*
D03*
G54D17*
X1048153Y144027D02*
X1022753Y144027D01*
G54D17*
X945565Y143429D02*
X1021366Y143429D01*
X1022753Y142043D01*
G54D16*
X985806Y321822D02*
X985806Y366744D01*
X980678Y371872D01*
X980678Y383307D01*
X980250Y383735D01*
G54D16*
X915291Y385573D02*
X953012Y385573D01*
X954850Y383735D01*
G54D16*
X945356Y357584D02*
X945356Y374650D01*
X951309Y380603D01*
G54D16*
X941388Y366316D02*
X941388Y378222D01*
X944959Y381794D01*
X932259Y381794D01*
X932656Y381794D01*
X937419Y377031D01*
X1055104Y417665D02*
G54D75*
D03*
X1055104Y443065D02*
G54D75*
D03*
X1055104Y468465D02*
G54D75*
D03*
X1039019Y551259D02*
G54D25*
D03*
X1039019Y525859D02*
G54D25*
D03*
X1064419Y551259D02*
G54D25*
D03*
X1064419Y525859D02*
G54D25*
D03*
G54D16*
X1055104Y417665D02*
X1047920Y417665D01*
X1005651Y459934D01*
G54D16*
X980250Y383735D02*
X980250Y390159D01*
X936228Y434181D01*
X936228Y495300D01*
X974328Y533400D01*
X996478Y533400D01*
X996920Y532959D01*
G54D17*
X1055104Y468465D02*
X1065457Y468465D01*
X1076722Y457200D01*
X1076722Y369120D01*
X1064661Y357060D01*
G54D21*
X1063625Y319088D02*
X1063625Y314325D01*
X1052909Y303609D01*
G54D21*
X1064419Y327025D02*
X1064419Y315912D01*
X1078706Y301625D01*
X1075134Y301625D01*
X1069578Y307181D01*
G54D21*
X1073150Y217884D02*
X1073150Y216694D01*
X1063228Y206772D01*
G54D21*
X1073944Y220662D02*
X1073944Y216694D01*
X1083072Y207566D01*
G54D21*
X1073150Y125412D02*
X1073150Y117872D01*
X1082278Y108744D01*
G54D21*
X1073547Y121444D02*
X1073547Y119062D01*
X1064816Y110331D01*
X321322Y450913D02*
G54D27*
D03*
X245122Y450913D02*
G54D27*
D03*
X377282Y410829D02*
G54D27*
D03*
X377282Y487029D02*
G54D27*
D03*
G54D17*
X268934Y429085D02*
X268538Y429085D01*
X220119Y477504D01*
G54D21*
X377282Y410829D02*
X377282Y432657D01*
G54D21*
X379809Y427434D02*
X379809Y416322D01*
X378222Y414734D01*
G54D21*
X377428Y417512D02*
X389731Y417512D01*
X390525Y418306D01*
G54D21*
X382984Y417909D02*
X382984Y423466D01*
X382191Y424259D01*
G54D21*
X379809Y422672D02*
X379412Y422672D01*
X371475Y430609D01*
G54D21*
X380603Y413147D02*
X391319Y413147D01*
X392509Y414338D01*
G54D21*
X377282Y410829D02*
X398002Y410829D01*
X398462Y410369D01*
G54D21*
X380206Y407591D02*
X401241Y407591D01*
X103873Y315346D02*
G54D27*
D03*
X103873Y391546D02*
G54D27*
D03*
X461418Y193343D02*
G54D27*
D03*
X461418Y269543D02*
G54D27*
D03*
G54D17*
X461418Y269543D02*
X461418Y414396D01*
X492772Y445749D01*
G54D20*
X441972Y208820D02*
X453961Y208820D01*
X461566Y201216D01*
X461566Y177717D01*
X461815Y177468D01*
X181228Y323085D02*
G54D27*
D03*
X181228Y399285D02*
G54D27*
D03*
X215756Y323085D02*
G54D27*
D03*
X215756Y399285D02*
G54D27*
D03*
X138279Y381783D02*
G54D47*
D03*
X138279Y304283D02*
G54D47*
D03*
G36*
X145256Y431006D02*
X97234Y431006D01*
X92472Y435769D01*
X92472Y502444D01*
X101997Y511969D01*
X177403Y511969D01*
X191691Y497681D01*
X152400Y458391D01*
X152400Y438150D01*
X145256Y431006D01*
G37*
G54D18*
X232963Y503841D02*
X232963Y490348D01*
X220119Y477504D01*
G54D17*
X124907Y283993D02*
X124907Y292101D01*
X135501Y302696D01*
X135501Y305364D01*
X151209Y321072D01*
X178316Y321072D01*
X178882Y320506D01*
G54D76*
X138279Y381783D02*
X155742Y381783D01*
G36*
X115491Y245666D02*
X115491Y248841D01*
X101600Y262731D01*
X101600Y247033D01*
X103297Y245336D01*
X111986Y245336D01*
X115491Y248841D01*
X115491Y245666D01*
G37*
G54D18*
X215756Y399285D02*
X181228Y399285D01*
G54D18*
X215756Y399285D02*
X249491Y399285D01*
X268541Y380235D01*
G54D18*
X181228Y399285D02*
X181228Y442858D01*
X176106Y447980D01*
G54D18*
X156766Y417116D02*
X127458Y417116D01*
X105064Y394721D01*
G54D18*
X156766Y417116D02*
X180181Y417116D01*
X180578Y416719D01*
G54D18*
X176106Y447980D02*
X176106Y404406D01*
X181228Y399285D01*
G54D18*
X180578Y416719D02*
X180578Y411559D01*
X192088Y400050D01*
G54D35*
X162322Y417512D02*
X167084Y417512D01*
X174228Y424656D01*
G54D35*
X167084Y417512D02*
X167084Y417116D01*
X175816Y408384D01*
G54D17*
X996920Y532959D02*
X999684Y532959D01*
X1017984Y551259D01*
X1064419Y551259D01*
G54D17*
X1039019Y525859D02*
X1064419Y525859D01*
G36*
X96838Y393303D02*
X96838Y413941D01*
X104378Y421481D01*
X159544Y421481D01*
X164703Y426641D01*
X164703Y451247D01*
X171450Y457994D01*
X180578Y457994D01*
X227012Y411559D01*
X251619Y411559D01*
X274638Y388541D01*
X274638Y380206D01*
X272256Y377825D01*
X265509Y377825D01*
X263128Y380206D01*
X186928Y380206D01*
X161528Y405606D01*
X127397Y405606D01*
X111522Y389731D01*
X101203Y389731D01*
X98425Y392509D01*
X96838Y393303D01*
G37*
G36*
X116284Y403622D02*
X169466Y403622D01*
X171053Y405209D01*
X171053Y405606D01*
X166291Y410369D01*
X118666Y410369D01*
X117078Y408781D01*
X117078Y403225D01*
X117475Y402828D01*
X116284Y403622D01*
G37*
G36*
X717153Y65881D02*
X727869Y65881D01*
X734219Y72231D01*
X734219Y87709D01*
X742553Y96044D01*
X766762Y96044D01*
X811609Y51197D01*
X953294Y51197D01*
X1019968Y117872D01*
X1086247Y117872D01*
X1086247Y77391D01*
X1035844Y77391D01*
X962422Y3969D01*
X740966Y3969D01*
X734219Y10716D01*
X734219Y40481D01*
X727869Y46831D01*
X715169Y46831D01*
X710009Y51991D01*
X710009Y60722D01*
X713978Y64691D01*
X717153Y65881D01*
G37*
G54D36*
X1073150Y125412D02*
X1073150Y123428D01*
X1064419Y114697D01*
G54D36*
X1073150Y125412D02*
X1073150Y124619D01*
X1083469Y114300D01*
X967259Y762704D02*
G54D42*
D03*
G54D17*
X1048153Y237689D02*
X1018420Y237689D01*
X1000125Y255984D01*
G54D21*
X996553Y246459D02*
X1010444Y246459D01*
X1010841Y246062D01*
X1010841Y262334D01*
G54D20*
X739780Y265492D02*
X740155Y265492D01*
X800894Y326231D01*
G36*
X216694Y731838D02*
X289322Y804466D01*
X444500Y804466D01*
X451644Y797322D01*
X451644Y672703D01*
X502841Y621506D01*
X562769Y621506D01*
X575072Y609203D01*
X575072Y575469D01*
X569912Y570309D01*
X492919Y570309D01*
X396478Y666750D01*
X230584Y666750D01*
X216694Y680641D01*
X216694Y731838D01*
G37*
G36*
X526256Y607219D02*
X526256Y611584D01*
X444103Y693738D01*
X444103Y665956D01*
X450850Y659209D01*
X450850Y657622D01*
X499666Y608806D01*
X511572Y608806D01*
X519509Y616744D01*
X526256Y607219D01*
G37*
G36*
X606822Y641747D02*
X525462Y641747D01*
X470694Y696516D01*
X470694Y738188D01*
X480219Y747712D01*
X529034Y747712D01*
X575866Y700881D01*
X615553Y700881D01*
X620712Y695722D01*
X620712Y660003D01*
X620316Y659606D01*
X606822Y641747D01*
G37*
G36*
X610394Y613569D02*
X598091Y613569D01*
X561181Y650478D01*
X603250Y650478D01*
X604044Y649684D01*
X604044Y613172D01*
X600472Y609600D01*
X610394Y613569D01*
G37*
G54D17*
X328678Y640179D02*
X384156Y640179D01*
X476250Y548084D01*
X582216Y548084D01*
X588962Y541338D01*
G54D74*
X617141Y637920D02*
X617141Y638175D01*
X590947Y664369D01*
X540814Y664369D01*
X491487Y713696D01*
G54D74*
X558798Y590508D02*
X510423Y590508D01*
X388541Y712391D01*
X236456Y712391D01*
X236138Y712708D01*
G54D74*
X388541Y712391D02*
X388541Y752171D01*
X420777Y784407D01*
G54D74*
X492772Y445749D02*
X492772Y497431D01*
X486172Y504031D01*
X459769Y504031D01*
X459579Y503841D01*
G54D14*
X313928Y832247D02*
X540544Y832247D01*
X543719Y829072D01*
G54D14*
X174625Y685006D02*
X174625Y670719D01*
X260350Y584994D01*
X260350Y554038D01*
X257175Y550862D01*
G54D17*
X1055104Y443065D02*
X1048788Y443065D01*
X1033462Y458391D01*
X1033462Y486172D01*
X1051719Y504428D01*
X1051719Y525859D01*
G54D69*
X1048681Y678617D02*
X984274Y678617D01*
X967259Y695632D01*
G36*
X919956Y775494D02*
X891778Y747316D01*
X824706Y747316D01*
X824706Y692150D01*
X828675Y688181D01*
X877888Y688181D01*
X887412Y678656D01*
X917575Y678656D01*
X927497Y688578D01*
X927497Y717153D01*
X943372Y733028D01*
X978297Y733028D01*
X978297Y775494D01*
X919956Y775494D01*
G37*
G54D24*
X919956Y775494D02*
X891778Y747316D01*
X824706Y747316D01*
X824706Y692150D01*
X828675Y688181D01*
X877888Y688181D01*
X887412Y678656D01*
X917575Y678656D01*
X927497Y688578D01*
X927497Y717153D01*
X943372Y733028D01*
X978297Y733028D01*
X978297Y775494D01*
X919956Y775494D01*
G54D30*
X849223Y636546D02*
X849223Y639455D01*
X833041Y655638D01*
G36*
X186928Y615156D02*
X181372Y615156D01*
X132159Y664369D01*
X132159Y825103D01*
X168275Y861219D01*
X246062Y861219D01*
X250031Y857250D01*
X250031Y851694D01*
X159147Y760809D01*
X159147Y662781D01*
X180181Y641747D01*
X175022Y641747D01*
X162322Y629047D01*
X186928Y615156D01*
G37*
X468807Y48228D02*
G54D40*
D03*
M02*
