M48
; DRILL file {KiCad (6.0.0)} date Sun Jul 31 17:47:10 2022
; FORMAT={-:-/ absolute / inch / decimal}
; #@! TF.CreationDate,2022-07-31T17:47:10+01:00
; #@! TF.GenerationSoftware,Kicad,Pcbnew,(6.0.0)
; #@! TF.FileFunction,Plated,1,2,PTH
FMAT,2
INCH
; #@! TA.AperFunction,Plated,PTH,ComponentDrill
T1C0.0315
; #@! TA.AperFunction,Plated,PTH,ComponentDrill
T2C0.0394
; #@! TA.AperFunction,Plated,PTH,ComponentDrill
T3C0.0433
; #@! TA.AperFunction,Plated,PTH,ComponentDrill
T4C0.0472
; #@! TA.AperFunction,Plated,PTH,ComponentDrill
T5C0.0512
; #@! TA.AperFunction,Plated,PTH,ComponentDrill
T6C0.1063
%
G90
G05
T1
X5.0941Y-3.8012
X5.2653Y-3.9894
X5.2653Y-4.1862
X5.3941Y-3.8012
X6.2972Y-3.3933
X6.2972Y-3.6933
X6.2972Y-3.7858
X6.2972Y-4.0858
X7.0259Y-3.3137
X7.1259Y-3.3137
X7.2259Y-3.3137
X7.3338Y-3.6031
X7.5307Y-3.6031
T2
X5.8624Y-3.9563
X5.8888Y-4.035
X6.0857Y-4.035
X6.1121Y-4.1138
X6.4958Y-3.4379
X6.5746Y-3.2146
X6.5746Y-3.4114
X6.6533Y-3.1881
X7.3693Y-4.6384
X7.448Y-4.4151
X7.448Y-4.612
X7.5267Y-4.3887
T3
X4.1287Y-3.4827
X4.1287Y-3.6431
X4.1287Y-4.427
X4.1287Y-4.5874
X4.3287Y-3.4827
X4.3287Y-3.6431
X4.3287Y-4.427
X4.3287Y-4.5874
X5.4826Y-3.935
X5.4826Y-4.035
X5.4826Y-4.135
X6.5195Y-3.8373
X6.5195Y-4.7373
X6.6232Y-3.8373
X6.6232Y-4.7373
X7.0083Y-3.8373
X7.0083Y-4.7373
X7.1195Y-3.8373
X7.1195Y-4.7373
T4
X4.6461Y-3.3742
X4.6461Y-4.034
X4.6461Y-4.6939
X4.9414Y-3.3742
X4.9414Y-4.034
X4.9414Y-4.6939
T5
X4.2031Y-3.9366
X4.2031Y-4.1335
X7.445Y-3.9023
X7.445Y-4.0992
T6
X5.6675Y-3.535
X5.6675Y-4.535
T0
M30
