%TF.GenerationSoftware,KiCad,Pcbnew,(6.0.0)*%
%TF.CreationDate,2022-07-31T17:47:00+01:00*%
%TF.ProjectId,M filament Heater,4d206669-6c61-46d6-956e-742048656174,rev?*%
%TF.SameCoordinates,Original*%
%TF.FileFunction,Copper,L1,Top*%
%TF.FilePolarity,Positive*%
%FSLAX46Y46*%
G04 Gerber Fmt 4.6, Leading zero omitted, Abs format (unit mm)*
G04 Created by KiCad (PCBNEW (6.0.0)) date 2022-07-31 17:47:00*
%MOMM*%
%LPD*%
G01*
G04 APERTURE LIST*
%TA.AperFunction,ComponentPad*%
%ADD10C,1.600000*%
%TD*%
%TA.AperFunction,ComponentPad*%
%ADD11R,2.000000X2.000000*%
%TD*%
%TA.AperFunction,ComponentPad*%
%ADD12C,2.000000*%
%TD*%
%TA.AperFunction,ComponentPad*%
%ADD13R,2.400000X2.400000*%
%TD*%
%TA.AperFunction,ComponentPad*%
%ADD14C,2.400000*%
%TD*%
%TA.AperFunction,ComponentPad*%
%ADD15O,2.000000X2.000000*%
%TD*%
%TA.AperFunction,ComponentPad*%
%ADD16R,2.500000X2.500000*%
%TD*%
%TA.AperFunction,ComponentPad*%
%ADD17C,2.500000*%
%TD*%
%TA.AperFunction,ComponentPad*%
%ADD18O,1.600000X1.600000*%
%TD*%
%TA.AperFunction,ComponentPad*%
%ADD19R,2.000000X1.905000*%
%TD*%
%TA.AperFunction,ComponentPad*%
%ADD20O,2.000000X1.905000*%
%TD*%
%TA.AperFunction,ComponentPad*%
%ADD21C,4.500000*%
%TD*%
%TA.AperFunction,ComponentPad*%
%ADD22C,1.440000*%
%TD*%
%TA.AperFunction,ComponentPad*%
%ADD23R,3.000000X3.000000*%
%TD*%
%TA.AperFunction,ComponentPad*%
%ADD24C,3.000000*%
%TD*%
%TA.AperFunction,Conductor*%
%ADD25C,2.000000*%
%TD*%
G04 APERTURE END LIST*
D10*
%TO.P,C8,1*%
%TO.N,Net-(C7-Pad1)*%
X186279000Y-91519063D03*
%TO.P,C8,2*%
%TO.N,Net-(C7-Pad2)*%
X191279000Y-91519063D03*
%TD*%
D11*
%TO.P,C6,1*%
%TO.N,Net-(C6-Pad1)*%
X164994427Y-87322144D03*
X166994427Y-86650000D03*
D12*
%TO.P,C6,2*%
%TO.N,GND*%
X166994427Y-81650000D03*
X168994427Y-80977856D03*
%TD*%
D13*
%TO.P,C1,1*%
%TO.N,Net-(C1-Pad1)*%
X125511755Y-119224659D03*
D14*
%TO.P,C1,2*%
%TO.N,GND*%
X118011755Y-119224659D03*
%TD*%
D11*
%TO.P,D4,1,K*%
%TO.N,Net-(D2-Pad2)*%
X104869000Y-88460000D03*
D15*
%TO.P,D4,2,A*%
%TO.N,GND*%
X109949000Y-88460000D03*
%TD*%
D16*
%TO.P,J2,1,Pin_1*%
%TO.N,Net-(C7-Pad2)*%
X189104000Y-104119063D03*
D17*
%TO.P,J2,2,Pin_2*%
%TO.N,Net-(C7-Pad1)*%
X189104000Y-99119063D03*
%TD*%
D13*
%TO.P,C2,1*%
%TO.N,Net-(C1-Pad1)*%
X125511755Y-85704186D03*
D14*
%TO.P,C2,2*%
%TO.N,GND*%
X118011755Y-85704186D03*
%TD*%
D11*
%TO.P,D2,1,K*%
%TO.N,Net-(C1-Pad1)*%
X109949000Y-92535000D03*
D15*
%TO.P,D2,2,A*%
%TO.N,Net-(D2-Pad2)*%
X104869000Y-92535000D03*
%TD*%
D10*
%TO.P,R3,1*%
%TO.N,Net-(C6-Pad1)*%
X159949000Y-103780000D03*
D18*
%TO.P,R3,2*%
%TO.N,Net-(C5-Pad1)*%
X159949000Y-96160000D03*
%TD*%
D10*
%TO.P,R2,1*%
%TO.N,Net-(C5-Pad1)*%
X159949000Y-93810000D03*
D18*
%TO.P,R2,2*%
%TO.N,Net-(R2-Pad2)*%
X159949000Y-86190000D03*
%TD*%
D19*
%TO.P,U1,1,ADJ*%
%TO.N,Net-(C5-Pad1)*%
X139259000Y-99950000D03*
D20*
%TO.P,U1,2,VO*%
%TO.N,Net-(C6-Pad1)*%
X139259000Y-102490000D03*
%TO.P,U1,3,VI*%
%TO.N,Net-(C1-Pad1)*%
X139259000Y-105030000D03*
%TD*%
D11*
%TO.P,D3,1,K*%
%TO.N,Net-(D1-Pad2)*%
X104869000Y-112445000D03*
D15*
%TO.P,D3,2,A*%
%TO.N,GND*%
X109949000Y-112445000D03*
%TD*%
D11*
%TO.P,D1,1,K*%
%TO.N,Net-(C1-Pad1)*%
X109949000Y-116520000D03*
D15*
%TO.P,D1,2,A*%
%TO.N,Net-(D1-Pad2)*%
X104869000Y-116520000D03*
%TD*%
D21*
%TO.P,HS1,1*%
%TO.N,N/C*%
X143954000Y-89790000D03*
X143954000Y-115190000D03*
%TD*%
D22*
%TO.P,RV1,1,1*%
%TO.N,Net-(R2-Pad2)*%
X178459000Y-84167323D03*
%TO.P,RV1,2,2*%
%TO.N,GND*%
X180999000Y-84167323D03*
%TO.P,RV1,3,3*%
X183539000Y-84167323D03*
%TD*%
D13*
%TO.P,C3,1*%
%TO.N,Net-(C1-Pad1)*%
X125511755Y-102464422D03*
D14*
%TO.P,C3,2*%
%TO.N,GND*%
X118011755Y-102464422D03*
%TD*%
D23*
%TO.P,FL1,1,1*%
%TO.N,Net-(C6-Pad1)*%
X165596548Y-97467500D03*
X168228998Y-97467500D03*
D24*
%TO.P,FL1,2,2*%
%TO.N,Net-(C7-Pad1)*%
X178011548Y-97467500D03*
X180836548Y-97467500D03*
%TO.P,FL1,3,3*%
%TO.N,GND*%
X165596548Y-120327500D03*
X168228998Y-120327500D03*
%TO.P,FL1,4,4*%
%TO.N,Net-(C7-Pad2)*%
X178011548Y-120327500D03*
X180836548Y-120327500D03*
%TD*%
D11*
%TO.P,C5,1*%
%TO.N,Net-(C5-Pad1)*%
X149576323Y-102490000D03*
X148904179Y-100490000D03*
D12*
%TO.P,C5,2*%
%TO.N,GND*%
X155248467Y-104490000D03*
X154576323Y-102490000D03*
%TD*%
D10*
%TO.P,C4,1*%
%TO.N,Net-(C1-Pad1)*%
X133739000Y-106330000D03*
%TO.P,C4,2*%
%TO.N,GND*%
X133739000Y-101330000D03*
%TD*%
D11*
%TO.P,C7,1*%
%TO.N,Net-(C7-Pad1)*%
X189179000Y-112144063D03*
X191179000Y-111471919D03*
D12*
%TO.P,C7,2*%
%TO.N,Net-(C7-Pad2)*%
X187179000Y-117816207D03*
X189179000Y-117144063D03*
%TD*%
D16*
%TO.P,~  ~,1,Pin_1*%
%TO.N,Net-(D1-Pad2)*%
X106759000Y-104990000D03*
D17*
%TO.P,~  ~,2,Pin_2*%
%TO.N,Net-(D2-Pad2)*%
X106759000Y-99990000D03*
%TD*%
D10*
%TO.P,R1,1*%
%TO.N,Net-(C1-Pad1)*%
X129389000Y-96550000D03*
D18*
%TO.P,R1,2*%
%TO.N,GND*%
X137009000Y-96550000D03*
%TD*%
D25*
%TO.N,Net-(C5-Pad1)*%
X139259000Y-98430000D02*
X139259000Y-99950000D01*
X159949000Y-96160000D02*
X149109000Y-96160000D01*
X148904179Y-96364821D02*
X149109000Y-96160000D01*
X148904179Y-100490000D02*
X148904179Y-96364821D01*
X141529000Y-96160000D02*
X139259000Y-98430000D01*
X159949000Y-93810000D02*
X159949000Y-96160000D01*
X149109000Y-96160000D02*
X141529000Y-96160000D01*
%TO.N,Net-(R2-Pad2)*%
X161971677Y-84167323D02*
X159949000Y-86190000D01*
X178459000Y-84167323D02*
X161971677Y-84167323D01*
%TD*%
%TA.AperFunction,Conductor*%
%TO.N,Net-(C6-Pad1)*%
G36*
X158509000Y-118790000D02*
G01*
X151879000Y-112160000D01*
X141275000Y-112160000D01*
X141206879Y-112139998D01*
X141160386Y-112086342D01*
X141149000Y-112034000D01*
X141149000Y-110302985D01*
X141151471Y-110280000D01*
X158509000Y-110280000D01*
X158509000Y-118790000D01*
G37*
%TD.AperFunction*%
%TD*%
%TA.AperFunction,Conductor*%
%TO.N,Net-(C6-Pad1)*%
G36*
X172212666Y-85695825D02*
G01*
X172233640Y-85712728D01*
X172891647Y-86370735D01*
X172925673Y-86433047D01*
X172928552Y-86459830D01*
X172928552Y-105720069D01*
X172924382Y-105736409D01*
X172926157Y-105736600D01*
X172924970Y-105747640D01*
X162503552Y-105747640D01*
X162503552Y-86459830D01*
X162523554Y-86391709D01*
X162540457Y-86370735D01*
X163198464Y-85712728D01*
X163260776Y-85678702D01*
X163287559Y-85675823D01*
X172144545Y-85675823D01*
X172212666Y-85695825D01*
G37*
%TD.AperFunction*%
%TD*%
%TA.AperFunction,Conductor*%
%TO.N,Net-(C7-Pad2)*%
G36*
X193611065Y-88480002D02*
G01*
X193632039Y-88496905D01*
X194350095Y-89214961D01*
X194384121Y-89277273D01*
X194387000Y-89304056D01*
X194387000Y-126384944D01*
X194366998Y-126453065D01*
X194350095Y-126474039D01*
X193974039Y-126850095D01*
X193911727Y-126884121D01*
X193884944Y-126887000D01*
X175630324Y-126887000D01*
X175562203Y-126866998D01*
X175541229Y-126850095D01*
X174957039Y-126265905D01*
X174923013Y-126203593D01*
X174920134Y-126176810D01*
X174920134Y-123840321D01*
X187940450Y-123840321D01*
X187977975Y-124125352D01*
X188053836Y-124402654D01*
X188166630Y-124667094D01*
X188314268Y-124913779D01*
X188494020Y-125138146D01*
X188702558Y-125336041D01*
X188936024Y-125503804D01*
X188939819Y-125505813D01*
X188939820Y-125505814D01*
X188961576Y-125517333D01*
X189190099Y-125638330D01*
X189460080Y-125737129D01*
X189740971Y-125798373D01*
X189769548Y-125800622D01*
X189963989Y-125815925D01*
X189963998Y-125815925D01*
X189966446Y-125816118D01*
X190121978Y-125816118D01*
X190124114Y-125815972D01*
X190124125Y-125815972D01*
X190332255Y-125801783D01*
X190332261Y-125801782D01*
X190336532Y-125801491D01*
X190340727Y-125800622D01*
X190340729Y-125800622D01*
X190477291Y-125772341D01*
X190618049Y-125743192D01*
X190889050Y-125647225D01*
X191144519Y-125515368D01*
X191148020Y-125512907D01*
X191148024Y-125512905D01*
X191262125Y-125432713D01*
X191379730Y-125350059D01*
X191590329Y-125154358D01*
X191772420Y-124931886D01*
X191922634Y-124686760D01*
X192038190Y-124423516D01*
X192116951Y-124147024D01*
X192157458Y-123862402D01*
X192157552Y-123844569D01*
X192158942Y-123579201D01*
X192158942Y-123579194D01*
X192158964Y-123574915D01*
X192121439Y-123289884D01*
X192045578Y-123012582D01*
X191932784Y-122748142D01*
X191785146Y-122501457D01*
X191605394Y-122277090D01*
X191396856Y-122079195D01*
X191163390Y-121911432D01*
X191141550Y-121899868D01*
X191118361Y-121887590D01*
X190909315Y-121776906D01*
X190639334Y-121678107D01*
X190358443Y-121616863D01*
X190327392Y-121614419D01*
X190135425Y-121599311D01*
X190135416Y-121599311D01*
X190132968Y-121599118D01*
X189977436Y-121599118D01*
X189975300Y-121599264D01*
X189975289Y-121599264D01*
X189767159Y-121613453D01*
X189767153Y-121613454D01*
X189762882Y-121613745D01*
X189758687Y-121614614D01*
X189758685Y-121614614D01*
X189622123Y-121642895D01*
X189481365Y-121672044D01*
X189210364Y-121768011D01*
X188954895Y-121899868D01*
X188951394Y-121902329D01*
X188951390Y-121902331D01*
X188941301Y-121909422D01*
X188719684Y-122065177D01*
X188509085Y-122260878D01*
X188326994Y-122483350D01*
X188176780Y-122728476D01*
X188061224Y-122991720D01*
X187982463Y-123268212D01*
X187941956Y-123552834D01*
X187941934Y-123557123D01*
X187941933Y-123557130D01*
X187940472Y-123836035D01*
X187940450Y-123840321D01*
X174920134Y-123840321D01*
X174920134Y-113192197D01*
X187670500Y-113192197D01*
X187677255Y-113254379D01*
X187728385Y-113390768D01*
X187815739Y-113507324D01*
X187932295Y-113594678D01*
X188068684Y-113645808D01*
X188130866Y-113652563D01*
X190227134Y-113652563D01*
X190289316Y-113645808D01*
X190425705Y-113594678D01*
X190542261Y-113507324D01*
X190629615Y-113390768D01*
X190680745Y-113254379D01*
X190687500Y-113192197D01*
X190687500Y-113106419D01*
X190707502Y-113038298D01*
X190761158Y-112991805D01*
X190813500Y-112980419D01*
X192227134Y-112980419D01*
X192289316Y-112973664D01*
X192425705Y-112922534D01*
X192542261Y-112835180D01*
X192629615Y-112718624D01*
X192680745Y-112582235D01*
X192687500Y-112520053D01*
X192687500Y-110423785D01*
X192680745Y-110361603D01*
X192629615Y-110225214D01*
X192542261Y-110108658D01*
X192425705Y-110021304D01*
X192289316Y-109970174D01*
X192227134Y-109963419D01*
X190130866Y-109963419D01*
X190068684Y-109970174D01*
X189932295Y-110021304D01*
X189815739Y-110108658D01*
X189728385Y-110225214D01*
X189677255Y-110361603D01*
X189670500Y-110423785D01*
X189670500Y-110509563D01*
X189650498Y-110577684D01*
X189596842Y-110624177D01*
X189544500Y-110635563D01*
X188130866Y-110635563D01*
X188068684Y-110642318D01*
X187932295Y-110693448D01*
X187815739Y-110780802D01*
X187728385Y-110897358D01*
X187677255Y-111033747D01*
X187670500Y-111095929D01*
X187670500Y-113192197D01*
X174920134Y-113192197D01*
X174920134Y-97446418D01*
X175998465Y-97446418D01*
X176014230Y-97719820D01*
X176015055Y-97724025D01*
X176015056Y-97724033D01*
X176019880Y-97748620D01*
X176066953Y-97988553D01*
X176068340Y-97992603D01*
X176068341Y-97992608D01*
X176116396Y-98132965D01*
X176155660Y-98247644D01*
X176278708Y-98492299D01*
X176281134Y-98495828D01*
X176281137Y-98495834D01*
X176355125Y-98603486D01*
X176433822Y-98717990D01*
X176436709Y-98721163D01*
X176436710Y-98721164D01*
X176597416Y-98897779D01*
X176618130Y-98920543D01*
X176828223Y-99096207D01*
X176831864Y-99098491D01*
X177056572Y-99239451D01*
X177056576Y-99239453D01*
X177060212Y-99241734D01*
X177128092Y-99272383D01*
X177305893Y-99352664D01*
X177305897Y-99352666D01*
X177309805Y-99354430D01*
X177313925Y-99355650D01*
X177313924Y-99355650D01*
X177568271Y-99430991D01*
X177568275Y-99430992D01*
X177572384Y-99432209D01*
X177576618Y-99432857D01*
X177576623Y-99432858D01*
X177838846Y-99472983D01*
X177838848Y-99472983D01*
X177843088Y-99473632D01*
X177982460Y-99475822D01*
X178112619Y-99477867D01*
X178112625Y-99477867D01*
X178116910Y-99477934D01*
X178388783Y-99445034D01*
X178653675Y-99375541D01*
X178657635Y-99373901D01*
X178657640Y-99373899D01*
X178780179Y-99323141D01*
X178906684Y-99270741D01*
X179143130Y-99132573D01*
X179226103Y-99067514D01*
X179348519Y-98971528D01*
X179414467Y-98945236D01*
X179484162Y-98958771D01*
X179507087Y-98974019D01*
X179653223Y-99096207D01*
X179656864Y-99098491D01*
X179881572Y-99239451D01*
X179881576Y-99239453D01*
X179885212Y-99241734D01*
X179953092Y-99272383D01*
X180130893Y-99352664D01*
X180130897Y-99352666D01*
X180134805Y-99354430D01*
X180138925Y-99355650D01*
X180138924Y-99355650D01*
X180393271Y-99430991D01*
X180393275Y-99430992D01*
X180397384Y-99432209D01*
X180401618Y-99432857D01*
X180401623Y-99432858D01*
X180663846Y-99472983D01*
X180663848Y-99472983D01*
X180668088Y-99473632D01*
X180807460Y-99475822D01*
X180937619Y-99477867D01*
X180937625Y-99477867D01*
X180941910Y-99477934D01*
X181213783Y-99445034D01*
X181478675Y-99375541D01*
X181482635Y-99373901D01*
X181482640Y-99373899D01*
X181605179Y-99323141D01*
X181731684Y-99270741D01*
X181968130Y-99132573D01*
X182044231Y-99072902D01*
X187341173Y-99072902D01*
X187353713Y-99333971D01*
X187404704Y-99590319D01*
X187493026Y-99836315D01*
X187495242Y-99840439D01*
X187559753Y-99960500D01*
X187616737Y-100066554D01*
X187619532Y-100070297D01*
X187619534Y-100070300D01*
X187770330Y-100272240D01*
X187770335Y-100272246D01*
X187773122Y-100275978D01*
X187776431Y-100279258D01*
X187776436Y-100279264D01*
X187955426Y-100456698D01*
X187958743Y-100459986D01*
X187962505Y-100462744D01*
X187962508Y-100462747D01*
X188165750Y-100611770D01*
X188169524Y-100614537D01*
X188173667Y-100616717D01*
X188173669Y-100616718D01*
X188396684Y-100734052D01*
X188396689Y-100734054D01*
X188400834Y-100736235D01*
X188647590Y-100822407D01*
X188652183Y-100823279D01*
X188899785Y-100870287D01*
X188899788Y-100870287D01*
X188904374Y-100871158D01*
X189034958Y-100876289D01*
X189160875Y-100881237D01*
X189160881Y-100881237D01*
X189165543Y-100881420D01*
X189244977Y-100872720D01*
X189420707Y-100853475D01*
X189420712Y-100853474D01*
X189425360Y-100852965D01*
X189538116Y-100823279D01*
X189673594Y-100787611D01*
X189673596Y-100787610D01*
X189678117Y-100786420D01*
X189918262Y-100683245D01*
X190140519Y-100545709D01*
X190144082Y-100542692D01*
X190144087Y-100542689D01*
X190336439Y-100379850D01*
X190336440Y-100379849D01*
X190340005Y-100376831D01*
X190431729Y-100272240D01*
X190509257Y-100183837D01*
X190509261Y-100183832D01*
X190512339Y-100180322D01*
X190653733Y-99960500D01*
X190761083Y-99722192D01*
X190799567Y-99585739D01*
X190830760Y-99475139D01*
X190830761Y-99475136D01*
X190832030Y-99470635D01*
X190846813Y-99354430D01*
X190864616Y-99214484D01*
X190864616Y-99214480D01*
X190865014Y-99211354D01*
X190867431Y-99119063D01*
X190865902Y-99098491D01*
X190848407Y-98863063D01*
X190848406Y-98863059D01*
X190848061Y-98858411D01*
X190836725Y-98808311D01*
X190791408Y-98608043D01*
X190790377Y-98603486D01*
X190771603Y-98555209D01*
X190697340Y-98364239D01*
X190697339Y-98364236D01*
X190695647Y-98359886D01*
X190565951Y-98132965D01*
X190404138Y-97927706D01*
X190213763Y-97748620D01*
X189999009Y-97599639D01*
X189994816Y-97597571D01*
X189768781Y-97486103D01*
X189768778Y-97486102D01*
X189764593Y-97484038D01*
X189718449Y-97469267D01*
X189520123Y-97405783D01*
X189515665Y-97404356D01*
X189257693Y-97362342D01*
X189143942Y-97360853D01*
X189001022Y-97358982D01*
X189001019Y-97358982D01*
X188996345Y-97358921D01*
X188737362Y-97394167D01*
X188486433Y-97467306D01*
X188482180Y-97469266D01*
X188482179Y-97469267D01*
X188445659Y-97486103D01*
X188249072Y-97576731D01*
X188210067Y-97602304D01*
X188034404Y-97717473D01*
X188034399Y-97717477D01*
X188030491Y-97720039D01*
X187835494Y-97894081D01*
X187668363Y-98095033D01*
X187665934Y-98099036D01*
X187538325Y-98309330D01*
X187532771Y-98318482D01*
X187431697Y-98559518D01*
X187367359Y-98812846D01*
X187341173Y-99072902D01*
X182044231Y-99072902D01*
X182183637Y-98963594D01*
X182201428Y-98945236D01*
X182371234Y-98770009D01*
X182374217Y-98766931D01*
X182376750Y-98763483D01*
X182376754Y-98763478D01*
X182533805Y-98549678D01*
X182536343Y-98546223D01*
X182563702Y-98495834D01*
X182664966Y-98309330D01*
X182664967Y-98309328D01*
X182667016Y-98305554D01*
X182715416Y-98177466D01*
X182762299Y-98053395D01*
X182762300Y-98053391D01*
X182763817Y-98049377D01*
X182792416Y-97924506D01*
X182823997Y-97786617D01*
X182823998Y-97786613D01*
X182824955Y-97782433D01*
X182830246Y-97723156D01*
X182849079Y-97512127D01*
X182849079Y-97512125D01*
X182849299Y-97509661D01*
X182849741Y-97467500D01*
X182845534Y-97405783D01*
X182831407Y-97198555D01*
X182831406Y-97198549D01*
X182831115Y-97194278D01*
X182775580Y-96926112D01*
X182684165Y-96667965D01*
X182558561Y-96424612D01*
X182548588Y-96410421D01*
X182403556Y-96204062D01*
X182401093Y-96200557D01*
X182214673Y-95999945D01*
X182211358Y-95997231D01*
X182211354Y-95997228D01*
X182006071Y-95829206D01*
X182006070Y-95829205D01*
X182002753Y-95826490D01*
X181769252Y-95683401D01*
X181765316Y-95681673D01*
X181522421Y-95575049D01*
X181522417Y-95575048D01*
X181518493Y-95573325D01*
X181255114Y-95498300D01*
X181250872Y-95497696D01*
X181250866Y-95497695D01*
X181050382Y-95469162D01*
X180983991Y-95459713D01*
X180840137Y-95458960D01*
X180714425Y-95458302D01*
X180714419Y-95458302D01*
X180710139Y-95458280D01*
X180705895Y-95458839D01*
X180705891Y-95458839D01*
X180586850Y-95474511D01*
X180438626Y-95494025D01*
X180434486Y-95495158D01*
X180434484Y-95495158D01*
X180361556Y-95515109D01*
X180174476Y-95566288D01*
X180170528Y-95567972D01*
X179926530Y-95672046D01*
X179926526Y-95672048D01*
X179922578Y-95673732D01*
X179902673Y-95685645D01*
X179691273Y-95812164D01*
X179691269Y-95812167D01*
X179687591Y-95814368D01*
X179503124Y-95962154D01*
X179502088Y-95962984D01*
X179436418Y-95989966D01*
X179366586Y-95977161D01*
X179343504Y-95962156D01*
X179282983Y-95912620D01*
X179181071Y-95829205D01*
X179181064Y-95829200D01*
X179177753Y-95826490D01*
X178944252Y-95683401D01*
X178940316Y-95681673D01*
X178697421Y-95575049D01*
X178697417Y-95575048D01*
X178693493Y-95573325D01*
X178430114Y-95498300D01*
X178425872Y-95497696D01*
X178425866Y-95497695D01*
X178225382Y-95469162D01*
X178158991Y-95459713D01*
X178015137Y-95458960D01*
X177889425Y-95458302D01*
X177889419Y-95458302D01*
X177885139Y-95458280D01*
X177880895Y-95458839D01*
X177880891Y-95458839D01*
X177761850Y-95474511D01*
X177613626Y-95494025D01*
X177609486Y-95495158D01*
X177609484Y-95495158D01*
X177536556Y-95515109D01*
X177349476Y-95566288D01*
X177345528Y-95567972D01*
X177101530Y-95672046D01*
X177101526Y-95672048D01*
X177097578Y-95673732D01*
X177077673Y-95685645D01*
X176866273Y-95812164D01*
X176866269Y-95812167D01*
X176862591Y-95814368D01*
X176648866Y-95985594D01*
X176460356Y-96184242D01*
X176300550Y-96406636D01*
X176172405Y-96648661D01*
X176170933Y-96652684D01*
X176170931Y-96652688D01*
X176163862Y-96672006D01*
X176078291Y-96905837D01*
X176019952Y-97173407D01*
X175998465Y-97446418D01*
X174920134Y-97446418D01*
X174920134Y-91519063D01*
X184965502Y-91519063D01*
X184985457Y-91747150D01*
X185044716Y-91968306D01*
X185047039Y-91973287D01*
X185047039Y-91973288D01*
X185139151Y-92170825D01*
X185139154Y-92170830D01*
X185141477Y-92175812D01*
X185272802Y-92363363D01*
X185434700Y-92525261D01*
X185439208Y-92528418D01*
X185439211Y-92528420D01*
X185517389Y-92583161D01*
X185622251Y-92656586D01*
X185627233Y-92658909D01*
X185627238Y-92658912D01*
X185824775Y-92751024D01*
X185829757Y-92753347D01*
X185835065Y-92754769D01*
X185835067Y-92754770D01*
X186045598Y-92811182D01*
X186045600Y-92811182D01*
X186050913Y-92812606D01*
X186279000Y-92832561D01*
X186507087Y-92812606D01*
X186512400Y-92811182D01*
X186512402Y-92811182D01*
X186722933Y-92754770D01*
X186722935Y-92754769D01*
X186728243Y-92753347D01*
X186733225Y-92751024D01*
X186930762Y-92658912D01*
X186930767Y-92658909D01*
X186935749Y-92656586D01*
X187040611Y-92583161D01*
X187118789Y-92528420D01*
X187118792Y-92528418D01*
X187123300Y-92525261D01*
X187285198Y-92363363D01*
X187416523Y-92175812D01*
X187418846Y-92170830D01*
X187418849Y-92170825D01*
X187510961Y-91973288D01*
X187510961Y-91973287D01*
X187513284Y-91968306D01*
X187572543Y-91747150D01*
X187592498Y-91519063D01*
X187572543Y-91290976D01*
X187513284Y-91069820D01*
X187510961Y-91064838D01*
X187418849Y-90867301D01*
X187418846Y-90867296D01*
X187416523Y-90862314D01*
X187285198Y-90674763D01*
X187123300Y-90512865D01*
X187118792Y-90509708D01*
X187118789Y-90509706D01*
X187040611Y-90454965D01*
X186935749Y-90381540D01*
X186930767Y-90379217D01*
X186930762Y-90379214D01*
X186733225Y-90287102D01*
X186733224Y-90287102D01*
X186728243Y-90284779D01*
X186722935Y-90283357D01*
X186722933Y-90283356D01*
X186512402Y-90226944D01*
X186512400Y-90226944D01*
X186507087Y-90225520D01*
X186279000Y-90205565D01*
X186050913Y-90225520D01*
X186045600Y-90226944D01*
X186045598Y-90226944D01*
X185835067Y-90283356D01*
X185835065Y-90283357D01*
X185829757Y-90284779D01*
X185824776Y-90287102D01*
X185824775Y-90287102D01*
X185627238Y-90379214D01*
X185627233Y-90379217D01*
X185622251Y-90381540D01*
X185517389Y-90454965D01*
X185439211Y-90509706D01*
X185439208Y-90509708D01*
X185434700Y-90512865D01*
X185272802Y-90674763D01*
X185141477Y-90862314D01*
X185139154Y-90867296D01*
X185139151Y-90867301D01*
X185047039Y-91064838D01*
X185044716Y-91069820D01*
X184985457Y-91290976D01*
X184965502Y-91519063D01*
X174920134Y-91519063D01*
X174920134Y-89512190D01*
X174940136Y-89444069D01*
X174957039Y-89423095D01*
X175883229Y-88496905D01*
X175945541Y-88462879D01*
X175972324Y-88460000D01*
X193542944Y-88460000D01*
X193611065Y-88480002D01*
G37*
%TD.AperFunction*%
%TD*%
%TA.AperFunction,Conductor*%
%TO.N,Net-(C6-Pad1)*%
G36*
X153735302Y-104490000D02*
G01*
X153753932Y-104726711D01*
X153809362Y-104957594D01*
X153900227Y-105176963D01*
X153902813Y-105181183D01*
X154021708Y-105375202D01*
X154021712Y-105375208D01*
X154024291Y-105379416D01*
X154178498Y-105559969D01*
X154359051Y-105714176D01*
X154363259Y-105716755D01*
X154363265Y-105716759D01*
X154557284Y-105835654D01*
X154561504Y-105838240D01*
X154566074Y-105840133D01*
X154566078Y-105840135D01*
X154776300Y-105927211D01*
X154780873Y-105929105D01*
X154861076Y-105948360D01*
X155006943Y-105983380D01*
X155006949Y-105983381D01*
X155011756Y-105984535D01*
X155248467Y-106003165D01*
X155485178Y-105984535D01*
X155489985Y-105983381D01*
X155489991Y-105983380D01*
X155635858Y-105948360D01*
X155716061Y-105929105D01*
X155720634Y-105927211D01*
X155930856Y-105840135D01*
X155930860Y-105840133D01*
X155935430Y-105838240D01*
X155939650Y-105835654D01*
X156133669Y-105716759D01*
X156133675Y-105716755D01*
X156137883Y-105714176D01*
X156318436Y-105559969D01*
X156472643Y-105379416D01*
X156475222Y-105375208D01*
X156475226Y-105375202D01*
X156594121Y-105181183D01*
X156596707Y-105176963D01*
X156687572Y-104957594D01*
X156743002Y-104726711D01*
X156761632Y-104490000D01*
X156745498Y-104285000D01*
X172924000Y-104285000D01*
X172924000Y-125732810D01*
X172903998Y-125800931D01*
X172887095Y-125821905D01*
X171960905Y-126748095D01*
X171898593Y-126782121D01*
X171871810Y-126785000D01*
X158411190Y-126785000D01*
X158343069Y-126764998D01*
X158322095Y-126748095D01*
X157395905Y-125821905D01*
X157361879Y-125759593D01*
X157359000Y-125732810D01*
X157359000Y-120306418D01*
X163583465Y-120306418D01*
X163599230Y-120579820D01*
X163600055Y-120584025D01*
X163600056Y-120584033D01*
X163610675Y-120638157D01*
X163651953Y-120848553D01*
X163653340Y-120852603D01*
X163653341Y-120852608D01*
X163674153Y-120913395D01*
X163740660Y-121107644D01*
X163863708Y-121352299D01*
X163866134Y-121355828D01*
X163866137Y-121355834D01*
X164016391Y-121574453D01*
X164018822Y-121577990D01*
X164203130Y-121780543D01*
X164413223Y-121956207D01*
X164416864Y-121958491D01*
X164641572Y-122099451D01*
X164641576Y-122099453D01*
X164645212Y-122101734D01*
X164713092Y-122132383D01*
X164890893Y-122212664D01*
X164890897Y-122212666D01*
X164894805Y-122214430D01*
X164898925Y-122215650D01*
X164898924Y-122215650D01*
X165153271Y-122290991D01*
X165153275Y-122290992D01*
X165157384Y-122292209D01*
X165161618Y-122292857D01*
X165161623Y-122292858D01*
X165423846Y-122332983D01*
X165423848Y-122332983D01*
X165428088Y-122333632D01*
X165567460Y-122335822D01*
X165697619Y-122337867D01*
X165697625Y-122337867D01*
X165701910Y-122337934D01*
X165973783Y-122305034D01*
X166238675Y-122235541D01*
X166242635Y-122233901D01*
X166242640Y-122233899D01*
X166365180Y-122183141D01*
X166491684Y-122130741D01*
X166728130Y-121992573D01*
X166834154Y-121909440D01*
X166900100Y-121883149D01*
X166969794Y-121896684D01*
X166992720Y-121911932D01*
X167045673Y-121956207D01*
X167049314Y-121958491D01*
X167274022Y-122099451D01*
X167274026Y-122099453D01*
X167277662Y-122101734D01*
X167345542Y-122132383D01*
X167523343Y-122212664D01*
X167523347Y-122212666D01*
X167527255Y-122214430D01*
X167531375Y-122215650D01*
X167531374Y-122215650D01*
X167785721Y-122290991D01*
X167785725Y-122290992D01*
X167789834Y-122292209D01*
X167794068Y-122292857D01*
X167794073Y-122292858D01*
X168056296Y-122332983D01*
X168056298Y-122332983D01*
X168060538Y-122333632D01*
X168199910Y-122335822D01*
X168330069Y-122337867D01*
X168330075Y-122337867D01*
X168334360Y-122337934D01*
X168606233Y-122305034D01*
X168871125Y-122235541D01*
X168875085Y-122233901D01*
X168875090Y-122233899D01*
X168997630Y-122183141D01*
X169124134Y-122130741D01*
X169360580Y-121992573D01*
X169576087Y-121823594D01*
X169617807Y-121780543D01*
X169763684Y-121630009D01*
X169766667Y-121626931D01*
X169769200Y-121623483D01*
X169769204Y-121623478D01*
X169926255Y-121409678D01*
X169928793Y-121406223D01*
X169956152Y-121355834D01*
X170057416Y-121169330D01*
X170057417Y-121169328D01*
X170059466Y-121165554D01*
X170156267Y-120909377D01*
X170217405Y-120642433D01*
X170241749Y-120369661D01*
X170242191Y-120327500D01*
X170223565Y-120054278D01*
X170168030Y-119786112D01*
X170076615Y-119527965D01*
X169951011Y-119284612D01*
X169941038Y-119270421D01*
X169796006Y-119064062D01*
X169793543Y-119060557D01*
X169607123Y-118859945D01*
X169603808Y-118857231D01*
X169603804Y-118857228D01*
X169398521Y-118689206D01*
X169395203Y-118686490D01*
X169161702Y-118543401D01*
X169157766Y-118541673D01*
X168914871Y-118435049D01*
X168914867Y-118435048D01*
X168910943Y-118433325D01*
X168647564Y-118358300D01*
X168643322Y-118357696D01*
X168643316Y-118357695D01*
X168442832Y-118329162D01*
X168376441Y-118319713D01*
X168232587Y-118318960D01*
X168106875Y-118318302D01*
X168106869Y-118318302D01*
X168102589Y-118318280D01*
X168098345Y-118318839D01*
X168098341Y-118318839D01*
X167979300Y-118334511D01*
X167831076Y-118354025D01*
X167826936Y-118355158D01*
X167826934Y-118355158D01*
X167754006Y-118375109D01*
X167566926Y-118426288D01*
X167562978Y-118427972D01*
X167318980Y-118532046D01*
X167318976Y-118532048D01*
X167315028Y-118533732D01*
X167295123Y-118545645D01*
X167083723Y-118672164D01*
X167083719Y-118672167D01*
X167080041Y-118674368D01*
X167076694Y-118677049D01*
X167076686Y-118677055D01*
X166991843Y-118745027D01*
X166926174Y-118772009D01*
X166856342Y-118759204D01*
X166833257Y-118744197D01*
X166766071Y-118689206D01*
X166762753Y-118686490D01*
X166529252Y-118543401D01*
X166525316Y-118541673D01*
X166282421Y-118435049D01*
X166282417Y-118435048D01*
X166278493Y-118433325D01*
X166015114Y-118358300D01*
X166010872Y-118357696D01*
X166010866Y-118357695D01*
X165810382Y-118329162D01*
X165743991Y-118319713D01*
X165600137Y-118318960D01*
X165474425Y-118318302D01*
X165474419Y-118318302D01*
X165470139Y-118318280D01*
X165465895Y-118318839D01*
X165465891Y-118318839D01*
X165346850Y-118334511D01*
X165198626Y-118354025D01*
X165194486Y-118355158D01*
X165194484Y-118355158D01*
X165121556Y-118375109D01*
X164934476Y-118426288D01*
X164930528Y-118427972D01*
X164686530Y-118532046D01*
X164686526Y-118532048D01*
X164682578Y-118533732D01*
X164662673Y-118545645D01*
X164451273Y-118672164D01*
X164451269Y-118672167D01*
X164447591Y-118674368D01*
X164233866Y-118845594D01*
X164045356Y-119044242D01*
X163885550Y-119266636D01*
X163757405Y-119508661D01*
X163755933Y-119512684D01*
X163755931Y-119512688D01*
X163748862Y-119532006D01*
X163663291Y-119765837D01*
X163604952Y-120033407D01*
X163583465Y-120306418D01*
X157359000Y-120306418D01*
X157359000Y-110910000D01*
X147634000Y-110910000D01*
X147634000Y-104285000D01*
X153751436Y-104285000D01*
X153735302Y-104490000D01*
G37*
%TD.AperFunction*%
%TD*%
%TA.AperFunction,Conductor*%
%TO.N,Net-(C1-Pad1)*%
G36*
X112684000Y-95960000D02*
G01*
X109561190Y-95960000D01*
X109493069Y-95939998D01*
X109472095Y-95923095D01*
X108545905Y-94996905D01*
X108511879Y-94934593D01*
X108509000Y-94907810D01*
X108509000Y-92062190D01*
X108529002Y-91994069D01*
X108545905Y-91973095D01*
X109472095Y-91046905D01*
X109534407Y-91012879D01*
X109561190Y-91010000D01*
X112684000Y-91010000D01*
X112684000Y-95960000D01*
G37*
%TD.AperFunction*%
%TD*%
%TA.AperFunction,Conductor*%
%TO.N,Net-(D1-Pad2)*%
G36*
X109774931Y-103005002D02*
G01*
X109795905Y-103021905D01*
X110722095Y-103948095D01*
X110756121Y-104010407D01*
X110759000Y-104037190D01*
X110759000Y-106557810D01*
X110738998Y-106625931D01*
X110722095Y-106646905D01*
X109795905Y-107573095D01*
X109733593Y-107607121D01*
X109706810Y-107610000D01*
X107734000Y-107610000D01*
X107734000Y-118932810D01*
X107713998Y-119000931D01*
X107697095Y-119021905D01*
X106770905Y-119948095D01*
X106708593Y-119982121D01*
X106681810Y-119985000D01*
X103186190Y-119985000D01*
X103118069Y-119964998D01*
X103097095Y-119948095D01*
X102170905Y-119021905D01*
X102136879Y-118959593D01*
X102134000Y-118932810D01*
X102134000Y-104037190D01*
X102154002Y-103969069D01*
X102170905Y-103948095D01*
X103097095Y-103021905D01*
X103159407Y-102987879D01*
X103186190Y-102985000D01*
X109706810Y-102985000D01*
X109774931Y-103005002D01*
G37*
%TD.AperFunction*%
%TD*%
%TA.AperFunction,Conductor*%
%TO.N,Net-(D2-Pad2)*%
G36*
X106749931Y-85155002D02*
G01*
X106770905Y-85171905D01*
X107697095Y-86098095D01*
X107731121Y-86160407D01*
X107734000Y-86187190D01*
X107734000Y-97310000D01*
X109706810Y-97310000D01*
X109774931Y-97330002D01*
X109795905Y-97346905D01*
X110722095Y-98273095D01*
X110756121Y-98335407D01*
X110759000Y-98362190D01*
X110759000Y-101057810D01*
X110738998Y-101125931D01*
X110722095Y-101146905D01*
X109795905Y-102073095D01*
X109733593Y-102107121D01*
X109706810Y-102110000D01*
X103186190Y-102110000D01*
X103118069Y-102089998D01*
X103097095Y-102073095D01*
X102170905Y-101146905D01*
X102136879Y-101084593D01*
X102134000Y-101057810D01*
X102134000Y-86187190D01*
X102154002Y-86119069D01*
X102170905Y-86098095D01*
X103097095Y-85171905D01*
X103159407Y-85137879D01*
X103186190Y-85135000D01*
X106681810Y-85135000D01*
X106749931Y-85155002D01*
G37*
%TD.AperFunction*%
%TD*%
%TA.AperFunction,Conductor*%
%TO.N,Net-(C6-Pad1)*%
G36*
X147337800Y-101280002D02*
G01*
X147384293Y-101333658D01*
X147395679Y-101386000D01*
X147395679Y-101538134D01*
X147402434Y-101600316D01*
X147453564Y-101736705D01*
X147540918Y-101853261D01*
X147657474Y-101940615D01*
X147793863Y-101991745D01*
X147856045Y-101998500D01*
X147941823Y-101998500D01*
X148009944Y-102018502D01*
X148056437Y-102072158D01*
X148067823Y-102124500D01*
X148067823Y-103538134D01*
X148074578Y-103600316D01*
X148125708Y-103736705D01*
X148213062Y-103853261D01*
X148329618Y-103940615D01*
X148466007Y-103991745D01*
X148528189Y-103998500D01*
X150624457Y-103998500D01*
X150686639Y-103991745D01*
X150823028Y-103940615D01*
X150939584Y-103853261D01*
X151026938Y-103736705D01*
X151078068Y-103600316D01*
X151084823Y-103538134D01*
X151084823Y-101441866D01*
X151080232Y-101399607D01*
X151092760Y-101329726D01*
X151141080Y-101277710D01*
X151205495Y-101260000D01*
X153369718Y-101260000D01*
X153437839Y-101280002D01*
X153484332Y-101333658D01*
X153494436Y-101403932D01*
X153465529Y-101467831D01*
X153352147Y-101600584D01*
X153349568Y-101604792D01*
X153349564Y-101604798D01*
X153264328Y-101743891D01*
X153228083Y-101803037D01*
X153226190Y-101807607D01*
X153226188Y-101807611D01*
X153169791Y-101943767D01*
X153137218Y-102022406D01*
X153081788Y-102253289D01*
X153063158Y-102490000D01*
X153081788Y-102726711D01*
X153137218Y-102957594D01*
X153139111Y-102962165D01*
X153139112Y-102962167D01*
X153173072Y-103044153D01*
X153228083Y-103176963D01*
X153230669Y-103181183D01*
X153349564Y-103375202D01*
X153349568Y-103375208D01*
X153352147Y-103379416D01*
X153506354Y-103559969D01*
X153686907Y-103714176D01*
X153691129Y-103716763D01*
X153794642Y-103780197D01*
X153842274Y-103832845D01*
X153853880Y-103902886D01*
X153845216Y-103935847D01*
X153809362Y-104022406D01*
X153753932Y-104253289D01*
X153735302Y-104490000D01*
X153753932Y-104726711D01*
X153809362Y-104957594D01*
X153900227Y-105176963D01*
X153902813Y-105181183D01*
X154021708Y-105375202D01*
X154021712Y-105375208D01*
X154024291Y-105379416D01*
X154178498Y-105559969D01*
X154359051Y-105714176D01*
X154363259Y-105716755D01*
X154363265Y-105716759D01*
X154557284Y-105835654D01*
X154561504Y-105838240D01*
X154566074Y-105840133D01*
X154566078Y-105840135D01*
X154776300Y-105927211D01*
X154780873Y-105929105D01*
X154861076Y-105948360D01*
X155006943Y-105983380D01*
X155006949Y-105983381D01*
X155011756Y-105984535D01*
X155248467Y-106003165D01*
X155485178Y-105984535D01*
X155489985Y-105983381D01*
X155489991Y-105983380D01*
X155635858Y-105948360D01*
X155716061Y-105929105D01*
X155720634Y-105927211D01*
X155930856Y-105840135D01*
X155930860Y-105840133D01*
X155935430Y-105838240D01*
X155939650Y-105835654D01*
X156133669Y-105716759D01*
X156133675Y-105716755D01*
X156137883Y-105714176D01*
X156318436Y-105559969D01*
X156472643Y-105379416D01*
X156475222Y-105375208D01*
X156475226Y-105375202D01*
X156594121Y-105181183D01*
X156596707Y-105176963D01*
X156687572Y-104957594D01*
X156743002Y-104726711D01*
X156761632Y-104490000D01*
X156743002Y-104253289D01*
X156687572Y-104022406D01*
X156654999Y-103943767D01*
X156598602Y-103807611D01*
X156598600Y-103807607D01*
X156596707Y-103803037D01*
X156560462Y-103743891D01*
X156475226Y-103604798D01*
X156475222Y-103604792D01*
X156472643Y-103600584D01*
X156318436Y-103420031D01*
X156137883Y-103265824D01*
X156098056Y-103241418D01*
X156030148Y-103199803D01*
X155982516Y-103147155D01*
X155970910Y-103077114D01*
X155979574Y-103044153D01*
X156013534Y-102962167D01*
X156013535Y-102962165D01*
X156015428Y-102957594D01*
X156070858Y-102726711D01*
X156089488Y-102490000D01*
X156070858Y-102253289D01*
X156015428Y-102022406D01*
X155982855Y-101943767D01*
X155926458Y-101807611D01*
X155926456Y-101807607D01*
X155924563Y-101803037D01*
X155888318Y-101743891D01*
X155803082Y-101604798D01*
X155803078Y-101604792D01*
X155800499Y-101600584D01*
X155687117Y-101467831D01*
X155658086Y-101403041D01*
X155668691Y-101332841D01*
X155715566Y-101279518D01*
X155782928Y-101260000D01*
X165869000Y-101260000D01*
X165869000Y-110440000D01*
X141154000Y-110440000D01*
X141154000Y-101260000D01*
X147269679Y-101260000D01*
X147337800Y-101280002D01*
G37*
%TD.AperFunction*%
%TD*%
%TA.AperFunction,Conductor*%
%TO.N,Net-(C6-Pad1)*%
G36*
X142634000Y-103760000D02*
G01*
X140068536Y-103760000D01*
X140015486Y-103748288D01*
X139817405Y-103656342D01*
X139817401Y-103656341D01*
X139812710Y-103654163D01*
X139581202Y-103589960D01*
X139576065Y-103589411D01*
X139388407Y-103569356D01*
X139388399Y-103569356D01*
X139385072Y-103569000D01*
X139150598Y-103569000D01*
X139148025Y-103569212D01*
X139148014Y-103569212D01*
X139047054Y-103577513D01*
X138972063Y-103583678D01*
X138947054Y-103589960D01*
X138830035Y-103619353D01*
X138759093Y-103616549D01*
X138710244Y-103586244D01*
X137920905Y-102796905D01*
X137886879Y-102734593D01*
X137884000Y-102707810D01*
X137884000Y-102312190D01*
X137904002Y-102244069D01*
X137920905Y-102223095D01*
X138696095Y-101447905D01*
X138758407Y-101413879D01*
X138785190Y-101411000D01*
X138862562Y-101411000D01*
X138888329Y-101413663D01*
X139064369Y-101450440D01*
X139064373Y-101450440D01*
X139069320Y-101451474D01*
X139311817Y-101462486D01*
X139316837Y-101461905D01*
X139316841Y-101461905D01*
X139547929Y-101435167D01*
X139547933Y-101435166D01*
X139552956Y-101434585D01*
X139557828Y-101433206D01*
X139557835Y-101433205D01*
X139619482Y-101415761D01*
X139653789Y-101411000D01*
X140307134Y-101411000D01*
X140369316Y-101404245D01*
X140505705Y-101353115D01*
X140596359Y-101285174D01*
X140662864Y-101260326D01*
X140671923Y-101260000D01*
X142634000Y-101260000D01*
X142634000Y-103760000D01*
G37*
%TD.AperFunction*%
%TD*%
%TA.AperFunction,Conductor*%
%TO.N,Net-(C1-Pad1)*%
G36*
X130707931Y-78148002D02*
G01*
X130728905Y-78164905D01*
X131147095Y-78583095D01*
X131181121Y-78645407D01*
X131184000Y-78672190D01*
X131184000Y-103805000D01*
X138546409Y-103805000D01*
X138599459Y-103816712D01*
X138700595Y-103863658D01*
X138700599Y-103863659D01*
X138705290Y-103865837D01*
X138936798Y-103930040D01*
X138941935Y-103930589D01*
X139129593Y-103950644D01*
X139129601Y-103950644D01*
X139132928Y-103951000D01*
X139367402Y-103951000D01*
X139369975Y-103950788D01*
X139369986Y-103950788D01*
X139470946Y-103942487D01*
X139545937Y-103936322D01*
X139778944Y-103877794D01*
X139783689Y-103875731D01*
X139789375Y-103873259D01*
X139859822Y-103864438D01*
X139928713Y-103899713D01*
X140797095Y-104768095D01*
X140831121Y-104830407D01*
X140834000Y-104857190D01*
X140834000Y-109382810D01*
X140813998Y-109450931D01*
X140797095Y-109471905D01*
X139870905Y-110398095D01*
X139808593Y-110432121D01*
X139781810Y-110435000D01*
X130959000Y-110435000D01*
X130959000Y-126342810D01*
X130938998Y-126410931D01*
X130922095Y-126431905D01*
X130503905Y-126850095D01*
X130441593Y-126884121D01*
X130414810Y-126887000D01*
X112253190Y-126887000D01*
X112185069Y-126866998D01*
X112164095Y-126850095D01*
X111745905Y-126431905D01*
X111711879Y-126369593D01*
X111709000Y-126342810D01*
X111709000Y-123135000D01*
X109233831Y-120659831D01*
X109206517Y-120618954D01*
X108610404Y-119179810D01*
X116299051Y-119179810D01*
X116311235Y-119433457D01*
X116360776Y-119682516D01*
X116362355Y-119686914D01*
X116362357Y-119686921D01*
X116406777Y-119810639D01*
X116446586Y-119921517D01*
X116566780Y-120145210D01*
X116569575Y-120148953D01*
X116569577Y-120148956D01*
X116715926Y-120344941D01*
X116715931Y-120344947D01*
X116718718Y-120348679D01*
X116722027Y-120351959D01*
X116722032Y-120351965D01*
X116820614Y-120449690D01*
X116899062Y-120527456D01*
X116902824Y-120530214D01*
X116902827Y-120530217D01*
X117079599Y-120659831D01*
X117103849Y-120677612D01*
X117107984Y-120679788D01*
X117107988Y-120679790D01*
X117226044Y-120741902D01*
X117328582Y-120795850D01*
X117568323Y-120879571D01*
X117817805Y-120926937D01*
X117938287Y-120931670D01*
X118066880Y-120936723D01*
X118066885Y-120936723D01*
X118071548Y-120936906D01*
X118170529Y-120926066D01*
X118319324Y-120909771D01*
X118319330Y-120909770D01*
X118323977Y-120909261D01*
X118433435Y-120880443D01*
X118565028Y-120845797D01*
X118569548Y-120844607D01*
X118688108Y-120793670D01*
X118798562Y-120746216D01*
X118798565Y-120746214D01*
X118802865Y-120744367D01*
X118806845Y-120741904D01*
X118806849Y-120741902D01*
X119014819Y-120613206D01*
X119014821Y-120613204D01*
X119018802Y-120610741D01*
X119117183Y-120527456D01*
X119209044Y-120449690D01*
X119209046Y-120449688D01*
X119212617Y-120446665D01*
X119380050Y-120255743D01*
X119517424Y-120042171D01*
X119621722Y-119810639D01*
X119690651Y-119566234D01*
X119722698Y-119314326D01*
X119725046Y-119224659D01*
X119706227Y-118971418D01*
X119650183Y-118723741D01*
X119558146Y-118487068D01*
X119537621Y-118451157D01*
X119434457Y-118270656D01*
X119434455Y-118270654D01*
X119432138Y-118266599D01*
X119274926Y-118067176D01*
X119089964Y-117893182D01*
X119046238Y-117862848D01*
X118885148Y-117751096D01*
X118885145Y-117751094D01*
X118881316Y-117748438D01*
X118877139Y-117746378D01*
X118877132Y-117746374D01*
X118657751Y-117638187D01*
X118657747Y-117638186D01*
X118653565Y-117636123D01*
X118411715Y-117558706D01*
X118407110Y-117557956D01*
X118165690Y-117518639D01*
X118165689Y-117518639D01*
X118161078Y-117517888D01*
X118034119Y-117516226D01*
X117911838Y-117514625D01*
X117911835Y-117514625D01*
X117907161Y-117514564D01*
X117655542Y-117548808D01*
X117411748Y-117619867D01*
X117181135Y-117726181D01*
X117177226Y-117728744D01*
X116972683Y-117862848D01*
X116972678Y-117862852D01*
X116968770Y-117865414D01*
X116779317Y-118034507D01*
X116616938Y-118229746D01*
X116485202Y-118446841D01*
X116387001Y-118681024D01*
X116324493Y-118927149D01*
X116299051Y-119179810D01*
X108610404Y-119179810D01*
X108526012Y-118976070D01*
X108518591Y-118958154D01*
X108509000Y-118909937D01*
X108509000Y-116037190D01*
X108529002Y-115969069D01*
X108545905Y-115948095D01*
X109472095Y-115021905D01*
X109534407Y-114987879D01*
X109561190Y-114985000D01*
X111709000Y-114985000D01*
X111709000Y-102419573D01*
X116299051Y-102419573D01*
X116311235Y-102673220D01*
X116360776Y-102922279D01*
X116362355Y-102926677D01*
X116362357Y-102926684D01*
X116406777Y-103050402D01*
X116446586Y-103161280D01*
X116448803Y-103165406D01*
X116562356Y-103376739D01*
X116566780Y-103384973D01*
X116569575Y-103388716D01*
X116569577Y-103388719D01*
X116715926Y-103584704D01*
X116715931Y-103584710D01*
X116718718Y-103588442D01*
X116722027Y-103591722D01*
X116722032Y-103591728D01*
X116895745Y-103763931D01*
X116899062Y-103767219D01*
X116902824Y-103769977D01*
X116902827Y-103769980D01*
X117043682Y-103873259D01*
X117103849Y-103917375D01*
X117107984Y-103919551D01*
X117107988Y-103919553D01*
X117167759Y-103951000D01*
X117328582Y-104035613D01*
X117568323Y-104119334D01*
X117817805Y-104166700D01*
X117938287Y-104171433D01*
X118066880Y-104176486D01*
X118066885Y-104176486D01*
X118071548Y-104176669D01*
X118170529Y-104165829D01*
X118319324Y-104149534D01*
X118319330Y-104149533D01*
X118323977Y-104149024D01*
X118433435Y-104120206D01*
X118565028Y-104085560D01*
X118569548Y-104084370D01*
X118688108Y-104033433D01*
X118798562Y-103985979D01*
X118798565Y-103985977D01*
X118802865Y-103984130D01*
X118806845Y-103981667D01*
X118806849Y-103981665D01*
X119014819Y-103852969D01*
X119014821Y-103852967D01*
X119018802Y-103850504D01*
X119120175Y-103764686D01*
X119209044Y-103689453D01*
X119209046Y-103689451D01*
X119212617Y-103686428D01*
X119380050Y-103495506D01*
X119383712Y-103489814D01*
X119514896Y-103285864D01*
X119517424Y-103281934D01*
X119621722Y-103050402D01*
X119690651Y-102805997D01*
X119722698Y-102554089D01*
X119725046Y-102464422D01*
X119719347Y-102387737D01*
X119706573Y-102215833D01*
X119706572Y-102215829D01*
X119706227Y-102211181D01*
X119650183Y-101963504D01*
X119631893Y-101916472D01*
X119559839Y-101731184D01*
X119559838Y-101731182D01*
X119558146Y-101726831D01*
X119555828Y-101722775D01*
X119434457Y-101510419D01*
X119434455Y-101510417D01*
X119432138Y-101506362D01*
X119274926Y-101306939D01*
X119089964Y-101132945D01*
X119046238Y-101102611D01*
X118885148Y-100990859D01*
X118885145Y-100990857D01*
X118881316Y-100988201D01*
X118877139Y-100986141D01*
X118877132Y-100986137D01*
X118657751Y-100877950D01*
X118657747Y-100877949D01*
X118653565Y-100875886D01*
X118411715Y-100798469D01*
X118407110Y-100797719D01*
X118165690Y-100758402D01*
X118165689Y-100758402D01*
X118161078Y-100757651D01*
X118034120Y-100755989D01*
X117911838Y-100754388D01*
X117911835Y-100754388D01*
X117907161Y-100754327D01*
X117655542Y-100788571D01*
X117411748Y-100859630D01*
X117181135Y-100965944D01*
X117177226Y-100968507D01*
X116972683Y-101102611D01*
X116972678Y-101102615D01*
X116968770Y-101105177D01*
X116919441Y-101149205D01*
X116788851Y-101265761D01*
X116779317Y-101274270D01*
X116616938Y-101469509D01*
X116485202Y-101686604D01*
X116483393Y-101690918D01*
X116483392Y-101690920D01*
X116457630Y-101752357D01*
X116387001Y-101920787D01*
X116324493Y-102166912D01*
X116299051Y-102419573D01*
X111709000Y-102419573D01*
X111709000Y-85659337D01*
X116299051Y-85659337D01*
X116311235Y-85912984D01*
X116360776Y-86162043D01*
X116362355Y-86166441D01*
X116362357Y-86166448D01*
X116406777Y-86290166D01*
X116446586Y-86401044D01*
X116566780Y-86624737D01*
X116569575Y-86628480D01*
X116569577Y-86628483D01*
X116715926Y-86824468D01*
X116715931Y-86824474D01*
X116718718Y-86828206D01*
X116722027Y-86831486D01*
X116722032Y-86831492D01*
X116857180Y-86965465D01*
X116899062Y-87006983D01*
X116902824Y-87009741D01*
X116902827Y-87009744D01*
X117008519Y-87087240D01*
X117103849Y-87157139D01*
X117107984Y-87159315D01*
X117107988Y-87159317D01*
X117226044Y-87221429D01*
X117328582Y-87275377D01*
X117568323Y-87359098D01*
X117817805Y-87406464D01*
X117938287Y-87411197D01*
X118066880Y-87416250D01*
X118066885Y-87416250D01*
X118071548Y-87416433D01*
X118170529Y-87405593D01*
X118319324Y-87389298D01*
X118319330Y-87389297D01*
X118323977Y-87388788D01*
X118433435Y-87359970D01*
X118565028Y-87325324D01*
X118569548Y-87324134D01*
X118775097Y-87235824D01*
X118798562Y-87225743D01*
X118798565Y-87225741D01*
X118802865Y-87223894D01*
X118806845Y-87221431D01*
X118806849Y-87221429D01*
X119014819Y-87092733D01*
X119014821Y-87092731D01*
X119018802Y-87090268D01*
X119117183Y-87006983D01*
X119209044Y-86929217D01*
X119209046Y-86929215D01*
X119212617Y-86926192D01*
X119380050Y-86735270D01*
X119517424Y-86521698D01*
X119621722Y-86290166D01*
X119690651Y-86045761D01*
X119722698Y-85793853D01*
X119725046Y-85704186D01*
X119706227Y-85450945D01*
X119650183Y-85203268D01*
X119558146Y-84966595D01*
X119537621Y-84930684D01*
X119434457Y-84750183D01*
X119434455Y-84750181D01*
X119432138Y-84746126D01*
X119274926Y-84546703D01*
X119089964Y-84372709D01*
X119046238Y-84342375D01*
X118885148Y-84230623D01*
X118885145Y-84230621D01*
X118881316Y-84227965D01*
X118877139Y-84225905D01*
X118877132Y-84225901D01*
X118657751Y-84117714D01*
X118657747Y-84117713D01*
X118653565Y-84115650D01*
X118411715Y-84038233D01*
X118407110Y-84037483D01*
X118165690Y-83998166D01*
X118165689Y-83998166D01*
X118161078Y-83997415D01*
X118034119Y-83995753D01*
X117911838Y-83994152D01*
X117911835Y-83994152D01*
X117907161Y-83994091D01*
X117655542Y-84028335D01*
X117411748Y-84099394D01*
X117181135Y-84205708D01*
X117177226Y-84208271D01*
X116972683Y-84342375D01*
X116972678Y-84342379D01*
X116968770Y-84344941D01*
X116779317Y-84514034D01*
X116616938Y-84709273D01*
X116485202Y-84926368D01*
X116387001Y-85160551D01*
X116324493Y-85406676D01*
X116299051Y-85659337D01*
X111709000Y-85659337D01*
X111709000Y-78672190D01*
X111729002Y-78604069D01*
X111745905Y-78583095D01*
X112164095Y-78164905D01*
X112226407Y-78130879D01*
X112253190Y-78128000D01*
X130639810Y-78128000D01*
X130707931Y-78148002D01*
G37*
%TD.AperFunction*%
%TD*%
M02*
