%TF.GenerationSoftware,KiCad,Pcbnew,(6.0.0)*%
%TF.CreationDate,2022-07-31T17:47:01+01:00*%
%TF.ProjectId,M filament Heater,4d206669-6c61-46d6-956e-742048656174,rev?*%
%TF.SameCoordinates,Original*%
%TF.FileFunction,Copper,L2,Bot*%
%TF.FilePolarity,Positive*%
%FSLAX46Y46*%
G04 Gerber Fmt 4.6, Leading zero omitted, Abs format (unit mm)*
G04 Created by KiCad (PCBNEW (6.0.0)) date 2022-07-31 17:47:01*
%MOMM*%
%LPD*%
G01*
G04 APERTURE LIST*
%TA.AperFunction,ComponentPad*%
%ADD10C,1.600000*%
%TD*%
%TA.AperFunction,ComponentPad*%
%ADD11R,2.000000X2.000000*%
%TD*%
%TA.AperFunction,ComponentPad*%
%ADD12C,2.000000*%
%TD*%
%TA.AperFunction,ComponentPad*%
%ADD13R,2.400000X2.400000*%
%TD*%
%TA.AperFunction,ComponentPad*%
%ADD14C,2.400000*%
%TD*%
%TA.AperFunction,ComponentPad*%
%ADD15O,2.000000X2.000000*%
%TD*%
%TA.AperFunction,ComponentPad*%
%ADD16R,2.500000X2.500000*%
%TD*%
%TA.AperFunction,ComponentPad*%
%ADD17C,2.500000*%
%TD*%
%TA.AperFunction,ComponentPad*%
%ADD18O,1.600000X1.600000*%
%TD*%
%TA.AperFunction,ComponentPad*%
%ADD19R,2.000000X1.905000*%
%TD*%
%TA.AperFunction,ComponentPad*%
%ADD20O,2.000000X1.905000*%
%TD*%
%TA.AperFunction,ComponentPad*%
%ADD21C,4.500000*%
%TD*%
%TA.AperFunction,ComponentPad*%
%ADD22C,1.440000*%
%TD*%
%TA.AperFunction,ComponentPad*%
%ADD23R,3.000000X3.000000*%
%TD*%
%TA.AperFunction,ComponentPad*%
%ADD24C,3.000000*%
%TD*%
%TA.AperFunction,Conductor*%
%ADD25C,2.000000*%
%TD*%
G04 APERTURE END LIST*
D10*
%TO.P,C8,1*%
%TO.N,Net-(C7-Pad1)*%
X186279000Y-91519063D03*
%TO.P,C8,2*%
%TO.N,Net-(C7-Pad2)*%
X191279000Y-91519063D03*
%TD*%
D11*
%TO.P,C6,1*%
%TO.N,Net-(C6-Pad1)*%
X164994427Y-87322144D03*
X166994427Y-86650000D03*
D12*
%TO.P,C6,2*%
%TO.N,GND*%
X166994427Y-81650000D03*
X168994427Y-80977856D03*
%TD*%
D13*
%TO.P,C1,1*%
%TO.N,Net-(C1-Pad1)*%
X125511755Y-119224659D03*
D14*
%TO.P,C1,2*%
%TO.N,GND*%
X118011755Y-119224659D03*
%TD*%
D11*
%TO.P,D4,1,K*%
%TO.N,Net-(D2-Pad2)*%
X104869000Y-88460000D03*
D15*
%TO.P,D4,2,A*%
%TO.N,GND*%
X109949000Y-88460000D03*
%TD*%
D16*
%TO.P,J2,1,Pin_1*%
%TO.N,Net-(C7-Pad2)*%
X189104000Y-104119063D03*
D17*
%TO.P,J2,2,Pin_2*%
%TO.N,Net-(C7-Pad1)*%
X189104000Y-99119063D03*
%TD*%
D13*
%TO.P,C2,1*%
%TO.N,Net-(C1-Pad1)*%
X125511755Y-85704186D03*
D14*
%TO.P,C2,2*%
%TO.N,GND*%
X118011755Y-85704186D03*
%TD*%
D11*
%TO.P,D2,1,K*%
%TO.N,Net-(C1-Pad1)*%
X109949000Y-92535000D03*
D15*
%TO.P,D2,2,A*%
%TO.N,Net-(D2-Pad2)*%
X104869000Y-92535000D03*
%TD*%
D10*
%TO.P,R3,1*%
%TO.N,Net-(C6-Pad1)*%
X159949000Y-103780000D03*
D18*
%TO.P,R3,2*%
%TO.N,Net-(C5-Pad1)*%
X159949000Y-96160000D03*
%TD*%
D10*
%TO.P,R2,1*%
%TO.N,Net-(C5-Pad1)*%
X159949000Y-93810000D03*
D18*
%TO.P,R2,2*%
%TO.N,Net-(R2-Pad2)*%
X159949000Y-86190000D03*
%TD*%
D19*
%TO.P,U1,1,ADJ*%
%TO.N,Net-(C5-Pad1)*%
X139259000Y-99950000D03*
D20*
%TO.P,U1,2,VO*%
%TO.N,Net-(C6-Pad1)*%
X139259000Y-102490000D03*
%TO.P,U1,3,VI*%
%TO.N,Net-(C1-Pad1)*%
X139259000Y-105030000D03*
%TD*%
D11*
%TO.P,D3,1,K*%
%TO.N,Net-(D1-Pad2)*%
X104869000Y-112445000D03*
D15*
%TO.P,D3,2,A*%
%TO.N,GND*%
X109949000Y-112445000D03*
%TD*%
D11*
%TO.P,D1,1,K*%
%TO.N,Net-(C1-Pad1)*%
X109949000Y-116520000D03*
D15*
%TO.P,D1,2,A*%
%TO.N,Net-(D1-Pad2)*%
X104869000Y-116520000D03*
%TD*%
D21*
%TO.P,HS1,1*%
%TO.N,N/C*%
X143954000Y-89790000D03*
X143954000Y-115190000D03*
%TD*%
D22*
%TO.P,RV1,1,1*%
%TO.N,Net-(R2-Pad2)*%
X178459000Y-84167323D03*
%TO.P,RV1,2,2*%
%TO.N,GND*%
X180999000Y-84167323D03*
%TO.P,RV1,3,3*%
X183539000Y-84167323D03*
%TD*%
D13*
%TO.P,C3,1*%
%TO.N,Net-(C1-Pad1)*%
X125511755Y-102464422D03*
D14*
%TO.P,C3,2*%
%TO.N,GND*%
X118011755Y-102464422D03*
%TD*%
D23*
%TO.P,FL1,1,1*%
%TO.N,Net-(C6-Pad1)*%
X165596548Y-97467500D03*
X168228998Y-97467500D03*
D24*
%TO.P,FL1,2,2*%
%TO.N,Net-(C7-Pad1)*%
X178011548Y-97467500D03*
X180836548Y-97467500D03*
%TO.P,FL1,3,3*%
%TO.N,GND*%
X165596548Y-120327500D03*
X168228998Y-120327500D03*
%TO.P,FL1,4,4*%
%TO.N,Net-(C7-Pad2)*%
X178011548Y-120327500D03*
X180836548Y-120327500D03*
%TD*%
D11*
%TO.P,C5,1*%
%TO.N,Net-(C5-Pad1)*%
X149576323Y-102490000D03*
X148904179Y-100490000D03*
D12*
%TO.P,C5,2*%
%TO.N,GND*%
X155248467Y-104490000D03*
X154576323Y-102490000D03*
%TD*%
D10*
%TO.P,C4,1*%
%TO.N,Net-(C1-Pad1)*%
X133739000Y-106330000D03*
%TO.P,C4,2*%
%TO.N,GND*%
X133739000Y-101330000D03*
%TD*%
D11*
%TO.P,C7,1*%
%TO.N,Net-(C7-Pad1)*%
X189179000Y-112144063D03*
X191179000Y-111471919D03*
D12*
%TO.P,C7,2*%
%TO.N,Net-(C7-Pad2)*%
X187179000Y-117816207D03*
X189179000Y-117144063D03*
%TD*%
D16*
%TO.P,~  ~,1,Pin_1*%
%TO.N,Net-(D1-Pad2)*%
X106759000Y-104990000D03*
D17*
%TO.P,~  ~,2,Pin_2*%
%TO.N,Net-(D2-Pad2)*%
X106759000Y-99990000D03*
%TD*%
D10*
%TO.P,R1,1*%
%TO.N,Net-(C1-Pad1)*%
X129389000Y-96550000D03*
D18*
%TO.P,R1,2*%
%TO.N,GND*%
X137009000Y-96550000D03*
%TD*%
D25*
%TO.N,GND*%
X180999000Y-84167323D02*
X183539000Y-84167323D01*
X166994427Y-81650000D02*
X179689000Y-81650000D01*
X182206323Y-84167323D02*
X183539000Y-84167323D01*
X180999000Y-82960000D02*
X180999000Y-84167323D01*
X179689000Y-81650000D02*
X182206323Y-84167323D01*
X179689000Y-81650000D02*
X180999000Y-82960000D01*
%TD*%
%TA.AperFunction,Conductor*%
%TO.N,Net-(C7-Pad1)*%
G36*
X193611065Y-88540002D02*
G01*
X193632039Y-88556905D01*
X194350095Y-89274961D01*
X194384121Y-89337273D01*
X194387000Y-89364056D01*
X194387000Y-126429944D01*
X194366998Y-126498065D01*
X194350095Y-126519039D01*
X194019039Y-126850095D01*
X193956727Y-126884121D01*
X193929944Y-126887000D01*
X175585324Y-126887000D01*
X175517203Y-126866998D01*
X175496229Y-126850095D01*
X174957039Y-126310905D01*
X174923013Y-126248593D01*
X174920134Y-126221810D01*
X174920134Y-123840321D01*
X187940450Y-123840321D01*
X187977975Y-124125352D01*
X188053836Y-124402654D01*
X188166630Y-124667094D01*
X188314268Y-124913779D01*
X188494020Y-125138146D01*
X188702558Y-125336041D01*
X188936024Y-125503804D01*
X188939819Y-125505813D01*
X188939820Y-125505814D01*
X188961576Y-125517333D01*
X189190099Y-125638330D01*
X189460080Y-125737129D01*
X189740971Y-125798373D01*
X189769548Y-125800622D01*
X189963989Y-125815925D01*
X189963998Y-125815925D01*
X189966446Y-125816118D01*
X190121978Y-125816118D01*
X190124114Y-125815972D01*
X190124125Y-125815972D01*
X190332255Y-125801783D01*
X190332261Y-125801782D01*
X190336532Y-125801491D01*
X190340727Y-125800622D01*
X190340729Y-125800622D01*
X190477291Y-125772341D01*
X190618049Y-125743192D01*
X190889050Y-125647225D01*
X191144519Y-125515368D01*
X191148020Y-125512907D01*
X191148024Y-125512905D01*
X191262125Y-125432713D01*
X191379730Y-125350059D01*
X191590329Y-125154358D01*
X191772420Y-124931886D01*
X191922634Y-124686760D01*
X192038190Y-124423516D01*
X192116951Y-124147024D01*
X192157458Y-123862402D01*
X192157552Y-123844569D01*
X192158942Y-123579201D01*
X192158942Y-123579194D01*
X192158964Y-123574915D01*
X192121439Y-123289884D01*
X192045578Y-123012582D01*
X191932784Y-122748142D01*
X191785146Y-122501457D01*
X191605394Y-122277090D01*
X191420607Y-122101734D01*
X191399965Y-122082145D01*
X191399962Y-122082143D01*
X191396856Y-122079195D01*
X191163390Y-121911432D01*
X191141550Y-121899868D01*
X191118361Y-121887590D01*
X190909315Y-121776906D01*
X190639334Y-121678107D01*
X190358443Y-121616863D01*
X190327392Y-121614419D01*
X190135425Y-121599311D01*
X190135416Y-121599311D01*
X190132968Y-121599118D01*
X189977436Y-121599118D01*
X189975300Y-121599264D01*
X189975289Y-121599264D01*
X189767159Y-121613453D01*
X189767153Y-121613454D01*
X189762882Y-121613745D01*
X189758687Y-121614614D01*
X189758685Y-121614614D01*
X189622123Y-121642895D01*
X189481365Y-121672044D01*
X189210364Y-121768011D01*
X188954895Y-121899868D01*
X188951394Y-121902329D01*
X188951390Y-121902331D01*
X188941301Y-121909422D01*
X188719684Y-122065177D01*
X188509085Y-122260878D01*
X188326994Y-122483350D01*
X188176780Y-122728476D01*
X188061224Y-122991720D01*
X187982463Y-123268212D01*
X187941956Y-123552834D01*
X187941934Y-123557123D01*
X187941933Y-123557130D01*
X187940472Y-123836035D01*
X187940450Y-123840321D01*
X174920134Y-123840321D01*
X174920134Y-120306418D01*
X175998465Y-120306418D01*
X176014230Y-120579820D01*
X176015055Y-120584025D01*
X176015056Y-120584033D01*
X176025675Y-120638157D01*
X176066953Y-120848553D01*
X176068340Y-120852603D01*
X176068341Y-120852608D01*
X176089153Y-120913395D01*
X176155660Y-121107644D01*
X176278708Y-121352299D01*
X176281134Y-121355828D01*
X176281137Y-121355834D01*
X176431391Y-121574453D01*
X176433822Y-121577990D01*
X176436709Y-121581163D01*
X176436710Y-121581164D01*
X176470024Y-121617776D01*
X176618130Y-121780543D01*
X176828223Y-121956207D01*
X176831864Y-121958491D01*
X177056572Y-122099451D01*
X177056576Y-122099453D01*
X177060212Y-122101734D01*
X177128092Y-122132383D01*
X177305893Y-122212664D01*
X177305897Y-122212666D01*
X177309805Y-122214430D01*
X177313925Y-122215650D01*
X177313924Y-122215650D01*
X177568271Y-122290991D01*
X177568275Y-122290992D01*
X177572384Y-122292209D01*
X177576618Y-122292857D01*
X177576623Y-122292858D01*
X177838846Y-122332983D01*
X177838848Y-122332983D01*
X177843088Y-122333632D01*
X177982460Y-122335822D01*
X178112619Y-122337867D01*
X178112625Y-122337867D01*
X178116910Y-122337934D01*
X178388783Y-122305034D01*
X178653675Y-122235541D01*
X178657635Y-122233901D01*
X178657640Y-122233899D01*
X178780180Y-122183141D01*
X178906684Y-122130741D01*
X179143130Y-121992573D01*
X179246613Y-121911432D01*
X179348519Y-121831528D01*
X179414467Y-121805236D01*
X179484162Y-121818771D01*
X179507087Y-121834019D01*
X179653223Y-121956207D01*
X179656864Y-121958491D01*
X179881572Y-122099451D01*
X179881576Y-122099453D01*
X179885212Y-122101734D01*
X179953092Y-122132383D01*
X180130893Y-122212664D01*
X180130897Y-122212666D01*
X180134805Y-122214430D01*
X180138925Y-122215650D01*
X180138924Y-122215650D01*
X180393271Y-122290991D01*
X180393275Y-122290992D01*
X180397384Y-122292209D01*
X180401618Y-122292857D01*
X180401623Y-122292858D01*
X180663846Y-122332983D01*
X180663848Y-122332983D01*
X180668088Y-122333632D01*
X180807460Y-122335822D01*
X180937619Y-122337867D01*
X180937625Y-122337867D01*
X180941910Y-122337934D01*
X181213783Y-122305034D01*
X181478675Y-122235541D01*
X181482635Y-122233901D01*
X181482640Y-122233899D01*
X181605180Y-122183141D01*
X181731684Y-122130741D01*
X181968130Y-121992573D01*
X182183637Y-121823594D01*
X182201428Y-121805236D01*
X182330499Y-121672044D01*
X182374217Y-121626931D01*
X182376750Y-121623483D01*
X182376754Y-121623478D01*
X182533805Y-121409678D01*
X182536343Y-121406223D01*
X182563702Y-121355834D01*
X182664966Y-121169330D01*
X182664967Y-121169328D01*
X182667016Y-121165554D01*
X182763817Y-120909377D01*
X182824955Y-120642433D01*
X182849299Y-120369661D01*
X182849741Y-120327500D01*
X182831115Y-120054278D01*
X182775580Y-119786112D01*
X182684165Y-119527965D01*
X182558561Y-119284612D01*
X182548588Y-119270421D01*
X182403556Y-119064062D01*
X182401093Y-119060557D01*
X182249590Y-118897520D01*
X182217594Y-118863088D01*
X182217591Y-118863085D01*
X182214673Y-118859945D01*
X182211358Y-118857231D01*
X182211354Y-118857228D01*
X182020980Y-118701409D01*
X182002753Y-118686490D01*
X181780438Y-118550256D01*
X181772914Y-118545645D01*
X181772913Y-118545645D01*
X181769252Y-118543401D01*
X181758429Y-118538650D01*
X181522421Y-118435049D01*
X181522417Y-118435048D01*
X181518493Y-118433325D01*
X181255114Y-118358300D01*
X181250872Y-118357696D01*
X181250866Y-118357695D01*
X181050382Y-118329162D01*
X180983991Y-118319713D01*
X180840137Y-118318960D01*
X180714425Y-118318302D01*
X180714419Y-118318302D01*
X180710139Y-118318280D01*
X180705895Y-118318839D01*
X180705891Y-118318839D01*
X180586850Y-118334511D01*
X180438626Y-118354025D01*
X180434486Y-118355158D01*
X180434484Y-118355158D01*
X180386668Y-118368239D01*
X180174476Y-118426288D01*
X180170528Y-118427972D01*
X179926530Y-118532046D01*
X179926526Y-118532048D01*
X179922578Y-118533732D01*
X179843141Y-118581274D01*
X179691273Y-118672164D01*
X179691269Y-118672167D01*
X179687591Y-118674368D01*
X179643883Y-118709385D01*
X179502088Y-118822984D01*
X179436418Y-118849966D01*
X179366586Y-118837161D01*
X179343504Y-118822156D01*
X179282983Y-118772620D01*
X179181071Y-118689205D01*
X179181064Y-118689200D01*
X179177753Y-118686490D01*
X178955438Y-118550256D01*
X178947914Y-118545645D01*
X178947913Y-118545645D01*
X178944252Y-118543401D01*
X178933429Y-118538650D01*
X178697421Y-118435049D01*
X178697417Y-118435048D01*
X178693493Y-118433325D01*
X178430114Y-118358300D01*
X178425872Y-118357696D01*
X178425866Y-118357695D01*
X178225382Y-118329162D01*
X178158991Y-118319713D01*
X178015137Y-118318960D01*
X177889425Y-118318302D01*
X177889419Y-118318302D01*
X177885139Y-118318280D01*
X177880895Y-118318839D01*
X177880891Y-118318839D01*
X177761850Y-118334511D01*
X177613626Y-118354025D01*
X177609486Y-118355158D01*
X177609484Y-118355158D01*
X177561668Y-118368239D01*
X177349476Y-118426288D01*
X177345528Y-118427972D01*
X177101530Y-118532046D01*
X177101526Y-118532048D01*
X177097578Y-118533732D01*
X177018141Y-118581274D01*
X176866273Y-118672164D01*
X176866269Y-118672167D01*
X176862591Y-118674368D01*
X176648866Y-118845594D01*
X176460356Y-119044242D01*
X176300550Y-119266636D01*
X176172405Y-119508661D01*
X176170933Y-119512684D01*
X176170931Y-119512688D01*
X176163862Y-119532006D01*
X176078291Y-119765837D01*
X176019952Y-120033407D01*
X175998465Y-120306418D01*
X174920134Y-120306418D01*
X174920134Y-117816207D01*
X185665835Y-117816207D01*
X185684465Y-118052918D01*
X185739895Y-118283801D01*
X185741788Y-118288372D01*
X185741789Y-118288374D01*
X185827044Y-118494198D01*
X185830760Y-118503170D01*
X185833346Y-118507390D01*
X185952241Y-118701409D01*
X185952245Y-118701415D01*
X185954824Y-118705623D01*
X186109031Y-118886176D01*
X186289584Y-119040383D01*
X186293792Y-119042962D01*
X186293798Y-119042966D01*
X186328224Y-119064062D01*
X186492037Y-119164447D01*
X186496607Y-119166340D01*
X186496611Y-119166342D01*
X186706833Y-119253418D01*
X186711406Y-119255312D01*
X186758574Y-119266636D01*
X186937476Y-119309587D01*
X186937482Y-119309588D01*
X186942289Y-119310742D01*
X187179000Y-119329372D01*
X187415711Y-119310742D01*
X187420518Y-119309588D01*
X187420524Y-119309587D01*
X187599426Y-119266636D01*
X187646594Y-119255312D01*
X187651167Y-119253418D01*
X187861389Y-119166342D01*
X187861393Y-119166340D01*
X187865963Y-119164447D01*
X188029776Y-119064062D01*
X188064202Y-119042966D01*
X188064208Y-119042962D01*
X188068416Y-119040383D01*
X188248969Y-118886176D01*
X188403176Y-118705623D01*
X188432833Y-118657228D01*
X188469197Y-118597888D01*
X188521845Y-118550256D01*
X188591886Y-118538650D01*
X188624847Y-118547314D01*
X188711406Y-118583168D01*
X188791609Y-118602423D01*
X188937476Y-118637443D01*
X188937482Y-118637444D01*
X188942289Y-118638598D01*
X189179000Y-118657228D01*
X189415711Y-118638598D01*
X189420518Y-118637444D01*
X189420524Y-118637443D01*
X189566391Y-118602423D01*
X189646594Y-118583168D01*
X189651167Y-118581274D01*
X189861389Y-118494198D01*
X189861393Y-118494196D01*
X189865963Y-118492303D01*
X189962206Y-118433325D01*
X190064202Y-118370822D01*
X190064208Y-118370818D01*
X190068416Y-118368239D01*
X190248969Y-118214032D01*
X190403176Y-118033479D01*
X190405755Y-118029271D01*
X190405759Y-118029265D01*
X190524654Y-117835246D01*
X190527240Y-117831026D01*
X190531337Y-117821137D01*
X190616211Y-117616230D01*
X190616212Y-117616228D01*
X190618105Y-117611657D01*
X190673535Y-117380774D01*
X190692165Y-117144063D01*
X190673535Y-116907352D01*
X190618105Y-116676469D01*
X190582060Y-116589448D01*
X190529135Y-116461674D01*
X190529133Y-116461670D01*
X190527240Y-116457100D01*
X190505498Y-116421620D01*
X190405759Y-116258861D01*
X190405755Y-116258855D01*
X190403176Y-116254647D01*
X190248969Y-116074094D01*
X190068416Y-115919887D01*
X190064208Y-115917308D01*
X190064202Y-115917304D01*
X189870183Y-115798409D01*
X189865963Y-115795823D01*
X189861393Y-115793930D01*
X189861389Y-115793928D01*
X189651167Y-115706852D01*
X189651165Y-115706851D01*
X189646594Y-115704958D01*
X189566391Y-115685703D01*
X189420524Y-115650683D01*
X189420518Y-115650682D01*
X189415711Y-115649528D01*
X189179000Y-115630898D01*
X188942289Y-115649528D01*
X188937482Y-115650682D01*
X188937476Y-115650683D01*
X188791609Y-115685703D01*
X188711406Y-115704958D01*
X188706835Y-115706851D01*
X188706833Y-115706852D01*
X188496611Y-115793928D01*
X188496607Y-115793930D01*
X188492037Y-115795823D01*
X188487817Y-115798409D01*
X188293798Y-115917304D01*
X188293792Y-115917308D01*
X188289584Y-115919887D01*
X188109031Y-116074094D01*
X187954824Y-116254647D01*
X187952237Y-116258869D01*
X187888803Y-116362382D01*
X187836155Y-116410014D01*
X187766114Y-116421620D01*
X187733153Y-116412956D01*
X187651167Y-116378996D01*
X187651165Y-116378995D01*
X187646594Y-116377102D01*
X187566391Y-116357847D01*
X187420524Y-116322827D01*
X187420518Y-116322826D01*
X187415711Y-116321672D01*
X187179000Y-116303042D01*
X186942289Y-116321672D01*
X186937482Y-116322826D01*
X186937476Y-116322827D01*
X186791609Y-116357847D01*
X186711406Y-116377102D01*
X186706835Y-116378995D01*
X186706833Y-116378996D01*
X186496611Y-116466072D01*
X186496607Y-116466074D01*
X186492037Y-116467967D01*
X186487817Y-116470553D01*
X186293798Y-116589448D01*
X186293792Y-116589452D01*
X186289584Y-116592031D01*
X186109031Y-116746238D01*
X185954824Y-116926791D01*
X185952245Y-116930999D01*
X185952241Y-116931005D01*
X185833346Y-117125024D01*
X185830760Y-117129244D01*
X185828867Y-117133814D01*
X185828865Y-117133818D01*
X185741789Y-117344040D01*
X185739895Y-117348613D01*
X185684465Y-117579496D01*
X185665835Y-117816207D01*
X174920134Y-117816207D01*
X174920134Y-105417197D01*
X187345500Y-105417197D01*
X187352255Y-105479379D01*
X187403385Y-105615768D01*
X187490739Y-105732324D01*
X187607295Y-105819678D01*
X187743684Y-105870808D01*
X187805866Y-105877563D01*
X190402134Y-105877563D01*
X190464316Y-105870808D01*
X190600705Y-105819678D01*
X190717261Y-105732324D01*
X190804615Y-105615768D01*
X190855745Y-105479379D01*
X190862500Y-105417197D01*
X190862500Y-102820929D01*
X190855745Y-102758747D01*
X190804615Y-102622358D01*
X190717261Y-102505802D01*
X190600705Y-102418448D01*
X190464316Y-102367318D01*
X190402134Y-102360563D01*
X187805866Y-102360563D01*
X187743684Y-102367318D01*
X187607295Y-102418448D01*
X187490739Y-102505802D01*
X187403385Y-102622358D01*
X187352255Y-102758747D01*
X187345500Y-102820929D01*
X187345500Y-105417197D01*
X174920134Y-105417197D01*
X174920134Y-91519063D01*
X189965502Y-91519063D01*
X189985457Y-91747150D01*
X190044716Y-91968306D01*
X190047039Y-91973287D01*
X190047039Y-91973288D01*
X190139151Y-92170825D01*
X190139154Y-92170830D01*
X190141477Y-92175812D01*
X190272802Y-92363363D01*
X190434700Y-92525261D01*
X190439208Y-92528418D01*
X190439211Y-92528420D01*
X190517389Y-92583161D01*
X190622251Y-92656586D01*
X190627233Y-92658909D01*
X190627238Y-92658912D01*
X190824775Y-92751024D01*
X190829757Y-92753347D01*
X190835065Y-92754769D01*
X190835067Y-92754770D01*
X191045598Y-92811182D01*
X191045600Y-92811182D01*
X191050913Y-92812606D01*
X191279000Y-92832561D01*
X191507087Y-92812606D01*
X191512400Y-92811182D01*
X191512402Y-92811182D01*
X191722933Y-92754770D01*
X191722935Y-92754769D01*
X191728243Y-92753347D01*
X191733225Y-92751024D01*
X191930762Y-92658912D01*
X191930767Y-92658909D01*
X191935749Y-92656586D01*
X192040611Y-92583161D01*
X192118789Y-92528420D01*
X192118792Y-92528418D01*
X192123300Y-92525261D01*
X192285198Y-92363363D01*
X192416523Y-92175812D01*
X192418846Y-92170830D01*
X192418849Y-92170825D01*
X192510961Y-91973288D01*
X192510961Y-91973287D01*
X192513284Y-91968306D01*
X192572543Y-91747150D01*
X192592498Y-91519063D01*
X192572543Y-91290976D01*
X192513284Y-91069820D01*
X192510961Y-91064838D01*
X192418849Y-90867301D01*
X192418846Y-90867296D01*
X192416523Y-90862314D01*
X192285198Y-90674763D01*
X192123300Y-90512865D01*
X192118792Y-90509708D01*
X192118789Y-90509706D01*
X192040611Y-90454965D01*
X191935749Y-90381540D01*
X191930767Y-90379217D01*
X191930762Y-90379214D01*
X191733225Y-90287102D01*
X191733224Y-90287102D01*
X191728243Y-90284779D01*
X191722935Y-90283357D01*
X191722933Y-90283356D01*
X191512402Y-90226944D01*
X191512400Y-90226944D01*
X191507087Y-90225520D01*
X191279000Y-90205565D01*
X191050913Y-90225520D01*
X191045600Y-90226944D01*
X191045598Y-90226944D01*
X190835067Y-90283356D01*
X190835065Y-90283357D01*
X190829757Y-90284779D01*
X190824776Y-90287102D01*
X190824775Y-90287102D01*
X190627238Y-90379214D01*
X190627233Y-90379217D01*
X190622251Y-90381540D01*
X190517389Y-90454965D01*
X190439211Y-90509706D01*
X190439208Y-90509708D01*
X190434700Y-90512865D01*
X190272802Y-90674763D01*
X190141477Y-90862314D01*
X190139154Y-90867296D01*
X190139151Y-90867301D01*
X190047039Y-91064838D01*
X190044716Y-91069820D01*
X189985457Y-91290976D01*
X189965502Y-91519063D01*
X174920134Y-91519063D01*
X174920134Y-89572190D01*
X174940136Y-89504069D01*
X174957039Y-89483095D01*
X175883229Y-88556905D01*
X175945541Y-88522879D01*
X175972324Y-88520000D01*
X193542944Y-88520000D01*
X193611065Y-88540002D01*
G37*
%TD.AperFunction*%
%TD*%
%TA.AperFunction,Conductor*%
%TO.N,GND*%
G36*
X172417931Y-78148002D02*
G01*
X172438905Y-78164905D01*
X172857095Y-78583095D01*
X172891121Y-78645407D01*
X172894000Y-78672190D01*
X172894000Y-126342810D01*
X172873998Y-126410931D01*
X172857095Y-126431905D01*
X172438905Y-126850095D01*
X172376593Y-126884121D01*
X172349810Y-126887000D01*
X109028190Y-126887000D01*
X108960069Y-126866998D01*
X108939095Y-126850095D01*
X108520905Y-126431905D01*
X108486879Y-126369593D01*
X108484000Y-126342810D01*
X108484000Y-120472793D01*
X123803255Y-120472793D01*
X123810010Y-120534975D01*
X123861140Y-120671364D01*
X123948494Y-120787920D01*
X124065050Y-120875274D01*
X124201439Y-120926404D01*
X124263621Y-120933159D01*
X126759889Y-120933159D01*
X126822071Y-120926404D01*
X126958460Y-120875274D01*
X127075016Y-120787920D01*
X127162370Y-120671364D01*
X127213500Y-120534975D01*
X127220255Y-120472793D01*
X127220255Y-117976525D01*
X127213500Y-117914343D01*
X127162370Y-117777954D01*
X127075016Y-117661398D01*
X126958460Y-117574044D01*
X126822071Y-117522914D01*
X126759889Y-117516159D01*
X124263621Y-117516159D01*
X124201439Y-117522914D01*
X124065050Y-117574044D01*
X123948494Y-117661398D01*
X123861140Y-117777954D01*
X123810010Y-117914343D01*
X123803255Y-117976525D01*
X123803255Y-120472793D01*
X108484000Y-120472793D01*
X108484000Y-118058903D01*
X108504002Y-117990782D01*
X108557658Y-117944289D01*
X108627932Y-117934185D01*
X108685563Y-117958076D01*
X108695105Y-117965227D01*
X108695108Y-117965229D01*
X108702295Y-117970615D01*
X108838684Y-118021745D01*
X108900866Y-118028500D01*
X110997134Y-118028500D01*
X111059316Y-118021745D01*
X111195705Y-117970615D01*
X111312261Y-117883261D01*
X111399615Y-117766705D01*
X111450745Y-117630316D01*
X111457500Y-117568134D01*
X111457500Y-115471866D01*
X111450745Y-115409684D01*
X111399615Y-115273295D01*
X111315500Y-115161061D01*
X141190610Y-115161061D01*
X141207147Y-115493255D01*
X141207788Y-115496986D01*
X141207789Y-115496994D01*
X141222586Y-115583103D01*
X141263474Y-115821057D01*
X141358774Y-116139718D01*
X141360287Y-116143189D01*
X141360289Y-116143195D01*
X141451458Y-116352370D01*
X141491666Y-116444622D01*
X141660226Y-116731352D01*
X141662527Y-116734367D01*
X141859712Y-116992742D01*
X141859717Y-116992748D01*
X141862012Y-116995755D01*
X142094102Y-117234002D01*
X142353132Y-117442640D01*
X142635352Y-117618648D01*
X142936672Y-117759476D01*
X143252729Y-117863085D01*
X143578944Y-117927973D01*
X143582716Y-117928260D01*
X143582724Y-117928261D01*
X143906815Y-117952914D01*
X143906820Y-117952914D01*
X143910592Y-117953201D01*
X144242869Y-117938403D01*
X144268211Y-117934185D01*
X144567220Y-117884417D01*
X144567225Y-117884416D01*
X144570961Y-117883794D01*
X144890116Y-117790164D01*
X144893583Y-117788674D01*
X144893587Y-117788673D01*
X145192228Y-117660366D01*
X145192230Y-117660365D01*
X145195712Y-117658869D01*
X145483321Y-117491813D01*
X145486343Y-117489532D01*
X145486347Y-117489529D01*
X145745753Y-117293697D01*
X145745754Y-117293696D01*
X145748777Y-117291414D01*
X145988235Y-117060575D01*
X146198227Y-116802641D01*
X146375710Y-116521347D01*
X146518114Y-116220767D01*
X146623377Y-115905257D01*
X146689972Y-115579386D01*
X146716936Y-115247875D01*
X146717542Y-115190000D01*
X146715970Y-115163919D01*
X146697755Y-114861772D01*
X146697754Y-114861765D01*
X146697527Y-114857997D01*
X146637770Y-114530803D01*
X146539139Y-114213157D01*
X146403061Y-113909662D01*
X146318108Y-113768555D01*
X146233466Y-113627966D01*
X146233462Y-113627960D01*
X146231507Y-113624713D01*
X146229180Y-113621729D01*
X146229175Y-113621722D01*
X146029294Y-113365425D01*
X146029288Y-113365418D01*
X146026963Y-113362437D01*
X145792392Y-113126634D01*
X145531191Y-112920720D01*
X145247144Y-112747677D01*
X145126046Y-112692617D01*
X144947817Y-112611580D01*
X144947809Y-112611577D01*
X144944365Y-112610011D01*
X144627240Y-112509718D01*
X144404896Y-112467906D01*
X144304087Y-112448949D01*
X144304085Y-112448949D01*
X144300364Y-112448249D01*
X143968470Y-112426496D01*
X143964690Y-112426704D01*
X143964689Y-112426704D01*
X143866918Y-112432085D01*
X143636366Y-112444773D01*
X143632639Y-112445434D01*
X143632635Y-112445434D01*
X143373510Y-112491358D01*
X143308864Y-112502815D01*
X143305239Y-112503920D01*
X143305234Y-112503921D01*
X143097683Y-112567178D01*
X142990707Y-112599782D01*
X142987243Y-112601313D01*
X142987236Y-112601316D01*
X142800051Y-112684070D01*
X142686503Y-112734269D01*
X142683249Y-112736205D01*
X142683243Y-112736208D01*
X142403918Y-112902389D01*
X142400659Y-112904328D01*
X142137316Y-113107496D01*
X141900288Y-113340829D01*
X141693009Y-113600949D01*
X141518481Y-113884086D01*
X141379232Y-114186140D01*
X141378073Y-114189740D01*
X141378070Y-114189747D01*
X141369368Y-114216771D01*
X141277280Y-114502735D01*
X141214100Y-114829285D01*
X141213833Y-114833061D01*
X141213832Y-114833066D01*
X141194454Y-115106771D01*
X141190610Y-115161061D01*
X111315500Y-115161061D01*
X111312261Y-115156739D01*
X111195705Y-115069385D01*
X111059316Y-115018255D01*
X110997134Y-115011500D01*
X108900866Y-115011500D01*
X108838684Y-115018255D01*
X108702295Y-115069385D01*
X108695108Y-115074771D01*
X108695105Y-115074773D01*
X108685563Y-115081924D01*
X108619056Y-115106771D01*
X108549674Y-115091717D01*
X108499445Y-115041542D01*
X108484000Y-114981097D01*
X108484000Y-106444500D01*
X108492018Y-106400270D01*
X108507971Y-106357715D01*
X108510745Y-106350316D01*
X108512952Y-106330000D01*
X132425502Y-106330000D01*
X132445457Y-106558087D01*
X132504716Y-106779243D01*
X132507039Y-106784224D01*
X132507039Y-106784225D01*
X132599151Y-106981762D01*
X132599154Y-106981767D01*
X132601477Y-106986749D01*
X132732802Y-107174300D01*
X132894700Y-107336198D01*
X132899208Y-107339355D01*
X132899211Y-107339357D01*
X132977389Y-107394098D01*
X133082251Y-107467523D01*
X133087233Y-107469846D01*
X133087238Y-107469849D01*
X133284775Y-107561961D01*
X133289757Y-107564284D01*
X133295065Y-107565706D01*
X133295067Y-107565707D01*
X133505598Y-107622119D01*
X133505600Y-107622119D01*
X133510913Y-107623543D01*
X133739000Y-107643498D01*
X133967087Y-107623543D01*
X133972400Y-107622119D01*
X133972402Y-107622119D01*
X134182933Y-107565707D01*
X134182935Y-107565706D01*
X134188243Y-107564284D01*
X134193225Y-107561961D01*
X134390762Y-107469849D01*
X134390767Y-107469846D01*
X134395749Y-107467523D01*
X134500611Y-107394098D01*
X134578789Y-107339357D01*
X134578792Y-107339355D01*
X134583300Y-107336198D01*
X134745198Y-107174300D01*
X134876523Y-106986749D01*
X134878846Y-106981767D01*
X134878849Y-106981762D01*
X134970961Y-106784225D01*
X134970961Y-106784224D01*
X134973284Y-106779243D01*
X135032543Y-106558087D01*
X135052498Y-106330000D01*
X135032543Y-106101913D01*
X135013224Y-106029814D01*
X134974707Y-105886067D01*
X134974706Y-105886065D01*
X134973284Y-105880757D01*
X134942781Y-105815342D01*
X134878849Y-105678238D01*
X134878846Y-105678233D01*
X134876523Y-105673251D01*
X134745198Y-105485700D01*
X134583300Y-105323802D01*
X134578792Y-105320645D01*
X134578789Y-105320643D01*
X134500611Y-105265902D01*
X134395749Y-105192477D01*
X134390767Y-105190154D01*
X134390762Y-105190151D01*
X134266619Y-105132263D01*
X137749064Y-105132263D01*
X137785404Y-105369744D01*
X137822030Y-105481803D01*
X137858434Y-105593183D01*
X137858437Y-105593189D01*
X137860042Y-105598101D01*
X137970975Y-105811200D01*
X138115223Y-106003320D01*
X138288912Y-106169301D01*
X138293184Y-106172215D01*
X138468094Y-106291531D01*
X138487378Y-106304686D01*
X138492061Y-106306860D01*
X138492065Y-106306862D01*
X138700595Y-106403658D01*
X138700599Y-106403659D01*
X138705290Y-106405837D01*
X138936798Y-106470040D01*
X138941935Y-106470589D01*
X139129593Y-106490644D01*
X139129601Y-106490644D01*
X139132928Y-106491000D01*
X139367402Y-106491000D01*
X139369975Y-106490788D01*
X139369986Y-106490788D01*
X139470946Y-106482487D01*
X139545937Y-106476322D01*
X139778944Y-106417794D01*
X139917117Y-106357715D01*
X139994526Y-106324057D01*
X139994529Y-106324055D01*
X139999263Y-106321997D01*
X140200977Y-106191502D01*
X140378670Y-106029814D01*
X140439347Y-105952983D01*
X140524367Y-105845330D01*
X140524370Y-105845325D01*
X140527568Y-105841276D01*
X140541885Y-105815342D01*
X140641177Y-105635474D01*
X140641179Y-105635470D01*
X140643674Y-105630950D01*
X140723870Y-105404485D01*
X140729183Y-105374659D01*
X140765095Y-105173052D01*
X140765096Y-105173046D01*
X140766001Y-105167963D01*
X140767846Y-105016981D01*
X140768873Y-104932907D01*
X140768873Y-104932905D01*
X140768936Y-104927737D01*
X140732596Y-104690256D01*
X140695906Y-104578003D01*
X140659566Y-104466817D01*
X140659563Y-104466811D01*
X140657958Y-104461899D01*
X140647213Y-104441257D01*
X140549416Y-104253393D01*
X140547025Y-104248800D01*
X140482900Y-104163393D01*
X140405882Y-104060815D01*
X140405880Y-104060812D01*
X140402777Y-104056680D01*
X140329433Y-103986591D01*
X140232825Y-103894270D01*
X140232824Y-103894269D01*
X140229088Y-103890699D01*
X140192097Y-103865465D01*
X140147096Y-103810556D01*
X140138925Y-103740032D01*
X140170179Y-103676284D01*
X140194660Y-103655589D01*
X140196635Y-103654311D01*
X140200977Y-103651502D01*
X140378670Y-103489814D01*
X140500092Y-103336067D01*
X140524367Y-103305330D01*
X140524370Y-103305325D01*
X140527568Y-103301276D01*
X140534133Y-103289385D01*
X140641177Y-103095474D01*
X140641179Y-103095470D01*
X140643674Y-103090950D01*
X140698652Y-102935700D01*
X140722144Y-102869360D01*
X140722145Y-102869356D01*
X140723870Y-102864485D01*
X140729183Y-102834659D01*
X140765095Y-102633052D01*
X140765096Y-102633046D01*
X140766001Y-102627963D01*
X140767068Y-102540600D01*
X140768873Y-102392907D01*
X140768873Y-102392905D01*
X140768936Y-102387737D01*
X140732596Y-102150256D01*
X140695906Y-102038003D01*
X140659566Y-101926817D01*
X140659563Y-101926811D01*
X140657958Y-101921899D01*
X140625029Y-101858642D01*
X140549416Y-101713393D01*
X140547025Y-101708800D01*
X140430585Y-101553717D01*
X140424747Y-101538134D01*
X147395679Y-101538134D01*
X147402434Y-101600316D01*
X147453564Y-101736705D01*
X147540918Y-101853261D01*
X147657474Y-101940615D01*
X147793863Y-101991745D01*
X147856045Y-101998500D01*
X147941823Y-101998500D01*
X148009944Y-102018502D01*
X148056437Y-102072158D01*
X148067823Y-102124500D01*
X148067823Y-103538134D01*
X148074578Y-103600316D01*
X148125708Y-103736705D01*
X148213062Y-103853261D01*
X148329618Y-103940615D01*
X148466007Y-103991745D01*
X148528189Y-103998500D01*
X150624457Y-103998500D01*
X150686639Y-103991745D01*
X150823028Y-103940615D01*
X150939584Y-103853261D01*
X150994490Y-103780000D01*
X158635502Y-103780000D01*
X158655457Y-104008087D01*
X158656881Y-104013400D01*
X158656881Y-104013402D01*
X158669586Y-104060815D01*
X158714716Y-104229243D01*
X158717039Y-104234224D01*
X158717039Y-104234225D01*
X158809151Y-104431762D01*
X158809154Y-104431767D01*
X158811477Y-104436749D01*
X158942802Y-104624300D01*
X159104700Y-104786198D01*
X159109208Y-104789355D01*
X159109211Y-104789357D01*
X159187389Y-104844098D01*
X159292251Y-104917523D01*
X159297233Y-104919846D01*
X159297238Y-104919849D01*
X159494775Y-105011961D01*
X159499757Y-105014284D01*
X159505065Y-105015706D01*
X159505067Y-105015707D01*
X159715598Y-105072119D01*
X159715600Y-105072119D01*
X159720913Y-105073543D01*
X159949000Y-105093498D01*
X160177087Y-105073543D01*
X160182400Y-105072119D01*
X160182402Y-105072119D01*
X160392933Y-105015707D01*
X160392935Y-105015706D01*
X160398243Y-105014284D01*
X160403225Y-105011961D01*
X160600762Y-104919849D01*
X160600767Y-104919846D01*
X160605749Y-104917523D01*
X160710611Y-104844098D01*
X160788789Y-104789357D01*
X160788792Y-104789355D01*
X160793300Y-104786198D01*
X160955198Y-104624300D01*
X161086523Y-104436749D01*
X161088846Y-104431767D01*
X161088849Y-104431762D01*
X161180961Y-104234225D01*
X161180961Y-104234224D01*
X161183284Y-104229243D01*
X161228415Y-104060815D01*
X161241119Y-104013402D01*
X161241119Y-104013400D01*
X161242543Y-104008087D01*
X161262498Y-103780000D01*
X161242543Y-103551913D01*
X161219762Y-103466892D01*
X161184707Y-103336067D01*
X161184706Y-103336065D01*
X161183284Y-103330757D01*
X161157444Y-103275342D01*
X161088849Y-103128238D01*
X161088846Y-103128233D01*
X161086523Y-103123251D01*
X160955198Y-102935700D01*
X160793300Y-102773802D01*
X160788792Y-102770645D01*
X160788789Y-102770643D01*
X160710611Y-102715902D01*
X160605749Y-102642477D01*
X160600767Y-102640154D01*
X160600762Y-102640151D01*
X160403225Y-102548039D01*
X160403224Y-102548039D01*
X160398243Y-102545716D01*
X160392935Y-102544294D01*
X160392933Y-102544293D01*
X160182402Y-102487881D01*
X160182400Y-102487881D01*
X160177087Y-102486457D01*
X159949000Y-102466502D01*
X159720913Y-102486457D01*
X159715600Y-102487881D01*
X159715598Y-102487881D01*
X159505067Y-102544293D01*
X159505065Y-102544294D01*
X159499757Y-102545716D01*
X159494776Y-102548039D01*
X159494775Y-102548039D01*
X159297238Y-102640151D01*
X159297233Y-102640154D01*
X159292251Y-102642477D01*
X159187389Y-102715902D01*
X159109211Y-102770643D01*
X159109208Y-102770645D01*
X159104700Y-102773802D01*
X158942802Y-102935700D01*
X158811477Y-103123251D01*
X158809154Y-103128233D01*
X158809151Y-103128238D01*
X158740556Y-103275342D01*
X158714716Y-103330757D01*
X158713294Y-103336065D01*
X158713293Y-103336067D01*
X158678238Y-103466892D01*
X158655457Y-103551913D01*
X158635502Y-103780000D01*
X150994490Y-103780000D01*
X151026938Y-103736705D01*
X151078068Y-103600316D01*
X151084823Y-103538134D01*
X151084823Y-101441866D01*
X151078068Y-101379684D01*
X151026938Y-101243295D01*
X150939584Y-101126739D01*
X150823028Y-101039385D01*
X150686639Y-100988255D01*
X150624457Y-100981500D01*
X150538679Y-100981500D01*
X150470558Y-100961498D01*
X150424065Y-100907842D01*
X150412679Y-100855500D01*
X150412679Y-99441866D01*
X150405924Y-99379684D01*
X150354794Y-99243295D01*
X150267440Y-99126739D01*
X150150884Y-99039385D01*
X150087528Y-99015634D01*
X163588048Y-99015634D01*
X163594803Y-99077816D01*
X163645933Y-99214205D01*
X163733287Y-99330761D01*
X163849843Y-99418115D01*
X163986232Y-99469245D01*
X164048414Y-99476000D01*
X169777132Y-99476000D01*
X169839314Y-99469245D01*
X169975703Y-99418115D01*
X170092259Y-99330761D01*
X170179613Y-99214205D01*
X170230743Y-99077816D01*
X170237498Y-99015634D01*
X170237498Y-95919366D01*
X170230743Y-95857184D01*
X170179613Y-95720795D01*
X170092259Y-95604239D01*
X169975703Y-95516885D01*
X169839314Y-95465755D01*
X169777132Y-95459000D01*
X164048414Y-95459000D01*
X163986232Y-95465755D01*
X163849843Y-95516885D01*
X163733287Y-95604239D01*
X163645933Y-95720795D01*
X163594803Y-95857184D01*
X163588048Y-95919366D01*
X163588048Y-99015634D01*
X150087528Y-99015634D01*
X150014495Y-98988255D01*
X149952313Y-98981500D01*
X147856045Y-98981500D01*
X147793863Y-98988255D01*
X147657474Y-99039385D01*
X147540918Y-99126739D01*
X147453564Y-99243295D01*
X147402434Y-99379684D01*
X147395679Y-99441866D01*
X147395679Y-101538134D01*
X140424747Y-101538134D01*
X140405680Y-101487235D01*
X140420672Y-101417839D01*
X140470802Y-101367565D01*
X140487115Y-101360085D01*
X140497293Y-101356269D01*
X140497296Y-101356267D01*
X140505705Y-101353115D01*
X140622261Y-101265761D01*
X140709615Y-101149205D01*
X140760745Y-101012816D01*
X140767500Y-100950634D01*
X140767500Y-98949366D01*
X140760745Y-98887184D01*
X140709615Y-98750795D01*
X140622261Y-98634239D01*
X140505705Y-98546885D01*
X140369316Y-98495755D01*
X140307134Y-98489000D01*
X138210866Y-98489000D01*
X138148684Y-98495755D01*
X138012295Y-98546885D01*
X137895739Y-98634239D01*
X137808385Y-98750795D01*
X137757255Y-98887184D01*
X137750500Y-98949366D01*
X137750500Y-100950634D01*
X137757255Y-101012816D01*
X137808385Y-101149205D01*
X137895739Y-101265761D01*
X138012295Y-101353115D01*
X138032189Y-101360573D01*
X138088953Y-101403213D01*
X138113654Y-101469774D01*
X138098447Y-101539123D01*
X138086842Y-101556647D01*
X137993633Y-101674670D01*
X137993630Y-101674675D01*
X137990432Y-101678724D01*
X137987939Y-101683240D01*
X137987937Y-101683243D01*
X137891112Y-101858642D01*
X137874326Y-101889050D01*
X137872602Y-101893919D01*
X137872600Y-101893923D01*
X137795856Y-102110640D01*
X137794130Y-102115515D01*
X137793223Y-102120608D01*
X137793222Y-102120611D01*
X137787942Y-102150256D01*
X137751999Y-102352037D01*
X137751936Y-102357201D01*
X137750601Y-102466502D01*
X137749064Y-102592263D01*
X137785404Y-102829744D01*
X137821510Y-102940211D01*
X137858434Y-103053183D01*
X137858437Y-103053189D01*
X137860042Y-103058101D01*
X137970975Y-103271200D01*
X138115223Y-103463320D01*
X138118961Y-103466892D01*
X138266324Y-103607715D01*
X138288912Y-103629301D01*
X138325903Y-103654535D01*
X138370904Y-103709444D01*
X138379075Y-103779968D01*
X138347821Y-103843716D01*
X138323340Y-103864411D01*
X138321707Y-103865468D01*
X138317023Y-103868498D01*
X138139330Y-104030186D01*
X138115141Y-104060815D01*
X137993633Y-104214670D01*
X137993630Y-104214675D01*
X137990432Y-104218724D01*
X137987939Y-104223240D01*
X137987937Y-104223243D01*
X137876823Y-104424526D01*
X137874326Y-104429050D01*
X137872602Y-104433919D01*
X137872600Y-104433923D01*
X137870003Y-104441257D01*
X137794130Y-104655515D01*
X137793223Y-104660608D01*
X137793222Y-104660611D01*
X137770852Y-104786198D01*
X137751999Y-104892037D01*
X137751936Y-104897201D01*
X137749511Y-105095716D01*
X137749064Y-105132263D01*
X134266619Y-105132263D01*
X134193225Y-105098039D01*
X134193224Y-105098039D01*
X134188243Y-105095716D01*
X134182935Y-105094294D01*
X134182933Y-105094293D01*
X133972402Y-105037881D01*
X133972400Y-105037881D01*
X133967087Y-105036457D01*
X133739000Y-105016502D01*
X133510913Y-105036457D01*
X133505600Y-105037881D01*
X133505598Y-105037881D01*
X133295067Y-105094293D01*
X133295065Y-105094294D01*
X133289757Y-105095716D01*
X133284776Y-105098039D01*
X133284775Y-105098039D01*
X133087238Y-105190151D01*
X133087233Y-105190154D01*
X133082251Y-105192477D01*
X132977389Y-105265902D01*
X132899211Y-105320643D01*
X132899208Y-105320645D01*
X132894700Y-105323802D01*
X132732802Y-105485700D01*
X132601477Y-105673251D01*
X132599154Y-105678233D01*
X132599151Y-105678238D01*
X132535219Y-105815342D01*
X132504716Y-105880757D01*
X132503294Y-105886065D01*
X132503293Y-105886067D01*
X132464776Y-106029814D01*
X132445457Y-106101913D01*
X132425502Y-106330000D01*
X108512952Y-106330000D01*
X108517500Y-106288134D01*
X108517500Y-103712556D01*
X123803255Y-103712556D01*
X123810010Y-103774738D01*
X123861140Y-103911127D01*
X123948494Y-104027683D01*
X124065050Y-104115037D01*
X124201439Y-104166167D01*
X124263621Y-104172922D01*
X126759889Y-104172922D01*
X126822071Y-104166167D01*
X126958460Y-104115037D01*
X127075016Y-104027683D01*
X127162370Y-103911127D01*
X127213500Y-103774738D01*
X127220255Y-103712556D01*
X127220255Y-101216288D01*
X127213500Y-101154106D01*
X127162370Y-101017717D01*
X127075016Y-100901161D01*
X126958460Y-100813807D01*
X126822071Y-100762677D01*
X126759889Y-100755922D01*
X124263621Y-100755922D01*
X124201439Y-100762677D01*
X124065050Y-100813807D01*
X123948494Y-100901161D01*
X123861140Y-101017717D01*
X123810010Y-101154106D01*
X123803255Y-101216288D01*
X123803255Y-103712556D01*
X108517500Y-103712556D01*
X108517500Y-103691866D01*
X108510745Y-103629684D01*
X108492018Y-103579730D01*
X108484000Y-103535500D01*
X108484000Y-100367415D01*
X108486365Y-100343930D01*
X108487030Y-100341572D01*
X108490177Y-100316837D01*
X108519616Y-100085421D01*
X108519616Y-100085417D01*
X108520014Y-100082291D01*
X108522431Y-99990000D01*
X108503061Y-99729348D01*
X108487107Y-99658842D01*
X108484000Y-99631034D01*
X108484000Y-96550000D01*
X128075502Y-96550000D01*
X128095457Y-96778087D01*
X128096881Y-96783400D01*
X128096881Y-96783402D01*
X128105817Y-96816749D01*
X128154716Y-96999243D01*
X128157039Y-97004224D01*
X128157039Y-97004225D01*
X128249151Y-97201762D01*
X128249154Y-97201767D01*
X128251477Y-97206749D01*
X128382802Y-97394300D01*
X128544700Y-97556198D01*
X128549208Y-97559355D01*
X128549211Y-97559357D01*
X128627389Y-97614098D01*
X128732251Y-97687523D01*
X128737233Y-97689846D01*
X128737238Y-97689849D01*
X128934775Y-97781961D01*
X128939757Y-97784284D01*
X128945065Y-97785706D01*
X128945067Y-97785707D01*
X129155598Y-97842119D01*
X129155600Y-97842119D01*
X129160913Y-97843543D01*
X129389000Y-97863498D01*
X129617087Y-97843543D01*
X129622400Y-97842119D01*
X129622402Y-97842119D01*
X129832933Y-97785707D01*
X129832935Y-97785706D01*
X129838243Y-97784284D01*
X129843225Y-97781961D01*
X130040762Y-97689849D01*
X130040767Y-97689846D01*
X130045749Y-97687523D01*
X130150611Y-97614098D01*
X130228789Y-97559357D01*
X130228792Y-97559355D01*
X130233300Y-97556198D01*
X130395198Y-97394300D01*
X130526523Y-97206749D01*
X130528846Y-97201767D01*
X130528849Y-97201762D01*
X130620961Y-97004225D01*
X130620961Y-97004224D01*
X130623284Y-96999243D01*
X130672184Y-96816749D01*
X130681119Y-96783402D01*
X130681119Y-96783400D01*
X130682543Y-96778087D01*
X130702498Y-96550000D01*
X130682543Y-96321913D01*
X130639158Y-96160000D01*
X158635502Y-96160000D01*
X158655457Y-96388087D01*
X158714716Y-96609243D01*
X158717039Y-96614224D01*
X158717039Y-96614225D01*
X158809151Y-96811762D01*
X158809154Y-96811767D01*
X158811477Y-96816749D01*
X158942802Y-97004300D01*
X159104700Y-97166198D01*
X159109208Y-97169355D01*
X159109211Y-97169357D01*
X159162613Y-97206749D01*
X159292251Y-97297523D01*
X159297233Y-97299846D01*
X159297238Y-97299849D01*
X159490117Y-97389789D01*
X159499757Y-97394284D01*
X159505065Y-97395706D01*
X159505067Y-97395707D01*
X159715598Y-97452119D01*
X159715600Y-97452119D01*
X159720913Y-97453543D01*
X159949000Y-97473498D01*
X160177087Y-97453543D01*
X160182400Y-97452119D01*
X160182402Y-97452119D01*
X160392933Y-97395707D01*
X160392935Y-97395706D01*
X160398243Y-97394284D01*
X160407883Y-97389789D01*
X160600762Y-97299849D01*
X160600767Y-97299846D01*
X160605749Y-97297523D01*
X160735387Y-97206749D01*
X160788789Y-97169357D01*
X160788792Y-97169355D01*
X160793300Y-97166198D01*
X160955198Y-97004300D01*
X161086523Y-96816749D01*
X161088846Y-96811767D01*
X161088849Y-96811762D01*
X161180961Y-96614225D01*
X161180961Y-96614224D01*
X161183284Y-96609243D01*
X161242543Y-96388087D01*
X161262498Y-96160000D01*
X161242543Y-95931913D01*
X161233520Y-95898238D01*
X161184707Y-95716067D01*
X161184706Y-95716065D01*
X161183284Y-95710757D01*
X161179109Y-95701803D01*
X161088849Y-95508238D01*
X161088846Y-95508233D01*
X161086523Y-95503251D01*
X160955198Y-95315700D01*
X160793300Y-95153802D01*
X160788792Y-95150645D01*
X160788789Y-95150643D01*
X160699629Y-95088213D01*
X160655301Y-95032756D01*
X160647992Y-94962137D01*
X160680023Y-94898776D01*
X160699629Y-94881787D01*
X160788789Y-94819357D01*
X160788792Y-94819355D01*
X160793300Y-94816198D01*
X160955198Y-94654300D01*
X161086523Y-94466749D01*
X161088846Y-94461767D01*
X161088849Y-94461762D01*
X161180961Y-94264225D01*
X161180961Y-94264224D01*
X161183284Y-94259243D01*
X161242543Y-94038087D01*
X161262498Y-93810000D01*
X161242543Y-93581913D01*
X161183284Y-93360757D01*
X161180961Y-93355775D01*
X161088849Y-93158238D01*
X161088846Y-93158233D01*
X161086523Y-93153251D01*
X160955198Y-92965700D01*
X160793300Y-92803802D01*
X160788792Y-92800645D01*
X160788789Y-92800643D01*
X160710611Y-92745902D01*
X160605749Y-92672477D01*
X160600767Y-92670154D01*
X160600762Y-92670151D01*
X160403225Y-92578039D01*
X160403224Y-92578039D01*
X160398243Y-92575716D01*
X160392935Y-92574294D01*
X160392933Y-92574293D01*
X160182402Y-92517881D01*
X160182400Y-92517881D01*
X160177087Y-92516457D01*
X159949000Y-92496502D01*
X159720913Y-92516457D01*
X159715600Y-92517881D01*
X159715598Y-92517881D01*
X159505067Y-92574293D01*
X159505065Y-92574294D01*
X159499757Y-92575716D01*
X159494776Y-92578039D01*
X159494775Y-92578039D01*
X159297238Y-92670151D01*
X159297233Y-92670154D01*
X159292251Y-92672477D01*
X159187389Y-92745902D01*
X159109211Y-92800643D01*
X159109208Y-92800645D01*
X159104700Y-92803802D01*
X158942802Y-92965700D01*
X158811477Y-93153251D01*
X158809154Y-93158233D01*
X158809151Y-93158238D01*
X158717039Y-93355775D01*
X158714716Y-93360757D01*
X158655457Y-93581913D01*
X158635502Y-93810000D01*
X158655457Y-94038087D01*
X158714716Y-94259243D01*
X158717039Y-94264224D01*
X158717039Y-94264225D01*
X158809151Y-94461762D01*
X158809154Y-94461767D01*
X158811477Y-94466749D01*
X158942802Y-94654300D01*
X159104700Y-94816198D01*
X159109208Y-94819355D01*
X159109211Y-94819357D01*
X159198371Y-94881787D01*
X159242699Y-94937244D01*
X159250008Y-95007863D01*
X159217977Y-95071224D01*
X159198371Y-95088213D01*
X159109211Y-95150643D01*
X159109208Y-95150645D01*
X159104700Y-95153802D01*
X158942802Y-95315700D01*
X158811477Y-95503251D01*
X158809154Y-95508233D01*
X158809151Y-95508238D01*
X158718891Y-95701803D01*
X158714716Y-95710757D01*
X158713294Y-95716065D01*
X158713293Y-95716067D01*
X158664480Y-95898238D01*
X158655457Y-95931913D01*
X158635502Y-96160000D01*
X130639158Y-96160000D01*
X130623284Y-96100757D01*
X130547107Y-95937393D01*
X130528849Y-95898238D01*
X130528846Y-95898233D01*
X130526523Y-95893251D01*
X130395198Y-95705700D01*
X130233300Y-95543802D01*
X130228792Y-95540645D01*
X130228789Y-95540643D01*
X130125799Y-95468529D01*
X130045749Y-95412477D01*
X130040767Y-95410154D01*
X130040762Y-95410151D01*
X129843225Y-95318039D01*
X129843224Y-95318039D01*
X129838243Y-95315716D01*
X129832935Y-95314294D01*
X129832933Y-95314293D01*
X129622402Y-95257881D01*
X129622400Y-95257881D01*
X129617087Y-95256457D01*
X129389000Y-95236502D01*
X129160913Y-95256457D01*
X129155600Y-95257881D01*
X129155598Y-95257881D01*
X128945067Y-95314293D01*
X128945065Y-95314294D01*
X128939757Y-95315716D01*
X128934776Y-95318039D01*
X128934775Y-95318039D01*
X128737238Y-95410151D01*
X128737233Y-95410154D01*
X128732251Y-95412477D01*
X128652201Y-95468529D01*
X128549211Y-95540643D01*
X128549208Y-95540645D01*
X128544700Y-95543802D01*
X128382802Y-95705700D01*
X128251477Y-95893251D01*
X128249154Y-95898233D01*
X128249151Y-95898238D01*
X128230893Y-95937393D01*
X128154716Y-96100757D01*
X128095457Y-96321913D01*
X128075502Y-96550000D01*
X108484000Y-96550000D01*
X108484000Y-94073903D01*
X108504002Y-94005782D01*
X108557658Y-93959289D01*
X108627932Y-93949185D01*
X108685563Y-93973076D01*
X108695105Y-93980227D01*
X108695108Y-93980229D01*
X108702295Y-93985615D01*
X108838684Y-94036745D01*
X108900866Y-94043500D01*
X110997134Y-94043500D01*
X111059316Y-94036745D01*
X111195705Y-93985615D01*
X111312261Y-93898261D01*
X111399615Y-93781705D01*
X111450745Y-93645316D01*
X111457500Y-93583134D01*
X111457500Y-91486866D01*
X111450745Y-91424684D01*
X111399615Y-91288295D01*
X111312261Y-91171739D01*
X111195705Y-91084385D01*
X111059316Y-91033255D01*
X110997134Y-91026500D01*
X108900866Y-91026500D01*
X108838684Y-91033255D01*
X108702295Y-91084385D01*
X108695108Y-91089771D01*
X108695105Y-91089773D01*
X108685563Y-91096924D01*
X108619056Y-91121771D01*
X108549674Y-91106717D01*
X108499445Y-91056542D01*
X108484000Y-90996097D01*
X108484000Y-89761061D01*
X141190610Y-89761061D01*
X141207147Y-90093255D01*
X141207788Y-90096986D01*
X141207789Y-90096994D01*
X141222586Y-90183103D01*
X141263474Y-90421057D01*
X141358774Y-90739718D01*
X141360287Y-90743189D01*
X141360289Y-90743195D01*
X141451458Y-90952370D01*
X141491666Y-91044622D01*
X141493589Y-91047893D01*
X141493591Y-91047897D01*
X141538659Y-91124560D01*
X141660226Y-91331352D01*
X141662527Y-91334367D01*
X141859712Y-91592742D01*
X141859717Y-91592748D01*
X141862012Y-91595755D01*
X142094102Y-91834002D01*
X142353132Y-92042640D01*
X142635352Y-92218648D01*
X142936672Y-92359476D01*
X143252729Y-92463085D01*
X143578944Y-92527973D01*
X143582716Y-92528260D01*
X143582724Y-92528261D01*
X143906815Y-92552914D01*
X143906820Y-92552914D01*
X143910592Y-92553201D01*
X144242869Y-92538403D01*
X144247401Y-92537649D01*
X144567220Y-92484417D01*
X144567225Y-92484416D01*
X144570961Y-92483794D01*
X144890116Y-92390164D01*
X144893583Y-92388674D01*
X144893587Y-92388673D01*
X145192228Y-92260366D01*
X145192230Y-92260365D01*
X145195712Y-92258869D01*
X145483321Y-92091813D01*
X145486343Y-92089532D01*
X145486347Y-92089529D01*
X145745753Y-91893697D01*
X145745754Y-91893696D01*
X145748777Y-91891414D01*
X145988235Y-91660575D01*
X146198227Y-91402641D01*
X146375710Y-91121347D01*
X146518114Y-90820767D01*
X146623377Y-90505257D01*
X146689972Y-90179386D01*
X146716936Y-89847875D01*
X146717542Y-89790000D01*
X146716026Y-89764853D01*
X146697755Y-89461772D01*
X146697754Y-89461765D01*
X146697527Y-89457997D01*
X146637770Y-89130803D01*
X146539139Y-88813157D01*
X146403061Y-88509662D01*
X146319145Y-88370278D01*
X163485927Y-88370278D01*
X163492682Y-88432460D01*
X163543812Y-88568849D01*
X163631166Y-88685405D01*
X163747722Y-88772759D01*
X163884111Y-88823889D01*
X163946293Y-88830644D01*
X166042561Y-88830644D01*
X166104743Y-88823889D01*
X166241132Y-88772759D01*
X166357688Y-88685405D01*
X166445042Y-88568849D01*
X166496172Y-88432460D01*
X166502927Y-88370278D01*
X166502927Y-88284500D01*
X166522929Y-88216379D01*
X166576585Y-88169886D01*
X166628927Y-88158500D01*
X168042561Y-88158500D01*
X168104743Y-88151745D01*
X168241132Y-88100615D01*
X168357688Y-88013261D01*
X168445042Y-87896705D01*
X168496172Y-87760316D01*
X168502927Y-87698134D01*
X168502927Y-85601866D01*
X168496172Y-85539684D01*
X168445042Y-85403295D01*
X168357688Y-85286739D01*
X168241132Y-85199385D01*
X168104743Y-85148255D01*
X168042561Y-85141500D01*
X165946293Y-85141500D01*
X165884111Y-85148255D01*
X165747722Y-85199385D01*
X165631166Y-85286739D01*
X165543812Y-85403295D01*
X165492682Y-85539684D01*
X165485927Y-85601866D01*
X165485927Y-85687644D01*
X165465925Y-85755765D01*
X165412269Y-85802258D01*
X165359927Y-85813644D01*
X163946293Y-85813644D01*
X163884111Y-85820399D01*
X163747722Y-85871529D01*
X163631166Y-85958883D01*
X163543812Y-86075439D01*
X163492682Y-86211828D01*
X163485927Y-86274010D01*
X163485927Y-88370278D01*
X146319145Y-88370278D01*
X146267502Y-88284500D01*
X146233466Y-88227966D01*
X146233462Y-88227960D01*
X146231507Y-88224713D01*
X146229180Y-88221729D01*
X146229175Y-88221722D01*
X146029294Y-87965425D01*
X146029288Y-87965418D01*
X146026963Y-87962437D01*
X145792392Y-87726634D01*
X145531191Y-87520720D01*
X145247144Y-87347677D01*
X145082523Y-87272828D01*
X144947817Y-87211580D01*
X144947809Y-87211577D01*
X144944365Y-87210011D01*
X144627240Y-87109718D01*
X144404896Y-87067906D01*
X144304087Y-87048949D01*
X144304085Y-87048949D01*
X144300364Y-87048249D01*
X143968470Y-87026496D01*
X143964690Y-87026704D01*
X143964689Y-87026704D01*
X143908634Y-87029789D01*
X143636366Y-87044773D01*
X143632639Y-87045434D01*
X143632635Y-87045434D01*
X143373510Y-87091358D01*
X143308864Y-87102815D01*
X143305239Y-87103920D01*
X143305234Y-87103921D01*
X143127545Y-87158077D01*
X142990707Y-87199782D01*
X142987243Y-87201313D01*
X142987236Y-87201316D01*
X142825480Y-87272828D01*
X142686503Y-87334269D01*
X142683249Y-87336205D01*
X142683243Y-87336208D01*
X142434790Y-87484022D01*
X142400659Y-87504328D01*
X142137316Y-87707496D01*
X141900288Y-87940829D01*
X141693009Y-88200949D01*
X141518481Y-88484086D01*
X141379232Y-88786140D01*
X141378073Y-88789740D01*
X141378070Y-88789747D01*
X141278442Y-89099126D01*
X141277280Y-89102735D01*
X141214100Y-89429285D01*
X141213833Y-89433061D01*
X141213832Y-89433066D01*
X141212067Y-89457997D01*
X141190610Y-89761061D01*
X108484000Y-89761061D01*
X108484000Y-86952320D01*
X123803255Y-86952320D01*
X123810010Y-87014502D01*
X123861140Y-87150891D01*
X123948494Y-87267447D01*
X124065050Y-87354801D01*
X124201439Y-87405931D01*
X124263621Y-87412686D01*
X126759889Y-87412686D01*
X126822071Y-87405931D01*
X126958460Y-87354801D01*
X127075016Y-87267447D01*
X127162370Y-87150891D01*
X127213500Y-87014502D01*
X127220255Y-86952320D01*
X127220255Y-86190000D01*
X158635502Y-86190000D01*
X158655457Y-86418087D01*
X158714716Y-86639243D01*
X158717039Y-86644224D01*
X158717039Y-86644225D01*
X158809151Y-86841762D01*
X158809154Y-86841767D01*
X158811477Y-86846749D01*
X158814634Y-86851257D01*
X158937338Y-87026496D01*
X158942802Y-87034300D01*
X159104700Y-87196198D01*
X159109208Y-87199355D01*
X159109211Y-87199357D01*
X159187389Y-87254098D01*
X159292251Y-87327523D01*
X159297233Y-87329846D01*
X159297238Y-87329849D01*
X159494775Y-87421961D01*
X159499757Y-87424284D01*
X159505065Y-87425706D01*
X159505067Y-87425707D01*
X159715598Y-87482119D01*
X159715600Y-87482119D01*
X159720913Y-87483543D01*
X159949000Y-87503498D01*
X160177087Y-87483543D01*
X160182400Y-87482119D01*
X160182402Y-87482119D01*
X160392933Y-87425707D01*
X160392935Y-87425706D01*
X160398243Y-87424284D01*
X160403225Y-87421961D01*
X160600762Y-87329849D01*
X160600767Y-87329846D01*
X160605749Y-87327523D01*
X160710611Y-87254098D01*
X160788789Y-87199357D01*
X160788792Y-87199355D01*
X160793300Y-87196198D01*
X160955198Y-87034300D01*
X160960663Y-87026496D01*
X161083366Y-86851257D01*
X161086523Y-86846749D01*
X161088846Y-86841767D01*
X161088849Y-86841762D01*
X161180961Y-86644225D01*
X161180961Y-86644224D01*
X161183284Y-86639243D01*
X161242543Y-86418087D01*
X161262498Y-86190000D01*
X161242543Y-85961913D01*
X161217480Y-85868377D01*
X161184707Y-85746067D01*
X161184706Y-85746065D01*
X161183284Y-85740757D01*
X161120112Y-85605283D01*
X161088849Y-85538238D01*
X161088846Y-85538233D01*
X161086523Y-85533251D01*
X160955198Y-85345700D01*
X160793300Y-85183802D01*
X160788792Y-85180645D01*
X160788789Y-85180643D01*
X160710611Y-85125902D01*
X160605749Y-85052477D01*
X160600767Y-85050154D01*
X160600762Y-85050151D01*
X160403225Y-84958039D01*
X160403224Y-84958039D01*
X160398243Y-84955716D01*
X160392935Y-84954294D01*
X160392933Y-84954293D01*
X160182402Y-84897881D01*
X160182400Y-84897881D01*
X160177087Y-84896457D01*
X159949000Y-84876502D01*
X159720913Y-84896457D01*
X159715600Y-84897881D01*
X159715598Y-84897881D01*
X159505067Y-84954293D01*
X159505065Y-84954294D01*
X159499757Y-84955716D01*
X159494776Y-84958039D01*
X159494775Y-84958039D01*
X159297238Y-85050151D01*
X159297233Y-85050154D01*
X159292251Y-85052477D01*
X159187389Y-85125902D01*
X159109211Y-85180643D01*
X159109208Y-85180645D01*
X159104700Y-85183802D01*
X158942802Y-85345700D01*
X158811477Y-85533251D01*
X158809154Y-85538233D01*
X158809151Y-85538238D01*
X158777888Y-85605283D01*
X158714716Y-85740757D01*
X158713294Y-85746065D01*
X158713293Y-85746067D01*
X158680520Y-85868377D01*
X158655457Y-85961913D01*
X158635502Y-86190000D01*
X127220255Y-86190000D01*
X127220255Y-84456052D01*
X127213500Y-84393870D01*
X127162370Y-84257481D01*
X127075016Y-84140925D01*
X126958460Y-84053571D01*
X126822071Y-84002441D01*
X126759889Y-83995686D01*
X124263621Y-83995686D01*
X124201439Y-84002441D01*
X124065050Y-84053571D01*
X123948494Y-84140925D01*
X123861140Y-84257481D01*
X123810010Y-84393870D01*
X123803255Y-84456052D01*
X123803255Y-86952320D01*
X108484000Y-86952320D01*
X108484000Y-78672190D01*
X108504002Y-78604069D01*
X108520905Y-78583095D01*
X108939095Y-78164905D01*
X109001407Y-78130879D01*
X109028190Y-78128000D01*
X172349810Y-78128000D01*
X172417931Y-78148002D01*
G37*
%TD.AperFunction*%
%TD*%
M02*
