%TF.GenerationSoftware,KiCad,Pcbnew,(6.0.0)*%
%TF.CreationDate,2022-07-31T17:47:01+01:00*%
%TF.ProjectId,M filament Heater,4d206669-6c61-46d6-956e-742048656174,rev?*%
%TF.SameCoordinates,Original*%
%TF.FileFunction,Soldermask,Bot*%
%TF.FilePolarity,Negative*%
%FSLAX46Y46*%
G04 Gerber Fmt 4.6, Leading zero omitted, Abs format (unit mm)*
G04 Created by KiCad (PCBNEW (6.0.0)) date 2022-07-31 17:47:01*
%MOMM*%
%LPD*%
G01*
G04 APERTURE LIST*
%ADD10C,1.600000*%
%ADD11R,2.000000X2.000000*%
%ADD12C,2.000000*%
%ADD13R,2.400000X2.400000*%
%ADD14C,2.400000*%
%ADD15O,2.000000X2.000000*%
%ADD16R,2.500000X2.500000*%
%ADD17C,2.500000*%
%ADD18O,1.600000X1.600000*%
%ADD19C,3.200000*%
%ADD20R,2.000000X1.905000*%
%ADD21O,2.000000X1.905000*%
%ADD22C,4.500000*%
%ADD23C,1.440000*%
%ADD24R,3.000000X3.000000*%
%ADD25C,3.000000*%
G04 APERTURE END LIST*
D10*
%TO.C,C8*%
X186279000Y-91519063D03*
X191279000Y-91519063D03*
%TD*%
D11*
%TO.C,C6*%
X164994427Y-87322144D03*
X166994427Y-86650000D03*
D12*
X166994427Y-81650000D03*
X168994427Y-80977856D03*
%TD*%
D13*
%TO.C,C1*%
X125511755Y-119224659D03*
D14*
X118011755Y-119224659D03*
%TD*%
D11*
%TO.C,D4*%
X104869000Y-88460000D03*
D15*
X109949000Y-88460000D03*
%TD*%
D16*
%TO.C,J2*%
X189104000Y-104119063D03*
D17*
X189104000Y-99119063D03*
%TD*%
D13*
%TO.C,C2*%
X125511755Y-85704186D03*
D14*
X118011755Y-85704186D03*
%TD*%
D11*
%TO.C,D2*%
X109949000Y-92535000D03*
D15*
X104869000Y-92535000D03*
%TD*%
D10*
%TO.C,R3*%
X159949000Y-103780000D03*
D18*
X159949000Y-96160000D03*
%TD*%
D10*
%TO.C,R2*%
X159949000Y-93810000D03*
D18*
X159949000Y-86190000D03*
%TD*%
D19*
%TO.C,REF\u002A\u002A*%
X190049707Y-123707618D03*
%TD*%
D20*
%TO.C,U1*%
X139259000Y-99950000D03*
D21*
X139259000Y-102490000D03*
X139259000Y-105030000D03*
%TD*%
D11*
%TO.C,D3*%
X104869000Y-112445000D03*
D15*
X109949000Y-112445000D03*
%TD*%
D11*
%TO.C,D1*%
X109949000Y-116520000D03*
D15*
X104869000Y-116520000D03*
%TD*%
D22*
%TO.C,HS1*%
X143954000Y-89790000D03*
X143954000Y-115190000D03*
%TD*%
D23*
%TO.C,RV1*%
X178459000Y-84167323D03*
X180999000Y-84167323D03*
X183539000Y-84167323D03*
%TD*%
D19*
%TO.C,REF\u002A\u002A*%
X106049000Y-81264424D03*
%TD*%
D13*
%TO.C,C3*%
X125511755Y-102464422D03*
D14*
X118011755Y-102464422D03*
%TD*%
D24*
%TO.C,FL1*%
X165596548Y-97467500D03*
X168228998Y-97467500D03*
D25*
X178011548Y-97467500D03*
X180836548Y-97467500D03*
X165596548Y-120327500D03*
X168228998Y-120327500D03*
X178011548Y-120327500D03*
X180836548Y-120327500D03*
%TD*%
D11*
%TO.C,C5*%
X149576323Y-102490000D03*
X148904179Y-100490000D03*
D12*
X155248467Y-104490000D03*
X154576323Y-102490000D03*
%TD*%
D19*
%TO.C,REF\u002A\u002A*%
X106049000Y-123817618D03*
%TD*%
D10*
%TO.C,C4*%
X133739000Y-106330000D03*
X133739000Y-101330000D03*
%TD*%
D11*
%TO.C,C7*%
X189179000Y-112144063D03*
X191179000Y-111471919D03*
D12*
X187179000Y-117816207D03*
X189179000Y-117144063D03*
%TD*%
D19*
%TO.C,REF\u002A\u002A*%
X190074707Y-81154424D03*
%TD*%
D16*
%TO.C,~  ~*%
X106759000Y-104990000D03*
D17*
X106759000Y-99990000D03*
%TD*%
D10*
%TO.C,R1*%
X129389000Y-96550000D03*
D18*
X137009000Y-96550000D03*
%TD*%
M02*
