%TF.GenerationSoftware,KiCad,Pcbnew,(6.0.0)*%
%TF.CreationDate,2022-07-31T17:47:01+01:00*%
%TF.ProjectId,M filament Heater,4d206669-6c61-46d6-956e-742048656174,rev?*%
%TF.SameCoordinates,Original*%
%TF.FileFunction,Legend,Top*%
%TF.FilePolarity,Positive*%
%FSLAX46Y46*%
G04 Gerber Fmt 4.6, Leading zero omitted, Abs format (unit mm)*
G04 Created by KiCad (PCBNEW (6.0.0)) date 2022-07-31 17:47:01*
%MOMM*%
%LPD*%
G01*
G04 APERTURE LIST*
%ADD10C,0.350000*%
%ADD11C,0.300000*%
%ADD12C,0.150000*%
%ADD13C,0.500000*%
%ADD14C,0.120000*%
G04 APERTURE END LIST*
D10*
X193821857Y-101611904D02*
X193821857Y-100088095D01*
X194583761Y-100850000D02*
X193059952Y-100850000D01*
X193821857Y-106561904D02*
X193821857Y-105038095D01*
D11*
X179616142Y-79930000D02*
X180330428Y-79930000D01*
X179473285Y-80358571D02*
X179973285Y-78858571D01*
X180473285Y-80358571D01*
X181616142Y-80358571D02*
X181616142Y-78858571D01*
X181616142Y-80287142D02*
X181473285Y-80358571D01*
X181187571Y-80358571D01*
X181044714Y-80287142D01*
X180973285Y-80215714D01*
X180901857Y-80072857D01*
X180901857Y-79644285D01*
X180973285Y-79501428D01*
X181044714Y-79430000D01*
X181187571Y-79358571D01*
X181473285Y-79358571D01*
X181616142Y-79430000D01*
X182330428Y-79358571D02*
X182330428Y-80644285D01*
X182259000Y-80787142D01*
X182116142Y-80858571D01*
X182044714Y-80858571D01*
X182330428Y-78858571D02*
X182259000Y-78930000D01*
X182330428Y-79001428D01*
X182401857Y-78930000D01*
X182330428Y-78858571D01*
X182330428Y-79001428D01*
D12*
%TO.C,C8*%
X188612333Y-91878705D02*
X188564714Y-91926324D01*
X188421857Y-91973943D01*
X188326619Y-91973943D01*
X188183761Y-91926324D01*
X188088523Y-91831086D01*
X188040904Y-91735848D01*
X187993285Y-91545372D01*
X187993285Y-91402515D01*
X188040904Y-91212039D01*
X188088523Y-91116801D01*
X188183761Y-91021563D01*
X188326619Y-90973943D01*
X188421857Y-90973943D01*
X188564714Y-91021563D01*
X188612333Y-91069182D01*
X189183761Y-91402515D02*
X189088523Y-91354896D01*
X189040904Y-91307277D01*
X188993285Y-91212039D01*
X188993285Y-91164420D01*
X189040904Y-91069182D01*
X189088523Y-91021563D01*
X189183761Y-90973943D01*
X189374238Y-90973943D01*
X189469476Y-91021563D01*
X189517095Y-91069182D01*
X189564714Y-91164420D01*
X189564714Y-91212039D01*
X189517095Y-91307277D01*
X189469476Y-91354896D01*
X189374238Y-91402515D01*
X189183761Y-91402515D01*
X189088523Y-91450134D01*
X189040904Y-91497753D01*
X188993285Y-91592991D01*
X188993285Y-91783467D01*
X189040904Y-91878705D01*
X189088523Y-91926324D01*
X189183761Y-91973943D01*
X189374238Y-91973943D01*
X189469476Y-91926324D01*
X189517095Y-91878705D01*
X189564714Y-91783467D01*
X189564714Y-91592991D01*
X189517095Y-91497753D01*
X189469476Y-91450134D01*
X189374238Y-91402515D01*
%TO.C,C6*%
X171371569Y-85433989D02*
X171419188Y-85481608D01*
X171466807Y-85624465D01*
X171466807Y-85719703D01*
X171419188Y-85862561D01*
X171323950Y-85957799D01*
X171228712Y-86005418D01*
X171038236Y-86053037D01*
X170895379Y-86053037D01*
X170704903Y-86005418D01*
X170609665Y-85957799D01*
X170514427Y-85862561D01*
X170466807Y-85719703D01*
X170466807Y-85624465D01*
X170514427Y-85481608D01*
X170562046Y-85433989D01*
X170466807Y-84576846D02*
X170466807Y-84767323D01*
X170514427Y-84862561D01*
X170562046Y-84910180D01*
X170704903Y-85005418D01*
X170895379Y-85053037D01*
X171276331Y-85053037D01*
X171371569Y-85005418D01*
X171419188Y-84957799D01*
X171466807Y-84862561D01*
X171466807Y-84672084D01*
X171419188Y-84576846D01*
X171371569Y-84529227D01*
X171276331Y-84481608D01*
X171038236Y-84481608D01*
X170942998Y-84529227D01*
X170895379Y-84576846D01*
X170847760Y-84672084D01*
X170847760Y-84862561D01*
X170895379Y-84957799D01*
X170942998Y-85005418D01*
X171038236Y-85053037D01*
%TO.C,C1*%
X122845088Y-125594301D02*
X122797469Y-125641920D01*
X122654612Y-125689539D01*
X122559374Y-125689539D01*
X122416516Y-125641920D01*
X122321278Y-125546682D01*
X122273659Y-125451444D01*
X122226040Y-125260968D01*
X122226040Y-125118111D01*
X122273659Y-124927635D01*
X122321278Y-124832397D01*
X122416516Y-124737159D01*
X122559374Y-124689539D01*
X122654612Y-124689539D01*
X122797469Y-124737159D01*
X122845088Y-124784778D01*
X123797469Y-125689539D02*
X123226040Y-125689539D01*
X123511755Y-125689539D02*
X123511755Y-124689539D01*
X123416516Y-124832397D01*
X123321278Y-124927635D01*
X123226040Y-124975254D01*
%TO.C,D4*%
X106595904Y-86487380D02*
X106595904Y-85487380D01*
X106834000Y-85487380D01*
X106976857Y-85535000D01*
X107072095Y-85630238D01*
X107119714Y-85725476D01*
X107167333Y-85915952D01*
X107167333Y-86058809D01*
X107119714Y-86249285D01*
X107072095Y-86344523D01*
X106976857Y-86439761D01*
X106834000Y-86487380D01*
X106595904Y-86487380D01*
X108024476Y-85820714D02*
X108024476Y-86487380D01*
X107786380Y-85439761D02*
X107548285Y-86154047D01*
X108167333Y-86154047D01*
%TO.C,C2*%
X122845088Y-92073828D02*
X122797469Y-92121447D01*
X122654612Y-92169066D01*
X122559374Y-92169066D01*
X122416516Y-92121447D01*
X122321278Y-92026209D01*
X122273659Y-91930971D01*
X122226040Y-91740495D01*
X122226040Y-91597638D01*
X122273659Y-91407162D01*
X122321278Y-91311924D01*
X122416516Y-91216686D01*
X122559374Y-91169066D01*
X122654612Y-91169066D01*
X122797469Y-91216686D01*
X122845088Y-91264305D01*
X123226040Y-91264305D02*
X123273659Y-91216686D01*
X123368897Y-91169066D01*
X123606993Y-91169066D01*
X123702231Y-91216686D01*
X123749850Y-91264305D01*
X123797469Y-91359543D01*
X123797469Y-91454781D01*
X123749850Y-91597638D01*
X123178421Y-92169066D01*
X123797469Y-92169066D01*
%TO.C,D2*%
X106595904Y-95562380D02*
X106595904Y-94562380D01*
X106834000Y-94562380D01*
X106976857Y-94610000D01*
X107072095Y-94705238D01*
X107119714Y-94800476D01*
X107167333Y-94990952D01*
X107167333Y-95133809D01*
X107119714Y-95324285D01*
X107072095Y-95419523D01*
X106976857Y-95514761D01*
X106834000Y-95562380D01*
X106595904Y-95562380D01*
X107548285Y-94657619D02*
X107595904Y-94610000D01*
X107691142Y-94562380D01*
X107929238Y-94562380D01*
X108024476Y-94610000D01*
X108072095Y-94657619D01*
X108119714Y-94752857D01*
X108119714Y-94848095D01*
X108072095Y-94990952D01*
X107500666Y-95562380D01*
X108119714Y-95562380D01*
%TO.C,R3*%
X158031380Y-100136666D02*
X157555190Y-100470000D01*
X158031380Y-100708095D02*
X157031380Y-100708095D01*
X157031380Y-100327142D01*
X157079000Y-100231904D01*
X157126619Y-100184285D01*
X157221857Y-100136666D01*
X157364714Y-100136666D01*
X157459952Y-100184285D01*
X157507571Y-100231904D01*
X157555190Y-100327142D01*
X157555190Y-100708095D01*
X157031380Y-99803333D02*
X157031380Y-99184285D01*
X157412333Y-99517619D01*
X157412333Y-99374761D01*
X157459952Y-99279523D01*
X157507571Y-99231904D01*
X157602809Y-99184285D01*
X157840904Y-99184285D01*
X157936142Y-99231904D01*
X157983761Y-99279523D01*
X158031380Y-99374761D01*
X158031380Y-99660476D01*
X157983761Y-99755714D01*
X157936142Y-99803333D01*
%TO.C,R2*%
X158031380Y-90166666D02*
X157555190Y-90500000D01*
X158031380Y-90738095D02*
X157031380Y-90738095D01*
X157031380Y-90357142D01*
X157079000Y-90261904D01*
X157126619Y-90214285D01*
X157221857Y-90166666D01*
X157364714Y-90166666D01*
X157459952Y-90214285D01*
X157507571Y-90261904D01*
X157555190Y-90357142D01*
X157555190Y-90738095D01*
X157126619Y-89785714D02*
X157079000Y-89738095D01*
X157031380Y-89642857D01*
X157031380Y-89404761D01*
X157079000Y-89309523D01*
X157126619Y-89261904D01*
X157221857Y-89214285D01*
X157317095Y-89214285D01*
X157459952Y-89261904D01*
X158031380Y-89833333D01*
X158031380Y-89214285D01*
%TO.C,U1*%
X141261380Y-103221904D02*
X142070904Y-103221904D01*
X142166142Y-103174285D01*
X142213761Y-103126666D01*
X142261380Y-103031428D01*
X142261380Y-102840952D01*
X142213761Y-102745714D01*
X142166142Y-102698095D01*
X142070904Y-102650476D01*
X141261380Y-102650476D01*
X142261380Y-101650476D02*
X142261380Y-102221904D01*
X142261380Y-101936190D02*
X141261380Y-101936190D01*
X141404238Y-102031428D01*
X141499476Y-102126666D01*
X141547095Y-102221904D01*
%TO.C,D3*%
X106595904Y-110472380D02*
X106595904Y-109472380D01*
X106834000Y-109472380D01*
X106976857Y-109520000D01*
X107072095Y-109615238D01*
X107119714Y-109710476D01*
X107167333Y-109900952D01*
X107167333Y-110043809D01*
X107119714Y-110234285D01*
X107072095Y-110329523D01*
X106976857Y-110424761D01*
X106834000Y-110472380D01*
X106595904Y-110472380D01*
X107500666Y-109472380D02*
X108119714Y-109472380D01*
X107786380Y-109853333D01*
X107929238Y-109853333D01*
X108024476Y-109900952D01*
X108072095Y-109948571D01*
X108119714Y-110043809D01*
X108119714Y-110281904D01*
X108072095Y-110377142D01*
X108024476Y-110424761D01*
X107929238Y-110472380D01*
X107643523Y-110472380D01*
X107548285Y-110424761D01*
X107500666Y-110377142D01*
%TO.C,D1*%
X106595904Y-119547380D02*
X106595904Y-118547380D01*
X106834000Y-118547380D01*
X106976857Y-118595000D01*
X107072095Y-118690238D01*
X107119714Y-118785476D01*
X107167333Y-118975952D01*
X107167333Y-119118809D01*
X107119714Y-119309285D01*
X107072095Y-119404523D01*
X106976857Y-119499761D01*
X106834000Y-119547380D01*
X106595904Y-119547380D01*
X108119714Y-119547380D02*
X107548285Y-119547380D01*
X107834000Y-119547380D02*
X107834000Y-118547380D01*
X107738761Y-118690238D01*
X107643523Y-118785476D01*
X107548285Y-118833095D01*
%TO.C,HS1*%
X143886380Y-103848095D02*
X142886380Y-103848095D01*
X143362571Y-103848095D02*
X143362571Y-103276666D01*
X143886380Y-103276666D02*
X142886380Y-103276666D01*
X143838761Y-102848095D02*
X143886380Y-102705238D01*
X143886380Y-102467142D01*
X143838761Y-102371904D01*
X143791142Y-102324285D01*
X143695904Y-102276666D01*
X143600666Y-102276666D01*
X143505428Y-102324285D01*
X143457809Y-102371904D01*
X143410190Y-102467142D01*
X143362571Y-102657619D01*
X143314952Y-102752857D01*
X143267333Y-102800476D01*
X143172095Y-102848095D01*
X143076857Y-102848095D01*
X142981619Y-102800476D01*
X142934000Y-102752857D01*
X142886380Y-102657619D01*
X142886380Y-102419523D01*
X142934000Y-102276666D01*
X143886380Y-101324285D02*
X143886380Y-101895714D01*
X143886380Y-101610000D02*
X142886380Y-101610000D01*
X143029238Y-101705238D01*
X143124476Y-101800476D01*
X143172095Y-101895714D01*
%TO.C,RV1*%
X177143761Y-86342980D02*
X176810428Y-85866790D01*
X176572333Y-86342980D02*
X176572333Y-85342980D01*
X176953285Y-85342980D01*
X177048523Y-85390600D01*
X177096142Y-85438219D01*
X177143761Y-85533457D01*
X177143761Y-85676314D01*
X177096142Y-85771552D01*
X177048523Y-85819171D01*
X176953285Y-85866790D01*
X176572333Y-85866790D01*
X177429476Y-85342980D02*
X177762809Y-86342980D01*
X178096142Y-85342980D01*
X178953285Y-86342980D02*
X178381857Y-86342980D01*
X178667571Y-86342980D02*
X178667571Y-85342980D01*
X178572333Y-85485838D01*
X178477095Y-85581076D01*
X178381857Y-85628695D01*
%TO.C,C3*%
X122845088Y-108834064D02*
X122797469Y-108881683D01*
X122654612Y-108929302D01*
X122559374Y-108929302D01*
X122416516Y-108881683D01*
X122321278Y-108786445D01*
X122273659Y-108691207D01*
X122226040Y-108500731D01*
X122226040Y-108357874D01*
X122273659Y-108167398D01*
X122321278Y-108072160D01*
X122416516Y-107976922D01*
X122559374Y-107929302D01*
X122654612Y-107929302D01*
X122797469Y-107976922D01*
X122845088Y-108024541D01*
X123178421Y-107929302D02*
X123797469Y-107929302D01*
X123464135Y-108310255D01*
X123606993Y-108310255D01*
X123702231Y-108357874D01*
X123749850Y-108405493D01*
X123797469Y-108500731D01*
X123797469Y-108738826D01*
X123749850Y-108834064D01*
X123702231Y-108881683D01*
X123606993Y-108929302D01*
X123321278Y-108929302D01*
X123226040Y-108881683D01*
X123178421Y-108834064D01*
%TO.C,FL1*%
X172168452Y-110036071D02*
X171835119Y-110036071D01*
X171835119Y-110559880D02*
X171835119Y-109559880D01*
X172311309Y-109559880D01*
X173168452Y-110559880D02*
X172692262Y-110559880D01*
X172692262Y-109559880D01*
X174025595Y-110559880D02*
X173454167Y-110559880D01*
X173739881Y-110559880D02*
X173739881Y-109559880D01*
X173644643Y-109702738D01*
X173549405Y-109797976D01*
X173454167Y-109845595D01*
%TO.C,C5*%
X150623888Y-106504642D02*
X150576269Y-106552261D01*
X150433412Y-106599880D01*
X150338174Y-106599880D01*
X150195316Y-106552261D01*
X150100078Y-106457023D01*
X150052459Y-106361785D01*
X150004840Y-106171309D01*
X150004840Y-106028452D01*
X150052459Y-105837976D01*
X150100078Y-105742738D01*
X150195316Y-105647500D01*
X150338174Y-105599880D01*
X150433412Y-105599880D01*
X150576269Y-105647500D01*
X150623888Y-105695119D01*
X151528650Y-105599880D02*
X151052459Y-105599880D01*
X151004840Y-106076071D01*
X151052459Y-106028452D01*
X151147697Y-105980833D01*
X151385793Y-105980833D01*
X151481031Y-106028452D01*
X151528650Y-106076071D01*
X151576269Y-106171309D01*
X151576269Y-106409404D01*
X151528650Y-106504642D01*
X151481031Y-106552261D01*
X151385793Y-106599880D01*
X151147697Y-106599880D01*
X151052459Y-106552261D01*
X151004840Y-106504642D01*
%TO.C,C4*%
X134096142Y-103966666D02*
X134143761Y-104014285D01*
X134191380Y-104157142D01*
X134191380Y-104252380D01*
X134143761Y-104395238D01*
X134048523Y-104490476D01*
X133953285Y-104538095D01*
X133762809Y-104585714D01*
X133619952Y-104585714D01*
X133429476Y-104538095D01*
X133334238Y-104490476D01*
X133239000Y-104395238D01*
X133191380Y-104252380D01*
X133191380Y-104157142D01*
X133239000Y-104014285D01*
X133286619Y-103966666D01*
X133524714Y-103109523D02*
X134191380Y-103109523D01*
X133143761Y-103347619D02*
X133858047Y-103585714D01*
X133858047Y-102966666D01*
%TO.C,C7*%
X185262333Y-114203705D02*
X185214714Y-114251324D01*
X185071857Y-114298943D01*
X184976619Y-114298943D01*
X184833761Y-114251324D01*
X184738523Y-114156086D01*
X184690904Y-114060848D01*
X184643285Y-113870372D01*
X184643285Y-113727515D01*
X184690904Y-113537039D01*
X184738523Y-113441801D01*
X184833761Y-113346563D01*
X184976619Y-113298943D01*
X185071857Y-113298943D01*
X185214714Y-113346563D01*
X185262333Y-113394182D01*
X185595666Y-113298943D02*
X186262333Y-113298943D01*
X185833761Y-114298943D01*
D13*
%TO.C,~  ~*%
X111998285Y-106627857D02*
X111855428Y-106485000D01*
X111712571Y-106199285D01*
X111998285Y-105627857D01*
X111855428Y-105342142D01*
X111712571Y-105199285D01*
X111998285Y-99913571D02*
X111855428Y-99770714D01*
X111712571Y-99485000D01*
X111998285Y-98913571D01*
X111855428Y-98627857D01*
X111712571Y-98485000D01*
D12*
%TO.C,R1*%
X133032333Y-94632380D02*
X132699000Y-94156190D01*
X132460904Y-94632380D02*
X132460904Y-93632380D01*
X132841857Y-93632380D01*
X132937095Y-93680000D01*
X132984714Y-93727619D01*
X133032333Y-93822857D01*
X133032333Y-93965714D01*
X132984714Y-94060952D01*
X132937095Y-94108571D01*
X132841857Y-94156190D01*
X132460904Y-94156190D01*
X133984714Y-94632380D02*
X133413285Y-94632380D01*
X133699000Y-94632380D02*
X133699000Y-93632380D01*
X133603761Y-93775238D01*
X133508523Y-93870476D01*
X133413285Y-93918095D01*
D14*
%TO.C,C8*%
X185059000Y-88649063D02*
X185059000Y-94389063D01*
X192499000Y-88649063D02*
X192499000Y-94389063D01*
X185059000Y-94389063D02*
X192499000Y-94389063D01*
X185059000Y-88649063D02*
X192499000Y-88649063D01*
%TO.C,C6*%
X162197427Y-82469000D02*
X165753427Y-82469000D01*
X165050427Y-79429000D02*
X168938427Y-79429000D01*
X165364427Y-79309000D02*
X168624427Y-79309000D01*
X170234427Y-80349000D02*
X170386427Y-80349000D01*
X164555427Y-79669000D02*
X169433427Y-79669000D01*
X164415427Y-79749000D02*
X167754427Y-79749000D01*
X162800427Y-81269000D02*
X165753427Y-81269000D01*
X170234427Y-81429000D02*
X171292427Y-81429000D01*
X162157427Y-82589000D02*
X165753427Y-82589000D01*
X170234427Y-80909000D02*
X170919427Y-80909000D01*
X168235427Y-82789000D02*
X171891427Y-82789000D01*
X162828427Y-81229000D02*
X165753427Y-81229000D01*
X170234427Y-81029000D02*
X171014427Y-81029000D01*
X163788427Y-80189000D02*
X167754427Y-80189000D01*
X162170427Y-82549000D02*
X165753427Y-82549000D01*
X165616427Y-79229000D02*
X168372427Y-79229000D01*
X162856427Y-81189000D02*
X165753427Y-81189000D01*
X163740427Y-80229000D02*
X167754427Y-80229000D01*
X166395427Y-79069000D02*
X167593427Y-79069000D01*
X162004427Y-83189000D02*
X171984427Y-83189000D01*
X168235427Y-82709000D02*
X171868427Y-82709000D01*
X170234427Y-80229000D02*
X170248427Y-80229000D01*
X162511427Y-81749000D02*
X165753427Y-81749000D01*
X161929427Y-83750000D02*
X172059427Y-83750000D01*
X162599427Y-81589000D02*
X165753427Y-81589000D01*
X168235427Y-82629000D02*
X171844427Y-82629000D01*
X162087427Y-82829000D02*
X165753427Y-82829000D01*
X163315427Y-80629000D02*
X165753427Y-80629000D01*
X170234427Y-81149000D02*
X171104427Y-81149000D01*
X161976427Y-83349000D02*
X172012427Y-83349000D01*
X170234427Y-80669000D02*
X170710427Y-80669000D01*
X170234427Y-81789000D02*
X171498427Y-81789000D01*
X170234427Y-81509000D02*
X171341427Y-81509000D01*
X170234427Y-81069000D02*
X171044427Y-81069000D01*
X162109427Y-82749000D02*
X165753427Y-82749000D01*
X164705427Y-79589000D02*
X169283427Y-79589000D01*
X162355427Y-82069000D02*
X165753427Y-82069000D01*
X168235427Y-82269000D02*
X171717427Y-82269000D01*
X162469427Y-81829000D02*
X165753427Y-81829000D01*
X170234427Y-80549000D02*
X170595427Y-80549000D01*
X170234427Y-80469000D02*
X170514427Y-80469000D01*
X162066427Y-82909000D02*
X171922427Y-82909000D01*
X170234427Y-81309000D02*
X171215427Y-81309000D01*
X163037427Y-80949000D02*
X165753427Y-80949000D01*
X161959427Y-83470000D02*
X172029427Y-83470000D01*
X166132427Y-79109000D02*
X167856427Y-79109000D01*
X161954427Y-83510000D02*
X172034427Y-83510000D01*
X162183427Y-82509000D02*
X165753427Y-82509000D01*
X162391427Y-81989000D02*
X165753427Y-81989000D01*
X161924427Y-83830000D02*
X172064427Y-83830000D01*
X162721427Y-81389000D02*
X165753427Y-81389000D01*
X163516427Y-80429000D02*
X165753427Y-80429000D01*
X162490427Y-81789000D02*
X165753427Y-81789000D01*
X162211427Y-82429000D02*
X165753427Y-82429000D01*
X170234427Y-81549000D02*
X171365427Y-81549000D01*
X162337427Y-82109000D02*
X165753427Y-82109000D01*
X163354427Y-80589000D02*
X165753427Y-80589000D01*
X162944427Y-81069000D02*
X165753427Y-81069000D01*
X162747427Y-81349000D02*
X165753427Y-81349000D01*
X170234427Y-81709000D02*
X171456427Y-81709000D01*
X163433427Y-80509000D02*
X165753427Y-80509000D01*
X162097427Y-82789000D02*
X165753427Y-82789000D01*
X170234427Y-81749000D02*
X171477427Y-81749000D01*
X163205427Y-80749000D02*
X165753427Y-80749000D01*
X170234427Y-81189000D02*
X171132427Y-81189000D01*
X170234427Y-80509000D02*
X170555427Y-80509000D01*
X161936427Y-83670000D02*
X172052427Y-83670000D01*
X161916427Y-83990000D02*
X172072427Y-83990000D01*
X161919427Y-83910000D02*
X172069427Y-83910000D01*
X163838427Y-80149000D02*
X167754427Y-80149000D01*
X161914427Y-84070000D02*
X172074427Y-84070000D01*
X170234427Y-80749000D02*
X170783427Y-80749000D01*
X170234427Y-81989000D02*
X171597427Y-81989000D01*
X162012427Y-83149000D02*
X171976427Y-83149000D01*
X170234427Y-81349000D02*
X171241427Y-81349000D01*
X162554427Y-81669000D02*
X165753427Y-81669000D01*
X162449427Y-81869000D02*
X165753427Y-81869000D01*
X163888427Y-80109000D02*
X167754427Y-80109000D01*
X162056427Y-82949000D02*
X171932427Y-82949000D01*
X162532427Y-81709000D02*
X165753427Y-81709000D01*
X162120427Y-82709000D02*
X165753427Y-82709000D01*
X161914427Y-84150000D02*
X172074427Y-84150000D01*
X164349427Y-79789000D02*
X167754427Y-79789000D01*
X163693427Y-80269000D02*
X167754427Y-80269000D01*
X164785427Y-79549000D02*
X169203427Y-79549000D01*
X163393427Y-80549000D02*
X165753427Y-80549000D01*
X162020427Y-83109000D02*
X171968427Y-83109000D01*
X161915427Y-84030000D02*
X172073427Y-84030000D01*
X161949427Y-83550000D02*
X172039427Y-83550000D01*
X161914427Y-84110000D02*
X172074427Y-84110000D01*
X163619427Y-89129646D02*
X164619427Y-89129646D01*
X170234427Y-81589000D02*
X171389427Y-81589000D01*
X161997427Y-83229000D02*
X171991427Y-83229000D01*
X163005427Y-80989000D02*
X165753427Y-80989000D01*
X163474427Y-80469000D02*
X165753427Y-80469000D01*
X170234427Y-80269000D02*
X170295427Y-80269000D01*
X163241427Y-80709000D02*
X165753427Y-80709000D01*
X170234427Y-81949000D02*
X171578427Y-81949000D01*
X162271427Y-82269000D02*
X165753427Y-82269000D01*
X162132427Y-82669000D02*
X165753427Y-82669000D01*
X162287427Y-82229000D02*
X165753427Y-82229000D01*
X170234427Y-80629000D02*
X170673427Y-80629000D01*
X170234427Y-82109000D02*
X171651427Y-82109000D01*
X163069427Y-80909000D02*
X165753427Y-80909000D01*
X168235427Y-82389000D02*
X171762427Y-82389000D01*
X170234427Y-81829000D02*
X171519427Y-81829000D01*
X162773427Y-81309000D02*
X165753427Y-81309000D01*
X164484427Y-79709000D02*
X169504427Y-79709000D01*
X170234427Y-80709000D02*
X170747427Y-80709000D01*
X162884427Y-81149000D02*
X165753427Y-81149000D01*
X165148427Y-79389000D02*
X168840427Y-79389000D01*
X164957427Y-79469000D02*
X169031427Y-79469000D01*
X168235427Y-82229000D02*
X171701427Y-82229000D01*
X170234427Y-81229000D02*
X171160427Y-81229000D01*
X164629427Y-79629000D02*
X169359427Y-79629000D01*
X162320427Y-82149000D02*
X165753427Y-82149000D01*
X162240427Y-82349000D02*
X165753427Y-82349000D01*
X162974427Y-81029000D02*
X165753427Y-81029000D01*
X162144427Y-82629000D02*
X165753427Y-82629000D01*
X170234427Y-80429000D02*
X170472427Y-80429000D01*
X168235427Y-82309000D02*
X171732427Y-82309000D01*
X170234427Y-81869000D02*
X171539427Y-81869000D01*
X168235427Y-82749000D02*
X171879427Y-82749000D01*
X170234427Y-80949000D02*
X170951427Y-80949000D01*
X170234427Y-82029000D02*
X171615427Y-82029000D01*
X165252427Y-79349000D02*
X168736427Y-79349000D01*
X162914427Y-81109000D02*
X165753427Y-81109000D01*
X170234427Y-81669000D02*
X171434427Y-81669000D01*
X161983427Y-83309000D02*
X172005427Y-83309000D01*
X162623427Y-81549000D02*
X165753427Y-81549000D01*
X170234427Y-80589000D02*
X170634427Y-80589000D01*
X170234427Y-81389000D02*
X171267427Y-81389000D01*
X161944427Y-83590000D02*
X172044427Y-83590000D01*
X170234427Y-82189000D02*
X171684427Y-82189000D01*
X161970427Y-83389000D02*
X172018427Y-83389000D01*
X168235427Y-82589000D02*
X171831427Y-82589000D01*
X162226427Y-82389000D02*
X165753427Y-82389000D01*
X170234427Y-81269000D02*
X171188427Y-81269000D01*
X162373427Y-82029000D02*
X165753427Y-82029000D01*
X168235427Y-82349000D02*
X171748427Y-82349000D01*
X163994427Y-80029000D02*
X167754427Y-80029000D01*
X162647427Y-81509000D02*
X165753427Y-81509000D01*
X170234427Y-80789000D02*
X170818427Y-80789000D01*
X162410427Y-81949000D02*
X165753427Y-81949000D01*
X162076427Y-82869000D02*
X165753427Y-82869000D01*
X162304427Y-82189000D02*
X165753427Y-82189000D01*
X163602427Y-80349000D02*
X167754427Y-80349000D01*
X161921427Y-83870000D02*
X172067427Y-83870000D01*
X168235427Y-82829000D02*
X171901427Y-82829000D01*
X170234427Y-80989000D02*
X170983427Y-80989000D01*
X170234427Y-81109000D02*
X171074427Y-81109000D01*
X162671427Y-81469000D02*
X165753427Y-81469000D01*
X164049427Y-79989000D02*
X167754427Y-79989000D01*
X168235427Y-82869000D02*
X171912427Y-82869000D01*
X161926427Y-83790000D02*
X172062427Y-83790000D01*
X170234427Y-82069000D02*
X171633427Y-82069000D01*
X164119427Y-89629646D02*
X164119427Y-88629646D01*
X161964427Y-83429000D02*
X172024427Y-83429000D01*
X164869427Y-79509000D02*
X169119427Y-79509000D01*
X162696427Y-81429000D02*
X165753427Y-81429000D01*
X162430427Y-81909000D02*
X165753427Y-81909000D01*
X162038427Y-83029000D02*
X171950427Y-83029000D01*
X161940427Y-83630000D02*
X172048427Y-83630000D01*
X162256427Y-82309000D02*
X165753427Y-82309000D01*
X161932427Y-83710000D02*
X172056427Y-83710000D01*
X168235427Y-82469000D02*
X171791427Y-82469000D01*
X170234427Y-80389000D02*
X170430427Y-80389000D01*
X162577427Y-81629000D02*
X165753427Y-81629000D01*
X164285427Y-79829000D02*
X167754427Y-79829000D01*
X162029427Y-83069000D02*
X171959427Y-83069000D01*
X168235427Y-82509000D02*
X171805427Y-82509000D01*
X162047427Y-82989000D02*
X171941427Y-82989000D01*
X170234427Y-80309000D02*
X170341427Y-80309000D01*
X170234427Y-82149000D02*
X171668427Y-82149000D01*
X163647427Y-80309000D02*
X167754427Y-80309000D01*
X163170427Y-80789000D02*
X165753427Y-80789000D01*
X170234427Y-80869000D02*
X170886427Y-80869000D01*
X163102427Y-80869000D02*
X165753427Y-80869000D01*
X165764427Y-79189000D02*
X168224427Y-79189000D01*
X161990427Y-83269000D02*
X171998427Y-83269000D01*
X165932427Y-79149000D02*
X168056427Y-79149000D01*
X163558427Y-80389000D02*
X167754427Y-80389000D01*
X170234427Y-81909000D02*
X171558427Y-81909000D01*
X163940427Y-80069000D02*
X167754427Y-80069000D01*
X168235427Y-82669000D02*
X171856427Y-82669000D01*
X170234427Y-81469000D02*
X171317427Y-81469000D01*
X168235427Y-82549000D02*
X171818427Y-82549000D01*
X161917427Y-83950000D02*
X172071427Y-83950000D01*
X170234427Y-81629000D02*
X171411427Y-81629000D01*
X164224427Y-79869000D02*
X167754427Y-79869000D01*
X163136427Y-80829000D02*
X165753427Y-80829000D01*
X170234427Y-80829000D02*
X170852427Y-80829000D01*
X168235427Y-82429000D02*
X171777427Y-82429000D01*
X165484427Y-79269000D02*
X168504427Y-79269000D01*
X164105427Y-79949000D02*
X167754427Y-79949000D01*
X164164427Y-79909000D02*
X167754427Y-79909000D01*
X163278427Y-80669000D02*
X165753427Y-80669000D01*
X165281329Y-88974903D02*
G75*
G03*
X163734427Y-88098012I1713097J4824904D01*
G01*
%TO.C,C1*%
X113680755Y-119989659D02*
X113680755Y-118459659D01*
X114600755Y-123014659D02*
X114600755Y-115434659D01*
X121561755Y-127302659D02*
X121561755Y-111146659D01*
X119520755Y-126989659D02*
X119520755Y-111459659D01*
X117320755Y-117784659D02*
X117320755Y-112465659D01*
X119120755Y-126863659D02*
X119120755Y-120664659D01*
X115520755Y-124380659D02*
X115520755Y-114068659D01*
X113760755Y-120575659D02*
X113760755Y-117873659D01*
X117400755Y-126035659D02*
X117400755Y-120664659D01*
X116360755Y-125249659D02*
X116360755Y-113199659D01*
X120720755Y-127238659D02*
X120720755Y-111210659D01*
X117720755Y-117784659D02*
X117720755Y-112220659D01*
X118720755Y-126714659D02*
X118720755Y-120664659D01*
X118840755Y-126761659D02*
X118840755Y-120664659D01*
X118960755Y-126806659D02*
X118960755Y-120664659D01*
X117480755Y-126085659D02*
X117480755Y-120664659D01*
X118200755Y-117784659D02*
X118200755Y-111966659D01*
X119440755Y-117784659D02*
X119440755Y-111482659D01*
X120160755Y-127145659D02*
X120160755Y-111303659D01*
X117600755Y-117784659D02*
X117600755Y-112290659D01*
X121401755Y-127297659D02*
X121401755Y-111151659D01*
X113800755Y-120788659D02*
X113800755Y-117660659D01*
X115440755Y-124283659D02*
X115440755Y-114165659D01*
X120520755Y-127209659D02*
X120520755Y-111239659D01*
X116640755Y-125487659D02*
X116640755Y-120664659D01*
X117480755Y-117784659D02*
X117480755Y-112363659D01*
X119760755Y-127054659D02*
X119760755Y-111394659D01*
X113840755Y-120976659D02*
X113840755Y-117472659D01*
X119920755Y-127093659D02*
X119920755Y-111355659D01*
X115840755Y-124742659D02*
X115840755Y-113706659D01*
X118800755Y-126746659D02*
X118800755Y-120664659D01*
X120560755Y-127215659D02*
X120560755Y-111233659D01*
X119640755Y-127023659D02*
X119640755Y-111425659D01*
X114560755Y-122939659D02*
X114560755Y-115509659D01*
X115600755Y-124475659D02*
X115600755Y-113973659D01*
X118480755Y-126613659D02*
X118480755Y-120664659D01*
X114040755Y-121702659D02*
X114040755Y-116746659D01*
X119040755Y-117784659D02*
X119040755Y-111613659D01*
X118920755Y-117784659D02*
X118920755Y-111656659D01*
X118400755Y-117784659D02*
X118400755Y-111871659D01*
X115280755Y-124078659D02*
X115280755Y-114370659D01*
X119680755Y-127034659D02*
X119680755Y-111414659D01*
X119000755Y-117784659D02*
X119000755Y-111627659D01*
X120000755Y-127111659D02*
X120000755Y-111337659D01*
X118320755Y-126540659D02*
X118320755Y-120664659D01*
X116120755Y-125026659D02*
X116120755Y-113422659D01*
X117680755Y-117784659D02*
X117680755Y-112243659D01*
X116320755Y-125213659D02*
X116320755Y-113235659D01*
X116160755Y-125064659D02*
X116160755Y-113384659D01*
X117000755Y-125763659D02*
X117000755Y-120664659D01*
X116440755Y-125319659D02*
X116440755Y-113129659D01*
X120640755Y-127227659D02*
X120640755Y-111221659D01*
X115640755Y-124521659D02*
X115640755Y-113927659D01*
X121521755Y-127301659D02*
X121521755Y-111147659D01*
X114880755Y-123497659D02*
X114880755Y-114951659D01*
X118640755Y-126681659D02*
X118640755Y-120664659D01*
X116960755Y-125734659D02*
X116960755Y-120664659D01*
X114840755Y-123433659D02*
X114840755Y-115015659D01*
X119960755Y-127102659D02*
X119960755Y-111346659D01*
X118560755Y-126647659D02*
X118560755Y-120664659D01*
X120280755Y-127168659D02*
X120280755Y-111280659D01*
X120840755Y-127252659D02*
X120840755Y-111196659D01*
X118400755Y-126577659D02*
X118400755Y-120664659D01*
X117040755Y-125792659D02*
X117040755Y-120664659D01*
X115760755Y-124656659D02*
X115760755Y-113792659D01*
X113720755Y-120322659D02*
X113720755Y-118126659D01*
X115880755Y-124784659D02*
X115880755Y-113664659D01*
X117440755Y-126060659D02*
X117440755Y-120664659D01*
X118440755Y-126595659D02*
X118440755Y-120664659D01*
X116720755Y-125551659D02*
X116720755Y-120664659D01*
X121641755Y-127304659D02*
X121641755Y-111144659D01*
X114320755Y-122437659D02*
X114320755Y-116011659D01*
X119440755Y-126966659D02*
X119440755Y-120664659D01*
X118280755Y-126521659D02*
X118280755Y-120664659D01*
X115000755Y-123683659D02*
X115000755Y-114765659D01*
X121481755Y-127300659D02*
X121481755Y-111148659D01*
X120080755Y-127129659D02*
X120080755Y-111319659D01*
X116000755Y-124908659D02*
X116000755Y-113540659D01*
X116920755Y-125704659D02*
X116920755Y-120664659D01*
X119600755Y-127012659D02*
X119600755Y-111436659D01*
X118120755Y-117784659D02*
X118120755Y-112005659D01*
X118640755Y-117784659D02*
X118640755Y-111767659D01*
X116800755Y-125614659D02*
X116800755Y-120664659D01*
X119240755Y-117784659D02*
X119240755Y-111544659D01*
X116200755Y-125102659D02*
X116200755Y-113346659D01*
X119720755Y-127044659D02*
X119720755Y-111404659D01*
X116960755Y-117784659D02*
X116960755Y-112714659D01*
X115240755Y-124024659D02*
X115240755Y-114424659D01*
X120240755Y-127161659D02*
X120240755Y-111287659D01*
X116480755Y-125353659D02*
X116480755Y-113095659D01*
X120800755Y-127248659D02*
X120800755Y-111200659D01*
X118760755Y-126730659D02*
X118760755Y-120664659D01*
X114360755Y-122527659D02*
X114360755Y-115921659D01*
X117520755Y-126110659D02*
X117520755Y-120664659D01*
X114640755Y-123088659D02*
X114640755Y-115360659D01*
X119560755Y-127001659D02*
X119560755Y-111447659D01*
X113880755Y-121144659D02*
X113880755Y-117304659D01*
X116240755Y-125140659D02*
X116240755Y-113308659D01*
X116400755Y-125284659D02*
X116400755Y-113164659D01*
X121201755Y-127285659D02*
X121201755Y-111163659D01*
X117880755Y-117784659D02*
X117880755Y-112130659D01*
X121040755Y-127273659D02*
X121040755Y-111175659D01*
X117920755Y-117784659D02*
X117920755Y-112109659D01*
X116680755Y-125519659D02*
X116680755Y-120664659D01*
X115360755Y-124182659D02*
X115360755Y-114266659D01*
X118360755Y-117784659D02*
X118360755Y-111890659D01*
X117240755Y-125930659D02*
X117240755Y-120664659D01*
X120120755Y-127137659D02*
X120120755Y-111311659D01*
X118000755Y-117784659D02*
X118000755Y-112067659D01*
X117840755Y-117784659D02*
X117840755Y-112152659D01*
X115800755Y-124699659D02*
X115800755Y-113749659D01*
X121081755Y-127276659D02*
X121081755Y-111172659D01*
X118040755Y-117784659D02*
X118040755Y-112046659D01*
X118240755Y-126502659D02*
X118240755Y-120664659D01*
X119400755Y-126954659D02*
X119400755Y-120664659D01*
X117080755Y-125820659D02*
X117080755Y-120664659D01*
X117720755Y-126228659D02*
X117720755Y-120664659D01*
X116080755Y-124987659D02*
X116080755Y-113461659D01*
X116920755Y-117784659D02*
X116920755Y-112744659D01*
X120760755Y-127243659D02*
X120760755Y-111205659D01*
X114920755Y-123560659D02*
X114920755Y-114888659D01*
X120360755Y-127183659D02*
X120360755Y-111265659D01*
X118680755Y-126698659D02*
X118680755Y-120664659D01*
X116760755Y-125582659D02*
X116760755Y-120664659D01*
X116280755Y-125176659D02*
X116280755Y-113272659D01*
X117080755Y-117784659D02*
X117080755Y-112628659D01*
X116880755Y-125674659D02*
X116880755Y-120664659D01*
X119120755Y-117784659D02*
X119120755Y-111585659D01*
X115080755Y-123801659D02*
X115080755Y-114647659D01*
X115160755Y-123915659D02*
X115160755Y-114533659D01*
X119480755Y-126978659D02*
X119480755Y-111470659D01*
X118560755Y-117784659D02*
X118560755Y-111801659D01*
X114280755Y-122344659D02*
X114280755Y-116104659D01*
X115400755Y-124233659D02*
X115400755Y-114215659D01*
X119160755Y-126877659D02*
X119160755Y-120664659D01*
X117920755Y-126339659D02*
X117920755Y-120664659D01*
X115560755Y-124428659D02*
X115560755Y-114020659D01*
X118920755Y-126792659D02*
X118920755Y-120664659D01*
X119360755Y-117784659D02*
X119360755Y-111506659D01*
X117520755Y-117784659D02*
X117520755Y-112338659D01*
X117240755Y-117784659D02*
X117240755Y-112518659D01*
X121761755Y-127305659D02*
X121761755Y-111143659D01*
X116640755Y-117784659D02*
X116640755Y-112961659D01*
X117760755Y-117784659D02*
X117760755Y-112197659D01*
X117760755Y-126251659D02*
X117760755Y-120664659D01*
X121000755Y-127269659D02*
X121000755Y-111179659D01*
X118880755Y-126777659D02*
X118880755Y-120664659D01*
X119280755Y-126917659D02*
X119280755Y-120664659D01*
X117120755Y-117784659D02*
X117120755Y-112600659D01*
X115120755Y-123858659D02*
X115120755Y-114590659D01*
X115960755Y-124867659D02*
X115960755Y-113581659D01*
X118240755Y-117784659D02*
X118240755Y-111946659D01*
X121161755Y-127282659D02*
X121161755Y-111166659D01*
X117640755Y-126182659D02*
X117640755Y-120664659D01*
X117320755Y-125983659D02*
X117320755Y-120664659D01*
X116520755Y-125387659D02*
X116520755Y-113061659D01*
X114760755Y-123300659D02*
X114760755Y-115148659D01*
X119320755Y-126929659D02*
X119320755Y-120664659D01*
X130451246Y-123779659D02*
X128851246Y-123779659D01*
X119200755Y-117784659D02*
X119200755Y-111558659D01*
X121121755Y-127279659D02*
X121121755Y-111169659D01*
X118160755Y-126463659D02*
X118160755Y-120664659D01*
X116040755Y-124948659D02*
X116040755Y-113500659D01*
X118720755Y-117784659D02*
X118720755Y-111734659D01*
X119360755Y-126942659D02*
X119360755Y-120664659D01*
X114400755Y-122614659D02*
X114400755Y-115834659D01*
X117160755Y-125876659D02*
X117160755Y-120664659D01*
X120920755Y-127261659D02*
X120920755Y-111187659D01*
X113960755Y-121442659D02*
X113960755Y-117006659D01*
X118040755Y-126402659D02*
X118040755Y-120664659D01*
X118800755Y-117784659D02*
X118800755Y-111702659D01*
X118160755Y-117784659D02*
X118160755Y-111985659D01*
X119320755Y-117784659D02*
X119320755Y-111519659D01*
X117560755Y-126134659D02*
X117560755Y-120664659D01*
X119160755Y-117784659D02*
X119160755Y-111571659D01*
X114440755Y-122699659D02*
X114440755Y-115749659D01*
X118200755Y-126482659D02*
X118200755Y-120664659D01*
X119280755Y-117784659D02*
X119280755Y-111531659D01*
X120960755Y-127265659D02*
X120960755Y-111183659D01*
X118080755Y-117784659D02*
X118080755Y-112025659D01*
X116840755Y-125644659D02*
X116840755Y-120664659D01*
X117840755Y-126296659D02*
X117840755Y-120664659D01*
X119080755Y-117784659D02*
X119080755Y-111599659D01*
X117360755Y-126009659D02*
X117360755Y-120664659D01*
X118600755Y-117784659D02*
X118600755Y-111784659D01*
X119200755Y-126890659D02*
X119200755Y-120664659D01*
X121721755Y-127304659D02*
X121721755Y-111144659D01*
X118280755Y-117784659D02*
X118280755Y-111927659D01*
X121241755Y-127288659D02*
X121241755Y-111160659D01*
X118880755Y-117784659D02*
X118880755Y-111671659D01*
X114680755Y-123160659D02*
X114680755Y-115288659D01*
X114240755Y-122248659D02*
X114240755Y-116200659D01*
X118520755Y-117784659D02*
X118520755Y-111818659D01*
X114480755Y-122781659D02*
X114480755Y-115667659D01*
X114520755Y-122861659D02*
X114520755Y-115587659D01*
X119880755Y-127084659D02*
X119880755Y-111364659D01*
X116680755Y-117784659D02*
X116680755Y-112929659D01*
X117880755Y-126318659D02*
X117880755Y-120664659D01*
X121601755Y-127303659D02*
X121601755Y-111145659D01*
X114120755Y-121935659D02*
X114120755Y-116513659D01*
X114200755Y-122148659D02*
X114200755Y-116300659D01*
X121441755Y-127298659D02*
X121441755Y-111150659D01*
X120320755Y-127176659D02*
X120320755Y-111272659D01*
X117800755Y-126273659D02*
X117800755Y-120664659D01*
X118600755Y-126664659D02*
X118600755Y-120664659D01*
X117280755Y-125957659D02*
X117280755Y-120664659D01*
X118480755Y-117784659D02*
X118480755Y-111835659D01*
X118520755Y-126630659D02*
X118520755Y-120664659D01*
X117440755Y-117784659D02*
X117440755Y-112388659D01*
X118320755Y-117784659D02*
X118320755Y-111908659D01*
X116800755Y-117784659D02*
X116800755Y-112834659D01*
X117120755Y-125848659D02*
X117120755Y-120664659D01*
X118120755Y-126443659D02*
X118120755Y-120664659D01*
X118000755Y-126381659D02*
X118000755Y-120664659D01*
X114080755Y-121821659D02*
X114080755Y-116627659D01*
X116840755Y-117784659D02*
X116840755Y-112804659D01*
X116720755Y-117784659D02*
X116720755Y-112897659D01*
X117680755Y-126205659D02*
X117680755Y-120664659D01*
X117200755Y-125903659D02*
X117200755Y-120664659D01*
X117960755Y-117784659D02*
X117960755Y-112088659D01*
X117200755Y-117784659D02*
X117200755Y-112545659D01*
X115040755Y-123743659D02*
X115040755Y-114705659D01*
X118840755Y-117784659D02*
X118840755Y-111687659D01*
X114000755Y-121575659D02*
X114000755Y-116873659D01*
X121681755Y-127304659D02*
X121681755Y-111144659D01*
X116560755Y-125421659D02*
X116560755Y-113027659D01*
X117280755Y-117784659D02*
X117280755Y-112491659D01*
X121281755Y-127290659D02*
X121281755Y-111158659D01*
X117000755Y-117784659D02*
X117000755Y-112685659D01*
X113920755Y-121298659D02*
X113920755Y-117150659D01*
X116760755Y-117784659D02*
X116760755Y-112866659D01*
X119840755Y-127074659D02*
X119840755Y-111374659D01*
X120600755Y-127221659D02*
X120600755Y-111227659D01*
X117360755Y-117784659D02*
X117360755Y-112439659D01*
X117400755Y-117784659D02*
X117400755Y-112413659D01*
X114800755Y-123367659D02*
X114800755Y-115081659D01*
X115920755Y-124826659D02*
X115920755Y-113622659D01*
X116600755Y-125454659D02*
X116600755Y-120664659D01*
X114960755Y-123622659D02*
X114960755Y-114826659D01*
X119400755Y-117784659D02*
X119400755Y-111494659D01*
X120880755Y-127257659D02*
X120880755Y-111191659D01*
X120400755Y-127190659D02*
X120400755Y-111258659D01*
X117960755Y-126360659D02*
X117960755Y-120664659D01*
X115680755Y-124567659D02*
X115680755Y-113881659D01*
X116880755Y-117784659D02*
X116880755Y-112774659D01*
X120680755Y-127232659D02*
X120680755Y-111216659D01*
X118080755Y-126423659D02*
X118080755Y-120664659D01*
X117040755Y-117784659D02*
X117040755Y-112656659D01*
X121361755Y-127295659D02*
X121361755Y-111153659D01*
X116600755Y-117784659D02*
X116600755Y-112994659D01*
X117160755Y-117784659D02*
X117160755Y-112572659D01*
X115200755Y-123970659D02*
X115200755Y-114478659D01*
X119800755Y-127064659D02*
X119800755Y-111384659D01*
X115720755Y-124612659D02*
X115720755Y-113836659D01*
X119240755Y-126904659D02*
X119240755Y-120664659D01*
X121321755Y-127293659D02*
X121321755Y-111155659D01*
X114160755Y-122044659D02*
X114160755Y-116404659D01*
X117800755Y-117784659D02*
X117800755Y-112175659D01*
X129651246Y-124579659D02*
X129651246Y-122979659D01*
X115480755Y-124332659D02*
X115480755Y-114116659D01*
X117560755Y-117784659D02*
X117560755Y-112314659D01*
X119040755Y-126835659D02*
X119040755Y-120664659D01*
X118440755Y-117784659D02*
X118440755Y-111853659D01*
X117640755Y-117784659D02*
X117640755Y-112266659D01*
X118760755Y-117784659D02*
X118760755Y-111718659D01*
X120480755Y-127203659D02*
X120480755Y-111245659D01*
X119080755Y-126849659D02*
X119080755Y-120664659D01*
X117600755Y-126158659D02*
X117600755Y-120664659D01*
X118680755Y-117784659D02*
X118680755Y-111750659D01*
X120440755Y-127196659D02*
X120440755Y-111252659D01*
X115320755Y-124130659D02*
X115320755Y-114318659D01*
X118360755Y-126558659D02*
X118360755Y-120664659D01*
X120200755Y-127153659D02*
X120200755Y-111295659D01*
X114720755Y-123231659D02*
X114720755Y-115217659D01*
X119000755Y-126821659D02*
X119000755Y-120664659D01*
X118960755Y-117784659D02*
X118960755Y-111642659D01*
X120040755Y-127120659D02*
X120040755Y-111328659D01*
X129881755Y-119224659D02*
G75*
G03*
X129881755Y-119224659I-8120000J0D01*
G01*
%TO.C,D4*%
X102289000Y-85190000D02*
X102289000Y-89831000D01*
X102289000Y-86700000D02*
X112529000Y-86700000D01*
X105559000Y-85190000D02*
X105559000Y-86700000D01*
X102289000Y-85190000D02*
X112529000Y-85190000D01*
X112529000Y-85190000D02*
X112529000Y-89831000D01*
X109260000Y-85190000D02*
X109260000Y-86700000D01*
X102289000Y-89831000D02*
X112529000Y-89831000D01*
%TO.C,J2*%
X191404000Y-106679063D02*
X191404000Y-96559063D01*
X186704000Y-106679063D02*
X186704000Y-96559063D01*
X184944000Y-106679063D02*
X192665000Y-106679063D01*
X190320000Y-100129063D02*
X190378000Y-100188063D01*
X184944000Y-96559063D02*
X192665000Y-96559063D01*
X192904000Y-106919063D02*
X192904000Y-106319063D01*
X192004000Y-106679063D02*
X192004000Y-96559063D01*
X192064000Y-106919063D02*
X192904000Y-106919063D01*
X187829000Y-98049063D02*
X187888000Y-98108063D01*
X188035000Y-97844063D02*
X188128000Y-97938063D01*
X190080000Y-100299063D02*
X190173000Y-100393063D01*
X192665000Y-106679063D02*
X192665000Y-96559063D01*
X184944000Y-106679063D02*
X184944000Y-96559063D01*
X188315000Y-105603063D02*
G75*
G03*
X189893089Y-105603016I789000J1483995D01*
G01*
X187620000Y-103330063D02*
G75*
G03*
X187620047Y-104908152I1483995J-789000D01*
G01*
X189893000Y-102635063D02*
G75*
G03*
X188314911Y-102635110I-789000J-1483995D01*
G01*
X190784000Y-104119063D02*
G75*
G03*
X190587352Y-103330351I-1679991J2D01*
G01*
X190588000Y-104908063D02*
G75*
G03*
X190784450Y-104089680I-1483995J788998D01*
G01*
X186654000Y-99119063D02*
G75*
G03*
X186654000Y-99119063I-550000J0D01*
G01*
X186654000Y-104119063D02*
G75*
G03*
X186654000Y-104119063I-550000J0D01*
G01*
X190784000Y-99119063D02*
G75*
G03*
X190784000Y-99119063I-1680000J0D01*
G01*
%TO.C,C2*%
X118600755Y-93144186D02*
X118600755Y-87144186D01*
X121641755Y-93784186D02*
X121641755Y-77624186D01*
X116000755Y-91388186D02*
X116000755Y-80020186D01*
X117360755Y-84264186D02*
X117360755Y-78919186D01*
X115440755Y-90763186D02*
X115440755Y-80645186D01*
X116960755Y-84264186D02*
X116960755Y-79194186D01*
X116720755Y-84264186D02*
X116720755Y-79377186D01*
X116520755Y-91867186D02*
X116520755Y-79541186D01*
X115480755Y-90812186D02*
X115480755Y-80596186D01*
X117360755Y-92489186D02*
X117360755Y-87144186D01*
X119160755Y-84264186D02*
X119160755Y-78051186D01*
X117960755Y-92840186D02*
X117960755Y-87144186D01*
X115400755Y-90713186D02*
X115400755Y-80695186D01*
X117880755Y-92798186D02*
X117880755Y-87144186D01*
X118800755Y-84264186D02*
X118800755Y-78182186D01*
X121601755Y-93783186D02*
X121601755Y-77625186D01*
X115520755Y-90860186D02*
X115520755Y-80548186D01*
X117200755Y-92383186D02*
X117200755Y-87144186D01*
X119240755Y-93384186D02*
X119240755Y-87144186D01*
X118680755Y-93178186D02*
X118680755Y-87144186D01*
X117720755Y-84264186D02*
X117720755Y-78700186D01*
X117920755Y-84264186D02*
X117920755Y-78589186D01*
X114920755Y-90040186D02*
X114920755Y-81368186D01*
X118040755Y-92882186D02*
X118040755Y-87144186D01*
X119200755Y-84264186D02*
X119200755Y-78038186D01*
X117480755Y-92565186D02*
X117480755Y-87144186D01*
X118640755Y-93161186D02*
X118640755Y-87144186D01*
X116760755Y-92062186D02*
X116760755Y-87144186D01*
X118760755Y-93210186D02*
X118760755Y-87144186D01*
X116200755Y-91582186D02*
X116200755Y-79826186D01*
X118480755Y-84264186D02*
X118480755Y-78315186D01*
X116920755Y-84264186D02*
X116920755Y-79224186D01*
X116160755Y-91544186D02*
X116160755Y-79864186D01*
X130451246Y-90259186D02*
X128851246Y-90259186D01*
X119880755Y-93564186D02*
X119880755Y-77844186D01*
X118960755Y-93286186D02*
X118960755Y-87144186D01*
X120440755Y-93676186D02*
X120440755Y-77732186D01*
X116480755Y-91833186D02*
X116480755Y-79575186D01*
X118520755Y-93110186D02*
X118520755Y-87144186D01*
X119000755Y-84264186D02*
X119000755Y-78107186D01*
X117760755Y-92731186D02*
X117760755Y-87144186D01*
X119520755Y-93469186D02*
X119520755Y-77939186D01*
X114080755Y-88301186D02*
X114080755Y-83107186D01*
X115320755Y-90610186D02*
X115320755Y-80798186D01*
X121241755Y-93768186D02*
X121241755Y-77640186D01*
X120560755Y-93695186D02*
X120560755Y-77713186D01*
X117400755Y-84264186D02*
X117400755Y-78893186D01*
X116240755Y-91620186D02*
X116240755Y-79788186D01*
X119120755Y-93343186D02*
X119120755Y-87144186D01*
X117840755Y-92776186D02*
X117840755Y-87144186D01*
X117840755Y-84264186D02*
X117840755Y-78632186D01*
X118240755Y-92982186D02*
X118240755Y-87144186D01*
X121721755Y-93784186D02*
X121721755Y-77624186D01*
X116760755Y-84264186D02*
X116760755Y-79346186D01*
X119600755Y-93492186D02*
X119600755Y-77916186D01*
X116640755Y-91967186D02*
X116640755Y-87144186D01*
X115640755Y-91001186D02*
X115640755Y-80407186D01*
X116120755Y-91506186D02*
X116120755Y-79902186D01*
X121321755Y-93773186D02*
X121321755Y-77635186D01*
X116440755Y-91799186D02*
X116440755Y-79609186D01*
X114040755Y-88182186D02*
X114040755Y-83226186D01*
X119800755Y-93544186D02*
X119800755Y-77864186D01*
X115840755Y-91222186D02*
X115840755Y-80186186D01*
X119840755Y-93554186D02*
X119840755Y-77854186D01*
X120160755Y-93625186D02*
X120160755Y-77783186D01*
X118200755Y-92962186D02*
X118200755Y-87144186D01*
X114760755Y-89780186D02*
X114760755Y-81628186D01*
X121401755Y-93777186D02*
X121401755Y-77631186D01*
X119080755Y-84264186D02*
X119080755Y-78079186D01*
X117080755Y-92300186D02*
X117080755Y-87144186D01*
X115120755Y-90338186D02*
X115120755Y-81070186D01*
X121761755Y-93785186D02*
X121761755Y-77623186D01*
X116040755Y-91428186D02*
X116040755Y-79980186D01*
X118000755Y-92861186D02*
X118000755Y-87144186D01*
X117040755Y-84264186D02*
X117040755Y-79136186D01*
X116080755Y-91467186D02*
X116080755Y-79941186D01*
X114880755Y-89977186D02*
X114880755Y-81431186D01*
X117680755Y-84264186D02*
X117680755Y-78723186D01*
X121441755Y-93778186D02*
X121441755Y-77630186D01*
X118440755Y-84264186D02*
X118440755Y-78333186D01*
X118600755Y-84264186D02*
X118600755Y-78264186D01*
X114120755Y-88415186D02*
X114120755Y-82993186D01*
X113960755Y-87922186D02*
X113960755Y-83486186D01*
X121521755Y-93781186D02*
X121521755Y-77627186D01*
X116800755Y-92094186D02*
X116800755Y-87144186D01*
X120840755Y-93732186D02*
X120840755Y-77676186D01*
X116880755Y-84264186D02*
X116880755Y-79254186D01*
X120240755Y-93641186D02*
X120240755Y-77767186D01*
X116920755Y-92184186D02*
X116920755Y-87144186D01*
X114960755Y-90102186D02*
X114960755Y-81306186D01*
X113920755Y-87778186D02*
X113920755Y-83630186D01*
X117160755Y-84264186D02*
X117160755Y-79052186D01*
X114640755Y-89568186D02*
X114640755Y-81840186D01*
X118520755Y-84264186D02*
X118520755Y-78298186D01*
X117280755Y-84264186D02*
X117280755Y-78971186D01*
X120320755Y-93656186D02*
X120320755Y-77752186D01*
X114720755Y-89711186D02*
X114720755Y-81697186D01*
X117680755Y-92685186D02*
X117680755Y-87144186D01*
X118440755Y-93075186D02*
X118440755Y-87144186D01*
X116640755Y-84264186D02*
X116640755Y-79441186D01*
X115960755Y-91347186D02*
X115960755Y-80061186D01*
X118800755Y-93226186D02*
X118800755Y-87144186D01*
X117240755Y-84264186D02*
X117240755Y-78998186D01*
X117120755Y-92328186D02*
X117120755Y-87144186D01*
X120640755Y-93707186D02*
X120640755Y-77701186D01*
X118240755Y-84264186D02*
X118240755Y-78426186D01*
X118880755Y-84264186D02*
X118880755Y-78151186D01*
X120720755Y-93718186D02*
X120720755Y-77690186D01*
X117280755Y-92437186D02*
X117280755Y-87144186D01*
X118720755Y-93194186D02*
X118720755Y-87144186D01*
X117720755Y-92708186D02*
X117720755Y-87144186D01*
X117200755Y-84264186D02*
X117200755Y-79025186D01*
X115760755Y-91136186D02*
X115760755Y-80272186D01*
X115360755Y-90662186D02*
X115360755Y-80746186D01*
X120960755Y-93745186D02*
X120960755Y-77663186D01*
X115200755Y-90450186D02*
X115200755Y-80958186D01*
X118120755Y-92923186D02*
X118120755Y-87144186D01*
X113680755Y-86469186D02*
X113680755Y-84939186D01*
X117760755Y-84264186D02*
X117760755Y-78677186D01*
X117480755Y-84264186D02*
X117480755Y-78843186D01*
X114160755Y-88524186D02*
X114160755Y-82884186D01*
X117120755Y-84264186D02*
X117120755Y-79080186D01*
X113760755Y-87055186D02*
X113760755Y-84353186D01*
X115280755Y-90558186D02*
X115280755Y-80850186D01*
X115080755Y-90281186D02*
X115080755Y-81127186D01*
X116680755Y-84264186D02*
X116680755Y-79409186D01*
X113880755Y-87624186D02*
X113880755Y-83784186D01*
X115800755Y-91179186D02*
X115800755Y-80229186D01*
X118720755Y-84264186D02*
X118720755Y-78214186D01*
X121481755Y-93780186D02*
X121481755Y-77628186D01*
X118680755Y-84264186D02*
X118680755Y-78230186D01*
X114840755Y-89913186D02*
X114840755Y-81495186D01*
X114360755Y-89007186D02*
X114360755Y-82401186D01*
X120120755Y-93617186D02*
X120120755Y-77791186D01*
X120400755Y-93670186D02*
X120400755Y-77738186D01*
X119320755Y-93409186D02*
X119320755Y-87144186D01*
X121081755Y-93756186D02*
X121081755Y-77652186D01*
X114280755Y-88824186D02*
X114280755Y-82584186D01*
X118120755Y-84264186D02*
X118120755Y-78485186D01*
X117320755Y-92463186D02*
X117320755Y-87144186D01*
X116320755Y-91693186D02*
X116320755Y-79715186D01*
X118760755Y-84264186D02*
X118760755Y-78198186D01*
X116960755Y-92214186D02*
X116960755Y-87144186D01*
X116600755Y-84264186D02*
X116600755Y-79474186D01*
X118920755Y-93272186D02*
X118920755Y-87144186D01*
X114240755Y-88728186D02*
X114240755Y-82680186D01*
X119760755Y-93534186D02*
X119760755Y-77874186D01*
X114320755Y-88917186D02*
X114320755Y-82491186D01*
X119640755Y-93503186D02*
X119640755Y-77905186D01*
X117080755Y-84264186D02*
X117080755Y-79108186D01*
X117400755Y-92515186D02*
X117400755Y-87144186D01*
X121681755Y-93784186D02*
X121681755Y-77624186D01*
X113720755Y-86802186D02*
X113720755Y-84606186D01*
X118280755Y-93001186D02*
X118280755Y-87144186D01*
X115160755Y-90395186D02*
X115160755Y-81013186D01*
X118920755Y-84264186D02*
X118920755Y-78136186D01*
X117160755Y-92356186D02*
X117160755Y-87144186D01*
X120200755Y-93633186D02*
X120200755Y-77775186D01*
X120040755Y-93600186D02*
X120040755Y-77808186D01*
X117320755Y-84264186D02*
X117320755Y-78945186D01*
X116840755Y-92124186D02*
X116840755Y-87144186D01*
X117560755Y-84264186D02*
X117560755Y-78794186D01*
X115560755Y-90908186D02*
X115560755Y-80500186D01*
X119240755Y-84264186D02*
X119240755Y-78024186D01*
X115720755Y-91092186D02*
X115720755Y-80316186D01*
X115040755Y-90223186D02*
X115040755Y-81185186D01*
X116600755Y-91934186D02*
X116600755Y-87144186D01*
X120360755Y-93663186D02*
X120360755Y-77745186D01*
X118480755Y-93093186D02*
X118480755Y-87144186D01*
X116400755Y-91764186D02*
X116400755Y-79644186D01*
X117920755Y-92819186D02*
X117920755Y-87144186D01*
X119680755Y-93514186D02*
X119680755Y-77894186D01*
X117600755Y-84264186D02*
X117600755Y-78770186D01*
X119560755Y-93481186D02*
X119560755Y-77927186D01*
X118160755Y-84264186D02*
X118160755Y-78465186D01*
X116680755Y-91999186D02*
X116680755Y-87144186D01*
X115920755Y-91306186D02*
X115920755Y-80102186D01*
X114680755Y-89640186D02*
X114680755Y-81768186D01*
X118280755Y-84264186D02*
X118280755Y-78407186D01*
X116280755Y-91656186D02*
X116280755Y-79752186D01*
X115000755Y-90163186D02*
X115000755Y-81245186D01*
X116880755Y-92154186D02*
X116880755Y-87144186D01*
X117600755Y-92638186D02*
X117600755Y-87144186D01*
X114440755Y-89179186D02*
X114440755Y-82229186D01*
X120080755Y-93609186D02*
X120080755Y-77799186D01*
X119000755Y-93301186D02*
X119000755Y-87144186D01*
X121040755Y-93753186D02*
X121040755Y-77655186D01*
X119440755Y-84264186D02*
X119440755Y-77962186D01*
X117440755Y-84264186D02*
X117440755Y-78868186D01*
X114200755Y-88628186D02*
X114200755Y-82780186D01*
X118880755Y-93257186D02*
X118880755Y-87144186D01*
X119920755Y-93573186D02*
X119920755Y-77835186D01*
X117240755Y-92410186D02*
X117240755Y-87144186D01*
X115240755Y-90504186D02*
X115240755Y-80904186D01*
X118960755Y-84264186D02*
X118960755Y-78122186D01*
X116560755Y-91901186D02*
X116560755Y-79507186D01*
X117000755Y-84264186D02*
X117000755Y-79165186D01*
X118160755Y-92943186D02*
X118160755Y-87144186D01*
X120000755Y-93591186D02*
X120000755Y-77817186D01*
X119040755Y-84264186D02*
X119040755Y-78093186D01*
X118360755Y-84264186D02*
X118360755Y-78370186D01*
X119360755Y-84264186D02*
X119360755Y-77986186D01*
X120680755Y-93712186D02*
X120680755Y-77696186D01*
X119280755Y-93397186D02*
X119280755Y-87144186D01*
X117960755Y-84264186D02*
X117960755Y-78568186D01*
X117040755Y-92272186D02*
X117040755Y-87144186D01*
X118360755Y-93038186D02*
X118360755Y-87144186D01*
X121121755Y-93759186D02*
X121121755Y-77649186D01*
X118840755Y-84264186D02*
X118840755Y-78167186D01*
X118200755Y-84264186D02*
X118200755Y-78446186D01*
X118040755Y-84264186D02*
X118040755Y-78526186D01*
X119160755Y-93357186D02*
X119160755Y-87144186D01*
X117560755Y-92614186D02*
X117560755Y-87144186D01*
X116800755Y-84264186D02*
X116800755Y-79314186D01*
X117440755Y-92540186D02*
X117440755Y-87144186D01*
X114000755Y-88055186D02*
X114000755Y-83353186D01*
X114800755Y-89847186D02*
X114800755Y-81561186D01*
X115600755Y-90955186D02*
X115600755Y-80453186D01*
X117640755Y-92662186D02*
X117640755Y-87144186D01*
X118400755Y-93057186D02*
X118400755Y-87144186D01*
X119480755Y-93458186D02*
X119480755Y-77950186D01*
X118560755Y-93127186D02*
X118560755Y-87144186D01*
X114480755Y-89261186D02*
X114480755Y-82147186D01*
X121161755Y-93762186D02*
X121161755Y-77646186D01*
X117800755Y-92753186D02*
X117800755Y-87144186D01*
X115880755Y-91264186D02*
X115880755Y-80144186D01*
X118080755Y-84264186D02*
X118080755Y-78505186D01*
X118560755Y-84264186D02*
X118560755Y-78281186D01*
X119400755Y-84264186D02*
X119400755Y-77974186D01*
X120520755Y-93689186D02*
X120520755Y-77719186D01*
X117000755Y-92243186D02*
X117000755Y-87144186D01*
X114520755Y-89341186D02*
X114520755Y-82067186D01*
X116720755Y-92031186D02*
X116720755Y-87144186D01*
X119720755Y-93524186D02*
X119720755Y-77884186D01*
X118840755Y-93241186D02*
X118840755Y-87144186D01*
X129651246Y-91059186D02*
X129651246Y-89459186D01*
X119200755Y-93370186D02*
X119200755Y-87144186D01*
X117520755Y-84264186D02*
X117520755Y-78818186D01*
X113800755Y-87268186D02*
X113800755Y-84140186D01*
X117640755Y-84264186D02*
X117640755Y-78746186D01*
X119040755Y-93315186D02*
X119040755Y-87144186D01*
X120280755Y-93648186D02*
X120280755Y-77760186D01*
X113840755Y-87456186D02*
X113840755Y-83952186D01*
X121000755Y-93749186D02*
X121000755Y-77659186D01*
X120760755Y-93723186D02*
X120760755Y-77685186D01*
X119400755Y-93434186D02*
X119400755Y-87144186D01*
X118400755Y-84264186D02*
X118400755Y-78351186D01*
X118320755Y-84264186D02*
X118320755Y-78388186D01*
X121281755Y-93770186D02*
X121281755Y-77638186D01*
X120920755Y-93741186D02*
X120920755Y-77667186D01*
X120600755Y-93701186D02*
X120600755Y-77707186D01*
X114560755Y-89419186D02*
X114560755Y-81989186D01*
X119120755Y-84264186D02*
X119120755Y-78065186D01*
X118320755Y-93020186D02*
X118320755Y-87144186D01*
X119280755Y-84264186D02*
X119280755Y-78011186D01*
X116360755Y-91729186D02*
X116360755Y-79679186D01*
X119960755Y-93582186D02*
X119960755Y-77826186D01*
X116840755Y-84264186D02*
X116840755Y-79284186D01*
X115680755Y-91047186D02*
X115680755Y-80361186D01*
X118080755Y-92903186D02*
X118080755Y-87144186D01*
X121201755Y-93765186D02*
X121201755Y-77643186D01*
X121361755Y-93775186D02*
X121361755Y-77633186D01*
X117800755Y-84264186D02*
X117800755Y-78655186D01*
X120880755Y-93737186D02*
X120880755Y-77671186D01*
X119360755Y-93422186D02*
X119360755Y-87144186D01*
X120800755Y-93728186D02*
X120800755Y-77680186D01*
X121561755Y-93782186D02*
X121561755Y-77626186D01*
X114600755Y-89494186D02*
X114600755Y-81914186D01*
X117520755Y-92590186D02*
X117520755Y-87144186D01*
X119320755Y-84264186D02*
X119320755Y-77999186D01*
X114400755Y-89094186D02*
X114400755Y-82314186D01*
X119080755Y-93329186D02*
X119080755Y-87144186D01*
X119440755Y-93446186D02*
X119440755Y-87144186D01*
X118640755Y-84264186D02*
X118640755Y-78247186D01*
X120480755Y-93683186D02*
X120480755Y-77725186D01*
X117880755Y-84264186D02*
X117880755Y-78610186D01*
X118000755Y-84264186D02*
X118000755Y-78547186D01*
X129881755Y-85704186D02*
G75*
G03*
X129881755Y-85704186I-8120000J0D01*
G01*
%TO.C,D2*%
X112529000Y-95805000D02*
X102289000Y-95805000D01*
X105558000Y-95805000D02*
X105558000Y-94295000D01*
X112529000Y-91164000D02*
X102289000Y-91164000D01*
X112529000Y-95805000D02*
X112529000Y-91164000D01*
X112529000Y-94295000D02*
X102289000Y-94295000D01*
X102289000Y-95805000D02*
X102289000Y-91164000D01*
X109259000Y-95805000D02*
X109259000Y-94295000D01*
%TO.C,R3*%
X161319000Y-96700000D02*
X160989000Y-96700000D01*
X160989000Y-103240000D02*
X161319000Y-103240000D01*
X158909000Y-103240000D02*
X158579000Y-103240000D01*
X158579000Y-96700000D02*
X158909000Y-96700000D01*
X161319000Y-103240000D02*
X161319000Y-96700000D01*
X158579000Y-103240000D02*
X158579000Y-96700000D01*
%TO.C,R2*%
X158909000Y-93270000D02*
X158579000Y-93270000D01*
X158579000Y-86730000D02*
X158909000Y-86730000D01*
X160989000Y-93270000D02*
X161319000Y-93270000D01*
X161319000Y-86730000D02*
X160989000Y-86730000D01*
X158579000Y-93270000D02*
X158579000Y-86730000D01*
X161319000Y-93270000D02*
X161319000Y-86730000D01*
%TO.C,U1*%
X142529000Y-100640000D02*
X141019000Y-100640000D01*
X142529000Y-97370000D02*
X137888000Y-97370000D01*
X142529000Y-104341000D02*
X141019000Y-104341000D01*
X142529000Y-97370000D02*
X142529000Y-107610000D01*
X137888000Y-97370000D02*
X137888000Y-107610000D01*
X141019000Y-97370000D02*
X141019000Y-107610000D01*
X142529000Y-107610000D02*
X137888000Y-107610000D01*
%TO.C,D3*%
X109260000Y-109175000D02*
X109260000Y-110685000D01*
X102289000Y-110685000D02*
X112529000Y-110685000D01*
X102289000Y-113816000D02*
X112529000Y-113816000D01*
X105559000Y-109175000D02*
X105559000Y-110685000D01*
X102289000Y-109175000D02*
X112529000Y-109175000D01*
X112529000Y-109175000D02*
X112529000Y-113816000D01*
X102289000Y-109175000D02*
X102289000Y-113816000D01*
%TO.C,D1*%
X112529000Y-119790000D02*
X112529000Y-115149000D01*
X112529000Y-119790000D02*
X102289000Y-119790000D01*
X112529000Y-115149000D02*
X102289000Y-115149000D01*
X105558000Y-119790000D02*
X105558000Y-118280000D01*
X109259000Y-119790000D02*
X109259000Y-118280000D01*
X112529000Y-118280000D02*
X102289000Y-118280000D01*
X102289000Y-119790000D02*
X102289000Y-115149000D01*
%TO.C,HS1*%
X150324000Y-85680000D02*
X151544000Y-82120000D01*
X155994000Y-85880000D02*
X153004000Y-86630000D01*
X131914000Y-85880000D02*
X134904000Y-86630000D01*
X135054000Y-118600000D02*
X131464000Y-122630000D01*
X132384000Y-81600000D02*
X137364000Y-85850000D01*
X150324000Y-119300000D02*
X151544000Y-122860000D01*
X131914000Y-119100000D02*
X134904000Y-118350000D01*
X156024000Y-94080000D02*
X145064000Y-94090000D01*
X137584000Y-85680000D02*
X136364000Y-82120000D01*
X142844000Y-94090000D02*
X142844000Y-102490000D01*
X131794000Y-92910000D02*
X136754000Y-92100000D01*
X145064000Y-110890000D02*
X145064000Y-102490000D01*
X150754000Y-90060000D02*
X156324000Y-86970000D01*
X152854000Y-118600000D02*
X156444000Y-122630000D01*
X155524000Y-81600000D02*
X150544000Y-85850000D01*
X156024000Y-110900000D02*
X145064000Y-110890000D01*
X131794000Y-112070000D02*
X136754000Y-112880000D01*
X155994000Y-119100000D02*
X153004000Y-118350000D01*
X155524000Y-123380000D02*
X150544000Y-119130000D01*
X131884000Y-110900000D02*
X142844000Y-110890000D01*
X156114000Y-112070000D02*
X151154000Y-112880000D01*
X131884000Y-94080000D02*
X142844000Y-94090000D01*
X137584000Y-119300000D02*
X136364000Y-122860000D01*
X132384000Y-123380000D02*
X137364000Y-119130000D01*
X156114000Y-92910000D02*
X151154000Y-92100000D01*
X137424000Y-123380000D02*
X142434000Y-116870000D01*
X152854000Y-86380000D02*
X156444000Y-82350000D01*
X137154000Y-114920000D02*
X131584000Y-118010000D01*
X137424000Y-81600000D02*
X142434000Y-88110000D01*
X145064000Y-94090000D02*
X145064000Y-102490000D01*
X150484000Y-81600000D02*
X145474000Y-88110000D01*
X142844000Y-110890000D02*
X142844000Y-102490000D01*
X137154000Y-90060000D02*
X131584000Y-86970000D01*
X150484000Y-123380000D02*
X145474000Y-116870000D01*
X150754000Y-114920000D02*
X156324000Y-118010000D01*
X135054000Y-86380000D02*
X131464000Y-82350000D01*
X153027206Y-118352738D02*
G75*
G03*
X152844000Y-118600000I-73206J-137262D01*
G01*
X132384190Y-81606639D02*
G75*
G03*
X131484000Y-82370000I-440190J-393361D01*
G01*
X150482459Y-123371246D02*
G75*
G03*
X151544000Y-122850000I471542J381245D01*
G01*
X150546846Y-119131006D02*
G75*
G03*
X150324000Y-119300000I-92846J-108994D01*
G01*
X150764000Y-90060000D02*
G75*
G03*
X151192423Y-92111275I720000J-920000D01*
G01*
X155983866Y-119097296D02*
G75*
G03*
X156314000Y-118000000I-29867J607296D01*
G01*
X150324000Y-85680000D02*
G75*
G03*
X150546844Y-85848995I130000J-60000D01*
G01*
X131914000Y-110900000D02*
G75*
G03*
X131815715Y-112068367I20000J-590000D01*
G01*
X155994000Y-94080000D02*
G75*
G03*
X156092285Y-92911633I-20000J590000D01*
G01*
X131484001Y-122610001D02*
G75*
G03*
X132384005Y-123373567I459999J-369999D01*
G01*
X131594000Y-118000000D02*
G75*
G03*
X131923286Y-119097253I360002J-489999D01*
G01*
X134880794Y-86627262D02*
G75*
G03*
X135064000Y-86380000I73206J137262D01*
G01*
X137361154Y-85848994D02*
G75*
G03*
X137584000Y-85680000I92846J108994D01*
G01*
X137425541Y-81608754D02*
G75*
G03*
X136364000Y-82130000I-471542J-381245D01*
G01*
X131924134Y-85882704D02*
G75*
G03*
X131594000Y-86980000I29867J-607296D01*
G01*
X136364000Y-122850000D02*
G75*
G03*
X137424923Y-123372010I590000J-140000D01*
G01*
X151193338Y-112868489D02*
G75*
G03*
X150764000Y-114920000I290662J-1131511D01*
G01*
X156314000Y-86980000D02*
G75*
G03*
X155984714Y-85882747I-360002J489999D01*
G01*
X137584000Y-119300000D02*
G75*
G03*
X137361156Y-119131005I-130000J60000D01*
G01*
X136714662Y-92111511D02*
G75*
G03*
X137144000Y-90060000I-290662J1131511D01*
G01*
X152844000Y-86380000D02*
G75*
G03*
X153027033Y-86627354I110000J-110000D01*
G01*
X135064000Y-118600000D02*
G75*
G03*
X134880967Y-118352646I-110000J110000D01*
G01*
X151544000Y-82130000D02*
G75*
G03*
X150483077Y-81607990I-590000J140000D01*
G01*
X155523810Y-123373361D02*
G75*
G03*
X156424000Y-122610000I440190J393361D01*
G01*
X137144000Y-114920000D02*
G75*
G03*
X136715577Y-112868725I-720000J920000D01*
G01*
X156423999Y-82369999D02*
G75*
G03*
X155523995Y-81606433I-459999J369999D01*
G01*
X156091659Y-112068495D02*
G75*
G03*
X155994000Y-110900000I-117659J578495D01*
G01*
X131816341Y-92911505D02*
G75*
G03*
X131914000Y-94080000I117659J-578495D01*
G01*
%TO.C,RV1*%
X185884000Y-81627323D02*
X176114000Y-81627323D01*
X185884000Y-86697323D02*
X185884000Y-81627323D01*
X185884000Y-86697323D02*
X176114000Y-86697323D01*
X176114000Y-86697323D02*
X176114000Y-81627323D01*
%TO.C,C3*%
X119880755Y-110324422D02*
X119880755Y-94604422D01*
X120600755Y-110461422D02*
X120600755Y-94467422D01*
X119080755Y-101024422D02*
X119080755Y-94839422D01*
X118040755Y-109642422D02*
X118040755Y-103904422D01*
X114520755Y-106101422D02*
X114520755Y-98827422D01*
X119120755Y-110103422D02*
X119120755Y-103904422D01*
X121761755Y-110545422D02*
X121761755Y-94383422D01*
X120320755Y-110416422D02*
X120320755Y-94512422D01*
X118280755Y-101024422D02*
X118280755Y-95167422D01*
X117640755Y-101024422D02*
X117640755Y-95506422D01*
X114800755Y-106607422D02*
X114800755Y-98321422D01*
X119440755Y-101024422D02*
X119440755Y-94722422D01*
X116760755Y-108822422D02*
X116760755Y-103904422D01*
X119840755Y-110314422D02*
X119840755Y-94614422D01*
X113840755Y-104216422D02*
X113840755Y-100712422D01*
X116680755Y-101024422D02*
X116680755Y-96169422D01*
X118440755Y-101024422D02*
X118440755Y-95093422D01*
X113760755Y-103815422D02*
X113760755Y-101113422D01*
X114720755Y-106471422D02*
X114720755Y-98457422D01*
X117280755Y-101024422D02*
X117280755Y-95731422D01*
X115800755Y-107939422D02*
X115800755Y-96989422D01*
X120720755Y-110478422D02*
X120720755Y-94450422D01*
X121721755Y-110544422D02*
X121721755Y-94384422D01*
X116360755Y-108489422D02*
X116360755Y-96439422D01*
X114200755Y-105388422D02*
X114200755Y-99540422D01*
X115160755Y-107155422D02*
X115160755Y-97773422D01*
X114480755Y-106021422D02*
X114480755Y-98907422D01*
X120240755Y-110401422D02*
X120240755Y-94527422D01*
X116160755Y-108304422D02*
X116160755Y-96624422D01*
X116560755Y-108661422D02*
X116560755Y-96267422D01*
X118720755Y-109954422D02*
X118720755Y-103904422D01*
X117320755Y-101024422D02*
X117320755Y-95705422D01*
X118760755Y-101024422D02*
X118760755Y-94958422D01*
X118960755Y-101024422D02*
X118960755Y-94882422D01*
X116800755Y-108854422D02*
X116800755Y-103904422D01*
X118600755Y-109904422D02*
X118600755Y-103904422D01*
X115000755Y-106923422D02*
X115000755Y-98005422D01*
X119320755Y-110169422D02*
X119320755Y-103904422D01*
X121281755Y-110530422D02*
X121281755Y-94398422D01*
X117040755Y-109032422D02*
X117040755Y-103904422D01*
X119800755Y-110304422D02*
X119800755Y-94624422D01*
X115040755Y-106983422D02*
X115040755Y-97945422D01*
X118320755Y-101024422D02*
X118320755Y-95148422D01*
X120960755Y-110505422D02*
X120960755Y-94423422D01*
X121040755Y-110513422D02*
X121040755Y-94415422D01*
X116920755Y-108944422D02*
X116920755Y-103904422D01*
X114640755Y-106328422D02*
X114640755Y-98600422D01*
X116680755Y-108759422D02*
X116680755Y-103904422D01*
X121361755Y-110535422D02*
X121361755Y-94393422D01*
X118920755Y-101024422D02*
X118920755Y-94896422D01*
X117960755Y-109600422D02*
X117960755Y-103904422D01*
X119680755Y-110274422D02*
X119680755Y-94654422D01*
X119960755Y-110342422D02*
X119960755Y-94586422D01*
X117800755Y-101024422D02*
X117800755Y-95415422D01*
X118800755Y-109986422D02*
X118800755Y-103904422D01*
X113720755Y-103562422D02*
X113720755Y-101366422D01*
X115400755Y-107473422D02*
X115400755Y-97455422D01*
X118240755Y-101024422D02*
X118240755Y-95186422D01*
X117840755Y-109536422D02*
X117840755Y-103904422D01*
X121641755Y-110544422D02*
X121641755Y-94384422D01*
X130451246Y-107019422D02*
X128851246Y-107019422D01*
X116520755Y-108627422D02*
X116520755Y-96301422D01*
X115880755Y-108024422D02*
X115880755Y-96904422D01*
X117520755Y-109350422D02*
X117520755Y-103904422D01*
X117760755Y-101024422D02*
X117760755Y-95437422D01*
X118400755Y-109817422D02*
X118400755Y-103904422D01*
X116800755Y-101024422D02*
X116800755Y-96074422D01*
X118320755Y-109780422D02*
X118320755Y-103904422D01*
X118200755Y-109722422D02*
X118200755Y-103904422D01*
X121241755Y-110528422D02*
X121241755Y-94400422D01*
X118520755Y-109870422D02*
X118520755Y-103904422D01*
X118760755Y-109970422D02*
X118760755Y-103904422D01*
X114040755Y-104942422D02*
X114040755Y-99986422D01*
X114680755Y-106400422D02*
X114680755Y-98528422D01*
X120920755Y-110501422D02*
X120920755Y-94427422D01*
X114600755Y-106254422D02*
X114600755Y-98674422D01*
X116760755Y-101024422D02*
X116760755Y-96106422D01*
X116040755Y-108188422D02*
X116040755Y-96740422D01*
X119160755Y-101024422D02*
X119160755Y-94811422D01*
X118360755Y-101024422D02*
X118360755Y-95130422D01*
X114280755Y-105584422D02*
X114280755Y-99344422D01*
X117600755Y-101024422D02*
X117600755Y-95530422D01*
X119400755Y-101024422D02*
X119400755Y-94734422D01*
X116840755Y-108884422D02*
X116840755Y-103904422D01*
X115600755Y-107715422D02*
X115600755Y-97213422D01*
X117120755Y-109088422D02*
X117120755Y-103904422D01*
X118520755Y-101024422D02*
X118520755Y-95058422D01*
X117120755Y-101024422D02*
X117120755Y-95840422D01*
X115920755Y-108066422D02*
X115920755Y-96862422D01*
X119320755Y-101024422D02*
X119320755Y-94759422D01*
X117680755Y-101024422D02*
X117680755Y-95483422D01*
X120360755Y-110423422D02*
X120360755Y-94505422D01*
X116400755Y-108524422D02*
X116400755Y-96404422D01*
X117480755Y-101024422D02*
X117480755Y-95603422D01*
X118000755Y-109621422D02*
X118000755Y-103904422D01*
X117640755Y-109422422D02*
X117640755Y-103904422D01*
X115720755Y-107852422D02*
X115720755Y-97076422D01*
X114840755Y-106673422D02*
X114840755Y-98255422D01*
X120760755Y-110483422D02*
X120760755Y-94445422D01*
X118560755Y-101024422D02*
X118560755Y-95041422D01*
X116120755Y-108266422D02*
X116120755Y-96662422D01*
X118880755Y-101024422D02*
X118880755Y-94911422D01*
X117920755Y-101024422D02*
X117920755Y-95349422D01*
X119360755Y-101024422D02*
X119360755Y-94746422D01*
X119240755Y-110144422D02*
X119240755Y-103904422D01*
X119920755Y-110333422D02*
X119920755Y-94595422D01*
X115200755Y-107210422D02*
X115200755Y-97718422D01*
X116880755Y-108914422D02*
X116880755Y-103904422D01*
X120080755Y-110369422D02*
X120080755Y-94559422D01*
X117320755Y-109223422D02*
X117320755Y-103904422D01*
X118280755Y-109761422D02*
X118280755Y-103904422D01*
X117000755Y-109003422D02*
X117000755Y-103904422D01*
X120840755Y-110492422D02*
X120840755Y-94436422D01*
X118480755Y-109853422D02*
X118480755Y-103904422D01*
X116280755Y-108416422D02*
X116280755Y-96512422D01*
X119480755Y-110218422D02*
X119480755Y-94710422D01*
X121161755Y-110522422D02*
X121161755Y-94406422D01*
X114560755Y-106179422D02*
X114560755Y-98749422D01*
X117880755Y-101024422D02*
X117880755Y-95370422D01*
X116200755Y-108342422D02*
X116200755Y-96586422D01*
X119720755Y-110284422D02*
X119720755Y-94644422D01*
X118800755Y-101024422D02*
X118800755Y-94942422D01*
X117720755Y-109468422D02*
X117720755Y-103904422D01*
X114400755Y-105854422D02*
X114400755Y-99074422D01*
X118560755Y-109887422D02*
X118560755Y-103904422D01*
X121521755Y-110541422D02*
X121521755Y-94387422D01*
X118120755Y-109683422D02*
X118120755Y-103904422D01*
X118040755Y-101024422D02*
X118040755Y-95286422D01*
X118920755Y-110032422D02*
X118920755Y-103904422D01*
X117840755Y-101024422D02*
X117840755Y-95392422D01*
X116080755Y-108227422D02*
X116080755Y-96701422D01*
X117160755Y-101024422D02*
X117160755Y-95812422D01*
X113920755Y-104538422D02*
X113920755Y-100390422D01*
X120800755Y-110488422D02*
X120800755Y-94440422D01*
X120640755Y-110467422D02*
X120640755Y-94461422D01*
X117240755Y-109170422D02*
X117240755Y-103904422D01*
X113800755Y-104028422D02*
X113800755Y-100900422D01*
X114440755Y-105939422D02*
X114440755Y-98989422D01*
X121441755Y-110538422D02*
X121441755Y-94390422D01*
X116640755Y-101024422D02*
X116640755Y-96201422D01*
X121321755Y-110533422D02*
X121321755Y-94395422D01*
X117000755Y-101024422D02*
X117000755Y-95925422D01*
X118680755Y-101024422D02*
X118680755Y-94990422D01*
X117800755Y-109513422D02*
X117800755Y-103904422D01*
X117680755Y-109445422D02*
X117680755Y-103904422D01*
X113680755Y-103229422D02*
X113680755Y-101699422D01*
X115760755Y-107896422D02*
X115760755Y-97032422D01*
X117480755Y-109325422D02*
X117480755Y-103904422D01*
X118160755Y-109703422D02*
X118160755Y-103904422D01*
X118880755Y-110017422D02*
X118880755Y-103904422D01*
X116640755Y-108727422D02*
X116640755Y-103904422D01*
X117240755Y-101024422D02*
X117240755Y-95758422D01*
X115520755Y-107620422D02*
X115520755Y-97308422D01*
X116600755Y-101024422D02*
X116600755Y-96234422D01*
X119080755Y-110089422D02*
X119080755Y-103904422D01*
X120520755Y-110449422D02*
X120520755Y-94479422D01*
X116720755Y-101024422D02*
X116720755Y-96137422D01*
X117920755Y-109579422D02*
X117920755Y-103904422D01*
X118160755Y-101024422D02*
X118160755Y-95225422D01*
X119120755Y-101024422D02*
X119120755Y-94825422D01*
X117560755Y-109374422D02*
X117560755Y-103904422D01*
X119760755Y-110294422D02*
X119760755Y-94634422D01*
X115480755Y-107572422D02*
X115480755Y-97356422D01*
X119280755Y-110157422D02*
X119280755Y-103904422D01*
X116840755Y-101024422D02*
X116840755Y-96044422D01*
X121081755Y-110516422D02*
X121081755Y-94412422D01*
X120040755Y-110360422D02*
X120040755Y-94568422D01*
X121561755Y-110542422D02*
X121561755Y-94386422D01*
X118000755Y-101024422D02*
X118000755Y-95307422D01*
X118080755Y-101024422D02*
X118080755Y-95265422D01*
X117400755Y-109275422D02*
X117400755Y-103904422D01*
X120160755Y-110385422D02*
X120160755Y-94543422D01*
X120000755Y-110351422D02*
X120000755Y-94577422D01*
X116960755Y-108974422D02*
X116960755Y-103904422D01*
X116880755Y-101024422D02*
X116880755Y-96014422D01*
X115640755Y-107761422D02*
X115640755Y-97167422D01*
X115320755Y-107370422D02*
X115320755Y-97558422D01*
X114360755Y-105767422D02*
X114360755Y-99161422D01*
X120480755Y-110443422D02*
X120480755Y-94485422D01*
X113880755Y-104384422D02*
X113880755Y-100544422D01*
X114120755Y-105175422D02*
X114120755Y-99753422D01*
X117200755Y-109143422D02*
X117200755Y-103904422D01*
X118440755Y-109835422D02*
X118440755Y-103904422D01*
X117080755Y-101024422D02*
X117080755Y-95868422D01*
X115120755Y-107098422D02*
X115120755Y-97830422D01*
X114000755Y-104815422D02*
X114000755Y-100113422D01*
X120200755Y-110393422D02*
X120200755Y-94535422D01*
X115960755Y-108107422D02*
X115960755Y-96821422D01*
X118680755Y-109938422D02*
X118680755Y-103904422D01*
X120440755Y-110436422D02*
X120440755Y-94492422D01*
X117600755Y-109398422D02*
X117600755Y-103904422D01*
X115280755Y-107318422D02*
X115280755Y-97610422D01*
X116000755Y-108148422D02*
X116000755Y-96780422D01*
X121481755Y-110540422D02*
X121481755Y-94388422D01*
X115080755Y-107041422D02*
X115080755Y-97887422D01*
X114760755Y-106540422D02*
X114760755Y-98388422D01*
X119560755Y-110241422D02*
X119560755Y-94687422D01*
X118600755Y-101024422D02*
X118600755Y-95024422D01*
X114080755Y-105061422D02*
X114080755Y-99867422D01*
X116480755Y-108593422D02*
X116480755Y-96335422D01*
X115840755Y-107982422D02*
X115840755Y-96946422D01*
X121000755Y-110509422D02*
X121000755Y-94419422D01*
X117440755Y-101024422D02*
X117440755Y-95628422D01*
X119040755Y-110075422D02*
X119040755Y-103904422D01*
X119240755Y-101024422D02*
X119240755Y-94784422D01*
X120880755Y-110497422D02*
X120880755Y-94431422D01*
X115360755Y-107422422D02*
X115360755Y-97506422D01*
X117360755Y-109249422D02*
X117360755Y-103904422D01*
X114240755Y-105488422D02*
X114240755Y-99440422D01*
X118840755Y-101024422D02*
X118840755Y-94927422D01*
X117400755Y-101024422D02*
X117400755Y-95653422D01*
X120400755Y-110430422D02*
X120400755Y-94498422D01*
X117160755Y-109116422D02*
X117160755Y-103904422D01*
X120560755Y-110455422D02*
X120560755Y-94473422D01*
X121681755Y-110544422D02*
X121681755Y-94384422D01*
X118360755Y-109798422D02*
X118360755Y-103904422D01*
X115240755Y-107264422D02*
X115240755Y-97664422D01*
X114920755Y-106800422D02*
X114920755Y-98128422D01*
X119000755Y-101024422D02*
X119000755Y-94867422D01*
X116920755Y-101024422D02*
X116920755Y-95984422D01*
X121121755Y-110519422D02*
X121121755Y-94409422D01*
X117880755Y-109558422D02*
X117880755Y-103904422D01*
X115560755Y-107668422D02*
X115560755Y-97260422D01*
X116600755Y-108694422D02*
X116600755Y-103904422D01*
X117760755Y-109491422D02*
X117760755Y-103904422D01*
X118080755Y-109663422D02*
X118080755Y-103904422D01*
X116960755Y-101024422D02*
X116960755Y-95954422D01*
X114160755Y-105284422D02*
X114160755Y-99644422D01*
X113960755Y-104682422D02*
X113960755Y-100246422D01*
X120280755Y-110408422D02*
X120280755Y-94520422D01*
X119440755Y-110206422D02*
X119440755Y-103904422D01*
X121401755Y-110537422D02*
X121401755Y-94391422D01*
X114320755Y-105677422D02*
X114320755Y-99251422D01*
X118400755Y-101024422D02*
X118400755Y-95111422D01*
X118480755Y-101024422D02*
X118480755Y-95075422D01*
X119640755Y-110263422D02*
X119640755Y-94665422D01*
X121601755Y-110543422D02*
X121601755Y-94385422D01*
X116440755Y-108559422D02*
X116440755Y-96369422D01*
X117040755Y-101024422D02*
X117040755Y-95896422D01*
X118200755Y-101024422D02*
X118200755Y-95206422D01*
X116320755Y-108453422D02*
X116320755Y-96475422D01*
X118640755Y-109921422D02*
X118640755Y-103904422D01*
X119200755Y-110130422D02*
X119200755Y-103904422D01*
X119360755Y-110182422D02*
X119360755Y-103904422D01*
X119200755Y-101024422D02*
X119200755Y-94798422D01*
X117280755Y-109197422D02*
X117280755Y-103904422D01*
X116720755Y-108791422D02*
X116720755Y-103904422D01*
X119400755Y-110194422D02*
X119400755Y-103904422D01*
X114880755Y-106737422D02*
X114880755Y-98191422D01*
X116240755Y-108380422D02*
X116240755Y-96548422D01*
X119280755Y-101024422D02*
X119280755Y-94771422D01*
X119520755Y-110229422D02*
X119520755Y-94699422D01*
X118840755Y-110001422D02*
X118840755Y-103904422D01*
X119160755Y-110117422D02*
X119160755Y-103904422D01*
X119040755Y-101024422D02*
X119040755Y-94853422D01*
X117560755Y-101024422D02*
X117560755Y-95554422D01*
X114960755Y-106862422D02*
X114960755Y-98066422D01*
X115680755Y-107807422D02*
X115680755Y-97121422D01*
X115440755Y-107523422D02*
X115440755Y-97405422D01*
X117360755Y-101024422D02*
X117360755Y-95679422D01*
X121201755Y-110525422D02*
X121201755Y-94403422D01*
X118960755Y-110046422D02*
X118960755Y-103904422D01*
X117520755Y-101024422D02*
X117520755Y-95578422D01*
X120120755Y-110377422D02*
X120120755Y-94551422D01*
X119600755Y-110252422D02*
X119600755Y-94676422D01*
X129651246Y-107819422D02*
X129651246Y-106219422D01*
X117080755Y-109060422D02*
X117080755Y-103904422D01*
X118240755Y-109742422D02*
X118240755Y-103904422D01*
X117440755Y-109300422D02*
X117440755Y-103904422D01*
X117960755Y-101024422D02*
X117960755Y-95328422D01*
X117200755Y-101024422D02*
X117200755Y-95785422D01*
X118640755Y-101024422D02*
X118640755Y-95007422D01*
X119000755Y-110061422D02*
X119000755Y-103904422D01*
X117720755Y-101024422D02*
X117720755Y-95460422D01*
X118720755Y-101024422D02*
X118720755Y-94974422D01*
X118120755Y-101024422D02*
X118120755Y-95245422D01*
X120680755Y-110472422D02*
X120680755Y-94456422D01*
X129881755Y-102464422D02*
G75*
G03*
X129881755Y-102464422I-8120000J0D01*
G01*
%TO.C,FL1*%
X162561548Y-90337500D02*
X183571548Y-90337500D01*
X183571548Y-90337500D02*
X183571548Y-127407500D01*
X183571548Y-127407500D02*
X162561548Y-127407500D01*
X162561548Y-127407500D02*
X162561548Y-90337500D01*
%TO.C,C5*%
X154837323Y-98217000D02*
X154837323Y-101249000D01*
X156717323Y-100365000D02*
X156717323Y-104615000D01*
X156477323Y-99911000D02*
X156477323Y-103250000D01*
X154797323Y-98192000D02*
X154797323Y-101249000D01*
X152556323Y-97432000D02*
X152556323Y-107548000D01*
X155557323Y-105730000D02*
X155557323Y-106206000D01*
X155877323Y-105730000D02*
X155877323Y-105882000D01*
X156517323Y-99980000D02*
X156517323Y-105000000D01*
X153877323Y-103731000D02*
X153877323Y-107244000D01*
X153917323Y-103731000D02*
X153917323Y-107228000D01*
X155397323Y-105730000D02*
X155397323Y-106348000D01*
X155117323Y-105730000D02*
X155117323Y-106570000D01*
X154237323Y-105730000D02*
X154237323Y-107093000D01*
X155237323Y-105730000D02*
X155237323Y-106479000D01*
X155677323Y-98889000D02*
X155677323Y-101249000D01*
X153997323Y-103731000D02*
X153997323Y-107197000D01*
X153037323Y-97500000D02*
X153037323Y-107480000D01*
X153477323Y-103731000D02*
X153477323Y-107375000D01*
X156757323Y-100453000D02*
X156757323Y-104527000D01*
X154677323Y-98119000D02*
X154677323Y-101249000D01*
X155037323Y-98352000D02*
X155037323Y-101249000D01*
X154197323Y-105730000D02*
X154197323Y-107111000D01*
X154837323Y-105730000D02*
X154837323Y-106763000D01*
X152957323Y-97486000D02*
X152957323Y-107494000D01*
X153397323Y-103731000D02*
X153397323Y-107397000D01*
X153477323Y-97605000D02*
X153477323Y-101249000D01*
X155237323Y-98501000D02*
X155237323Y-101249000D01*
X154437323Y-97986000D02*
X154437323Y-101249000D01*
X152316323Y-97415000D02*
X152316323Y-107565000D01*
X154597323Y-98073000D02*
X154597323Y-101249000D01*
X156277323Y-99601000D02*
X156277323Y-103250000D01*
X154917323Y-105730000D02*
X154917323Y-106711000D01*
X152356323Y-97417000D02*
X152356323Y-107563000D01*
X153997323Y-97783000D02*
X153997323Y-101249000D01*
X153837323Y-97722000D02*
X153837323Y-101249000D01*
X156317323Y-99660000D02*
X156317323Y-103250000D01*
X155837323Y-105730000D02*
X155837323Y-105926000D01*
X154637323Y-98095000D02*
X154637323Y-101249000D01*
X154557323Y-105730000D02*
X154557323Y-106930000D01*
X153437323Y-103731000D02*
X153437323Y-107387000D01*
X154517323Y-105730000D02*
X154517323Y-106952000D01*
X154397323Y-105730000D02*
X154397323Y-107015000D01*
X155597323Y-98811000D02*
X155597323Y-101249000D01*
X153357323Y-97572000D02*
X153357323Y-101249000D01*
X146596677Y-99615000D02*
X147596677Y-99615000D01*
X152756323Y-97455000D02*
X152756323Y-107525000D01*
X155517323Y-98737000D02*
X155517323Y-101249000D01*
X154477323Y-98007000D02*
X154477323Y-101249000D01*
X154877323Y-98243000D02*
X154877323Y-101249000D01*
X156877323Y-100748000D02*
X156877323Y-104232000D01*
X156037323Y-99284000D02*
X156037323Y-103250000D01*
X153117323Y-97516000D02*
X153117323Y-107464000D01*
X153077323Y-97508000D02*
X153077323Y-107472000D01*
X154237323Y-97887000D02*
X154237323Y-101249000D01*
X154037323Y-97800000D02*
X154037323Y-101249000D01*
X154477323Y-105730000D02*
X154477323Y-106973000D01*
X154397323Y-97965000D02*
X154397323Y-101249000D01*
X154437323Y-105730000D02*
X154437323Y-106994000D01*
X156397323Y-99781000D02*
X156397323Y-103250000D01*
X154077323Y-97816000D02*
X154077323Y-101249000D01*
X156077323Y-99334000D02*
X156077323Y-103250000D01*
X154117323Y-105730000D02*
X154117323Y-107147000D01*
X154197323Y-97869000D02*
X154197323Y-101249000D01*
X152436323Y-97422000D02*
X152436323Y-107558000D01*
X156357323Y-99720000D02*
X156357323Y-103250000D01*
X152596323Y-97436000D02*
X152596323Y-107544000D01*
X153557323Y-97628000D02*
X153557323Y-101249000D01*
X155357323Y-98598000D02*
X155357323Y-101249000D01*
X153757323Y-97693000D02*
X153757323Y-101249000D01*
X155637323Y-105730000D02*
X155637323Y-106130000D01*
X156917323Y-100860000D02*
X156917323Y-104120000D01*
X152716323Y-97450000D02*
X152716323Y-107530000D01*
X152917323Y-97479000D02*
X152917323Y-107501000D01*
X152116323Y-97410000D02*
X152116323Y-107570000D01*
X152276323Y-97413000D02*
X152276323Y-107567000D01*
X153437323Y-97593000D02*
X153437323Y-101249000D01*
X154357323Y-97945000D02*
X154357323Y-101249000D01*
X157037323Y-101260000D02*
X157037323Y-103720000D01*
X154757323Y-105730000D02*
X154757323Y-106813000D01*
X153717323Y-103731000D02*
X153717323Y-107301000D01*
X155477323Y-98701000D02*
X155477323Y-101249000D01*
X156997323Y-101112000D02*
X156997323Y-103868000D01*
X153637323Y-103731000D02*
X153637323Y-107327000D01*
X154957323Y-98296000D02*
X154957323Y-101249000D01*
X155397323Y-98632000D02*
X155397323Y-101249000D01*
X152476323Y-97425000D02*
X152476323Y-107555000D01*
X156557323Y-100051000D02*
X156557323Y-104929000D01*
X154277323Y-105730000D02*
X154277323Y-107074000D01*
X154757323Y-98167000D02*
X154757323Y-101249000D01*
X152236323Y-97412000D02*
X152236323Y-107568000D01*
X153677323Y-103731000D02*
X153677323Y-107314000D01*
X155717323Y-98929000D02*
X155717323Y-101249000D01*
X153517323Y-103731000D02*
X153517323Y-107364000D01*
X157117323Y-101628000D02*
X157117323Y-103352000D01*
X155957323Y-99189000D02*
X155957323Y-103250000D01*
X154037323Y-105730000D02*
X154037323Y-107180000D01*
X156157323Y-99436000D02*
X156157323Y-103250000D01*
X153397323Y-97583000D02*
X153397323Y-101249000D01*
X154797323Y-105730000D02*
X154797323Y-106788000D01*
X152156323Y-97410000D02*
X152156323Y-107570000D01*
X155157323Y-98440000D02*
X155157323Y-101249000D01*
X153597323Y-97640000D02*
X153597323Y-101249000D01*
X155437323Y-105730000D02*
X155437323Y-106314000D01*
X155077323Y-105730000D02*
X155077323Y-106600000D01*
X153757323Y-103731000D02*
X153757323Y-107287000D01*
X154917323Y-98269000D02*
X154917323Y-101249000D01*
X154077323Y-105730000D02*
X154077323Y-107164000D01*
X152396323Y-97420000D02*
X152396323Y-107560000D01*
X155797323Y-99012000D02*
X155797323Y-101249000D01*
X156117323Y-99384000D02*
X156117323Y-103250000D01*
X153797323Y-97707000D02*
X153797323Y-101249000D01*
X156197323Y-99490000D02*
X156197323Y-103250000D01*
X147096677Y-99115000D02*
X147096677Y-100115000D01*
X153237323Y-97543000D02*
X153237323Y-107437000D01*
X154317323Y-105730000D02*
X154317323Y-107054000D01*
X154997323Y-105730000D02*
X154997323Y-106656000D01*
X154717323Y-98143000D02*
X154717323Y-101249000D01*
X155997323Y-105730000D02*
X155997323Y-105744000D01*
X155997323Y-99236000D02*
X155997323Y-103250000D01*
X153877323Y-97736000D02*
X153877323Y-101249000D01*
X152636323Y-97440000D02*
X152636323Y-107540000D01*
X153917323Y-97752000D02*
X153917323Y-101249000D01*
X153797323Y-103731000D02*
X153797323Y-107273000D01*
X154357323Y-105730000D02*
X154357323Y-107035000D01*
X153957323Y-97767000D02*
X153957323Y-101249000D01*
X155317323Y-98565000D02*
X155317323Y-101249000D01*
X153637323Y-97653000D02*
X153637323Y-101249000D01*
X155197323Y-98470000D02*
X155197323Y-101249000D01*
X154877323Y-105730000D02*
X154877323Y-106737000D01*
X156797323Y-100546000D02*
X156797323Y-104434000D01*
X153277323Y-97552000D02*
X153277323Y-107428000D01*
X154277323Y-97906000D02*
X154277323Y-101249000D01*
X155677323Y-105730000D02*
X155677323Y-106091000D01*
X155517323Y-105730000D02*
X155517323Y-106243000D01*
X155917323Y-105730000D02*
X155917323Y-105837000D01*
X154677323Y-105730000D02*
X154677323Y-106861000D01*
X157157323Y-101891000D02*
X157157323Y-103089000D01*
X154637323Y-105730000D02*
X154637323Y-106885000D01*
X154317323Y-97926000D02*
X154317323Y-101249000D01*
X153717323Y-97679000D02*
X153717323Y-101249000D01*
X155197323Y-105730000D02*
X155197323Y-106510000D01*
X154517323Y-98028000D02*
X154517323Y-101249000D01*
X155157323Y-105730000D02*
X155157323Y-106540000D01*
X153837323Y-103731000D02*
X153837323Y-107258000D01*
X156437323Y-99845000D02*
X156437323Y-103250000D01*
X152196323Y-97411000D02*
X152196323Y-107569000D01*
X157077323Y-101428000D02*
X157077323Y-103552000D01*
X155597323Y-105730000D02*
X155597323Y-106169000D01*
X155477323Y-105730000D02*
X155477323Y-106279000D01*
X153317323Y-97562000D02*
X153317323Y-107418000D01*
X155957323Y-105730000D02*
X155957323Y-105791000D01*
X155277323Y-98533000D02*
X155277323Y-101249000D01*
X154557323Y-98050000D02*
X154557323Y-101249000D01*
X153357323Y-103731000D02*
X153357323Y-107408000D01*
X154157323Y-105730000D02*
X154157323Y-107129000D01*
X152516323Y-97428000D02*
X152516323Y-107552000D01*
X154157323Y-97851000D02*
X154157323Y-101249000D01*
X155437323Y-98666000D02*
X155437323Y-101249000D01*
X155077323Y-98380000D02*
X155077323Y-101249000D01*
X154597323Y-105730000D02*
X154597323Y-106907000D01*
X153517323Y-97616000D02*
X153517323Y-101249000D01*
X153957323Y-103731000D02*
X153957323Y-107213000D01*
X155357323Y-105730000D02*
X155357323Y-106382000D01*
X152877323Y-97472000D02*
X152877323Y-107508000D01*
X152837323Y-97466000D02*
X152837323Y-107514000D01*
X153157323Y-97525000D02*
X153157323Y-107455000D01*
X156237323Y-99545000D02*
X156237323Y-103250000D01*
X155917323Y-99143000D02*
X155917323Y-103250000D01*
X155037323Y-105730000D02*
X155037323Y-106628000D01*
X155837323Y-99054000D02*
X155837323Y-103250000D01*
X153597323Y-103731000D02*
X153597323Y-107340000D01*
X152676323Y-97445000D02*
X152676323Y-107535000D01*
X155757323Y-98970000D02*
X155757323Y-101249000D01*
X154717323Y-105730000D02*
X154717323Y-106837000D01*
X155717323Y-105730000D02*
X155717323Y-106051000D01*
X155757323Y-105730000D02*
X155757323Y-106010000D01*
X152076323Y-97410000D02*
X152076323Y-107570000D01*
X153677323Y-97666000D02*
X153677323Y-101249000D01*
X155117323Y-98410000D02*
X155117323Y-101249000D01*
X155557323Y-98774000D02*
X155557323Y-101249000D01*
X156637323Y-100201000D02*
X156637323Y-104779000D01*
X154117323Y-97833000D02*
X154117323Y-101249000D01*
X155877323Y-99098000D02*
X155877323Y-103250000D01*
X155317323Y-105730000D02*
X155317323Y-106415000D01*
X156837323Y-100644000D02*
X156837323Y-104336000D01*
X153557323Y-103731000D02*
X153557323Y-107352000D01*
X155277323Y-105730000D02*
X155277323Y-106447000D01*
X153197323Y-97534000D02*
X153197323Y-107446000D01*
X152997323Y-97493000D02*
X152997323Y-107487000D01*
X155797323Y-105730000D02*
X155797323Y-105968000D01*
X155637323Y-98850000D02*
X155637323Y-101249000D01*
X154997323Y-98324000D02*
X154997323Y-101249000D01*
X156957323Y-100980000D02*
X156957323Y-104000000D01*
X156677323Y-100281000D02*
X156677323Y-104699000D01*
X152797323Y-97460000D02*
X152797323Y-107520000D01*
X156597323Y-100125000D02*
X156597323Y-104855000D01*
X154957323Y-105730000D02*
X154957323Y-106684000D01*
X147251420Y-100776902D02*
G75*
G03*
X148128311Y-99230000I4824904J-1713097D01*
G01*
%TO.C,C4*%
X130869000Y-100110000D02*
X136609000Y-100110000D01*
X130869000Y-107550000D02*
X130869000Y-100110000D01*
X130869000Y-107550000D02*
X136609000Y-107550000D01*
X136609000Y-107550000D02*
X136609000Y-100110000D01*
%TO.C,C7*%
X185939000Y-117725063D02*
X185129000Y-117725063D01*
X194209000Y-115365063D02*
X184149000Y-115365063D01*
X193902000Y-116525063D02*
X190420000Y-116525063D01*
X194256000Y-114844063D02*
X184102000Y-114844063D01*
X194029000Y-116165063D02*
X190420000Y-116165063D01*
X194086000Y-115965063D02*
X190420000Y-115965063D01*
X190921000Y-119445063D02*
X187437000Y-119445063D01*
X187938000Y-116165063D02*
X184329000Y-116165063D01*
X185939000Y-117965063D02*
X185321000Y-117965063D01*
X192858000Y-118165063D02*
X190420000Y-118165063D01*
X190689000Y-119525063D02*
X187669000Y-119525063D01*
X193502000Y-117325063D02*
X190420000Y-117325063D01*
X191618000Y-119125063D02*
X186740000Y-119125063D01*
X193426000Y-117445063D02*
X190420000Y-117445063D01*
X185939000Y-117245063D02*
X184808000Y-117245063D01*
X194224000Y-115244063D02*
X184134000Y-115244063D01*
X185939000Y-117685063D02*
X185099000Y-117685063D01*
X194259000Y-114684063D02*
X184099000Y-114684063D01*
X193962000Y-116365063D02*
X190420000Y-116365063D01*
X185939000Y-117645063D02*
X185069000Y-117645063D01*
X194214000Y-115324063D02*
X184144000Y-115324063D01*
X194219000Y-115284063D02*
X184139000Y-115284063D01*
X194003000Y-116245063D02*
X190420000Y-116245063D01*
X192657000Y-118365063D02*
X190420000Y-118365063D01*
X193853000Y-116645063D02*
X190420000Y-116645063D01*
X192124000Y-118805063D02*
X188419000Y-118805063D01*
X194259000Y-114644063D02*
X184099000Y-114644063D01*
X185939000Y-116845063D02*
X184595000Y-116845063D01*
X193003000Y-118005063D02*
X190420000Y-118005063D01*
X194041000Y-116125063D02*
X190420000Y-116125063D01*
X190809000Y-119485063D02*
X187549000Y-119485063D01*
X193104000Y-117885063D02*
X190420000Y-117885063D01*
X185939000Y-117205063D02*
X184784000Y-117205063D01*
X193526000Y-117285063D02*
X190420000Y-117285063D01*
X193641000Y-117085063D02*
X190420000Y-117085063D01*
X193836000Y-116685063D02*
X190420000Y-116685063D01*
X193229000Y-117725063D02*
X190420000Y-117725063D01*
X185939000Y-117525063D02*
X184985000Y-117525063D01*
X185939000Y-118365063D02*
X185701000Y-118365063D01*
X193976000Y-116325063D02*
X190420000Y-116325063D01*
X185939000Y-118165063D02*
X185500000Y-118165063D01*
X191304000Y-119285063D02*
X187054000Y-119285063D01*
X191888000Y-118965063D02*
X188419000Y-118965063D01*
X194258000Y-114764063D02*
X184100000Y-114764063D01*
X185939000Y-118285063D02*
X185618000Y-118285063D01*
X191824000Y-119005063D02*
X188419000Y-119005063D01*
X192895000Y-118125063D02*
X190420000Y-118125063D01*
X192554000Y-109664417D02*
X191554000Y-109664417D01*
X185939000Y-116725063D02*
X184540000Y-116725063D01*
X185939000Y-117285063D02*
X184832000Y-117285063D01*
X187938000Y-116045063D02*
X184294000Y-116045063D01*
X192480000Y-118525063D02*
X188419000Y-118525063D01*
X185939000Y-118005063D02*
X185355000Y-118005063D01*
X194183000Y-115525063D02*
X184175000Y-115525063D01*
X187938000Y-116365063D02*
X184396000Y-116365063D01*
X193990000Y-116285063D02*
X190420000Y-116285063D01*
X192932000Y-118085063D02*
X190420000Y-118085063D01*
X185939000Y-117165063D02*
X184762000Y-117165063D01*
X193933000Y-116445063D02*
X190420000Y-116445063D01*
X192526000Y-118485063D02*
X188419000Y-118485063D01*
X193477000Y-117365063D02*
X190420000Y-117365063D01*
X194249000Y-114964063D02*
X184109000Y-114964063D01*
X193662000Y-117045063D02*
X190420000Y-117045063D01*
X194016000Y-116205063D02*
X190420000Y-116205063D01*
X193289000Y-117645063D02*
X190420000Y-117645063D01*
X194161000Y-115645063D02*
X184197000Y-115645063D01*
X194064000Y-116045063D02*
X190420000Y-116045063D01*
X187938000Y-116565063D02*
X184472000Y-116565063D01*
X191689000Y-119085063D02*
X186669000Y-119085063D01*
X191388000Y-119245063D02*
X186970000Y-119245063D01*
X185939000Y-117125063D02*
X184739000Y-117125063D01*
X193136000Y-117845063D02*
X190420000Y-117845063D01*
X185939000Y-117485063D02*
X184958000Y-117485063D01*
X187938000Y-115965063D02*
X184272000Y-115965063D01*
X194097000Y-115925063D02*
X190420000Y-115925063D01*
X193400000Y-117485063D02*
X190420000Y-117485063D01*
X185939000Y-116685063D02*
X184522000Y-116685063D01*
X187938000Y-116325063D02*
X184382000Y-116325063D01*
X193199000Y-117765063D02*
X190420000Y-117765063D01*
X192571000Y-118445063D02*
X188419000Y-118445063D01*
X185939000Y-118205063D02*
X185539000Y-118205063D01*
X193886000Y-116565063D02*
X190420000Y-116565063D01*
X185939000Y-116605063D02*
X184489000Y-116605063D01*
X194126000Y-115805063D02*
X184232000Y-115805063D01*
X191123000Y-119365063D02*
X187235000Y-119365063D01*
X187938000Y-116085063D02*
X184305000Y-116085063D01*
X187938000Y-116485063D02*
X184441000Y-116485063D01*
X192335000Y-118645063D02*
X188419000Y-118645063D01*
X185939000Y-118485063D02*
X185832000Y-118485063D01*
X192285000Y-118685063D02*
X188419000Y-118685063D01*
X187938000Y-115925063D02*
X184261000Y-115925063D01*
X185939000Y-117085063D02*
X184717000Y-117085063D01*
X185939000Y-117885063D02*
X185254000Y-117885063D01*
X185939000Y-117045063D02*
X184696000Y-117045063D01*
X194153000Y-115685063D02*
X184205000Y-115685063D01*
X194259000Y-114724063D02*
X184099000Y-114724063D01*
X185939000Y-117925063D02*
X185287000Y-117925063D01*
X185939000Y-117445063D02*
X184932000Y-117445063D01*
X193818000Y-116725063D02*
X190420000Y-116725063D01*
X185939000Y-118085063D02*
X185426000Y-118085063D01*
X192699000Y-118325063D02*
X190420000Y-118325063D01*
X193317000Y-117605063D02*
X190420000Y-117605063D01*
X193743000Y-116885063D02*
X190420000Y-116885063D01*
X187938000Y-116205063D02*
X184342000Y-116205063D01*
X187938000Y-116245063D02*
X184355000Y-116245063D01*
X185939000Y-117325063D02*
X184856000Y-117325063D01*
X189778000Y-119725063D02*
X188580000Y-119725063D01*
X194176000Y-115565063D02*
X184182000Y-115565063D01*
X191758000Y-119045063D02*
X188419000Y-119045063D01*
X194237000Y-115124063D02*
X184121000Y-115124063D01*
X185939000Y-118245063D02*
X185578000Y-118245063D01*
X193683000Y-117005063D02*
X190420000Y-117005063D01*
X190241000Y-119645063D02*
X188117000Y-119645063D01*
X193869000Y-116605063D02*
X190420000Y-116605063D01*
X193168000Y-117805063D02*
X190420000Y-117805063D01*
X194257000Y-114804063D02*
X184101000Y-114804063D01*
X192179000Y-118765063D02*
X188419000Y-118765063D01*
X194241000Y-115084063D02*
X184117000Y-115084063D01*
X194244000Y-115044063D02*
X184114000Y-115044063D01*
X192968000Y-118045063D02*
X190420000Y-118045063D01*
X192819000Y-118205063D02*
X190420000Y-118205063D01*
X187938000Y-116125063D02*
X184317000Y-116125063D01*
X185939000Y-118405063D02*
X185743000Y-118405063D01*
X185939000Y-117805063D02*
X185190000Y-117805063D01*
X193259000Y-117685063D02*
X190420000Y-117685063D01*
X185939000Y-118525063D02*
X185878000Y-118525063D01*
X185939000Y-118125063D02*
X185463000Y-118125063D01*
X187938000Y-116525063D02*
X184456000Y-116525063D01*
X193917000Y-116485063D02*
X190420000Y-116485063D01*
X192009000Y-118885063D02*
X188419000Y-118885063D01*
X193373000Y-117525063D02*
X190420000Y-117525063D01*
X192385000Y-118605063D02*
X188419000Y-118605063D01*
X194190000Y-115485063D02*
X184168000Y-115485063D01*
X193071000Y-117925063D02*
X190420000Y-117925063D01*
X185939000Y-116765063D02*
X184558000Y-116765063D01*
X193619000Y-117125063D02*
X190420000Y-117125063D01*
X191025000Y-119405063D02*
X187333000Y-119405063D01*
X193037000Y-117965063D02*
X190420000Y-117965063D01*
X192740000Y-118285063D02*
X190420000Y-118285063D01*
X193704000Y-116965063D02*
X190420000Y-116965063D01*
X185939000Y-118045063D02*
X185390000Y-118045063D01*
X193452000Y-117405063D02*
X190420000Y-117405063D01*
X193763000Y-116845063D02*
X190420000Y-116845063D01*
X190409000Y-119605063D02*
X187949000Y-119605063D01*
X192054000Y-109164417D02*
X192054000Y-110164417D01*
X191468000Y-119205063D02*
X186890000Y-119205063D01*
X194169000Y-115605063D02*
X184189000Y-115605063D01*
X194254000Y-114884063D02*
X184104000Y-114884063D01*
X185939000Y-116885063D02*
X184615000Y-116885063D01*
X187938000Y-116005063D02*
X184282000Y-116005063D01*
X191949000Y-118925063D02*
X188419000Y-118925063D01*
X193724000Y-116925063D02*
X190420000Y-116925063D01*
X192780000Y-118245063D02*
X190420000Y-118245063D01*
X194197000Y-115445063D02*
X184161000Y-115445063D01*
X194252000Y-114924063D02*
X184106000Y-114924063D01*
X193550000Y-117245063D02*
X190420000Y-117245063D01*
X192433000Y-118565063D02*
X188419000Y-118565063D01*
X185939000Y-117565063D02*
X185013000Y-117565063D01*
X185939000Y-118325063D02*
X185659000Y-118325063D01*
X187938000Y-116445063D02*
X184425000Y-116445063D01*
X185939000Y-117765063D02*
X185159000Y-117765063D01*
X185939000Y-117005063D02*
X184675000Y-117005063D01*
X190041000Y-119685063D02*
X188317000Y-119685063D01*
X194117000Y-115845063D02*
X184241000Y-115845063D01*
X190557000Y-119565063D02*
X187801000Y-119565063D01*
X191544000Y-119165063D02*
X186814000Y-119165063D01*
X193574000Y-117205063D02*
X190420000Y-117205063D01*
X185939000Y-116965063D02*
X184654000Y-116965063D01*
X193947000Y-116405063D02*
X190420000Y-116405063D01*
X185939000Y-117845063D02*
X185222000Y-117845063D01*
X185939000Y-117365063D02*
X184881000Y-117365063D01*
X194247000Y-115004063D02*
X184111000Y-115004063D01*
X194229000Y-115204063D02*
X184129000Y-115204063D01*
X185939000Y-118445063D02*
X185787000Y-118445063D01*
X191216000Y-119325063D02*
X187142000Y-119325063D01*
X194135000Y-115765063D02*
X184223000Y-115765063D01*
X193782000Y-116805063D02*
X190420000Y-116805063D01*
X194233000Y-115164063D02*
X184125000Y-115164063D01*
X185939000Y-117605063D02*
X185041000Y-117605063D01*
X187938000Y-116285063D02*
X184368000Y-116285063D01*
X185939000Y-116925063D02*
X184634000Y-116925063D01*
X193800000Y-116765063D02*
X190420000Y-116765063D01*
X193596000Y-117165063D02*
X190420000Y-117165063D01*
X192233000Y-118725063D02*
X188419000Y-118725063D01*
X194203000Y-115405063D02*
X184155000Y-115405063D01*
X187938000Y-116405063D02*
X184411000Y-116405063D01*
X185939000Y-116805063D02*
X184576000Y-116805063D01*
X194053000Y-116085063D02*
X190420000Y-116085063D01*
X194076000Y-116005063D02*
X190420000Y-116005063D01*
X185939000Y-116645063D02*
X184505000Y-116645063D01*
X193345000Y-117565063D02*
X190420000Y-117565063D01*
X192615000Y-118405063D02*
X188419000Y-118405063D01*
X185939000Y-118565063D02*
X185925000Y-118565063D01*
X185939000Y-117405063D02*
X184906000Y-117405063D01*
X194107000Y-115885063D02*
X184251000Y-115885063D01*
X194144000Y-115725063D02*
X184214000Y-115725063D01*
X192068000Y-118845063D02*
X188419000Y-118845063D01*
X190892098Y-109819160D02*
G75*
G03*
X192439000Y-110696051I-1713097J-4824904D01*
G01*
%TO.C,~  ~*%
X107735000Y-101170000D02*
X107828000Y-101264000D01*
X105690000Y-98715000D02*
X105783000Y-98809000D01*
X107975000Y-101000000D02*
X108033000Y-101059000D01*
X104359000Y-107550000D02*
X104359000Y-97430000D01*
X105484000Y-98920000D02*
X105543000Y-98979000D01*
X102599000Y-107550000D02*
X102599000Y-97430000D01*
X109059000Y-107550000D02*
X109059000Y-97430000D01*
X110320000Y-107550000D02*
X110320000Y-97430000D01*
X102599000Y-107550000D02*
X110320000Y-107550000D01*
X110559000Y-107790000D02*
X110559000Y-107190000D01*
X109719000Y-107790000D02*
X110559000Y-107790000D01*
X109659000Y-107550000D02*
X109659000Y-97430000D01*
X102599000Y-97430000D02*
X110320000Y-97430000D01*
X105275000Y-104201000D02*
G75*
G03*
X105275047Y-105779089I1483995J-789000D01*
G01*
X108243000Y-105779000D02*
G75*
G03*
X108439450Y-104960617I-1483995J788998D01*
G01*
X105970000Y-106474000D02*
G75*
G03*
X107548089Y-106473953I789000J1483995D01*
G01*
X108439000Y-104990000D02*
G75*
G03*
X108242352Y-104201288I-1679991J2D01*
G01*
X107548000Y-103506000D02*
G75*
G03*
X105969911Y-103506047I-789000J-1483995D01*
G01*
X104309000Y-99990000D02*
G75*
G03*
X104309000Y-99990000I-550000J0D01*
G01*
X104309000Y-104990000D02*
G75*
G03*
X104309000Y-104990000I-550000J0D01*
G01*
X108439000Y-99990000D02*
G75*
G03*
X108439000Y-99990000I-1680000J0D01*
G01*
%TO.C,R1*%
X129929000Y-95180000D02*
X136469000Y-95180000D01*
X129929000Y-97590000D02*
X129929000Y-97920000D01*
X136469000Y-95180000D02*
X136469000Y-95510000D01*
X129929000Y-95510000D02*
X129929000Y-95180000D01*
X136469000Y-97920000D02*
X136469000Y-97590000D01*
X129929000Y-97920000D02*
X136469000Y-97920000D01*
%TD*%
M02*
