%TF.GenerationSoftware,KiCad,Pcbnew,(6.0.0)*%
%TF.CreationDate,2022-07-31T18:03:17+01:00*%
%TF.ProjectId,PASS LABS F5,50415353-204c-4414-9253-2046352e6b69,rev?*%
%TF.SameCoordinates,Original*%
%TF.FileFunction,Copper,L2,Bot*%
%TF.FilePolarity,Positive*%
%FSLAX46Y46*%
G04 Gerber Fmt 4.6, Leading zero omitted, Abs format (unit mm)*
G04 Created by KiCad (PCBNEW (6.0.0)) date 2022-07-31 18:03:17*
%MOMM*%
%LPD*%
G01*
G04 APERTURE LIST*
G04 Aperture macros list*
%AMRoundRect*
0 Rectangle with rounded corners*
0 $1 Rounding radius*
0 $2 $3 $4 $5 $6 $7 $8 $9 X,Y pos of 4 corners*
0 Add a 4 corners polygon primitive as box body*
4,1,4,$2,$3,$4,$5,$6,$7,$8,$9,$2,$3,0*
0 Add four circle primitives for the rounded corners*
1,1,$1+$1,$2,$3*
1,1,$1+$1,$4,$5*
1,1,$1+$1,$6,$7*
1,1,$1+$1,$8,$9*
0 Add four rect primitives between the rounded corners*
20,1,$1+$1,$2,$3,$4,$5,0*
20,1,$1+$1,$4,$5,$6,$7,0*
20,1,$1+$1,$6,$7,$8,$9,0*
20,1,$1+$1,$8,$9,$2,$3,0*%
G04 Aperture macros list end*
%TA.AperFunction,ComponentPad*%
%ADD10C,9.000000*%
%TD*%
%TA.AperFunction,ComponentPad*%
%ADD11C,4.000000*%
%TD*%
%TA.AperFunction,ComponentPad*%
%ADD12R,1.500000X1.500000*%
%TD*%
%TA.AperFunction,ComponentPad*%
%ADD13C,1.500000*%
%TD*%
%TA.AperFunction,ComponentPad*%
%ADD14C,1.600000*%
%TD*%
%TA.AperFunction,ComponentPad*%
%ADD15O,1.600000X1.600000*%
%TD*%
%TA.AperFunction,ComponentPad*%
%ADD16RoundRect,0.250000X-1.125000X-1.125000X1.125000X-1.125000X1.125000X1.125000X-1.125000X1.125000X0*%
%TD*%
%TA.AperFunction,ComponentPad*%
%ADD17C,2.400000*%
%TD*%
%TA.AperFunction,ComponentPad*%
%ADD18O,2.400000X2.400000*%
%TD*%
%TA.AperFunction,ComponentPad*%
%ADD19R,1.222000X1.222000*%
%TD*%
%TA.AperFunction,ComponentPad*%
%ADD20C,1.222000*%
%TD*%
%TA.AperFunction,ComponentPad*%
%ADD21R,4.500000X2.500000*%
%TD*%
%TA.AperFunction,ComponentPad*%
%ADD22O,4.500000X2.500000*%
%TD*%
%TA.AperFunction,Conductor*%
%ADD23C,1.000000*%
%TD*%
%TA.AperFunction,Conductor*%
%ADD24C,3.000000*%
%TD*%
%TA.AperFunction,Conductor*%
%ADD25C,2.000000*%
%TD*%
G04 APERTURE END LIST*
D10*
%TO.P,J5,1,Pin_1*%
%TO.N,GND*%
X131434800Y-91541100D03*
D11*
X134945200Y-89001100D03*
X127934800Y-89001100D03*
X134945200Y-94004900D03*
X127934800Y-94004900D03*
%TD*%
D10*
%TO.P,J1,1,Pin_1*%
%TO.N,/+23V*%
X97117931Y-58911100D03*
D11*
X100628331Y-61374900D03*
X93617931Y-61374900D03*
X93617931Y-56371100D03*
X100628331Y-56371100D03*
%TD*%
D12*
%TO.P,Q4,1,C*%
%TO.N,Net-(P3-Pad1)*%
X144980000Y-96710000D03*
D13*
%TO.P,Q4,2,B*%
%TO.N,Net-(Q4-Pad2)*%
X142440000Y-94170000D03*
%TO.P,Q4,3,E*%
%TO.N,/-23V*%
X144980000Y-91630000D03*
%TD*%
D14*
%TO.P,R4,1*%
%TO.N,Net-(P1-Pad1)*%
X130350000Y-70544167D03*
D15*
%TO.P,R4,2*%
%TO.N,GND*%
X130350000Y-80704167D03*
%TD*%
D16*
%TO.P,GND,1,Pin_1*%
%TO.N,GND*%
X106546816Y-84008923D03*
%TD*%
D14*
%TO.P,R3,1*%
%TO.N,Net-(P2-Pad1)*%
X90640000Y-78677992D03*
D15*
%TO.P,R3,2*%
%TO.N,/+23V*%
X80480000Y-78677992D03*
%TD*%
D17*
%TO.P,R10,1*%
%TO.N,/SPKOUT*%
X122179752Y-64760000D03*
D18*
%TO.P,R10,2*%
%TO.N,Net-(P1-Pad3)*%
X122179752Y-80000000D03*
%TD*%
D14*
%TO.P,R1,1*%
%TO.N,Net-(J4-Pad1)*%
X102870000Y-80704167D03*
D15*
%TO.P,R1,2*%
%TO.N,GND*%
X102870000Y-70544167D03*
%TD*%
D17*
%TO.P,R21,1*%
%TO.N,/+23V*%
X90513432Y-58710000D03*
D18*
%TO.P,R21,2*%
%TO.N,/Q5_3*%
X75273432Y-58710000D03*
%TD*%
D14*
%TO.P,TH1,1*%
%TO.N,Net-(R15-Pad1)*%
X156060000Y-83030000D03*
%TO.P,TH1,2*%
%TO.N,/Q6_3*%
X156060000Y-80530000D03*
%TD*%
D17*
%TO.P,R22,1*%
%TO.N,/Q6_3*%
X158362097Y-58790000D03*
D18*
%TO.P,R22,2*%
%TO.N,/-23V*%
X143122097Y-58790000D03*
%TD*%
D19*
%TO.P,P1,1,1*%
%TO.N,Net-(P1-Pad1)*%
X114130000Y-73960000D03*
D20*
%TO.P,P1,2,2*%
%TO.N,GND*%
X116670000Y-71420000D03*
%TO.P,P1,3,3*%
%TO.N,Net-(P1-Pad3)*%
X119210000Y-73960000D03*
%TD*%
D12*
%TO.P,Q2,1,S*%
%TO.N,Net-(P3-Pad1)*%
X118490000Y-82475205D03*
D13*
%TO.P,Q2,2,G*%
%TO.N,/INPUT*%
X121030000Y-85015205D03*
%TO.P,Q2,3,D*%
%TO.N,Net-(P1-Pad3)*%
X118490000Y-87555205D03*
%TD*%
D14*
%TO.P,R16,1*%
%TO.N,Net-(Q4-Pad2)*%
X153270000Y-63940000D03*
D15*
%TO.P,R16,2*%
%TO.N,/-23V*%
X143110000Y-63940000D03*
%TD*%
D14*
%TO.P,R5,1*%
%TO.N,GND*%
X133360000Y-80704167D03*
D15*
%TO.P,R5,2*%
%TO.N,Net-(P1-Pad3)*%
X133360000Y-70544167D03*
%TD*%
D12*
%TO.P,Q3,1,C*%
%TO.N,Net-(P2-Pad1)*%
X88960000Y-91736439D03*
D13*
%TO.P,Q3,2,B*%
%TO.N,Net-(Q3-Pad2)*%
X91500000Y-94276439D03*
%TO.P,Q3,3,E*%
%TO.N,/+23V*%
X88960000Y-96816439D03*
%TD*%
D17*
%TO.P,R8,1*%
%TO.N,/SPKOUT*%
X106907820Y-64760000D03*
D18*
%TO.P,R8,2*%
%TO.N,Net-(P1-Pad1)*%
X106907820Y-80000000D03*
%TD*%
D14*
%TO.P,R14,1*%
%TO.N,Net-(R14-Pad1)*%
X80480000Y-83001463D03*
D15*
%TO.P,R14,2*%
%TO.N,Net-(P2-Pad1)*%
X90640000Y-83001463D03*
%TD*%
D14*
%TO.P,R2,1*%
%TO.N,/INPUT*%
X99850000Y-80704167D03*
D15*
%TO.P,R2,2*%
%TO.N,Net-(J4-Pad1)*%
X99850000Y-70544167D03*
%TD*%
D19*
%TO.P,P2,1,1*%
%TO.N,Net-(P2-Pad1)*%
X83110000Y-91666439D03*
D20*
%TO.P,P2,2,2*%
%TO.N,/+23V*%
X85650000Y-94206439D03*
%TO.P,P2,3,3*%
X83110000Y-96746439D03*
%TD*%
D21*
%TO.P,Q6,1,G*%
%TO.N,Net-(Q6-Pad1)*%
X160642908Y-71259143D03*
D22*
%TO.P,Q6,2,D*%
%TO.N,/SPKOUT*%
X160642908Y-76709143D03*
%TO.P,Q6,3,S*%
%TO.N,/Q6_3*%
X160642908Y-82159143D03*
%TD*%
D21*
%TO.P,Q5,1,G*%
%TO.N,Net-(Q5-Pad1)*%
X73190000Y-82159143D03*
D22*
%TO.P,Q5,2,D*%
%TO.N,/SPKOUT*%
X73190000Y-76709143D03*
%TO.P,Q5,3,S*%
%TO.N,/Q5_3*%
X73190000Y-71259143D03*
%TD*%
D16*
%TO.P,IN,1,Pin_1*%
%TO.N,Net-(J4-Pad1)*%
X102984332Y-84022966D03*
%TD*%
D17*
%TO.P,R9,1*%
%TO.N,/SPKOUT*%
X126375833Y-64760000D03*
D18*
%TO.P,R9,2*%
%TO.N,Net-(P1-Pad3)*%
X126375833Y-80000000D03*
%TD*%
D14*
%TO.P,R6,1*%
%TO.N,Net-(P3-Pad1)*%
X143107426Y-87317357D03*
D15*
%TO.P,R6,2*%
%TO.N,/-23V*%
X153267426Y-87317357D03*
%TD*%
D14*
%TO.P,R12,1*%
%TO.N,/SPKOUT*%
X143107426Y-70223471D03*
D15*
%TO.P,R12,2*%
%TO.N,Net-(Q4-Pad2)*%
X153267426Y-70223471D03*
%TD*%
D11*
%TO.P,J3,1,Pin_1*%
%TO.N,/SPKOUT*%
X113319600Y-56466200D03*
X120330000Y-56466200D03*
X113319600Y-61470000D03*
X120330000Y-61470000D03*
D10*
X116830000Y-58930000D03*
%TD*%
D14*
%TO.P,R19,1*%
%TO.N,/Q5_3*%
X80488607Y-70031050D03*
D15*
%TO.P,R19,2*%
%TO.N,Net-(Q3-Pad2)*%
X90648607Y-70031050D03*
%TD*%
D14*
%TO.P,R13,1*%
%TO.N,Net-(Q3-Pad2)*%
X90648607Y-74354521D03*
D15*
%TO.P,R13,2*%
%TO.N,/+23V*%
X80488607Y-74354521D03*
%TD*%
D14*
%TO.P,R11,1*%
%TO.N,Net-(Q3-Pad2)*%
X90651233Y-63700000D03*
D15*
%TO.P,R11,2*%
%TO.N,/SPKOUT*%
X80491233Y-63700000D03*
%TD*%
D14*
%TO.P,TH2,1*%
%TO.N,Net-(R14-Pad1)*%
X77800000Y-83000000D03*
%TO.P,TH2,2*%
%TO.N,/Q5_3*%
X77800000Y-80500000D03*
%TD*%
%TO.P,R15,1*%
%TO.N,Net-(R15-Pad1)*%
X153267426Y-83043884D03*
D15*
%TO.P,R15,2*%
%TO.N,Net-(P3-Pad1)*%
X143107426Y-83043884D03*
%TD*%
D12*
%TO.P,Q1,1,D*%
%TO.N,Net-(P2-Pad1)*%
X114890000Y-87515205D03*
D13*
%TO.P,Q1,2,G*%
%TO.N,/INPUT*%
X112350000Y-84975205D03*
%TO.P,Q1,3,S*%
%TO.N,Net-(P1-Pad1)*%
X114890000Y-82435205D03*
%TD*%
D11*
%TO.P,J2,1,Pin_1*%
%TO.N,/-23V*%
X133046470Y-56371100D03*
X133046470Y-61374900D03*
D10*
X136546470Y-58911100D03*
D11*
X140056870Y-56371100D03*
X140056870Y-61374900D03*
%TD*%
D14*
%TO.P,R20,1*%
%TO.N,/Q6_3*%
X143107426Y-74496942D03*
D15*
%TO.P,R20,2*%
%TO.N,Net-(Q4-Pad2)*%
X153267426Y-74496942D03*
%TD*%
D14*
%TO.P,R17,1*%
%TO.N,Net-(Q6-Pad1)*%
X153267426Y-78770413D03*
D15*
%TO.P,R17,2*%
%TO.N,Net-(P3-Pad1)*%
X143107426Y-78770413D03*
%TD*%
D19*
%TO.P,P3,1,1*%
%TO.N,Net-(P3-Pad1)*%
X150760000Y-96780000D03*
D20*
%TO.P,P3,2,2*%
X148220000Y-94240000D03*
%TO.P,P3,3,3*%
%TO.N,/-23V*%
X150760000Y-91700000D03*
%TD*%
D17*
%TO.P,R7,1*%
%TO.N,/SPKOUT*%
X111103902Y-64760000D03*
D18*
%TO.P,R7,2*%
%TO.N,Net-(P1-Pad1)*%
X111103902Y-80000000D03*
%TD*%
D14*
%TO.P,R18,1*%
%TO.N,Net-(Q5-Pad1)*%
X80488607Y-87324936D03*
D15*
%TO.P,R18,2*%
%TO.N,Net-(P2-Pad1)*%
X90648607Y-87324936D03*
%TD*%
D23*
%TO.N,/-23V*%
X142860000Y-91630000D02*
X144980000Y-91630000D01*
X140056870Y-88826870D02*
X140056870Y-61374900D01*
X142860000Y-91630000D02*
X140056870Y-88826870D01*
D24*
%TO.N,/SPKOUT*%
X104617820Y-67050000D02*
X84090000Y-67050000D01*
X84090000Y-67050000D02*
X79930000Y-67050000D01*
X78535003Y-67050000D02*
X77795003Y-66310000D01*
X77510000Y-73390000D02*
X77510000Y-66595003D01*
X106907820Y-64760000D02*
X104617820Y-67050000D01*
X77795003Y-66310000D02*
X77510000Y-66595003D01*
X79930000Y-67050000D02*
X78535003Y-67050000D01*
D25*
X80491233Y-66488767D02*
X79930000Y-67050000D01*
X83841233Y-67050000D02*
X84090000Y-67050000D01*
X80491233Y-63700000D02*
X80491233Y-66488767D01*
X73190000Y-76709143D02*
X74190857Y-76709143D01*
D24*
X77510000Y-66595003D02*
X80401181Y-63703822D01*
X80491233Y-63700000D02*
X83841233Y-67050000D01*
X74190857Y-76709143D02*
X77510000Y-73390000D01*
D25*
%TO.N,GND*%
X103745833Y-71420000D02*
X102870000Y-70544167D01*
X116670000Y-71420000D02*
X103745833Y-71420000D01*
X109991100Y-91541100D02*
X131434800Y-91541100D01*
X130350000Y-80704167D02*
X133360000Y-80704167D01*
X131434800Y-91541100D02*
X131434800Y-81788967D01*
X130350000Y-77460000D02*
X124310000Y-71420000D01*
X106546816Y-84008923D02*
X106546816Y-88096816D01*
X130350000Y-80704167D02*
X130350000Y-77460000D01*
X131434800Y-81788967D02*
X130350000Y-80704167D01*
X124310000Y-71420000D02*
X116670000Y-71420000D01*
X106546816Y-88096816D02*
X109991100Y-91541100D01*
D23*
%TO.N,Net-(P1-Pad3)*%
X123379752Y-86070248D02*
X123379752Y-81200000D01*
X119210000Y-77030248D02*
X122179752Y-80000000D01*
X123379752Y-81200000D02*
X122179752Y-80000000D01*
X121894795Y-87555205D02*
X123379752Y-86070248D01*
X119210000Y-73960000D02*
X119210000Y-77030248D01*
X118490000Y-87555205D02*
X121894795Y-87555205D01*
%TO.N,Net-(P2-Pad1)*%
X83110000Y-91666439D02*
X88890000Y-91666439D01*
X88890000Y-91666439D02*
X88960000Y-91736439D01*
%TO.N,/INPUT*%
X121030000Y-85015205D02*
X112390000Y-85015205D01*
%TO.N,Net-(Q3-Pad2)*%
X91500000Y-94276439D02*
X92823220Y-92953220D01*
X90648607Y-74354521D02*
X92900000Y-76605914D01*
X92900000Y-76605914D02*
X92900000Y-92876440D01*
X92900000Y-92876440D02*
X92823220Y-92953220D01*
%TO.N,Net-(Q4-Pad2)*%
X153270000Y-65947426D02*
X153270000Y-63940000D01*
X153267426Y-65950000D02*
X153267426Y-74496942D01*
D25*
%TO.N,Net-(Q6-Pad1)*%
X160642908Y-71259143D02*
X160642908Y-71394931D01*
D23*
X160642908Y-71394931D02*
X153267426Y-78770413D01*
%TO.N,/Q6_3*%
X143107426Y-74496942D02*
X148656942Y-74496942D01*
D25*
X148656942Y-74496942D02*
X149370000Y-75210000D01*
X149370000Y-78460000D02*
X149370000Y-75210000D01*
X152590000Y-58770000D02*
X149370000Y-61990000D01*
X158362097Y-58790000D02*
X152610000Y-58790000D01*
X151879924Y-80969924D02*
X149370000Y-78460000D01*
X159453689Y-80969924D02*
X151879924Y-80969924D01*
X152610000Y-58790000D02*
X152590000Y-58770000D01*
X160642908Y-82159143D02*
X159453689Y-80969924D01*
X149370000Y-61990000D02*
X149370000Y-75210000D01*
D23*
%TO.N,Net-(R14-Pad1)*%
X77997229Y-83290000D02*
X77810000Y-83290000D01*
%TD*%
M02*
