M48
; DRILL file {KiCad (6.0.0)} date Sun Jul 31 18:03:21 2022
; FORMAT={-:-/ absolute / inch / decimal}
; #@! TF.CreationDate,2022-07-31T18:03:21+01:00
; #@! TF.GenerationSoftware,Kicad,Pcbnew,(6.0.0)
; #@! TF.FileFunction,Plated,1,2,PTH
FMAT,2
INCH
; #@! TA.AperFunction,Plated,PTH,ComponentDrill
T1C0.0281
; #@! TA.AperFunction,Plated,PTH,ComponentDrill
T2C0.0315
; #@! TA.AperFunction,Plated,PTH,ComponentDrill
T3C0.0472
; #@! TA.AperFunction,Plated,PTH,ComponentDrill
T4C0.0591
; #@! TA.AperFunction,Plated,PTH,ComponentDrill
T5C0.0689
; #@! TA.AperFunction,Plated,PTH,ComponentDrill
T6C0.0750
; #@! TA.AperFunction,Plated,PTH,ComponentDrill
T7C0.0984
%
G90
G05
T1
X3.272Y-3.6089
X3.272Y-3.8089
X3.372Y-3.7089
X4.4933Y-2.9118
X4.5933Y-2.8118
X4.6933Y-2.9118
X5.8354Y-3.7102
X5.9354Y-3.6102
X5.9354Y-3.8102
T2
X3.063Y-3.1693
X3.063Y-3.2677
X3.1685Y-3.0976
X3.1685Y-3.2678
X3.1688Y-2.7571
X3.1688Y-2.9273
X3.1688Y-3.438
X3.1689Y-2.5079
X3.5024Y-3.6117
X3.5024Y-3.8117
X3.5685Y-3.0976
X3.5685Y-3.2678
X3.5688Y-2.7571
X3.5688Y-2.9273
X3.5688Y-3.438
X3.5689Y-2.5079
X3.6024Y-3.7117
X3.9311Y-2.7773
X3.9311Y-3.1773
X4.05Y-2.7773
X4.05Y-3.1773
X4.4232Y-3.3455
X4.5232Y-3.2455
X4.5232Y-3.4455
X4.665Y-3.2471
X4.665Y-3.4471
X4.765Y-3.3471
X5.1319Y-2.7773
X5.1319Y-3.1773
X5.2504Y-2.7773
X5.2504Y-3.1773
X5.6079Y-3.7075
X5.6342Y-2.7647
X5.6342Y-2.933
X5.6342Y-3.1012
X5.6342Y-3.2694
X5.6342Y-3.4377
X5.6343Y-2.5173
X5.7079Y-3.6075
X5.7079Y-3.8075
X6.0342Y-2.7647
X6.0342Y-2.933
X6.0342Y-3.1012
X6.0342Y-3.2694
X6.0342Y-3.4377
X6.0343Y-2.5173
X6.1441Y-3.1705
X6.1441Y-3.2689
T3
X2.9635Y-2.3114
X3.5635Y-2.3114
X4.209Y-2.5496
X4.209Y-3.1496
X4.3742Y-2.5496
X4.3742Y-3.1496
X4.8102Y-2.5496
X4.8102Y-3.1496
X4.9754Y-2.5496
X4.9754Y-3.1496
X5.6347Y-2.3146
X6.2347Y-2.3146
T4
X2.8815Y-2.8055
X2.8815Y-3.02
X2.8815Y-3.2346
X6.3245Y-2.8055
X6.3245Y-3.02
X6.3245Y-3.2346
T5
X4.0545Y-3.308
X4.1948Y-3.3074
T6
X3.6857Y-2.2193
X3.6857Y-2.4163
X3.9617Y-2.2193
X3.9617Y-2.4163
X4.4614Y-2.2231
X4.4614Y-2.4201
X4.7374Y-2.2231
X4.7374Y-2.4201
X5.0368Y-3.504
X5.0368Y-3.701
X5.2381Y-2.2193
X5.2381Y-2.4163
X5.3128Y-3.504
X5.3128Y-3.701
X5.5141Y-2.2193
X5.5141Y-2.4163
T7
X3.8235Y-2.3193
X4.5996Y-2.3201
X5.1746Y-3.604
X5.3758Y-2.3193
T0
M30
