%TF.GenerationSoftware,KiCad,Pcbnew,(6.0.0)*%
%TF.CreationDate,2022-07-31T18:03:17+01:00*%
%TF.ProjectId,PASS LABS F5,50415353-204c-4414-9253-2046352e6b69,rev?*%
%TF.SameCoordinates,Original*%
%TF.FileFunction,Soldermask,Bot*%
%TF.FilePolarity,Negative*%
%FSLAX46Y46*%
G04 Gerber Fmt 4.6, Leading zero omitted, Abs format (unit mm)*
G04 Created by KiCad (PCBNEW (6.0.0)) date 2022-07-31 18:03:17*
%MOMM*%
%LPD*%
G01*
G04 APERTURE LIST*
G04 Aperture macros list*
%AMRoundRect*
0 Rectangle with rounded corners*
0 $1 Rounding radius*
0 $2 $3 $4 $5 $6 $7 $8 $9 X,Y pos of 4 corners*
0 Add a 4 corners polygon primitive as box body*
4,1,4,$2,$3,$4,$5,$6,$7,$8,$9,$2,$3,0*
0 Add four circle primitives for the rounded corners*
1,1,$1+$1,$2,$3*
1,1,$1+$1,$4,$5*
1,1,$1+$1,$6,$7*
1,1,$1+$1,$8,$9*
0 Add four rect primitives between the rounded corners*
20,1,$1+$1,$2,$3,$4,$5,0*
20,1,$1+$1,$4,$5,$6,$7,0*
20,1,$1+$1,$6,$7,$8,$9,0*
20,1,$1+$1,$8,$9,$2,$3,0*%
G04 Aperture macros list end*
%ADD10C,9.000000*%
%ADD11C,4.000000*%
%ADD12R,1.500000X1.500000*%
%ADD13C,1.500000*%
%ADD14C,2.200000*%
%ADD15C,1.600000*%
%ADD16O,1.600000X1.600000*%
%ADD17RoundRect,0.250000X-1.125000X-1.125000X1.125000X-1.125000X1.125000X1.125000X-1.125000X1.125000X0*%
%ADD18C,2.400000*%
%ADD19O,2.400000X2.400000*%
%ADD20R,1.222000X1.222000*%
%ADD21C,1.222000*%
%ADD22R,4.500000X2.500000*%
%ADD23O,4.500000X2.500000*%
G04 APERTURE END LIST*
D10*
%TO.C,J5*%
X131434800Y-91541100D03*
D11*
X134945200Y-89001100D03*
X127934800Y-89001100D03*
X134945200Y-94004900D03*
X127934800Y-94004900D03*
%TD*%
D10*
%TO.C,J1*%
X97117931Y-58911100D03*
D11*
X100628331Y-61374900D03*
X93617931Y-61374900D03*
X93617931Y-56371100D03*
X100628331Y-56371100D03*
%TD*%
D12*
%TO.C,Q4*%
X144980000Y-96710000D03*
D13*
X142440000Y-94170000D03*
X144980000Y-91630000D03*
%TD*%
D14*
%TO.C,REF\u002A\u002A*%
X74620000Y-94370000D03*
%TD*%
D15*
%TO.C,R4*%
X130350000Y-70544167D03*
D16*
X130350000Y-80704167D03*
%TD*%
D17*
%TO.C,GND*%
X106546816Y-84008923D03*
%TD*%
D15*
%TO.C,R3*%
X90640000Y-78677992D03*
D16*
X80480000Y-78677992D03*
%TD*%
D18*
%TO.C,R10*%
X122179752Y-64760000D03*
D19*
X122179752Y-80000000D03*
%TD*%
D15*
%TO.C,R1*%
X102870000Y-80704167D03*
D16*
X102870000Y-70544167D03*
%TD*%
D18*
%TO.C,R21*%
X90513432Y-58710000D03*
D19*
X75273432Y-58710000D03*
%TD*%
D15*
%TO.C,TH1*%
X156060000Y-83030000D03*
X156060000Y-80530000D03*
%TD*%
D18*
%TO.C,R22*%
X158362097Y-58790000D03*
D19*
X143122097Y-58790000D03*
%TD*%
D20*
%TO.C,P1*%
X114130000Y-73960000D03*
D21*
X116670000Y-71420000D03*
X119210000Y-73960000D03*
%TD*%
D12*
%TO.C,Q2*%
X118490000Y-82475205D03*
D13*
X121030000Y-85015205D03*
X118490000Y-87555205D03*
%TD*%
D15*
%TO.C,R16*%
X153270000Y-63940000D03*
D16*
X143110000Y-63940000D03*
%TD*%
D15*
%TO.C,R5*%
X133360000Y-80704167D03*
D16*
X133360000Y-70544167D03*
%TD*%
D12*
%TO.C,Q3*%
X88960000Y-91736439D03*
D13*
X91500000Y-94276439D03*
X88960000Y-96816439D03*
%TD*%
D18*
%TO.C,R8*%
X106907820Y-64760000D03*
D19*
X106907820Y-80000000D03*
%TD*%
D15*
%TO.C,R14*%
X80480000Y-83001463D03*
D16*
X90640000Y-83001463D03*
%TD*%
D15*
%TO.C,R2*%
X99850000Y-80704167D03*
D16*
X99850000Y-70544167D03*
%TD*%
D20*
%TO.C,P2*%
X83110000Y-91666439D03*
D21*
X85650000Y-94206439D03*
X83110000Y-96746439D03*
%TD*%
D22*
%TO.C,Q6*%
X160642908Y-71259143D03*
D23*
X160642908Y-76709143D03*
X160642908Y-82159143D03*
%TD*%
D22*
%TO.C,Q5*%
X73190000Y-82159143D03*
D23*
X73190000Y-76709143D03*
X73190000Y-71259143D03*
%TD*%
D17*
%TO.C,IN*%
X102984332Y-84022966D03*
%TD*%
D18*
%TO.C,R9*%
X126375833Y-64760000D03*
D19*
X126375833Y-80000000D03*
%TD*%
D15*
%TO.C,R6*%
X143107426Y-87317357D03*
D16*
X153267426Y-87317357D03*
%TD*%
D15*
%TO.C,R12*%
X143107426Y-70223471D03*
D16*
X153267426Y-70223471D03*
%TD*%
D11*
%TO.C,J3*%
X113319600Y-56466200D03*
X120330000Y-56466200D03*
X113319600Y-61470000D03*
X120330000Y-61470000D03*
D10*
X116830000Y-58930000D03*
%TD*%
D15*
%TO.C,R19*%
X80488607Y-70031050D03*
D16*
X90648607Y-70031050D03*
%TD*%
D14*
%TO.C,REF\u002A\u002A*%
X159300000Y-94370000D03*
%TD*%
D15*
%TO.C,R13*%
X90648607Y-74354521D03*
D16*
X80488607Y-74354521D03*
%TD*%
D15*
%TO.C,R11*%
X90651233Y-63700000D03*
D16*
X80491233Y-63700000D03*
%TD*%
D15*
%TO.C,TH2*%
X77800000Y-83000000D03*
X77800000Y-80500000D03*
%TD*%
%TO.C,R15*%
X153267426Y-83043884D03*
D16*
X143107426Y-83043884D03*
%TD*%
D12*
%TO.C,Q1*%
X114890000Y-87515205D03*
D13*
X112350000Y-84975205D03*
X114890000Y-82435205D03*
%TD*%
D11*
%TO.C,J2*%
X133046470Y-56371100D03*
X133046470Y-61374900D03*
D10*
X136546470Y-58911100D03*
D11*
X140056870Y-56371100D03*
X140056870Y-61374900D03*
%TD*%
D15*
%TO.C,R20*%
X143107426Y-74496942D03*
D16*
X153267426Y-74496942D03*
%TD*%
D14*
%TO.C,REF\u002A\u002A*%
X106973965Y-58960000D03*
%TD*%
D15*
%TO.C,R17*%
X153267426Y-78770413D03*
D16*
X143107426Y-78770413D03*
%TD*%
D14*
%TO.C,REF\u002A\u002A*%
X126688235Y-58960000D03*
%TD*%
D20*
%TO.C,P3*%
X150760000Y-96780000D03*
D21*
X148220000Y-94240000D03*
X150760000Y-91700000D03*
%TD*%
D18*
%TO.C,R7*%
X111103902Y-64760000D03*
D19*
X111103902Y-80000000D03*
%TD*%
D15*
%TO.C,R18*%
X80488607Y-87324936D03*
D16*
X90648607Y-87324936D03*
%TD*%
M02*
