M48
; DRILL file {KiCad (6.0.0)} date Wed Aug  3 23:08:08 2022
; FORMAT={-:-/ absolute / inch / decimal}
; #@! TF.CreationDate,2022-08-03T23:08:08+01:00
; #@! TF.GenerationSoftware,Kicad,Pcbnew,(6.0.0)
; #@! TF.FileFunction,Plated,1,2,PTH
FMAT,2
INCH
; #@! TA.AperFunction,Plated,PTH,ComponentDrill
T1C0.0315
; #@! TA.AperFunction,Plated,PTH,ComponentDrill
T2C0.0394
; #@! TA.AperFunction,Plated,PTH,ComponentDrill
T3C0.0433
; #@! TA.AperFunction,Plated,PTH,ComponentDrill
T4C0.0472
; #@! TA.AperFunction,Plated,PTH,ComponentDrill
T5C0.0512
; #@! TA.AperFunction,Plated,PTH,ComponentDrill
T6C0.0551
; #@! TA.AperFunction,Plated,PTH,ComponentDrill
T7C0.0787
; #@! TA.AperFunction,Plated,PTH,ComponentDrill
T8C0.1260
%
G90
G05
T1
X0.376Y-4.5921
X0.376Y-5.0921
X0.7776Y-4.5921
X0.7776Y-5.0921
X1.8213Y-4.7228
X2.3213Y-4.7228
X2.4563Y-4.7228
X2.9563Y-4.7228
X3.2482Y-3.9242
X3.2482Y-4.1242
X3.2553Y-5.3138
X3.2553Y-5.5138
X3.7482Y-3.9242
X3.7482Y-4.1242
X3.7553Y-5.3138
X3.7553Y-5.5138
X4.3746Y-3.6906
X4.3746Y-4.1906
X4.3766Y-5.2611
X4.3766Y-5.7611
X4.6237Y-3.6906
X4.6237Y-4.1906
X4.8725Y-3.6906
X4.8725Y-4.1906
X5.1216Y-3.6906
X5.1216Y-4.1906
X5.1239Y-5.2611
X5.1239Y-5.7611
X8.0642Y-3.7528
X8.0642Y-3.9531
X8.0642Y-4.1534
X8.0642Y-4.3537
X8.5642Y-3.7528
X8.5642Y-3.9531
X8.5642Y-4.1534
X8.5642Y-4.3537
T2
X1.9946Y-3.8242
X1.9946Y-4.0242
X1.9946Y-4.2242
X1.9946Y-5.2138
X1.9946Y-5.4138
X1.9946Y-5.6138
X2.1946Y-3.7242
X2.1946Y-4.3242
X2.1946Y-5.1138
X2.1946Y-5.7138
X2.3946Y-3.7242
X2.3946Y-5.1138
X2.5946Y-3.8242
X2.5946Y-4.0242
X2.5946Y-4.2242
X2.5946Y-5.2138
X2.5946Y-5.4138
X2.5946Y-5.6138
X4.4481Y-4.5516
X4.4481Y-4.7516
X4.4481Y-4.9516
X4.6481Y-5.0516
X4.8481Y-4.4516
X4.8481Y-5.0516
X5.0481Y-4.5516
X5.0481Y-4.7516
X5.0481Y-4.9516
X11.0863Y-2.6781
X11.0863Y-2.7765
X11.0863Y-3.4793
X11.0863Y-3.5777
T3
X1.3543Y-6.3187
X1.5375Y-6.3175
X1.7264Y-6.3166
X1.9154Y-6.3166
X2.3972Y-6.0331
X2.5862Y-6.0331
X2.7752Y-6.0331
X10.5815Y-5.6295
X10.5815Y-6.0295
X10.5815Y-6.2428
X10.7705Y-6.2428
X10.9594Y-5.6295
X10.9594Y-6.0295
X10.9594Y-6.2428
T4
X1.4056Y-4.814
X1.4056Y-6.014
X1.4072Y-3.4244
X1.4072Y-4.6244
X1.5388Y-2.7343
X2.9864Y-3.5903
X2.9864Y-4.4581
X2.9934Y-4.9799
X2.9934Y-5.8476
X4.01Y-3.5903
X4.01Y-4.4581
X4.0171Y-4.9799
X4.0171Y-5.8476
X4.4916Y-2.7343
X4.7661Y-2.1457
X4.7661Y-3.3457
X6.2748Y-5.0656
X6.2748Y-6.2656
X6.2814Y-2.1803
X6.2814Y-3.2039
X6.5835Y-5.2121
X6.5835Y-5.8957
X6.8023Y-2.1803
X6.8023Y-3.2039
X7.3231Y-2.1803
X7.3231Y-3.2039
X7.844Y-2.1803
X7.844Y-3.2039
X8.3649Y-2.1803
X8.3649Y-3.2039
X8.4732Y-5.2121
X8.4732Y-5.8957
X9.0698Y-5.8
X9.1713Y-2.1831
X9.1713Y-3.9548
X10.168Y-2.1803
X10.168Y-3.9519
X10.2698Y-5.8
T5
X0.3793Y-3.9467
X0.3793Y-4.1435
X0.3793Y-4.3404
X0.773Y-3.9467
X0.773Y-4.1435
X0.773Y-4.3404
T6
X6.5413Y-3.3642
X6.5413Y-4.7422
X7.4886Y-3.3642
X7.4886Y-4.7422
X9.1755Y-4.1229
X9.1755Y-5.5008
X10.172Y-4.1229
X10.172Y-5.5008
T7
X11.2871Y-2.5777
X11.2871Y-2.9754
X11.2871Y-3.3789
X11.2871Y-3.7765
T8
X0.7677Y-2.4851
X0.7961Y-5.8091
X5.6634Y-2.2556
X5.6768Y-6.0026
X11.2807Y-2.2556
X11.2941Y-6.0026
T0
M30
