M48
; DRILL file {KiCad (6.0.0)} date Tue Jul 19 20:58:09 2022
; FORMAT={-:-/ absolute / inch / decimal}
; #@! TF.CreationDate,2022-07-19T20:58:09+01:00
; #@! TF.GenerationSoftware,Kicad,Pcbnew,(6.0.0)
; #@! TF.FileFunction,Plated,1,2,PTH
FMAT,2
INCH
; #@! TA.AperFunction,Plated,PTH,ComponentDrill
T1C0.0315
; #@! TA.AperFunction,Plated,PTH,ComponentDrill
T2C0.0394
; #@! TA.AperFunction,Plated,PTH,ComponentDrill
T3C0.0433
; #@! TA.AperFunction,Plated,PTH,ComponentDrill
T4C0.0472
; #@! TA.AperFunction,Plated,PTH,ComponentDrill
T5C0.0512
; #@! TA.AperFunction,Plated,PTH,ComponentDrill
T6C0.1063
%
G90
G05
T1
X3.998Y-5.1941
X3.998Y-5.3909
X4.0974Y-4.3435
X4.6974Y-4.3435
X5.0628Y-4.3852
X5.0628Y-4.9852
X5.1808Y-5.5949
X5.1808Y-6.1949
X5.2619Y-4.5856
X5.2619Y-4.6856
X5.2619Y-4.7856
X6.4419Y-4.745
X6.6388Y-4.745
T2
X4.5864Y-5.2138
X4.6129Y-5.2925
X4.8097Y-5.2925
X4.8362Y-5.3713
X5.0566Y-5.2113
X5.0831Y-5.2901
X5.28Y-5.2901
X5.3064Y-5.3688
X6.4774Y-5.7803
X6.5561Y-5.557
X6.5561Y-5.7538
X6.6348Y-5.5305
T3
X2.8587Y-4.7402
X2.8587Y-4.9006
X2.8587Y-5.6844
X2.8587Y-5.8449
X3.0587Y-4.7402
X3.0587Y-4.9006
X3.0587Y-5.6844
X3.0587Y-5.8449
X4.2126Y-5.1925
X4.2126Y-5.2925
X4.2126Y-5.3925
X5.6272Y-4.7546
X5.6272Y-5.6546
X5.7308Y-4.7546
X5.7308Y-5.6546
X6.1159Y-4.7546
X6.1159Y-5.6546
X6.2272Y-4.7546
X6.2272Y-5.6546
T4
X3.3789Y-4.5989
X3.3789Y-5.2913
X3.3789Y-5.9838
X3.6742Y-4.5989
X3.6742Y-5.2913
X3.6742Y-5.9838
T5
X2.9331Y-5.1941
X2.9331Y-5.3909
X6.5531Y-5.0442
X6.5531Y-5.241
T6
X4.3974Y-4.7925
X4.3974Y-5.7925
T0
M30
