%TF.GenerationSoftware,KiCad,Pcbnew,(6.0.0)*%
%TF.CreationDate,2022-07-19T20:58:04+01:00*%
%TF.ProjectId,M filament Heater,4d206669-6c61-46d6-956e-742048656174,rev?*%
%TF.SameCoordinates,Original*%
%TF.FileFunction,Copper,L1,Top*%
%TF.FilePolarity,Positive*%
%FSLAX46Y46*%
G04 Gerber Fmt 4.6, Leading zero omitted, Abs format (unit mm)*
G04 Created by KiCad (PCBNEW (6.0.0)) date 2022-07-19 20:58:04*
%MOMM*%
%LPD*%
G01*
G04 APERTURE LIST*
%TA.AperFunction,ComponentPad*%
%ADD10C,1.600000*%
%TD*%
%TA.AperFunction,ComponentPad*%
%ADD11R,2.000000X2.000000*%
%TD*%
%TA.AperFunction,ComponentPad*%
%ADD12C,2.000000*%
%TD*%
%TA.AperFunction,ComponentPad*%
%ADD13R,2.400000X2.400000*%
%TD*%
%TA.AperFunction,ComponentPad*%
%ADD14C,2.400000*%
%TD*%
%TA.AperFunction,ComponentPad*%
%ADD15O,2.000000X2.000000*%
%TD*%
%TA.AperFunction,ComponentPad*%
%ADD16R,2.500000X2.500000*%
%TD*%
%TA.AperFunction,ComponentPad*%
%ADD17C,2.500000*%
%TD*%
%TA.AperFunction,ComponentPad*%
%ADD18O,1.600000X1.600000*%
%TD*%
%TA.AperFunction,ComponentPad*%
%ADD19R,2.000000X1.905000*%
%TD*%
%TA.AperFunction,ComponentPad*%
%ADD20O,2.000000X1.905000*%
%TD*%
%TA.AperFunction,ComponentPad*%
%ADD21C,4.500000*%
%TD*%
%TA.AperFunction,ComponentPad*%
%ADD22C,1.440000*%
%TD*%
%TA.AperFunction,ComponentPad*%
%ADD23R,3.000000X3.000000*%
%TD*%
%TA.AperFunction,ComponentPad*%
%ADD24C,3.000000*%
%TD*%
%TA.AperFunction,Conductor*%
%ADD25C,2.000000*%
%TD*%
%TA.AperFunction,Conductor*%
%ADD26C,2.500000*%
%TD*%
%TA.AperFunction,Conductor*%
%ADD27C,3.000000*%
%TD*%
%TA.AperFunction,Conductor*%
%ADD28C,5.000000*%
%TD*%
G04 APERTURE END LIST*
D10*
%TO.P,C8,1*%
%TO.N,Net-(C7-Pad1)*%
X163625000Y-120522500D03*
%TO.P,C8,2*%
%TO.N,Net-(C7-Pad2)*%
X168625000Y-120522500D03*
%TD*%
D11*
%TO.P,C6,1*%
%TO.N,Net-(C6-Pad1)*%
X116495179Y-132430000D03*
X117167323Y-134430000D03*
D12*
%TO.P,C6,2*%
%TO.N,GND*%
X122167323Y-134430000D03*
X122839467Y-136430000D03*
%TD*%
D13*
%TO.P,C1,1*%
%TO.N,Net-(C1-Pad1)*%
X93325000Y-151987500D03*
D14*
%TO.P,C1,2*%
%TO.N,GND*%
X85825000Y-151987500D03*
%TD*%
D11*
%TO.P,D4,1,K*%
%TO.N,Net-(D2-Pad2)*%
X72610000Y-120400000D03*
D15*
%TO.P,D4,2,A*%
%TO.N,GND*%
X77690000Y-120400000D03*
%TD*%
D16*
%TO.P,J2,1,Pin_1*%
%TO.N,Net-(C7-Pad2)*%
X166450000Y-133122500D03*
D17*
%TO.P,J2,2,Pin_2*%
%TO.N,Net-(C7-Pad1)*%
X166450000Y-128122500D03*
%TD*%
D13*
%TO.P,C2,1*%
%TO.N,Net-(C1-Pad1)*%
X93325000Y-116812500D03*
D14*
%TO.P,C2,2*%
%TO.N,GND*%
X85825000Y-116812500D03*
%TD*%
D11*
%TO.P,D2,1,K*%
%TO.N,Net-(C1-Pad1)*%
X77690000Y-124475000D03*
D15*
%TO.P,D2,2,A*%
%TO.N,Net-(D2-Pad2)*%
X72610000Y-124475000D03*
%TD*%
D10*
%TO.P,R3,1*%
%TO.N,Net-(C6-Pad1)*%
X131593445Y-157350000D03*
D18*
%TO.P,R3,2*%
%TO.N,Net-(C5-Pad1)*%
X131593445Y-142110000D03*
%TD*%
D10*
%TO.P,R2,1*%
%TO.N,Net-(C5-Pad1)*%
X128595168Y-126625000D03*
D18*
%TO.P,R2,2*%
%TO.N,Net-(R2-Pad2)*%
X128595168Y-111385000D03*
%TD*%
D19*
%TO.P,U1,1,ADJ*%
%TO.N,Net-(C5-Pad1)*%
X107000000Y-131890000D03*
D20*
%TO.P,U1,2,VO*%
%TO.N,Net-(C6-Pad1)*%
X107000000Y-134430000D03*
%TO.P,U1,3,VI*%
%TO.N,Net-(C1-Pad1)*%
X107000000Y-136970000D03*
%TD*%
D11*
%TO.P,D3,1,K*%
%TO.N,Net-(D1-Pad2)*%
X72610000Y-144385000D03*
D15*
%TO.P,D3,2,A*%
%TO.N,GND*%
X77690000Y-144385000D03*
%TD*%
D11*
%TO.P,D1,1,K*%
%TO.N,Net-(C1-Pad1)*%
X77690000Y-148460000D03*
D15*
%TO.P,D1,2,A*%
%TO.N,Net-(D1-Pad2)*%
X72610000Y-148460000D03*
%TD*%
D21*
%TO.P,HS1,1*%
%TO.N,N/C*%
X111695000Y-121730000D03*
X111695000Y-147130000D03*
%TD*%
D22*
%TO.P,RV1,1,1*%
%TO.N,Net-(R2-Pad2)*%
X133651723Y-121555000D03*
%TO.P,RV1,2,2*%
%TO.N,GND*%
X133651723Y-119015000D03*
%TO.P,RV1,3,3*%
X133651723Y-116475000D03*
%TD*%
D13*
%TO.P,C3,1*%
%TO.N,Net-(C1-Pad1)*%
X93325000Y-134400000D03*
D14*
%TO.P,C3,2*%
%TO.N,GND*%
X85825000Y-134400000D03*
%TD*%
D23*
%TO.P,FL1,1,1*%
%TO.N,Net-(C6-Pad1)*%
X142930000Y-120767500D03*
X145562450Y-120767500D03*
D24*
%TO.P,FL1,2,2*%
%TO.N,Net-(C7-Pad1)*%
X155345000Y-120767500D03*
X158170000Y-120767500D03*
%TO.P,FL1,3,3*%
%TO.N,GND*%
X142930000Y-143627500D03*
X145562450Y-143627500D03*
%TO.P,FL1,4,4*%
%TO.N,Net-(C7-Pad2)*%
X155345000Y-143627500D03*
X158170000Y-143627500D03*
%TD*%
D11*
%TO.P,C5,1*%
%TO.N,Net-(C5-Pad1)*%
X129110768Y-134367500D03*
X128438624Y-132367500D03*
D12*
%TO.P,C5,2*%
%TO.N,GND*%
X134782912Y-136367500D03*
X134110768Y-134367500D03*
%TD*%
D10*
%TO.P,C4,1*%
%TO.N,Net-(C1-Pad1)*%
X101550000Y-136930000D03*
%TO.P,C4,2*%
%TO.N,GND*%
X101550000Y-131930000D03*
%TD*%
D11*
%TO.P,C7,1*%
%TO.N,Net-(C7-Pad1)*%
X166525000Y-141147500D03*
X168525000Y-140475356D03*
D12*
%TO.P,C7,2*%
%TO.N,Net-(C7-Pad2)*%
X164525000Y-146819644D03*
X166525000Y-146147500D03*
%TD*%
D16*
%TO.P,~  ~,1,Pin_1*%
%TO.N,Net-(D1-Pad2)*%
X74500000Y-136930000D03*
D17*
%TO.P,~  ~,2,Pin_2*%
%TO.N,Net-(D2-Pad2)*%
X74500000Y-131930000D03*
%TD*%
D10*
%TO.P,R1,1*%
%TO.N,Net-(C1-Pad1)*%
X104075000Y-110325000D03*
D18*
%TO.P,R1,2*%
%TO.N,GND*%
X119315000Y-110325000D03*
%TD*%
D25*
%TO.N,Net-(C5-Pad1)*%
X124483624Y-128412500D02*
X128438624Y-132367500D01*
X122162500Y-128412500D02*
X121475000Y-127725000D01*
X122162500Y-128412500D02*
X124483624Y-128412500D01*
X129003366Y-135253366D02*
X122162500Y-128412500D01*
X121475000Y-127725000D02*
X109125000Y-127725000D01*
X129996634Y-135253366D02*
X129003366Y-135253366D01*
X126300000Y-127725000D02*
X121475000Y-127725000D01*
D26*
%TO.N,Net-(C6-Pad1)*%
X107000000Y-134430000D02*
X117167323Y-134430000D01*
D25*
%TO.N,Net-(C5-Pad1)*%
X107000000Y-130425000D02*
X110800000Y-126625000D01*
X107000000Y-131890000D02*
X107000000Y-130425000D01*
X110800000Y-126625000D02*
X125200000Y-126625000D01*
X108100000Y-126625000D02*
X110800000Y-126625000D01*
X107000000Y-129850000D02*
X109125000Y-127725000D01*
X107000000Y-131890000D02*
X107000000Y-129850000D01*
X109125000Y-127725000D02*
X107000000Y-127725000D01*
D27*
%TO.N,Net-(C1-Pad1)*%
X104075000Y-110325000D02*
X95275000Y-110325000D01*
X95275000Y-110325000D02*
X93325000Y-112275000D01*
X93325000Y-112275000D02*
X93325000Y-116842500D01*
D25*
%TO.N,Net-(C5-Pad1)*%
X129110768Y-139627324D02*
X131593445Y-142110000D01*
X125200000Y-126625000D02*
X128595168Y-126625000D01*
X131593445Y-129623277D02*
X130035084Y-128064916D01*
X131593445Y-136850177D02*
X129996634Y-135253366D01*
X131593445Y-142110000D02*
X131593445Y-136850177D01*
X131593445Y-142110000D02*
X131593445Y-129623277D01*
X127050000Y-128475000D02*
X126300000Y-127725000D01*
X130525000Y-135781732D02*
X130525000Y-139700000D01*
X130525000Y-139700000D02*
X129854222Y-140370778D01*
X127050000Y-128475000D02*
X125200000Y-126625000D01*
X128595168Y-126625000D02*
X128595168Y-133851900D01*
X129110768Y-134367500D02*
X129110768Y-139627324D01*
X129996634Y-135253366D02*
X129110768Y-134367500D01*
X130035084Y-128064916D02*
X130035084Y-135214916D01*
X107000000Y-131890000D02*
X107000000Y-127725000D01*
X128438624Y-129863624D02*
X127050000Y-128475000D01*
X128438624Y-132367500D02*
X128438624Y-129863624D01*
X129110768Y-134367500D02*
X130525000Y-135781732D01*
X128595168Y-133851900D02*
X129110768Y-134367500D01*
X130035084Y-135214916D02*
X129996634Y-135253366D01*
X107000000Y-127725000D02*
X108100000Y-126625000D01*
X130035084Y-128064916D02*
X128595168Y-126625000D01*
D28*
%TO.N,Net-(C6-Pad1)*%
X134525000Y-154875000D02*
X137000000Y-157350000D01*
X142930000Y-135405000D02*
X144025000Y-136500000D01*
X145562450Y-120767500D02*
X145562450Y-134962550D01*
X131593445Y-152181555D02*
X131593445Y-149656555D01*
D25*
X116495179Y-132430000D02*
X116495179Y-133757856D01*
D28*
X125250000Y-141625000D02*
X118900000Y-141625000D01*
X134525000Y-146725000D02*
X134525000Y-154875000D01*
X116495179Y-139220179D02*
X116495179Y-132430000D01*
X131593445Y-157350000D02*
X131593445Y-152181555D01*
X127175000Y-157350000D02*
X126925000Y-157100000D01*
X127150000Y-143525000D02*
X125250000Y-141625000D01*
X131593445Y-149656555D02*
X137650000Y-143600000D01*
X139475000Y-139875000D02*
X131593445Y-147756555D01*
X140082500Y-120767500D02*
X139475000Y-121375000D01*
X142930000Y-120767500D02*
X140082500Y-120767500D01*
X126925000Y-157100000D02*
X126925000Y-143750000D01*
X131593445Y-157350000D02*
X137000000Y-157350000D01*
X131593445Y-147968445D02*
X127150000Y-143525000D01*
X131593445Y-147756555D02*
X131593445Y-147968445D01*
X144025000Y-136500000D02*
X137650000Y-142875000D01*
D25*
X116495179Y-133757856D02*
X117167323Y-134430000D01*
D28*
X135425000Y-145825000D02*
X134525000Y-146725000D01*
X144025000Y-136500000D02*
X140650000Y-139875000D01*
X145562450Y-120767500D02*
X142930000Y-120767500D01*
X139475000Y-121375000D02*
X139475000Y-139875000D01*
X137650000Y-156700000D02*
X137650000Y-143600000D01*
X140650000Y-139875000D02*
X139475000Y-139875000D01*
X126925000Y-143750000D02*
X129000000Y-145825000D01*
X131593445Y-157350000D02*
X127175000Y-157350000D01*
X142930000Y-120767500D02*
X142930000Y-135405000D01*
X145562450Y-134962550D02*
X144025000Y-136500000D01*
X131593445Y-152181555D02*
X131593445Y-147968445D01*
X137650000Y-141700000D02*
X137650000Y-143600000D01*
X137650000Y-142875000D02*
X137650000Y-143600000D01*
X129000000Y-145825000D02*
X135425000Y-145825000D01*
X126925000Y-143750000D02*
X127150000Y-143525000D01*
X139475000Y-139875000D02*
X137650000Y-141700000D01*
X137000000Y-157350000D02*
X137650000Y-156700000D01*
X118900000Y-141625000D02*
X116495179Y-139220179D01*
D27*
%TO.N,Net-(R2-Pad2)*%
X133651723Y-121555000D02*
X130780000Y-121555000D01*
X128595168Y-119370168D02*
X128595168Y-111385000D01*
X130780000Y-121555000D02*
X128595168Y-119370168D01*
%TD*%
%TA.AperFunction,Conductor*%
%TO.N,Net-(C6-Pad1)*%
G36*
X118640931Y-129945002D02*
G01*
X118661905Y-129961905D01*
X119588095Y-130888095D01*
X119622121Y-130950407D01*
X119625000Y-130977190D01*
X119625000Y-143047810D01*
X119604998Y-143115931D01*
X119588095Y-143136905D01*
X118661905Y-144063095D01*
X118599593Y-144097121D01*
X118572810Y-144100000D01*
X110152190Y-144100000D01*
X110084069Y-144079998D01*
X110063095Y-144063095D01*
X109136905Y-143136905D01*
X109102879Y-143074593D01*
X109100000Y-143047810D01*
X109100000Y-130977190D01*
X109120002Y-130909069D01*
X109136905Y-130888095D01*
X110063095Y-129961905D01*
X110125407Y-129927879D01*
X110152190Y-129925000D01*
X118572810Y-129925000D01*
X118640931Y-129945002D01*
G37*
%TD.AperFunction*%
%TD*%
%TA.AperFunction,Conductor*%
%TO.N,Net-(C7-Pad2)*%
G36*
X170990931Y-114746646D02*
G01*
X171011905Y-114763549D01*
X171938095Y-115689739D01*
X171972121Y-115752051D01*
X171975000Y-115778834D01*
X171975000Y-149649454D01*
X171954998Y-149717575D01*
X171938095Y-149738549D01*
X171011905Y-150664739D01*
X170949593Y-150698765D01*
X170922810Y-150701644D01*
X153352190Y-150701644D01*
X153284069Y-150681642D01*
X153263095Y-150664739D01*
X152336905Y-149738549D01*
X152302879Y-149676237D01*
X152300000Y-149649454D01*
X152300000Y-142195634D01*
X165016500Y-142195634D01*
X165023255Y-142257816D01*
X165074385Y-142394205D01*
X165161739Y-142510761D01*
X165278295Y-142598115D01*
X165414684Y-142649245D01*
X165476866Y-142656000D01*
X167573134Y-142656000D01*
X167635316Y-142649245D01*
X167771705Y-142598115D01*
X167888261Y-142510761D01*
X167975615Y-142394205D01*
X168026745Y-142257816D01*
X168033500Y-142195634D01*
X168033500Y-142109856D01*
X168053502Y-142041735D01*
X168107158Y-141995242D01*
X168159500Y-141983856D01*
X169573134Y-141983856D01*
X169635316Y-141977101D01*
X169771705Y-141925971D01*
X169888261Y-141838617D01*
X169975615Y-141722061D01*
X170026745Y-141585672D01*
X170033500Y-141523490D01*
X170033500Y-139427222D01*
X170026745Y-139365040D01*
X169975615Y-139228651D01*
X169888261Y-139112095D01*
X169771705Y-139024741D01*
X169635316Y-138973611D01*
X169573134Y-138966856D01*
X167476866Y-138966856D01*
X167414684Y-138973611D01*
X167278295Y-139024741D01*
X167161739Y-139112095D01*
X167074385Y-139228651D01*
X167023255Y-139365040D01*
X167016500Y-139427222D01*
X167016500Y-139513000D01*
X166996498Y-139581121D01*
X166942842Y-139627614D01*
X166890500Y-139639000D01*
X165476866Y-139639000D01*
X165414684Y-139645755D01*
X165278295Y-139696885D01*
X165161739Y-139784239D01*
X165074385Y-139900795D01*
X165023255Y-140037184D01*
X165016500Y-140099366D01*
X165016500Y-142195634D01*
X152300000Y-142195634D01*
X152300000Y-128076339D01*
X164687173Y-128076339D01*
X164699713Y-128337408D01*
X164750704Y-128593756D01*
X164839026Y-128839752D01*
X164841242Y-128843876D01*
X164905753Y-128963937D01*
X164962737Y-129069991D01*
X164965532Y-129073734D01*
X164965534Y-129073737D01*
X165116330Y-129275677D01*
X165116335Y-129275683D01*
X165119122Y-129279415D01*
X165122431Y-129282695D01*
X165122436Y-129282701D01*
X165301426Y-129460135D01*
X165304743Y-129463423D01*
X165308505Y-129466181D01*
X165308508Y-129466184D01*
X165511750Y-129615207D01*
X165515524Y-129617974D01*
X165519667Y-129620154D01*
X165519669Y-129620155D01*
X165742684Y-129737489D01*
X165742689Y-129737491D01*
X165746834Y-129739672D01*
X165993590Y-129825844D01*
X165998183Y-129826716D01*
X166245785Y-129873724D01*
X166245788Y-129873724D01*
X166250374Y-129874595D01*
X166380958Y-129879726D01*
X166506875Y-129884674D01*
X166506881Y-129884674D01*
X166511543Y-129884857D01*
X166590977Y-129876157D01*
X166766707Y-129856912D01*
X166766712Y-129856911D01*
X166771360Y-129856402D01*
X166884116Y-129826716D01*
X167019594Y-129791048D01*
X167019596Y-129791047D01*
X167024117Y-129789857D01*
X167264262Y-129686682D01*
X167486519Y-129549146D01*
X167490082Y-129546129D01*
X167490087Y-129546126D01*
X167682439Y-129383287D01*
X167682440Y-129383286D01*
X167686005Y-129380268D01*
X167777729Y-129275677D01*
X167855257Y-129187274D01*
X167855261Y-129187269D01*
X167858339Y-129183759D01*
X167999733Y-128963937D01*
X168107083Y-128725629D01*
X168178030Y-128474072D01*
X168194832Y-128341996D01*
X168210616Y-128217921D01*
X168210616Y-128217917D01*
X168211014Y-128214791D01*
X168213431Y-128122500D01*
X168194061Y-127861848D01*
X168182725Y-127811748D01*
X168137408Y-127611480D01*
X168136377Y-127606923D01*
X168041647Y-127363323D01*
X167911951Y-127136402D01*
X167750138Y-126931143D01*
X167559763Y-126752057D01*
X167345009Y-126603076D01*
X167340816Y-126601008D01*
X167114781Y-126489540D01*
X167114778Y-126489539D01*
X167110593Y-126487475D01*
X167064449Y-126472704D01*
X166866123Y-126409220D01*
X166861665Y-126407793D01*
X166603693Y-126365779D01*
X166489942Y-126364290D01*
X166347022Y-126362419D01*
X166347019Y-126362419D01*
X166342345Y-126362358D01*
X166083362Y-126397604D01*
X165832433Y-126470743D01*
X165828180Y-126472703D01*
X165828179Y-126472704D01*
X165791659Y-126489540D01*
X165595072Y-126580168D01*
X165556067Y-126605741D01*
X165380404Y-126720910D01*
X165380399Y-126720914D01*
X165376491Y-126723476D01*
X165181494Y-126897518D01*
X165014363Y-127098470D01*
X164878771Y-127321919D01*
X164777697Y-127562955D01*
X164713359Y-127816283D01*
X164687173Y-128076339D01*
X152300000Y-128076339D01*
X152300000Y-120746418D01*
X153331917Y-120746418D01*
X153347682Y-121019820D01*
X153348507Y-121024025D01*
X153348508Y-121024033D01*
X153359127Y-121078157D01*
X153400405Y-121288553D01*
X153401792Y-121292603D01*
X153401793Y-121292608D01*
X153427195Y-121366800D01*
X153489112Y-121547644D01*
X153491039Y-121551475D01*
X153595014Y-121758207D01*
X153612160Y-121792299D01*
X153614586Y-121795828D01*
X153614589Y-121795834D01*
X153764843Y-122014453D01*
X153767274Y-122017990D01*
X153951582Y-122220543D01*
X154161675Y-122396207D01*
X154165316Y-122398491D01*
X154390024Y-122539451D01*
X154390028Y-122539453D01*
X154393664Y-122541734D01*
X154461544Y-122572383D01*
X154639345Y-122652664D01*
X154639349Y-122652666D01*
X154643257Y-122654430D01*
X154647377Y-122655650D01*
X154647376Y-122655650D01*
X154901723Y-122730991D01*
X154901727Y-122730992D01*
X154905836Y-122732209D01*
X154910070Y-122732857D01*
X154910075Y-122732858D01*
X155172298Y-122772983D01*
X155172300Y-122772983D01*
X155176540Y-122773632D01*
X155315912Y-122775822D01*
X155446071Y-122777867D01*
X155446077Y-122777867D01*
X155450362Y-122777934D01*
X155722235Y-122745034D01*
X155987127Y-122675541D01*
X155991087Y-122673901D01*
X155991092Y-122673899D01*
X156113632Y-122623141D01*
X156240136Y-122570741D01*
X156476582Y-122432573D01*
X156559555Y-122367514D01*
X156681971Y-122271528D01*
X156747919Y-122245236D01*
X156817614Y-122258771D01*
X156840539Y-122274019D01*
X156986675Y-122396207D01*
X156990316Y-122398491D01*
X157215024Y-122539451D01*
X157215028Y-122539453D01*
X157218664Y-122541734D01*
X157286544Y-122572383D01*
X157464345Y-122652664D01*
X157464349Y-122652666D01*
X157468257Y-122654430D01*
X157472377Y-122655650D01*
X157472376Y-122655650D01*
X157726723Y-122730991D01*
X157726727Y-122730992D01*
X157730836Y-122732209D01*
X157735070Y-122732857D01*
X157735075Y-122732858D01*
X157997298Y-122772983D01*
X157997300Y-122772983D01*
X158001540Y-122773632D01*
X158140912Y-122775822D01*
X158271071Y-122777867D01*
X158271077Y-122777867D01*
X158275362Y-122777934D01*
X158547235Y-122745034D01*
X158812127Y-122675541D01*
X158816087Y-122673901D01*
X158816092Y-122673899D01*
X158938632Y-122623141D01*
X159065136Y-122570741D01*
X159301582Y-122432573D01*
X159517089Y-122263594D01*
X159534880Y-122245236D01*
X159704686Y-122070009D01*
X159707669Y-122066931D01*
X159710202Y-122063483D01*
X159710206Y-122063478D01*
X159867257Y-121849678D01*
X159869795Y-121846223D01*
X159875607Y-121835519D01*
X159998418Y-121609330D01*
X159998419Y-121609328D01*
X160000468Y-121605554D01*
X160089213Y-121370697D01*
X160095751Y-121353395D01*
X160095752Y-121353391D01*
X160097269Y-121349377D01*
X160136233Y-121179249D01*
X160157449Y-121086617D01*
X160157450Y-121086613D01*
X160158407Y-121082433D01*
X160182751Y-120809661D01*
X160183193Y-120767500D01*
X160181756Y-120746418D01*
X160166491Y-120522500D01*
X162311502Y-120522500D01*
X162331457Y-120750587D01*
X162390716Y-120971743D01*
X162393039Y-120976724D01*
X162393039Y-120976725D01*
X162485151Y-121174262D01*
X162485154Y-121174267D01*
X162487477Y-121179249D01*
X162490634Y-121183757D01*
X162609416Y-121353395D01*
X162618802Y-121366800D01*
X162780700Y-121528698D01*
X162785208Y-121531855D01*
X162785211Y-121531857D01*
X162813229Y-121551475D01*
X162968251Y-121660023D01*
X162973233Y-121662346D01*
X162973238Y-121662349D01*
X163170775Y-121754461D01*
X163175757Y-121756784D01*
X163181065Y-121758206D01*
X163181067Y-121758207D01*
X163391598Y-121814619D01*
X163391600Y-121814619D01*
X163396913Y-121816043D01*
X163625000Y-121835998D01*
X163853087Y-121816043D01*
X163858400Y-121814619D01*
X163858402Y-121814619D01*
X164068933Y-121758207D01*
X164068935Y-121758206D01*
X164074243Y-121756784D01*
X164079225Y-121754461D01*
X164276762Y-121662349D01*
X164276767Y-121662346D01*
X164281749Y-121660023D01*
X164436771Y-121551475D01*
X164464789Y-121531857D01*
X164464792Y-121531855D01*
X164469300Y-121528698D01*
X164631198Y-121366800D01*
X164640585Y-121353395D01*
X164759366Y-121183757D01*
X164762523Y-121179249D01*
X164764846Y-121174267D01*
X164764849Y-121174262D01*
X164856961Y-120976725D01*
X164856961Y-120976724D01*
X164859284Y-120971743D01*
X164918543Y-120750587D01*
X164938498Y-120522500D01*
X164918543Y-120294413D01*
X164859284Y-120073257D01*
X164856961Y-120068275D01*
X164764849Y-119870738D01*
X164764846Y-119870733D01*
X164762523Y-119865751D01*
X164661242Y-119721107D01*
X164634357Y-119682711D01*
X164634355Y-119682708D01*
X164631198Y-119678200D01*
X164469300Y-119516302D01*
X164464792Y-119513145D01*
X164464789Y-119513143D01*
X164386611Y-119458402D01*
X164281749Y-119384977D01*
X164276767Y-119382654D01*
X164276762Y-119382651D01*
X164079225Y-119290539D01*
X164079224Y-119290539D01*
X164074243Y-119288216D01*
X164068935Y-119286794D01*
X164068933Y-119286793D01*
X163858402Y-119230381D01*
X163858400Y-119230381D01*
X163853087Y-119228957D01*
X163625000Y-119209002D01*
X163396913Y-119228957D01*
X163391600Y-119230381D01*
X163391598Y-119230381D01*
X163181067Y-119286793D01*
X163181065Y-119286794D01*
X163175757Y-119288216D01*
X163170776Y-119290539D01*
X163170775Y-119290539D01*
X162973238Y-119382651D01*
X162973233Y-119382654D01*
X162968251Y-119384977D01*
X162863389Y-119458402D01*
X162785211Y-119513143D01*
X162785208Y-119513145D01*
X162780700Y-119516302D01*
X162618802Y-119678200D01*
X162615645Y-119682708D01*
X162615643Y-119682711D01*
X162588758Y-119721107D01*
X162487477Y-119865751D01*
X162485154Y-119870733D01*
X162485151Y-119870738D01*
X162393039Y-120068275D01*
X162390716Y-120073257D01*
X162331457Y-120294413D01*
X162311502Y-120522500D01*
X160166491Y-120522500D01*
X160164859Y-120498555D01*
X160164858Y-120498549D01*
X160164567Y-120494278D01*
X160109032Y-120226112D01*
X160017617Y-119967965D01*
X159892013Y-119724612D01*
X159882040Y-119710421D01*
X159813279Y-119612584D01*
X159734545Y-119500557D01*
X159548125Y-119299945D01*
X159544810Y-119297231D01*
X159544806Y-119297228D01*
X159339523Y-119129206D01*
X159339522Y-119129205D01*
X159336205Y-119126490D01*
X159102704Y-118983401D01*
X159098768Y-118981673D01*
X158855873Y-118875049D01*
X158855869Y-118875048D01*
X158851945Y-118873325D01*
X158588566Y-118798300D01*
X158584324Y-118797696D01*
X158584318Y-118797695D01*
X158383834Y-118769162D01*
X158317443Y-118759713D01*
X158173589Y-118758960D01*
X158047877Y-118758302D01*
X158047871Y-118758302D01*
X158043591Y-118758280D01*
X158039347Y-118758839D01*
X158039343Y-118758839D01*
X157920302Y-118774511D01*
X157772078Y-118794025D01*
X157767938Y-118795158D01*
X157767936Y-118795158D01*
X157695008Y-118815109D01*
X157507928Y-118866288D01*
X157503980Y-118867972D01*
X157259982Y-118972046D01*
X157259978Y-118972048D01*
X157256030Y-118973732D01*
X157236125Y-118985645D01*
X157024725Y-119112164D01*
X157024721Y-119112167D01*
X157021043Y-119114368D01*
X156878013Y-119228957D01*
X156835540Y-119262984D01*
X156769870Y-119289966D01*
X156700038Y-119277161D01*
X156676956Y-119262156D01*
X156612015Y-119209002D01*
X156514523Y-119129205D01*
X156514516Y-119129200D01*
X156511205Y-119126490D01*
X156277704Y-118983401D01*
X156273768Y-118981673D01*
X156030873Y-118875049D01*
X156030869Y-118875048D01*
X156026945Y-118873325D01*
X155763566Y-118798300D01*
X155759324Y-118797696D01*
X155759318Y-118797695D01*
X155558834Y-118769162D01*
X155492443Y-118759713D01*
X155348589Y-118758960D01*
X155222877Y-118758302D01*
X155222871Y-118758302D01*
X155218591Y-118758280D01*
X155214347Y-118758839D01*
X155214343Y-118758839D01*
X155095302Y-118774511D01*
X154947078Y-118794025D01*
X154942938Y-118795158D01*
X154942936Y-118795158D01*
X154870008Y-118815109D01*
X154682928Y-118866288D01*
X154678980Y-118867972D01*
X154434982Y-118972046D01*
X154434978Y-118972048D01*
X154431030Y-118973732D01*
X154411125Y-118985645D01*
X154199725Y-119112164D01*
X154199721Y-119112167D01*
X154196043Y-119114368D01*
X153982318Y-119285594D01*
X153793808Y-119484242D01*
X153634002Y-119706636D01*
X153505857Y-119948661D01*
X153504385Y-119952684D01*
X153504383Y-119952688D01*
X153413214Y-120201817D01*
X153411743Y-120205837D01*
X153353404Y-120473407D01*
X153331917Y-120746418D01*
X152300000Y-120746418D01*
X152300000Y-115778834D01*
X152320002Y-115710713D01*
X152336905Y-115689739D01*
X153263095Y-114763549D01*
X153325407Y-114729523D01*
X153352190Y-114726644D01*
X170922810Y-114726644D01*
X170990931Y-114746646D01*
G37*
%TD.AperFunction*%
%TD*%
%TA.AperFunction,Conductor*%
%TO.N,Net-(C1-Pad1)*%
G36*
X80425000Y-127900000D02*
G01*
X77302190Y-127900000D01*
X77234069Y-127879998D01*
X77213095Y-127863095D01*
X76286905Y-126936905D01*
X76252879Y-126874593D01*
X76250000Y-126847810D01*
X76250000Y-124002190D01*
X76270002Y-123934069D01*
X76286905Y-123913095D01*
X77213095Y-122986905D01*
X77275407Y-122952879D01*
X77302190Y-122950000D01*
X80425000Y-122950000D01*
X80425000Y-127900000D01*
G37*
%TD.AperFunction*%
%TD*%
%TA.AperFunction,Conductor*%
%TO.N,Net-(D1-Pad2)*%
G36*
X77515931Y-134945002D02*
G01*
X77536905Y-134961905D01*
X78463095Y-135888095D01*
X78497121Y-135950407D01*
X78500000Y-135977190D01*
X78500000Y-138497810D01*
X78479998Y-138565931D01*
X78463095Y-138586905D01*
X77536905Y-139513095D01*
X77474593Y-139547121D01*
X77447810Y-139550000D01*
X75475000Y-139550000D01*
X75475000Y-150872810D01*
X75454998Y-150940931D01*
X75438095Y-150961905D01*
X74511905Y-151888095D01*
X74449593Y-151922121D01*
X74422810Y-151925000D01*
X70927190Y-151925000D01*
X70859069Y-151904998D01*
X70838095Y-151888095D01*
X69911905Y-150961905D01*
X69877879Y-150899593D01*
X69875000Y-150872810D01*
X69875000Y-135977190D01*
X69895002Y-135909069D01*
X69911905Y-135888095D01*
X70838095Y-134961905D01*
X70900407Y-134927879D01*
X70927190Y-134925000D01*
X77447810Y-134925000D01*
X77515931Y-134945002D01*
G37*
%TD.AperFunction*%
%TD*%
%TA.AperFunction,Conductor*%
%TO.N,Net-(D2-Pad2)*%
G36*
X74490931Y-117095002D02*
G01*
X74511905Y-117111905D01*
X75438095Y-118038095D01*
X75472121Y-118100407D01*
X75475000Y-118127190D01*
X75475000Y-129250000D01*
X77447810Y-129250000D01*
X77515931Y-129270002D01*
X77536905Y-129286905D01*
X78463095Y-130213095D01*
X78497121Y-130275407D01*
X78500000Y-130302190D01*
X78500000Y-132997810D01*
X78479998Y-133065931D01*
X78463095Y-133086905D01*
X77536905Y-134013095D01*
X77474593Y-134047121D01*
X77447810Y-134050000D01*
X70927190Y-134050000D01*
X70859069Y-134029998D01*
X70838095Y-134013095D01*
X69911905Y-133086905D01*
X69877879Y-133024593D01*
X69875000Y-132997810D01*
X69875000Y-118127190D01*
X69895002Y-118059069D01*
X69911905Y-118038095D01*
X70838095Y-117111905D01*
X70900407Y-117077879D01*
X70927190Y-117075000D01*
X74422810Y-117075000D01*
X74490931Y-117095002D01*
G37*
%TD.AperFunction*%
%TD*%
%TA.AperFunction,Conductor*%
%TO.N,Net-(C1-Pad1)*%
G36*
X97940931Y-108845002D02*
G01*
X97961905Y-108861905D01*
X98888095Y-109788095D01*
X98922121Y-109850407D01*
X98925000Y-109877190D01*
X98925000Y-135975000D01*
X106120956Y-135975000D01*
X106186321Y-135993281D01*
X106195422Y-135998804D01*
X106195426Y-135998806D01*
X106199419Y-136001229D01*
X106440455Y-136102303D01*
X106693783Y-136166641D01*
X106698434Y-136167109D01*
X106698438Y-136167110D01*
X106891308Y-136186531D01*
X106910867Y-136188500D01*
X107736310Y-136188500D01*
X107804431Y-136208502D01*
X107825405Y-136225405D01*
X108538095Y-136938095D01*
X108572121Y-137000407D01*
X108575000Y-137027190D01*
X108575000Y-141322810D01*
X108554998Y-141390931D01*
X108538095Y-141411905D01*
X107611905Y-142338095D01*
X107549593Y-142372121D01*
X107522810Y-142375000D01*
X98700000Y-142375000D01*
X98700000Y-159222810D01*
X98679998Y-159290931D01*
X98663095Y-159311905D01*
X97736905Y-160238095D01*
X97674593Y-160272121D01*
X97647810Y-160275000D01*
X80502190Y-160275000D01*
X80434069Y-160254998D01*
X80413095Y-160238095D01*
X79486905Y-159311905D01*
X79452879Y-159249593D01*
X79450000Y-159222810D01*
X79450000Y-155075000D01*
X76974831Y-152599831D01*
X76947517Y-152558954D01*
X76692236Y-151942651D01*
X84112296Y-151942651D01*
X84124480Y-152196298D01*
X84174021Y-152445357D01*
X84175600Y-152449755D01*
X84175602Y-152449762D01*
X84220022Y-152573480D01*
X84259831Y-152684358D01*
X84380025Y-152908051D01*
X84382820Y-152911794D01*
X84382822Y-152911797D01*
X84529171Y-153107782D01*
X84529176Y-153107788D01*
X84531963Y-153111520D01*
X84535272Y-153114800D01*
X84535277Y-153114806D01*
X84633859Y-153212531D01*
X84712307Y-153290297D01*
X84716069Y-153293055D01*
X84716072Y-153293058D01*
X84821764Y-153370554D01*
X84917094Y-153440453D01*
X84921229Y-153442629D01*
X84921233Y-153442631D01*
X85039289Y-153504743D01*
X85141827Y-153558691D01*
X85381568Y-153642412D01*
X85631050Y-153689778D01*
X85751532Y-153694511D01*
X85880125Y-153699564D01*
X85880130Y-153699564D01*
X85884793Y-153699747D01*
X85983774Y-153688907D01*
X86132569Y-153672612D01*
X86132575Y-153672611D01*
X86137222Y-153672102D01*
X86246680Y-153643284D01*
X86378273Y-153608638D01*
X86382793Y-153607448D01*
X86501353Y-153556511D01*
X86611807Y-153509057D01*
X86611810Y-153509055D01*
X86616110Y-153507208D01*
X86620090Y-153504745D01*
X86620094Y-153504743D01*
X86828064Y-153376047D01*
X86828066Y-153376045D01*
X86832047Y-153373582D01*
X86930428Y-153290297D01*
X87022289Y-153212531D01*
X87022291Y-153212529D01*
X87025862Y-153209506D01*
X87193295Y-153018584D01*
X87330669Y-152805012D01*
X87434967Y-152573480D01*
X87503896Y-152329075D01*
X87535943Y-152077167D01*
X87538291Y-151987500D01*
X87519472Y-151734259D01*
X87463428Y-151486582D01*
X87371391Y-151249909D01*
X87350866Y-151213998D01*
X87247702Y-151033497D01*
X87247700Y-151033495D01*
X87245383Y-151029440D01*
X87088171Y-150830017D01*
X86903209Y-150656023D01*
X86859483Y-150625689D01*
X86698393Y-150513937D01*
X86698390Y-150513935D01*
X86694561Y-150511279D01*
X86690384Y-150509219D01*
X86690377Y-150509215D01*
X86470996Y-150401028D01*
X86470992Y-150401027D01*
X86466810Y-150398964D01*
X86224960Y-150321547D01*
X86220355Y-150320797D01*
X85978935Y-150281480D01*
X85978934Y-150281480D01*
X85974323Y-150280729D01*
X85847365Y-150279067D01*
X85725083Y-150277466D01*
X85725080Y-150277466D01*
X85720406Y-150277405D01*
X85468787Y-150311649D01*
X85224993Y-150382708D01*
X84994380Y-150489022D01*
X84990471Y-150491585D01*
X84785928Y-150625689D01*
X84785923Y-150625693D01*
X84782015Y-150628255D01*
X84592562Y-150797348D01*
X84430183Y-150992587D01*
X84298447Y-151209682D01*
X84200246Y-151443865D01*
X84137738Y-151689990D01*
X84112296Y-151942651D01*
X76692236Y-151942651D01*
X76259591Y-150898155D01*
X76250000Y-150849937D01*
X76250000Y-147977190D01*
X76270002Y-147909069D01*
X76286905Y-147888095D01*
X77213095Y-146961905D01*
X77275407Y-146927879D01*
X77302190Y-146925000D01*
X79450000Y-146925000D01*
X79450000Y-134355151D01*
X84112296Y-134355151D01*
X84124480Y-134608798D01*
X84174021Y-134857857D01*
X84175600Y-134862255D01*
X84175602Y-134862262D01*
X84220022Y-134985980D01*
X84259831Y-135096858D01*
X84380025Y-135320551D01*
X84382820Y-135324294D01*
X84382822Y-135324297D01*
X84529171Y-135520282D01*
X84529176Y-135520288D01*
X84531963Y-135524020D01*
X84535272Y-135527300D01*
X84535277Y-135527306D01*
X84633859Y-135625031D01*
X84712307Y-135702797D01*
X84716069Y-135705555D01*
X84716072Y-135705558D01*
X84749595Y-135730138D01*
X84917094Y-135852953D01*
X84921229Y-135855129D01*
X84921233Y-135855131D01*
X84941202Y-135865637D01*
X85141827Y-135971191D01*
X85381568Y-136054912D01*
X85631050Y-136102278D01*
X85751532Y-136107011D01*
X85880125Y-136112064D01*
X85880130Y-136112064D01*
X85884793Y-136112247D01*
X85983774Y-136101407D01*
X86132569Y-136085112D01*
X86132575Y-136085111D01*
X86137222Y-136084602D01*
X86246680Y-136055784D01*
X86378273Y-136021138D01*
X86382793Y-136019948D01*
X86501353Y-135969011D01*
X86611807Y-135921557D01*
X86611810Y-135921555D01*
X86616110Y-135919708D01*
X86620090Y-135917245D01*
X86620094Y-135917243D01*
X86828064Y-135788547D01*
X86828066Y-135788545D01*
X86832047Y-135786082D01*
X86930428Y-135702797D01*
X87022289Y-135625031D01*
X87022291Y-135625029D01*
X87025862Y-135622006D01*
X87193295Y-135431084D01*
X87330669Y-135217512D01*
X87434967Y-134985980D01*
X87503896Y-134741575D01*
X87535943Y-134489667D01*
X87538291Y-134400000D01*
X87519472Y-134146759D01*
X87490413Y-134018335D01*
X87464459Y-133903639D01*
X87463428Y-133899082D01*
X87383037Y-133692357D01*
X87373084Y-133666762D01*
X87373083Y-133666760D01*
X87371391Y-133662409D01*
X87350866Y-133626498D01*
X87247702Y-133445997D01*
X87247700Y-133445995D01*
X87245383Y-133441940D01*
X87088171Y-133242517D01*
X86925195Y-133089205D01*
X86906610Y-133071722D01*
X86906608Y-133071720D01*
X86903209Y-133068523D01*
X86712463Y-132936198D01*
X86698393Y-132926437D01*
X86698390Y-132926435D01*
X86694561Y-132923779D01*
X86690384Y-132921719D01*
X86690377Y-132921715D01*
X86470996Y-132813528D01*
X86470992Y-132813527D01*
X86466810Y-132811464D01*
X86224960Y-132734047D01*
X86220355Y-132733297D01*
X85978935Y-132693980D01*
X85978934Y-132693980D01*
X85974323Y-132693229D01*
X85847365Y-132691567D01*
X85725083Y-132689966D01*
X85725080Y-132689966D01*
X85720406Y-132689905D01*
X85468787Y-132724149D01*
X85224993Y-132795208D01*
X84994380Y-132901522D01*
X84990471Y-132904085D01*
X84785928Y-133038189D01*
X84785923Y-133038193D01*
X84782015Y-133040755D01*
X84730297Y-133086915D01*
X84617301Y-133187768D01*
X84592562Y-133209848D01*
X84430183Y-133405087D01*
X84298447Y-133622182D01*
X84200246Y-133856365D01*
X84137738Y-134102490D01*
X84112296Y-134355151D01*
X79450000Y-134355151D01*
X79450000Y-116767651D01*
X84112296Y-116767651D01*
X84124480Y-117021298D01*
X84174021Y-117270357D01*
X84175600Y-117274755D01*
X84175602Y-117274762D01*
X84220022Y-117398480D01*
X84259831Y-117509358D01*
X84380025Y-117733051D01*
X84382820Y-117736794D01*
X84382822Y-117736797D01*
X84529171Y-117932782D01*
X84529176Y-117932788D01*
X84531963Y-117936520D01*
X84535272Y-117939800D01*
X84535277Y-117939806D01*
X84633859Y-118037531D01*
X84712307Y-118115297D01*
X84716069Y-118118055D01*
X84716072Y-118118058D01*
X84821764Y-118195554D01*
X84917094Y-118265453D01*
X84921229Y-118267629D01*
X84921233Y-118267631D01*
X85039289Y-118329743D01*
X85141827Y-118383691D01*
X85381568Y-118467412D01*
X85631050Y-118514778D01*
X85751532Y-118519511D01*
X85880125Y-118524564D01*
X85880130Y-118524564D01*
X85884793Y-118524747D01*
X85983774Y-118513907D01*
X86132569Y-118497612D01*
X86132575Y-118497611D01*
X86137222Y-118497102D01*
X86246680Y-118468284D01*
X86378273Y-118433638D01*
X86382793Y-118432448D01*
X86501353Y-118381511D01*
X86611807Y-118334057D01*
X86611810Y-118334055D01*
X86616110Y-118332208D01*
X86620090Y-118329745D01*
X86620094Y-118329743D01*
X86828064Y-118201047D01*
X86828066Y-118201045D01*
X86832047Y-118198582D01*
X86930428Y-118115297D01*
X87022289Y-118037531D01*
X87022291Y-118037529D01*
X87025862Y-118034506D01*
X87193295Y-117843584D01*
X87330669Y-117630012D01*
X87434967Y-117398480D01*
X87503896Y-117154075D01*
X87535943Y-116902167D01*
X87538291Y-116812500D01*
X87519472Y-116559259D01*
X87463428Y-116311582D01*
X87371391Y-116074909D01*
X87350866Y-116038998D01*
X87247702Y-115858497D01*
X87247700Y-115858495D01*
X87245383Y-115854440D01*
X87088171Y-115655017D01*
X86903209Y-115481023D01*
X86859483Y-115450689D01*
X86698393Y-115338937D01*
X86698390Y-115338935D01*
X86694561Y-115336279D01*
X86690384Y-115334219D01*
X86690377Y-115334215D01*
X86470996Y-115226028D01*
X86470992Y-115226027D01*
X86466810Y-115223964D01*
X86224960Y-115146547D01*
X86220355Y-115145797D01*
X85978935Y-115106480D01*
X85978934Y-115106480D01*
X85974323Y-115105729D01*
X85847364Y-115104067D01*
X85725083Y-115102466D01*
X85725080Y-115102466D01*
X85720406Y-115102405D01*
X85468787Y-115136649D01*
X85224993Y-115207708D01*
X84994380Y-115314022D01*
X84990471Y-115316585D01*
X84785928Y-115450689D01*
X84785923Y-115450693D01*
X84782015Y-115453255D01*
X84592562Y-115622348D01*
X84430183Y-115817587D01*
X84298447Y-116034682D01*
X84200246Y-116268865D01*
X84137738Y-116514990D01*
X84112296Y-116767651D01*
X79450000Y-116767651D01*
X79450000Y-109877190D01*
X79470002Y-109809069D01*
X79486905Y-109788095D01*
X80413095Y-108861905D01*
X80475407Y-108827879D01*
X80502190Y-108825000D01*
X97872810Y-108825000D01*
X97940931Y-108845002D01*
G37*
%TD.AperFunction*%
%TD*%
M02*
