%TF.GenerationSoftware,KiCad,Pcbnew,(6.0.0)*%
%TF.CreationDate,2022-08-03T23:17:49+01:00*%
%TF.ProjectId,Tube Headphone project V3,54756265-2048-4656-9164-70686f6e6520,rev?*%
%TF.SameCoordinates,Original*%
%TF.FileFunction,Copper,L1,Top*%
%TF.FilePolarity,Positive*%
%FSLAX46Y46*%
G04 Gerber Fmt 4.6, Leading zero omitted, Abs format (unit mm)*
G04 Created by KiCad (PCBNEW (6.0.0)) date 2022-08-03 23:17:49*
%MOMM*%
%LPD*%
G01*
G04 APERTURE LIST*
G04 Aperture macros list*
%AMRoundRect*
0 Rectangle with rounded corners*
0 $1 Rounding radius*
0 $2 $3 $4 $5 $6 $7 $8 $9 X,Y pos of 4 corners*
0 Add a 4 corners polygon primitive as box body*
4,1,4,$2,$3,$4,$5,$6,$7,$8,$9,$2,$3,0*
0 Add four circle primitives for the rounded corners*
1,1,$1+$1,$2,$3*
1,1,$1+$1,$4,$5*
1,1,$1+$1,$6,$7*
1,1,$1+$1,$8,$9*
0 Add four rect primitives between the rounded corners*
20,1,$1+$1,$2,$3,$4,$5,0*
20,1,$1+$1,$4,$5,$6,$7,0*
20,1,$1+$1,$6,$7,$8,$9,0*
20,1,$1+$1,$8,$9,$2,$3,0*%
G04 Aperture macros list end*
%TA.AperFunction,ComponentPad*%
%ADD10R,3.000000X3.000000*%
%TD*%
%TA.AperFunction,ComponentPad*%
%ADD11C,3.000000*%
%TD*%
%TA.AperFunction,SMDPad,CuDef*%
%ADD12RoundRect,0.250000X0.625000X-0.400000X0.625000X0.400000X-0.625000X0.400000X-0.625000X-0.400000X0*%
%TD*%
%TA.AperFunction,ComponentPad*%
%ADD13C,1.950000*%
%TD*%
%TA.AperFunction,SMDPad,CuDef*%
%ADD14RoundRect,0.237500X0.237500X-0.300000X0.237500X0.300000X-0.237500X0.300000X-0.237500X-0.300000X0*%
%TD*%
%TA.AperFunction,SMDPad,CuDef*%
%ADD15RoundRect,0.250000X0.400000X0.625000X-0.400000X0.625000X-0.400000X-0.625000X0.400000X-0.625000X0*%
%TD*%
%TA.AperFunction,ComponentPad*%
%ADD16R,1.600000X1.600000*%
%TD*%
%TA.AperFunction,ComponentPad*%
%ADD17C,1.600000*%
%TD*%
%TA.AperFunction,ComponentPad*%
%ADD18O,1.600000X1.600000*%
%TD*%
%TA.AperFunction,ComponentPad*%
%ADD19R,1.800000X1.800000*%
%TD*%
%TA.AperFunction,ComponentPad*%
%ADD20C,1.800000*%
%TD*%
%TA.AperFunction,ComponentPad*%
%ADD21R,2.000000X2.000000*%
%TD*%
%TA.AperFunction,ComponentPad*%
%ADD22C,2.000000*%
%TD*%
%TA.AperFunction,SMDPad,CuDef*%
%ADD23R,3.000000X5.500000*%
%TD*%
%TA.AperFunction,SMDPad,CuDef*%
%ADD24RoundRect,0.250000X-0.625000X0.400000X-0.625000X-0.400000X0.625000X-0.400000X0.625000X0.400000X0*%
%TD*%
%TA.AperFunction,SMDPad,CuDef*%
%ADD25RoundRect,0.250001X-0.624999X0.462499X-0.624999X-0.462499X0.624999X-0.462499X0.624999X0.462499X0*%
%TD*%
%TA.AperFunction,SMDPad,CuDef*%
%ADD26RoundRect,0.250001X0.624999X-0.462499X0.624999X0.462499X-0.624999X0.462499X-0.624999X-0.462499X0*%
%TD*%
%TA.AperFunction,SMDPad,CuDef*%
%ADD27RoundRect,0.250000X-0.400000X-0.625000X0.400000X-0.625000X0.400000X0.625000X-0.400000X0.625000X0*%
%TD*%
%TA.AperFunction,SMDPad,CuDef*%
%ADD28RoundRect,0.155000X-0.155000X0.212500X-0.155000X-0.212500X0.155000X-0.212500X0.155000X0.212500X0*%
%TD*%
%TA.AperFunction,SMDPad,CuDef*%
%ADD29R,3.000000X2.900000*%
%TD*%
%TA.AperFunction,SMDPad,CuDef*%
%ADD30RoundRect,0.150000X0.512500X0.150000X-0.512500X0.150000X-0.512500X-0.150000X0.512500X-0.150000X0*%
%TD*%
%TA.AperFunction,SMDPad,CuDef*%
%ADD31RoundRect,0.160000X-0.160000X0.197500X-0.160000X-0.197500X0.160000X-0.197500X0.160000X0.197500X0*%
%TD*%
%TA.AperFunction,SMDPad,CuDef*%
%ADD32RoundRect,0.160000X0.160000X-0.197500X0.160000X0.197500X-0.160000X0.197500X-0.160000X-0.197500X0*%
%TD*%
%TA.AperFunction,ComponentPad*%
%ADD33RoundRect,0.250000X0.750000X-0.600000X0.750000X0.600000X-0.750000X0.600000X-0.750000X-0.600000X0*%
%TD*%
%TA.AperFunction,ComponentPad*%
%ADD34O,2.000000X1.700000*%
%TD*%
%TA.AperFunction,ViaPad*%
%ADD35C,0.800000*%
%TD*%
%TA.AperFunction,ViaPad*%
%ADD36C,1.500000*%
%TD*%
%TA.AperFunction,Conductor*%
%ADD37C,1.000000*%
%TD*%
%TA.AperFunction,Conductor*%
%ADD38C,0.500000*%
%TD*%
G04 APERTURE END LIST*
D10*
%TO.P,BT1,1,+*%
%TO.N,Net-(BT1-Pad1)*%
X256067904Y-124572371D03*
D11*
%TO.P,BT1,2,-*%
%TO.N,Net-(BT1-Pad2)*%
X256067904Y-111872371D03*
%TD*%
D12*
%TO.P,R3,1*%
%TO.N,/R_TOUT*%
X204390000Y-81190000D03*
%TO.P,R3,2*%
%TO.N,/T_PWR*%
X204390000Y-78090000D03*
%TD*%
D13*
%TO.P,J1,R*%
%TO.N,N/C*%
X171390000Y-100552670D03*
X171390000Y-88052670D03*
X163240000Y-97702670D03*
X163240000Y-90902670D03*
%TO.P,J1,S*%
%TO.N,/R_IN*%
X165040000Y-88052670D03*
X160340000Y-90902670D03*
X165040000Y-100552670D03*
X160340000Y-97702670D03*
%TO.P,J1,T*%
%TO.N,/L_IN*%
X166840000Y-90902670D03*
X166840000Y-97702670D03*
X177740000Y-100552670D03*
X177740000Y-88052670D03*
%TD*%
D14*
%TO.P,C15,1*%
%TO.N,+18V*%
X217800000Y-100822500D03*
%TO.P,C15,2*%
%TO.N,GND*%
X217800000Y-99097500D03*
%TD*%
D15*
%TO.P,R11,1*%
%TO.N,+18V*%
X208510000Y-101230332D03*
%TO.P,R11,2*%
%TO.N,/PWR*%
X205410000Y-101230332D03*
%TD*%
D16*
%TO.P,C13,1*%
%TO.N,+2.5V*%
X211161167Y-65810000D03*
D17*
%TO.P,C13,2*%
%TO.N,GND*%
X213661167Y-65810000D03*
%TD*%
D14*
%TO.P,C1,1*%
%TO.N,GND*%
X209583119Y-95582500D03*
%TO.P,C1,2*%
%TO.N,+2.5V*%
X209583119Y-93857500D03*
%TD*%
D16*
%TO.P,U3,1*%
%TO.N,/R_OPOUT*%
X184805000Y-102505000D03*
D18*
%TO.P,U3,2,-*%
%TO.N,/R_OPIN*%
X184805000Y-105045000D03*
%TO.P,U3,3,+*%
%TO.N,/PWR-*%
X184805000Y-107585000D03*
%TO.P,U3,4,V-*%
%TO.N,GND*%
X184805000Y-110125000D03*
%TO.P,U3,5,+*%
%TO.N,/PWR-*%
X192425000Y-110125000D03*
%TO.P,U3,6,-*%
%TO.N,/L_OPIN*%
X192425000Y-107585000D03*
%TO.P,U3,7*%
%TO.N,/L_OPOUT*%
X192425000Y-105045000D03*
%TO.P,U3,8,V+*%
%TO.N,/PWR*%
X192425000Y-102505000D03*
%TD*%
D19*
%TO.P,U2,1,P*%
%TO.N,/R_TOUT*%
X199775112Y-80850000D03*
D20*
%TO.P,U2,2,G2*%
X199775112Y-78310000D03*
%TO.P,U2,3,F+\u002CG3*%
%TO.N,Net-(U1-Pad5)*%
X199775112Y-75770000D03*
%TO.P,U2,4,G1*%
%TO.N,/R_TIN*%
X199775112Y-73230000D03*
%TO.P,U2,5,F+\u002CG3*%
%TO.N,GND*%
X199775112Y-70690000D03*
%TD*%
D16*
%TO.P,C5,1*%
%TO.N,/T_PWR*%
X211161167Y-72240000D03*
D17*
%TO.P,C5,2*%
%TO.N,GND*%
X213661167Y-72240000D03*
%TD*%
D20*
%TO.P,RV1,1,1*%
%TO.N,/L_POT*%
X163700000Y-50070000D03*
%TO.P,RV1,2,2*%
%TO.N,/L_TIN*%
X163700000Y-52570000D03*
%TO.P,RV1,3,3*%
%TO.N,GND*%
X163700000Y-55070000D03*
%TO.P,RV1,4,4*%
%TO.N,/R_POT*%
X166200000Y-50070000D03*
%TO.P,RV1,5,5*%
%TO.N,/R_TIN*%
X166200000Y-52570000D03*
%TO.P,RV1,6,6*%
%TO.N,GND*%
X166200000Y-55070000D03*
%TD*%
D21*
%TO.P,C10,1*%
%TO.N,/PWR*%
X220137362Y-71530591D03*
X218137362Y-72202735D03*
D22*
%TO.P,C10,2*%
%TO.N,GND*%
X222137362Y-65858447D03*
X220137362Y-66530591D03*
%TD*%
D12*
%TO.P,R10,1*%
%TO.N,/L_OPIN*%
X196932449Y-110755000D03*
%TO.P,R10,2*%
%TO.N,/L_OPOUT*%
X196932449Y-107655000D03*
%TD*%
D14*
%TO.P,C14,1*%
%TO.N,+18V*%
X219360198Y-100822500D03*
%TO.P,C14,2*%
%TO.N,GND*%
X219360198Y-99097500D03*
%TD*%
D21*
%TO.P,C12,1*%
%TO.N,/L_OPOUT*%
X191627689Y-131938024D03*
X190955545Y-129938024D03*
D22*
%TO.P,C12,2*%
%TO.N,/L_OUT*%
X185283401Y-127938024D03*
X185955545Y-129938024D03*
%TD*%
D21*
%TO.P,C11,1*%
%TO.N,/R_OPOUT*%
X190955545Y-118841976D03*
X191627689Y-120841976D03*
D22*
%TO.P,C11,2*%
%TO.N,/R_OUT*%
X185955545Y-118841976D03*
X185283401Y-116841976D03*
%TD*%
D23*
%TO.P,REF\u002A\u002A,1*%
%TO.N,+2.5V*%
X212280000Y-85540000D03*
%TO.P,REF\u002A\u002A,2*%
%TO.N,Net-(C2-Pad1)*%
X221780000Y-85540000D03*
%TD*%
D24*
%TO.P,R2,1*%
%TO.N,/L_TOUT*%
X204390000Y-56660000D03*
%TO.P,R2,2*%
%TO.N,/T_PWR*%
X204390000Y-59760000D03*
%TD*%
D16*
%TO.P,C9,1*%
%TO.N,/PWR-*%
X181075113Y-109296335D03*
D17*
%TO.P,C9,2*%
%TO.N,GND*%
X178575113Y-109296335D03*
%TD*%
D25*
%TO.P,D2,1,K*%
%TO.N,GND*%
X216690000Y-48015000D03*
%TO.P,D2,2,A*%
%TO.N,Net-(D2-Pad2)*%
X216690000Y-50990000D03*
%TD*%
D26*
%TO.P,D1,1,K*%
%TO.N,+18V*%
X224090000Y-50945000D03*
%TO.P,D1,2,A*%
%TO.N,Net-(D1-Pad2)*%
X224090000Y-47970000D03*
%TD*%
D15*
%TO.P,R5,1*%
%TO.N,Net-(C7-Pad1)*%
X201390000Y-91650000D03*
%TO.P,R5,2*%
%TO.N,/R_OPIN*%
X198290000Y-91650000D03*
%TD*%
%TO.P,R9,1*%
%TO.N,/R_OPIN*%
X174510000Y-107476335D03*
%TO.P,R9,2*%
%TO.N,/R_OPOUT*%
X171410000Y-107476335D03*
%TD*%
D27*
%TO.P,R6,1*%
%TO.N,Net-(C8-Pad1)*%
X204955112Y-49260000D03*
%TO.P,R6,2*%
%TO.N,/L_OPIN*%
X208055112Y-49260000D03*
%TD*%
D28*
%TO.P,C2,1*%
%TO.N,Net-(C2-Pad1)*%
X220964485Y-94158629D03*
%TO.P,C2,2*%
%TO.N,Net-(C2-Pad2)*%
X220964485Y-95293629D03*
%TD*%
D12*
%TO.P,R1,1*%
%TO.N,Net-(D2-Pad2)*%
X220390000Y-51030000D03*
%TO.P,R1,2*%
%TO.N,Net-(D1-Pad2)*%
X220390000Y-47930000D03*
%TD*%
D29*
%TO.P,L1,1,1*%
%TO.N,+2.5V*%
X209180000Y-85540000D03*
%TO.P,L1,2,2*%
%TO.N,Net-(C2-Pad1)*%
X224880000Y-85540000D03*
%TD*%
D17*
%TO.P,C17,1*%
%TO.N,GND*%
X201320000Y-108805000D03*
%TO.P,C17,2*%
%TO.N,/PWR*%
X201320000Y-103805000D03*
%TD*%
D30*
%TO.P,U4,1,GND*%
%TO.N,GND*%
X218167500Y-95686129D03*
%TO.P,U4,2,SW*%
%TO.N,Net-(C2-Pad1)*%
X218167500Y-94736129D03*
%TO.P,U4,3,VIN*%
%TO.N,+18V*%
X218167500Y-93786129D03*
%TO.P,U4,4,FB*%
%TO.N,Net-(R12-Pad2)*%
X215892500Y-93786129D03*
%TO.P,U4,5,EN*%
%TO.N,+18V*%
X215892500Y-94736129D03*
%TO.P,U4,6,CB*%
%TO.N,Net-(C2-Pad2)*%
X215892500Y-95686129D03*
%TD*%
D31*
%TO.P,R13,1*%
%TO.N,Net-(R12-Pad2)*%
X213152150Y-94128629D03*
%TO.P,R13,2*%
%TO.N,GND*%
X213152150Y-95323629D03*
%TD*%
D19*
%TO.P,U1,1,P*%
%TO.N,/L_TOUT*%
X199775112Y-57017741D03*
D20*
%TO.P,U1,2,G2*%
X199775112Y-59557741D03*
%TO.P,U1,3,F+\u002CG3*%
%TO.N,+2.5V*%
X199775112Y-62097741D03*
%TO.P,U1,4,G1*%
%TO.N,/L_TIN*%
X199775112Y-64637741D03*
%TO.P,U1,5,F+\u002CG3*%
%TO.N,Net-(U1-Pad5)*%
X199775112Y-67177741D03*
%TD*%
D32*
%TO.P,R12,1*%
%TO.N,+2.5V*%
X211582150Y-95323629D03*
%TO.P,R12,2*%
%TO.N,Net-(R12-Pad2)*%
X211582150Y-94128629D03*
%TD*%
D33*
%TO.P,Power SW,1,A*%
%TO.N,Net-(BT1-Pad1)*%
X225880000Y-98620000D03*
D34*
%TO.P,Power SW,2,B*%
%TO.N,+18V*%
X225880000Y-96120000D03*
%TD*%
D15*
%TO.P,R4,1*%
%TO.N,/PWR*%
X207500000Y-76030000D03*
%TO.P,R4,2*%
%TO.N,/T_PWR*%
X204400000Y-76030000D03*
%TD*%
D14*
%TO.P,C16,1*%
%TO.N,+18V*%
X216239803Y-100822500D03*
%TO.P,C16,2*%
%TO.N,GND*%
X216239803Y-99097500D03*
%TD*%
D17*
%TO.P,C8,1*%
%TO.N,Net-(C8-Pad1)*%
X199775112Y-49259315D03*
%TO.P,C8,2*%
%TO.N,/L_TOUT*%
X199775112Y-54259315D03*
%TD*%
%TO.P,C7,1*%
%TO.N,Net-(C7-Pad1)*%
X199775112Y-88630454D03*
%TO.P,C7,2*%
%TO.N,/R_TOUT*%
X199775112Y-83630454D03*
%TD*%
D24*
%TO.P,R7,1*%
%TO.N,/PWR-*%
X196932449Y-101855000D03*
%TO.P,R7,2*%
%TO.N,/PWR*%
X196932449Y-104955000D03*
%TD*%
D14*
%TO.P,C4,1*%
%TO.N,+18V*%
X214679606Y-100822500D03*
%TO.P,C4,2*%
%TO.N,GND*%
X214679606Y-99097500D03*
%TD*%
D13*
%TO.P,J2,R*%
%TO.N,N/C*%
X163210000Y-127890000D03*
X163210000Y-121090000D03*
X171360000Y-130740000D03*
X171360000Y-118240000D03*
%TO.P,J2,S*%
%TO.N,/R_OUT*%
X165010000Y-130740000D03*
X160310000Y-127890000D03*
X160310000Y-121090000D03*
X165010000Y-118240000D03*
%TO.P,J2,T*%
%TO.N,/L_OUT*%
X166810000Y-121090000D03*
X177710000Y-118240000D03*
X166810000Y-127890000D03*
X177710000Y-130740000D03*
%TD*%
D17*
%TO.P,C6,1*%
%TO.N,/R_POT*%
X180300000Y-49259315D03*
%TO.P,C6,2*%
%TO.N,/R_IN*%
X180300000Y-54259315D03*
%TD*%
D10*
%TO.P,BT2,1,+*%
%TO.N,Net-(BT1-Pad2)*%
X237861456Y-98390000D03*
D11*
%TO.P,BT2,2,-*%
%TO.N,GND*%
X250561456Y-98390000D03*
%TD*%
D15*
%TO.P,R8,1*%
%TO.N,/PWR-*%
X174510000Y-111116335D03*
%TO.P,R8,2*%
%TO.N,GND*%
X171410000Y-111116335D03*
%TD*%
D17*
%TO.P,C3,1*%
%TO.N,/L_POT*%
X190010000Y-49259315D03*
%TO.P,C3,2*%
%TO.N,/L_IN*%
X190010000Y-54259315D03*
%TD*%
D35*
%TO.N,GND*%
X219867000Y-96729129D03*
X213152150Y-96597850D03*
X218168175Y-96729129D03*
X214945000Y-48015000D03*
X213152150Y-97497850D03*
X219017587Y-96729129D03*
D36*
%TO.N,/L_OPIN*%
X209940000Y-49250000D03*
D35*
%TO.N,+2.5V*%
X209180000Y-80330000D03*
%TD*%
D37*
%TO.N,Net-(BT1-Pad1)*%
X256710000Y-124600000D02*
X226270000Y-124600000D01*
X225850000Y-124180000D02*
X225850000Y-98790000D01*
X226270000Y-124600000D02*
X225850000Y-124180000D01*
D38*
%TO.N,GND*%
X218168175Y-96729129D02*
X218997000Y-96729129D01*
X214679606Y-99097500D02*
X214571765Y-99097500D01*
D37*
X171410000Y-109510000D02*
X171623665Y-109296335D01*
X171410000Y-111116335D02*
X171410000Y-109510000D01*
X171623665Y-109296335D02*
X178575113Y-109296335D01*
D38*
X211498469Y-97497850D02*
X213152150Y-97497850D01*
X218167500Y-96728454D02*
X218168175Y-96729129D01*
X214571765Y-99097500D02*
X213152150Y-97677885D01*
X213152150Y-95323629D02*
X213152150Y-96597850D01*
X213152150Y-96597850D02*
X213152150Y-97497850D01*
X219360198Y-99097500D02*
X214679606Y-99097500D01*
X216690000Y-48015000D02*
X214945000Y-48015000D01*
X218997000Y-96729129D02*
X219867000Y-96729129D01*
X218167500Y-95686129D02*
X218167500Y-96728454D01*
X209583119Y-95582500D02*
X211498469Y-97497850D01*
X213152150Y-97497850D02*
X213152150Y-97677885D01*
D37*
%TO.N,Net-(BT1-Pad2)*%
X243227629Y-98417629D02*
X256710000Y-111900000D01*
X238503552Y-98417629D02*
X243227629Y-98417629D01*
%TO.N,Net-(C7-Pad1)*%
X201390000Y-90245342D02*
X199775112Y-88630454D01*
X201390000Y-91650000D02*
X201390000Y-90245342D01*
%TO.N,Net-(C8-Pad1)*%
X204954427Y-49259315D02*
X199775112Y-49259315D01*
X204955112Y-49260000D02*
X204954427Y-49259315D01*
%TO.N,+18V*%
X225830000Y-96106031D02*
X228806031Y-96106031D01*
X224183969Y-96106031D02*
X225830000Y-96106031D01*
X228806031Y-80753969D02*
X228806031Y-51086031D01*
D38*
X218167500Y-93786129D02*
X218167500Y-81437500D01*
X216657151Y-94736129D02*
X215892500Y-94736129D01*
D37*
X223670000Y-100770000D02*
X223670000Y-96620000D01*
X223670000Y-96620000D02*
X224183969Y-96106031D01*
D38*
X218160000Y-81430000D02*
X218836031Y-80753969D01*
X218836031Y-80753969D02*
X228806031Y-80753969D01*
D37*
X228806031Y-96106031D02*
X228806031Y-80753969D01*
X208510000Y-101230332D02*
X223209668Y-101230332D01*
X228806031Y-51086031D02*
X228665000Y-50945000D01*
D38*
X218167500Y-93786129D02*
X217607151Y-93786129D01*
X217607151Y-93786129D02*
X216657151Y-94736129D01*
X218167500Y-81437500D02*
X218160000Y-81430000D01*
D37*
X223209668Y-101230332D02*
X223670000Y-100770000D01*
X228665000Y-50945000D02*
X224090000Y-50945000D01*
%TO.N,/T_PWR*%
X204390000Y-78100000D02*
X204390000Y-72180000D01*
X204460000Y-72110000D02*
X204390000Y-72180000D01*
X204590000Y-72240000D02*
X204460000Y-72110000D01*
X204390000Y-72180000D02*
X204390000Y-64390000D01*
X211161167Y-72240000D02*
X204590000Y-72240000D01*
X204390000Y-64390000D02*
X204460000Y-64460000D01*
X204390000Y-64390000D02*
X204390000Y-59760000D01*
%TO.N,/PWR*%
X201455000Y-104955000D02*
X204225000Y-104955000D01*
X196932449Y-104955000D02*
X196325000Y-104955000D01*
X201320000Y-104820000D02*
X201455000Y-104955000D01*
X218137362Y-75572638D02*
X217680000Y-76030000D01*
X196325000Y-104955000D02*
X193875000Y-102505000D01*
X193875000Y-102505000D02*
X192425000Y-102505000D01*
X196932449Y-104955000D02*
X196957449Y-104980000D01*
X201455000Y-104955000D02*
X196932449Y-104955000D01*
X204225000Y-104955000D02*
X205435000Y-103745000D01*
X205435000Y-103745000D02*
X205435000Y-82895000D01*
X206020000Y-82310000D02*
X206040000Y-82310000D01*
X207500000Y-80850000D02*
X207500000Y-76030000D01*
X206040000Y-82310000D02*
X207500000Y-80850000D01*
X205435000Y-82895000D02*
X206020000Y-82310000D01*
X201320000Y-103805000D02*
X201320000Y-104820000D01*
X217680000Y-76030000D02*
X207500000Y-76030000D01*
X218137362Y-72202735D02*
X218137362Y-75572638D01*
%TO.N,/L_IN*%
X182070000Y-100080000D02*
X181597330Y-100552670D01*
X190010000Y-55750000D02*
X188990000Y-56770000D01*
X190010000Y-54259315D02*
X190010000Y-55750000D01*
X177740000Y-100552670D02*
X177740000Y-97960000D01*
X177740000Y-97960000D02*
X177482670Y-97702670D01*
X188990000Y-56770000D02*
X182630000Y-56770000D01*
X177482670Y-97702670D02*
X166840000Y-97702670D01*
X182630000Y-56770000D02*
X182070000Y-57330000D01*
X182070000Y-57330000D02*
X182070000Y-100080000D01*
X181597330Y-100552670D02*
X177740000Y-100552670D01*
%TO.N,/R_IN*%
X180250000Y-94690000D02*
X180300000Y-94640000D01*
X180300000Y-94640000D02*
X180300000Y-54259315D01*
X161340000Y-100552670D02*
X165040000Y-100552670D01*
X160340000Y-95282670D02*
X160896335Y-94726335D01*
X160340000Y-99552670D02*
X161340000Y-100552670D01*
X160932670Y-94690000D02*
X160896335Y-94726335D01*
X160340000Y-97702670D02*
X160340000Y-95282670D01*
X160340000Y-97702670D02*
X160340000Y-99552670D01*
X180250000Y-94690000D02*
X160932670Y-94690000D01*
%TO.N,/R_OUT*%
X160310000Y-129830000D02*
X160300000Y-129840000D01*
X160310000Y-127890000D02*
X160310000Y-129830000D01*
X161200000Y-130740000D02*
X165010000Y-130740000D01*
X185955545Y-118841976D02*
X185955545Y-124104455D01*
X185955545Y-124104455D02*
X184910000Y-125150000D01*
X161100000Y-125150000D02*
X160310000Y-125940000D01*
X160300000Y-129840000D02*
X161200000Y-130740000D01*
X185955545Y-117514120D02*
X185283401Y-116841976D01*
X184910000Y-125150000D02*
X161100000Y-125150000D01*
X185955545Y-118841976D02*
X185955545Y-117514120D01*
X160310000Y-125940000D02*
X160310000Y-127890000D01*
%TO.N,/L_OUT*%
X177380000Y-127880000D02*
X177710000Y-128210000D01*
X177710000Y-128210000D02*
X177710000Y-130740000D01*
X166810000Y-127890000D02*
X177370000Y-127890000D01*
X185153569Y-130740000D02*
X185955545Y-129938024D01*
X177370000Y-127890000D02*
X177380000Y-127880000D01*
X177710000Y-130740000D02*
X185153569Y-130740000D01*
X185283401Y-128577856D02*
X185955545Y-129250000D01*
%TO.N,/L_POT*%
X163700000Y-47900000D02*
X163700000Y-50070000D01*
X190010000Y-48070000D02*
X189699804Y-47759804D01*
X189699804Y-47759804D02*
X163840196Y-47759804D01*
X190010000Y-49259315D02*
X190010000Y-48070000D01*
X163840196Y-47759804D02*
X163700000Y-47900000D01*
%TO.N,/R_POT*%
X166940685Y-49259315D02*
X166200000Y-50000000D01*
X180300000Y-49259315D02*
X166940685Y-49259315D01*
X166200000Y-50000000D02*
X166200000Y-50070000D01*
%TO.N,/R_OPOUT*%
X190730000Y-113970000D02*
X190955545Y-114195545D01*
X179105000Y-102505000D02*
X184805000Y-102505000D01*
X169170000Y-107140000D02*
X169170000Y-106050000D01*
X169170000Y-108140000D02*
X169170000Y-114000000D01*
X169435000Y-102505000D02*
X169170000Y-102770000D01*
X169170000Y-107440000D02*
X169170000Y-107140000D01*
X169206335Y-107476335D02*
X169170000Y-107440000D01*
X169170000Y-102770000D02*
X169170000Y-107140000D01*
X169170000Y-114000000D02*
X190700000Y-114000000D01*
X190955545Y-114195545D02*
X190955545Y-118841976D01*
X169170000Y-108140000D02*
X169170000Y-107440000D01*
X179105000Y-102505000D02*
X171205000Y-102505000D01*
X171205000Y-102505000D02*
X169435000Y-102505000D01*
X171410000Y-107476335D02*
X169206335Y-107476335D01*
X190700000Y-114000000D02*
X190730000Y-113970000D01*
%TO.N,/L_OPOUT*%
X193545000Y-105045000D02*
X192425000Y-105045000D01*
X196155000Y-107655000D02*
X193545000Y-105045000D01*
X196937449Y-107650000D02*
X198900000Y-107650000D01*
X198900000Y-107650000D02*
X198900000Y-124680000D01*
X196932449Y-107655000D02*
X196155000Y-107655000D01*
X198900000Y-124680000D02*
X193641976Y-129938024D01*
X193641976Y-129938024D02*
X190955545Y-129938024D01*
X196932449Y-107655000D02*
X196937449Y-107650000D01*
%TO.N,/R_TOUT*%
X199775112Y-83630454D02*
X199775112Y-80850000D01*
X199775112Y-78310000D02*
X199775112Y-80850000D01*
X204040000Y-80850000D02*
X204390000Y-81200000D01*
X199775112Y-80850000D02*
X204040000Y-80850000D01*
%TO.N,/L_TOUT*%
X199775112Y-57017741D02*
X204032259Y-57017741D01*
X199775112Y-59557741D02*
X199775112Y-57017741D01*
X204065112Y-57010000D02*
X204057371Y-57017741D01*
X199775112Y-54259315D02*
X199775112Y-57017741D01*
X204032259Y-57017741D02*
X204390000Y-56660000D01*
%TO.N,/R_OPIN*%
X184805000Y-105045000D02*
X186735000Y-105045000D01*
X174805000Y-105045000D02*
X174800000Y-105040000D01*
X186750000Y-105030000D02*
X186750000Y-92980000D01*
X188080000Y-91650000D02*
X186750000Y-92980000D01*
X186735000Y-105045000D02*
X186750000Y-105030000D01*
X174510000Y-105330000D02*
X174510000Y-107476335D01*
X198290000Y-91650000D02*
X188080000Y-91650000D01*
X174800000Y-105040000D02*
X174510000Y-105330000D01*
X184805000Y-105045000D02*
X174805000Y-105045000D01*
%TO.N,/L_OPIN*%
X208065112Y-49250000D02*
X208055112Y-49260000D01*
X209940000Y-49250000D02*
X208065112Y-49250000D01*
X196932449Y-110755000D02*
X195595000Y-110755000D01*
X195595000Y-110755000D02*
X192425000Y-107585000D01*
%TO.N,/L_TIN*%
X195690000Y-46470000D02*
X161530000Y-46470000D01*
X195840000Y-46620000D02*
X195690000Y-46470000D01*
X161530000Y-46470000D02*
X161470000Y-46530000D01*
X199775112Y-64637741D02*
X196367741Y-64637741D01*
X161470000Y-52440000D02*
X161600000Y-52570000D01*
X196367741Y-64637741D02*
X195840000Y-64110000D01*
X195840000Y-64110000D02*
X195840000Y-46620000D01*
X161470000Y-46530000D02*
X161470000Y-52440000D01*
X161600000Y-52570000D02*
X163700000Y-52570000D01*
%TO.N,/R_TIN*%
X166780000Y-51990000D02*
X166200000Y-52570000D01*
X193950000Y-73230000D02*
X192930000Y-72210000D01*
X199775112Y-73230000D02*
X193950000Y-73230000D01*
X192930000Y-51990000D02*
X166780000Y-51990000D01*
X192930000Y-72210000D02*
X192930000Y-51990000D01*
D38*
%TO.N,Net-(D1-Pad2)*%
X220390000Y-47930000D02*
X224050000Y-47930000D01*
D37*
X224050000Y-47930000D02*
X224090000Y-47970000D01*
%TO.N,/PWR-*%
X184805000Y-107585000D02*
X188705000Y-107585000D01*
X196932449Y-99957551D02*
X196950000Y-99940000D01*
X188705000Y-109985000D02*
X188705000Y-106695000D01*
X188960000Y-99940000D02*
X188705000Y-100195000D01*
X188705000Y-106695000D02*
X188705000Y-107585000D01*
X188850000Y-110130000D02*
X188705000Y-109985000D01*
X181075113Y-109296335D02*
X181075113Y-111035113D01*
X181075113Y-109296335D02*
X181075113Y-107754887D01*
X181003665Y-111116335D02*
X174510000Y-111116335D01*
X181080000Y-111040000D02*
X181003665Y-111116335D01*
X188705000Y-100195000D02*
X188705000Y-106695000D01*
X181075113Y-107754887D02*
X181245000Y-107585000D01*
X196950000Y-99940000D02*
X188960000Y-99940000D01*
X188855000Y-110125000D02*
X188850000Y-110130000D01*
X196932449Y-101855000D02*
X196932449Y-99957551D01*
X192425000Y-110125000D02*
X188855000Y-110125000D01*
X181245000Y-107585000D02*
X184805000Y-107585000D01*
X181075113Y-111035113D02*
X181080000Y-111040000D01*
D38*
%TO.N,Net-(D2-Pad2)*%
X216690000Y-50990000D02*
X220350000Y-50990000D01*
D37*
X220350000Y-50990000D02*
X220390000Y-51030000D01*
D38*
%TO.N,+2.5V*%
X209180000Y-93454381D02*
X209180000Y-85540000D01*
X211049248Y-95323629D02*
X209583119Y-93857500D01*
X209583119Y-93857500D02*
X209180000Y-93454381D01*
X212280000Y-85540000D02*
X209180000Y-85540000D01*
X211582150Y-95323629D02*
X211049248Y-95323629D01*
X209180000Y-85540000D02*
X209180000Y-80330000D01*
%TO.N,Net-(C2-Pad1)*%
X221780000Y-93343114D02*
X221780000Y-85540000D01*
X218167500Y-94736129D02*
X220299565Y-94736129D01*
X220877065Y-94158629D02*
X220964485Y-94158629D01*
X221400000Y-85540000D02*
X224880000Y-85540000D01*
X220964485Y-94158629D02*
X221780000Y-93343114D01*
X220299565Y-94736129D02*
X220877065Y-94158629D01*
%TO.N,Net-(C2-Pad2)*%
X220964485Y-95293629D02*
X220964485Y-97540614D01*
X220926470Y-97578629D02*
X220964485Y-97540614D01*
X215892500Y-97578629D02*
X220926470Y-97578629D01*
X215892500Y-97578629D02*
X215892500Y-95686129D01*
%TO.N,Net-(R12-Pad2)*%
X213494650Y-93786129D02*
X213152150Y-94128629D01*
X215892500Y-93786129D02*
X213494650Y-93786129D01*
X211582150Y-94128629D02*
X213152150Y-94128629D01*
%TO.N,Net-(U1-Pad5)*%
X199775112Y-67177741D02*
X201922259Y-67177741D01*
X201850000Y-75770000D02*
X199775112Y-75770000D01*
X201930000Y-67170000D02*
X201930000Y-75690000D01*
%TD*%
M02*
