M48
; DRILL file {KiCad (6.0.0)} date Wed Aug  3 23:17:51 2022
; FORMAT={-:-/ absolute / inch / decimal}
; #@! TF.CreationDate,2022-08-03T23:17:51+01:00
; #@! TF.GenerationSoftware,Kicad,Pcbnew,(6.0.0)
; #@! TF.FileFunction,Plated,1,2,PTH
FMAT,2
INCH
; #@! TA.AperFunction,Plated,PTH,ViaDrill
T1C0.0157
; #@! TA.AperFunction,Plated,PTH,ViaDrill
T2C0.0236
; #@! TA.AperFunction,Plated,PTH,ComponentDrill
T3C0.0315
; #@! TA.AperFunction,Plated,PTH,ComponentDrill
T4C0.0394
; #@! TA.AperFunction,Plated,PTH,ComponentDrill
T5C0.0512
; #@! TA.AperFunction,Plated,PTH,ComponentDrill
T6C0.0945
%
G90
G05
T1
X8.2354Y-3.1626
X8.3918Y-3.8031
X8.3918Y-3.8385
X8.4624Y-1.8904
X8.5893Y-3.8082
X8.6227Y-3.8082
X8.6562Y-3.8082
T2
X8.2654Y-1.939
T3
X7.0305Y-4.303
X7.0984Y-1.9393
X7.0984Y-2.1362
X7.1289Y-4.303
X7.2758Y-4.0356
X7.2758Y-4.1356
X7.2758Y-4.2356
X7.2758Y-4.3356
X7.4807Y-1.9393
X7.4807Y-2.1362
X7.5758Y-4.0356
X7.5758Y-4.1356
X7.5758Y-4.2356
X7.5758Y-4.3356
X7.8652Y-1.9393
X7.8652Y-2.1362
X7.8652Y-2.2448
X7.8652Y-2.3448
X7.8652Y-2.4448
X7.8652Y-2.5448
X7.8652Y-2.6448
X7.8652Y-2.7831
X7.8652Y-2.8831
X7.8652Y-2.9831
X7.8652Y-3.0831
X7.8652Y-3.1831
X7.8652Y-3.2925
X7.8652Y-3.4894
X7.926Y-4.0868
X7.926Y-4.2837
X8.3134Y-2.5909
X8.3134Y-2.8441
X8.4119Y-2.5909
X8.4119Y-2.8441
T4
X6.4449Y-1.9713
X6.4449Y-2.0697
X6.4449Y-2.1681
X6.5433Y-1.9713
X6.5433Y-2.0697
X6.5433Y-2.1681
X7.2946Y-4.6001
X7.2946Y-5.0369
X7.3211Y-4.6788
X7.3211Y-5.1157
X7.5179Y-4.6788
X7.5179Y-5.1157
X7.5444Y-4.7576
X7.5444Y-5.1944
X8.5881Y-2.8426
X8.6668Y-2.6193
X8.6668Y-2.8162
X8.7456Y-2.5929
X8.8929Y-3.7843
X8.8929Y-3.8827
T5
X6.3114Y-4.7673
X6.3114Y-5.035
X6.3126Y-3.5788
X6.3126Y-3.8466
X6.4256Y-4.7673
X6.4256Y-5.035
X6.4268Y-3.5788
X6.4268Y-3.8466
X6.4965Y-4.6551
X6.4965Y-5.1472
X6.4976Y-3.4666
X6.4976Y-3.9588
X6.5673Y-4.7673
X6.5673Y-5.035
X6.5685Y-3.5788
X6.5685Y-3.8466
X6.7465Y-4.6551
X6.7465Y-5.1472
X6.7476Y-3.4666
X6.7476Y-3.9588
X6.9965Y-4.6551
X6.9965Y-5.1472
X6.9976Y-3.4666
X6.9976Y-3.9588
T6
X9.3646Y-3.8736
X9.8646Y-3.8736
X10.0814Y-4.4044
X10.0814Y-4.9044
T0
M30
