%TF.GenerationSoftware,KiCad,Pcbnew,(6.0.0)*%
%TF.CreationDate,2022-08-03T23:17:49+01:00*%
%TF.ProjectId,Tube Headphone project V3,54756265-2048-4656-9164-70686f6e6520,rev?*%
%TF.SameCoordinates,Original*%
%TF.FileFunction,Soldermask,Bot*%
%TF.FilePolarity,Negative*%
%FSLAX46Y46*%
G04 Gerber Fmt 4.6, Leading zero omitted, Abs format (unit mm)*
G04 Created by KiCad (PCBNEW (6.0.0)) date 2022-08-03 23:17:49*
%MOMM*%
%LPD*%
G01*
G04 APERTURE LIST*
G04 Aperture macros list*
%AMRoundRect*
0 Rectangle with rounded corners*
0 $1 Rounding radius*
0 $2 $3 $4 $5 $6 $7 $8 $9 X,Y pos of 4 corners*
0 Add a 4 corners polygon primitive as box body*
4,1,4,$2,$3,$4,$5,$6,$7,$8,$9,$2,$3,0*
0 Add four circle primitives for the rounded corners*
1,1,$1+$1,$2,$3*
1,1,$1+$1,$4,$5*
1,1,$1+$1,$6,$7*
1,1,$1+$1,$8,$9*
0 Add four rect primitives between the rounded corners*
20,1,$1+$1,$2,$3,$4,$5,0*
20,1,$1+$1,$4,$5,$6,$7,0*
20,1,$1+$1,$6,$7,$8,$9,0*
20,1,$1+$1,$8,$9,$2,$3,0*%
G04 Aperture macros list end*
%ADD10C,2.200000*%
%ADD11C,2.600000*%
%ADD12R,3.000000X3.000000*%
%ADD13C,3.000000*%
%ADD14C,1.950000*%
%ADD15R,1.600000X1.600000*%
%ADD16C,1.600000*%
%ADD17O,1.600000X1.600000*%
%ADD18R,1.800000X1.800000*%
%ADD19C,1.800000*%
%ADD20R,2.000000X2.000000*%
%ADD21C,2.000000*%
%ADD22RoundRect,0.250000X0.750000X-0.600000X0.750000X0.600000X-0.750000X0.600000X-0.750000X-0.600000X0*%
%ADD23O,2.000000X1.700000*%
G04 APERTURE END LIST*
D10*
%TO.C,REF\u002A\u002A*%
X198880000Y-131080000D03*
%TD*%
%TO.C,REF\u002A\u002A*%
X224580000Y-60380000D03*
%TD*%
%TO.C,REF\u002A\u002A*%
X163390000Y-109090000D03*
%TD*%
%TO.C,REF\u002A\u002A*%
X172710000Y-82950000D03*
%TD*%
%TO.C,REF\u002A\u002A*%
X172730000Y-55460000D03*
%TD*%
D11*
%TO.C,BT1*%
X245167904Y-107122371D03*
X217167904Y-107122371D03*
X231917904Y-129322371D03*
D12*
X256067904Y-124572371D03*
D13*
X256067904Y-111872371D03*
%TD*%
D14*
%TO.C,J1*%
X171390000Y-100552670D03*
X171390000Y-88052670D03*
X163240000Y-97702670D03*
X163240000Y-90902670D03*
X165040000Y-88052670D03*
X160340000Y-90902670D03*
X165040000Y-100552670D03*
X160340000Y-97702670D03*
X166840000Y-90902670D03*
X166840000Y-97702670D03*
X177740000Y-100552670D03*
X177740000Y-88052670D03*
%TD*%
D15*
%TO.C,C13*%
X211161167Y-65810000D03*
D16*
X213661167Y-65810000D03*
%TD*%
D15*
%TO.C,U3*%
X184805000Y-102505000D03*
D17*
X184805000Y-105045000D03*
X184805000Y-107585000D03*
X184805000Y-110125000D03*
X192425000Y-110125000D03*
X192425000Y-107585000D03*
X192425000Y-105045000D03*
X192425000Y-102505000D03*
%TD*%
D18*
%TO.C,U2*%
X199775112Y-80850000D03*
D19*
X199775112Y-78310000D03*
X199775112Y-75770000D03*
X199775112Y-73230000D03*
X199775112Y-70690000D03*
%TD*%
D15*
%TO.C,C5*%
X211161167Y-72240000D03*
D16*
X213661167Y-72240000D03*
%TD*%
D19*
%TO.C,RV1*%
X163700000Y-50070000D03*
X163700000Y-52570000D03*
X163700000Y-55070000D03*
X166200000Y-50070000D03*
X166200000Y-52570000D03*
X166200000Y-55070000D03*
%TD*%
D20*
%TO.C,C10*%
X220137362Y-71530591D03*
X218137362Y-72202735D03*
D21*
X222137362Y-65858447D03*
X220137362Y-66530591D03*
%TD*%
D20*
%TO.C,C12*%
X191627689Y-131938024D03*
X190955545Y-129938024D03*
D21*
X185283401Y-127938024D03*
X185955545Y-129938024D03*
%TD*%
D20*
%TO.C,C11*%
X190955545Y-118841976D03*
X191627689Y-120841976D03*
D21*
X185955545Y-118841976D03*
X185283401Y-116841976D03*
%TD*%
D15*
%TO.C,C9*%
X181075113Y-109296335D03*
D16*
X178575113Y-109296335D03*
%TD*%
%TO.C,C17*%
X201320000Y-108805000D03*
X201320000Y-103805000D03*
%TD*%
D18*
%TO.C,U1*%
X199775112Y-57017741D03*
D19*
X199775112Y-59557741D03*
X199775112Y-62097741D03*
X199775112Y-64637741D03*
X199775112Y-67177741D03*
%TD*%
D22*
%TO.C,Power SW*%
X225880000Y-98620000D03*
D23*
X225880000Y-96120000D03*
%TD*%
D16*
%TO.C,C8*%
X199775112Y-49259315D03*
X199775112Y-54259315D03*
%TD*%
%TO.C,C7*%
X199775112Y-88630454D03*
X199775112Y-83630454D03*
%TD*%
D14*
%TO.C,J2*%
X163210000Y-127890000D03*
X163210000Y-121090000D03*
X171360000Y-130740000D03*
X171360000Y-118240000D03*
X165010000Y-130740000D03*
X160310000Y-127890000D03*
X160310000Y-121090000D03*
X165010000Y-118240000D03*
X166810000Y-121090000D03*
X177710000Y-118240000D03*
X166810000Y-127890000D03*
X177710000Y-130740000D03*
%TD*%
D16*
%TO.C,C6*%
X180300000Y-49259315D03*
X180300000Y-54259315D03*
%TD*%
D11*
%TO.C,BT2*%
X255311456Y-59490000D03*
X233111456Y-74240000D03*
X255311456Y-87490000D03*
D12*
X237861456Y-98390000D03*
D13*
X250561456Y-98390000D03*
%TD*%
D16*
%TO.C,C3*%
X190010000Y-49259315D03*
X190010000Y-54259315D03*
%TD*%
M02*
