%TF.GenerationSoftware,KiCad,Pcbnew,(6.0.0)*%
%TF.CreationDate,2022-02-22T13:24:48+00:00*%
%TF.ProjectId,Tube Headphone project V3,54756265-2048-4656-9164-70686f6e6520,rev?*%
%TF.SameCoordinates,Original*%
%TF.FileFunction,Soldermask,Top*%
%TF.FilePolarity,Negative*%
%FSLAX46Y46*%
G04 Gerber Fmt 4.6, Leading zero omitted, Abs format (unit mm)*
G04 Created by KiCad (PCBNEW (6.0.0)) date 2022-02-22 13:24:48*
%MOMM*%
%LPD*%
G01*
G04 APERTURE LIST*
G04 Aperture macros list*
%AMRoundRect*
0 Rectangle with rounded corners*
0 $1 Rounding radius*
0 $2 $3 $4 $5 $6 $7 $8 $9 X,Y pos of 4 corners*
0 Add a 4 corners polygon primitive as box body*
4,1,4,$2,$3,$4,$5,$6,$7,$8,$9,$2,$3,0*
0 Add four circle primitives for the rounded corners*
1,1,$1+$1,$2,$3*
1,1,$1+$1,$4,$5*
1,1,$1+$1,$6,$7*
1,1,$1+$1,$8,$9*
0 Add four rect primitives between the rounded corners*
20,1,$1+$1,$2,$3,$4,$5,0*
20,1,$1+$1,$4,$5,$6,$7,0*
20,1,$1+$1,$6,$7,$8,$9,0*
20,1,$1+$1,$8,$9,$2,$3,0*%
G04 Aperture macros list end*
%ADD10C,2.600000*%
%ADD11R,3.000000X3.000000*%
%ADD12C,3.000000*%
%ADD13RoundRect,0.250000X0.625000X-0.400000X0.625000X0.400000X-0.625000X0.400000X-0.625000X-0.400000X0*%
%ADD14C,1.950000*%
%ADD15RoundRect,0.237500X0.237500X-0.300000X0.237500X0.300000X-0.237500X0.300000X-0.237500X-0.300000X0*%
%ADD16RoundRect,0.250000X0.400000X0.625000X-0.400000X0.625000X-0.400000X-0.625000X0.400000X-0.625000X0*%
%ADD17R,1.600000X1.600000*%
%ADD18C,1.600000*%
%ADD19O,1.600000X1.600000*%
%ADD20R,1.800000X1.800000*%
%ADD21C,1.800000*%
%ADD22R,2.000000X2.000000*%
%ADD23C,2.000000*%
%ADD24R,3.000000X5.500000*%
%ADD25RoundRect,0.250000X-0.625000X0.400000X-0.625000X-0.400000X0.625000X-0.400000X0.625000X0.400000X0*%
%ADD26RoundRect,0.250001X-0.624999X0.462499X-0.624999X-0.462499X0.624999X-0.462499X0.624999X0.462499X0*%
%ADD27RoundRect,0.250001X0.624999X-0.462499X0.624999X0.462499X-0.624999X0.462499X-0.624999X-0.462499X0*%
%ADD28RoundRect,0.250000X-0.400000X-0.625000X0.400000X-0.625000X0.400000X0.625000X-0.400000X0.625000X0*%
%ADD29RoundRect,0.155000X-0.155000X0.212500X-0.155000X-0.212500X0.155000X-0.212500X0.155000X0.212500X0*%
%ADD30R,3.000000X2.900000*%
%ADD31RoundRect,0.150000X0.512500X0.150000X-0.512500X0.150000X-0.512500X-0.150000X0.512500X-0.150000X0*%
%ADD32RoundRect,0.160000X-0.160000X0.197500X-0.160000X-0.197500X0.160000X-0.197500X0.160000X0.197500X0*%
%ADD33RoundRect,0.160000X0.160000X-0.197500X0.160000X0.197500X-0.160000X0.197500X-0.160000X-0.197500X0*%
%ADD34RoundRect,0.250000X0.750000X-0.600000X0.750000X0.600000X-0.750000X0.600000X-0.750000X-0.600000X0*%
%ADD35O,2.000000X1.700000*%
G04 APERTURE END LIST*
D10*
%TO.C,BT1*%
X245810000Y-107150000D03*
X217810000Y-107150000D03*
X232560000Y-129350000D03*
D11*
X256710000Y-124600000D03*
D12*
X256710000Y-111900000D03*
%TD*%
D13*
%TO.C,R3*%
X204390000Y-81190000D03*
X204390000Y-78090000D03*
%TD*%
D14*
%TO.C,J1*%
X171390000Y-100552670D03*
X171390000Y-88052670D03*
X163240000Y-97702670D03*
X163240000Y-90902670D03*
X165040000Y-88052670D03*
X160340000Y-90902670D03*
X165040000Y-100552670D03*
X160340000Y-97702670D03*
X166840000Y-90902670D03*
X166840000Y-97702670D03*
X177740000Y-100552670D03*
X177740000Y-88052670D03*
%TD*%
D15*
%TO.C,C15*%
X217800000Y-100822500D03*
X217800000Y-99097500D03*
%TD*%
D16*
%TO.C,R11*%
X208510000Y-101230332D03*
X205410000Y-101230332D03*
%TD*%
D17*
%TO.C,C13*%
X211161167Y-65810000D03*
D18*
X213661167Y-65810000D03*
%TD*%
D15*
%TO.C,C1*%
X209583119Y-95582500D03*
X209583119Y-93857500D03*
%TD*%
D17*
%TO.C,U3*%
X184805000Y-102505000D03*
D19*
X184805000Y-105045000D03*
X184805000Y-107585000D03*
X184805000Y-110125000D03*
X192425000Y-110125000D03*
X192425000Y-107585000D03*
X192425000Y-105045000D03*
X192425000Y-102505000D03*
%TD*%
D20*
%TO.C,U2*%
X199775112Y-80850000D03*
D21*
X199775112Y-78310000D03*
X199775112Y-75770000D03*
X199775112Y-73230000D03*
X199775112Y-70690000D03*
%TD*%
D17*
%TO.C,C5*%
X211161167Y-72240000D03*
D18*
X213661167Y-72240000D03*
%TD*%
D21*
%TO.C,RV1*%
X163700000Y-50070000D03*
X163700000Y-52570000D03*
X163700000Y-55070000D03*
X166200000Y-50070000D03*
X166200000Y-52570000D03*
X166200000Y-55070000D03*
%TD*%
D22*
%TO.C,C10*%
X220137362Y-71530591D03*
X218137362Y-72202735D03*
D23*
X222137362Y-65858447D03*
X220137362Y-66530591D03*
%TD*%
D13*
%TO.C,R10*%
X196932449Y-110755000D03*
X196932449Y-107655000D03*
%TD*%
D15*
%TO.C,C14*%
X219360198Y-100822500D03*
X219360198Y-99097500D03*
%TD*%
D22*
%TO.C,C12*%
X191627689Y-131938024D03*
X190955545Y-129938024D03*
D23*
X185283401Y-127938024D03*
X185955545Y-129938024D03*
%TD*%
D22*
%TO.C,C11*%
X190955545Y-118841976D03*
X191627689Y-120841976D03*
D23*
X185955545Y-118841976D03*
X185283401Y-116841976D03*
%TD*%
D24*
%TO.C,REF\u002A\u002A*%
X212280000Y-85540000D03*
X221780000Y-85540000D03*
%TD*%
D25*
%TO.C,R2*%
X204390000Y-56660000D03*
X204390000Y-59760000D03*
%TD*%
D17*
%TO.C,C9*%
X181075113Y-109296335D03*
D18*
X178575113Y-109296335D03*
%TD*%
D26*
%TO.C,D2*%
X216690000Y-48015000D03*
X216690000Y-50990000D03*
%TD*%
D27*
%TO.C,D1*%
X224090000Y-50945000D03*
X224090000Y-47970000D03*
%TD*%
D16*
%TO.C,R5*%
X201390000Y-91650000D03*
X198290000Y-91650000D03*
%TD*%
%TO.C,R9*%
X174510000Y-107476335D03*
X171410000Y-107476335D03*
%TD*%
D28*
%TO.C,R6*%
X204955112Y-49260000D03*
X208055112Y-49260000D03*
%TD*%
D29*
%TO.C,C2*%
X220964485Y-94158629D03*
X220964485Y-95293629D03*
%TD*%
D13*
%TO.C,R1*%
X220390000Y-51030000D03*
X220390000Y-47930000D03*
%TD*%
D30*
%TO.C,L1*%
X209180000Y-85540000D03*
X224880000Y-85540000D03*
%TD*%
D18*
%TO.C,C17*%
X201320000Y-108805000D03*
X201320000Y-103805000D03*
%TD*%
D31*
%TO.C,U4*%
X218167500Y-95686129D03*
X218167500Y-94736129D03*
X218167500Y-93786129D03*
X215892500Y-93786129D03*
X215892500Y-94736129D03*
X215892500Y-95686129D03*
%TD*%
D32*
%TO.C,R13*%
X213152150Y-94128629D03*
X213152150Y-95323629D03*
%TD*%
D20*
%TO.C,U1*%
X199775112Y-57017741D03*
D21*
X199775112Y-59557741D03*
X199775112Y-62097741D03*
X199775112Y-64637741D03*
X199775112Y-67177741D03*
%TD*%
D33*
%TO.C,R12*%
X211582150Y-95323629D03*
X211582150Y-94128629D03*
%TD*%
D34*
%TO.C,Power SW*%
X225880000Y-98620000D03*
D35*
X225880000Y-96120000D03*
%TD*%
D16*
%TO.C,R4*%
X207500000Y-76030000D03*
X204400000Y-76030000D03*
%TD*%
D15*
%TO.C,C16*%
X216239803Y-100822500D03*
X216239803Y-99097500D03*
%TD*%
D18*
%TO.C,C8*%
X199775112Y-49259315D03*
X199775112Y-54259315D03*
%TD*%
%TO.C,C7*%
X199775112Y-88630454D03*
X199775112Y-83630454D03*
%TD*%
D25*
%TO.C,R7*%
X196932449Y-101855000D03*
X196932449Y-104955000D03*
%TD*%
D15*
%TO.C,C4*%
X214679606Y-100822500D03*
X214679606Y-99097500D03*
%TD*%
D14*
%TO.C,J2*%
X163210000Y-127890000D03*
X163210000Y-121090000D03*
X171360000Y-130740000D03*
X171360000Y-118240000D03*
X165010000Y-130740000D03*
X160310000Y-127890000D03*
X160310000Y-121090000D03*
X165010000Y-118240000D03*
X166810000Y-121090000D03*
X177710000Y-118240000D03*
X166810000Y-127890000D03*
X177710000Y-130740000D03*
%TD*%
D18*
%TO.C,C6*%
X180300000Y-49259315D03*
X180300000Y-54259315D03*
%TD*%
D10*
%TO.C,BT2*%
X255953552Y-59517629D03*
X233753552Y-74267629D03*
X255953552Y-87517629D03*
D11*
X238503552Y-98417629D03*
D12*
X251203552Y-98417629D03*
%TD*%
D16*
%TO.C,R8*%
X174510000Y-111116335D03*
X171410000Y-111116335D03*
%TD*%
D18*
%TO.C,C3*%
X190010000Y-49259315D03*
X190010000Y-54259315D03*
%TD*%
M02*
