M48
; DRILL file {KiCad (6.0.0)} date Wed Aug  3 23:01:33 2022
; FORMAT={-:-/ absolute / inch / decimal}
; #@! TF.CreationDate,2022-08-03T23:01:33+01:00
; #@! TF.GenerationSoftware,Kicad,Pcbnew,(6.0.0)
; #@! TF.FileFunction,Plated,1,2,PTH
FMAT,2
INCH
; #@! TA.AperFunction,Plated,PTH,ViaDrill
T1C0.0315
; #@! TA.AperFunction,Plated,PTH,ComponentDrill
T2C0.0315
; #@! TA.AperFunction,Plated,PTH,ComponentDrill
T3C0.0394
; #@! TA.AperFunction,Plated,PTH,ComponentDrill
T4C0.0472
; #@! TA.AperFunction,Plated,PTH,ComponentDrill
T5C0.0750
; #@! TA.AperFunction,Plated,PTH,ComponentDrill
T6C0.0787
; #@! TA.AperFunction,Plated,PTH,ComponentDrill
T7C0.0984
%
G90
G05
T1
X5.048Y-4.7
X5.048Y-4.8
X5.048Y-4.9
X5.048Y-5.0
X5.048Y-5.1
X5.148Y-4.7
X5.148Y-4.8
X5.148Y-4.9
X5.148Y-5.0
X5.148Y-5.1
X5.248Y-4.7
X5.248Y-4.8
X5.248Y-4.9
X5.248Y-5.0
X5.248Y-5.1
X5.348Y-4.7
X5.348Y-4.8
X5.348Y-4.9
X5.348Y-5.0
X5.348Y-5.1
X5.448Y-4.7
X5.448Y-4.8
X5.448Y-4.9
X5.448Y-5.0
X5.448Y-5.1
X5.548Y-4.7
X5.548Y-4.8
X5.548Y-4.9
X5.548Y-5.0
X5.548Y-5.1
X5.648Y-4.7
X5.648Y-4.8
X5.648Y-4.9
X5.648Y-5.0
X5.648Y-5.1
X5.748Y-4.7
X5.748Y-4.8
X5.748Y-4.9
X5.748Y-5.0
X5.748Y-5.1
X7.394Y-2.596
X7.394Y-2.696
X7.394Y-2.796
X7.394Y-2.896
X7.394Y-2.996
X7.396Y-4.7
X7.396Y-4.8
X7.396Y-4.9
X7.396Y-5.0
X7.396Y-5.1
X7.494Y-2.596
X7.494Y-2.696
X7.494Y-2.796
X7.494Y-2.896
X7.494Y-2.996
X7.496Y-4.7
X7.496Y-4.8
X7.496Y-4.9
X7.496Y-5.0
X7.496Y-5.1
X7.594Y-2.596
X7.594Y-2.696
X7.594Y-2.796
X7.594Y-2.896
X7.594Y-2.996
X7.596Y-4.7
X7.596Y-4.8
X7.596Y-4.9
X7.596Y-5.0
X7.596Y-5.1
X7.694Y-2.596
X7.694Y-2.696
X7.694Y-2.796
X7.694Y-2.896
X7.694Y-2.996
X7.696Y-4.7
X7.696Y-4.8
X7.696Y-4.9
X7.696Y-5.0
X7.696Y-5.1
X7.794Y-2.596
X7.794Y-2.696
X7.794Y-2.796
X7.794Y-2.896
X7.794Y-2.996
X7.796Y-4.7
X7.796Y-4.8
X7.796Y-4.9
X7.796Y-5.0
X7.796Y-5.1
X7.894Y-2.596
X7.894Y-2.696
X7.894Y-2.796
X7.894Y-2.896
X7.894Y-2.996
X7.896Y-4.7
X7.896Y-4.8
X7.896Y-4.9
X7.896Y-5.0
X7.896Y-5.1
X7.994Y-2.596
X7.994Y-2.696
X7.994Y-2.796
X7.994Y-2.896
X7.994Y-2.996
X7.996Y-4.7
X7.996Y-4.8
X7.996Y-4.9
X7.996Y-5.0
X7.996Y-5.1
X8.094Y-2.596
X8.094Y-2.696
X8.094Y-2.796
X8.094Y-2.896
X8.094Y-2.996
X8.096Y-4.7
X8.096Y-4.8
X8.096Y-4.9
X8.096Y-5.0
X8.096Y-5.1
T2
X6.042Y-3.33
X6.042Y-3.41
X6.042Y-3.4917
X6.042Y-3.7917
X6.042Y-3.9217
X6.042Y-4.2217
X6.042Y-4.302
X6.042Y-4.382
T3
X7.738Y-3.164
X7.738Y-3.2956
X7.738Y-3.422
X7.738Y-3.6893
X7.738Y-4.024
X7.738Y-4.288
X7.738Y-4.4177
X7.738Y-4.546
T4
X3.1511Y-3.5669
X3.1511Y-4.1669
X3.1511Y-4.2829
X3.1511Y-4.8829
X3.3151Y-3.5669
X3.3151Y-4.1669
X3.3151Y-4.2829
X3.3151Y-4.8829
X5.142Y-3.17
X5.142Y-3.3153
X5.142Y-3.466
X5.142Y-4.252
X5.142Y-4.398
X5.142Y-4.546
X5.6895Y-3.17
X5.6895Y-3.466
X5.69Y-3.3153
X5.69Y-4.252
X5.69Y-4.398
X5.69Y-4.546
X6.2Y-2.8447
X6.2Y-4.8347
X7.0Y-2.8447
X7.0Y-4.8347
X7.346Y-3.466
X7.348Y-3.168
X7.348Y-3.3153
X7.348Y-4.254
X7.348Y-4.398
X7.348Y-4.544
X8.126Y-3.3153
X8.126Y-3.466
X8.126Y-4.254
X8.126Y-4.398
X8.126Y-4.544
X8.128Y-3.168
T5
X3.1328Y-2.7989
X3.1328Y-3.0749
X3.3298Y-2.7989
X3.3298Y-3.0749
X5.0874Y-2.7399
X5.0874Y-2.9369
X5.3634Y-2.7399
X5.3634Y-2.9369
X6.246Y-3.2302
X6.246Y-4.4302
X6.946Y-3.2302
X6.946Y-4.4302
X8.5364Y-4.6774
X8.5364Y-4.9534
X8.5392Y-2.7506
X8.5392Y-3.0266
X8.5438Y-3.7172
X8.5438Y-3.9932
X8.7334Y-4.6774
X8.7334Y-4.9534
X8.7362Y-2.7506
X8.7362Y-3.0266
X8.7408Y-3.7172
X8.7408Y-3.9932
T6
X4.1482Y-2.946
X4.1482Y-3.3397
X4.1482Y-4.3817
X4.1482Y-4.7754
T7
X3.2298Y-2.9367
X5.2252Y-2.8399
X8.6334Y-4.8152
X8.6362Y-2.8884
X8.6408Y-3.8549
T0
M30
