%TF.GenerationSoftware,KiCad,Pcbnew,(6.0.0)*%
%TF.CreationDate,2022-08-03T23:01:30+01:00*%
%TF.ProjectId,EMI-DC BLOCKR FILTER,454d492d-4443-4204-924c-4f434b522046,rev?*%
%TF.SameCoordinates,Original*%
%TF.FileFunction,Copper,L2,Bot*%
%TF.FilePolarity,Positive*%
%FSLAX46Y46*%
G04 Gerber Fmt 4.6, Leading zero omitted, Abs format (unit mm)*
G04 Created by KiCad (PCBNEW (6.0.0)) date 2022-08-03 23:01:30*
%MOMM*%
%LPD*%
G01*
G04 APERTURE LIST*
%TA.AperFunction,ComponentPad*%
%ADD10C,2.400000*%
%TD*%
%TA.AperFunction,ComponentPad*%
%ADD11R,2.400000X2.400000*%
%TD*%
%TA.AperFunction,ComponentPad*%
%ADD12O,2.400000X2.400000*%
%TD*%
%TA.AperFunction,ComponentPad*%
%ADD13C,5.000000*%
%TD*%
%TA.AperFunction,ComponentPad*%
%ADD14C,4.000000*%
%TD*%
%TA.AperFunction,ComponentPad*%
%ADD15C,2.000000*%
%TD*%
%TA.AperFunction,ComponentPad*%
%ADD16O,1.600000X1.600000*%
%TD*%
%TA.AperFunction,ComponentPad*%
%ADD17R,4.000000X4.000000*%
%TD*%
%TA.AperFunction,ComponentPad*%
%ADD18C,1.600000*%
%TD*%
%TA.AperFunction,ComponentPad*%
%ADD19C,2.857500*%
%TD*%
%TA.AperFunction,ComponentPad*%
%ADD20R,2.857500X2.857500*%
%TD*%
%TA.AperFunction,ViaPad*%
%ADD21C,1.500000*%
%TD*%
G04 APERTURE END LIST*
D10*
%TO.P,,1*%
%TO.N,/HOT_OUT*%
X186639200Y-108051600D03*
%TD*%
%TO.P,,2*%
%TO.N,/NEUTRAL_IN*%
X130606800Y-80518000D03*
%TD*%
D11*
%TO.P,D4,1,K*%
%TO.N,/HOT_IN*%
X80037756Y-124026917D03*
D12*
%TO.P,D4,2,A*%
%TO.N,Net-(D1-Pad2)*%
X80037756Y-108786917D03*
%TD*%
D10*
%TO.P,,2*%
%TO.N,/NEUTRAL_OUT*%
X186588400Y-88036400D03*
%TD*%
D13*
%TO.P,J2,1,Pin_1*%
%TO.N,/EARTH*%
X219475349Y-97915616D03*
D14*
X222015349Y-94415616D03*
X217011549Y-101426016D03*
X222015349Y-101426016D03*
X217011549Y-94415616D03*
%TD*%
D11*
%TO.P,D3,1,K*%
%TO.N,Net-(D1-Pad2)*%
X84203356Y-108786917D03*
D12*
%TO.P,D3,2,A*%
%TO.N,/HOT_IN*%
X84203356Y-124026917D03*
%TD*%
D15*
%TO.P,,2*%
%TO.N,/NEUTRAL_OUT*%
X196545200Y-80365600D03*
%TD*%
D16*
%TO.P,,2*%
%TO.N,/NEUTRAL_IN*%
X153466800Y-84582000D03*
%TD*%
D11*
%TO.P,D1,1,K*%
%TO.N,/DC_IN*%
X84203356Y-90600517D03*
D12*
%TO.P,D1,2,A*%
%TO.N,Net-(D1-Pad2)*%
X84203356Y-105840517D03*
%TD*%
D17*
%TO.P,C1,1*%
%TO.N,Net-(C1-Pad1)*%
X105363357Y-84827400D03*
D14*
%TO.P,C1,2*%
%TO.N,/DC_IN*%
X105363357Y-74827400D03*
%TD*%
D10*
%TO.P,,2*%
%TO.N,/NEUTRAL_OUT*%
X186639200Y-80467200D03*
%TD*%
D11*
%TO.P,D2,1,K*%
%TO.N,Net-(D1-Pad2)*%
X80037756Y-105840517D03*
D12*
%TO.P,D2,2,A*%
%TO.N,/DC_IN*%
X80037756Y-90600517D03*
%TD*%
D10*
%TO.P,,2*%
%TO.N,/NEUTRAL_IN*%
X144513993Y-80518000D03*
%TD*%
%TO.P,C4,1*%
%TO.N,/HOT_IN*%
X144526000Y-111709200D03*
%TO.P,C4,2*%
%TO.N,/NEUTRAL_IN*%
X144526000Y-84209200D03*
%TD*%
%TO.P,C5,1*%
%TO.N,/HOT_OUT*%
X186639200Y-111709200D03*
%TO.P,C5,2*%
%TO.N,/NEUTRAL_OUT*%
X186639200Y-84209200D03*
%TD*%
%TO.P,,2*%
%TO.N,/NEUTRAL_OUT*%
X206400400Y-88036400D03*
%TD*%
D18*
%TO.P,,1*%
%TO.N,/HOT_IN*%
X153466800Y-109270800D03*
%TD*%
D15*
%TO.P,,1*%
%TO.N,/HOT_OUT*%
X196545200Y-115468400D03*
%TD*%
D10*
%TO.P,,1*%
%TO.N,/HOT_OUT*%
X206400400Y-108051600D03*
%TD*%
%TO.P,,1*%
%TO.N,/HOT_OUT*%
X186639200Y-115417600D03*
%TD*%
D16*
%TO.P,,2*%
%TO.N,/NEUTRAL_IN*%
X153466800Y-86614000D03*
%TD*%
D10*
%TO.P,,1*%
%TO.N,/HOT_IN*%
X144526000Y-108000800D03*
%TD*%
%TO.P,R4,1*%
%TO.N,/NEUTRAL_IN*%
X157480000Y-72254400D03*
D12*
%TO.P,R4,2*%
%TO.N,/NEUTRAL_OUT*%
X177800000Y-72254400D03*
%TD*%
D18*
%TO.P,R1,1*%
%TO.N,/HOT_IN*%
X153466800Y-107230200D03*
D16*
%TO.P,R1,2*%
%TO.N,Net-(R1-Pad2)*%
X153466800Y-99610200D03*
%TD*%
D10*
%TO.P,,2*%
%TO.N,/NEUTRAL_IN*%
X130606800Y-88036400D03*
%TD*%
D18*
%TO.P,R2,1*%
%TO.N,Net-(R1-Pad2)*%
X153466800Y-96308200D03*
D16*
%TO.P,R2,2*%
%TO.N,/NEUTRAL_IN*%
X153466800Y-88688200D03*
%TD*%
D10*
%TO.P,,1*%
%TO.N,/HOT_IN*%
X130606800Y-108000800D03*
%TD*%
%TO.P,R3,1*%
%TO.N,/HOT_IN*%
X157480000Y-122800400D03*
D12*
%TO.P,R3,2*%
%TO.N,/HOT_OUT*%
X177800000Y-122800400D03*
%TD*%
D17*
%TO.P,C2,1*%
%TO.N,Net-(C1-Pad1)*%
X105363357Y-111294200D03*
D14*
%TO.P,C2,2*%
%TO.N,/HOT_IN*%
X105363357Y-121294200D03*
%TD*%
D10*
%TO.P,,1*%
%TO.N,/HOT_IN*%
X144526000Y-115468400D03*
%TD*%
D15*
%TO.P,,2*%
%TO.N,/NEUTRAL_OUT*%
X196545200Y-86918800D03*
%TD*%
%TO.P,,1*%
%TO.N,/HOT_OUT*%
X196545200Y-108915200D03*
%TD*%
D14*
%TO.P,J4,1,Pin_1*%
%TO.N,/HOT_OUT*%
X216824907Y-125817135D03*
X221828707Y-118806735D03*
X221828707Y-125817135D03*
X216824907Y-118806735D03*
D13*
X219288707Y-122306735D03*
%TD*%
D10*
%TO.P,C3,1*%
%TO.N,/HOT_IN*%
X130606800Y-111709200D03*
%TO.P,C3,2*%
%TO.N,/NEUTRAL_IN*%
X130606800Y-84209200D03*
%TD*%
D15*
%TO.P,C8,1*%
%TO.N,/EARTH*%
X196545200Y-93709200D03*
%TO.P,C8,2*%
%TO.N,/NEUTRAL_OUT*%
X196545200Y-83709200D03*
%TD*%
D10*
%TO.P,C6,1*%
%TO.N,/HOT_OUT*%
X206400400Y-111709200D03*
%TO.P,C6,2*%
%TO.N,/NEUTRAL_OUT*%
X206400400Y-84209200D03*
%TD*%
D18*
%TO.P,,1*%
%TO.N,/HOT_IN*%
X153466800Y-111302800D03*
%TD*%
D14*
%TO.P,J6,1,Pin_1*%
%TO.N,/NEUTRAL_OUT*%
X216894757Y-76876903D03*
X221898557Y-76876903D03*
X216894757Y-69866503D03*
X221898557Y-69866503D03*
D13*
X219358557Y-73366503D03*
%TD*%
D10*
%TO.P,,1*%
%TO.N,/HOT_IN*%
X130606800Y-115468400D03*
%TD*%
D14*
%TO.P,J1,1,Pin_1*%
%TO.N,/DC_IN*%
X84578006Y-78103717D03*
X84578006Y-71093317D03*
X79574206Y-78103717D03*
D13*
X82038006Y-74593317D03*
D14*
X79574206Y-71093317D03*
%TD*%
D10*
%TO.P,,1*%
%TO.N,/HOT_OUT*%
X206400400Y-115417600D03*
%TD*%
%TO.P,,2*%
%TO.N,/NEUTRAL_IN*%
X144513993Y-88036400D03*
%TD*%
D15*
%TO.P,C7,1*%
%TO.N,/HOT_OUT*%
X196545200Y-112209200D03*
%TO.P,C7,2*%
%TO.N,/EARTH*%
X196545200Y-102209200D03*
%TD*%
D10*
%TO.P,,2*%
%TO.N,/NEUTRAL_OUT*%
X206451200Y-80467200D03*
%TD*%
D14*
%TO.P,J3,1,Pin_1*%
%TO.N,/NEUTRAL_IN*%
X136230707Y-69593750D03*
X129220307Y-74597550D03*
X136230707Y-74597550D03*
X129220307Y-69593750D03*
D13*
X132720307Y-72133750D03*
%TD*%
D19*
%TO.P,FL1,1,1*%
%TO.N,/HOT_IN*%
X158648400Y-112525897D03*
D20*
%TO.P,FL1,2,2*%
%TO.N,/HOT_OUT*%
X176428400Y-112525897D03*
D19*
%TO.P,FL1,3,3*%
%TO.N,/NEUTRAL_IN*%
X158648400Y-82045897D03*
%TO.P,FL1,4,4*%
%TO.N,/NEUTRAL_OUT*%
X176428400Y-82045897D03*
%TD*%
D21*
%TO.N,/HOT_IN*%
X143459200Y-127000000D03*
X130759200Y-121920000D03*
X135839200Y-129540000D03*
X128219200Y-119380000D03*
X143459200Y-124460000D03*
X143459200Y-129540000D03*
X130759200Y-129540000D03*
X140919200Y-124460000D03*
X145999200Y-127000000D03*
X145999200Y-121920000D03*
X133299200Y-129540000D03*
X128219200Y-127000000D03*
X140919200Y-129540000D03*
X138379200Y-129540000D03*
X138379200Y-124460000D03*
X130759200Y-119380000D03*
X133299200Y-119380000D03*
X135839200Y-124460000D03*
X145999200Y-119380000D03*
X133299200Y-124460000D03*
X130759200Y-124460000D03*
X138379200Y-121920000D03*
X130759200Y-127000000D03*
X138379200Y-119380000D03*
X135839200Y-121920000D03*
X140919200Y-121920000D03*
X133299200Y-121920000D03*
X145999200Y-129540000D03*
X145999200Y-124460000D03*
X135839200Y-127000000D03*
X128219200Y-124460000D03*
X140919200Y-119380000D03*
X133299200Y-127000000D03*
X138379200Y-127000000D03*
X143459200Y-121920000D03*
X135839200Y-119380000D03*
X128219200Y-121920000D03*
X128219200Y-129540000D03*
X143459200Y-119380000D03*
X140919200Y-127000000D03*
%TO.N,/HOT_OUT*%
X187858400Y-129540000D03*
X198018400Y-121920000D03*
X192938400Y-124460000D03*
X198018400Y-124460000D03*
X195478400Y-121920000D03*
X198018400Y-129540000D03*
X200558400Y-127000000D03*
X200558400Y-124460000D03*
X192938400Y-129540000D03*
X192938400Y-119380000D03*
X195478400Y-119380000D03*
X187858400Y-119380000D03*
X203098400Y-124460000D03*
X205638400Y-121920000D03*
X205638400Y-119380000D03*
X203098400Y-129540000D03*
X192938400Y-121920000D03*
X200558400Y-121920000D03*
X190398400Y-121920000D03*
X205638400Y-129540000D03*
X195478400Y-127000000D03*
X190398400Y-127000000D03*
X198018400Y-127000000D03*
X200558400Y-129540000D03*
X195478400Y-129540000D03*
X190398400Y-124460000D03*
X200558400Y-119380000D03*
X203098400Y-121920000D03*
X205638400Y-124460000D03*
X192938400Y-127000000D03*
X203098400Y-119380000D03*
X190398400Y-129540000D03*
X190398400Y-119380000D03*
X195478400Y-124460000D03*
X187858400Y-124460000D03*
X187858400Y-127000000D03*
X198018400Y-119380000D03*
X203098400Y-127000000D03*
X205638400Y-127000000D03*
X187858400Y-121920000D03*
%TO.N,/NEUTRAL_OUT*%
X203047600Y-71018400D03*
X200507600Y-71018400D03*
X197967600Y-73558400D03*
X195427600Y-71018400D03*
X203047600Y-73558400D03*
X203047600Y-68478400D03*
X187807600Y-76098400D03*
X205587600Y-65938400D03*
X190347600Y-68478400D03*
X190347600Y-71018400D03*
X205587600Y-71018400D03*
X192887600Y-68478400D03*
X190347600Y-73558400D03*
X192887600Y-71018400D03*
X197967600Y-76098400D03*
X192887600Y-76098400D03*
X195427600Y-73558400D03*
X203047600Y-76098400D03*
X200507600Y-68478400D03*
X203047600Y-65938400D03*
X200507600Y-73558400D03*
X197967600Y-71018400D03*
X190347600Y-65938400D03*
X192887600Y-73558400D03*
X205587600Y-73558400D03*
X190347600Y-76098400D03*
X192887600Y-65938400D03*
X187807600Y-65938400D03*
X195427600Y-76098400D03*
X205587600Y-68478400D03*
X187807600Y-68478400D03*
X205587600Y-76098400D03*
X197967600Y-68478400D03*
X195427600Y-68478400D03*
X197967600Y-65938400D03*
X187807600Y-73558400D03*
X200507600Y-76098400D03*
X187807600Y-71018400D03*
X195427600Y-65938400D03*
X200507600Y-65938400D03*
%TD*%
%TA.AperFunction,Conductor*%
%TO.N,/NEUTRAL_IN*%
G36*
X163605729Y-62617324D02*
G01*
X163896847Y-62701194D01*
X163910168Y-62705855D01*
X164207918Y-62829187D01*
X164220641Y-62835314D01*
X164436931Y-62954853D01*
X164502706Y-62991206D01*
X164514670Y-62998724D01*
X164777494Y-63185209D01*
X164788540Y-63194018D01*
X165028843Y-63408765D01*
X165038835Y-63418757D01*
X165253582Y-63659060D01*
X165262391Y-63670106D01*
X165448876Y-63932930D01*
X165456394Y-63944894D01*
X165612284Y-64226955D01*
X165618413Y-64239682D01*
X165741745Y-64537432D01*
X165746406Y-64550753D01*
X165808007Y-64764572D01*
X165835625Y-64860438D01*
X165838769Y-64874213D01*
X165892752Y-65191931D01*
X165894334Y-65205972D01*
X165912602Y-65531274D01*
X165912800Y-65538339D01*
X165912800Y-91433661D01*
X165912602Y-91440726D01*
X165894334Y-91766028D01*
X165892752Y-91780069D01*
X165838769Y-92097787D01*
X165835625Y-92111562D01*
X165746406Y-92421247D01*
X165741745Y-92434568D01*
X165618415Y-92732314D01*
X165612284Y-92745045D01*
X165456394Y-93027106D01*
X165448876Y-93039070D01*
X165262391Y-93301894D01*
X165253582Y-93312940D01*
X165038835Y-93553243D01*
X165028843Y-93563235D01*
X164788540Y-93777982D01*
X164777494Y-93786791D01*
X164514670Y-93973276D01*
X164502706Y-93980794D01*
X164220641Y-94136686D01*
X164207918Y-94142813D01*
X163910168Y-94266145D01*
X163896847Y-94270806D01*
X163683028Y-94332407D01*
X163587162Y-94360025D01*
X163573387Y-94363169D01*
X163414528Y-94390161D01*
X163255664Y-94417153D01*
X163241632Y-94418734D01*
X162916326Y-94437002D01*
X162909261Y-94437200D01*
X154845663Y-94437200D01*
X154775661Y-94415965D01*
X154622951Y-94313928D01*
X154619518Y-94311634D01*
X154615819Y-94309810D01*
X154615814Y-94309807D01*
X154476966Y-94241335D01*
X154349052Y-94178255D01*
X154345146Y-94176929D01*
X154067404Y-94082648D01*
X154067400Y-94082647D01*
X154063491Y-94081320D01*
X154059447Y-94080516D01*
X154059441Y-94080514D01*
X153771759Y-94023290D01*
X153771753Y-94023289D01*
X153767720Y-94022487D01*
X153763615Y-94022218D01*
X153763608Y-94022217D01*
X153470919Y-94003034D01*
X153466800Y-94002764D01*
X153462681Y-94003034D01*
X153169992Y-94022217D01*
X153169985Y-94022218D01*
X153165880Y-94022487D01*
X153161847Y-94023289D01*
X153161841Y-94023290D01*
X152874159Y-94080514D01*
X152874153Y-94080516D01*
X152870109Y-94081320D01*
X152866200Y-94082647D01*
X152866196Y-94082648D01*
X152588454Y-94176929D01*
X152584548Y-94178255D01*
X152456634Y-94241335D01*
X152317786Y-94309807D01*
X152317781Y-94309810D01*
X152314082Y-94311634D01*
X152310649Y-94313928D01*
X152157939Y-94415965D01*
X152087937Y-94437200D01*
X126904739Y-94437200D01*
X126897674Y-94437002D01*
X126572368Y-94418734D01*
X126558336Y-94417153D01*
X126399472Y-94390161D01*
X126240613Y-94363169D01*
X126226838Y-94360025D01*
X126130972Y-94332407D01*
X125917153Y-94270806D01*
X125903832Y-94266145D01*
X125606082Y-94142813D01*
X125593359Y-94136686D01*
X125311294Y-93980794D01*
X125299330Y-93973276D01*
X125036506Y-93786791D01*
X125025460Y-93777982D01*
X124785157Y-93563235D01*
X124775165Y-93553243D01*
X124560418Y-93312940D01*
X124551609Y-93301894D01*
X124365124Y-93039070D01*
X124357606Y-93027106D01*
X124201716Y-92745045D01*
X124195585Y-92732314D01*
X124072255Y-92434568D01*
X124067594Y-92421247D01*
X123978375Y-92111562D01*
X123975231Y-92097787D01*
X123921248Y-91780069D01*
X123919666Y-91766028D01*
X123901398Y-91440726D01*
X123901200Y-91433661D01*
X123901200Y-65538339D01*
X123901398Y-65531274D01*
X123919666Y-65205972D01*
X123921248Y-65191931D01*
X123975231Y-64874213D01*
X123978375Y-64860438D01*
X124005993Y-64764572D01*
X124067594Y-64550753D01*
X124072255Y-64537432D01*
X124195587Y-64239682D01*
X124201716Y-64226955D01*
X124357606Y-63944894D01*
X124365124Y-63932930D01*
X124551609Y-63670106D01*
X124560418Y-63659060D01*
X124775165Y-63418757D01*
X124785157Y-63408765D01*
X125025460Y-63194018D01*
X125036506Y-63185209D01*
X125299330Y-62998724D01*
X125311294Y-62991206D01*
X125377069Y-62954853D01*
X125593359Y-62835314D01*
X125606082Y-62829187D01*
X125903832Y-62705855D01*
X125917153Y-62701194D01*
X126208271Y-62617324D01*
X126243151Y-62612400D01*
X163570849Y-62612400D01*
X163605729Y-62617324D01*
G37*
%TD.AperFunction*%
%TD*%
%TA.AperFunction,Conductor*%
%TO.N,Net-(D1-Pad2)*%
G36*
X83348633Y-100736598D02*
G01*
X83673939Y-100754866D01*
X83687971Y-100756447D01*
X83846835Y-100783440D01*
X84005694Y-100810431D01*
X84019469Y-100813575D01*
X84115335Y-100841193D01*
X84329154Y-100902794D01*
X84342475Y-100907455D01*
X84640225Y-101030787D01*
X84652948Y-101036914D01*
X84869238Y-101156453D01*
X84935013Y-101192806D01*
X84946977Y-101200324D01*
X85209801Y-101386809D01*
X85220847Y-101395618D01*
X85461150Y-101610365D01*
X85471142Y-101620357D01*
X85685889Y-101860660D01*
X85694698Y-101871706D01*
X85881183Y-102134530D01*
X85888701Y-102146494D01*
X86044591Y-102428555D01*
X86050720Y-102441282D01*
X86174052Y-102739032D01*
X86178713Y-102752353D01*
X86240314Y-102966172D01*
X86267932Y-103062038D01*
X86271076Y-103075813D01*
X86325059Y-103393531D01*
X86326641Y-103407572D01*
X86344909Y-103732874D01*
X86345107Y-103739939D01*
X86345107Y-110788461D01*
X86344909Y-110795526D01*
X86326641Y-111120828D01*
X86325059Y-111134869D01*
X86271076Y-111452587D01*
X86267932Y-111466362D01*
X86178713Y-111776047D01*
X86174052Y-111789368D01*
X86050722Y-112087114D01*
X86044591Y-112099845D01*
X85888701Y-112381906D01*
X85881183Y-112393870D01*
X85694698Y-112656694D01*
X85685889Y-112667740D01*
X85471142Y-112908043D01*
X85461150Y-112918035D01*
X85220847Y-113132782D01*
X85209801Y-113141591D01*
X84946977Y-113328076D01*
X84935013Y-113335594D01*
X84652948Y-113491486D01*
X84640225Y-113497613D01*
X84342475Y-113620945D01*
X84329154Y-113625606D01*
X84115335Y-113687207D01*
X84019469Y-113714825D01*
X84005694Y-113717969D01*
X83846835Y-113744961D01*
X83687971Y-113771953D01*
X83673939Y-113773534D01*
X83348633Y-113791802D01*
X83341568Y-113792000D01*
X80966646Y-113792000D01*
X80959581Y-113791802D01*
X80634275Y-113773534D01*
X80620243Y-113771953D01*
X80461379Y-113744961D01*
X80302520Y-113717969D01*
X80288745Y-113714825D01*
X80192879Y-113687207D01*
X79979060Y-113625606D01*
X79965739Y-113620945D01*
X79667989Y-113497613D01*
X79655266Y-113491486D01*
X79373201Y-113335594D01*
X79361237Y-113328076D01*
X79098413Y-113141591D01*
X79087367Y-113132782D01*
X78847064Y-112918035D01*
X78837072Y-112908043D01*
X78622325Y-112667740D01*
X78613516Y-112656694D01*
X78427031Y-112393870D01*
X78419513Y-112381906D01*
X78263623Y-112099845D01*
X78257492Y-112087114D01*
X78134162Y-111789368D01*
X78129501Y-111776047D01*
X78040282Y-111466362D01*
X78037138Y-111452587D01*
X77983155Y-111134869D01*
X77981573Y-111120828D01*
X77963305Y-110795526D01*
X77963107Y-110788461D01*
X77963107Y-103739939D01*
X77963305Y-103732874D01*
X77981573Y-103407572D01*
X77983155Y-103393531D01*
X78037138Y-103075813D01*
X78040282Y-103062038D01*
X78067900Y-102966172D01*
X78129501Y-102752353D01*
X78134162Y-102739032D01*
X78257494Y-102441282D01*
X78263623Y-102428555D01*
X78419513Y-102146494D01*
X78427031Y-102134530D01*
X78613516Y-101871706D01*
X78622325Y-101860660D01*
X78837072Y-101620357D01*
X78847064Y-101610365D01*
X79087367Y-101395618D01*
X79098413Y-101386809D01*
X79361237Y-101200324D01*
X79373201Y-101192806D01*
X79438976Y-101156453D01*
X79655266Y-101036914D01*
X79667989Y-101030787D01*
X79965739Y-100907455D01*
X79979060Y-100902794D01*
X80192879Y-100841193D01*
X80288745Y-100813575D01*
X80302520Y-100810431D01*
X80461379Y-100783440D01*
X80620243Y-100756447D01*
X80634275Y-100754866D01*
X80959581Y-100736598D01*
X80966646Y-100736400D01*
X83341568Y-100736400D01*
X83348633Y-100736598D01*
G37*
%TD.AperFunction*%
%TD*%
%TA.AperFunction,Conductor*%
%TO.N,/HOT_IN*%
G36*
X152107653Y-101468835D02*
G01*
X152232707Y-101552393D01*
X152314082Y-101606766D01*
X152317781Y-101608590D01*
X152317786Y-101608593D01*
X152456634Y-101677065D01*
X152584548Y-101740145D01*
X152588453Y-101741471D01*
X152588454Y-101741471D01*
X152866196Y-101835752D01*
X152866200Y-101835753D01*
X152870109Y-101837080D01*
X152874153Y-101837884D01*
X152874159Y-101837886D01*
X153161841Y-101895110D01*
X153161847Y-101895111D01*
X153165880Y-101895913D01*
X153169985Y-101896182D01*
X153169992Y-101896183D01*
X153462681Y-101915366D01*
X153466800Y-101915636D01*
X153470919Y-101915366D01*
X153763608Y-101896183D01*
X153763615Y-101896182D01*
X153767720Y-101895913D01*
X153771753Y-101895111D01*
X153771759Y-101895110D01*
X154059441Y-101837886D01*
X154059447Y-101837884D01*
X154063491Y-101837080D01*
X154067400Y-101835753D01*
X154067404Y-101835752D01*
X154345146Y-101741471D01*
X154345147Y-101741471D01*
X154349052Y-101740145D01*
X154476966Y-101677065D01*
X154615814Y-101608593D01*
X154615819Y-101608590D01*
X154619518Y-101606766D01*
X154700893Y-101552393D01*
X154825947Y-101468835D01*
X154895949Y-101447600D01*
X162894368Y-101447600D01*
X162901433Y-101447798D01*
X163226739Y-101466066D01*
X163240771Y-101467647D01*
X163399635Y-101494639D01*
X163558494Y-101521631D01*
X163572269Y-101524775D01*
X163668135Y-101552393D01*
X163881954Y-101613994D01*
X163895275Y-101618655D01*
X164193025Y-101741987D01*
X164205748Y-101748114D01*
X164364317Y-101835752D01*
X164487813Y-101904006D01*
X164499777Y-101911524D01*
X164762601Y-102098009D01*
X164773647Y-102106818D01*
X165013950Y-102321565D01*
X165023942Y-102331557D01*
X165238689Y-102571860D01*
X165247498Y-102582906D01*
X165433983Y-102845730D01*
X165441501Y-102857694D01*
X165597391Y-103139755D01*
X165603520Y-103152482D01*
X165726852Y-103450232D01*
X165731513Y-103463553D01*
X165793114Y-103677372D01*
X165820732Y-103773238D01*
X165823876Y-103787013D01*
X165877859Y-104104731D01*
X165879441Y-104118772D01*
X165897709Y-104444074D01*
X165897907Y-104451139D01*
X165897907Y-130346461D01*
X165897709Y-130353526D01*
X165879441Y-130678828D01*
X165877859Y-130692869D01*
X165823876Y-131010587D01*
X165820732Y-131024362D01*
X165731513Y-131334047D01*
X165726852Y-131347368D01*
X165633736Y-131572170D01*
X165603522Y-131645114D01*
X165597391Y-131657845D01*
X165441501Y-131939906D01*
X165433983Y-131951870D01*
X165247498Y-132214694D01*
X165238689Y-132225740D01*
X165023942Y-132466043D01*
X165013950Y-132476035D01*
X164773647Y-132690782D01*
X164762601Y-132699591D01*
X164499777Y-132886076D01*
X164487813Y-132893594D01*
X164205748Y-133049486D01*
X164193025Y-133055613D01*
X163895275Y-133178945D01*
X163881954Y-133183606D01*
X163590837Y-133267476D01*
X163555956Y-133272400D01*
X82534496Y-133272400D01*
X82466375Y-133252398D01*
X82419882Y-133198742D01*
X82409778Y-133128468D01*
X82423504Y-133086762D01*
X82503209Y-132938424D01*
X82504905Y-132935268D01*
X82635388Y-132608210D01*
X82728008Y-132268483D01*
X82781575Y-131920455D01*
X82795399Y-131568600D01*
X82769303Y-131217442D01*
X82703623Y-130871496D01*
X82599203Y-130535208D01*
X82457386Y-130212903D01*
X82279994Y-129908724D01*
X82069308Y-129626581D01*
X82066864Y-129623983D01*
X82066859Y-129623977D01*
X81830487Y-129372707D01*
X81830483Y-129372704D01*
X81828037Y-129370103D01*
X81559283Y-129142586D01*
X81266500Y-128946955D01*
X81127345Y-128875285D01*
X80956637Y-128787364D01*
X80956632Y-128787362D01*
X80953454Y-128785725D01*
X80950113Y-128784459D01*
X80950108Y-128784457D01*
X80627512Y-128662237D01*
X80627513Y-128662237D01*
X80624168Y-128660970D01*
X80620704Y-128660090D01*
X80620700Y-128660089D01*
X80286344Y-128575173D01*
X80286336Y-128575171D01*
X80282877Y-128574293D01*
X80111155Y-128550922D01*
X79936960Y-128527215D01*
X79936953Y-128527214D01*
X79933967Y-128526808D01*
X79819226Y-128522300D01*
X79601109Y-128522300D01*
X79459551Y-128530338D01*
X79342315Y-128536995D01*
X79342308Y-128536996D01*
X79338747Y-128537198D01*
X79200424Y-128560966D01*
X78995225Y-128596225D01*
X78995217Y-128596227D01*
X78991707Y-128596830D01*
X78988282Y-128597828D01*
X78988279Y-128597829D01*
X78774677Y-128660089D01*
X78653648Y-128695366D01*
X78650346Y-128696751D01*
X78650345Y-128696751D01*
X78416499Y-128794811D01*
X78328917Y-128831537D01*
X78325798Y-128833284D01*
X78279073Y-128859451D01*
X78209865Y-128875285D01*
X78143083Y-128851188D01*
X78099930Y-128794811D01*
X78091507Y-128749517D01*
X78091507Y-119315623D01*
X78093287Y-119294517D01*
X78138738Y-119027013D01*
X78141882Y-119013238D01*
X78169500Y-118917372D01*
X78231101Y-118703553D01*
X78235762Y-118690232D01*
X78359094Y-118392482D01*
X78365223Y-118379755D01*
X78521113Y-118097694D01*
X78528631Y-118085730D01*
X78715116Y-117822906D01*
X78723925Y-117811860D01*
X78938672Y-117571557D01*
X78948664Y-117561565D01*
X79188967Y-117346818D01*
X79200013Y-117338009D01*
X79462837Y-117151524D01*
X79474801Y-117144006D01*
X79540576Y-117107653D01*
X79756866Y-116988114D01*
X79769589Y-116981987D01*
X80067339Y-116858655D01*
X80080660Y-116853994D01*
X80294479Y-116792393D01*
X80390345Y-116764775D01*
X80404120Y-116761631D01*
X80562979Y-116734640D01*
X80721843Y-116707647D01*
X80735875Y-116706066D01*
X81061181Y-116687798D01*
X81068246Y-116687600D01*
X123835507Y-116687600D01*
X123835507Y-104451139D01*
X123835705Y-104444074D01*
X123853973Y-104118772D01*
X123855555Y-104104731D01*
X123909538Y-103787013D01*
X123912682Y-103773238D01*
X123940300Y-103677372D01*
X124001901Y-103463553D01*
X124006562Y-103450232D01*
X124129894Y-103152482D01*
X124136023Y-103139755D01*
X124291913Y-102857694D01*
X124299431Y-102845730D01*
X124485916Y-102582906D01*
X124494725Y-102571860D01*
X124709472Y-102331557D01*
X124719464Y-102321565D01*
X124959767Y-102106818D01*
X124970813Y-102098009D01*
X125233637Y-101911524D01*
X125245601Y-101904006D01*
X125369097Y-101835752D01*
X125527666Y-101748114D01*
X125540389Y-101741987D01*
X125838139Y-101618655D01*
X125851460Y-101613994D01*
X126065279Y-101552393D01*
X126161145Y-101524775D01*
X126174920Y-101521631D01*
X126333779Y-101494639D01*
X126492643Y-101467647D01*
X126506675Y-101466066D01*
X126831981Y-101447798D01*
X126839046Y-101447600D01*
X152037651Y-101447600D01*
X152107653Y-101468835D01*
G37*
%TD.AperFunction*%
%TD*%
%TA.AperFunction,Conductor*%
%TO.N,/DC_IN*%
G36*
X117312036Y-62617324D02*
G01*
X117603154Y-62701194D01*
X117616475Y-62705855D01*
X117914225Y-62829187D01*
X117926948Y-62835314D01*
X118143238Y-62954853D01*
X118209013Y-62991206D01*
X118220977Y-62998724D01*
X118483801Y-63185209D01*
X118494847Y-63194018D01*
X118735150Y-63408765D01*
X118745142Y-63418757D01*
X118959889Y-63659060D01*
X118968698Y-63670106D01*
X119155183Y-63932930D01*
X119162701Y-63944894D01*
X119277961Y-64153440D01*
X119318591Y-64226955D01*
X119324720Y-64239682D01*
X119448052Y-64537432D01*
X119452713Y-64550753D01*
X119514314Y-64764572D01*
X119541932Y-64860438D01*
X119545076Y-64874213D01*
X119599059Y-65191931D01*
X119600641Y-65205972D01*
X119618909Y-65531274D01*
X119619107Y-65538339D01*
X119619107Y-76295261D01*
X119618909Y-76302326D01*
X119600641Y-76627628D01*
X119599059Y-76641669D01*
X119545076Y-76959387D01*
X119541932Y-76973162D01*
X119452713Y-77282847D01*
X119448052Y-77296168D01*
X119324722Y-77593914D01*
X119318591Y-77606645D01*
X119162701Y-77888706D01*
X119155183Y-77900670D01*
X118968698Y-78163494D01*
X118959889Y-78174540D01*
X118745142Y-78414843D01*
X118735150Y-78424835D01*
X118494847Y-78639582D01*
X118483801Y-78648391D01*
X118220977Y-78834876D01*
X118209013Y-78842394D01*
X117926948Y-78998286D01*
X117914225Y-79004413D01*
X117616475Y-79127745D01*
X117603154Y-79132406D01*
X117389335Y-79194007D01*
X117293469Y-79221625D01*
X117279694Y-79224769D01*
X117120835Y-79251760D01*
X116961971Y-79278753D01*
X116947939Y-79280334D01*
X116622633Y-79298602D01*
X116615568Y-79298800D01*
X95743107Y-79298800D01*
X95743107Y-92602061D01*
X95742909Y-92609126D01*
X95724641Y-92934428D01*
X95723059Y-92948469D01*
X95669076Y-93266187D01*
X95665932Y-93279962D01*
X95576713Y-93589647D01*
X95572052Y-93602968D01*
X95448723Y-93900711D01*
X95448722Y-93900714D01*
X95442591Y-93913445D01*
X95286701Y-94195506D01*
X95279183Y-94207470D01*
X95092698Y-94470294D01*
X95083889Y-94481340D01*
X94869142Y-94721643D01*
X94859150Y-94731635D01*
X94618847Y-94946382D01*
X94607801Y-94955191D01*
X94344977Y-95141676D01*
X94333013Y-95149194D01*
X94050948Y-95305086D01*
X94038225Y-95311213D01*
X93740475Y-95434545D01*
X93727154Y-95439206D01*
X93513335Y-95500807D01*
X93417469Y-95528425D01*
X93403694Y-95531569D01*
X93244835Y-95558560D01*
X93085971Y-95585553D01*
X93071939Y-95587134D01*
X92746633Y-95605402D01*
X92739568Y-95605600D01*
X80814246Y-95605600D01*
X80807181Y-95605402D01*
X80481875Y-95587134D01*
X80467843Y-95585553D01*
X80308979Y-95558560D01*
X80150120Y-95531569D01*
X80136345Y-95528425D01*
X80040479Y-95500807D01*
X79826660Y-95439206D01*
X79813339Y-95434545D01*
X79515589Y-95311213D01*
X79502866Y-95305086D01*
X79220801Y-95149194D01*
X79208837Y-95141676D01*
X78946013Y-94955191D01*
X78934967Y-94946382D01*
X78694664Y-94731635D01*
X78684672Y-94721643D01*
X78469925Y-94481340D01*
X78461116Y-94470294D01*
X78274631Y-94207470D01*
X78267113Y-94195506D01*
X78111223Y-93913445D01*
X78105091Y-93900711D01*
X78101097Y-93891068D01*
X78091507Y-93842853D01*
X78091507Y-67108189D01*
X78111509Y-67040068D01*
X78165165Y-66993575D01*
X78235439Y-66983471D01*
X78275196Y-66996172D01*
X78376360Y-67048275D01*
X78379701Y-67049541D01*
X78379706Y-67049543D01*
X78611203Y-67137249D01*
X78705646Y-67173030D01*
X78709110Y-67173910D01*
X78709114Y-67173911D01*
X79043470Y-67258827D01*
X79043478Y-67258829D01*
X79046937Y-67259707D01*
X79218659Y-67283078D01*
X79392854Y-67306785D01*
X79392861Y-67306786D01*
X79395847Y-67307192D01*
X79510588Y-67311700D01*
X79728705Y-67311700D01*
X79870263Y-67303662D01*
X79987499Y-67297005D01*
X79987506Y-67297004D01*
X79991067Y-67296802D01*
X80129390Y-67273034D01*
X80334589Y-67237775D01*
X80334597Y-67237773D01*
X80338107Y-67237170D01*
X80341532Y-67236172D01*
X80341535Y-67236171D01*
X80672728Y-67139636D01*
X80676166Y-67138634D01*
X81000897Y-67002463D01*
X81181064Y-66901565D01*
X81305009Y-66832153D01*
X81305014Y-66832150D01*
X81308126Y-66830407D01*
X81311022Y-66828322D01*
X81311027Y-66828319D01*
X81457746Y-66722696D01*
X81593902Y-66624677D01*
X81854553Y-66387919D01*
X82086726Y-66123177D01*
X82287436Y-65833853D01*
X82454105Y-65523668D01*
X82584588Y-65196610D01*
X82677208Y-64856883D01*
X82730775Y-64508855D01*
X82744599Y-64157000D01*
X82718503Y-63805842D01*
X82652823Y-63459896D01*
X82636947Y-63408765D01*
X82570266Y-63194018D01*
X82548403Y-63123608D01*
X82490145Y-62991206D01*
X82408029Y-62804581D01*
X82408024Y-62804572D01*
X82406586Y-62801303D01*
X82404784Y-62798214D01*
X82403453Y-62795601D01*
X82390350Y-62725824D01*
X82417052Y-62660039D01*
X82475080Y-62619134D01*
X82515721Y-62612400D01*
X117277156Y-62612400D01*
X117312036Y-62617324D01*
G37*
%TD.AperFunction*%
%TD*%
%TA.AperFunction,Conductor*%
%TO.N,Net-(C1-Pad1)*%
G36*
X111644233Y-80467398D02*
G01*
X111969539Y-80485666D01*
X111983571Y-80487247D01*
X112142435Y-80514239D01*
X112301294Y-80541231D01*
X112315069Y-80544375D01*
X112410935Y-80571993D01*
X112624754Y-80633594D01*
X112638075Y-80638255D01*
X112935825Y-80761587D01*
X112948548Y-80767714D01*
X113164838Y-80887253D01*
X113230613Y-80923606D01*
X113242577Y-80931124D01*
X113505401Y-81117609D01*
X113516447Y-81126418D01*
X113756750Y-81341165D01*
X113766742Y-81351157D01*
X113981489Y-81591460D01*
X113990298Y-81602506D01*
X114176783Y-81865330D01*
X114184301Y-81877294D01*
X114340191Y-82159355D01*
X114346320Y-82172082D01*
X114469652Y-82469832D01*
X114474313Y-82483153D01*
X114535914Y-82696972D01*
X114563532Y-82792838D01*
X114566676Y-82806613D01*
X114620659Y-83124331D01*
X114622241Y-83138372D01*
X114640509Y-83463674D01*
X114640707Y-83470739D01*
X114640707Y-112617261D01*
X114640509Y-112624326D01*
X114622241Y-112949628D01*
X114620659Y-112963669D01*
X114566676Y-113281387D01*
X114563532Y-113295162D01*
X114474313Y-113604847D01*
X114469652Y-113618168D01*
X114346322Y-113915914D01*
X114340191Y-113928645D01*
X114184301Y-114210706D01*
X114176783Y-114222670D01*
X113990298Y-114485494D01*
X113981489Y-114496540D01*
X113766742Y-114736843D01*
X113756750Y-114746835D01*
X113516447Y-114961582D01*
X113505401Y-114970391D01*
X113242577Y-115156876D01*
X113230613Y-115164394D01*
X112948548Y-115320286D01*
X112935825Y-115326413D01*
X112638075Y-115449745D01*
X112624754Y-115454406D01*
X112410935Y-115516007D01*
X112315069Y-115543625D01*
X112301294Y-115546769D01*
X112142435Y-115573761D01*
X111983571Y-115600753D01*
X111969539Y-115602334D01*
X111644233Y-115620602D01*
X111637168Y-115620800D01*
X99762646Y-115620800D01*
X99755581Y-115620602D01*
X99430275Y-115602334D01*
X99416243Y-115600753D01*
X99257379Y-115573761D01*
X99098520Y-115546769D01*
X99084745Y-115543625D01*
X98988879Y-115516007D01*
X98775060Y-115454406D01*
X98761739Y-115449745D01*
X98463989Y-115326413D01*
X98451266Y-115320286D01*
X98169201Y-115164394D01*
X98157237Y-115156876D01*
X97894413Y-114970391D01*
X97883367Y-114961582D01*
X97643064Y-114746835D01*
X97633072Y-114736843D01*
X97418325Y-114496540D01*
X97409516Y-114485494D01*
X97223031Y-114222670D01*
X97215513Y-114210706D01*
X97059623Y-113928645D01*
X97053492Y-113915914D01*
X96930162Y-113618168D01*
X96925501Y-113604847D01*
X96836282Y-113295162D01*
X96833138Y-113281387D01*
X96779155Y-112963669D01*
X96777573Y-112949628D01*
X96759305Y-112624326D01*
X96759107Y-112617261D01*
X96759107Y-83470739D01*
X96759305Y-83463674D01*
X96777573Y-83138372D01*
X96779155Y-83124331D01*
X96833138Y-82806613D01*
X96836282Y-82792838D01*
X96863900Y-82696972D01*
X96925501Y-82483153D01*
X96930162Y-82469832D01*
X97053494Y-82172082D01*
X97059623Y-82159355D01*
X97215513Y-81877294D01*
X97223031Y-81865330D01*
X97409516Y-81602506D01*
X97418325Y-81591460D01*
X97633072Y-81351157D01*
X97643064Y-81341165D01*
X97883367Y-81126418D01*
X97894413Y-81117609D01*
X98157237Y-80931124D01*
X98169201Y-80923606D01*
X98234976Y-80887253D01*
X98451266Y-80767714D01*
X98463989Y-80761587D01*
X98761739Y-80638255D01*
X98775060Y-80633594D01*
X98988879Y-80571993D01*
X99084745Y-80544375D01*
X99098520Y-80541231D01*
X99257379Y-80514239D01*
X99416243Y-80487247D01*
X99430275Y-80485666D01*
X99755581Y-80467398D01*
X99762646Y-80467200D01*
X111637168Y-80467200D01*
X111644233Y-80467398D01*
G37*
%TD.AperFunction*%
%TD*%
%TA.AperFunction,Conductor*%
%TO.N,/NEUTRAL_OUT*%
G36*
X218896447Y-62632402D02*
G01*
X218942940Y-62686058D01*
X218953044Y-62756332D01*
X218939318Y-62798038D01*
X218912509Y-62847932D01*
X218782026Y-63174990D01*
X218689406Y-63514717D01*
X218635839Y-63862745D01*
X218622015Y-64214600D01*
X218648111Y-64565758D01*
X218713791Y-64911704D01*
X218818211Y-65247992D01*
X218960028Y-65570297D01*
X219137420Y-65874476D01*
X219348106Y-66156619D01*
X219350550Y-66159217D01*
X219350555Y-66159223D01*
X219586927Y-66410493D01*
X219589377Y-66413097D01*
X219858131Y-66640614D01*
X220150914Y-66836245D01*
X220154096Y-66837884D01*
X220154098Y-66837885D01*
X220460777Y-66995836D01*
X220460782Y-66995838D01*
X220463960Y-66997475D01*
X220467301Y-66998741D01*
X220467306Y-66998743D01*
X220698803Y-67086449D01*
X220793246Y-67122230D01*
X220796710Y-67123110D01*
X220796714Y-67123111D01*
X221131070Y-67208027D01*
X221131078Y-67208029D01*
X221134537Y-67208907D01*
X221306259Y-67232278D01*
X221480454Y-67255985D01*
X221480461Y-67255986D01*
X221483447Y-67256392D01*
X221598188Y-67260900D01*
X221816305Y-67260900D01*
X221957863Y-67252862D01*
X222075099Y-67246205D01*
X222075106Y-67246204D01*
X222078667Y-67246002D01*
X222216990Y-67222234D01*
X222422189Y-67186975D01*
X222422197Y-67186973D01*
X222425707Y-67186370D01*
X222429132Y-67185372D01*
X222429135Y-67185371D01*
X222760328Y-67088836D01*
X222763766Y-67087834D01*
X222767069Y-67086449D01*
X223085204Y-66953044D01*
X223085206Y-66953043D01*
X223088497Y-66951663D01*
X223138341Y-66923749D01*
X223207549Y-66907915D01*
X223274331Y-66932012D01*
X223317484Y-66988389D01*
X223325907Y-67033683D01*
X223325907Y-88048999D01*
X223302667Y-88121912D01*
X223123591Y-88374294D01*
X223114782Y-88385340D01*
X222900035Y-88625643D01*
X222890043Y-88635635D01*
X222649740Y-88850382D01*
X222638694Y-88859191D01*
X222375870Y-89045676D01*
X222363906Y-89053194D01*
X222081841Y-89209086D01*
X222069118Y-89215213D01*
X221771368Y-89338545D01*
X221758047Y-89343206D01*
X221544228Y-89404807D01*
X221448362Y-89432425D01*
X221434587Y-89435569D01*
X221275728Y-89462561D01*
X221116864Y-89489553D01*
X221102832Y-89491134D01*
X220777526Y-89509402D01*
X220770461Y-89509600D01*
X172777139Y-89509600D01*
X172770074Y-89509402D01*
X172444768Y-89491134D01*
X172430736Y-89489553D01*
X172271872Y-89462561D01*
X172113013Y-89435569D01*
X172099238Y-89432425D01*
X172003372Y-89404807D01*
X171789553Y-89343206D01*
X171776232Y-89338545D01*
X171478482Y-89215213D01*
X171465759Y-89209086D01*
X171183694Y-89053194D01*
X171171730Y-89045676D01*
X170908906Y-88859191D01*
X170897860Y-88850382D01*
X170657557Y-88635635D01*
X170647565Y-88625643D01*
X170432818Y-88385340D01*
X170424009Y-88374294D01*
X170237524Y-88111470D01*
X170230006Y-88099506D01*
X170074116Y-87817445D01*
X170067985Y-87804714D01*
X169944655Y-87506968D01*
X169939994Y-87493647D01*
X169850775Y-87183962D01*
X169847631Y-87170187D01*
X169793648Y-86852469D01*
X169792066Y-86838428D01*
X169773798Y-86513126D01*
X169773600Y-86506061D01*
X169773600Y-65487539D01*
X169773798Y-65480474D01*
X169792066Y-65155172D01*
X169793648Y-65141131D01*
X169847631Y-64823413D01*
X169850775Y-64809638D01*
X169920024Y-64569270D01*
X169939994Y-64499953D01*
X169944655Y-64486632D01*
X170067987Y-64188882D01*
X170074116Y-64176155D01*
X170230006Y-63894094D01*
X170237524Y-63882130D01*
X170424009Y-63619306D01*
X170432818Y-63608260D01*
X170647565Y-63367957D01*
X170657557Y-63357965D01*
X170897860Y-63143218D01*
X170908906Y-63134409D01*
X171171730Y-62947924D01*
X171183694Y-62940406D01*
X171441289Y-62798038D01*
X171465759Y-62784514D01*
X171478482Y-62778387D01*
X171776232Y-62655055D01*
X171789553Y-62650394D01*
X171904341Y-62617324D01*
X171939221Y-62612400D01*
X218828326Y-62612400D01*
X218896447Y-62632402D01*
G37*
%TD.AperFunction*%
%TD*%
%TA.AperFunction,Conductor*%
%TO.N,/HOT_OUT*%
G36*
X220777526Y-106222998D02*
G01*
X221102832Y-106241266D01*
X221116864Y-106242847D01*
X221275728Y-106269839D01*
X221434587Y-106296831D01*
X221448362Y-106299975D01*
X221544228Y-106327593D01*
X221758047Y-106389194D01*
X221771368Y-106393855D01*
X222069118Y-106517187D01*
X222081841Y-106523314D01*
X222298131Y-106642853D01*
X222363906Y-106679206D01*
X222375870Y-106686724D01*
X222638694Y-106873209D01*
X222649740Y-106882018D01*
X222890043Y-107096765D01*
X222900035Y-107106757D01*
X223114782Y-107347060D01*
X223123591Y-107358106D01*
X223302667Y-107610488D01*
X223325907Y-107683401D01*
X223325907Y-128725811D01*
X223305905Y-128793932D01*
X223252249Y-128840425D01*
X223181975Y-128850529D01*
X223142218Y-128837828D01*
X223041054Y-128785725D01*
X223037713Y-128784459D01*
X223037708Y-128784457D01*
X222715112Y-128662237D01*
X222715113Y-128662237D01*
X222711768Y-128660970D01*
X222708304Y-128660090D01*
X222708300Y-128660089D01*
X222373944Y-128575173D01*
X222373936Y-128575171D01*
X222370477Y-128574293D01*
X222198755Y-128550922D01*
X222024560Y-128527215D01*
X222024553Y-128527214D01*
X222021567Y-128526808D01*
X221906826Y-128522300D01*
X221688709Y-128522300D01*
X221547151Y-128530338D01*
X221429915Y-128536995D01*
X221429908Y-128536996D01*
X221426347Y-128537198D01*
X221288024Y-128560966D01*
X221082825Y-128596225D01*
X221082817Y-128596227D01*
X221079307Y-128596830D01*
X221075882Y-128597828D01*
X221075879Y-128597829D01*
X220862277Y-128660089D01*
X220741248Y-128695366D01*
X220416517Y-128831537D01*
X220262902Y-128917565D01*
X220112405Y-129001847D01*
X220112400Y-129001850D01*
X220109288Y-129003593D01*
X220106392Y-129005678D01*
X220106387Y-129005681D01*
X219959668Y-129111304D01*
X219823512Y-129209323D01*
X219562861Y-129446081D01*
X219330688Y-129710823D01*
X219129978Y-130000147D01*
X218963309Y-130310332D01*
X218832826Y-130637390D01*
X218740206Y-130977117D01*
X218686639Y-131325145D01*
X218686499Y-131328709D01*
X218678060Y-131543514D01*
X218672815Y-131677000D01*
X218698911Y-132028158D01*
X218764591Y-132374104D01*
X218869011Y-132710392D01*
X219010828Y-133032697D01*
X219026124Y-133058925D01*
X219043162Y-133127847D01*
X219020234Y-133195039D01*
X218964619Y-133239169D01*
X218917280Y-133248400D01*
X172777139Y-133248400D01*
X172770074Y-133248202D01*
X172444768Y-133229934D01*
X172430736Y-133228353D01*
X172271872Y-133201360D01*
X172113013Y-133174369D01*
X172099238Y-133171225D01*
X171948669Y-133127847D01*
X171789553Y-133082006D01*
X171776232Y-133077345D01*
X171478482Y-132954013D01*
X171465759Y-132947886D01*
X171183694Y-132791994D01*
X171171730Y-132784476D01*
X170908906Y-132597991D01*
X170897860Y-132589182D01*
X170657557Y-132374435D01*
X170647565Y-132364443D01*
X170432818Y-132124140D01*
X170424009Y-132113094D01*
X170237524Y-131850270D01*
X170230006Y-131838306D01*
X170074116Y-131556245D01*
X170067985Y-131543514D01*
X169979010Y-131328709D01*
X169944655Y-131245768D01*
X169939994Y-131232447D01*
X169850775Y-130922762D01*
X169847631Y-130908987D01*
X169793648Y-130591269D01*
X169792066Y-130577228D01*
X169773798Y-130251926D01*
X169773600Y-130244861D01*
X169773600Y-109226339D01*
X169773798Y-109219274D01*
X169792066Y-108893972D01*
X169793648Y-108879931D01*
X169847631Y-108562213D01*
X169850775Y-108548438D01*
X169878393Y-108452572D01*
X169939994Y-108238753D01*
X169944655Y-108225432D01*
X170067987Y-107927682D01*
X170074116Y-107914955D01*
X170230006Y-107632894D01*
X170237524Y-107620930D01*
X170424009Y-107358106D01*
X170432818Y-107347060D01*
X170647565Y-107106757D01*
X170657557Y-107096765D01*
X170897860Y-106882018D01*
X170908906Y-106873209D01*
X171171730Y-106686724D01*
X171183694Y-106679206D01*
X171249469Y-106642853D01*
X171465759Y-106523314D01*
X171478482Y-106517187D01*
X171776232Y-106393855D01*
X171789553Y-106389194D01*
X172003372Y-106327593D01*
X172099238Y-106299975D01*
X172113013Y-106296831D01*
X172271872Y-106269839D01*
X172430736Y-106242847D01*
X172444768Y-106241266D01*
X172770074Y-106222998D01*
X172777139Y-106222800D01*
X220770461Y-106222800D01*
X220777526Y-106222998D01*
G37*
%TD.AperFunction*%
%TD*%
%TA.AperFunction,Conductor*%
%TO.N,/EARTH*%
G36*
X220777526Y-92049798D02*
G01*
X221102832Y-92068066D01*
X221116864Y-92069647D01*
X221275728Y-92096640D01*
X221434587Y-92123631D01*
X221448362Y-92126775D01*
X221544228Y-92154393D01*
X221758047Y-92215994D01*
X221771368Y-92220655D01*
X222069118Y-92343987D01*
X222081841Y-92350114D01*
X222298131Y-92469653D01*
X222363906Y-92506006D01*
X222375870Y-92513524D01*
X222638694Y-92700009D01*
X222649740Y-92708818D01*
X222890043Y-92923565D01*
X222900035Y-92933557D01*
X223114782Y-93173860D01*
X223123591Y-93184906D01*
X223310076Y-93447730D01*
X223317594Y-93459694D01*
X223473484Y-93741755D01*
X223479613Y-93754482D01*
X223602945Y-94052232D01*
X223607606Y-94065553D01*
X223669207Y-94279372D01*
X223696825Y-94375238D01*
X223699969Y-94389013D01*
X223753952Y-94706731D01*
X223755534Y-94720772D01*
X223773802Y-95046074D01*
X223774000Y-95053139D01*
X223774000Y-100628461D01*
X223773802Y-100635526D01*
X223755534Y-100960828D01*
X223753952Y-100974869D01*
X223699969Y-101292587D01*
X223696825Y-101306362D01*
X223607606Y-101616047D01*
X223602945Y-101629368D01*
X223479615Y-101927114D01*
X223473484Y-101939845D01*
X223317594Y-102221906D01*
X223310076Y-102233870D01*
X223123591Y-102496694D01*
X223114782Y-102507740D01*
X222900035Y-102748043D01*
X222890043Y-102758035D01*
X222649740Y-102972782D01*
X222638694Y-102981591D01*
X222375870Y-103168076D01*
X222363906Y-103175594D01*
X222081841Y-103331486D01*
X222069118Y-103337613D01*
X221771368Y-103460945D01*
X221758047Y-103465606D01*
X221544228Y-103527207D01*
X221448362Y-103554825D01*
X221434587Y-103557969D01*
X221275728Y-103584961D01*
X221116864Y-103611953D01*
X221102832Y-103613534D01*
X220777526Y-103631802D01*
X220770461Y-103632000D01*
X196500739Y-103632000D01*
X196493674Y-103631802D01*
X196168368Y-103613534D01*
X196154336Y-103611953D01*
X195995472Y-103584961D01*
X195836613Y-103557969D01*
X195822838Y-103554825D01*
X195726972Y-103527207D01*
X195513153Y-103465606D01*
X195499832Y-103460945D01*
X195202082Y-103337613D01*
X195189359Y-103331486D01*
X194907294Y-103175594D01*
X194895330Y-103168076D01*
X194632506Y-102981591D01*
X194621460Y-102972782D01*
X194381157Y-102758035D01*
X194371165Y-102748043D01*
X194156418Y-102507740D01*
X194147609Y-102496694D01*
X193961124Y-102233870D01*
X193953606Y-102221906D01*
X193797716Y-101939845D01*
X193791585Y-101927114D01*
X193668255Y-101629368D01*
X193663594Y-101616047D01*
X193574375Y-101306362D01*
X193571231Y-101292587D01*
X193517248Y-100974869D01*
X193515666Y-100960828D01*
X193497398Y-100635526D01*
X193497200Y-100628461D01*
X193497200Y-95053139D01*
X193497398Y-95046074D01*
X193515666Y-94720772D01*
X193517248Y-94706731D01*
X193571231Y-94389013D01*
X193574375Y-94375238D01*
X193601993Y-94279372D01*
X193663594Y-94065553D01*
X193668255Y-94052232D01*
X193791587Y-93754482D01*
X193797716Y-93741755D01*
X193953606Y-93459694D01*
X193961124Y-93447730D01*
X194147609Y-93184906D01*
X194156418Y-93173860D01*
X194371165Y-92933557D01*
X194381157Y-92923565D01*
X194621460Y-92708818D01*
X194632506Y-92700009D01*
X194895330Y-92513524D01*
X194907294Y-92506006D01*
X194973069Y-92469653D01*
X195189359Y-92350114D01*
X195202082Y-92343987D01*
X195499832Y-92220655D01*
X195513153Y-92215994D01*
X195726972Y-92154393D01*
X195822838Y-92126775D01*
X195836613Y-92123631D01*
X195995472Y-92096640D01*
X196154336Y-92069647D01*
X196168368Y-92068066D01*
X196493674Y-92049798D01*
X196500739Y-92049600D01*
X220770461Y-92049600D01*
X220777526Y-92049798D01*
G37*
%TD.AperFunction*%
%TD*%
M02*
