M48
; DRILL file {KiCad (6.0.0)} date Mon Aug 29 21:40:41 2022
; FORMAT={-:-/ absolute / inch / decimal}
; #@! TF.CreationDate,2022-08-29T21:40:41+01:00
; #@! TF.GenerationSoftware,Kicad,Pcbnew,(6.0.0)
; #@! TF.FileFunction,Plated,1,2,PTH
FMAT,2
INCH
; #@! TA.AperFunction,Plated,PTH,ComponentDrill
T1C0.0295
; #@! TA.AperFunction,Plated,PTH,ComponentDrill
T2C0.0315
; #@! TA.AperFunction,Plated,PTH,ComponentDrill
T3C0.0394
; #@! TA.AperFunction,Plated,PTH,ComponentDrill
T4C0.0433
; #@! TA.AperFunction,Plated,PTH,ComponentDrill
T5C0.0472
; #@! TA.AperFunction,Plated,PTH,ComponentDrill
T6C0.0551
; #@! TA.AperFunction,Plated,PTH,ComponentDrill
T7C0.0591
%
G90
G05
T1
X3.9606Y-2.3153
X3.9618Y-2.1157
X4.0106Y-2.3153
X4.0118Y-2.1157
X4.0606Y-2.3153
X4.0618Y-2.1157
X4.7027Y-3.0134
X4.7027Y-3.0634
X4.7027Y-3.1134
X5.381Y-3.0118
X5.381Y-3.0618
X5.381Y-3.1118
X5.5593Y-2.9132
X5.5593Y-3.2131
X5.6093Y-2.9132
X5.6093Y-3.2131
X5.6593Y-2.9132
X5.6593Y-3.2131
X5.7646Y-2.0795
X5.8146Y-2.0795
X5.8646Y-2.0795
T2
X3.6786Y-2.9134
X3.6786Y-3.2134
X3.8158Y-2.9134
X3.8158Y-3.2134
X3.9179Y-2.4622
X3.9179Y-2.7622
X3.953Y-2.9134
X3.953Y-3.2134
X4.0531Y-2.4622
X4.0531Y-2.7622
X4.1473Y-2.963
X4.1473Y-3.063
X4.1473Y-3.163
X4.1785Y-2.4622
X4.1785Y-2.7622
X4.294Y-2.4622
X4.294Y-2.7622
X4.3416Y-2.9134
X4.3416Y-3.2134
X4.4194Y-2.4622
X4.4194Y-2.7622
X4.5156Y-2.965
X4.5156Y-3.1618
X4.5546Y-2.4622
X4.5546Y-2.7622
X4.7632Y-2.0382
X4.9172Y-2.911
X4.9172Y-3.211
X5.0452Y-2.911
X5.0452Y-3.211
X5.0632Y-2.0382
X5.1715Y-2.911
X5.1715Y-3.211
X5.6641Y-2.6046
X5.6641Y-2.7424
X5.6645Y-2.4668
X5.814Y-2.9125
X5.814Y-3.2125
X5.9641Y-2.6046
X5.9641Y-2.7424
X5.9645Y-2.4668
X6.409Y-2.9125
X6.409Y-3.2125
T3
X3.0696Y-2.5346
X3.0961Y-2.6134
X3.2929Y-2.6134
X3.3194Y-2.6921
X3.5494Y-2.7376
X3.6282Y-2.5143
X3.6282Y-2.7111
X3.7069Y-2.4878
X4.7438Y-2.5256
X4.7703Y-2.6043
X4.9671Y-2.6043
X4.9936Y-2.6831
X5.2281Y-2.5248
X5.2545Y-2.6035
X5.4514Y-2.6035
X5.4778Y-2.6823
X5.9855Y-2.9801
X6.012Y-3.0589
X6.1497Y-2.5248
X6.1762Y-2.6035
X6.2088Y-3.0589
X6.2353Y-3.1376
X6.373Y-2.6035
X6.3995Y-2.6823
T4
X6.5929Y-2.8814
X6.5929Y-3.0625
X6.5929Y-3.2436
T5
X3.2359Y-2.2909
X3.5118Y-1.8097
X3.8359Y-2.2909
X4.5118Y-1.8097
X5.3146Y-1.8097
X5.9961Y-2.292
X6.3146Y-1.8097
X6.5961Y-2.292
T6
X3.1256Y-1.629
X3.1256Y-1.829
X4.8139Y-1.5268
X4.8139Y-1.8097
X5.0139Y-1.5268
X5.0139Y-1.8097
X6.6917Y-1.6304
X6.6917Y-1.8304
T7
X3.7972Y-1.4873
X4.0118Y-1.4873
X4.2264Y-1.4873
X5.6Y-1.4873
X5.8146Y-1.4873
X6.0291Y-1.4873
T0
M30
