%TF.GenerationSoftware,KiCad,Pcbnew,(6.0.0)*%
%TF.CreationDate,2022-08-29T21:40:36+01:00*%
%TF.ProjectId,Lynx amp Mini,4c796e78-2061-46d7-9020-4d696e692e6b,rev?*%
%TF.SameCoordinates,Original*%
%TF.FileFunction,Copper,L1,Top*%
%TF.FilePolarity,Positive*%
%FSLAX46Y46*%
G04 Gerber Fmt 4.6, Leading zero omitted, Abs format (unit mm)*
G04 Created by KiCad (PCBNEW (6.0.0)) date 2022-08-29 21:40:36*
%MOMM*%
%LPD*%
G01*
G04 APERTURE LIST*
G04 Aperture macros list*
%AMRoundRect*
0 Rectangle with rounded corners*
0 $1 Rounding radius*
0 $2 $3 $4 $5 $6 $7 $8 $9 X,Y pos of 4 corners*
0 Add a 4 corners polygon primitive as box body*
4,1,4,$2,$3,$4,$5,$6,$7,$8,$9,$2,$3,0*
0 Add four circle primitives for the rounded corners*
1,1,$1+$1,$2,$3*
1,1,$1+$1,$4,$5*
1,1,$1+$1,$6,$7*
1,1,$1+$1,$8,$9*
0 Add four rect primitives between the rounded corners*
20,1,$1+$1,$2,$3,$4,$5,0*
20,1,$1+$1,$4,$5,$6,$7,0*
20,1,$1+$1,$6,$7,$8,$9,0*
20,1,$1+$1,$8,$9,$2,$3,0*%
G04 Aperture macros list end*
%TA.AperFunction,ComponentPad*%
%ADD10RoundRect,0.250001X0.799999X-0.799999X0.799999X0.799999X-0.799999X0.799999X-0.799999X-0.799999X0*%
%TD*%
%TA.AperFunction,ComponentPad*%
%ADD11C,2.100000*%
%TD*%
%TA.AperFunction,ComponentPad*%
%ADD12C,1.600000*%
%TD*%
%TA.AperFunction,ComponentPad*%
%ADD13O,1.600000X1.600000*%
%TD*%
%TA.AperFunction,ComponentPad*%
%ADD14R,1.600000X1.600000*%
%TD*%
%TA.AperFunction,ComponentPad*%
%ADD15C,2.400000*%
%TD*%
%TA.AperFunction,ComponentPad*%
%ADD16O,2.400000X2.400000*%
%TD*%
%TA.AperFunction,ComponentPad*%
%ADD17R,2.000000X2.000000*%
%TD*%
%TA.AperFunction,ComponentPad*%
%ADD18C,2.000000*%
%TD*%
%TA.AperFunction,ComponentPad*%
%ADD19O,5.000000X2.100000*%
%TD*%
%TA.AperFunction,ComponentPad*%
%ADD20R,1.050000X1.500000*%
%TD*%
%TA.AperFunction,ComponentPad*%
%ADD21O,1.050000X1.500000*%
%TD*%
%TA.AperFunction,ComponentPad*%
%ADD22R,1.500000X1.050000*%
%TD*%
%TA.AperFunction,ComponentPad*%
%ADD23O,1.500000X1.050000*%
%TD*%
%TA.AperFunction,ComponentPad*%
%ADD24O,2.100000X5.000000*%
%TD*%
%TA.AperFunction,ComponentPad*%
%ADD25C,1.440000*%
%TD*%
%TA.AperFunction,ComponentPad*%
%ADD26R,2.500000X4.500000*%
%TD*%
%TA.AperFunction,ComponentPad*%
%ADD27O,2.500000X4.500000*%
%TD*%
%TA.AperFunction,Conductor*%
%ADD28C,1.000000*%
%TD*%
%TA.AperFunction,Conductor*%
%ADD29C,4.000000*%
%TD*%
%TA.AperFunction,Conductor*%
%ADD30C,2.000000*%
%TD*%
G04 APERTURE END LIST*
D10*
%TO.P,POT opt,1,1*%
%TO.N,IN*%
X167460000Y-82387911D03*
D11*
%TO.P,POT opt,2,2*%
%TO.N,Net-(R1-Pad1)*%
X167460000Y-77787911D03*
%TO.P,POT opt,3,3*%
%TO.N,GND*%
X167460000Y-73187911D03*
%TD*%
D12*
%TO.P,R8,1*%
%TO.N,Net-(Q3-Pad2)*%
X143867094Y-69658167D03*
D13*
%TO.P,R8,2*%
%TO.N,Net-(C5-Pad1)*%
X151487094Y-69658167D03*
%TD*%
D14*
%TO.P,D5,1,K*%
%TO.N,Net-(D5-Pad1)*%
X96920823Y-81620000D03*
D13*
%TO.P,D5,2,A*%
%TO.N,Net-(D4-Pad1)*%
X96920823Y-74000000D03*
%TD*%
D12*
%TO.P,R15,1*%
%TO.N,Net-(Q7-Pad3)*%
X128605000Y-51770000D03*
D13*
%TO.P,R15,2*%
%TO.N,Net-(Q6-Pad3)*%
X120985000Y-51770000D03*
%TD*%
D12*
%TO.P,R6,1*%
%TO.N,Net-(C6-Pad2)*%
X124897305Y-73940000D03*
D13*
%TO.P,R6,2*%
%TO.N,GND*%
X124897305Y-81560000D03*
%TD*%
D15*
%TO.P,R16,1*%
%TO.N,OUT*%
X114600000Y-45967234D03*
D16*
%TO.P,R16,2*%
%TO.N,Net-(Q8-Pad3)*%
X89200000Y-45967234D03*
%TD*%
D17*
%TO.P,C2,1*%
%TO.N,Net-(C2-Pad1)*%
X133464628Y-66130000D03*
X132792484Y-64130000D03*
D18*
%TO.P,C2,2*%
%TO.N,GND*%
X138464628Y-66130000D03*
X139136772Y-68130000D03*
%TD*%
D15*
%TO.P,R13,1*%
%TO.N,Net-(C6-Pad2)*%
X152300000Y-58217966D03*
D16*
%TO.P,R13,2*%
%TO.N,-VDC*%
X167540000Y-58217966D03*
%TD*%
D19*
%TO.P,J2,1,Pin_1*%
%TO.N,OUT*%
X126352500Y-45967234D03*
X123272500Y-45967234D03*
%TD*%
D12*
%TO.P,R11,1*%
%TO.N,Net-(C6-Pad2)*%
X128147305Y-73940000D03*
D13*
%TO.P,R11,2*%
%TO.N,Net-(Q4-Pad3)*%
X128147305Y-81560000D03*
%TD*%
D20*
%TO.P,Q7,1,C*%
%TO.N,-VDC*%
X148960000Y-52820000D03*
D21*
%TO.P,Q7,2,B*%
%TO.N,Net-(C3-Pad2)*%
X147690000Y-52820000D03*
%TO.P,Q7,3,E*%
%TO.N,Net-(Q7-Pad3)*%
X146420000Y-52820000D03*
%TD*%
D20*
%TO.P,Q6,1,C*%
%TO.N,+VDC*%
X100630000Y-53739003D03*
D21*
%TO.P,Q6,2,B*%
%TO.N,Net-(D4-Pad2)*%
X101900000Y-53739003D03*
%TO.P,Q6,3,E*%
%TO.N,Net-(Q6-Pad3)*%
X103170000Y-53739003D03*
%TD*%
D22*
%TO.P,Q2,1,C*%
%TO.N,Net-(Q1-Pad3)*%
X136677094Y-79040588D03*
D23*
%TO.P,Q2,2,B*%
%TO.N,Net-(D2-Pad1)*%
X136677094Y-77770588D03*
%TO.P,Q2,3,E*%
%TO.N,Net-(Q2-Pad3)*%
X136677094Y-76500588D03*
%TD*%
D12*
%TO.P,R4,1*%
%TO.N,Net-(Q2-Pad3)*%
X99514628Y-62540000D03*
D13*
%TO.P,R4,2*%
%TO.N,Net-(C4-Pad1)*%
X99514628Y-70160000D03*
%TD*%
D14*
%TO.P,D2,1,K*%
%TO.N,Net-(D2-Pad1)*%
X109068454Y-70160000D03*
D13*
%TO.P,D2,2,A*%
%TO.N,Net-(D1-Pad1)*%
X109068454Y-62540000D03*
%TD*%
D12*
%TO.P,C3,1*%
%TO.N,Net-(C3-Pad1)*%
X114697425Y-80310000D03*
%TO.P,C3,2*%
%TO.N,Net-(C3-Pad2)*%
X114697425Y-75310000D03*
%TD*%
D17*
%TO.P,C1,1*%
%TO.N,Net-(C1-Pad1)*%
X152704417Y-77695411D03*
X152032273Y-75695411D03*
D18*
%TO.P,C1,2*%
%TO.N,Net-(C1-Pad2)*%
X157704417Y-77695411D03*
X158376561Y-79695411D03*
%TD*%
D24*
%TO.P,J3,1,Pin_1*%
%TO.N,-VDC*%
X169970000Y-42412616D03*
X169970000Y-45492616D03*
%TD*%
D14*
%TO.P,D3,1,K*%
%TO.N,Net-(C3-Pad2)*%
X110275823Y-81620000D03*
D13*
%TO.P,D3,2,A*%
%TO.N,Net-(D3-Pad2)*%
X110275823Y-74000000D03*
%TD*%
D25*
%TO.P,RV2,1,1*%
%TO.N,Net-(D3-Pad2)*%
X105340823Y-75260000D03*
%TO.P,RV2,2,2*%
%TO.N,Net-(C3-Pad2)*%
X105340823Y-77800000D03*
%TO.P,RV2,3,3*%
X105340823Y-80340000D03*
%TD*%
D17*
%TO.P,C7,1*%
%TO.N,Net-(C4-Pad1)*%
X84312144Y-68380000D03*
X83640000Y-66380000D03*
D18*
%TO.P,C7,2*%
%TO.N,GND*%
X77967856Y-64380000D03*
X78640000Y-66380000D03*
%TD*%
D14*
%TO.P,D4,1,K*%
%TO.N,Net-(D4-Pad1)*%
X93435823Y-74000000D03*
D13*
%TO.P,D4,2,A*%
%TO.N,Net-(D4-Pad2)*%
X93435823Y-81620000D03*
%TD*%
D20*
%TO.P,Q1,1,C*%
%TO.N,Net-(C3-Pad1)*%
X143747094Y-81611769D03*
D21*
%TO.P,Q1,2,B*%
%TO.N,Net-(C1-Pad1)*%
X142477094Y-81611769D03*
%TO.P,Q1,3,E*%
%TO.N,Net-(Q1-Pad3)*%
X141207094Y-81611769D03*
%TD*%
D17*
%TO.P,C6,1*%
%TO.N,GND*%
X121165135Y-66150000D03*
X120492991Y-64150000D03*
D18*
%TO.P,C6,2*%
%TO.N,Net-(C6-Pad2)*%
X126837279Y-68150000D03*
X126165135Y-66150000D03*
%TD*%
D22*
%TO.P,Q4,1,C*%
%TO.N,Net-(C3-Pad2)*%
X119447425Y-76540000D03*
D23*
%TO.P,Q4,2,B*%
%TO.N,Net-(C3-Pad1)*%
X119447425Y-77810000D03*
%TO.P,Q4,3,E*%
%TO.N,Net-(Q4-Pad3)*%
X119447425Y-79080000D03*
%TD*%
D14*
%TO.P,D6,1,K*%
%TO.N,Net-(D3-Pad2)*%
X100405823Y-74000000D03*
D13*
%TO.P,D6,2,A*%
%TO.N,Net-(D5-Pad1)*%
X100405823Y-81620000D03*
%TD*%
D20*
%TO.P,Q5,1,C*%
%TO.N,Net-(D4-Pad2)*%
X100600000Y-58807591D03*
D21*
%TO.P,Q5,2,B*%
%TO.N,Net-(C4-Pad2)*%
X101870000Y-58807591D03*
%TO.P,Q5,3,E*%
%TO.N,Net-(Q5-Pad3)*%
X103140000Y-58807591D03*
%TD*%
D24*
%TO.P,J4,1,Pin_1*%
%TO.N,+VDC*%
X79390000Y-42377616D03*
X79390000Y-45457616D03*
%TD*%
D12*
%TO.P,R9,1*%
%TO.N,Net-(Q3-Pad2)*%
X151487094Y-66157650D03*
D13*
%TO.P,R9,2*%
%TO.N,Net-(C2-Pad1)*%
X143867094Y-66157650D03*
%TD*%
D20*
%TO.P,Q3,1,C*%
%TO.N,Net-(C6-Pad2)*%
X141207094Y-73994208D03*
D21*
%TO.P,Q3,2,B*%
%TO.N,Net-(Q3-Pad2)*%
X142477094Y-73994208D03*
%TO.P,Q3,3,E*%
%TO.N,Net-(Q1-Pad3)*%
X143747094Y-73994208D03*
%TD*%
D26*
%TO.P,Q9,1,B*%
%TO.N,Net-(Q7-Pad3)*%
X142240000Y-37777234D03*
D27*
%TO.P,Q9,2,C*%
%TO.N,-VDC*%
X147690000Y-37777234D03*
%TO.P,Q9,3,E*%
%TO.N,Net-(Q9-Pad3)*%
X153140000Y-37777234D03*
%TD*%
D19*
%TO.P,J7,1,Pin_1*%
%TO.N,GND*%
X126352500Y-38779797D03*
X123272500Y-38779797D03*
%TD*%
D12*
%TO.P,R1,1*%
%TO.N,Net-(R1-Pad1)*%
X162789594Y-81597911D03*
D13*
%TO.P,R1,2*%
%TO.N,Net-(C1-Pad2)*%
X162789594Y-73977911D03*
%TD*%
D12*
%TO.P,R5,1*%
%TO.N,GND*%
X115687968Y-62540000D03*
D13*
%TO.P,R5,2*%
%TO.N,Net-(D2-Pad1)*%
X115687968Y-70160000D03*
%TD*%
D15*
%TO.P,R17,1*%
%TO.N,Net-(Q9-Pad3)*%
X160390000Y-45967234D03*
D16*
%TO.P,R17,2*%
%TO.N,OUT*%
X134990000Y-45967234D03*
%TD*%
D26*
%TO.P,Q8,1,B*%
%TO.N,Net-(Q6-Pad3)*%
X96450000Y-37777234D03*
D27*
%TO.P,Q8,2,C*%
%TO.N,+VDC*%
X101900000Y-37777234D03*
%TO.P,Q8,3,E*%
%TO.N,Net-(Q8-Pad3)*%
X107350000Y-37777234D03*
%TD*%
D12*
%TO.P,R3,1*%
%TO.N,Net-(C6-Pad2)*%
X131357305Y-73940000D03*
D13*
%TO.P,R3,2*%
%TO.N,Net-(C3-Pad1)*%
X131357305Y-81560000D03*
%TD*%
D12*
%TO.P,R12,1*%
%TO.N,Net-(Q5-Pad3)*%
X102949163Y-62540000D03*
D13*
%TO.P,R12,2*%
%TO.N,Net-(C4-Pad1)*%
X102949163Y-70160000D03*
%TD*%
D12*
%TO.P,R10,1*%
%TO.N,Net-(C2-Pad1)*%
X143877094Y-62657132D03*
D13*
%TO.P,R10,2*%
%TO.N,OUT*%
X151497094Y-62657132D03*
%TD*%
D15*
%TO.P,R14,1*%
%TO.N,+VDC*%
X82190758Y-58190000D03*
D16*
%TO.P,R14,2*%
%TO.N,Net-(C4-Pad1)*%
X97430758Y-58190000D03*
%TD*%
D17*
%TO.P,C4,1*%
%TO.N,Net-(C4-Pad1)*%
X90156027Y-69534821D03*
X92156027Y-68862677D03*
D18*
%TO.P,C4,2*%
%TO.N,Net-(C4-Pad2)*%
X92156027Y-63862677D03*
X94156027Y-63190533D03*
%TD*%
D12*
%TO.P,R7,1*%
%TO.N,Net-(C4-Pad2)*%
X112253211Y-62540000D03*
D13*
%TO.P,R7,2*%
%TO.N,Net-(D2-Pad1)*%
X112253211Y-70160000D03*
%TD*%
D14*
%TO.P,D1,1,K*%
%TO.N,Net-(D1-Pad1)*%
X106133697Y-62540000D03*
D13*
%TO.P,D1,2,A*%
%TO.N,Net-(C4-Pad1)*%
X106133697Y-70160000D03*
%TD*%
D17*
%TO.P,C5,1*%
%TO.N,Net-(C5-Pad1)*%
X156874628Y-66130000D03*
X156202484Y-64130000D03*
D18*
%TO.P,C5,2*%
%TO.N,OUT*%
X162546772Y-68130000D03*
X161874628Y-66130000D03*
%TD*%
D12*
%TO.P,R2,1*%
%TO.N,GND*%
X147676203Y-81597911D03*
D13*
%TO.P,R2,2*%
%TO.N,Net-(C1-Pad1)*%
X147676203Y-73977911D03*
%TD*%
D28*
%TO.N,Net-(C1-Pad1)*%
X150314773Y-73977911D02*
X152032273Y-75695411D01*
X147676203Y-73977911D02*
X147676203Y-74196302D01*
X142477094Y-79395411D02*
X142477094Y-81611769D01*
X147676203Y-74196302D02*
X142477094Y-79395411D01*
X147676203Y-73977911D02*
X150314773Y-73977911D01*
%TO.N,Net-(C1-Pad2)*%
X162647505Y-74120000D02*
X162789594Y-73977911D01*
X157704417Y-79023267D02*
X158376561Y-79695411D01*
X157704417Y-77695411D02*
X161279828Y-74120000D01*
X157704417Y-77695411D02*
X157704417Y-79023267D01*
X161279828Y-74120000D02*
X162647505Y-74120000D01*
%TO.N,Net-(C2-Pad1)*%
X132792484Y-64130000D02*
X143622058Y-64130000D01*
X143867094Y-63884964D02*
X143867094Y-62667132D01*
X143622058Y-64130000D02*
X143867094Y-63884964D01*
X143867094Y-62667132D02*
X143877094Y-62657132D01*
X143867094Y-66157650D02*
X143867094Y-63884964D01*
X133464628Y-64802144D02*
X132792484Y-64130000D01*
X133464628Y-66130000D02*
X133464628Y-64802144D01*
%TO.N,Net-(C3-Pad1)*%
X114697425Y-82750120D02*
X114697425Y-80310000D01*
X143747094Y-83070211D02*
X143747094Y-81611769D01*
X131357305Y-83610000D02*
X131457305Y-83710000D01*
X131357305Y-81560000D02*
X131357305Y-83610000D01*
X117197425Y-77810000D02*
X114697425Y-80310000D01*
X115657305Y-83710000D02*
X114697425Y-82750120D01*
X119447425Y-77810000D02*
X117197425Y-77810000D01*
X133397305Y-83710000D02*
X143107305Y-83710000D01*
X131457305Y-83710000D02*
X115657305Y-83710000D01*
X143107305Y-83710000D02*
X143747094Y-83070211D01*
X133397305Y-83710000D02*
X131457305Y-83710000D01*
%TO.N,Net-(C3-Pad2)*%
X147690000Y-52820000D02*
X147690000Y-54224022D01*
X147845978Y-54380000D02*
X152610000Y-54380000D01*
X110275823Y-85275823D02*
X110950000Y-85950000D01*
X105340823Y-77800000D02*
X105340823Y-80340000D01*
X164630000Y-57140000D02*
X164630000Y-65260000D01*
X154525445Y-85950000D02*
X164630000Y-75845445D01*
X164630000Y-65260000D02*
X164630000Y-63669003D01*
X114697425Y-75310000D02*
X114697425Y-77198397D01*
X161870000Y-54380000D02*
X164630000Y-57140000D01*
X115355823Y-76540000D02*
X114627911Y-77267911D01*
X164630000Y-75845445D02*
X164630000Y-65260000D01*
X114697425Y-77198397D02*
X114627911Y-77267911D01*
X119447425Y-76540000D02*
X115355823Y-76540000D01*
X114627911Y-77267911D02*
X110275823Y-81620000D01*
X110275823Y-81620000D02*
X110275823Y-85275823D01*
X152610000Y-54380000D02*
X155340998Y-54380000D01*
X106620823Y-81620000D02*
X105340823Y-80340000D01*
X110950000Y-85950000D02*
X154525445Y-85950000D01*
X152610000Y-54380000D02*
X161870000Y-54380000D01*
X110275823Y-81620000D02*
X106620823Y-81620000D01*
X119447425Y-76540000D02*
X115927425Y-76540000D01*
X147690000Y-54224022D02*
X147845978Y-54380000D01*
%TO.N,Net-(C4-Pad1)*%
X88084646Y-68380000D02*
X88567323Y-68862677D01*
X91800000Y-58190000D02*
X88567323Y-61422677D01*
X88567323Y-68862677D02*
X92156027Y-68862677D01*
X102949163Y-70160000D02*
X90781206Y-70160000D01*
X84312144Y-68380000D02*
X88084646Y-68380000D01*
X90781206Y-70160000D02*
X90156027Y-69534821D01*
X106133697Y-70160000D02*
X102949163Y-70160000D01*
X88567323Y-61422677D02*
X88567323Y-68862677D01*
X97430758Y-58190000D02*
X91800000Y-58190000D01*
%TO.N,Net-(C4-Pad2)*%
X103090000Y-56490000D02*
X110240000Y-56490000D01*
X101870000Y-58807591D02*
X101870000Y-57710000D01*
X101870000Y-60211613D02*
X101870000Y-58807591D01*
X92006548Y-63160533D02*
X94834095Y-63160533D01*
X96954139Y-61040489D02*
X101041124Y-61040489D01*
X110240000Y-56490000D02*
X112253211Y-58503211D01*
X94834095Y-63160533D02*
X96954139Y-61040489D01*
X112253211Y-58503211D02*
X112253211Y-62540000D01*
X91334404Y-63832677D02*
X92006548Y-63160533D01*
X101041124Y-61040489D02*
X101870000Y-60211613D01*
X101870000Y-57710000D02*
X103090000Y-56490000D01*
%TO.N,Net-(C5-Pad1)*%
X156874628Y-64802144D02*
X156202484Y-64130000D01*
X156874628Y-66130000D02*
X156874628Y-64802144D01*
X151487094Y-69658167D02*
X153346461Y-69658167D01*
X153346461Y-69658167D02*
X156874628Y-66130000D01*
%TO.N,OUT*%
X125180000Y-54050000D02*
X125555000Y-54425000D01*
D29*
X134990000Y-45967234D02*
X126372766Y-45967234D01*
D28*
X151497094Y-62657132D02*
X151457133Y-62617171D01*
X125555000Y-54425000D02*
X126130000Y-55000000D01*
X161874628Y-59695372D02*
X161874628Y-57294628D01*
X126372766Y-45967234D02*
X125180000Y-47160000D01*
X151497094Y-62657132D02*
X154472113Y-59682113D01*
X125180000Y-47160000D02*
X125180000Y-54050000D01*
X161861369Y-59682113D02*
X161874628Y-59695372D01*
X160500000Y-55920000D02*
X127050000Y-55920000D01*
X161874628Y-66130000D02*
X161874628Y-59695372D01*
X161874628Y-66130000D02*
X161874628Y-67457856D01*
X154472113Y-59682113D02*
X161861369Y-59682113D01*
X127050000Y-55920000D02*
X125555000Y-54425000D01*
X161874628Y-57294628D02*
X160500000Y-55920000D01*
X162546772Y-65843228D02*
X162546772Y-68130000D01*
X161874628Y-67457856D02*
X162546772Y-68130000D01*
D29*
X126372766Y-45967234D02*
X114600000Y-45967234D01*
D28*
%TO.N,Net-(C6-Pad2)*%
X126140000Y-60250000D02*
X126165135Y-60275135D01*
X131357305Y-73940000D02*
X141152886Y-73940000D01*
X131362558Y-73940588D02*
X124972053Y-73940588D01*
X152300000Y-58217966D02*
X128222304Y-58217966D01*
X128172034Y-58217966D02*
X126140000Y-60250000D01*
X141152886Y-73940000D02*
X141207094Y-73994208D01*
X128222304Y-58217966D02*
X126165135Y-60275135D01*
X128147305Y-69460026D02*
X126837279Y-68150000D01*
X126837279Y-66822144D02*
X126165135Y-66150000D01*
X126837279Y-68150000D02*
X126837279Y-66822144D01*
X126165135Y-60275135D02*
X126165135Y-66150000D01*
X124972053Y-73940588D02*
X124932053Y-73980588D01*
X128147305Y-73940000D02*
X128147305Y-69460026D01*
%TO.N,Net-(D1-Pad1)*%
X106133697Y-62540000D02*
X109068454Y-62540000D01*
%TO.N,Net-(D2-Pad1)*%
X121770000Y-76242032D02*
X123298556Y-77770588D01*
X115687968Y-70160000D02*
X109068454Y-70160000D01*
X121770000Y-72100000D02*
X121770000Y-76242032D01*
X115687968Y-70160000D02*
X119830000Y-70160000D01*
X119830000Y-70160000D02*
X121770000Y-72100000D01*
X123298556Y-77770588D02*
X136677094Y-77770588D01*
%TO.N,Net-(D3-Pad2)*%
X105340823Y-75260000D02*
X105340823Y-74149106D01*
X105489929Y-74000000D02*
X100405823Y-74000000D01*
X110275823Y-74000000D02*
X105489929Y-74000000D01*
X105340823Y-74149106D02*
X105489929Y-74000000D01*
%TO.N,Net-(D4-Pad1)*%
X93435823Y-74000000D02*
X96920823Y-74000000D01*
%TO.N,Net-(D4-Pad2)*%
X101900000Y-53739003D02*
X101900000Y-55143025D01*
X85800000Y-81620000D02*
X93435823Y-81620000D01*
X101126513Y-55916513D02*
X100600000Y-56443025D01*
X81100000Y-64770000D02*
X81100000Y-76920000D01*
X81100000Y-76920000D02*
X85800000Y-81620000D01*
X101126513Y-55916513D02*
X89953487Y-55916513D01*
X101900000Y-55143025D02*
X101126513Y-55916513D01*
X100600000Y-56443025D02*
X100600000Y-58807591D01*
X89953487Y-55916513D02*
X81100000Y-64770000D01*
%TO.N,Net-(D5-Pad1)*%
X96920823Y-81620000D02*
X100405823Y-81620000D01*
D29*
%TO.N,-VDC*%
X170010000Y-46028411D02*
X170010000Y-33790000D01*
X147690000Y-37777234D02*
X147690000Y-33120000D01*
D30*
X170020000Y-55762966D02*
X170020000Y-55051697D01*
X170020000Y-53010000D02*
X170020000Y-41326499D01*
D29*
X169970000Y-45988411D02*
X170010000Y-46028411D01*
X169970000Y-41412616D02*
X169970000Y-45988411D01*
D28*
X148960000Y-52820000D02*
X148960000Y-39047234D01*
D30*
X167565000Y-58217966D02*
X170020000Y-55762966D01*
D29*
X148440000Y-32370000D02*
X168590000Y-32370000D01*
D28*
X170010997Y-53019003D02*
X170020000Y-53010000D01*
X170010000Y-49600000D02*
X170010000Y-46028411D01*
D29*
X169970000Y-41412616D02*
X169970000Y-46492616D01*
D28*
X148960000Y-39047234D02*
X147690000Y-37777234D01*
D29*
X147690000Y-33120000D02*
X148440000Y-32370000D01*
D30*
X170020000Y-55051697D02*
X170020000Y-53010000D01*
D29*
X170010000Y-33790000D02*
X168590000Y-32370000D01*
D30*
X170020000Y-41326499D02*
X170010000Y-41316499D01*
D29*
%TO.N,+VDC*%
X79430000Y-34480000D02*
X79480000Y-34480000D01*
X101900000Y-33680000D02*
X101900000Y-37777234D01*
X79430000Y-47078411D02*
X79430000Y-34480000D01*
D30*
X79430000Y-55429242D02*
X82190758Y-58190000D01*
D29*
X100570000Y-32350000D02*
X101900000Y-33680000D01*
D30*
X79430000Y-41281499D02*
X79430000Y-53360000D01*
D28*
X79809003Y-53739003D02*
X79430000Y-53360000D01*
D30*
X79430000Y-53360000D02*
X79430000Y-55429242D01*
D28*
X80061589Y-47710000D02*
X79430000Y-47078411D01*
X100630000Y-53739003D02*
X79809003Y-53739003D01*
D29*
X81610000Y-32350000D02*
X100570000Y-32350000D01*
X79480000Y-34480000D02*
X81610000Y-32350000D01*
D28*
%TO.N,Net-(Q1-Pad3)*%
X143747094Y-75182906D02*
X143747094Y-73994208D01*
X141207094Y-77722906D02*
X143747094Y-75182906D01*
X136677094Y-79040588D02*
X141067094Y-79040588D01*
X141207094Y-81611769D02*
X141207094Y-80067094D01*
X141207094Y-79180588D02*
X141067094Y-79040588D01*
X141207094Y-80067094D02*
X141207094Y-79180588D01*
X141207094Y-80067094D02*
X141207094Y-77722906D01*
%TO.N,Net-(Q2-Pad3)*%
X122969511Y-75163147D02*
X124306952Y-76500588D01*
X104852795Y-67878167D02*
X119278167Y-67878167D01*
X99514628Y-62540000D02*
X104852795Y-67878167D01*
X119278167Y-67878167D02*
X122969511Y-71569511D01*
X122969511Y-71569511D02*
X122969511Y-75163147D01*
X124306952Y-76500588D02*
X136677094Y-76500588D01*
%TO.N,Net-(Q3-Pad2)*%
X151487094Y-66157650D02*
X147367611Y-66157650D01*
X142477094Y-71048167D02*
X142477094Y-73994208D01*
X147367611Y-66157650D02*
X143867094Y-69658167D01*
X143867094Y-69658167D02*
X142477094Y-71048167D01*
%TO.N,Net-(Q4-Pad3)*%
X127117305Y-79080000D02*
X128147305Y-80110000D01*
X128147305Y-80110000D02*
X128147305Y-81560000D01*
X119447425Y-79080000D02*
X127117305Y-79080000D01*
%TO.N,Net-(Q5-Pad3)*%
X103140000Y-62349163D02*
X102949163Y-62540000D01*
X103140000Y-58807591D02*
X103140000Y-62349163D01*
%TO.N,Net-(Q6-Pad3)*%
X103170000Y-53739003D02*
X103170000Y-51920000D01*
X96450000Y-37777234D02*
X89852766Y-37777234D01*
X85425000Y-42205000D02*
X85425000Y-48045000D01*
X89150000Y-51770000D02*
X95510000Y-51770000D01*
X85425000Y-48045000D02*
X89150000Y-51770000D01*
X103320000Y-51770000D02*
X95510000Y-51770000D01*
X120985000Y-51770000D02*
X103320000Y-51770000D01*
X103170000Y-51920000D02*
X103320000Y-51770000D01*
X89852766Y-37777234D02*
X85425000Y-42205000D01*
%TO.N,Net-(Q7-Pad3)*%
X145370000Y-51770000D02*
X146420000Y-52820000D01*
X142240000Y-51680000D02*
X145530000Y-51680000D01*
X145530000Y-51680000D02*
X146420000Y-52570000D01*
X128605000Y-51770000D02*
X145370000Y-51770000D01*
X142240000Y-49370000D02*
X142240000Y-51680000D01*
X142240000Y-37777234D02*
X142240000Y-49370000D01*
X146420000Y-52570000D02*
X146420000Y-52820000D01*
X142240000Y-49370000D02*
X142240000Y-50200000D01*
%TO.N,Net-(R1-Pad1)*%
X162789594Y-81597911D02*
X163699594Y-81597911D01*
X163699594Y-81597911D02*
X167509594Y-77787911D01*
D29*
%TO.N,Net-(Q8-Pad3)*%
X103170000Y-45967234D02*
X89200000Y-45967234D01*
X107350000Y-37777234D02*
X107350000Y-41787234D01*
X107350000Y-41787234D02*
X103170000Y-45967234D01*
%TO.N,Net-(Q9-Pad3)*%
X155900000Y-45967234D02*
X160390000Y-45967234D01*
X153140000Y-37777234D02*
X153140000Y-43207234D01*
X153140000Y-43207234D02*
X155900000Y-45967234D01*
%TD*%
M02*
