%TF.GenerationSoftware,KiCad,Pcbnew,(6.0.0)*%
%TF.CreationDate,2022-08-29T21:40:36+01:00*%
%TF.ProjectId,Lynx amp Mini,4c796e78-2061-46d7-9020-4d696e692e6b,rev?*%
%TF.SameCoordinates,Original*%
%TF.FileFunction,Soldermask,Top*%
%TF.FilePolarity,Negative*%
%FSLAX46Y46*%
G04 Gerber Fmt 4.6, Leading zero omitted, Abs format (unit mm)*
G04 Created by KiCad (PCBNEW (6.0.0)) date 2022-08-29 21:40:36*
%MOMM*%
%LPD*%
G01*
G04 APERTURE LIST*
G04 Aperture macros list*
%AMRoundRect*
0 Rectangle with rounded corners*
0 $1 Rounding radius*
0 $2 $3 $4 $5 $6 $7 $8 $9 X,Y pos of 4 corners*
0 Add a 4 corners polygon primitive as box body*
4,1,4,$2,$3,$4,$5,$6,$7,$8,$9,$2,$3,0*
0 Add four circle primitives for the rounded corners*
1,1,$1+$1,$2,$3*
1,1,$1+$1,$4,$5*
1,1,$1+$1,$6,$7*
1,1,$1+$1,$8,$9*
0 Add four rect primitives between the rounded corners*
20,1,$1+$1,$2,$3,$4,$5,0*
20,1,$1+$1,$4,$5,$6,$7,0*
20,1,$1+$1,$6,$7,$8,$9,0*
20,1,$1+$1,$8,$9,$2,$3,0*%
G04 Aperture macros list end*
%ADD10RoundRect,0.250001X0.799999X-0.799999X0.799999X0.799999X-0.799999X0.799999X-0.799999X-0.799999X0*%
%ADD11C,2.100000*%
%ADD12C,1.600000*%
%ADD13O,1.600000X1.600000*%
%ADD14R,1.600000X1.600000*%
%ADD15C,3.200000*%
%ADD16C,2.400000*%
%ADD17O,2.400000X2.400000*%
%ADD18R,2.000000X2.000000*%
%ADD19C,2.000000*%
%ADD20O,5.000000X2.100000*%
%ADD21R,1.050000X1.500000*%
%ADD22O,1.050000X1.500000*%
%ADD23R,1.500000X1.050000*%
%ADD24O,1.500000X1.050000*%
%ADD25O,2.100000X5.000000*%
%ADD26C,1.440000*%
%ADD27R,2.500000X4.500000*%
%ADD28O,2.500000X4.500000*%
G04 APERTURE END LIST*
D10*
%TO.C,POT opt*%
X167460000Y-82387911D03*
D11*
X167460000Y-77787911D03*
X167460000Y-73187911D03*
%TD*%
D12*
%TO.C,R8*%
X143867094Y-69658167D03*
D13*
X151487094Y-69658167D03*
%TD*%
D14*
%TO.C,D5*%
X96920823Y-81620000D03*
D13*
X96920823Y-74000000D03*
%TD*%
D12*
%TO.C,R15*%
X128605000Y-51770000D03*
D13*
X120985000Y-51770000D03*
%TD*%
D12*
%TO.C,R6*%
X124897305Y-73940000D03*
D13*
X124897305Y-81560000D03*
%TD*%
D15*
%TO.C,REF\u002A\u002A*%
X171540000Y-85990000D03*
%TD*%
D16*
%TO.C,R16*%
X114600000Y-45967234D03*
D17*
X89200000Y-45967234D03*
%TD*%
D15*
%TO.C,REF\u002A\u002A*%
X78180000Y-85990000D03*
%TD*%
D18*
%TO.C,C2*%
X133464628Y-66130000D03*
X132792484Y-64130000D03*
D19*
X138464628Y-66130000D03*
X139136772Y-68130000D03*
%TD*%
D16*
%TO.C,R13*%
X152300000Y-58217966D03*
D17*
X167540000Y-58217966D03*
%TD*%
D15*
%TO.C,REF\u002A\u002A*%
X84690000Y-37640000D03*
%TD*%
D20*
%TO.C,J2*%
X126352500Y-45967234D03*
X123272500Y-45967234D03*
%TD*%
D12*
%TO.C,R11*%
X128147305Y-73940000D03*
D13*
X128147305Y-81560000D03*
%TD*%
D21*
%TO.C,Q7*%
X148960000Y-52820000D03*
D22*
X147690000Y-52820000D03*
X146420000Y-52820000D03*
%TD*%
D15*
%TO.C,REF\u002A\u002A*%
X164720000Y-37640000D03*
%TD*%
D21*
%TO.C,Q6*%
X100630000Y-53739003D03*
D22*
X101900000Y-53739003D03*
X103170000Y-53739003D03*
%TD*%
D23*
%TO.C,Q2*%
X136677094Y-79040588D03*
D24*
X136677094Y-77770588D03*
X136677094Y-76500588D03*
%TD*%
D12*
%TO.C,R4*%
X99514628Y-62540000D03*
D13*
X99514628Y-70160000D03*
%TD*%
D14*
%TO.C,D2*%
X109068454Y-70160000D03*
D13*
X109068454Y-62540000D03*
%TD*%
D12*
%TO.C,C3*%
X114697425Y-80310000D03*
X114697425Y-75310000D03*
%TD*%
D18*
%TO.C,C1*%
X152704417Y-77695411D03*
X152032273Y-75695411D03*
D19*
X157704417Y-77695411D03*
X158376561Y-79695411D03*
%TD*%
D25*
%TO.C,J3*%
X169970000Y-42412616D03*
X169970000Y-45492616D03*
%TD*%
D14*
%TO.C,D3*%
X110275823Y-81620000D03*
D13*
X110275823Y-74000000D03*
%TD*%
D26*
%TO.C,RV2*%
X105340823Y-75260000D03*
X105340823Y-77800000D03*
X105340823Y-80340000D03*
%TD*%
D18*
%TO.C,C7*%
X84312144Y-68380000D03*
X83640000Y-66380000D03*
D19*
X77967856Y-64380000D03*
X78640000Y-66380000D03*
%TD*%
D14*
%TO.C,D4*%
X93435823Y-74000000D03*
D13*
X93435823Y-81620000D03*
%TD*%
D21*
%TO.C,Q1*%
X143747094Y-81611769D03*
D22*
X142477094Y-81611769D03*
X141207094Y-81611769D03*
%TD*%
D18*
%TO.C,C6*%
X121165135Y-66150000D03*
X120492991Y-64150000D03*
D19*
X126837279Y-68150000D03*
X126165135Y-66150000D03*
%TD*%
D23*
%TO.C,Q4*%
X119447425Y-76540000D03*
D24*
X119447425Y-77810000D03*
X119447425Y-79080000D03*
%TD*%
D14*
%TO.C,D6*%
X100405823Y-74000000D03*
D13*
X100405823Y-81620000D03*
%TD*%
D21*
%TO.C,Q5*%
X100600000Y-58807591D03*
D22*
X101870000Y-58807591D03*
X103140000Y-58807591D03*
%TD*%
D25*
%TO.C,J4*%
X79390000Y-42377616D03*
X79390000Y-45457616D03*
%TD*%
D12*
%TO.C,R9*%
X151487094Y-66157650D03*
D13*
X143867094Y-66157650D03*
%TD*%
D21*
%TO.C,Q3*%
X141207094Y-73994208D03*
D22*
X142477094Y-73994208D03*
X143747094Y-73994208D03*
%TD*%
D27*
%TO.C,Q9*%
X142240000Y-37777234D03*
D28*
X147690000Y-37777234D03*
X153140000Y-37777234D03*
%TD*%
D20*
%TO.C,J7*%
X126352500Y-38779797D03*
X123272500Y-38779797D03*
%TD*%
D12*
%TO.C,R1*%
X162789594Y-81597911D03*
D13*
X162789594Y-73977911D03*
%TD*%
D12*
%TO.C,R5*%
X115687968Y-62540000D03*
D13*
X115687968Y-70160000D03*
%TD*%
D16*
%TO.C,R17*%
X160390000Y-45967234D03*
D17*
X134990000Y-45967234D03*
%TD*%
D27*
%TO.C,Q8*%
X96450000Y-37777234D03*
D28*
X101900000Y-37777234D03*
X107350000Y-37777234D03*
%TD*%
D12*
%TO.C,R3*%
X131357305Y-73940000D03*
D13*
X131357305Y-81560000D03*
%TD*%
D12*
%TO.C,R12*%
X102949163Y-62540000D03*
D13*
X102949163Y-70160000D03*
%TD*%
D12*
%TO.C,R10*%
X143877094Y-62657132D03*
D13*
X151497094Y-62657132D03*
%TD*%
D16*
%TO.C,R14*%
X82190758Y-58190000D03*
D17*
X97430758Y-58190000D03*
%TD*%
D18*
%TO.C,C4*%
X90156027Y-69534821D03*
X92156027Y-68862677D03*
D19*
X92156027Y-63862677D03*
X94156027Y-63190533D03*
%TD*%
D12*
%TO.C,R7*%
X112253211Y-62540000D03*
D13*
X112253211Y-70160000D03*
%TD*%
D14*
%TO.C,D1*%
X106133697Y-62540000D03*
D13*
X106133697Y-70160000D03*
%TD*%
D18*
%TO.C,C5*%
X156874628Y-66130000D03*
X156202484Y-64130000D03*
D19*
X162546772Y-68130000D03*
X161874628Y-66130000D03*
%TD*%
D12*
%TO.C,R2*%
X147676203Y-81597911D03*
D13*
X147676203Y-73977911D03*
%TD*%
M02*
