%TF.GenerationSoftware,KiCad,Pcbnew,(6.0.0)*%
%TF.CreationDate,2022-02-22T13:29:53+00:00*%
%TF.ProjectId,Audionote Kit four v2,41756469-6f6e-46f7-9465-204b69742066,rev?*%
%TF.SameCoordinates,Original*%
%TF.FileFunction,Copper,L1,Top*%
%TF.FilePolarity,Positive*%
%FSLAX46Y46*%
G04 Gerber Fmt 4.6, Leading zero omitted, Abs format (unit mm)*
G04 Created by KiCad (PCBNEW (6.0.0)) date 2022-02-22 13:29:53*
%MOMM*%
%LPD*%
G01*
G04 APERTURE LIST*
G04 Aperture macros list*
%AMRoundRect*
0 Rectangle with rounded corners*
0 $1 Rounding radius*
0 $2 $3 $4 $5 $6 $7 $8 $9 X,Y pos of 4 corners*
0 Add a 4 corners polygon primitive as box body*
4,1,4,$2,$3,$4,$5,$6,$7,$8,$9,$2,$3,0*
0 Add four circle primitives for the rounded corners*
1,1,$1+$1,$2,$3*
1,1,$1+$1,$4,$5*
1,1,$1+$1,$6,$7*
1,1,$1+$1,$8,$9*
0 Add four rect primitives between the rounded corners*
20,1,$1+$1,$2,$3,$4,$5,0*
20,1,$1+$1,$4,$5,$6,$7,0*
20,1,$1+$1,$6,$7,$8,$9,0*
20,1,$1+$1,$8,$9,$2,$3,0*%
G04 Aperture macros list end*
%TA.AperFunction,ComponentPad*%
%ADD10C,2.400000*%
%TD*%
%TA.AperFunction,ComponentPad*%
%ADD11O,2.400000X2.400000*%
%TD*%
%TA.AperFunction,ComponentPad*%
%ADD12RoundRect,0.249999X1.025001X-1.025001X1.025001X1.025001X-1.025001X1.025001X-1.025001X-1.025001X0*%
%TD*%
%TA.AperFunction,ComponentPad*%
%ADD13R,2.000000X2.000000*%
%TD*%
%TA.AperFunction,ComponentPad*%
%ADD14C,2.000000*%
%TD*%
%TA.AperFunction,ComponentPad*%
%ADD15R,4.000000X4.000000*%
%TD*%
%TA.AperFunction,ComponentPad*%
%ADD16C,4.000000*%
%TD*%
%TA.AperFunction,ComponentPad*%
%ADD17C,9.000000*%
%TD*%
%TA.AperFunction,ComponentPad*%
%ADD18R,2.400000X2.400000*%
%TD*%
%TA.AperFunction,Conductor*%
%ADD19C,3.000000*%
%TD*%
%TA.AperFunction,Conductor*%
%ADD20C,7.000000*%
%TD*%
G04 APERTURE END LIST*
D10*
%TO.P,R29,1*%
%TO.N,GND*%
X175431524Y-153086018D03*
D11*
%TO.P,R29,2*%
%TO.N,+V1*%
X175431524Y-125146018D03*
%TD*%
D12*
%TO.P,J2,1,Pin_1*%
%TO.N,Net-(D1-Pad3)*%
X203429434Y-201148476D03*
%TD*%
D13*
%TO.P,D2,1,+*%
%TO.N,Net-(C14-Pad1)*%
X196705399Y-188601524D03*
D14*
%TO.P,D2,2,-*%
%TO.N,GND*%
X196705399Y-183601524D03*
%TO.P,D2,3*%
%TO.N,Net-(D2-Pad3)*%
X196705399Y-178601524D03*
%TO.P,D2,4*%
%TO.N,Net-(D2-Pad4)*%
X196705399Y-173601524D03*
%TD*%
D12*
%TO.P,J3,1,Pin_1*%
%TO.N,Net-(D1-Pad4)*%
X203499434Y-196158476D03*
%TD*%
D10*
%TO.P,R7,1*%
%TO.N,Net-(C3-Pad1)*%
X173181524Y-208381524D03*
D11*
%TO.P,R7,2*%
%TO.N,F2+*%
X173181524Y-193141524D03*
%TD*%
D15*
%TO.P,C18,1*%
%TO.N,+V2*%
X190007714Y-102151524D03*
D16*
%TO.P,C18,2*%
%TO.N,GND*%
X200007714Y-102151524D03*
%TD*%
%TO.P,REF\u002A\u002A,1*%
%TO.N,+V1*%
X162810000Y-125725200D03*
D17*
X165350000Y-122225200D03*
D16*
X167813800Y-125725200D03*
X167813800Y-118714800D03*
X162810000Y-118714800D03*
%TD*%
D12*
%TO.P,J4,1,Pin_1*%
%TO.N,Net-(D2-Pad3)*%
X203370000Y-178600000D03*
%TD*%
D16*
%TO.P,REF\u002A\u002A,1*%
%TO.N,+V2*%
X167813800Y-87369600D03*
D17*
X165350000Y-90880000D03*
D16*
X162810000Y-94380000D03*
X162810000Y-87369600D03*
X167813800Y-94380000D03*
%TD*%
D13*
%TO.P,D1,1,+*%
%TO.N,Net-(C3-Pad1)*%
X196764833Y-211150000D03*
D14*
%TO.P,D1,2,-*%
%TO.N,GND*%
X196764833Y-206150000D03*
%TO.P,D1,3*%
%TO.N,Net-(D1-Pad3)*%
X196764833Y-201150000D03*
%TO.P,D1,4*%
%TO.N,Net-(D1-Pad4)*%
X196764833Y-196150000D03*
%TD*%
D15*
%TO.P,C14,1*%
%TO.N,Net-(C14-Pad1)*%
X190007714Y-156971524D03*
D16*
%TO.P,C14,2*%
%TO.N,GND*%
X200007714Y-156971524D03*
%TD*%
D10*
%TO.P,R30,1*%
%TO.N,+V1*%
X175431524Y-118781524D03*
D11*
%TO.P,R30,2*%
%TO.N,+V2*%
X175431524Y-90841524D03*
%TD*%
D14*
%TO.P,C3,1*%
%TO.N,Net-(C3-Pad1)*%
X184974833Y-203530000D03*
%TO.P,C3,2*%
%TO.N,GND*%
X184974833Y-196030000D03*
%TD*%
D15*
%TO.P,C17,1*%
%TO.N,+V1*%
X190007714Y-129561524D03*
D16*
%TO.P,C17,2*%
%TO.N,GND*%
X200007714Y-129561524D03*
%TD*%
D12*
%TO.P,J5,1,Pin_1*%
%TO.N,Net-(D2-Pad4)*%
X203440000Y-173610000D03*
%TD*%
D10*
%TO.P,R28,1*%
%TO.N,Net-(C14-Pad1)*%
X175431524Y-187390512D03*
D11*
%TO.P,R28,2*%
%TO.N,+V1*%
X175431524Y-159450512D03*
%TD*%
D16*
%TO.P,REF\u002A\u002A,1*%
%TO.N,F2+*%
X167813800Y-193925200D03*
X167813800Y-186914800D03*
D17*
X165350000Y-190425200D03*
D16*
X162810000Y-193925200D03*
X162810000Y-186914800D03*
%TD*%
D17*
%TO.P,REF\u002A\u002A,1*%
%TO.N,GND*%
X165350000Y-156165200D03*
D16*
X162810000Y-152654800D03*
X162810000Y-159665200D03*
X167813800Y-152654800D03*
X167813800Y-159665200D03*
%TD*%
D13*
%TO.P,C13,1*%
%TO.N,+V2*%
X188395179Y-66910000D03*
X189067323Y-68910000D03*
D14*
%TO.P,C13,2*%
%TO.N,GND*%
X194739467Y-70910000D03*
X194067323Y-68910000D03*
%TD*%
D18*
%TO.P,REF\u002A\u002A,1*%
%TO.N,+V2*%
X164399775Y-68910000D03*
D11*
%TO.P,REF\u002A\u002A,2*%
%TO.N,GND*%
X209399775Y-68910000D03*
%TD*%
D19*
%TO.N,Net-(D2-Pad3)*%
X203368476Y-178601524D02*
X203370000Y-178600000D01*
%TO.N,Net-(D1-Pad3)*%
X203427910Y-201150000D02*
X203429434Y-201148476D01*
%TO.N,Net-(D2-Pad4)*%
X203431524Y-173601524D02*
X203440000Y-173610000D01*
%TO.N,Net-(D1-Pad3)*%
X196764833Y-201150000D02*
X197532333Y-201150000D01*
%TO.N,Net-(D1-Pad4)*%
X203490958Y-196150000D02*
X203499434Y-196158476D01*
X196764833Y-196150000D02*
X203490958Y-196150000D01*
%TO.N,Net-(D2-Pad4)*%
X196705399Y-173601524D02*
X199192899Y-173601524D01*
%TO.N,Net-(D2-Pad3)*%
X196705399Y-178601524D02*
X197472899Y-178601524D01*
%TO.N,Net-(D1-Pad3)*%
X196764833Y-201150000D02*
X203427910Y-201150000D01*
%TO.N,Net-(D2-Pad3)*%
X197472899Y-178601524D02*
X203368476Y-178601524D01*
%TO.N,Net-(D2-Pad4)*%
X196705399Y-173601524D02*
X203431524Y-173601524D01*
%TO.N,Net-(D1-Pad4)*%
X196764833Y-196150000D02*
X199252333Y-196150000D01*
%TO.N,+V2*%
X165388476Y-90841524D02*
X165350000Y-90880000D01*
%TO.N,F2+*%
X168066324Y-193141524D02*
X165350000Y-190425200D01*
D20*
X173181524Y-193141524D02*
X168066324Y-193141524D01*
%TD*%
%TA.AperFunction,Conductor*%
%TO.N,Net-(C14-Pad1)*%
G36*
X196784487Y-149730321D02*
G01*
X196833871Y-149733853D01*
X197055650Y-149749715D01*
X197073433Y-149752272D01*
X197334658Y-149809098D01*
X197351900Y-149814160D01*
X197602393Y-149907589D01*
X197618740Y-149915055D01*
X197853375Y-150043176D01*
X197868498Y-150052895D01*
X198082510Y-150213103D01*
X198096096Y-150224876D01*
X198285124Y-150413904D01*
X198296897Y-150427490D01*
X198457105Y-150641502D01*
X198466824Y-150656625D01*
X198594945Y-150891260D01*
X198602411Y-150907607D01*
X198695839Y-151158097D01*
X198700902Y-151175342D01*
X198757728Y-151436567D01*
X198760286Y-151454355D01*
X198779679Y-151725513D01*
X198780000Y-151734501D01*
X198780000Y-154153162D01*
X198759998Y-154221283D01*
X198708245Y-154266887D01*
X198559762Y-154337710D01*
X198266635Y-154521588D01*
X198263801Y-154523858D01*
X198263796Y-154523862D01*
X198196863Y-154577486D01*
X197996585Y-154737939D01*
X197753191Y-154983895D01*
X197539680Y-155256196D01*
X197358882Y-155551233D01*
X197357355Y-155554523D01*
X197357350Y-155554532D01*
X197235923Y-155816125D01*
X197213192Y-155865094D01*
X197104542Y-156193621D01*
X197034372Y-156532459D01*
X197003612Y-156877116D01*
X197012670Y-157223025D01*
X197061426Y-157565600D01*
X197149233Y-157900301D01*
X197274928Y-158222691D01*
X197436844Y-158528498D01*
X197438894Y-158531481D01*
X197438896Y-158531484D01*
X197630779Y-158810676D01*
X197630785Y-158810683D01*
X197632836Y-158813668D01*
X197860306Y-159074422D01*
X198116238Y-159307302D01*
X198397241Y-159509223D01*
X198699590Y-159677509D01*
X198702939Y-159678896D01*
X198706215Y-159680480D01*
X198705751Y-159681439D01*
X198757509Y-159723161D01*
X198780000Y-159795007D01*
X198780000Y-170975024D01*
X198759998Y-171043145D01*
X198706342Y-171089638D01*
X198654000Y-171101024D01*
X196626816Y-171101024D01*
X196624837Y-171101148D01*
X196624821Y-171101149D01*
X196484888Y-171109953D01*
X196391384Y-171115836D01*
X196082320Y-171174793D01*
X195783084Y-171272021D01*
X195779498Y-171273708D01*
X195779494Y-171273710D01*
X195501978Y-171404299D01*
X195501971Y-171404303D01*
X195498392Y-171405987D01*
X195232736Y-171574577D01*
X194990305Y-171775134D01*
X194987591Y-171778024D01*
X194987590Y-171778025D01*
X194954161Y-171813624D01*
X194774921Y-172004494D01*
X194589983Y-172259040D01*
X194438405Y-172534758D01*
X194322580Y-172827299D01*
X194321596Y-172831133D01*
X194321593Y-172831141D01*
X194273206Y-173019598D01*
X194244333Y-173132051D01*
X194204899Y-173444206D01*
X194204899Y-173758842D01*
X194244333Y-174070997D01*
X194245319Y-174074836D01*
X194321593Y-174371907D01*
X194321596Y-174371915D01*
X194322580Y-174375749D01*
X194438405Y-174668290D01*
X194589983Y-174944008D01*
X194774921Y-175198554D01*
X194990305Y-175427914D01*
X195232736Y-175628471D01*
X195498392Y-175797061D01*
X195501971Y-175798745D01*
X195501978Y-175798749D01*
X195779494Y-175929338D01*
X195779498Y-175929340D01*
X195783084Y-175931027D01*
X195786856Y-175932253D01*
X195786857Y-175932253D01*
X195939011Y-175981691D01*
X195997617Y-176021765D01*
X196025254Y-176087161D01*
X196013147Y-176157118D01*
X195965141Y-176209424D01*
X195939010Y-176221357D01*
X195783084Y-176272021D01*
X195779498Y-176273708D01*
X195779494Y-176273710D01*
X195501978Y-176404299D01*
X195501971Y-176404303D01*
X195498392Y-176405987D01*
X195232736Y-176574577D01*
X194990305Y-176775134D01*
X194774921Y-177004494D01*
X194589983Y-177259040D01*
X194438405Y-177534758D01*
X194322580Y-177827299D01*
X194321596Y-177831133D01*
X194321593Y-177831141D01*
X194273206Y-178019598D01*
X194244333Y-178132051D01*
X194204899Y-178444206D01*
X194204899Y-178758842D01*
X194244333Y-179070997D01*
X194245319Y-179074836D01*
X194321593Y-179371907D01*
X194321596Y-179371915D01*
X194322580Y-179375749D01*
X194438405Y-179668290D01*
X194589983Y-179944008D01*
X194774921Y-180198554D01*
X194990305Y-180427914D01*
X195232736Y-180628471D01*
X195498392Y-180797061D01*
X195501971Y-180798745D01*
X195501978Y-180798749D01*
X195779494Y-180929338D01*
X195779498Y-180929340D01*
X195783084Y-180931027D01*
X196082320Y-181028255D01*
X196391384Y-181087212D01*
X196484888Y-181093095D01*
X196624821Y-181101899D01*
X196624837Y-181101900D01*
X196626816Y-181102024D01*
X198654000Y-181102024D01*
X198722121Y-181122026D01*
X198768614Y-181175682D01*
X198780000Y-181228024D01*
X198780000Y-182739269D01*
X198759998Y-182807390D01*
X198706342Y-182853883D01*
X198636068Y-182863987D01*
X198571488Y-182834493D01*
X198536819Y-182784369D01*
X198536694Y-182784426D01*
X198536385Y-182783741D01*
X198535787Y-182782877D01*
X198534860Y-182780364D01*
X198533319Y-182776187D01*
X198398792Y-182526864D01*
X198230477Y-182298984D01*
X198183953Y-182251723D01*
X198034864Y-182100275D01*
X198031733Y-182097094D01*
X198028193Y-182094393D01*
X198028187Y-182094387D01*
X197810066Y-181927922D01*
X197810062Y-181927919D01*
X197806525Y-181925220D01*
X197742578Y-181889408D01*
X197563236Y-181788972D01*
X197563231Y-181788969D01*
X197559346Y-181786794D01*
X197555188Y-181785186D01*
X197555183Y-181785183D01*
X197299284Y-181686183D01*
X197299278Y-181686181D01*
X197295129Y-181684576D01*
X197290797Y-181683572D01*
X197290794Y-181683571D01*
X197215540Y-181666128D01*
X197019146Y-181620606D01*
X196736902Y-181596161D01*
X196732467Y-181596405D01*
X196732463Y-181596405D01*
X196458472Y-181611484D01*
X196458465Y-181611485D01*
X196454029Y-181611729D01*
X196316142Y-181639156D01*
X196180545Y-181666128D01*
X196180540Y-181666129D01*
X196176173Y-181666998D01*
X196171970Y-181668474D01*
X195913083Y-181759388D01*
X195913080Y-181759389D01*
X195908875Y-181760866D01*
X195904922Y-181762919D01*
X195904916Y-181762922D01*
X195762534Y-181836884D01*
X195657471Y-181891460D01*
X195653856Y-181894043D01*
X195653850Y-181894047D01*
X195606447Y-181927922D01*
X195426975Y-182056175D01*
X195423748Y-182059253D01*
X195423746Y-182059255D01*
X195384081Y-182097094D01*
X195221987Y-182251723D01*
X195046598Y-182474204D01*
X195016011Y-182526864D01*
X194906540Y-182715331D01*
X194906537Y-182715337D01*
X194904306Y-182719178D01*
X194797951Y-182981756D01*
X194729654Y-183256701D01*
X194700779Y-183538526D01*
X194711901Y-183821608D01*
X194762799Y-184100299D01*
X194764208Y-184104522D01*
X194845473Y-184348103D01*
X194852457Y-184369038D01*
X194854449Y-184373025D01*
X194854450Y-184373027D01*
X194935850Y-184535933D01*
X194979086Y-184622463D01*
X195140160Y-184855517D01*
X195332464Y-185063551D01*
X195335918Y-185066363D01*
X195548706Y-185239599D01*
X195548710Y-185239602D01*
X195552163Y-185242413D01*
X195794871Y-185388536D01*
X195798966Y-185390270D01*
X195798968Y-185390271D01*
X196051646Y-185497266D01*
X196051653Y-185497268D01*
X196055747Y-185499002D01*
X196155891Y-185525555D01*
X196325288Y-185570470D01*
X196325292Y-185570471D01*
X196329585Y-185571609D01*
X196333994Y-185572131D01*
X196334000Y-185572132D01*
X196491352Y-185590756D01*
X196610922Y-185604908D01*
X196894144Y-185598233D01*
X196898542Y-185597501D01*
X197169209Y-185552450D01*
X197169213Y-185552449D01*
X197173599Y-185551719D01*
X197177840Y-185550378D01*
X197177843Y-185550377D01*
X197439467Y-185467636D01*
X197439469Y-185467635D01*
X197443713Y-185466293D01*
X197447724Y-185464367D01*
X197447729Y-185464365D01*
X197695077Y-185345590D01*
X197695078Y-185345589D01*
X197699096Y-185343660D01*
X197847180Y-185244714D01*
X197930944Y-185188745D01*
X197930948Y-185188742D01*
X197934652Y-185186267D01*
X198145680Y-184997254D01*
X198327972Y-184780392D01*
X198477888Y-184540009D01*
X198538761Y-184402316D01*
X198584598Y-184348103D01*
X198652471Y-184327275D01*
X198720829Y-184346449D01*
X198767970Y-184399536D01*
X198780000Y-184453266D01*
X198780000Y-190165499D01*
X198779679Y-190174487D01*
X198762457Y-190415293D01*
X198760286Y-190445645D01*
X198757728Y-190463433D01*
X198700903Y-190724654D01*
X198695840Y-190741900D01*
X198602411Y-190992393D01*
X198594945Y-191008740D01*
X198466824Y-191243375D01*
X198457105Y-191258498D01*
X198296897Y-191472510D01*
X198285124Y-191486096D01*
X198096096Y-191675124D01*
X198082510Y-191686897D01*
X197868498Y-191847105D01*
X197853375Y-191856824D01*
X197618740Y-191984945D01*
X197602393Y-191992411D01*
X197351900Y-192085840D01*
X197334658Y-192090902D01*
X197073433Y-192147728D01*
X197055650Y-192150285D01*
X196833871Y-192166147D01*
X196784487Y-192169679D01*
X196775499Y-192170000D01*
X177676197Y-192170000D01*
X177608076Y-192149998D01*
X177561583Y-192096342D01*
X177553602Y-192073094D01*
X177513117Y-191902497D01*
X177513117Y-191902495D01*
X177512442Y-191899653D01*
X177511511Y-191896895D01*
X177511508Y-191896884D01*
X177380144Y-191507669D01*
X177379214Y-191504913D01*
X177210093Y-191124167D01*
X177006525Y-190760670D01*
X176770251Y-190417532D01*
X176503292Y-190097685D01*
X176207929Y-189803864D01*
X176205687Y-189802013D01*
X176205682Y-189802008D01*
X176038311Y-189663793D01*
X175886689Y-189538583D01*
X175884279Y-189536942D01*
X175544735Y-189305755D01*
X175544730Y-189305752D01*
X175542317Y-189304109D01*
X175539769Y-189302699D01*
X175539760Y-189302694D01*
X175278235Y-189158027D01*
X175177760Y-189102447D01*
X174796134Y-188935322D01*
X174400701Y-188804163D01*
X174397875Y-188803508D01*
X174397868Y-188803506D01*
X173997689Y-188710749D01*
X173997680Y-188710747D01*
X173994844Y-188710090D01*
X173582033Y-188653909D01*
X173579183Y-188653782D01*
X173579182Y-188653782D01*
X173294137Y-188641087D01*
X173294122Y-188641087D01*
X173292715Y-188641024D01*
X171016000Y-188641024D01*
X170947879Y-188621022D01*
X170901386Y-188567366D01*
X170890000Y-188515024D01*
X170890000Y-173604501D01*
X170890321Y-173595513D01*
X170900859Y-173448165D01*
X170909715Y-173324350D01*
X170912272Y-173306567D01*
X170969098Y-173045342D01*
X170974161Y-173028097D01*
X171047622Y-172831141D01*
X171067589Y-172777607D01*
X171075055Y-172761260D01*
X171203176Y-172526625D01*
X171212895Y-172511502D01*
X171373103Y-172297490D01*
X171384876Y-172283904D01*
X171573904Y-172094876D01*
X171587490Y-172083103D01*
X171801502Y-171922895D01*
X171816625Y-171913176D01*
X172051260Y-171785055D01*
X172067607Y-171777589D01*
X172318100Y-171684160D01*
X172335342Y-171679098D01*
X172596567Y-171622272D01*
X172614350Y-171619715D01*
X172836129Y-171603853D01*
X172885513Y-171600321D01*
X172894501Y-171600000D01*
X181640000Y-171600000D01*
X181640000Y-151734501D01*
X181640321Y-151725513D01*
X181659714Y-151454355D01*
X181662272Y-151436567D01*
X181719098Y-151175342D01*
X181724161Y-151158097D01*
X181817589Y-150907607D01*
X181825055Y-150891260D01*
X181953176Y-150656625D01*
X181962895Y-150641502D01*
X182123103Y-150427490D01*
X182134876Y-150413904D01*
X182323904Y-150224876D01*
X182337490Y-150213103D01*
X182551502Y-150052895D01*
X182566625Y-150043176D01*
X182801260Y-149915055D01*
X182817607Y-149907589D01*
X183068100Y-149814160D01*
X183085342Y-149809098D01*
X183346567Y-149752272D01*
X183364350Y-149749715D01*
X183586129Y-149733853D01*
X183635513Y-149730321D01*
X183644501Y-149730000D01*
X196775499Y-149730000D01*
X196784487Y-149730321D01*
G37*
%TD.AperFunction*%
%TD*%
%TA.AperFunction,Conductor*%
%TO.N,+V2*%
G36*
X212812121Y-49730002D02*
G01*
X212858614Y-49783658D01*
X212870000Y-49836000D01*
X212870000Y-109654000D01*
X212849998Y-109722121D01*
X212796342Y-109768614D01*
X212744000Y-109780000D01*
X160876000Y-109780000D01*
X160807879Y-109759998D01*
X160761386Y-109706342D01*
X160750000Y-109654000D01*
X160750000Y-102057116D01*
X197003612Y-102057116D01*
X197012670Y-102403025D01*
X197061426Y-102745600D01*
X197149233Y-103080301D01*
X197274928Y-103402691D01*
X197436844Y-103708498D01*
X197438894Y-103711481D01*
X197438896Y-103711484D01*
X197630779Y-103990676D01*
X197630785Y-103990683D01*
X197632836Y-103993668D01*
X197860306Y-104254422D01*
X198116238Y-104487302D01*
X198397241Y-104689223D01*
X198699590Y-104857509D01*
X199019277Y-104989927D01*
X199022771Y-104990922D01*
X199022773Y-104990923D01*
X199348565Y-105083728D01*
X199348570Y-105083729D01*
X199352066Y-105084725D01*
X199587748Y-105123319D01*
X199689965Y-105140058D01*
X199689969Y-105140058D01*
X199693545Y-105140644D01*
X199697171Y-105140815D01*
X200035561Y-105156773D01*
X200035562Y-105156773D01*
X200039188Y-105156944D01*
X200050060Y-105156203D01*
X200380783Y-105133657D01*
X200380791Y-105133656D01*
X200384414Y-105133409D01*
X200387990Y-105132746D01*
X200387992Y-105132746D01*
X200721082Y-105071012D01*
X200721086Y-105071011D01*
X200724647Y-105070351D01*
X201055377Y-104968605D01*
X201372221Y-104829520D01*
X201670979Y-104654940D01*
X201673888Y-104652756D01*
X201944785Y-104449361D01*
X201944789Y-104449358D01*
X201947692Y-104447178D01*
X202198691Y-104208989D01*
X202420650Y-103943529D01*
X202573075Y-103711484D01*
X202608640Y-103657342D01*
X202608645Y-103657333D01*
X202610627Y-103654316D01*
X202738883Y-103399309D01*
X202764477Y-103348422D01*
X202764480Y-103348414D01*
X202766104Y-103345186D01*
X202864323Y-103076789D01*
X202883771Y-103023646D01*
X202883774Y-103023636D01*
X202885019Y-103020234D01*
X202885864Y-103016712D01*
X202885867Y-103016704D01*
X202964951Y-102687296D01*
X202964952Y-102687292D01*
X202965798Y-102683767D01*
X202966235Y-102680157D01*
X203007032Y-102343025D01*
X203007032Y-102343019D01*
X203007368Y-102340246D01*
X203013299Y-102151524D01*
X203008065Y-102060747D01*
X202993589Y-101809691D01*
X202993588Y-101809686D01*
X202993380Y-101806071D01*
X202992757Y-101802501D01*
X202934512Y-101468769D01*
X202934510Y-101468762D01*
X202933888Y-101465196D01*
X202835611Y-101133418D01*
X202699852Y-100815135D01*
X202528410Y-100514565D01*
X202468744Y-100433339D01*
X202325700Y-100238610D01*
X202323557Y-100235692D01*
X202088009Y-99982212D01*
X201824888Y-99757486D01*
X201537681Y-99564491D01*
X201230196Y-99405785D01*
X200906507Y-99283474D01*
X200570904Y-99199176D01*
X200426695Y-99180191D01*
X200231442Y-99154485D01*
X200231434Y-99154484D01*
X200227838Y-99154011D01*
X200076705Y-99151636D01*
X199885494Y-99148632D01*
X199885490Y-99148632D01*
X199881853Y-99148575D01*
X199878238Y-99148936D01*
X199878234Y-99148936D01*
X199710360Y-99165693D01*
X199537537Y-99182943D01*
X199534000Y-99183714D01*
X199533995Y-99183715D01*
X199202997Y-99255884D01*
X199202992Y-99255885D01*
X199199453Y-99256657D01*
X198872081Y-99368741D01*
X198559762Y-99517710D01*
X198266635Y-99701588D01*
X198263801Y-99703858D01*
X198263796Y-99703862D01*
X198094780Y-99839270D01*
X197996585Y-99917939D01*
X197753191Y-100163895D01*
X197539680Y-100436196D01*
X197358882Y-100731233D01*
X197357355Y-100734523D01*
X197357350Y-100734532D01*
X197318386Y-100818473D01*
X197213192Y-101045094D01*
X197104542Y-101373621D01*
X197034372Y-101712459D01*
X197003612Y-102057116D01*
X160750000Y-102057116D01*
X160750000Y-68847002D01*
X192062703Y-68847002D01*
X192073825Y-69130084D01*
X192124723Y-69408775D01*
X192214381Y-69677514D01*
X192216373Y-69681501D01*
X192216374Y-69681503D01*
X192295199Y-69839256D01*
X192341010Y-69930939D01*
X192502084Y-70163993D01*
X192505106Y-70167262D01*
X192691372Y-70368765D01*
X192691377Y-70368770D01*
X192694388Y-70372027D01*
X192697835Y-70374833D01*
X192729957Y-70400985D01*
X192770156Y-70459505D01*
X192772690Y-70529071D01*
X192764797Y-70560848D01*
X192763722Y-70565177D01*
X192734847Y-70847002D01*
X192735022Y-70851454D01*
X192742465Y-71040887D01*
X192745969Y-71130084D01*
X192796867Y-71408775D01*
X192886525Y-71677514D01*
X193013154Y-71930939D01*
X193174228Y-72163993D01*
X193366532Y-72372027D01*
X193369986Y-72374839D01*
X193582774Y-72548075D01*
X193582778Y-72548078D01*
X193586231Y-72550889D01*
X193828939Y-72697012D01*
X193833034Y-72698746D01*
X193833036Y-72698747D01*
X194085714Y-72805742D01*
X194085721Y-72805744D01*
X194089815Y-72807478D01*
X194189959Y-72834031D01*
X194359356Y-72878946D01*
X194359360Y-72878947D01*
X194363653Y-72880085D01*
X194368062Y-72880607D01*
X194368068Y-72880608D01*
X194525420Y-72899232D01*
X194644990Y-72913384D01*
X194928212Y-72906709D01*
X194932610Y-72905977D01*
X195203277Y-72860926D01*
X195203281Y-72860925D01*
X195207667Y-72860195D01*
X195211908Y-72858854D01*
X195211911Y-72858853D01*
X195473535Y-72776112D01*
X195473537Y-72776111D01*
X195477781Y-72774769D01*
X195481792Y-72772843D01*
X195481797Y-72772841D01*
X195729145Y-72654066D01*
X195729146Y-72654065D01*
X195733164Y-72652136D01*
X195881248Y-72553190D01*
X195965012Y-72497221D01*
X195965016Y-72497218D01*
X195968720Y-72494743D01*
X196179748Y-72305730D01*
X196362040Y-72088868D01*
X196511956Y-71848485D01*
X196626507Y-71589376D01*
X196703406Y-71316712D01*
X196729071Y-71125635D01*
X196740692Y-71039115D01*
X196740693Y-71039107D01*
X196741119Y-71035933D01*
X196745077Y-70910000D01*
X196725068Y-70627407D01*
X196711671Y-70565177D01*
X196666378Y-70354800D01*
X196666378Y-70354798D01*
X196665442Y-70350453D01*
X196567387Y-70084663D01*
X196432860Y-69835340D01*
X196264545Y-69607460D01*
X196139813Y-69480753D01*
X196068211Y-69408018D01*
X196034676Y-69345441D01*
X196033124Y-69302852D01*
X196068548Y-69039115D01*
X196068549Y-69039107D01*
X196068975Y-69035933D01*
X196072933Y-68910000D01*
X207194553Y-68910000D01*
X207213419Y-69197839D01*
X207214223Y-69201879D01*
X207214223Y-69201882D01*
X207256217Y-69412998D01*
X207269694Y-69480753D01*
X207271020Y-69484659D01*
X207271021Y-69484663D01*
X207337840Y-69681503D01*
X207362416Y-69753902D01*
X207364237Y-69757595D01*
X207364238Y-69757597D01*
X207402577Y-69835340D01*
X207489997Y-70012611D01*
X207492291Y-70016044D01*
X207593332Y-70167262D01*
X207650255Y-70252454D01*
X207652969Y-70255548D01*
X207652973Y-70255554D01*
X207824787Y-70451469D01*
X207840448Y-70469327D01*
X207843537Y-70472036D01*
X208054221Y-70656802D01*
X208054227Y-70656806D01*
X208057321Y-70659520D01*
X208060747Y-70661809D01*
X208060752Y-70661813D01*
X208240342Y-70781811D01*
X208297164Y-70819778D01*
X208300863Y-70821602D01*
X208300868Y-70821605D01*
X208552178Y-70945537D01*
X208555873Y-70947359D01*
X208559771Y-70948682D01*
X208559773Y-70948683D01*
X208825112Y-71038754D01*
X208825116Y-71038755D01*
X208829022Y-71040081D01*
X208833066Y-71040885D01*
X208833072Y-71040887D01*
X209107893Y-71095552D01*
X209107896Y-71095552D01*
X209111936Y-71096356D01*
X209116047Y-71096625D01*
X209116051Y-71096626D01*
X209395656Y-71114952D01*
X209399775Y-71115222D01*
X209403894Y-71114952D01*
X209683499Y-71096626D01*
X209683503Y-71096625D01*
X209687614Y-71096356D01*
X209691654Y-71095552D01*
X209691657Y-71095552D01*
X209966478Y-71040887D01*
X209966484Y-71040885D01*
X209970528Y-71040081D01*
X209974434Y-71038755D01*
X209974438Y-71038754D01*
X210239777Y-70948683D01*
X210239779Y-70948682D01*
X210243677Y-70947359D01*
X210247372Y-70945537D01*
X210498682Y-70821605D01*
X210498687Y-70821602D01*
X210502386Y-70819778D01*
X210559208Y-70781811D01*
X210738798Y-70661813D01*
X210738803Y-70661809D01*
X210742229Y-70659520D01*
X210745323Y-70656806D01*
X210745329Y-70656802D01*
X210956013Y-70472036D01*
X210959102Y-70469327D01*
X210974763Y-70451469D01*
X211146577Y-70255554D01*
X211146581Y-70255548D01*
X211149295Y-70252454D01*
X211206219Y-70167262D01*
X211307259Y-70016044D01*
X211309553Y-70012611D01*
X211396974Y-69835340D01*
X211435312Y-69757597D01*
X211435313Y-69757595D01*
X211437134Y-69753902D01*
X211461710Y-69681503D01*
X211528529Y-69484663D01*
X211528530Y-69484659D01*
X211529856Y-69480753D01*
X211543334Y-69412998D01*
X211585327Y-69201882D01*
X211585327Y-69201879D01*
X211586131Y-69197839D01*
X211604997Y-68910000D01*
X211586131Y-68622161D01*
X211585327Y-68618118D01*
X211530662Y-68343297D01*
X211530660Y-68343291D01*
X211529856Y-68339247D01*
X211514684Y-68294550D01*
X211438458Y-68069998D01*
X211438457Y-68069996D01*
X211437134Y-68066098D01*
X211418176Y-68027654D01*
X211311380Y-67811093D01*
X211311377Y-67811088D01*
X211309553Y-67807389D01*
X211149295Y-67567546D01*
X211146581Y-67564452D01*
X211146577Y-67564446D01*
X210961811Y-67353762D01*
X210959102Y-67350673D01*
X210787220Y-67199936D01*
X210745329Y-67163198D01*
X210745323Y-67163194D01*
X210742229Y-67160480D01*
X210738803Y-67158191D01*
X210738798Y-67158187D01*
X210505819Y-67002516D01*
X210502386Y-67000222D01*
X210498687Y-66998398D01*
X210498682Y-66998395D01*
X210247372Y-66874463D01*
X210247370Y-66874462D01*
X210243677Y-66872641D01*
X210239777Y-66871317D01*
X209974438Y-66781246D01*
X209974434Y-66781245D01*
X209970528Y-66779919D01*
X209966484Y-66779115D01*
X209966478Y-66779113D01*
X209691657Y-66724448D01*
X209691654Y-66724448D01*
X209687614Y-66723644D01*
X209683503Y-66723375D01*
X209683499Y-66723374D01*
X209403894Y-66705048D01*
X209399775Y-66704778D01*
X209395656Y-66705048D01*
X209116051Y-66723374D01*
X209116047Y-66723375D01*
X209111936Y-66723644D01*
X209107896Y-66724448D01*
X209107893Y-66724448D01*
X208833072Y-66779113D01*
X208833066Y-66779115D01*
X208829022Y-66779919D01*
X208825116Y-66781245D01*
X208825112Y-66781246D01*
X208559773Y-66871317D01*
X208555873Y-66872641D01*
X208552180Y-66874462D01*
X208552178Y-66874463D01*
X208300868Y-66998395D01*
X208300863Y-66998398D01*
X208297164Y-67000222D01*
X208293731Y-67002516D01*
X208060752Y-67158187D01*
X208060747Y-67158191D01*
X208057321Y-67160480D01*
X208054227Y-67163194D01*
X208054221Y-67163198D01*
X208012330Y-67199936D01*
X207840448Y-67350673D01*
X207837739Y-67353762D01*
X207652973Y-67564446D01*
X207652969Y-67564452D01*
X207650255Y-67567546D01*
X207489997Y-67807389D01*
X207488173Y-67811088D01*
X207488170Y-67811093D01*
X207381374Y-68027654D01*
X207362416Y-68066098D01*
X207361093Y-68069996D01*
X207361092Y-68069998D01*
X207284867Y-68294550D01*
X207269694Y-68339247D01*
X207268890Y-68343291D01*
X207268888Y-68343297D01*
X207214223Y-68618118D01*
X207213419Y-68622161D01*
X207194553Y-68910000D01*
X196072933Y-68910000D01*
X196052924Y-68627407D01*
X196039527Y-68565177D01*
X195994234Y-68354800D01*
X195994234Y-68354798D01*
X195993298Y-68350453D01*
X195895243Y-68084663D01*
X195760716Y-67835340D01*
X195592401Y-67607460D01*
X195550058Y-67564446D01*
X195396788Y-67408751D01*
X195393657Y-67405570D01*
X195390117Y-67402869D01*
X195390111Y-67402863D01*
X195171990Y-67236398D01*
X195171986Y-67236395D01*
X195168449Y-67233696D01*
X195033617Y-67158187D01*
X194925160Y-67097448D01*
X194925155Y-67097445D01*
X194921270Y-67095270D01*
X194917112Y-67093662D01*
X194917107Y-67093659D01*
X194661208Y-66994659D01*
X194661202Y-66994657D01*
X194657053Y-66993052D01*
X194652721Y-66992048D01*
X194652718Y-66992047D01*
X194577464Y-66974604D01*
X194381070Y-66929082D01*
X194098826Y-66904637D01*
X194094391Y-66904881D01*
X194094387Y-66904881D01*
X193820396Y-66919960D01*
X193820389Y-66919961D01*
X193815953Y-66920205D01*
X193678066Y-66947632D01*
X193542469Y-66974604D01*
X193542464Y-66974605D01*
X193538097Y-66975474D01*
X193533894Y-66976950D01*
X193275007Y-67067864D01*
X193275004Y-67067865D01*
X193270799Y-67069342D01*
X193266846Y-67071395D01*
X193266840Y-67071398D01*
X193124458Y-67145360D01*
X193019395Y-67199936D01*
X193015780Y-67202519D01*
X193015774Y-67202523D01*
X192968371Y-67236398D01*
X192788899Y-67364651D01*
X192785672Y-67367729D01*
X192785670Y-67367731D01*
X192746005Y-67405570D01*
X192583911Y-67560199D01*
X192408522Y-67782680D01*
X192377935Y-67835340D01*
X192268464Y-68023807D01*
X192268461Y-68023813D01*
X192266230Y-68027654D01*
X192159875Y-68290232D01*
X192158804Y-68294545D01*
X192158802Y-68294550D01*
X192144916Y-68350453D01*
X192091578Y-68565177D01*
X192091124Y-68569605D01*
X192091124Y-68569607D01*
X192085318Y-68626276D01*
X192062703Y-68847002D01*
X160750000Y-68847002D01*
X160750000Y-52975471D01*
X161794955Y-52975471D01*
X161819914Y-53292607D01*
X161883336Y-53604338D01*
X161984276Y-53906016D01*
X162121229Y-54193143D01*
X162292153Y-54461440D01*
X162494500Y-54706907D01*
X162725254Y-54925884D01*
X162980975Y-55115108D01*
X163119412Y-55193432D01*
X163254492Y-55269857D01*
X163254496Y-55269859D01*
X163257849Y-55271756D01*
X163551751Y-55393494D01*
X163653083Y-55421596D01*
X163854582Y-55477477D01*
X163854590Y-55477479D01*
X163858298Y-55478507D01*
X164172921Y-55525528D01*
X164176219Y-55525672D01*
X164285427Y-55530440D01*
X164285432Y-55530440D01*
X164286804Y-55530500D01*
X164480799Y-55530500D01*
X164717524Y-55516021D01*
X164721307Y-55515320D01*
X164721314Y-55515319D01*
X164919931Y-55478507D01*
X165030313Y-55458049D01*
X165239732Y-55392020D01*
X165330035Y-55363548D01*
X165330038Y-55363547D01*
X165333707Y-55362390D01*
X165337204Y-55360796D01*
X165337210Y-55360794D01*
X165619673Y-55232068D01*
X165619677Y-55232066D01*
X165623181Y-55230469D01*
X165808334Y-55117007D01*
X165891142Y-55066262D01*
X165891145Y-55066260D01*
X165894420Y-55064253D01*
X165897424Y-55061863D01*
X165897429Y-55061860D01*
X166140370Y-54868616D01*
X166143381Y-54866221D01*
X166366352Y-54639324D01*
X166500572Y-54464405D01*
X166557674Y-54389989D01*
X166557679Y-54389981D01*
X166560009Y-54386945D01*
X166672257Y-54196386D01*
X166719513Y-54116162D01*
X166719515Y-54116159D01*
X166721466Y-54112846D01*
X166848315Y-53821114D01*
X166938665Y-53516097D01*
X166991169Y-53202343D01*
X167001074Y-52975471D01*
X206944955Y-52975471D01*
X206969914Y-53292607D01*
X207033336Y-53604338D01*
X207134276Y-53906016D01*
X207271229Y-54193143D01*
X207442153Y-54461440D01*
X207644500Y-54706907D01*
X207875254Y-54925884D01*
X208130975Y-55115108D01*
X208269412Y-55193432D01*
X208404492Y-55269857D01*
X208404496Y-55269859D01*
X208407849Y-55271756D01*
X208701751Y-55393494D01*
X208803083Y-55421596D01*
X209004582Y-55477477D01*
X209004590Y-55477479D01*
X209008298Y-55478507D01*
X209322921Y-55525528D01*
X209326219Y-55525672D01*
X209435427Y-55530440D01*
X209435432Y-55530440D01*
X209436804Y-55530500D01*
X209630799Y-55530500D01*
X209867524Y-55516021D01*
X209871307Y-55515320D01*
X209871314Y-55515319D01*
X210069931Y-55478507D01*
X210180313Y-55458049D01*
X210389732Y-55392020D01*
X210480035Y-55363548D01*
X210480038Y-55363547D01*
X210483707Y-55362390D01*
X210487204Y-55360796D01*
X210487210Y-55360794D01*
X210769673Y-55232068D01*
X210769677Y-55232066D01*
X210773181Y-55230469D01*
X210958334Y-55117007D01*
X211041142Y-55066262D01*
X211041145Y-55066260D01*
X211044420Y-55064253D01*
X211047424Y-55061863D01*
X211047429Y-55061860D01*
X211290370Y-54868616D01*
X211293381Y-54866221D01*
X211516352Y-54639324D01*
X211650572Y-54464405D01*
X211707674Y-54389989D01*
X211707679Y-54389981D01*
X211710009Y-54386945D01*
X211822257Y-54196386D01*
X211869513Y-54116162D01*
X211869515Y-54116159D01*
X211871466Y-54112846D01*
X211998315Y-53821114D01*
X212088665Y-53516097D01*
X212141169Y-53202343D01*
X212155045Y-52884529D01*
X212130086Y-52567393D01*
X212066664Y-52255662D01*
X211965724Y-51953984D01*
X211828771Y-51666857D01*
X211657847Y-51398560D01*
X211455500Y-51153093D01*
X211224746Y-50934116D01*
X210969025Y-50744892D01*
X210768680Y-50631542D01*
X210695508Y-50590143D01*
X210695504Y-50590141D01*
X210692151Y-50588244D01*
X210398249Y-50466506D01*
X210296917Y-50438404D01*
X210095418Y-50382523D01*
X210095410Y-50382521D01*
X210091702Y-50381493D01*
X209777079Y-50334472D01*
X209773781Y-50334328D01*
X209664573Y-50329560D01*
X209664568Y-50329560D01*
X209663196Y-50329500D01*
X209469201Y-50329500D01*
X209232476Y-50343979D01*
X209228693Y-50344680D01*
X209228686Y-50344681D01*
X209076082Y-50372965D01*
X208919687Y-50401951D01*
X208739997Y-50458606D01*
X208619965Y-50496452D01*
X208619962Y-50496453D01*
X208616293Y-50497610D01*
X208612796Y-50499204D01*
X208612790Y-50499206D01*
X208330327Y-50627932D01*
X208330323Y-50627934D01*
X208326819Y-50629531D01*
X208323540Y-50631541D01*
X208323537Y-50631542D01*
X208134826Y-50747185D01*
X208055580Y-50795747D01*
X208052576Y-50798137D01*
X208052571Y-50798140D01*
X207833962Y-50972030D01*
X207806619Y-50993779D01*
X207583648Y-51220676D01*
X207581307Y-51223727D01*
X207581306Y-51223728D01*
X207392326Y-51470011D01*
X207392321Y-51470019D01*
X207389991Y-51473055D01*
X207388042Y-51476364D01*
X207273792Y-51670322D01*
X207228534Y-51747154D01*
X207101685Y-52038886D01*
X207011335Y-52343903D01*
X206958831Y-52657657D01*
X206944955Y-52975471D01*
X167001074Y-52975471D01*
X167005045Y-52884529D01*
X166980086Y-52567393D01*
X166916664Y-52255662D01*
X166815724Y-51953984D01*
X166678771Y-51666857D01*
X166507847Y-51398560D01*
X166305500Y-51153093D01*
X166074746Y-50934116D01*
X165819025Y-50744892D01*
X165618680Y-50631542D01*
X165545508Y-50590143D01*
X165545504Y-50590141D01*
X165542151Y-50588244D01*
X165248249Y-50466506D01*
X165146917Y-50438404D01*
X164945418Y-50382523D01*
X164945410Y-50382521D01*
X164941702Y-50381493D01*
X164627079Y-50334472D01*
X164623781Y-50334328D01*
X164514573Y-50329560D01*
X164514568Y-50329560D01*
X164513196Y-50329500D01*
X164319201Y-50329500D01*
X164082476Y-50343979D01*
X164078693Y-50344680D01*
X164078686Y-50344681D01*
X163926082Y-50372965D01*
X163769687Y-50401951D01*
X163589997Y-50458606D01*
X163469965Y-50496452D01*
X163469962Y-50496453D01*
X163466293Y-50497610D01*
X163462796Y-50499204D01*
X163462790Y-50499206D01*
X163180327Y-50627932D01*
X163180323Y-50627934D01*
X163176819Y-50629531D01*
X163173540Y-50631541D01*
X163173537Y-50631542D01*
X162984826Y-50747185D01*
X162905580Y-50795747D01*
X162902576Y-50798137D01*
X162902571Y-50798140D01*
X162683962Y-50972030D01*
X162656619Y-50993779D01*
X162433648Y-51220676D01*
X162431307Y-51223727D01*
X162431306Y-51223728D01*
X162242326Y-51470011D01*
X162242321Y-51470019D01*
X162239991Y-51473055D01*
X162238042Y-51476364D01*
X162123792Y-51670322D01*
X162078534Y-51747154D01*
X161951685Y-52038886D01*
X161861335Y-52343903D01*
X161808831Y-52657657D01*
X161794955Y-52975471D01*
X160750000Y-52975471D01*
X160750000Y-49836000D01*
X160770002Y-49767879D01*
X160823658Y-49721386D01*
X160876000Y-49710000D01*
X212744000Y-49710000D01*
X212812121Y-49730002D01*
G37*
%TD.AperFunction*%
%TD*%
%TA.AperFunction,Conductor*%
%TO.N,Net-(C3-Pad1)*%
G36*
X196009164Y-193550002D02*
G01*
X196055657Y-193603658D01*
X196065761Y-193673932D01*
X196036267Y-193738512D01*
X195979979Y-193775833D01*
X195842518Y-193820497D01*
X195838932Y-193822184D01*
X195838928Y-193822186D01*
X195561412Y-193952775D01*
X195561405Y-193952779D01*
X195557826Y-193954463D01*
X195292170Y-194123053D01*
X195289118Y-194125578D01*
X195056661Y-194317884D01*
X195049739Y-194323610D01*
X194834355Y-194552970D01*
X194832028Y-194556172D01*
X194832027Y-194556174D01*
X194679478Y-194766141D01*
X194649417Y-194807516D01*
X194497839Y-195083234D01*
X194382014Y-195375775D01*
X194381030Y-195379609D01*
X194381027Y-195379617D01*
X194348457Y-195506470D01*
X194303767Y-195680527D01*
X194303271Y-195684455D01*
X194303270Y-195684459D01*
X194302620Y-195689607D01*
X194264333Y-195992682D01*
X194264333Y-196307318D01*
X194303767Y-196619473D01*
X194304753Y-196623312D01*
X194381027Y-196920383D01*
X194381030Y-196920391D01*
X194382014Y-196924225D01*
X194383471Y-196927905D01*
X194383472Y-196927908D01*
X194399538Y-196968485D01*
X194497839Y-197216766D01*
X194499740Y-197220225D01*
X194499742Y-197220228D01*
X194536595Y-197287262D01*
X194649417Y-197492484D01*
X194651745Y-197495688D01*
X194651748Y-197495693D01*
X194736082Y-197611769D01*
X194834355Y-197747030D01*
X195049739Y-197976390D01*
X195292170Y-198176947D01*
X195557826Y-198345537D01*
X195561405Y-198347221D01*
X195561412Y-198347225D01*
X195838928Y-198477814D01*
X195838932Y-198477816D01*
X195842518Y-198479503D01*
X195846290Y-198480729D01*
X195846291Y-198480729D01*
X195998445Y-198530167D01*
X196057051Y-198570241D01*
X196084688Y-198635637D01*
X196072581Y-198705594D01*
X196024575Y-198757900D01*
X195998444Y-198769833D01*
X195842518Y-198820497D01*
X195838932Y-198822184D01*
X195838928Y-198822186D01*
X195561412Y-198952775D01*
X195561405Y-198952779D01*
X195557826Y-198954463D01*
X195292170Y-199123053D01*
X195049739Y-199323610D01*
X194834355Y-199552970D01*
X194649417Y-199807516D01*
X194497839Y-200083234D01*
X194382014Y-200375775D01*
X194381030Y-200379609D01*
X194381027Y-200379617D01*
X194332640Y-200568074D01*
X194303767Y-200680527D01*
X194264333Y-200992682D01*
X194264333Y-201307318D01*
X194303767Y-201619473D01*
X194304753Y-201623312D01*
X194381027Y-201920383D01*
X194381030Y-201920391D01*
X194382014Y-201924225D01*
X194497839Y-202216766D01*
X194649417Y-202492484D01*
X194834355Y-202747030D01*
X195049739Y-202976390D01*
X195292170Y-203176947D01*
X195557826Y-203345537D01*
X195561405Y-203347221D01*
X195561412Y-203347225D01*
X195838928Y-203477814D01*
X195838932Y-203477816D01*
X195842518Y-203479503D01*
X196141754Y-203576731D01*
X196450818Y-203635688D01*
X196544322Y-203641571D01*
X196684255Y-203650375D01*
X196684271Y-203650376D01*
X196686250Y-203650500D01*
X198634000Y-203650500D01*
X198702121Y-203670502D01*
X198748614Y-203724158D01*
X198760000Y-203776500D01*
X198760000Y-205135763D01*
X198739998Y-205203884D01*
X198686342Y-205250377D01*
X198616068Y-205260481D01*
X198551488Y-205230987D01*
X198523112Y-205195595D01*
X198460339Y-205079256D01*
X198458226Y-205075340D01*
X198289911Y-204847460D01*
X198243387Y-204800199D01*
X198094298Y-204648751D01*
X198091167Y-204645570D01*
X198087627Y-204642869D01*
X198087621Y-204642863D01*
X197869500Y-204476398D01*
X197869496Y-204476395D01*
X197865959Y-204473696D01*
X197802012Y-204437884D01*
X197622670Y-204337448D01*
X197622665Y-204337445D01*
X197618780Y-204335270D01*
X197614622Y-204333662D01*
X197614617Y-204333659D01*
X197358718Y-204234659D01*
X197358712Y-204234657D01*
X197354563Y-204233052D01*
X197350231Y-204232048D01*
X197350228Y-204232047D01*
X197274974Y-204214604D01*
X197078580Y-204169082D01*
X196796336Y-204144637D01*
X196791901Y-204144881D01*
X196791897Y-204144881D01*
X196517906Y-204159960D01*
X196517899Y-204159961D01*
X196513463Y-204160205D01*
X196375576Y-204187632D01*
X196239979Y-204214604D01*
X196239974Y-204214605D01*
X196235607Y-204215474D01*
X196231404Y-204216950D01*
X195972517Y-204307864D01*
X195972514Y-204307865D01*
X195968309Y-204309342D01*
X195964356Y-204311395D01*
X195964350Y-204311398D01*
X195821968Y-204385360D01*
X195716905Y-204439936D01*
X195713290Y-204442519D01*
X195713284Y-204442523D01*
X195665881Y-204476398D01*
X195486409Y-204604651D01*
X195483182Y-204607729D01*
X195483180Y-204607731D01*
X195443515Y-204645570D01*
X195281421Y-204800199D01*
X195106032Y-205022680D01*
X195075445Y-205075340D01*
X194965974Y-205263807D01*
X194965971Y-205263813D01*
X194963740Y-205267654D01*
X194857385Y-205530232D01*
X194789088Y-205805177D01*
X194760213Y-206087002D01*
X194771335Y-206370084D01*
X194822233Y-206648775D01*
X194911891Y-206917514D01*
X194913883Y-206921501D01*
X194913884Y-206921503D01*
X195020281Y-207134436D01*
X195038520Y-207170939D01*
X195199594Y-207403993D01*
X195391898Y-207612027D01*
X195395352Y-207614839D01*
X195608140Y-207788075D01*
X195608144Y-207788078D01*
X195611597Y-207790889D01*
X195854305Y-207937012D01*
X195858400Y-207938746D01*
X195858402Y-207938747D01*
X196111080Y-208045742D01*
X196111087Y-208045744D01*
X196115181Y-208047478D01*
X196215325Y-208074031D01*
X196384722Y-208118946D01*
X196384726Y-208118947D01*
X196389019Y-208120085D01*
X196393428Y-208120607D01*
X196393434Y-208120608D01*
X196550786Y-208139232D01*
X196670356Y-208153384D01*
X196953578Y-208146709D01*
X196957976Y-208145977D01*
X197228643Y-208100926D01*
X197228647Y-208100925D01*
X197233033Y-208100195D01*
X197237274Y-208098854D01*
X197237277Y-208098853D01*
X197498901Y-208016112D01*
X197498903Y-208016111D01*
X197503147Y-208014769D01*
X197507158Y-208012843D01*
X197507163Y-208012841D01*
X197754511Y-207894066D01*
X197754512Y-207894065D01*
X197758530Y-207892136D01*
X197906614Y-207793190D01*
X197990378Y-207737221D01*
X197990382Y-207737218D01*
X197994086Y-207734743D01*
X198205114Y-207545730D01*
X198387406Y-207328868D01*
X198488382Y-207166959D01*
X198527088Y-207104895D01*
X198580108Y-207057678D01*
X198650238Y-207046622D01*
X198715213Y-207075236D01*
X198754403Y-207134436D01*
X198760000Y-207171571D01*
X198760000Y-212455499D01*
X198759679Y-212464487D01*
X198740286Y-212735645D01*
X198737728Y-212753433D01*
X198680903Y-213014654D01*
X198675841Y-213031897D01*
X198582411Y-213282393D01*
X198574946Y-213298738D01*
X198522719Y-213394385D01*
X198472517Y-213444587D01*
X198412131Y-213460000D01*
X171097869Y-213460000D01*
X171029748Y-213439998D01*
X170987281Y-213394385D01*
X170935054Y-213298738D01*
X170927589Y-213282393D01*
X170834159Y-213031897D01*
X170829097Y-213014654D01*
X170772272Y-212753433D01*
X170769714Y-212735645D01*
X170750321Y-212464487D01*
X170750000Y-212455499D01*
X170750000Y-197768024D01*
X170770002Y-197699903D01*
X170823658Y-197653410D01*
X170876000Y-197642024D01*
X173288516Y-197642024D01*
X173289956Y-197641957D01*
X173289971Y-197641957D01*
X173425822Y-197635669D01*
X173597695Y-197627714D01*
X174010308Y-197570092D01*
X174013130Y-197569427D01*
X174013138Y-197569426D01*
X174412994Y-197475272D01*
X174412999Y-197475270D01*
X174415834Y-197474603D01*
X174793933Y-197347726D01*
X174808050Y-197342989D01*
X174808053Y-197342988D01*
X174810806Y-197342064D01*
X174934766Y-197287262D01*
X175189199Y-197174779D01*
X175189205Y-197174776D01*
X175191847Y-197173608D01*
X175353140Y-197083649D01*
X175553160Y-196972091D01*
X175553167Y-196972086D01*
X175555698Y-196970675D01*
X175699293Y-196872169D01*
X175896843Y-196736651D01*
X175896850Y-196736646D01*
X175899249Y-196735000D01*
X176219561Y-196468599D01*
X176437695Y-196250084D01*
X176511833Y-196175817D01*
X176511837Y-196175813D01*
X176513896Y-196173750D01*
X176515755Y-196171507D01*
X176515764Y-196171497D01*
X176685237Y-195967002D01*
X182970213Y-195967002D01*
X182981335Y-196250084D01*
X183032233Y-196528775D01*
X183033642Y-196532998D01*
X183104193Y-196744465D01*
X183121891Y-196797514D01*
X183123883Y-196801501D01*
X183123884Y-196801503D01*
X183212544Y-196978939D01*
X183248520Y-197050939D01*
X183409594Y-197283993D01*
X183412616Y-197287262D01*
X183584934Y-197473675D01*
X183601898Y-197492027D01*
X183605352Y-197494839D01*
X183818140Y-197668075D01*
X183818144Y-197668078D01*
X183821597Y-197670889D01*
X184064305Y-197817012D01*
X184068400Y-197818746D01*
X184068402Y-197818747D01*
X184321080Y-197925742D01*
X184321087Y-197925744D01*
X184325181Y-197927478D01*
X184425325Y-197954031D01*
X184594722Y-197998946D01*
X184594726Y-197998947D01*
X184599019Y-198000085D01*
X184603428Y-198000607D01*
X184603434Y-198000608D01*
X184760786Y-198019232D01*
X184880356Y-198033384D01*
X185163578Y-198026709D01*
X185167976Y-198025977D01*
X185438643Y-197980926D01*
X185438647Y-197980925D01*
X185443033Y-197980195D01*
X185447274Y-197978854D01*
X185447277Y-197978853D01*
X185708901Y-197896112D01*
X185708903Y-197896111D01*
X185713147Y-197894769D01*
X185717158Y-197892843D01*
X185717163Y-197892841D01*
X185964511Y-197774066D01*
X185964512Y-197774065D01*
X185968530Y-197772136D01*
X186116614Y-197673190D01*
X186200378Y-197617221D01*
X186200382Y-197617218D01*
X186204086Y-197614743D01*
X186415114Y-197425730D01*
X186597406Y-197208868D01*
X186747322Y-196968485D01*
X186861873Y-196709376D01*
X186938772Y-196436712D01*
X186956152Y-196307318D01*
X186976058Y-196159115D01*
X186976059Y-196159107D01*
X186976485Y-196155933D01*
X186980443Y-196030000D01*
X186960434Y-195747407D01*
X186956225Y-195727854D01*
X186901744Y-195474800D01*
X186901744Y-195474798D01*
X186900808Y-195470453D01*
X186802753Y-195204663D01*
X186769012Y-195142130D01*
X186670339Y-194959256D01*
X186668226Y-194955340D01*
X186499911Y-194727460D01*
X186453387Y-194680199D01*
X186304298Y-194528751D01*
X186301167Y-194525570D01*
X186297627Y-194522869D01*
X186297621Y-194522863D01*
X186079500Y-194356398D01*
X186079496Y-194356395D01*
X186075959Y-194353696D01*
X186020295Y-194322523D01*
X185832670Y-194217448D01*
X185832665Y-194217445D01*
X185828780Y-194215270D01*
X185824622Y-194213662D01*
X185824617Y-194213659D01*
X185568718Y-194114659D01*
X185568712Y-194114657D01*
X185564563Y-194113052D01*
X185560231Y-194112048D01*
X185560228Y-194112047D01*
X185484974Y-194094604D01*
X185288580Y-194049082D01*
X185006336Y-194024637D01*
X185001901Y-194024881D01*
X185001897Y-194024881D01*
X184727906Y-194039960D01*
X184727899Y-194039961D01*
X184723463Y-194040205D01*
X184585576Y-194067632D01*
X184449979Y-194094604D01*
X184449974Y-194094605D01*
X184445607Y-194095474D01*
X184441404Y-194096950D01*
X184182517Y-194187864D01*
X184182514Y-194187865D01*
X184178309Y-194189342D01*
X184174356Y-194191395D01*
X184174350Y-194191398D01*
X184031968Y-194265360D01*
X183926905Y-194319936D01*
X183923290Y-194322519D01*
X183923284Y-194322523D01*
X183811870Y-194402142D01*
X183696409Y-194484651D01*
X183693182Y-194487729D01*
X183693180Y-194487731D01*
X183653515Y-194525570D01*
X183491421Y-194680199D01*
X183316032Y-194902680D01*
X183285445Y-194955340D01*
X183175974Y-195143807D01*
X183175971Y-195143813D01*
X183173740Y-195147654D01*
X183172070Y-195151777D01*
X183081342Y-195375775D01*
X183067385Y-195410232D01*
X183066314Y-195414545D01*
X183066312Y-195414550D01*
X183000243Y-195680527D01*
X182999088Y-195685177D01*
X182998634Y-195689605D01*
X182998634Y-195689607D01*
X182980611Y-195865516D01*
X182970213Y-195967002D01*
X176685237Y-195967002D01*
X176777873Y-195855223D01*
X176779738Y-195852973D01*
X176894906Y-195684459D01*
X177013170Y-195511416D01*
X177013176Y-195511406D01*
X177014813Y-195509011D01*
X177016219Y-195506480D01*
X177016225Y-195506470D01*
X177181542Y-195208840D01*
X177217110Y-195144806D01*
X177218283Y-195142139D01*
X177218288Y-195142130D01*
X177383727Y-194766141D01*
X177383730Y-194766134D01*
X177384901Y-194763472D01*
X177516751Y-194368270D01*
X177558073Y-194191398D01*
X177610867Y-193965425D01*
X177610868Y-193965417D01*
X177611532Y-193962577D01*
X177612651Y-193954463D01*
X177656173Y-193638791D01*
X177685291Y-193574040D01*
X177744794Y-193535311D01*
X177780992Y-193530000D01*
X195941043Y-193530000D01*
X196009164Y-193550002D01*
G37*
%TD.AperFunction*%
%TD*%
%TA.AperFunction,Conductor*%
%TO.N,+V1*%
G36*
X212812121Y-111360002D02*
G01*
X212858614Y-111413658D01*
X212870000Y-111466000D01*
X212870000Y-147954000D01*
X212849998Y-148022121D01*
X212796342Y-148068614D01*
X212744000Y-148080000D01*
X180030000Y-148080000D01*
X180030000Y-169624000D01*
X180009998Y-169692121D01*
X179956342Y-169738614D01*
X179904000Y-169750000D01*
X160876000Y-169750000D01*
X160807879Y-169729998D01*
X160761386Y-169676342D01*
X160750000Y-169624000D01*
X160750000Y-162125578D01*
X160770002Y-162057457D01*
X160823658Y-162010964D01*
X160893932Y-162000860D01*
X160949525Y-162023255D01*
X161199527Y-162202899D01*
X161501876Y-162371185D01*
X161821563Y-162503603D01*
X161825057Y-162504598D01*
X161825059Y-162504599D01*
X162150851Y-162597404D01*
X162150856Y-162597405D01*
X162154352Y-162598401D01*
X162390034Y-162636995D01*
X162492251Y-162653734D01*
X162492255Y-162653734D01*
X162495831Y-162654320D01*
X162499457Y-162654491D01*
X162837847Y-162670449D01*
X162837848Y-162670449D01*
X162841474Y-162670620D01*
X162852346Y-162669879D01*
X163183069Y-162647333D01*
X163183077Y-162647332D01*
X163186700Y-162647085D01*
X163190276Y-162646422D01*
X163190278Y-162646422D01*
X163523368Y-162584688D01*
X163523372Y-162584687D01*
X163526933Y-162584027D01*
X163857663Y-162482281D01*
X164174507Y-162343196D01*
X164473265Y-162168616D01*
X164683238Y-162010964D01*
X164747071Y-161963037D01*
X164747075Y-161963034D01*
X164749978Y-161960854D01*
X164955982Y-161765364D01*
X164998343Y-161725165D01*
X164998347Y-161725161D01*
X165000977Y-161722665D01*
X165014010Y-161707078D01*
X165073048Y-161667648D01*
X165118583Y-161662148D01*
X165234702Y-161669454D01*
X165237334Y-161669399D01*
X165237341Y-161669399D01*
X165348726Y-161667065D01*
X165515261Y-161663576D01*
X165583785Y-161682146D01*
X165612847Y-161706718D01*
X165666392Y-161768098D01*
X165922324Y-162000978D01*
X166203327Y-162202899D01*
X166505676Y-162371185D01*
X166825363Y-162503603D01*
X166828857Y-162504598D01*
X166828859Y-162504599D01*
X167154651Y-162597404D01*
X167154656Y-162597405D01*
X167158152Y-162598401D01*
X167393834Y-162636995D01*
X167496051Y-162653734D01*
X167496055Y-162653734D01*
X167499631Y-162654320D01*
X167503257Y-162654491D01*
X167841647Y-162670449D01*
X167841648Y-162670449D01*
X167845274Y-162670620D01*
X167856146Y-162669879D01*
X168186869Y-162647333D01*
X168186877Y-162647332D01*
X168190500Y-162647085D01*
X168194076Y-162646422D01*
X168194078Y-162646422D01*
X168527168Y-162584688D01*
X168527172Y-162584687D01*
X168530733Y-162584027D01*
X168861463Y-162482281D01*
X169178307Y-162343196D01*
X169477065Y-162168616D01*
X169687038Y-162010964D01*
X169750871Y-161963037D01*
X169750875Y-161963034D01*
X169753778Y-161960854D01*
X170004777Y-161722665D01*
X170226736Y-161457205D01*
X170228724Y-161454179D01*
X170414726Y-161171018D01*
X170414731Y-161171009D01*
X170416713Y-161167992D01*
X170494452Y-161013427D01*
X170570563Y-160862098D01*
X170570566Y-160862090D01*
X170572190Y-160858862D01*
X170573435Y-160855460D01*
X170689857Y-160537322D01*
X170689860Y-160537312D01*
X170691105Y-160533910D01*
X170691950Y-160530388D01*
X170691953Y-160530380D01*
X170771037Y-160200972D01*
X170771038Y-160200968D01*
X170771884Y-160197443D01*
X170798567Y-159976944D01*
X170813118Y-159856701D01*
X170813118Y-159856695D01*
X170813454Y-159853922D01*
X170819385Y-159665200D01*
X170811308Y-159525120D01*
X170799675Y-159323367D01*
X170799674Y-159323362D01*
X170799466Y-159319747D01*
X170739974Y-158978872D01*
X170641697Y-158647094D01*
X170505938Y-158328811D01*
X170478959Y-158281512D01*
X170462582Y-158212430D01*
X170471254Y-158172699D01*
X170474229Y-158165186D01*
X170549227Y-157975762D01*
X170682497Y-157534352D01*
X170778363Y-157083339D01*
X170836153Y-156625885D01*
X170855461Y-156165200D01*
X170836153Y-155704515D01*
X170778363Y-155247061D01*
X170722425Y-154983895D01*
X170683043Y-154798615D01*
X170683041Y-154798607D01*
X170682497Y-154796048D01*
X170549227Y-154354638D01*
X170483500Y-154188629D01*
X170468004Y-154149490D01*
X170461525Y-154078790D01*
X170472591Y-154046493D01*
X170570562Y-153851698D01*
X170572190Y-153848462D01*
X170643821Y-153652721D01*
X170689857Y-153526922D01*
X170689860Y-153526912D01*
X170691105Y-153523510D01*
X170691950Y-153519988D01*
X170691953Y-153519980D01*
X170771037Y-153190572D01*
X170771038Y-153190568D01*
X170771884Y-153187043D01*
X170784109Y-153086018D01*
X173226302Y-153086018D01*
X173226572Y-153090137D01*
X173232924Y-153187043D01*
X173245168Y-153373857D01*
X173245972Y-153377897D01*
X173245972Y-153377900D01*
X173274936Y-153523510D01*
X173301443Y-153656771D01*
X173302769Y-153660677D01*
X173302770Y-153660681D01*
X173367612Y-153851698D01*
X173394165Y-153929920D01*
X173395986Y-153933613D01*
X173395987Y-153933615D01*
X173502445Y-154149490D01*
X173521746Y-154188629D01*
X173524040Y-154192062D01*
X173674959Y-154417928D01*
X173682004Y-154428472D01*
X173684718Y-154431566D01*
X173684722Y-154431572D01*
X173812686Y-154577486D01*
X173872197Y-154645345D01*
X173875286Y-154648054D01*
X174085970Y-154832820D01*
X174085976Y-154832824D01*
X174089070Y-154835538D01*
X174092496Y-154837827D01*
X174092501Y-154837831D01*
X174272091Y-154957829D01*
X174328913Y-154995796D01*
X174332612Y-154997620D01*
X174332617Y-154997623D01*
X174450370Y-155055692D01*
X174587622Y-155123377D01*
X174591520Y-155124700D01*
X174591522Y-155124701D01*
X174856861Y-155214772D01*
X174856865Y-155214773D01*
X174860771Y-155216099D01*
X174864815Y-155216903D01*
X174864821Y-155216905D01*
X175139642Y-155271570D01*
X175139645Y-155271570D01*
X175143685Y-155272374D01*
X175147796Y-155272643D01*
X175147800Y-155272644D01*
X175427405Y-155290970D01*
X175431524Y-155291240D01*
X175435643Y-155290970D01*
X175715248Y-155272644D01*
X175715252Y-155272643D01*
X175719363Y-155272374D01*
X175723403Y-155271570D01*
X175723406Y-155271570D01*
X175998227Y-155216905D01*
X175998233Y-155216903D01*
X176002277Y-155216099D01*
X176006183Y-155214773D01*
X176006187Y-155214772D01*
X176271526Y-155124701D01*
X176271528Y-155124700D01*
X176275426Y-155123377D01*
X176412678Y-155055692D01*
X176530431Y-154997623D01*
X176530436Y-154997620D01*
X176534135Y-154995796D01*
X176590957Y-154957829D01*
X176770547Y-154837831D01*
X176770552Y-154837827D01*
X176773978Y-154835538D01*
X176777072Y-154832824D01*
X176777078Y-154832820D01*
X176987762Y-154648054D01*
X176990851Y-154645345D01*
X177050362Y-154577486D01*
X177178326Y-154431572D01*
X177178330Y-154431566D01*
X177181044Y-154428472D01*
X177188090Y-154417928D01*
X177339008Y-154192062D01*
X177341302Y-154188629D01*
X177360604Y-154149490D01*
X177467061Y-153933615D01*
X177467062Y-153933613D01*
X177468883Y-153929920D01*
X177495436Y-153851698D01*
X177560278Y-153660681D01*
X177560279Y-153660677D01*
X177561605Y-153656771D01*
X177588113Y-153523510D01*
X177617076Y-153377900D01*
X177617076Y-153377897D01*
X177617880Y-153373857D01*
X177630125Y-153187043D01*
X177636476Y-153090137D01*
X177636746Y-153086018D01*
X177617880Y-152798179D01*
X177561605Y-152515265D01*
X177468883Y-152242116D01*
X177341302Y-151983407D01*
X177181044Y-151743564D01*
X177178330Y-151740470D01*
X177178326Y-151740464D01*
X176993560Y-151529780D01*
X176990851Y-151526691D01*
X176987762Y-151523982D01*
X176777078Y-151339216D01*
X176777072Y-151339212D01*
X176773978Y-151336498D01*
X176770552Y-151334209D01*
X176770547Y-151334205D01*
X176537568Y-151178534D01*
X176534135Y-151176240D01*
X176530436Y-151174416D01*
X176530431Y-151174413D01*
X176279121Y-151050481D01*
X176279119Y-151050480D01*
X176275426Y-151048659D01*
X176193890Y-151020981D01*
X176006187Y-150957264D01*
X176006183Y-150957263D01*
X176002277Y-150955937D01*
X175998233Y-150955133D01*
X175998227Y-150955131D01*
X175723406Y-150900466D01*
X175723403Y-150900466D01*
X175719363Y-150899662D01*
X175715252Y-150899393D01*
X175715248Y-150899392D01*
X175435643Y-150881066D01*
X175431524Y-150880796D01*
X175427405Y-150881066D01*
X175147800Y-150899392D01*
X175147796Y-150899393D01*
X175143685Y-150899662D01*
X175139645Y-150900466D01*
X175139642Y-150900466D01*
X174864821Y-150955131D01*
X174864815Y-150955133D01*
X174860771Y-150955937D01*
X174856865Y-150957263D01*
X174856861Y-150957264D01*
X174669158Y-151020981D01*
X174587622Y-151048659D01*
X174583929Y-151050480D01*
X174583927Y-151050481D01*
X174332617Y-151174413D01*
X174332612Y-151174416D01*
X174328913Y-151176240D01*
X174325480Y-151178534D01*
X174092501Y-151334205D01*
X174092496Y-151334209D01*
X174089070Y-151336498D01*
X174085976Y-151339212D01*
X174085970Y-151339216D01*
X173875286Y-151523982D01*
X173872197Y-151526691D01*
X173869488Y-151529780D01*
X173684722Y-151740464D01*
X173684718Y-151740470D01*
X173682004Y-151743564D01*
X173521746Y-151983407D01*
X173394165Y-152242116D01*
X173301443Y-152515265D01*
X173245168Y-152798179D01*
X173226302Y-153086018D01*
X170784109Y-153086018D01*
X170813454Y-152843522D01*
X170819385Y-152654800D01*
X170811573Y-152519315D01*
X170799675Y-152312967D01*
X170799674Y-152312962D01*
X170799466Y-152309347D01*
X170787732Y-152242116D01*
X170740598Y-151972045D01*
X170740596Y-151972038D01*
X170739974Y-151968472D01*
X170641697Y-151636694D01*
X170640273Y-151633355D01*
X170507362Y-151321749D01*
X170507360Y-151321746D01*
X170505938Y-151318411D01*
X170334496Y-151017841D01*
X170129643Y-150738968D01*
X169894095Y-150485488D01*
X169876664Y-150470600D01*
X169633730Y-150263116D01*
X169630974Y-150260762D01*
X169343767Y-150067767D01*
X169036282Y-149909061D01*
X168712593Y-149786750D01*
X168376990Y-149702452D01*
X168232781Y-149683467D01*
X168037528Y-149657761D01*
X168037520Y-149657760D01*
X168033924Y-149657287D01*
X167882791Y-149654912D01*
X167691580Y-149651908D01*
X167691576Y-149651908D01*
X167687939Y-149651851D01*
X167684324Y-149652212D01*
X167684320Y-149652212D01*
X167516446Y-149668969D01*
X167343623Y-149686219D01*
X167340086Y-149686990D01*
X167340081Y-149686991D01*
X167009083Y-149759160D01*
X167009078Y-149759161D01*
X167005539Y-149759933D01*
X166678167Y-149872017D01*
X166365848Y-150020986D01*
X166072721Y-150204864D01*
X166069887Y-150207134D01*
X166069882Y-150207138D01*
X165900866Y-150342546D01*
X165802671Y-150421215D01*
X165736449Y-150488134D01*
X165596797Y-150629256D01*
X165534663Y-150663607D01*
X165504598Y-150666600D01*
X165403980Y-150664492D01*
X165237341Y-150661001D01*
X165237334Y-150661001D01*
X165234702Y-150660946D01*
X165122934Y-150667978D01*
X165053693Y-150652293D01*
X165022727Y-150628002D01*
X164890295Y-150485488D01*
X164872864Y-150470600D01*
X164629930Y-150263116D01*
X164627174Y-150260762D01*
X164339967Y-150067767D01*
X164032482Y-149909061D01*
X163708793Y-149786750D01*
X163373190Y-149702452D01*
X163228981Y-149683467D01*
X163033728Y-149657761D01*
X163033720Y-149657760D01*
X163030124Y-149657287D01*
X162878991Y-149654912D01*
X162687780Y-149651908D01*
X162687776Y-149651908D01*
X162684139Y-149651851D01*
X162680524Y-149652212D01*
X162680520Y-149652212D01*
X162512646Y-149668969D01*
X162339823Y-149686219D01*
X162336286Y-149686990D01*
X162336281Y-149686991D01*
X162005283Y-149759160D01*
X162005278Y-149759161D01*
X162001739Y-149759933D01*
X161674367Y-149872017D01*
X161362048Y-150020986D01*
X161068921Y-150204864D01*
X161066092Y-150207131D01*
X161066073Y-150207144D01*
X160954780Y-150296307D01*
X160889111Y-150323289D01*
X160819278Y-150310484D01*
X160767455Y-150261957D01*
X160750000Y-150197973D01*
X160750000Y-138745471D01*
X161794955Y-138745471D01*
X161819914Y-139062607D01*
X161883336Y-139374338D01*
X161984276Y-139676016D01*
X162121229Y-139963143D01*
X162292153Y-140231440D01*
X162494500Y-140476907D01*
X162725254Y-140695884D01*
X162980975Y-140885108D01*
X163119412Y-140963432D01*
X163254492Y-141039857D01*
X163254496Y-141039859D01*
X163257849Y-141041756D01*
X163551751Y-141163494D01*
X163653083Y-141191596D01*
X163854582Y-141247477D01*
X163854590Y-141247479D01*
X163858298Y-141248507D01*
X164172921Y-141295528D01*
X164176219Y-141295672D01*
X164285427Y-141300440D01*
X164285432Y-141300440D01*
X164286804Y-141300500D01*
X164480799Y-141300500D01*
X164717524Y-141286021D01*
X164721307Y-141285320D01*
X164721314Y-141285319D01*
X164919931Y-141248507D01*
X165030313Y-141228049D01*
X165239732Y-141162020D01*
X165330035Y-141133548D01*
X165330038Y-141133547D01*
X165333707Y-141132390D01*
X165337204Y-141130796D01*
X165337210Y-141130794D01*
X165619673Y-141002068D01*
X165619677Y-141002066D01*
X165623181Y-141000469D01*
X165808334Y-140887007D01*
X165891142Y-140836262D01*
X165891145Y-140836260D01*
X165894420Y-140834253D01*
X165897424Y-140831863D01*
X165897429Y-140831860D01*
X166140370Y-140638616D01*
X166143381Y-140636221D01*
X166366352Y-140409324D01*
X166500572Y-140234405D01*
X166557674Y-140159989D01*
X166557679Y-140159981D01*
X166560009Y-140156945D01*
X166672257Y-139966386D01*
X166719513Y-139886162D01*
X166719515Y-139886159D01*
X166721466Y-139882846D01*
X166848315Y-139591114D01*
X166938665Y-139286097D01*
X166991169Y-138972343D01*
X167001074Y-138745471D01*
X206944955Y-138745471D01*
X206969914Y-139062607D01*
X207033336Y-139374338D01*
X207134276Y-139676016D01*
X207271229Y-139963143D01*
X207442153Y-140231440D01*
X207644500Y-140476907D01*
X207875254Y-140695884D01*
X208130975Y-140885108D01*
X208269412Y-140963432D01*
X208404492Y-141039857D01*
X208404496Y-141039859D01*
X208407849Y-141041756D01*
X208701751Y-141163494D01*
X208803083Y-141191596D01*
X209004582Y-141247477D01*
X209004590Y-141247479D01*
X209008298Y-141248507D01*
X209322921Y-141295528D01*
X209326219Y-141295672D01*
X209435427Y-141300440D01*
X209435432Y-141300440D01*
X209436804Y-141300500D01*
X209630799Y-141300500D01*
X209867524Y-141286021D01*
X209871307Y-141285320D01*
X209871314Y-141285319D01*
X210069931Y-141248507D01*
X210180313Y-141228049D01*
X210389732Y-141162020D01*
X210480035Y-141133548D01*
X210480038Y-141133547D01*
X210483707Y-141132390D01*
X210487204Y-141130796D01*
X210487210Y-141130794D01*
X210769673Y-141002068D01*
X210769677Y-141002066D01*
X210773181Y-141000469D01*
X210958334Y-140887007D01*
X211041142Y-140836262D01*
X211041145Y-140836260D01*
X211044420Y-140834253D01*
X211047424Y-140831863D01*
X211047429Y-140831860D01*
X211290370Y-140638616D01*
X211293381Y-140636221D01*
X211516352Y-140409324D01*
X211650572Y-140234405D01*
X211707674Y-140159989D01*
X211707679Y-140159981D01*
X211710009Y-140156945D01*
X211822257Y-139966386D01*
X211869513Y-139886162D01*
X211869515Y-139886159D01*
X211871466Y-139882846D01*
X211998315Y-139591114D01*
X212088665Y-139286097D01*
X212141169Y-138972343D01*
X212155045Y-138654529D01*
X212130086Y-138337393D01*
X212066664Y-138025662D01*
X211965724Y-137723984D01*
X211828771Y-137436857D01*
X211657847Y-137168560D01*
X211455500Y-136923093D01*
X211224746Y-136704116D01*
X210969025Y-136514892D01*
X210768680Y-136401542D01*
X210695508Y-136360143D01*
X210695504Y-136360141D01*
X210692151Y-136358244D01*
X210398249Y-136236506D01*
X210296917Y-136208404D01*
X210095418Y-136152523D01*
X210095410Y-136152521D01*
X210091702Y-136151493D01*
X209777079Y-136104472D01*
X209773781Y-136104328D01*
X209664573Y-136099560D01*
X209664568Y-136099560D01*
X209663196Y-136099500D01*
X209469201Y-136099500D01*
X209232476Y-136113979D01*
X209228693Y-136114680D01*
X209228686Y-136114681D01*
X209076082Y-136142965D01*
X208919687Y-136171951D01*
X208739997Y-136228606D01*
X208619965Y-136266452D01*
X208619962Y-136266453D01*
X208616293Y-136267610D01*
X208612796Y-136269204D01*
X208612790Y-136269206D01*
X208330327Y-136397932D01*
X208330323Y-136397934D01*
X208326819Y-136399531D01*
X208323540Y-136401541D01*
X208323537Y-136401542D01*
X208134826Y-136517185D01*
X208055580Y-136565747D01*
X208052576Y-136568137D01*
X208052571Y-136568140D01*
X207833962Y-136742030D01*
X207806619Y-136763779D01*
X207583648Y-136990676D01*
X207581307Y-136993727D01*
X207581306Y-136993728D01*
X207392326Y-137240011D01*
X207392321Y-137240019D01*
X207389991Y-137243055D01*
X207388042Y-137246364D01*
X207273792Y-137440322D01*
X207228534Y-137517154D01*
X207101685Y-137808886D01*
X207011335Y-138113903D01*
X206958831Y-138427657D01*
X206944955Y-138745471D01*
X167001074Y-138745471D01*
X167005045Y-138654529D01*
X166980086Y-138337393D01*
X166916664Y-138025662D01*
X166815724Y-137723984D01*
X166678771Y-137436857D01*
X166507847Y-137168560D01*
X166305500Y-136923093D01*
X166074746Y-136704116D01*
X165819025Y-136514892D01*
X165618680Y-136401542D01*
X165545508Y-136360143D01*
X165545504Y-136360141D01*
X165542151Y-136358244D01*
X165248249Y-136236506D01*
X165146917Y-136208404D01*
X164945418Y-136152523D01*
X164945410Y-136152521D01*
X164941702Y-136151493D01*
X164627079Y-136104472D01*
X164623781Y-136104328D01*
X164514573Y-136099560D01*
X164514568Y-136099560D01*
X164513196Y-136099500D01*
X164319201Y-136099500D01*
X164082476Y-136113979D01*
X164078693Y-136114680D01*
X164078686Y-136114681D01*
X163926082Y-136142965D01*
X163769687Y-136171951D01*
X163589997Y-136228606D01*
X163469965Y-136266452D01*
X163469962Y-136266453D01*
X163466293Y-136267610D01*
X163462796Y-136269204D01*
X163462790Y-136269206D01*
X163180327Y-136397932D01*
X163180323Y-136397934D01*
X163176819Y-136399531D01*
X163173540Y-136401541D01*
X163173537Y-136401542D01*
X162984826Y-136517185D01*
X162905580Y-136565747D01*
X162902576Y-136568137D01*
X162902571Y-136568140D01*
X162683962Y-136742030D01*
X162656619Y-136763779D01*
X162433648Y-136990676D01*
X162431307Y-136993727D01*
X162431306Y-136993728D01*
X162242326Y-137240011D01*
X162242321Y-137240019D01*
X162239991Y-137243055D01*
X162238042Y-137246364D01*
X162123792Y-137440322D01*
X162078534Y-137517154D01*
X161951685Y-137808886D01*
X161861335Y-138113903D01*
X161808831Y-138427657D01*
X161794955Y-138745471D01*
X160750000Y-138745471D01*
X160750000Y-129467116D01*
X197003612Y-129467116D01*
X197012670Y-129813025D01*
X197061426Y-130155600D01*
X197149233Y-130490301D01*
X197274928Y-130812691D01*
X197436844Y-131118498D01*
X197438894Y-131121481D01*
X197438896Y-131121484D01*
X197630779Y-131400676D01*
X197630785Y-131400683D01*
X197632836Y-131403668D01*
X197860306Y-131664422D01*
X198116238Y-131897302D01*
X198397241Y-132099223D01*
X198699590Y-132267509D01*
X199019277Y-132399927D01*
X199022771Y-132400922D01*
X199022773Y-132400923D01*
X199348565Y-132493728D01*
X199348570Y-132493729D01*
X199352066Y-132494725D01*
X199587748Y-132533319D01*
X199689965Y-132550058D01*
X199689969Y-132550058D01*
X199693545Y-132550644D01*
X199697171Y-132550815D01*
X200035561Y-132566773D01*
X200035562Y-132566773D01*
X200039188Y-132566944D01*
X200050060Y-132566203D01*
X200380783Y-132543657D01*
X200380791Y-132543656D01*
X200384414Y-132543409D01*
X200387990Y-132542746D01*
X200387992Y-132542746D01*
X200721082Y-132481012D01*
X200721086Y-132481011D01*
X200724647Y-132480351D01*
X201055377Y-132378605D01*
X201372221Y-132239520D01*
X201670979Y-132064940D01*
X201673888Y-132062756D01*
X201944785Y-131859361D01*
X201944789Y-131859358D01*
X201947692Y-131857178D01*
X202198691Y-131618989D01*
X202420650Y-131353529D01*
X202573075Y-131121484D01*
X202608640Y-131067342D01*
X202608645Y-131067333D01*
X202610627Y-131064316D01*
X202738883Y-130809309D01*
X202764477Y-130758422D01*
X202764480Y-130758414D01*
X202766104Y-130755186D01*
X202864323Y-130486789D01*
X202883771Y-130433646D01*
X202883774Y-130433636D01*
X202885019Y-130430234D01*
X202885864Y-130426712D01*
X202885867Y-130426704D01*
X202964951Y-130097296D01*
X202964952Y-130097292D01*
X202965798Y-130093767D01*
X202966235Y-130090157D01*
X203007032Y-129753025D01*
X203007032Y-129753019D01*
X203007368Y-129750246D01*
X203013299Y-129561524D01*
X203008065Y-129470747D01*
X202993589Y-129219691D01*
X202993588Y-129219686D01*
X202993380Y-129216071D01*
X202992757Y-129212501D01*
X202934512Y-128878769D01*
X202934510Y-128878762D01*
X202933888Y-128875196D01*
X202835611Y-128543418D01*
X202699852Y-128225135D01*
X202528410Y-127924565D01*
X202468744Y-127843339D01*
X202325700Y-127648610D01*
X202323557Y-127645692D01*
X202088009Y-127392212D01*
X201824888Y-127167486D01*
X201537681Y-126974491D01*
X201230196Y-126815785D01*
X200906507Y-126693474D01*
X200570904Y-126609176D01*
X200426695Y-126590191D01*
X200231442Y-126564485D01*
X200231434Y-126564484D01*
X200227838Y-126564011D01*
X200076705Y-126561636D01*
X199885494Y-126558632D01*
X199885490Y-126558632D01*
X199881853Y-126558575D01*
X199878238Y-126558936D01*
X199878234Y-126558936D01*
X199710360Y-126575693D01*
X199537537Y-126592943D01*
X199534000Y-126593714D01*
X199533995Y-126593715D01*
X199202997Y-126665884D01*
X199202992Y-126665885D01*
X199199453Y-126666657D01*
X198872081Y-126778741D01*
X198559762Y-126927710D01*
X198266635Y-127111588D01*
X198263801Y-127113858D01*
X198263796Y-127113862D01*
X198094780Y-127249270D01*
X197996585Y-127327939D01*
X197753191Y-127573895D01*
X197539680Y-127846196D01*
X197358882Y-128141233D01*
X197357355Y-128144523D01*
X197357350Y-128144532D01*
X197318386Y-128228473D01*
X197213192Y-128455094D01*
X197104542Y-128783621D01*
X197034372Y-129122459D01*
X197003612Y-129467116D01*
X160750000Y-129467116D01*
X160750000Y-111466000D01*
X160770002Y-111397879D01*
X160823658Y-111351386D01*
X160876000Y-111340000D01*
X212744000Y-111340000D01*
X212812121Y-111360002D01*
G37*
%TD.AperFunction*%
%TD*%
M02*
