M48
; DRILL file {KiCad (6.0.0)} date Tue Feb 22 13:30:02 2022
; FORMAT={-:-/ absolute / inch / decimal}
; #@! TF.CreationDate,2022-02-22T13:30:02+00:00
; #@! TF.GenerationSoftware,Kicad,Pcbnew,(6.0.0)
; #@! TF.FileFunction,Plated,1,2,PTH
FMAT,2
INCH
; #@! TA.AperFunction,Plated,PTH,ComponentDrill
T1C0.0394
; #@! TA.AperFunction,Plated,PTH,ComponentDrill
T2C0.0472
; #@! TA.AperFunction,Plated,PTH,ComponentDrill
T3C0.0610
; #@! TA.AperFunction,Plated,PTH,ComponentDrill
T4C0.0750
; #@! TA.AperFunction,Plated,PTH,ComponentDrill
T5C0.0787
; #@! TA.AperFunction,Plated,PTH,ComponentDrill
T6C0.0984
%
G90
G05
T1
X7.2825Y-7.7177
X7.2825Y-8.013
X7.4171Y-2.6343
X7.4436Y-2.713
X7.6404Y-2.713
X7.6669Y-2.7917
X7.7443Y-6.8347
X7.7443Y-7.0316
X7.7443Y-7.2284
X7.7443Y-7.4253
X7.7466Y-7.7224
X7.7466Y-7.9193
X7.7466Y-8.1161
X7.7466Y-8.313
T2
X6.4724Y-2.713
X6.8182Y-7.604
X6.8182Y-8.204
X6.9068Y-3.5764
X6.9068Y-4.6764
X6.9068Y-4.927
X6.9068Y-6.027
X6.9068Y-6.2776
X6.9068Y-7.3776
X8.2441Y-2.713
T3
X8.0067Y-7.0315
X8.009Y-7.9192
X8.0094Y-6.835
X8.0118Y-7.7228
T4
X6.4098Y-3.4397
X6.4098Y-3.7157
X6.4098Y-4.6738
X6.4098Y-4.9498
X6.4098Y-6.01
X6.4098Y-6.286
X6.4098Y-7.3589
X6.4098Y-7.6349
X6.6068Y-3.4397
X6.6068Y-3.7157
X6.6068Y-4.6738
X6.6068Y-4.9498
X6.6068Y-6.01
X6.6068Y-6.286
X6.6068Y-7.3589
X6.6068Y-7.6349
T5
X7.4806Y-4.0217
X7.4806Y-5.1008
X7.4806Y-6.18
X7.8743Y-4.0217
X7.8743Y-5.1008
X7.8743Y-6.18
T6
X6.5098Y-3.578
X6.5098Y-4.812
X6.5098Y-6.1482
X6.5098Y-7.4971
T0
M30
