%TF.GenerationSoftware,KiCad,Pcbnew,(6.0.0)*%
%TF.CreationDate,2022-02-22T13:29:53+00:00*%
%TF.ProjectId,Audionote Kit four v2,41756469-6f6e-46f7-9465-204b69742066,rev?*%
%TF.SameCoordinates,Original*%
%TF.FileFunction,Soldermask,Bot*%
%TF.FilePolarity,Negative*%
%FSLAX46Y46*%
G04 Gerber Fmt 4.6, Leading zero omitted, Abs format (unit mm)*
G04 Created by KiCad (PCBNEW (6.0.0)) date 2022-02-22 13:29:53*
%MOMM*%
%LPD*%
G01*
G04 APERTURE LIST*
G04 Aperture macros list*
%AMRoundRect*
0 Rectangle with rounded corners*
0 $1 Rounding radius*
0 $2 $3 $4 $5 $6 $7 $8 $9 X,Y pos of 4 corners*
0 Add a 4 corners polygon primitive as box body*
4,1,4,$2,$3,$4,$5,$6,$7,$8,$9,$2,$3,0*
0 Add four circle primitives for the rounded corners*
1,1,$1+$1,$2,$3*
1,1,$1+$1,$4,$5*
1,1,$1+$1,$6,$7*
1,1,$1+$1,$8,$9*
0 Add four rect primitives between the rounded corners*
20,1,$1+$1,$2,$3,$4,$5,0*
20,1,$1+$1,$4,$5,$6,$7,0*
20,1,$1+$1,$6,$7,$8,$9,0*
20,1,$1+$1,$8,$9,$2,$3,0*%
G04 Aperture macros list end*
%ADD10C,2.400000*%
%ADD11O,2.400000X2.400000*%
%ADD12RoundRect,0.249999X1.025001X-1.025001X1.025001X1.025001X-1.025001X1.025001X-1.025001X-1.025001X0*%
%ADD13R,2.000000X2.000000*%
%ADD14C,2.000000*%
%ADD15R,4.000000X4.000000*%
%ADD16C,4.000000*%
%ADD17C,3.200000*%
%ADD18C,9.000000*%
%ADD19R,2.400000X2.400000*%
G04 APERTURE END LIST*
D10*
%TO.C,R29*%
X175431524Y-153086018D03*
D11*
X175431524Y-125146018D03*
%TD*%
D12*
%TO.C,J2*%
X203429434Y-201148476D03*
%TD*%
D13*
%TO.C,D2*%
X196705399Y-188601524D03*
D14*
X196705399Y-183601524D03*
X196705399Y-178601524D03*
X196705399Y-173601524D03*
%TD*%
D12*
%TO.C,J3*%
X203499434Y-196158476D03*
%TD*%
D10*
%TO.C,R7*%
X173181524Y-208381524D03*
D11*
X173181524Y-193141524D03*
%TD*%
D15*
%TO.C,C18*%
X190007714Y-102151524D03*
D16*
X200007714Y-102151524D03*
%TD*%
D17*
%TO.C,REF\u002A\u002A*%
X209550000Y-138700000D03*
%TD*%
D16*
%TO.C,REF\u002A\u002A*%
X162810000Y-125725200D03*
D18*
X165350000Y-122225200D03*
D16*
X167813800Y-125725200D03*
X167813800Y-118714800D03*
X162810000Y-118714800D03*
%TD*%
D12*
%TO.C,J4*%
X203370000Y-178600000D03*
%TD*%
D17*
%TO.C,REF\u002A\u002A*%
X164400000Y-52930000D03*
%TD*%
D16*
%TO.C,REF\u002A\u002A*%
X167813800Y-87369600D03*
D18*
X165350000Y-90880000D03*
D16*
X162810000Y-94380000D03*
X162810000Y-87369600D03*
X167813800Y-94380000D03*
%TD*%
D13*
%TO.C,D1*%
X196764833Y-211150000D03*
D14*
X196764833Y-206150000D03*
X196764833Y-201150000D03*
X196764833Y-196150000D03*
%TD*%
D15*
%TO.C,C14*%
X190007714Y-156971524D03*
D16*
X200007714Y-156971524D03*
%TD*%
D10*
%TO.C,R30*%
X175431524Y-118781524D03*
D11*
X175431524Y-90841524D03*
%TD*%
D14*
%TO.C,C3*%
X184974833Y-203530000D03*
X184974833Y-196030000D03*
%TD*%
D15*
%TO.C,C17*%
X190007714Y-129561524D03*
D16*
X200007714Y-129561524D03*
%TD*%
D17*
%TO.C,REF\u002A\u002A*%
X164400000Y-209940000D03*
%TD*%
D12*
%TO.C,J5*%
X203440000Y-173610000D03*
%TD*%
D17*
%TO.C,REF\u002A\u002A*%
X209550000Y-52930000D03*
%TD*%
%TO.C,REF\u002A\u002A*%
X164400000Y-138700000D03*
%TD*%
D10*
%TO.C,R28*%
X175431524Y-187390512D03*
D11*
X175431524Y-159450512D03*
%TD*%
D17*
%TO.C,REF\u002A\u002A*%
X209550000Y-209940000D03*
%TD*%
D16*
%TO.C,REF\u002A\u002A*%
X167813800Y-193925200D03*
X167813800Y-186914800D03*
D18*
X165350000Y-190425200D03*
D16*
X162810000Y-193925200D03*
X162810000Y-186914800D03*
%TD*%
D18*
%TO.C,REF\u002A\u002A*%
X165350000Y-156165200D03*
D16*
X162810000Y-152654800D03*
X162810000Y-159665200D03*
X167813800Y-152654800D03*
X167813800Y-159665200D03*
%TD*%
D13*
%TO.C,C13*%
X188395179Y-66910000D03*
X189067323Y-68910000D03*
D14*
X194739467Y-70910000D03*
X194067323Y-68910000D03*
%TD*%
D19*
%TO.C,REF\u002A\u002A*%
X164399775Y-68910000D03*
D11*
X209399775Y-68910000D03*
%TD*%
M02*
