%TF.GenerationSoftware,KiCad,Pcbnew,(5.1.10)-1*%
%TF.CreationDate,2021-10-22T01:29:16+01:00*%
%TF.ProjectId,RCA BOOARD,52434120-424f-44f4-9152-442e6b696361,rev?*%
%TF.SameCoordinates,Original*%
%TF.FileFunction,Copper,L2,Bot*%
%TF.FilePolarity,Positive*%
%FSLAX46Y46*%
G04 Gerber Fmt 4.6, Leading zero omitted, Abs format (unit mm)*
G04 Created by KiCad (PCBNEW (5.1.10)-1) date 2021-10-22 01:29:16*
%MOMM*%
%LPD*%
G01*
G04 APERTURE LIST*
%TA.AperFunction,ComponentPad*%
%ADD10C,1.500000*%
%TD*%
%TA.AperFunction,ComponentPad*%
%ADD11C,3.000000*%
%TD*%
%TA.AperFunction,ComponentPad*%
%ADD12C,2.300000*%
%TD*%
%TA.AperFunction,Conductor*%
%ADD13C,0.250000*%
%TD*%
%TA.AperFunction,Conductor*%
%ADD14C,2.600000*%
%TD*%
%TA.AperFunction,Conductor*%
%ADD15C,4.000000*%
%TD*%
%TA.AperFunction,NonConductor*%
%ADD16C,0.254000*%
%TD*%
%TA.AperFunction,NonConductor*%
%ADD17C,0.100000*%
%TD*%
G04 APERTURE END LIST*
D10*
%TO.P,RCA 4LEG,4*%
%TO.N,N/C*%
X149900000Y-134630000D03*
%TO.P,RCA 4LEG,3*%
X152400000Y-134630000D03*
D11*
%TO.P,RCA 4LEG,2*%
X157450000Y-129530000D03*
%TO.P,RCA 4LEG,1*%
X147350000Y-129530000D03*
%TD*%
%TO.P,RCA 4LEG,1*%
%TO.N,N/C*%
X123220000Y-129530000D03*
%TO.P,RCA 4LEG,2*%
X133320000Y-129530000D03*
D10*
%TO.P,RCA 4LEG,3*%
X128270000Y-134630000D03*
%TO.P,RCA 4LEG,4*%
X125770000Y-134630000D03*
%TD*%
D12*
%TO.P, ,1*%
%TO.N,N/C*%
X138430000Y-142240000D03*
%TD*%
%TO.P, ,1*%
%TO.N,N/C*%
X152400000Y-142240000D03*
%TD*%
%TO.P, ,1*%
%TO.N,N/C*%
X128270000Y-142240000D03*
%TD*%
%TO.P, ,1*%
%TO.N,N/C*%
X142240000Y-142240000D03*
%TD*%
D13*
%TO.N,*%
X142290000Y-142240000D02*
X142240000Y-142240000D01*
D14*
X125730000Y-134620000D02*
X124490000Y-134620000D01*
X149860000Y-134620000D02*
X148620000Y-134620000D01*
D15*
X138430000Y-142240000D02*
X142240000Y-142240000D01*
%TD*%
D16*
X163170001Y-144120000D02*
X117500000Y-144120000D01*
X117500000Y-142064193D01*
X126485000Y-142064193D01*
X126485000Y-142415807D01*
X126553596Y-142760665D01*
X126688153Y-143085515D01*
X126883500Y-143377871D01*
X127132129Y-143626500D01*
X127424485Y-143821847D01*
X127749335Y-143956404D01*
X128094193Y-144025000D01*
X128445807Y-144025000D01*
X128790665Y-143956404D01*
X129115515Y-143821847D01*
X129407871Y-143626500D01*
X129656500Y-143377871D01*
X129851847Y-143085515D01*
X129986404Y-142760665D01*
X130055000Y-142415807D01*
X130055000Y-142064193D01*
X136645000Y-142064193D01*
X136645000Y-142415807D01*
X136713596Y-142760665D01*
X136848153Y-143085515D01*
X137043500Y-143377871D01*
X137292129Y-143626500D01*
X137584485Y-143821847D01*
X137909335Y-143956404D01*
X138254193Y-144025000D01*
X138605807Y-144025000D01*
X138950665Y-143956404D01*
X139275515Y-143821847D01*
X139567871Y-143626500D01*
X139816500Y-143377871D01*
X140011847Y-143085515D01*
X140146404Y-142760665D01*
X140215000Y-142415807D01*
X140215000Y-142064193D01*
X140455000Y-142064193D01*
X140455000Y-142415807D01*
X140523596Y-142760665D01*
X140658153Y-143085515D01*
X140853500Y-143377871D01*
X141102129Y-143626500D01*
X141394485Y-143821847D01*
X141719335Y-143956404D01*
X142064193Y-144025000D01*
X142415807Y-144025000D01*
X142760665Y-143956404D01*
X143085515Y-143821847D01*
X143377871Y-143626500D01*
X143626500Y-143377871D01*
X143821847Y-143085515D01*
X143956404Y-142760665D01*
X144025000Y-142415807D01*
X144025000Y-142064193D01*
X150615000Y-142064193D01*
X150615000Y-142415807D01*
X150683596Y-142760665D01*
X150818153Y-143085515D01*
X151013500Y-143377871D01*
X151262129Y-143626500D01*
X151554485Y-143821847D01*
X151879335Y-143956404D01*
X152224193Y-144025000D01*
X152575807Y-144025000D01*
X152920665Y-143956404D01*
X153245515Y-143821847D01*
X153537871Y-143626500D01*
X153786500Y-143377871D01*
X153981847Y-143085515D01*
X154116404Y-142760665D01*
X154185000Y-142415807D01*
X154185000Y-142064193D01*
X154116404Y-141719335D01*
X153981847Y-141394485D01*
X153786500Y-141102129D01*
X153537871Y-140853500D01*
X153245515Y-140658153D01*
X152920665Y-140523596D01*
X152575807Y-140455000D01*
X152224193Y-140455000D01*
X151879335Y-140523596D01*
X151554485Y-140658153D01*
X151262129Y-140853500D01*
X151013500Y-141102129D01*
X150818153Y-141394485D01*
X150683596Y-141719335D01*
X150615000Y-142064193D01*
X144025000Y-142064193D01*
X143956404Y-141719335D01*
X143821847Y-141394485D01*
X143626500Y-141102129D01*
X143377871Y-140853500D01*
X143085515Y-140658153D01*
X142760665Y-140523596D01*
X142415807Y-140455000D01*
X142064193Y-140455000D01*
X141719335Y-140523596D01*
X141394485Y-140658153D01*
X141102129Y-140853500D01*
X140853500Y-141102129D01*
X140658153Y-141394485D01*
X140523596Y-141719335D01*
X140455000Y-142064193D01*
X140215000Y-142064193D01*
X140146404Y-141719335D01*
X140011847Y-141394485D01*
X139816500Y-141102129D01*
X139567871Y-140853500D01*
X139275515Y-140658153D01*
X138950665Y-140523596D01*
X138605807Y-140455000D01*
X138254193Y-140455000D01*
X137909335Y-140523596D01*
X137584485Y-140658153D01*
X137292129Y-140853500D01*
X137043500Y-141102129D01*
X136848153Y-141394485D01*
X136713596Y-141719335D01*
X136645000Y-142064193D01*
X130055000Y-142064193D01*
X129986404Y-141719335D01*
X129851847Y-141394485D01*
X129656500Y-141102129D01*
X129407871Y-140853500D01*
X129115515Y-140658153D01*
X128790665Y-140523596D01*
X128445807Y-140455000D01*
X128094193Y-140455000D01*
X127749335Y-140523596D01*
X127424485Y-140658153D01*
X127132129Y-140853500D01*
X126883500Y-141102129D01*
X126688153Y-141394485D01*
X126553596Y-141719335D01*
X126485000Y-142064193D01*
X117500000Y-142064193D01*
X117500000Y-134620000D01*
X123696324Y-134620000D01*
X123710998Y-134768985D01*
X123754454Y-134912246D01*
X123825026Y-135044276D01*
X123896201Y-135131002D01*
X123958998Y-135193799D01*
X124045724Y-135264974D01*
X124177754Y-135335546D01*
X124321014Y-135379002D01*
X124469999Y-135393676D01*
X124605622Y-135380318D01*
X124694201Y-135512886D01*
X124887114Y-135705799D01*
X125113957Y-135857371D01*
X125366011Y-135961775D01*
X125633589Y-136015000D01*
X125906411Y-136015000D01*
X126173989Y-135961775D01*
X126426043Y-135857371D01*
X126652886Y-135705799D01*
X126845799Y-135512886D01*
X126997371Y-135286043D01*
X127020000Y-135231412D01*
X127042629Y-135286043D01*
X127194201Y-135512886D01*
X127387114Y-135705799D01*
X127613957Y-135857371D01*
X127866011Y-135961775D01*
X128133589Y-136015000D01*
X128406411Y-136015000D01*
X128673989Y-135961775D01*
X128926043Y-135857371D01*
X129152886Y-135705799D01*
X129345799Y-135512886D01*
X129497371Y-135286043D01*
X129601775Y-135033989D01*
X129655000Y-134766411D01*
X129655000Y-134493589D01*
X148515000Y-134493589D01*
X148515000Y-134766411D01*
X148568225Y-135033989D01*
X148672629Y-135286043D01*
X148824201Y-135512886D01*
X149017114Y-135705799D01*
X149243957Y-135857371D01*
X149496011Y-135961775D01*
X149763589Y-136015000D01*
X150036411Y-136015000D01*
X150303989Y-135961775D01*
X150556043Y-135857371D01*
X150782886Y-135705799D01*
X150975799Y-135512886D01*
X151127371Y-135286043D01*
X151150000Y-135231412D01*
X151172629Y-135286043D01*
X151324201Y-135512886D01*
X151517114Y-135705799D01*
X151743957Y-135857371D01*
X151996011Y-135961775D01*
X152263589Y-136015000D01*
X152536411Y-136015000D01*
X152803989Y-135961775D01*
X153056043Y-135857371D01*
X153282886Y-135705799D01*
X153475799Y-135512886D01*
X153627371Y-135286043D01*
X153731775Y-135033989D01*
X153785000Y-134766411D01*
X153785000Y-134493589D01*
X153731775Y-134226011D01*
X153627371Y-133973957D01*
X153475799Y-133747114D01*
X153282886Y-133554201D01*
X153056043Y-133402629D01*
X152803989Y-133298225D01*
X152536411Y-133245000D01*
X152263589Y-133245000D01*
X151996011Y-133298225D01*
X151743957Y-133402629D01*
X151517114Y-133554201D01*
X151324201Y-133747114D01*
X151172629Y-133973957D01*
X151150000Y-134028588D01*
X151127371Y-133973957D01*
X150975799Y-133747114D01*
X150782886Y-133554201D01*
X150556043Y-133402629D01*
X150303989Y-133298225D01*
X150036411Y-133245000D01*
X149763589Y-133245000D01*
X149496011Y-133298225D01*
X149243957Y-133402629D01*
X149017114Y-133554201D01*
X148824201Y-133747114D01*
X148672629Y-133973957D01*
X148568225Y-134226011D01*
X148515000Y-134493589D01*
X129655000Y-134493589D01*
X129601775Y-134226011D01*
X129497371Y-133973957D01*
X129345799Y-133747114D01*
X129152886Y-133554201D01*
X128926043Y-133402629D01*
X128673989Y-133298225D01*
X128406411Y-133245000D01*
X128133589Y-133245000D01*
X127866011Y-133298225D01*
X127613957Y-133402629D01*
X127387114Y-133554201D01*
X127194201Y-133747114D01*
X127042629Y-133973957D01*
X127020000Y-134028588D01*
X126997371Y-133973957D01*
X126845799Y-133747114D01*
X126652886Y-133554201D01*
X126426043Y-133402629D01*
X126173989Y-133298225D01*
X125906411Y-133245000D01*
X125633589Y-133245000D01*
X125366011Y-133298225D01*
X125113957Y-133402629D01*
X124887114Y-133554201D01*
X124694201Y-133747114D01*
X124611013Y-133871613D01*
X124608985Y-133870998D01*
X124460000Y-133856324D01*
X124311015Y-133870998D01*
X124167754Y-133914454D01*
X124035724Y-133985026D01*
X123919999Y-134079999D01*
X123825026Y-134195724D01*
X123754454Y-134327754D01*
X123710998Y-134471015D01*
X123696324Y-134620000D01*
X117500000Y-134620000D01*
X117500000Y-129530000D01*
X120069832Y-129530000D01*
X120130362Y-130144567D01*
X120309624Y-130735517D01*
X120600731Y-131280140D01*
X120992495Y-131757505D01*
X121469860Y-132149269D01*
X122014483Y-132440376D01*
X122605433Y-132619638D01*
X123065998Y-132665000D01*
X157604002Y-132665000D01*
X158064567Y-132619638D01*
X158655517Y-132440376D01*
X159200140Y-132149269D01*
X159677505Y-131757505D01*
X160069269Y-131280140D01*
X160360376Y-130735517D01*
X160539638Y-130144567D01*
X160600168Y-129530000D01*
X160539638Y-128915433D01*
X160360376Y-128324483D01*
X160069269Y-127779860D01*
X159677505Y-127302495D01*
X159200140Y-126910731D01*
X158655517Y-126619624D01*
X158064567Y-126440362D01*
X157604002Y-126395000D01*
X123065998Y-126395000D01*
X122605433Y-126440362D01*
X122014483Y-126619624D01*
X121469860Y-126910731D01*
X120992495Y-127302495D01*
X120600731Y-127779860D01*
X120309624Y-128324483D01*
X120130362Y-128915433D01*
X120069832Y-129530000D01*
X117500000Y-129530000D01*
X117500000Y-126390000D01*
X163170000Y-126390000D01*
X163170001Y-144120000D01*
%TA.AperFunction,NonConductor*%
D17*
G36*
X163170001Y-144120000D02*
G01*
X117500000Y-144120000D01*
X117500000Y-142064193D01*
X126485000Y-142064193D01*
X126485000Y-142415807D01*
X126553596Y-142760665D01*
X126688153Y-143085515D01*
X126883500Y-143377871D01*
X127132129Y-143626500D01*
X127424485Y-143821847D01*
X127749335Y-143956404D01*
X128094193Y-144025000D01*
X128445807Y-144025000D01*
X128790665Y-143956404D01*
X129115515Y-143821847D01*
X129407871Y-143626500D01*
X129656500Y-143377871D01*
X129851847Y-143085515D01*
X129986404Y-142760665D01*
X130055000Y-142415807D01*
X130055000Y-142064193D01*
X136645000Y-142064193D01*
X136645000Y-142415807D01*
X136713596Y-142760665D01*
X136848153Y-143085515D01*
X137043500Y-143377871D01*
X137292129Y-143626500D01*
X137584485Y-143821847D01*
X137909335Y-143956404D01*
X138254193Y-144025000D01*
X138605807Y-144025000D01*
X138950665Y-143956404D01*
X139275515Y-143821847D01*
X139567871Y-143626500D01*
X139816500Y-143377871D01*
X140011847Y-143085515D01*
X140146404Y-142760665D01*
X140215000Y-142415807D01*
X140215000Y-142064193D01*
X140455000Y-142064193D01*
X140455000Y-142415807D01*
X140523596Y-142760665D01*
X140658153Y-143085515D01*
X140853500Y-143377871D01*
X141102129Y-143626500D01*
X141394485Y-143821847D01*
X141719335Y-143956404D01*
X142064193Y-144025000D01*
X142415807Y-144025000D01*
X142760665Y-143956404D01*
X143085515Y-143821847D01*
X143377871Y-143626500D01*
X143626500Y-143377871D01*
X143821847Y-143085515D01*
X143956404Y-142760665D01*
X144025000Y-142415807D01*
X144025000Y-142064193D01*
X150615000Y-142064193D01*
X150615000Y-142415807D01*
X150683596Y-142760665D01*
X150818153Y-143085515D01*
X151013500Y-143377871D01*
X151262129Y-143626500D01*
X151554485Y-143821847D01*
X151879335Y-143956404D01*
X152224193Y-144025000D01*
X152575807Y-144025000D01*
X152920665Y-143956404D01*
X153245515Y-143821847D01*
X153537871Y-143626500D01*
X153786500Y-143377871D01*
X153981847Y-143085515D01*
X154116404Y-142760665D01*
X154185000Y-142415807D01*
X154185000Y-142064193D01*
X154116404Y-141719335D01*
X153981847Y-141394485D01*
X153786500Y-141102129D01*
X153537871Y-140853500D01*
X153245515Y-140658153D01*
X152920665Y-140523596D01*
X152575807Y-140455000D01*
X152224193Y-140455000D01*
X151879335Y-140523596D01*
X151554485Y-140658153D01*
X151262129Y-140853500D01*
X151013500Y-141102129D01*
X150818153Y-141394485D01*
X150683596Y-141719335D01*
X150615000Y-142064193D01*
X144025000Y-142064193D01*
X143956404Y-141719335D01*
X143821847Y-141394485D01*
X143626500Y-141102129D01*
X143377871Y-140853500D01*
X143085515Y-140658153D01*
X142760665Y-140523596D01*
X142415807Y-140455000D01*
X142064193Y-140455000D01*
X141719335Y-140523596D01*
X141394485Y-140658153D01*
X141102129Y-140853500D01*
X140853500Y-141102129D01*
X140658153Y-141394485D01*
X140523596Y-141719335D01*
X140455000Y-142064193D01*
X140215000Y-142064193D01*
X140146404Y-141719335D01*
X140011847Y-141394485D01*
X139816500Y-141102129D01*
X139567871Y-140853500D01*
X139275515Y-140658153D01*
X138950665Y-140523596D01*
X138605807Y-140455000D01*
X138254193Y-140455000D01*
X137909335Y-140523596D01*
X137584485Y-140658153D01*
X137292129Y-140853500D01*
X137043500Y-141102129D01*
X136848153Y-141394485D01*
X136713596Y-141719335D01*
X136645000Y-142064193D01*
X130055000Y-142064193D01*
X129986404Y-141719335D01*
X129851847Y-141394485D01*
X129656500Y-141102129D01*
X129407871Y-140853500D01*
X129115515Y-140658153D01*
X128790665Y-140523596D01*
X128445807Y-140455000D01*
X128094193Y-140455000D01*
X127749335Y-140523596D01*
X127424485Y-140658153D01*
X127132129Y-140853500D01*
X126883500Y-141102129D01*
X126688153Y-141394485D01*
X126553596Y-141719335D01*
X126485000Y-142064193D01*
X117500000Y-142064193D01*
X117500000Y-134620000D01*
X123696324Y-134620000D01*
X123710998Y-134768985D01*
X123754454Y-134912246D01*
X123825026Y-135044276D01*
X123896201Y-135131002D01*
X123958998Y-135193799D01*
X124045724Y-135264974D01*
X124177754Y-135335546D01*
X124321014Y-135379002D01*
X124469999Y-135393676D01*
X124605622Y-135380318D01*
X124694201Y-135512886D01*
X124887114Y-135705799D01*
X125113957Y-135857371D01*
X125366011Y-135961775D01*
X125633589Y-136015000D01*
X125906411Y-136015000D01*
X126173989Y-135961775D01*
X126426043Y-135857371D01*
X126652886Y-135705799D01*
X126845799Y-135512886D01*
X126997371Y-135286043D01*
X127020000Y-135231412D01*
X127042629Y-135286043D01*
X127194201Y-135512886D01*
X127387114Y-135705799D01*
X127613957Y-135857371D01*
X127866011Y-135961775D01*
X128133589Y-136015000D01*
X128406411Y-136015000D01*
X128673989Y-135961775D01*
X128926043Y-135857371D01*
X129152886Y-135705799D01*
X129345799Y-135512886D01*
X129497371Y-135286043D01*
X129601775Y-135033989D01*
X129655000Y-134766411D01*
X129655000Y-134493589D01*
X148515000Y-134493589D01*
X148515000Y-134766411D01*
X148568225Y-135033989D01*
X148672629Y-135286043D01*
X148824201Y-135512886D01*
X149017114Y-135705799D01*
X149243957Y-135857371D01*
X149496011Y-135961775D01*
X149763589Y-136015000D01*
X150036411Y-136015000D01*
X150303989Y-135961775D01*
X150556043Y-135857371D01*
X150782886Y-135705799D01*
X150975799Y-135512886D01*
X151127371Y-135286043D01*
X151150000Y-135231412D01*
X151172629Y-135286043D01*
X151324201Y-135512886D01*
X151517114Y-135705799D01*
X151743957Y-135857371D01*
X151996011Y-135961775D01*
X152263589Y-136015000D01*
X152536411Y-136015000D01*
X152803989Y-135961775D01*
X153056043Y-135857371D01*
X153282886Y-135705799D01*
X153475799Y-135512886D01*
X153627371Y-135286043D01*
X153731775Y-135033989D01*
X153785000Y-134766411D01*
X153785000Y-134493589D01*
X153731775Y-134226011D01*
X153627371Y-133973957D01*
X153475799Y-133747114D01*
X153282886Y-133554201D01*
X153056043Y-133402629D01*
X152803989Y-133298225D01*
X152536411Y-133245000D01*
X152263589Y-133245000D01*
X151996011Y-133298225D01*
X151743957Y-133402629D01*
X151517114Y-133554201D01*
X151324201Y-133747114D01*
X151172629Y-133973957D01*
X151150000Y-134028588D01*
X151127371Y-133973957D01*
X150975799Y-133747114D01*
X150782886Y-133554201D01*
X150556043Y-133402629D01*
X150303989Y-133298225D01*
X150036411Y-133245000D01*
X149763589Y-133245000D01*
X149496011Y-133298225D01*
X149243957Y-133402629D01*
X149017114Y-133554201D01*
X148824201Y-133747114D01*
X148672629Y-133973957D01*
X148568225Y-134226011D01*
X148515000Y-134493589D01*
X129655000Y-134493589D01*
X129601775Y-134226011D01*
X129497371Y-133973957D01*
X129345799Y-133747114D01*
X129152886Y-133554201D01*
X128926043Y-133402629D01*
X128673989Y-133298225D01*
X128406411Y-133245000D01*
X128133589Y-133245000D01*
X127866011Y-133298225D01*
X127613957Y-133402629D01*
X127387114Y-133554201D01*
X127194201Y-133747114D01*
X127042629Y-133973957D01*
X127020000Y-134028588D01*
X126997371Y-133973957D01*
X126845799Y-133747114D01*
X126652886Y-133554201D01*
X126426043Y-133402629D01*
X126173989Y-133298225D01*
X125906411Y-133245000D01*
X125633589Y-133245000D01*
X125366011Y-133298225D01*
X125113957Y-133402629D01*
X124887114Y-133554201D01*
X124694201Y-133747114D01*
X124611013Y-133871613D01*
X124608985Y-133870998D01*
X124460000Y-133856324D01*
X124311015Y-133870998D01*
X124167754Y-133914454D01*
X124035724Y-133985026D01*
X123919999Y-134079999D01*
X123825026Y-134195724D01*
X123754454Y-134327754D01*
X123710998Y-134471015D01*
X123696324Y-134620000D01*
X117500000Y-134620000D01*
X117500000Y-129530000D01*
X120069832Y-129530000D01*
X120130362Y-130144567D01*
X120309624Y-130735517D01*
X120600731Y-131280140D01*
X120992495Y-131757505D01*
X121469860Y-132149269D01*
X122014483Y-132440376D01*
X122605433Y-132619638D01*
X123065998Y-132665000D01*
X157604002Y-132665000D01*
X158064567Y-132619638D01*
X158655517Y-132440376D01*
X159200140Y-132149269D01*
X159677505Y-131757505D01*
X160069269Y-131280140D01*
X160360376Y-130735517D01*
X160539638Y-130144567D01*
X160600168Y-129530000D01*
X160539638Y-128915433D01*
X160360376Y-128324483D01*
X160069269Y-127779860D01*
X159677505Y-127302495D01*
X159200140Y-126910731D01*
X158655517Y-126619624D01*
X158064567Y-126440362D01*
X157604002Y-126395000D01*
X123065998Y-126395000D01*
X122605433Y-126440362D01*
X122014483Y-126619624D01*
X121469860Y-126910731D01*
X120992495Y-127302495D01*
X120600731Y-127779860D01*
X120309624Y-128324483D01*
X120130362Y-128915433D01*
X120069832Y-129530000D01*
X117500000Y-129530000D01*
X117500000Y-126390000D01*
X163170000Y-126390000D01*
X163170001Y-144120000D01*
G37*
%TD.AperFunction*%
M02*
