%TF.GenerationSoftware,KiCad,Pcbnew,(5.1.10)-1*%
%TF.CreationDate,2021-10-22T01:29:16+01:00*%
%TF.ProjectId,RCA BOOARD,52434120-424f-44f4-9152-442e6b696361,rev?*%
%TF.SameCoordinates,Original*%
%TF.FileFunction,Legend,Top*%
%TF.FilePolarity,Positive*%
%FSLAX46Y46*%
G04 Gerber Fmt 4.6, Leading zero omitted, Abs format (unit mm)*
G04 Created by KiCad (PCBNEW (5.1.10)-1) date 2021-10-22 01:29:16*
%MOMM*%
%LPD*%
G01*
G04 APERTURE LIST*
%ADD10C,0.500000*%
%ADD11C,0.150000*%
%ADD12C,0.120000*%
G04 APERTURE END LIST*
D10*
X137795238Y-138450000D02*
X137557142Y-138330952D01*
X137200000Y-138330952D01*
X136842857Y-138450000D01*
X136604761Y-138688095D01*
X136485714Y-138926190D01*
X136366666Y-139402380D01*
X136366666Y-139759523D01*
X136485714Y-140235714D01*
X136604761Y-140473809D01*
X136842857Y-140711904D01*
X137200000Y-140830952D01*
X137438095Y-140830952D01*
X137795238Y-140711904D01*
X137914285Y-140592857D01*
X137914285Y-139759523D01*
X137438095Y-139759523D01*
X138985714Y-140830952D02*
X138985714Y-138330952D01*
X140414285Y-140830952D01*
X140414285Y-138330952D01*
X141604761Y-140830952D02*
X141604761Y-138330952D01*
X142200000Y-138330952D01*
X142557142Y-138450000D01*
X142795238Y-138688095D01*
X142914285Y-138926190D01*
X143033333Y-139402380D01*
X143033333Y-139759523D01*
X142914285Y-140235714D01*
X142795238Y-140473809D01*
X142557142Y-140711904D01*
X142200000Y-140830952D01*
X141604761Y-140830952D01*
D11*
X120547142Y-142692380D02*
X120213809Y-142216190D01*
X119975714Y-142692380D02*
X119975714Y-141692380D01*
X120356666Y-141692380D01*
X120451904Y-141740000D01*
X120499523Y-141787619D01*
X120547142Y-141882857D01*
X120547142Y-142025714D01*
X120499523Y-142120952D01*
X120451904Y-142168571D01*
X120356666Y-142216190D01*
X119975714Y-142216190D01*
X121690000Y-142644761D02*
X121832857Y-142692380D01*
X122070952Y-142692380D01*
X122166190Y-142644761D01*
X122213809Y-142597142D01*
X122261428Y-142501904D01*
X122261428Y-142406666D01*
X122213809Y-142311428D01*
X122166190Y-142263809D01*
X122070952Y-142216190D01*
X121880476Y-142168571D01*
X121785238Y-142120952D01*
X121737619Y-142073333D01*
X121690000Y-141978095D01*
X121690000Y-141882857D01*
X121737619Y-141787619D01*
X121785238Y-141740000D01*
X121880476Y-141692380D01*
X122118571Y-141692380D01*
X122261428Y-141740000D01*
X122690000Y-142692380D02*
X122690000Y-141692380D01*
X123690000Y-141740000D02*
X123594761Y-141692380D01*
X123451904Y-141692380D01*
X123309047Y-141740000D01*
X123213809Y-141835238D01*
X123166190Y-141930476D01*
X123118571Y-142120952D01*
X123118571Y-142263809D01*
X123166190Y-142454285D01*
X123213809Y-142549523D01*
X123309047Y-142644761D01*
X123451904Y-142692380D01*
X123547142Y-142692380D01*
X123690000Y-142644761D01*
X123737619Y-142597142D01*
X123737619Y-142263809D01*
X123547142Y-142263809D01*
X124166190Y-142692380D02*
X124166190Y-141692380D01*
X124737619Y-142692380D01*
X124737619Y-141692380D01*
X125166190Y-142406666D02*
X125642380Y-142406666D01*
X125070952Y-142692380D02*
X125404285Y-141692380D01*
X125737619Y-142692380D01*
X126547142Y-142692380D02*
X126070952Y-142692380D01*
X126070952Y-141692380D01*
X154837142Y-142692380D02*
X154360952Y-142692380D01*
X154360952Y-141692380D01*
X155884761Y-142644761D02*
X156027619Y-142692380D01*
X156265714Y-142692380D01*
X156360952Y-142644761D01*
X156408571Y-142597142D01*
X156456190Y-142501904D01*
X156456190Y-142406666D01*
X156408571Y-142311428D01*
X156360952Y-142263809D01*
X156265714Y-142216190D01*
X156075238Y-142168571D01*
X155980000Y-142120952D01*
X155932380Y-142073333D01*
X155884761Y-141978095D01*
X155884761Y-141882857D01*
X155932380Y-141787619D01*
X155980000Y-141740000D01*
X156075238Y-141692380D01*
X156313333Y-141692380D01*
X156456190Y-141740000D01*
X156884761Y-142692380D02*
X156884761Y-141692380D01*
X157884761Y-141740000D02*
X157789523Y-141692380D01*
X157646666Y-141692380D01*
X157503809Y-141740000D01*
X157408571Y-141835238D01*
X157360952Y-141930476D01*
X157313333Y-142120952D01*
X157313333Y-142263809D01*
X157360952Y-142454285D01*
X157408571Y-142549523D01*
X157503809Y-142644761D01*
X157646666Y-142692380D01*
X157741904Y-142692380D01*
X157884761Y-142644761D01*
X157932380Y-142597142D01*
X157932380Y-142263809D01*
X157741904Y-142263809D01*
X158360952Y-142692380D02*
X158360952Y-141692380D01*
X158932380Y-142692380D01*
X158932380Y-141692380D01*
X159360952Y-142406666D02*
X159837142Y-142406666D01*
X159265714Y-142692380D02*
X159599047Y-141692380D01*
X159932380Y-142692380D01*
X160741904Y-142692380D02*
X160265714Y-142692380D01*
X160265714Y-141692380D01*
D12*
%TO.C,RCA 4LEG*%
X162433000Y-125984000D02*
X144272000Y-125984000D01*
X144272000Y-125984000D02*
X142494000Y-125984000D01*
X142494000Y-125984000D02*
X142494000Y-137287000D01*
X142494000Y-137287000D02*
X162433000Y-137287000D01*
X162433000Y-137287000D02*
X162433000Y-125984000D01*
X138303000Y-125984000D02*
X120142000Y-125984000D01*
X120142000Y-125984000D02*
X118364000Y-125984000D01*
X118364000Y-125984000D02*
X118364000Y-137287000D01*
X118364000Y-137287000D02*
X138303000Y-137287000D01*
X138303000Y-137287000D02*
X138303000Y-125984000D01*
D11*
X149566666Y-124531380D02*
X149233333Y-124055190D01*
X148995238Y-124531380D02*
X148995238Y-123531380D01*
X149376190Y-123531380D01*
X149471428Y-123579000D01*
X149519047Y-123626619D01*
X149566666Y-123721857D01*
X149566666Y-123864714D01*
X149519047Y-123959952D01*
X149471428Y-124007571D01*
X149376190Y-124055190D01*
X148995238Y-124055190D01*
X150566666Y-124436142D02*
X150519047Y-124483761D01*
X150376190Y-124531380D01*
X150280952Y-124531380D01*
X150138095Y-124483761D01*
X150042857Y-124388523D01*
X149995238Y-124293285D01*
X149947619Y-124102809D01*
X149947619Y-123959952D01*
X149995238Y-123769476D01*
X150042857Y-123674238D01*
X150138095Y-123579000D01*
X150280952Y-123531380D01*
X150376190Y-123531380D01*
X150519047Y-123579000D01*
X150566666Y-123626619D01*
X150947619Y-124245666D02*
X151423809Y-124245666D01*
X150852380Y-124531380D02*
X151185714Y-123531380D01*
X151519047Y-124531380D01*
X153042857Y-123864714D02*
X153042857Y-124531380D01*
X152804761Y-123483761D02*
X152566666Y-124198047D01*
X153185714Y-124198047D01*
X154042857Y-124531380D02*
X153566666Y-124531380D01*
X153566666Y-123531380D01*
X154376190Y-124007571D02*
X154709523Y-124007571D01*
X154852380Y-124531380D02*
X154376190Y-124531380D01*
X154376190Y-123531380D01*
X154852380Y-123531380D01*
X155804761Y-123579000D02*
X155709523Y-123531380D01*
X155566666Y-123531380D01*
X155423809Y-123579000D01*
X155328571Y-123674238D01*
X155280952Y-123769476D01*
X155233333Y-123959952D01*
X155233333Y-124102809D01*
X155280952Y-124293285D01*
X155328571Y-124388523D01*
X155423809Y-124483761D01*
X155566666Y-124531380D01*
X155661904Y-124531380D01*
X155804761Y-124483761D01*
X155852380Y-124436142D01*
X155852380Y-124102809D01*
X155661904Y-124102809D01*
X125436666Y-124531380D02*
X125103333Y-124055190D01*
X124865238Y-124531380D02*
X124865238Y-123531380D01*
X125246190Y-123531380D01*
X125341428Y-123579000D01*
X125389047Y-123626619D01*
X125436666Y-123721857D01*
X125436666Y-123864714D01*
X125389047Y-123959952D01*
X125341428Y-124007571D01*
X125246190Y-124055190D01*
X124865238Y-124055190D01*
X126436666Y-124436142D02*
X126389047Y-124483761D01*
X126246190Y-124531380D01*
X126150952Y-124531380D01*
X126008095Y-124483761D01*
X125912857Y-124388523D01*
X125865238Y-124293285D01*
X125817619Y-124102809D01*
X125817619Y-123959952D01*
X125865238Y-123769476D01*
X125912857Y-123674238D01*
X126008095Y-123579000D01*
X126150952Y-123531380D01*
X126246190Y-123531380D01*
X126389047Y-123579000D01*
X126436666Y-123626619D01*
X126817619Y-124245666D02*
X127293809Y-124245666D01*
X126722380Y-124531380D02*
X127055714Y-123531380D01*
X127389047Y-124531380D01*
X128912857Y-123864714D02*
X128912857Y-124531380D01*
X128674761Y-123483761D02*
X128436666Y-124198047D01*
X129055714Y-124198047D01*
X129912857Y-124531380D02*
X129436666Y-124531380D01*
X129436666Y-123531380D01*
X130246190Y-124007571D02*
X130579523Y-124007571D01*
X130722380Y-124531380D02*
X130246190Y-124531380D01*
X130246190Y-123531380D01*
X130722380Y-123531380D01*
X131674761Y-123579000D02*
X131579523Y-123531380D01*
X131436666Y-123531380D01*
X131293809Y-123579000D01*
X131198571Y-123674238D01*
X131150952Y-123769476D01*
X131103333Y-123959952D01*
X131103333Y-124102809D01*
X131150952Y-124293285D01*
X131198571Y-124388523D01*
X131293809Y-124483761D01*
X131436666Y-124531380D01*
X131531904Y-124531380D01*
X131674761Y-124483761D01*
X131722380Y-124436142D01*
X131722380Y-124102809D01*
X131531904Y-124102809D01*
%TO.C, *%
%TD*%
M02*
