%TF.GenerationSoftware,KiCad,Pcbnew,(6.0.0)*%
%TF.CreationDate,2022-07-31T17:52:24+01:00*%
%TF.ProjectId,Lynx AMP,4c796e78-2041-44d5-902e-6b696361645f,rev?*%
%TF.SameCoordinates,Original*%
%TF.FileFunction,Legend,Top*%
%TF.FilePolarity,Positive*%
%FSLAX46Y46*%
G04 Gerber Fmt 4.6, Leading zero omitted, Abs format (unit mm)*
G04 Created by KiCad (PCBNEW (6.0.0)) date 2022-07-31 17:52:24*
%MOMM*%
%LPD*%
G01*
G04 APERTURE LIST*
%ADD10C,0.300000*%
%ADD11C,0.150000*%
%ADD12C,0.100000*%
%ADD13C,0.120000*%
G04 APERTURE END LIST*
D10*
X53120795Y-140682142D02*
X54120795Y-143682142D01*
X55120795Y-140682142D01*
X56120795Y-142539285D02*
X58406509Y-142539285D01*
X57263652Y-143682142D02*
X57263652Y-141396428D01*
X72373101Y-108657142D02*
X72373101Y-105657142D01*
X73801672Y-108657142D02*
X73801672Y-105657142D01*
X75515958Y-108657142D01*
X75515958Y-105657142D01*
X137175000Y-140870956D02*
X137746428Y-140870956D01*
X138032142Y-141013814D01*
X138317857Y-141299528D01*
X138460714Y-141870956D01*
X138460714Y-142870956D01*
X138317857Y-143442385D01*
X138032142Y-143728099D01*
X137746428Y-143870956D01*
X137175000Y-143870956D01*
X136889285Y-143728099D01*
X136603571Y-143442385D01*
X136460714Y-142870956D01*
X136460714Y-141870956D01*
X136603571Y-141299528D01*
X136889285Y-141013814D01*
X137175000Y-140870956D01*
X139746428Y-140870956D02*
X139746428Y-143299528D01*
X139889285Y-143585242D01*
X140032142Y-143728099D01*
X140317857Y-143870956D01*
X140889285Y-143870956D01*
X141175000Y-143728099D01*
X141317857Y-143585242D01*
X141460714Y-143299528D01*
X141460714Y-140870956D01*
X142460714Y-140870956D02*
X144175000Y-140870956D01*
X143317857Y-143870956D02*
X143317857Y-140870956D01*
X202029970Y-140832142D02*
X203029970Y-143832142D01*
X204029970Y-140832142D01*
X205029970Y-142689285D02*
X207315684Y-142689285D01*
X74160165Y-132871034D02*
X74017307Y-133156748D01*
X74017307Y-133585320D01*
X74160165Y-134013891D01*
X74445879Y-134299605D01*
X74731593Y-134442462D01*
X75303022Y-134585320D01*
X75731593Y-134585320D01*
X76303022Y-134442462D01*
X76588736Y-134299605D01*
X76874450Y-134013891D01*
X77017307Y-133585320D01*
X77017307Y-133299605D01*
X76874450Y-132871034D01*
X76731593Y-132728177D01*
X75731593Y-132728177D01*
X75731593Y-133299605D01*
X77017307Y-131442462D02*
X74017307Y-131442462D01*
X77017307Y-129728177D01*
X74017307Y-129728177D01*
X77017307Y-128299605D02*
X74017307Y-128299605D01*
X74017307Y-127585320D01*
X74160165Y-127156748D01*
X74445879Y-126871034D01*
X74731593Y-126728177D01*
X75303022Y-126585320D01*
X75731593Y-126585320D01*
X76303022Y-126728177D01*
X76588736Y-126871034D01*
X76874450Y-127156748D01*
X77017307Y-127585320D01*
X77017307Y-128299605D01*
D11*
X163267857Y-125892857D02*
X163482142Y-125964285D01*
X163553571Y-126035714D01*
X163625000Y-126178571D01*
X163625000Y-126392857D01*
X163553571Y-126535714D01*
X163482142Y-126607142D01*
X163339285Y-126678571D01*
X162767857Y-126678571D01*
X162767857Y-125178571D01*
X163267857Y-125178571D01*
X163410714Y-125250000D01*
X163482142Y-125321428D01*
X163553571Y-125464285D01*
X163553571Y-125607142D01*
X163482142Y-125750000D01*
X163410714Y-125821428D01*
X163267857Y-125892857D01*
X162767857Y-125892857D01*
X164267857Y-126678571D02*
X164267857Y-125178571D01*
X164910714Y-126250000D02*
X165625000Y-126250000D01*
X164767857Y-126678571D02*
X165267857Y-125178571D01*
X165767857Y-126678571D01*
X166196428Y-126607142D02*
X166410714Y-126678571D01*
X166767857Y-126678571D01*
X166910714Y-126607142D01*
X166982142Y-126535714D01*
X167053571Y-126392857D01*
X167053571Y-126250000D01*
X166982142Y-126107142D01*
X166910714Y-126035714D01*
X166767857Y-125964285D01*
X166482142Y-125892857D01*
X166339285Y-125821428D01*
X166267857Y-125750000D01*
X166196428Y-125607142D01*
X166196428Y-125464285D01*
X166267857Y-125321428D01*
X166339285Y-125250000D01*
X166482142Y-125178571D01*
X166839285Y-125178571D01*
X167053571Y-125250000D01*
%TO.C,RV1*%
X78398761Y-107386380D02*
X78065428Y-106910190D01*
X77827333Y-107386380D02*
X77827333Y-106386380D01*
X78208285Y-106386380D01*
X78303523Y-106434000D01*
X78351142Y-106481619D01*
X78398761Y-106576857D01*
X78398761Y-106719714D01*
X78351142Y-106814952D01*
X78303523Y-106862571D01*
X78208285Y-106910190D01*
X77827333Y-106910190D01*
X78684476Y-106386380D02*
X79017809Y-107386380D01*
X79351142Y-106386380D01*
X80208285Y-107386380D02*
X79636857Y-107386380D01*
X79922571Y-107386380D02*
X79922571Y-106386380D01*
X79827333Y-106529238D01*
X79732095Y-106624476D01*
X79636857Y-106672095D01*
%TO.C,R8*%
X130140552Y-129283956D02*
X129807219Y-128807766D01*
X129569123Y-129283956D02*
X129569123Y-128283956D01*
X129950076Y-128283956D01*
X130045314Y-128331576D01*
X130092933Y-128379195D01*
X130140552Y-128474433D01*
X130140552Y-128617290D01*
X130092933Y-128712528D01*
X130045314Y-128760147D01*
X129950076Y-128807766D01*
X129569123Y-128807766D01*
X130711980Y-128712528D02*
X130616742Y-128664909D01*
X130569123Y-128617290D01*
X130521504Y-128522052D01*
X130521504Y-128474433D01*
X130569123Y-128379195D01*
X130616742Y-128331576D01*
X130711980Y-128283956D01*
X130902457Y-128283956D01*
X130997695Y-128331576D01*
X131045314Y-128379195D01*
X131092933Y-128474433D01*
X131092933Y-128522052D01*
X131045314Y-128617290D01*
X130997695Y-128664909D01*
X130902457Y-128712528D01*
X130711980Y-128712528D01*
X130616742Y-128760147D01*
X130569123Y-128807766D01*
X130521504Y-128903004D01*
X130521504Y-129093480D01*
X130569123Y-129188718D01*
X130616742Y-129236337D01*
X130711980Y-129283956D01*
X130902457Y-129283956D01*
X130997695Y-129236337D01*
X131045314Y-129188718D01*
X131092933Y-129093480D01*
X131092933Y-128903004D01*
X131045314Y-128807766D01*
X130997695Y-128760147D01*
X130902457Y-128712528D01*
%TO.C,D5*%
X173874599Y-133045706D02*
X172874599Y-133045706D01*
X172874599Y-132807611D01*
X172922219Y-132664753D01*
X173017457Y-132569515D01*
X173112695Y-132521896D01*
X173303171Y-132474277D01*
X173446028Y-132474277D01*
X173636504Y-132521896D01*
X173731742Y-132569515D01*
X173826980Y-132664753D01*
X173874599Y-132807611D01*
X173874599Y-133045706D01*
X172874599Y-131569515D02*
X172874599Y-132045706D01*
X173350790Y-132093325D01*
X173303171Y-132045706D01*
X173255552Y-131950468D01*
X173255552Y-131712372D01*
X173303171Y-131617134D01*
X173350790Y-131569515D01*
X173446028Y-131521896D01*
X173684123Y-131521896D01*
X173779361Y-131569515D01*
X173826980Y-131617134D01*
X173874599Y-131712372D01*
X173874599Y-131950468D01*
X173826980Y-132045706D01*
X173779361Y-132093325D01*
%TO.C,R15*%
X103744361Y-138957699D02*
X103411028Y-138481509D01*
X103172933Y-138957699D02*
X103172933Y-137957699D01*
X103553885Y-137957699D01*
X103649123Y-138005319D01*
X103696742Y-138052938D01*
X103744361Y-138148176D01*
X103744361Y-138291033D01*
X103696742Y-138386271D01*
X103649123Y-138433890D01*
X103553885Y-138481509D01*
X103172933Y-138481509D01*
X104696742Y-138957699D02*
X104125314Y-138957699D01*
X104411028Y-138957699D02*
X104411028Y-137957699D01*
X104315790Y-138100557D01*
X104220552Y-138195795D01*
X104125314Y-138243414D01*
X105601504Y-137957699D02*
X105125314Y-137957699D01*
X105077695Y-138433890D01*
X105125314Y-138386271D01*
X105220552Y-138338652D01*
X105458647Y-138338652D01*
X105553885Y-138386271D01*
X105601504Y-138433890D01*
X105649123Y-138529128D01*
X105649123Y-138767223D01*
X105601504Y-138862461D01*
X105553885Y-138910080D01*
X105458647Y-138957699D01*
X105220552Y-138957699D01*
X105125314Y-138910080D01*
X105077695Y-138862461D01*
%TO.C,R6*%
X133977380Y-113991666D02*
X133501190Y-114325000D01*
X133977380Y-114563095D02*
X132977380Y-114563095D01*
X132977380Y-114182142D01*
X133025000Y-114086904D01*
X133072619Y-114039285D01*
X133167857Y-113991666D01*
X133310714Y-113991666D01*
X133405952Y-114039285D01*
X133453571Y-114086904D01*
X133501190Y-114182142D01*
X133501190Y-114563095D01*
X132977380Y-113134523D02*
X132977380Y-113325000D01*
X133025000Y-113420238D01*
X133072619Y-113467857D01*
X133215476Y-113563095D01*
X133405952Y-113610714D01*
X133786904Y-113610714D01*
X133882142Y-113563095D01*
X133929761Y-113515476D01*
X133977380Y-113420238D01*
X133977380Y-113229761D01*
X133929761Y-113134523D01*
X133882142Y-113086904D01*
X133786904Y-113039285D01*
X133548809Y-113039285D01*
X133453571Y-113086904D01*
X133405952Y-113134523D01*
X133358333Y-113229761D01*
X133358333Y-113420238D01*
X133405952Y-113515476D01*
X133453571Y-113563095D01*
X133548809Y-113610714D01*
%TO.C,R16*%
X65984380Y-119282857D02*
X65508190Y-119616190D01*
X65984380Y-119854285D02*
X64984380Y-119854285D01*
X64984380Y-119473333D01*
X65032000Y-119378095D01*
X65079619Y-119330476D01*
X65174857Y-119282857D01*
X65317714Y-119282857D01*
X65412952Y-119330476D01*
X65460571Y-119378095D01*
X65508190Y-119473333D01*
X65508190Y-119854285D01*
X65984380Y-118330476D02*
X65984380Y-118901904D01*
X65984380Y-118616190D02*
X64984380Y-118616190D01*
X65127238Y-118711428D01*
X65222476Y-118806666D01*
X65270095Y-118901904D01*
X64984380Y-117473333D02*
X64984380Y-117663809D01*
X65032000Y-117759047D01*
X65079619Y-117806666D01*
X65222476Y-117901904D01*
X65412952Y-117949523D01*
X65793904Y-117949523D01*
X65889142Y-117901904D01*
X65936761Y-117854285D01*
X65984380Y-117759047D01*
X65984380Y-117568571D01*
X65936761Y-117473333D01*
X65889142Y-117425714D01*
X65793904Y-117378095D01*
X65555809Y-117378095D01*
X65460571Y-117425714D01*
X65412952Y-117473333D01*
X65365333Y-117568571D01*
X65365333Y-117759047D01*
X65412952Y-117854285D01*
X65460571Y-117901904D01*
X65555809Y-117949523D01*
%TO.C, *%
%TO.C,C2*%
X143030552Y-136614753D02*
X142982933Y-136662372D01*
X142840076Y-136709991D01*
X142744838Y-136709991D01*
X142601980Y-136662372D01*
X142506742Y-136567134D01*
X142459123Y-136471896D01*
X142411504Y-136281420D01*
X142411504Y-136138563D01*
X142459123Y-135948087D01*
X142506742Y-135852849D01*
X142601980Y-135757611D01*
X142744838Y-135709991D01*
X142840076Y-135709991D01*
X142982933Y-135757611D01*
X143030552Y-135805230D01*
X143411504Y-135805230D02*
X143459123Y-135757611D01*
X143554361Y-135709991D01*
X143792457Y-135709991D01*
X143887695Y-135757611D01*
X143935314Y-135805230D01*
X143982933Y-135900468D01*
X143982933Y-135995706D01*
X143935314Y-136138563D01*
X143363885Y-136709991D01*
X143982933Y-136709991D01*
%TO.C,R13*%
X128944396Y-114472857D02*
X128468206Y-114806190D01*
X128944396Y-115044285D02*
X127944396Y-115044285D01*
X127944396Y-114663333D01*
X127992016Y-114568095D01*
X128039635Y-114520476D01*
X128134873Y-114472857D01*
X128277730Y-114472857D01*
X128372968Y-114520476D01*
X128420587Y-114568095D01*
X128468206Y-114663333D01*
X128468206Y-115044285D01*
X128944396Y-113520476D02*
X128944396Y-114091904D01*
X128944396Y-113806190D02*
X127944396Y-113806190D01*
X128087254Y-113901428D01*
X128182492Y-113996666D01*
X128230111Y-114091904D01*
X127944396Y-113187142D02*
X127944396Y-112568095D01*
X128325349Y-112901428D01*
X128325349Y-112758571D01*
X128372968Y-112663333D01*
X128420587Y-112615714D01*
X128515825Y-112568095D01*
X128753920Y-112568095D01*
X128849158Y-112615714D01*
X128896777Y-112663333D01*
X128944396Y-112758571D01*
X128944396Y-113044285D01*
X128896777Y-113139523D01*
X128849158Y-113187142D01*
%TO.C,Q9*%
X212617619Y-113130527D02*
X212570000Y-113225765D01*
X212474761Y-113321003D01*
X212331904Y-113463860D01*
X212284285Y-113559098D01*
X212284285Y-113654336D01*
X212522380Y-113606717D02*
X212474761Y-113701955D01*
X212379523Y-113797193D01*
X212189047Y-113844812D01*
X211855714Y-113844812D01*
X211665238Y-113797193D01*
X211570000Y-113701955D01*
X211522380Y-113606717D01*
X211522380Y-113416241D01*
X211570000Y-113321003D01*
X211665238Y-113225765D01*
X211855714Y-113178146D01*
X212189047Y-113178146D01*
X212379523Y-113225765D01*
X212474761Y-113321003D01*
X212522380Y-113416241D01*
X212522380Y-113606717D01*
X212522380Y-112701955D02*
X212522380Y-112511479D01*
X212474761Y-112416241D01*
X212427142Y-112368622D01*
X212284285Y-112273384D01*
X212093809Y-112225765D01*
X211712857Y-112225765D01*
X211617619Y-112273384D01*
X211570000Y-112321003D01*
X211522380Y-112416241D01*
X211522380Y-112606717D01*
X211570000Y-112701955D01*
X211617619Y-112749574D01*
X211712857Y-112797193D01*
X211950952Y-112797193D01*
X212046190Y-112749574D01*
X212093809Y-112701955D01*
X212141428Y-112606717D01*
X212141428Y-112416241D01*
X212093809Y-112321003D01*
X212046190Y-112273384D01*
X211950952Y-112225765D01*
%TO.C,R11*%
X129757828Y-114467857D02*
X129281638Y-114801190D01*
X129757828Y-115039285D02*
X128757828Y-115039285D01*
X128757828Y-114658333D01*
X128805448Y-114563095D01*
X128853067Y-114515476D01*
X128948305Y-114467857D01*
X129091162Y-114467857D01*
X129186400Y-114515476D01*
X129234019Y-114563095D01*
X129281638Y-114658333D01*
X129281638Y-115039285D01*
X129757828Y-113515476D02*
X129757828Y-114086904D01*
X129757828Y-113801190D02*
X128757828Y-113801190D01*
X128900686Y-113896428D01*
X128995924Y-113991666D01*
X129043543Y-114086904D01*
X129757828Y-112563095D02*
X129757828Y-113134523D01*
X129757828Y-112848809D02*
X128757828Y-112848809D01*
X128900686Y-112944047D01*
X128995924Y-113039285D01*
X129043543Y-113134523D01*
%TO.C,Q7*%
X107386980Y-129830230D02*
X107291742Y-129782611D01*
X107196504Y-129687372D01*
X107053647Y-129544515D01*
X106958409Y-129496896D01*
X106863171Y-129496896D01*
X106910790Y-129734991D02*
X106815552Y-129687372D01*
X106720314Y-129592134D01*
X106672695Y-129401658D01*
X106672695Y-129068325D01*
X106720314Y-128877849D01*
X106815552Y-128782611D01*
X106910790Y-128734991D01*
X107101266Y-128734991D01*
X107196504Y-128782611D01*
X107291742Y-128877849D01*
X107339361Y-129068325D01*
X107339361Y-129401658D01*
X107291742Y-129592134D01*
X107196504Y-129687372D01*
X107101266Y-129734991D01*
X106910790Y-129734991D01*
X107672695Y-128734991D02*
X108339361Y-128734991D01*
X107910790Y-129734991D01*
%TO.C,Q6*%
X101196980Y-129830230D02*
X101101742Y-129782611D01*
X101006504Y-129687372D01*
X100863647Y-129544515D01*
X100768409Y-129496896D01*
X100673171Y-129496896D01*
X100720790Y-129734991D02*
X100625552Y-129687372D01*
X100530314Y-129592134D01*
X100482695Y-129401658D01*
X100482695Y-129068325D01*
X100530314Y-128877849D01*
X100625552Y-128782611D01*
X100720790Y-128734991D01*
X100911266Y-128734991D01*
X101006504Y-128782611D01*
X101101742Y-128877849D01*
X101149361Y-129068325D01*
X101149361Y-129401658D01*
X101101742Y-129592134D01*
X101006504Y-129687372D01*
X100911266Y-129734991D01*
X100720790Y-129734991D01*
X102006504Y-128734991D02*
X101816028Y-128734991D01*
X101720790Y-128782611D01*
X101673171Y-128830230D01*
X101577933Y-128973087D01*
X101530314Y-129163563D01*
X101530314Y-129544515D01*
X101577933Y-129639753D01*
X101625552Y-129687372D01*
X101720790Y-129734991D01*
X101911266Y-129734991D01*
X102006504Y-129687372D01*
X102054123Y-129639753D01*
X102101742Y-129544515D01*
X102101742Y-129306420D01*
X102054123Y-129211182D01*
X102006504Y-129163563D01*
X101911266Y-129115944D01*
X101720790Y-129115944D01*
X101625552Y-129163563D01*
X101577933Y-129211182D01*
X101530314Y-129306420D01*
%TO.C,Q2*%
X107704761Y-105597619D02*
X107609523Y-105550000D01*
X107514285Y-105454761D01*
X107371428Y-105311904D01*
X107276190Y-105264285D01*
X107180952Y-105264285D01*
X107228571Y-105502380D02*
X107133333Y-105454761D01*
X107038095Y-105359523D01*
X106990476Y-105169047D01*
X106990476Y-104835714D01*
X107038095Y-104645238D01*
X107133333Y-104550000D01*
X107228571Y-104502380D01*
X107419047Y-104502380D01*
X107514285Y-104550000D01*
X107609523Y-104645238D01*
X107657142Y-104835714D01*
X107657142Y-105169047D01*
X107609523Y-105359523D01*
X107514285Y-105454761D01*
X107419047Y-105502380D01*
X107228571Y-105502380D01*
X108038095Y-104597619D02*
X108085714Y-104550000D01*
X108180952Y-104502380D01*
X108419047Y-104502380D01*
X108514285Y-104550000D01*
X108561904Y-104597619D01*
X108609523Y-104692857D01*
X108609523Y-104788095D01*
X108561904Y-104930952D01*
X107990476Y-105502380D01*
X108609523Y-105502380D01*
%TO.C,Q8*%
X49390619Y-112992527D02*
X49343000Y-113087765D01*
X49247761Y-113183003D01*
X49104904Y-113325860D01*
X49057285Y-113421098D01*
X49057285Y-113516336D01*
X49295380Y-113468717D02*
X49247761Y-113563955D01*
X49152523Y-113659193D01*
X48962047Y-113706812D01*
X48628714Y-113706812D01*
X48438238Y-113659193D01*
X48343000Y-113563955D01*
X48295380Y-113468717D01*
X48295380Y-113278241D01*
X48343000Y-113183003D01*
X48438238Y-113087765D01*
X48628714Y-113040146D01*
X48962047Y-113040146D01*
X49152523Y-113087765D01*
X49247761Y-113183003D01*
X49295380Y-113278241D01*
X49295380Y-113468717D01*
X48723952Y-112468717D02*
X48676333Y-112563955D01*
X48628714Y-112611574D01*
X48533476Y-112659193D01*
X48485857Y-112659193D01*
X48390619Y-112611574D01*
X48343000Y-112563955D01*
X48295380Y-112468717D01*
X48295380Y-112278241D01*
X48343000Y-112183003D01*
X48390619Y-112135384D01*
X48485857Y-112087765D01*
X48533476Y-112087765D01*
X48628714Y-112135384D01*
X48676333Y-112183003D01*
X48723952Y-112278241D01*
X48723952Y-112468717D01*
X48771571Y-112563955D01*
X48819190Y-112611574D01*
X48914428Y-112659193D01*
X49104904Y-112659193D01*
X49200142Y-112611574D01*
X49247761Y-112563955D01*
X49295380Y-112468717D01*
X49295380Y-112278241D01*
X49247761Y-112183003D01*
X49200142Y-112135384D01*
X49104904Y-112087765D01*
X48914428Y-112087765D01*
X48819190Y-112135384D01*
X48771571Y-112183003D01*
X48723952Y-112278241D01*
D12*
%TO.C,TP1*%
X95255114Y-139402380D02*
X95826542Y-139402380D01*
X95540828Y-140402380D02*
X95540828Y-139402380D01*
X96159876Y-140402380D02*
X96159876Y-139402380D01*
X96540828Y-139402380D01*
X96636066Y-139450000D01*
X96683685Y-139497619D01*
X96731304Y-139592857D01*
X96731304Y-139735714D01*
X96683685Y-139830952D01*
X96636066Y-139878571D01*
X96540828Y-139926190D01*
X96159876Y-139926190D01*
X97683685Y-140402380D02*
X97112257Y-140402380D01*
X97397971Y-140402380D02*
X97397971Y-139402380D01*
X97302733Y-139545238D01*
X97207495Y-139640476D01*
X97112257Y-139688095D01*
D11*
%TO.C,R4*%
X158177604Y-113991666D02*
X157701414Y-114325000D01*
X158177604Y-114563095D02*
X157177604Y-114563095D01*
X157177604Y-114182142D01*
X157225224Y-114086904D01*
X157272843Y-114039285D01*
X157368081Y-113991666D01*
X157510938Y-113991666D01*
X157606176Y-114039285D01*
X157653795Y-114086904D01*
X157701414Y-114182142D01*
X157701414Y-114563095D01*
X157510938Y-113134523D02*
X158177604Y-113134523D01*
X157129985Y-113372619D02*
X157844271Y-113610714D01*
X157844271Y-112991666D01*
%TO.C,D2*%
X146327380Y-114563095D02*
X145327380Y-114563095D01*
X145327380Y-114325000D01*
X145375000Y-114182142D01*
X145470238Y-114086904D01*
X145565476Y-114039285D01*
X145755952Y-113991666D01*
X145898809Y-113991666D01*
X146089285Y-114039285D01*
X146184523Y-114086904D01*
X146279761Y-114182142D01*
X146327380Y-114325000D01*
X146327380Y-114563095D01*
X145422619Y-113610714D02*
X145375000Y-113563095D01*
X145327380Y-113467857D01*
X145327380Y-113229761D01*
X145375000Y-113134523D01*
X145422619Y-113086904D01*
X145517857Y-113039285D01*
X145613095Y-113039285D01*
X145755952Y-113086904D01*
X146327380Y-113658333D01*
X146327380Y-113039285D01*
%TO.C,C3*%
X155997919Y-132474277D02*
X156045538Y-132521896D01*
X156093157Y-132664753D01*
X156093157Y-132759991D01*
X156045538Y-132902849D01*
X155950300Y-132998087D01*
X155855062Y-133045706D01*
X155664586Y-133093325D01*
X155521729Y-133093325D01*
X155331253Y-133045706D01*
X155236015Y-132998087D01*
X155140777Y-132902849D01*
X155093157Y-132759991D01*
X155093157Y-132664753D01*
X155140777Y-132521896D01*
X155188396Y-132474277D01*
X155093157Y-132140944D02*
X155093157Y-131521896D01*
X155474110Y-131855230D01*
X155474110Y-131712372D01*
X155521729Y-131617134D01*
X155569348Y-131569515D01*
X155664586Y-131521896D01*
X155902681Y-131521896D01*
X155997919Y-131569515D01*
X156045538Y-131617134D01*
X156093157Y-131712372D01*
X156093157Y-131998087D01*
X156045538Y-132093325D01*
X155997919Y-132140944D01*
%TO.C,C1*%
X92208333Y-118107142D02*
X92160714Y-118154761D01*
X92017857Y-118202380D01*
X91922619Y-118202380D01*
X91779761Y-118154761D01*
X91684523Y-118059523D01*
X91636904Y-117964285D01*
X91589285Y-117773809D01*
X91589285Y-117630952D01*
X91636904Y-117440476D01*
X91684523Y-117345238D01*
X91779761Y-117250000D01*
X91922619Y-117202380D01*
X92017857Y-117202380D01*
X92160714Y-117250000D01*
X92208333Y-117297619D01*
X93160714Y-118202380D02*
X92589285Y-118202380D01*
X92875000Y-118202380D02*
X92875000Y-117202380D01*
X92779761Y-117345238D01*
X92684523Y-117440476D01*
X92589285Y-117488095D01*
%TO.C,Q11*%
X202370037Y-113940158D02*
X202277303Y-113992486D01*
X202145091Y-114018185D01*
X201946772Y-114056734D01*
X201854038Y-114109062D01*
X201800781Y-114188018D01*
X202024799Y-114281681D02*
X201932065Y-114334009D01*
X201799852Y-114359708D01*
X201615312Y-114292674D01*
X201338966Y-114106276D01*
X201207683Y-113960285D01*
X201181983Y-113828073D01*
X201195762Y-113722488D01*
X201302275Y-113564576D01*
X201395009Y-113512249D01*
X201527221Y-113486549D01*
X201711762Y-113553584D01*
X201988107Y-113739982D01*
X202119391Y-113885973D01*
X202145091Y-114018185D01*
X202131312Y-114123769D01*
X202024799Y-114281681D01*
X202797018Y-113136820D02*
X202477479Y-113610556D01*
X202637249Y-113373688D02*
X201808211Y-112814495D01*
X201873388Y-112973335D01*
X201899088Y-113105548D01*
X201885309Y-113211132D01*
X203329583Y-112347260D02*
X203010044Y-112820996D01*
X203169813Y-112584128D02*
X202340776Y-112024935D01*
X202405953Y-112183776D01*
X202431653Y-112315988D01*
X202417874Y-112421573D01*
D12*
%TO.C,TP2*%
X99336037Y-139402380D02*
X99907465Y-139402380D01*
X99621751Y-140402380D02*
X99621751Y-139402380D01*
X100240799Y-140402380D02*
X100240799Y-139402380D01*
X100621751Y-139402380D01*
X100716989Y-139450000D01*
X100764608Y-139497619D01*
X100812227Y-139592857D01*
X100812227Y-139735714D01*
X100764608Y-139830952D01*
X100716989Y-139878571D01*
X100621751Y-139926190D01*
X100240799Y-139926190D01*
X101193180Y-139497619D02*
X101240799Y-139450000D01*
X101336037Y-139402380D01*
X101574132Y-139402380D01*
X101669370Y-139450000D01*
X101716989Y-139497619D01*
X101764608Y-139592857D01*
X101764608Y-139688095D01*
X101716989Y-139830952D01*
X101145561Y-140402380D01*
X101764608Y-140402380D01*
D11*
%TO.C,D3*%
X160524599Y-133045706D02*
X159524599Y-133045706D01*
X159524599Y-132807611D01*
X159572219Y-132664753D01*
X159667457Y-132569515D01*
X159762695Y-132521896D01*
X159953171Y-132474277D01*
X160096028Y-132474277D01*
X160286504Y-132521896D01*
X160381742Y-132569515D01*
X160476980Y-132664753D01*
X160524599Y-132807611D01*
X160524599Y-133045706D01*
X159524599Y-132140944D02*
X159524599Y-131521896D01*
X159905552Y-131855230D01*
X159905552Y-131712372D01*
X159953171Y-131617134D01*
X160000790Y-131569515D01*
X160096028Y-131521896D01*
X160334123Y-131521896D01*
X160429361Y-131569515D01*
X160476980Y-131617134D01*
X160524599Y-131712372D01*
X160524599Y-131998087D01*
X160476980Y-132093325D01*
X160429361Y-132140944D01*
%TO.C,RV2*%
X167110761Y-132902849D02*
X166634571Y-133236182D01*
X167110761Y-133474277D02*
X166110761Y-133474277D01*
X166110761Y-133093325D01*
X166158381Y-132998087D01*
X166206000Y-132950468D01*
X166301238Y-132902849D01*
X166444095Y-132902849D01*
X166539333Y-132950468D01*
X166586952Y-132998087D01*
X166634571Y-133093325D01*
X166634571Y-133474277D01*
X166110761Y-132617134D02*
X167110761Y-132283801D01*
X166110761Y-131950468D01*
X166206000Y-131664753D02*
X166158381Y-131617134D01*
X166110761Y-131521896D01*
X166110761Y-131283801D01*
X166158381Y-131188563D01*
X166206000Y-131140944D01*
X166301238Y-131093325D01*
X166396476Y-131093325D01*
X166539333Y-131140944D01*
X167110761Y-131712372D01*
X167110761Y-131093325D01*
%TO.C,C7*%
X178333333Y-113357142D02*
X178285714Y-113404761D01*
X178142857Y-113452380D01*
X178047619Y-113452380D01*
X177904761Y-113404761D01*
X177809523Y-113309523D01*
X177761904Y-113214285D01*
X177714285Y-113023809D01*
X177714285Y-112880952D01*
X177761904Y-112690476D01*
X177809523Y-112595238D01*
X177904761Y-112500000D01*
X178047619Y-112452380D01*
X178142857Y-112452380D01*
X178285714Y-112500000D01*
X178333333Y-112547619D01*
X178666666Y-112452380D02*
X179333333Y-112452380D01*
X178904761Y-113452380D01*
%TO.C,D4*%
X177369599Y-133045706D02*
X176369599Y-133045706D01*
X176369599Y-132807611D01*
X176417219Y-132664753D01*
X176512457Y-132569515D01*
X176607695Y-132521896D01*
X176798171Y-132474277D01*
X176941028Y-132474277D01*
X177131504Y-132521896D01*
X177226742Y-132569515D01*
X177321980Y-132664753D01*
X177369599Y-132807611D01*
X177369599Y-133045706D01*
X176702933Y-131617134D02*
X177369599Y-131617134D01*
X176321980Y-131855230D02*
X177036266Y-132093325D01*
X177036266Y-131474277D01*
%TO.C,Q1*%
X107779291Y-110572619D02*
X107684053Y-110525000D01*
X107588815Y-110429761D01*
X107445958Y-110286904D01*
X107350720Y-110239285D01*
X107255482Y-110239285D01*
X107303101Y-110477380D02*
X107207863Y-110429761D01*
X107112625Y-110334523D01*
X107065006Y-110144047D01*
X107065006Y-109810714D01*
X107112625Y-109620238D01*
X107207863Y-109525000D01*
X107303101Y-109477380D01*
X107493577Y-109477380D01*
X107588815Y-109525000D01*
X107684053Y-109620238D01*
X107731672Y-109810714D01*
X107731672Y-110144047D01*
X107684053Y-110334523D01*
X107588815Y-110429761D01*
X107493577Y-110477380D01*
X107303101Y-110477380D01*
X108684053Y-110477380D02*
X108112625Y-110477380D01*
X108398339Y-110477380D02*
X108398339Y-109477380D01*
X108303101Y-109620238D01*
X108207863Y-109715476D01*
X108112625Y-109763095D01*
%TO.C,C6*%
X112983333Y-113432142D02*
X112935714Y-113479761D01*
X112792857Y-113527380D01*
X112697619Y-113527380D01*
X112554761Y-113479761D01*
X112459523Y-113384523D01*
X112411904Y-113289285D01*
X112364285Y-113098809D01*
X112364285Y-112955952D01*
X112411904Y-112765476D01*
X112459523Y-112670238D01*
X112554761Y-112575000D01*
X112697619Y-112527380D01*
X112792857Y-112527380D01*
X112935714Y-112575000D01*
X112983333Y-112622619D01*
X113840476Y-112527380D02*
X113650000Y-112527380D01*
X113554761Y-112575000D01*
X113507142Y-112622619D01*
X113411904Y-112765476D01*
X113364285Y-112955952D01*
X113364285Y-113336904D01*
X113411904Y-113432142D01*
X113459523Y-113479761D01*
X113554761Y-113527380D01*
X113745238Y-113527380D01*
X113840476Y-113479761D01*
X113888095Y-113432142D01*
X113935714Y-113336904D01*
X113935714Y-113098809D01*
X113888095Y-113003571D01*
X113840476Y-112955952D01*
X113745238Y-112908333D01*
X113554761Y-112908333D01*
X113459523Y-112955952D01*
X113411904Y-113003571D01*
X113364285Y-113098809D01*
%TO.C,Q4*%
X149862799Y-132377849D02*
X149815180Y-132473087D01*
X149719941Y-132568325D01*
X149577084Y-132711182D01*
X149529465Y-132806420D01*
X149529465Y-132901658D01*
X149767560Y-132854039D02*
X149719941Y-132949277D01*
X149624703Y-133044515D01*
X149434227Y-133092134D01*
X149100894Y-133092134D01*
X148910418Y-133044515D01*
X148815180Y-132949277D01*
X148767560Y-132854039D01*
X148767560Y-132663563D01*
X148815180Y-132568325D01*
X148910418Y-132473087D01*
X149100894Y-132425468D01*
X149434227Y-132425468D01*
X149624703Y-132473087D01*
X149719941Y-132568325D01*
X149767560Y-132663563D01*
X149767560Y-132854039D01*
X149100894Y-131568325D02*
X149767560Y-131568325D01*
X148719941Y-131806420D02*
X149434227Y-132044515D01*
X149434227Y-131425468D01*
%TO.C,D6*%
X170399599Y-133045706D02*
X169399599Y-133045706D01*
X169399599Y-132807611D01*
X169447219Y-132664753D01*
X169542457Y-132569515D01*
X169637695Y-132521896D01*
X169828171Y-132474277D01*
X169971028Y-132474277D01*
X170161504Y-132521896D01*
X170256742Y-132569515D01*
X170351980Y-132664753D01*
X170399599Y-132807611D01*
X170399599Y-133045706D01*
X169399599Y-131617134D02*
X169399599Y-131807611D01*
X169447219Y-131902849D01*
X169494838Y-131950468D01*
X169637695Y-132045706D01*
X169828171Y-132093325D01*
X170209123Y-132093325D01*
X170304361Y-132045706D01*
X170351980Y-131998087D01*
X170399599Y-131902849D01*
X170399599Y-131712372D01*
X170351980Y-131617134D01*
X170304361Y-131569515D01*
X170209123Y-131521896D01*
X169971028Y-131521896D01*
X169875790Y-131569515D01*
X169828171Y-131617134D01*
X169780552Y-131712372D01*
X169780552Y-131902849D01*
X169828171Y-131998087D01*
X169875790Y-132045706D01*
X169971028Y-132093325D01*
%TO.C, *%
%TO.C,Q5*%
X181726980Y-131861039D02*
X181631742Y-131813420D01*
X181536504Y-131718181D01*
X181393647Y-131575324D01*
X181298409Y-131527705D01*
X181203171Y-131527705D01*
X181250790Y-131765800D02*
X181155552Y-131718181D01*
X181060314Y-131622943D01*
X181012695Y-131432467D01*
X181012695Y-131099134D01*
X181060314Y-130908658D01*
X181155552Y-130813420D01*
X181250790Y-130765800D01*
X181441266Y-130765800D01*
X181536504Y-130813420D01*
X181631742Y-130908658D01*
X181679361Y-131099134D01*
X181679361Y-131432467D01*
X181631742Y-131622943D01*
X181536504Y-131718181D01*
X181441266Y-131765800D01*
X181250790Y-131765800D01*
X182584123Y-130765800D02*
X182107933Y-130765800D01*
X182060314Y-131241991D01*
X182107933Y-131194372D01*
X182203171Y-131146753D01*
X182441266Y-131146753D01*
X182536504Y-131194372D01*
X182584123Y-131241991D01*
X182631742Y-131337229D01*
X182631742Y-131575324D01*
X182584123Y-131670562D01*
X182536504Y-131718181D01*
X182441266Y-131765800D01*
X182203171Y-131765800D01*
X182107933Y-131718181D01*
X182060314Y-131670562D01*
%TO.C,R9*%
X130130552Y-132734991D02*
X129797219Y-132258801D01*
X129559123Y-132734991D02*
X129559123Y-131734991D01*
X129940076Y-131734991D01*
X130035314Y-131782611D01*
X130082933Y-131830230D01*
X130130552Y-131925468D01*
X130130552Y-132068325D01*
X130082933Y-132163563D01*
X130035314Y-132211182D01*
X129940076Y-132258801D01*
X129559123Y-132258801D01*
X130606742Y-132734991D02*
X130797219Y-132734991D01*
X130892457Y-132687372D01*
X130940076Y-132639753D01*
X131035314Y-132496896D01*
X131082933Y-132306420D01*
X131082933Y-131925468D01*
X131035314Y-131830230D01*
X130987695Y-131782611D01*
X130892457Y-131734991D01*
X130701980Y-131734991D01*
X130606742Y-131782611D01*
X130559123Y-131830230D01*
X130511504Y-131925468D01*
X130511504Y-132163563D01*
X130559123Y-132258801D01*
X130606742Y-132306420D01*
X130701980Y-132354039D01*
X130892457Y-132354039D01*
X130987695Y-132306420D01*
X131035314Y-132258801D01*
X131082933Y-132163563D01*
%TO.C,Q3*%
X107779291Y-118277420D02*
X107684053Y-118229801D01*
X107588815Y-118134562D01*
X107445958Y-117991705D01*
X107350720Y-117944086D01*
X107255482Y-117944086D01*
X107303101Y-118182181D02*
X107207863Y-118134562D01*
X107112625Y-118039324D01*
X107065006Y-117848848D01*
X107065006Y-117515515D01*
X107112625Y-117325039D01*
X107207863Y-117229801D01*
X107303101Y-117182181D01*
X107493577Y-117182181D01*
X107588815Y-117229801D01*
X107684053Y-117325039D01*
X107731672Y-117515515D01*
X107731672Y-117848848D01*
X107684053Y-118039324D01*
X107588815Y-118134562D01*
X107493577Y-118182181D01*
X107303101Y-118182181D01*
X108065006Y-117182181D02*
X108684053Y-117182181D01*
X108350720Y-117563134D01*
X108493577Y-117563134D01*
X108588815Y-117610753D01*
X108636434Y-117658372D01*
X108684053Y-117753610D01*
X108684053Y-117991705D01*
X108636434Y-118086943D01*
X108588815Y-118134562D01*
X108493577Y-118182181D01*
X108207863Y-118182181D01*
X108112625Y-118134562D01*
X108065006Y-118086943D01*
%TO.C,R1*%
X84152380Y-113991666D02*
X83676190Y-114325000D01*
X84152380Y-114563095D02*
X83152380Y-114563095D01*
X83152380Y-114182142D01*
X83200000Y-114086904D01*
X83247619Y-114039285D01*
X83342857Y-113991666D01*
X83485714Y-113991666D01*
X83580952Y-114039285D01*
X83628571Y-114086904D01*
X83676190Y-114182142D01*
X83676190Y-114563095D01*
X84152380Y-113039285D02*
X84152380Y-113610714D01*
X84152380Y-113325000D02*
X83152380Y-113325000D01*
X83295238Y-113420238D01*
X83390476Y-113515476D01*
X83438095Y-113610714D01*
%TO.C,R5*%
X138177604Y-113991666D02*
X137701414Y-114325000D01*
X138177604Y-114563095D02*
X137177604Y-114563095D01*
X137177604Y-114182142D01*
X137225224Y-114086904D01*
X137272843Y-114039285D01*
X137368081Y-113991666D01*
X137510938Y-113991666D01*
X137606176Y-114039285D01*
X137653795Y-114086904D01*
X137701414Y-114182142D01*
X137701414Y-114563095D01*
X137177604Y-113086904D02*
X137177604Y-113563095D01*
X137653795Y-113610714D01*
X137606176Y-113563095D01*
X137558557Y-113467857D01*
X137558557Y-113229761D01*
X137606176Y-113134523D01*
X137653795Y-113086904D01*
X137749033Y-113039285D01*
X137987128Y-113039285D01*
X138082366Y-113086904D01*
X138129985Y-113134523D01*
X138177604Y-113229761D01*
X138177604Y-113467857D01*
X138129985Y-113563095D01*
X138082366Y-113610714D01*
%TO.C,Q10*%
X58596616Y-130380429D02*
X58503882Y-130432757D01*
X58371670Y-130458456D01*
X58173351Y-130497005D01*
X58080617Y-130549333D01*
X58027360Y-130628289D01*
X58251378Y-130721952D02*
X58158644Y-130774280D01*
X58026431Y-130799979D01*
X57841891Y-130732945D01*
X57565545Y-130546547D01*
X57434262Y-130400556D01*
X57408562Y-130268344D01*
X57422341Y-130162759D01*
X57528854Y-130004847D01*
X57621588Y-129952520D01*
X57753800Y-129926820D01*
X57938341Y-129993855D01*
X58214686Y-130180253D01*
X58345970Y-130326244D01*
X58371670Y-130458456D01*
X58357891Y-130564040D01*
X58251378Y-130721952D01*
X59023597Y-129577091D02*
X58704058Y-130050827D01*
X58863828Y-129813959D02*
X58034790Y-129254766D01*
X58099967Y-129413606D01*
X58125667Y-129545819D01*
X58111888Y-129651403D01*
X58540726Y-128504684D02*
X58593983Y-128425728D01*
X58686717Y-128373401D01*
X58752824Y-128360551D01*
X58858408Y-128374329D01*
X59042948Y-128441364D01*
X59240338Y-128574505D01*
X59371621Y-128720496D01*
X59423949Y-128813231D01*
X59436799Y-128879337D01*
X59423020Y-128984921D01*
X59369764Y-129063877D01*
X59277030Y-129116205D01*
X59210923Y-129129055D01*
X59105339Y-129115276D01*
X58920799Y-129048241D01*
X58723409Y-128915100D01*
X58592125Y-128769109D01*
X58539798Y-128676375D01*
X58526948Y-128610268D01*
X58540726Y-128504684D01*
%TO.C,R17*%
X195527380Y-119342857D02*
X195051190Y-119676190D01*
X195527380Y-119914285D02*
X194527380Y-119914285D01*
X194527380Y-119533333D01*
X194575000Y-119438095D01*
X194622619Y-119390476D01*
X194717857Y-119342857D01*
X194860714Y-119342857D01*
X194955952Y-119390476D01*
X195003571Y-119438095D01*
X195051190Y-119533333D01*
X195051190Y-119914285D01*
X195527380Y-118390476D02*
X195527380Y-118961904D01*
X195527380Y-118676190D02*
X194527380Y-118676190D01*
X194670238Y-118771428D01*
X194765476Y-118866666D01*
X194813095Y-118961904D01*
X194527380Y-118057142D02*
X194527380Y-117390476D01*
X195527380Y-117819047D01*
%TO.C,R3*%
X102949880Y-114011666D02*
X102473690Y-114345000D01*
X102949880Y-114583095D02*
X101949880Y-114583095D01*
X101949880Y-114202142D01*
X101997500Y-114106904D01*
X102045119Y-114059285D01*
X102140357Y-114011666D01*
X102283214Y-114011666D01*
X102378452Y-114059285D01*
X102426071Y-114106904D01*
X102473690Y-114202142D01*
X102473690Y-114583095D01*
X101949880Y-113678333D02*
X101949880Y-113059285D01*
X102330833Y-113392619D01*
X102330833Y-113249761D01*
X102378452Y-113154523D01*
X102426071Y-113106904D01*
X102521309Y-113059285D01*
X102759404Y-113059285D01*
X102854642Y-113106904D01*
X102902261Y-113154523D01*
X102949880Y-113249761D01*
X102949880Y-113535476D01*
X102902261Y-113630714D01*
X102854642Y-113678333D01*
%TO.C,R12*%
X162377380Y-114467857D02*
X161901190Y-114801190D01*
X162377380Y-115039285D02*
X161377380Y-115039285D01*
X161377380Y-114658333D01*
X161425000Y-114563095D01*
X161472619Y-114515476D01*
X161567857Y-114467857D01*
X161710714Y-114467857D01*
X161805952Y-114515476D01*
X161853571Y-114563095D01*
X161901190Y-114658333D01*
X161901190Y-115039285D01*
X162377380Y-113515476D02*
X162377380Y-114086904D01*
X162377380Y-113801190D02*
X161377380Y-113801190D01*
X161520238Y-113896428D01*
X161615476Y-113991666D01*
X161663095Y-114086904D01*
X161472619Y-113134523D02*
X161425000Y-113086904D01*
X161377380Y-112991666D01*
X161377380Y-112753571D01*
X161425000Y-112658333D01*
X161472619Y-112610714D01*
X161567857Y-112563095D01*
X161663095Y-112563095D01*
X161805952Y-112610714D01*
X162377380Y-113182142D01*
X162377380Y-112563095D01*
%TO.C,R10*%
X129654361Y-136284991D02*
X129321028Y-135808801D01*
X129082933Y-136284991D02*
X129082933Y-135284991D01*
X129463885Y-135284991D01*
X129559123Y-135332611D01*
X129606742Y-135380230D01*
X129654361Y-135475468D01*
X129654361Y-135618325D01*
X129606742Y-135713563D01*
X129559123Y-135761182D01*
X129463885Y-135808801D01*
X129082933Y-135808801D01*
X130606742Y-136284991D02*
X130035314Y-136284991D01*
X130321028Y-136284991D02*
X130321028Y-135284991D01*
X130225790Y-135427849D01*
X130130552Y-135523087D01*
X130035314Y-135570706D01*
X131225790Y-135284991D02*
X131321028Y-135284991D01*
X131416266Y-135332611D01*
X131463885Y-135380230D01*
X131511504Y-135475468D01*
X131559123Y-135665944D01*
X131559123Y-135904039D01*
X131511504Y-136094515D01*
X131463885Y-136189753D01*
X131416266Y-136237372D01*
X131321028Y-136284991D01*
X131225790Y-136284991D01*
X131130552Y-136237372D01*
X131082933Y-136189753D01*
X131035314Y-136094515D01*
X130987695Y-135904039D01*
X130987695Y-135665944D01*
X131035314Y-135475468D01*
X131082933Y-135380230D01*
X131130552Y-135332611D01*
X131225790Y-135284991D01*
%TO.C,R14*%
X150602828Y-114472857D02*
X150126638Y-114806190D01*
X150602828Y-115044285D02*
X149602828Y-115044285D01*
X149602828Y-114663333D01*
X149650448Y-114568095D01*
X149698067Y-114520476D01*
X149793305Y-114472857D01*
X149936162Y-114472857D01*
X150031400Y-114520476D01*
X150079019Y-114568095D01*
X150126638Y-114663333D01*
X150126638Y-115044285D01*
X150602828Y-113520476D02*
X150602828Y-114091904D01*
X150602828Y-113806190D02*
X149602828Y-113806190D01*
X149745686Y-113901428D01*
X149840924Y-113996666D01*
X149888543Y-114091904D01*
X149936162Y-112663333D02*
X150602828Y-112663333D01*
X149555209Y-112901428D02*
X150269495Y-113139523D01*
X150269495Y-112520476D01*
%TO.C,C4*%
X166283333Y-113357142D02*
X166235714Y-113404761D01*
X166092857Y-113452380D01*
X165997619Y-113452380D01*
X165854761Y-113404761D01*
X165759523Y-113309523D01*
X165711904Y-113214285D01*
X165664285Y-113023809D01*
X165664285Y-112880952D01*
X165711904Y-112690476D01*
X165759523Y-112595238D01*
X165854761Y-112500000D01*
X165997619Y-112452380D01*
X166092857Y-112452380D01*
X166235714Y-112500000D01*
X166283333Y-112547619D01*
X167140476Y-112785714D02*
X167140476Y-113452380D01*
X166902380Y-112404761D02*
X166664285Y-113119047D01*
X167283333Y-113119047D01*
%TO.C,R7*%
X142377380Y-113991666D02*
X141901190Y-114325000D01*
X142377380Y-114563095D02*
X141377380Y-114563095D01*
X141377380Y-114182142D01*
X141425000Y-114086904D01*
X141472619Y-114039285D01*
X141567857Y-113991666D01*
X141710714Y-113991666D01*
X141805952Y-114039285D01*
X141853571Y-114086904D01*
X141901190Y-114182142D01*
X141901190Y-114563095D01*
X141377380Y-113658333D02*
X141377380Y-112991666D01*
X142377380Y-113420238D01*
%TO.C,D1*%
X150027380Y-114563095D02*
X149027380Y-114563095D01*
X149027380Y-114325000D01*
X149075000Y-114182142D01*
X149170238Y-114086904D01*
X149265476Y-114039285D01*
X149455952Y-113991666D01*
X149598809Y-113991666D01*
X149789285Y-114039285D01*
X149884523Y-114086904D01*
X149979761Y-114182142D01*
X150027380Y-114325000D01*
X150027380Y-114563095D01*
X150027380Y-113039285D02*
X150027380Y-113610714D01*
X150027380Y-113325000D02*
X149027380Y-113325000D01*
X149170238Y-113420238D01*
X149265476Y-113515476D01*
X149313095Y-113610714D01*
%TO.C, *%
%TO.C,C5*%
X119605552Y-136639753D02*
X119557933Y-136687372D01*
X119415076Y-136734991D01*
X119319838Y-136734991D01*
X119176980Y-136687372D01*
X119081742Y-136592134D01*
X119034123Y-136496896D01*
X118986504Y-136306420D01*
X118986504Y-136163563D01*
X119034123Y-135973087D01*
X119081742Y-135877849D01*
X119176980Y-135782611D01*
X119319838Y-135734991D01*
X119415076Y-135734991D01*
X119557933Y-135782611D01*
X119605552Y-135830230D01*
X120510314Y-135734991D02*
X120034123Y-135734991D01*
X119986504Y-136211182D01*
X120034123Y-136163563D01*
X120129361Y-136115944D01*
X120367457Y-136115944D01*
X120462695Y-136163563D01*
X120510314Y-136211182D01*
X120557933Y-136306420D01*
X120557933Y-136544515D01*
X120510314Y-136639753D01*
X120462695Y-136687372D01*
X120367457Y-136734991D01*
X120129361Y-136734991D01*
X120034123Y-136687372D01*
X119986504Y-136639753D01*
%TO.C,R2*%
X99327380Y-114011666D02*
X98851190Y-114345000D01*
X99327380Y-114583095D02*
X98327380Y-114583095D01*
X98327380Y-114202142D01*
X98375000Y-114106904D01*
X98422619Y-114059285D01*
X98517857Y-114011666D01*
X98660714Y-114011666D01*
X98755952Y-114059285D01*
X98803571Y-114106904D01*
X98851190Y-114202142D01*
X98851190Y-114583095D01*
X98422619Y-113630714D02*
X98375000Y-113583095D01*
X98327380Y-113487857D01*
X98327380Y-113249761D01*
X98375000Y-113154523D01*
X98422619Y-113106904D01*
X98517857Y-113059285D01*
X98613095Y-113059285D01*
X98755952Y-113106904D01*
X99327380Y-113678333D01*
X99327380Y-113059285D01*
D13*
%TO.C,R8*%
X127037219Y-130189802D02*
X127037219Y-129859802D01*
X133577219Y-127779802D02*
X133577219Y-127449802D01*
X133577219Y-127449802D02*
X127037219Y-127449802D01*
X133577219Y-129859802D02*
X133577219Y-130189802D01*
X127037219Y-127449802D02*
X127037219Y-127779802D01*
X133577219Y-130189802D02*
X127037219Y-130189802D01*
%TO.C,D5*%
X174549011Y-134440319D02*
X174549011Y-130200319D01*
X172309011Y-134440319D02*
X174549011Y-134440319D01*
X174549011Y-130200319D02*
X172309011Y-130200319D01*
X174549011Y-130800319D02*
X172309011Y-130800319D01*
X173429011Y-129550319D02*
X173429011Y-130200319D01*
X174549011Y-130920319D02*
X172309011Y-130920319D01*
X172309011Y-130200319D02*
X172309011Y-134440319D01*
X173429011Y-135090319D02*
X173429011Y-134440319D01*
X174549011Y-131040319D02*
X172309011Y-131040319D01*
%TO.C,R15*%
X105827219Y-135135319D02*
X102077219Y-135135319D01*
X110567219Y-135135319D02*
G75*
G03*
X110567219Y-135135319I-2370000J0D01*
G01*
%TO.C,R6*%
X134911344Y-110560000D02*
X134911344Y-117100000D01*
X132171344Y-110560000D02*
X132171344Y-117100000D01*
X132171344Y-117100000D02*
X132501344Y-117100000D01*
X134581344Y-110560000D02*
X134911344Y-110560000D01*
X134911344Y-117100000D02*
X134581344Y-117100000D01*
X132501344Y-110560000D02*
X132171344Y-110560000D01*
%TO.C,R16*%
X65575000Y-107380000D02*
X65575000Y-108520000D01*
X60955000Y-108520000D02*
X60955000Y-128760000D01*
X65575000Y-129900000D02*
X65575000Y-128760000D01*
X70195000Y-108520000D02*
X60955000Y-108520000D01*
X60955000Y-128760000D02*
X70195000Y-128760000D01*
X70195000Y-128760000D02*
X70195000Y-108520000D01*
%TO.C,C2*%
X137538685Y-134786969D02*
X137538685Y-129908969D01*
X139098685Y-136513969D02*
X139098685Y-133588969D01*
X138738685Y-136239969D02*
X138738685Y-133588969D01*
X138298685Y-135825969D02*
X138298685Y-133588969D01*
X140818685Y-137285969D02*
X140818685Y-127409969D01*
X138938685Y-129107969D02*
X138938685Y-128297969D01*
X140618685Y-131106969D02*
X140618685Y-127462969D01*
X139818685Y-136931969D02*
X139818685Y-133588969D01*
X140258685Y-137115969D02*
X140258685Y-133588969D01*
X137698685Y-135056969D02*
X137698685Y-131587969D01*
X139378685Y-129107969D02*
X139378685Y-128000969D01*
X137418685Y-134556969D02*
X137418685Y-130138969D01*
X141819685Y-137424969D02*
X141819685Y-127270969D01*
X138378685Y-129107969D02*
X138378685Y-128786969D01*
X139898685Y-136968969D02*
X139898685Y-133588969D01*
X140738685Y-131106969D02*
X140738685Y-127429969D01*
X141298685Y-137377969D02*
X141298685Y-127317969D01*
X141619685Y-137412969D02*
X141619685Y-127282969D01*
X137778685Y-135177969D02*
X137778685Y-131587969D01*
X139778685Y-129107969D02*
X139778685Y-127783969D01*
X140538685Y-131106969D02*
X140538685Y-127485969D01*
X139978685Y-137004969D02*
X139978685Y-133588969D01*
X137298685Y-134291969D02*
X137298685Y-130403969D01*
X141379685Y-137387969D02*
X141379685Y-127307969D01*
X139458685Y-129107969D02*
X139458685Y-127952969D01*
X140058685Y-129107969D02*
X140058685Y-127657969D01*
X139738685Y-136892969D02*
X139738685Y-133588969D01*
X138418685Y-135948969D02*
X138418685Y-133588969D01*
X138498685Y-136026969D02*
X138498685Y-133588969D01*
X141098685Y-137344969D02*
X141098685Y-127350969D01*
X140738685Y-137265969D02*
X140738685Y-133588969D01*
X141419685Y-137392969D02*
X141419685Y-127302969D01*
X138618685Y-129107969D02*
X138618685Y-128558969D01*
X139938685Y-136986969D02*
X139938685Y-133588969D01*
X141579685Y-137409969D02*
X141579685Y-127285969D01*
X140698685Y-137254969D02*
X140698685Y-133588969D01*
X137018685Y-133409969D02*
X137018685Y-131285969D01*
X138978685Y-136427969D02*
X138978685Y-133588969D01*
X139098685Y-129107969D02*
X139098685Y-128181969D01*
X140018685Y-137021969D02*
X140018685Y-133588969D01*
X139818685Y-129107969D02*
X139818685Y-127763969D01*
X139978685Y-129107969D02*
X139978685Y-127690969D01*
X140538685Y-137209969D02*
X140538685Y-133588969D01*
X140338685Y-131106969D02*
X140338685Y-127550969D01*
X138418685Y-129107969D02*
X138418685Y-128746969D01*
X139738685Y-129107969D02*
X139738685Y-127802969D01*
X138578685Y-129107969D02*
X138578685Y-128594969D01*
X140938685Y-137312969D02*
X140938685Y-127382969D01*
X139418685Y-129107969D02*
X139418685Y-127976969D01*
X138858685Y-129107969D02*
X138858685Y-128358969D01*
X138698685Y-129107969D02*
X138698685Y-128489969D01*
X140298685Y-137130969D02*
X140298685Y-133588969D01*
X138578685Y-136100969D02*
X138578685Y-133588969D01*
X138098685Y-135601969D02*
X138098685Y-131587969D01*
X147499331Y-135222969D02*
X146499331Y-135222969D01*
X138138685Y-135648969D02*
X138138685Y-131587969D01*
X139018685Y-129107969D02*
X139018685Y-128237969D01*
X139498685Y-129107969D02*
X139498685Y-127930969D01*
X140178685Y-137085969D02*
X140178685Y-133588969D01*
X139178685Y-136568969D02*
X139178685Y-133588969D01*
X140698685Y-131106969D02*
X140698685Y-127440969D01*
X141859685Y-137425969D02*
X141859685Y-127269969D01*
X141218685Y-137365969D02*
X141218685Y-127329969D01*
X138218685Y-129107969D02*
X138218685Y-128955969D01*
X139578685Y-136809969D02*
X139578685Y-133588969D01*
X138458685Y-135987969D02*
X138458685Y-133588969D01*
X137938685Y-135401969D02*
X137938685Y-131587969D01*
X139538685Y-136787969D02*
X139538685Y-133588969D01*
X141739685Y-137420969D02*
X141739685Y-127274969D01*
X139498685Y-136764969D02*
X139498685Y-133588969D01*
X139898685Y-129107969D02*
X139898685Y-127726969D01*
X138178685Y-129107969D02*
X138178685Y-129000969D01*
X138178685Y-135694969D02*
X138178685Y-131587969D01*
X138258685Y-135783969D02*
X138258685Y-131587969D01*
X138658685Y-136171969D02*
X138658685Y-133588969D01*
X140138685Y-131106969D02*
X140138685Y-127624969D01*
X140498685Y-137197969D02*
X140498685Y-133588969D01*
X139298685Y-136645969D02*
X139298685Y-133588969D01*
X137858685Y-135292969D02*
X137858685Y-131587969D01*
X137978685Y-135453969D02*
X137978685Y-131587969D01*
X140458685Y-131106969D02*
X140458685Y-127510969D01*
X139058685Y-129107969D02*
X139058685Y-128209969D01*
X140418685Y-137171969D02*
X140418685Y-133588969D01*
X139418685Y-136718969D02*
X139418685Y-133588969D01*
X141699685Y-137417969D02*
X141699685Y-127277969D01*
X138898685Y-136367969D02*
X138898685Y-133588969D01*
X140218685Y-131106969D02*
X140218685Y-127593969D01*
X139458685Y-136742969D02*
X139458685Y-133588969D01*
X137178685Y-133977969D02*
X137178685Y-130717969D01*
X137098685Y-133725969D02*
X137098685Y-130969969D01*
X139658685Y-129107969D02*
X139658685Y-127843969D01*
X138498685Y-129107969D02*
X138498685Y-128668969D01*
X140298685Y-131106969D02*
X140298685Y-127564969D01*
X141058685Y-137337969D02*
X141058685Y-127357969D01*
X138538685Y-129107969D02*
X138538685Y-128631969D01*
X140858685Y-137294969D02*
X140858685Y-127400969D01*
X141539685Y-137405969D02*
X141539685Y-127289969D01*
X137458685Y-134636969D02*
X137458685Y-130058969D01*
X138298685Y-129107969D02*
X138298685Y-128869969D01*
X140138685Y-137070969D02*
X140138685Y-133588969D01*
X136938685Y-132946969D02*
X136938685Y-131748969D01*
X137378685Y-134472969D02*
X137378685Y-130222969D01*
X138658685Y-129107969D02*
X138658685Y-128523969D01*
X139298685Y-129107969D02*
X139298685Y-128049969D01*
X137818685Y-135236969D02*
X137818685Y-131587969D01*
X138818685Y-136304969D02*
X138818685Y-133588969D01*
X140378685Y-137158969D02*
X140378685Y-133588969D01*
X140618685Y-137232969D02*
X140618685Y-133588969D01*
X139618685Y-129107969D02*
X139618685Y-127864969D01*
X139258685Y-136620969D02*
X139258685Y-133588969D01*
X140898685Y-137303969D02*
X140898685Y-127391969D01*
X140258685Y-131106969D02*
X140258685Y-127579969D01*
X141979685Y-137427969D02*
X141979685Y-127267969D01*
X139778685Y-136911969D02*
X139778685Y-133588969D01*
X140578685Y-137221969D02*
X140578685Y-133588969D01*
X140018685Y-129107969D02*
X140018685Y-127673969D01*
X139218685Y-129107969D02*
X139218685Y-128100969D01*
X142019685Y-137427969D02*
X142019685Y-127267969D01*
X138538685Y-136063969D02*
X138538685Y-133588969D01*
X138338685Y-129107969D02*
X138338685Y-128827969D01*
X139258685Y-129107969D02*
X139258685Y-128074969D01*
X140498685Y-131106969D02*
X140498685Y-127497969D01*
X139058685Y-136485969D02*
X139058685Y-133588969D01*
X139138685Y-129107969D02*
X139138685Y-128153969D01*
X137258685Y-134193969D02*
X137258685Y-130501969D01*
X138858685Y-136336969D02*
X138858685Y-133588969D01*
X141339685Y-137382969D02*
X141339685Y-127312969D01*
X140178685Y-131106969D02*
X140178685Y-127609969D01*
X138938685Y-136397969D02*
X138938685Y-133588969D01*
X140778685Y-137275969D02*
X140778685Y-127419969D01*
X140378685Y-131106969D02*
X140378685Y-127536969D01*
X141018685Y-137329969D02*
X141018685Y-127365969D01*
X140058685Y-137037969D02*
X140058685Y-133588969D01*
X138378685Y-135908969D02*
X138378685Y-133588969D01*
X137058685Y-133577969D02*
X137058685Y-131117969D01*
X138698685Y-136205969D02*
X138698685Y-133588969D01*
X137338685Y-134384969D02*
X137338685Y-130310969D01*
X138058685Y-135553969D02*
X138058685Y-131587969D01*
X138778685Y-136272969D02*
X138778685Y-133588969D01*
X137898685Y-135347969D02*
X137898685Y-131587969D01*
X140098685Y-137054969D02*
X140098685Y-133588969D01*
X137658685Y-134992969D02*
X137658685Y-131587969D01*
X141779685Y-137422969D02*
X141779685Y-127272969D01*
X146999331Y-135722969D02*
X146999331Y-134722969D01*
X140978685Y-137321969D02*
X140978685Y-127373969D01*
X140658685Y-131106969D02*
X140658685Y-127450969D01*
X138218685Y-135739969D02*
X138218685Y-131587969D01*
X138618685Y-136136969D02*
X138618685Y-133588969D01*
X138098685Y-129107969D02*
X138098685Y-129093969D01*
X138138685Y-129107969D02*
X138138685Y-129046969D01*
X139698685Y-136872969D02*
X139698685Y-133588969D01*
X136978685Y-133209969D02*
X136978685Y-131485969D01*
X138018685Y-135503969D02*
X138018685Y-131587969D01*
X141659685Y-137415969D02*
X141659685Y-127279969D01*
X138338685Y-135867969D02*
X138338685Y-133588969D01*
X137738685Y-135117969D02*
X137738685Y-131587969D01*
X141459685Y-137397969D02*
X141459685Y-127297969D01*
X138778685Y-129107969D02*
X138778685Y-128422969D01*
X139218685Y-136594969D02*
X139218685Y-133588969D01*
X140658685Y-137244969D02*
X140658685Y-133588969D01*
X139378685Y-136694969D02*
X139378685Y-133588969D01*
X137218685Y-134089969D02*
X137218685Y-130605969D01*
X141258685Y-137371969D02*
X141258685Y-127323969D01*
X139858685Y-129107969D02*
X139858685Y-127744969D01*
X139658685Y-136851969D02*
X139658685Y-133588969D01*
X140338685Y-137144969D02*
X140338685Y-133588969D01*
X139578685Y-129107969D02*
X139578685Y-127885969D01*
X139618685Y-136830969D02*
X139618685Y-133588969D01*
X141138685Y-137351969D02*
X141138685Y-127343969D01*
X139698685Y-129107969D02*
X139698685Y-127822969D01*
X137618685Y-134926969D02*
X137618685Y-131587969D01*
X139138685Y-136541969D02*
X139138685Y-133588969D01*
X141178685Y-137358969D02*
X141178685Y-127336969D01*
X140418685Y-131106969D02*
X140418685Y-127523969D01*
X140578685Y-131106969D02*
X140578685Y-127473969D01*
X139338685Y-129107969D02*
X139338685Y-128024969D01*
X138818685Y-129107969D02*
X138818685Y-128390969D01*
X139338685Y-136670969D02*
X139338685Y-133588969D01*
X140218685Y-137101969D02*
X140218685Y-133588969D01*
X138458685Y-129107969D02*
X138458685Y-128707969D01*
X141939685Y-137427969D02*
X141939685Y-127267969D01*
X138978685Y-129107969D02*
X138978685Y-128267969D01*
X139018685Y-136457969D02*
X139018685Y-133588969D01*
X138258685Y-129107969D02*
X138258685Y-128911969D01*
X141499685Y-137401969D02*
X141499685Y-127293969D01*
X138738685Y-129107969D02*
X138738685Y-128455969D01*
X139538685Y-129107969D02*
X139538685Y-127907969D01*
X140098685Y-131106969D02*
X140098685Y-127640969D01*
X138898685Y-129107969D02*
X138898685Y-128327969D01*
X141899685Y-137426969D02*
X141899685Y-127268969D01*
X139178685Y-129107969D02*
X139178685Y-128126969D01*
X139858685Y-136950969D02*
X139858685Y-133588969D01*
X137498685Y-134712969D02*
X137498685Y-129982969D01*
X139938685Y-129107969D02*
X139938685Y-127708969D01*
X137578685Y-134857969D02*
X137578685Y-129837969D01*
X140458685Y-137184969D02*
X140458685Y-133588969D01*
X137138685Y-133857969D02*
X137138685Y-130837969D01*
X146844588Y-134061067D02*
G75*
G03*
X145967697Y-135607969I-4824904J1713097D01*
G01*
%TO.C,R13*%
X125122016Y-112390000D02*
X125122016Y-116140000D01*
X127492016Y-110020000D02*
G75*
G03*
X127492016Y-110020000I-2370000J0D01*
G01*
%TO.C,Q9*%
X213505000Y-111410289D02*
X213505000Y-114680289D01*
X213505000Y-128380289D02*
X213505000Y-131650289D01*
X215746000Y-111410289D02*
X210505000Y-111410289D01*
X215746000Y-128380289D02*
X215746000Y-131650289D01*
X213505000Y-122930289D02*
X213505000Y-125580289D01*
X210505000Y-111410289D02*
X210505000Y-131650289D01*
X215746000Y-117480289D02*
X215746000Y-120131289D01*
X213505000Y-117480289D02*
X213505000Y-120131289D01*
X215746000Y-123180289D02*
X213505000Y-123180289D01*
X215746000Y-119880289D02*
X213505000Y-119880289D01*
X215746000Y-122930289D02*
X215746000Y-125580289D01*
X215746000Y-131650289D02*
X210505000Y-131650289D01*
X215746000Y-111410289D02*
X215746000Y-114680289D01*
%TO.C,R11*%
X130691792Y-117100000D02*
X130361792Y-117100000D01*
X130691792Y-110560000D02*
X130691792Y-117100000D01*
X128281792Y-110560000D02*
X127951792Y-110560000D01*
X130361792Y-110560000D02*
X130691792Y-110560000D01*
X127951792Y-110560000D02*
X127951792Y-117100000D01*
X127951792Y-117100000D02*
X128281792Y-117100000D01*
%TO.C,Q7*%
X105682219Y-132795319D02*
X109282219Y-132795319D01*
X107482219Y-128345318D02*
G75*
G03*
X105643741Y-132783797I0J-2600001D01*
G01*
X109320697Y-132783797D02*
G75*
G03*
X107482219Y-128345319I-1838478J1838478D01*
G01*
%TO.C,Q6*%
X99492219Y-132795319D02*
X103092219Y-132795319D01*
X103130697Y-132783797D02*
G75*
G03*
X101292219Y-128345319I-1838478J1838478D01*
G01*
X101292219Y-128345318D02*
G75*
G03*
X99453741Y-132783797I0J-2600001D01*
G01*
%TO.C,Q2*%
X106077638Y-108640978D02*
X109677638Y-108640978D01*
X107877638Y-104190977D02*
G75*
G03*
X106039160Y-108629456I0J-2600001D01*
G01*
X109716116Y-108629456D02*
G75*
G03*
X107877638Y-104190978I-1838478J1838478D01*
G01*
%TO.C,Q8*%
X44654000Y-131675289D02*
X49895000Y-131675289D01*
X46895000Y-114705289D02*
X46895000Y-111435289D01*
X46895000Y-125605289D02*
X46895000Y-122954289D01*
X44654000Y-111435289D02*
X49895000Y-111435289D01*
X44654000Y-120155289D02*
X44654000Y-117505289D01*
X49895000Y-131675289D02*
X49895000Y-111435289D01*
X44654000Y-114705289D02*
X44654000Y-111435289D01*
X44654000Y-125605289D02*
X44654000Y-122954289D01*
X44654000Y-131675289D02*
X44654000Y-128405289D01*
X44654000Y-123205289D02*
X46895000Y-123205289D01*
X46895000Y-120155289D02*
X46895000Y-117505289D01*
X44654000Y-119905289D02*
X46895000Y-119905289D01*
X46895000Y-131675289D02*
X46895000Y-128405289D01*
%TO.C,TP1*%
X97417019Y-137200000D02*
X95567019Y-137200000D01*
X97417019Y-139100000D02*
X97417019Y-137250000D01*
X95567019Y-137200000D02*
X95567019Y-139100000D01*
X95567019Y-139100000D02*
X97417019Y-139100000D01*
X97417019Y-137250000D02*
X97417019Y-137200000D01*
%TO.C,R4*%
X159090224Y-110560000D02*
X158760224Y-110560000D01*
X159090224Y-117100000D02*
X159090224Y-110560000D01*
X158760224Y-117100000D02*
X159090224Y-117100000D01*
X156680224Y-117100000D02*
X156350224Y-117100000D01*
X156350224Y-110560000D02*
X156680224Y-110560000D01*
X156350224Y-117100000D02*
X156350224Y-110560000D01*
%TO.C,D2*%
X146990896Y-112430000D02*
X144750896Y-112430000D01*
X146990896Y-112310000D02*
X144750896Y-112310000D01*
X144750896Y-111710000D02*
X144750896Y-115950000D01*
X145870896Y-116600000D02*
X145870896Y-115950000D01*
X145870896Y-111060000D02*
X145870896Y-111710000D01*
X144750896Y-115950000D02*
X146990896Y-115950000D01*
X146990896Y-115950000D02*
X146990896Y-111710000D01*
X146990896Y-111710000D02*
X144750896Y-111710000D01*
X146990896Y-112550000D02*
X144750896Y-112550000D01*
%TO.C,C3*%
X158022409Y-128600319D02*
X153282409Y-128600319D01*
X158022409Y-136040319D02*
X153282409Y-136040319D01*
X153282409Y-128600319D02*
X153282409Y-136040319D01*
X158022409Y-128600319D02*
X158022409Y-136040319D01*
%TO.C,C1*%
X90478707Y-118863000D02*
X90478707Y-108827000D01*
X86998707Y-116615000D02*
X86998707Y-113085000D01*
X88398707Y-118039000D02*
X88398707Y-115086000D01*
X88998707Y-110605000D02*
X88998707Y-109300000D01*
X86958707Y-116554000D02*
X86958707Y-113085000D01*
X90599707Y-118880000D02*
X90599707Y-108810000D01*
X90078707Y-118783000D02*
X90078707Y-108907000D01*
X89998707Y-112604000D02*
X89998707Y-108927000D01*
X87838707Y-110605000D02*
X87838707Y-110092000D01*
X90358707Y-118842000D02*
X90358707Y-108848000D01*
X89838707Y-112604000D02*
X89838707Y-108971000D01*
X87158707Y-116845000D02*
X87158707Y-113085000D01*
X87278707Y-117001000D02*
X87278707Y-113085000D01*
X89238707Y-110605000D02*
X89238707Y-109188000D01*
X90799707Y-118903000D02*
X90799707Y-108787000D01*
X87718707Y-117485000D02*
X87718707Y-115086000D01*
X88198707Y-110605000D02*
X88198707Y-109795000D01*
X86238707Y-114707000D02*
X86238707Y-112983000D01*
X90038707Y-118773000D02*
X90038707Y-108917000D01*
X89758707Y-118695000D02*
X89758707Y-115086000D01*
X89958707Y-118752000D02*
X89958707Y-115086000D01*
X89678707Y-112604000D02*
X89678707Y-109021000D01*
X89798707Y-112604000D02*
X89798707Y-108983000D01*
X88918707Y-118349000D02*
X88918707Y-115086000D01*
X88238707Y-117925000D02*
X88238707Y-115086000D01*
X89598707Y-118642000D02*
X89598707Y-115086000D01*
X87838707Y-117598000D02*
X87838707Y-115086000D01*
X88798707Y-110605000D02*
X88798707Y-109405000D01*
X88438707Y-118066000D02*
X88438707Y-115086000D01*
X89278707Y-110605000D02*
X89278707Y-109171000D01*
X89078707Y-118429000D02*
X89078707Y-115086000D01*
X87358707Y-110605000D02*
X87358707Y-110591000D01*
X88758707Y-118262000D02*
X88758707Y-115086000D01*
X88078707Y-117802000D02*
X88078707Y-115086000D01*
X86918707Y-116490000D02*
X86918707Y-113085000D01*
X90318707Y-118835000D02*
X90318707Y-108855000D01*
X90639707Y-118885000D02*
X90639707Y-108805000D01*
X88358707Y-118011000D02*
X88358707Y-115086000D01*
X88318707Y-110605000D02*
X88318707Y-109707000D01*
X87078707Y-116734000D02*
X87078707Y-113085000D01*
X88718707Y-110605000D02*
X88718707Y-109450000D01*
X86838707Y-116355000D02*
X86838707Y-111335000D01*
X90999707Y-118918000D02*
X90999707Y-108772000D01*
X87478707Y-117237000D02*
X87478707Y-113085000D01*
X88758707Y-110605000D02*
X88758707Y-109428000D01*
X88838707Y-118307000D02*
X88838707Y-115086000D01*
X88438707Y-110605000D02*
X88438707Y-109624000D01*
X90158707Y-118801000D02*
X90158707Y-108889000D01*
X89278707Y-118519000D02*
X89278707Y-115086000D01*
X89318707Y-110605000D02*
X89318707Y-109155000D01*
X90278707Y-118827000D02*
X90278707Y-108863000D01*
X87878707Y-117634000D02*
X87878707Y-115086000D01*
X96259353Y-117220000D02*
X96259353Y-116220000D01*
X88878707Y-118328000D02*
X88878707Y-115086000D01*
X89918707Y-112604000D02*
X89918707Y-108948000D01*
X88118707Y-117834000D02*
X88118707Y-115086000D01*
X87918707Y-110605000D02*
X87918707Y-110021000D01*
X90919707Y-118913000D02*
X90919707Y-108777000D01*
X89198707Y-118484000D02*
X89198707Y-115086000D01*
X89558707Y-112604000D02*
X89558707Y-109062000D01*
X86558707Y-115789000D02*
X86558707Y-111901000D01*
X89998707Y-118763000D02*
X89998707Y-115086000D01*
X91119707Y-118923000D02*
X91119707Y-108767000D01*
X86758707Y-116210000D02*
X86758707Y-111480000D01*
X88798707Y-118285000D02*
X88798707Y-115086000D01*
X86798707Y-116284000D02*
X86798707Y-111406000D01*
X89518707Y-112604000D02*
X89518707Y-109077000D01*
X90879707Y-118910000D02*
X90879707Y-108780000D01*
X89878707Y-118730000D02*
X89878707Y-115086000D01*
X90238707Y-118819000D02*
X90238707Y-108871000D01*
X96759353Y-116720000D02*
X95759353Y-116720000D01*
X90759707Y-118899000D02*
X90759707Y-108791000D01*
X89638707Y-118656000D02*
X89638707Y-115086000D01*
X90839707Y-118907000D02*
X90839707Y-108783000D01*
X88638707Y-110605000D02*
X88638707Y-109498000D01*
X90558707Y-118875000D02*
X90558707Y-108815000D01*
X89038707Y-110605000D02*
X89038707Y-109281000D01*
X87918707Y-117669000D02*
X87918707Y-115086000D01*
X89398707Y-118568000D02*
X89398707Y-115086000D01*
X90719707Y-118895000D02*
X90719707Y-108795000D01*
X89558707Y-118628000D02*
X89558707Y-115086000D01*
X91279707Y-118925000D02*
X91279707Y-108765000D01*
X89118707Y-118448000D02*
X89118707Y-115086000D01*
X90398707Y-118849000D02*
X90398707Y-108841000D01*
X87038707Y-116675000D02*
X87038707Y-113085000D01*
X88878707Y-110605000D02*
X88878707Y-109362000D01*
X87998707Y-117737000D02*
X87998707Y-115086000D01*
X88158707Y-110605000D02*
X88158707Y-109825000D01*
X87718707Y-110605000D02*
X87718707Y-110205000D01*
X89758707Y-112604000D02*
X89758707Y-108995000D01*
X88958707Y-118370000D02*
X88958707Y-115086000D01*
X87758707Y-117524000D02*
X87758707Y-115086000D01*
X86318707Y-115075000D02*
X86318707Y-112615000D01*
X87318707Y-117051000D02*
X87318707Y-113085000D01*
X87558707Y-117323000D02*
X87558707Y-115086000D01*
X87678707Y-117446000D02*
X87678707Y-115086000D01*
X87798707Y-110605000D02*
X87798707Y-110129000D01*
X88478707Y-118092000D02*
X88478707Y-115086000D01*
X87358707Y-117099000D02*
X87358707Y-113085000D01*
X89358707Y-112604000D02*
X89358707Y-109138000D01*
X87598707Y-110605000D02*
X87598707Y-110325000D01*
X87238707Y-116951000D02*
X87238707Y-113085000D01*
X87798707Y-117561000D02*
X87798707Y-115086000D01*
X88118707Y-110605000D02*
X88118707Y-109856000D01*
X89478707Y-112604000D02*
X89478707Y-109091000D01*
X89438707Y-112604000D02*
X89438707Y-109107000D01*
X89078707Y-110605000D02*
X89078707Y-109261000D01*
X87678707Y-110605000D02*
X87678707Y-110244000D01*
X90959707Y-118915000D02*
X90959707Y-108775000D01*
X88838707Y-110605000D02*
X88838707Y-109383000D01*
X88598707Y-110605000D02*
X88598707Y-109522000D01*
X86438707Y-115475000D02*
X86438707Y-112215000D01*
X88278707Y-110605000D02*
X88278707Y-109735000D01*
X90118707Y-118792000D02*
X90118707Y-108898000D01*
X86638707Y-115970000D02*
X86638707Y-111720000D01*
X88518707Y-118118000D02*
X88518707Y-115086000D01*
X87958707Y-117703000D02*
X87958707Y-115086000D01*
X88918707Y-110605000D02*
X88918707Y-109341000D01*
X89118707Y-110605000D02*
X89118707Y-109242000D01*
X86358707Y-115223000D02*
X86358707Y-112467000D01*
X86878707Y-116424000D02*
X86878707Y-113085000D01*
X90679707Y-118890000D02*
X90679707Y-108800000D01*
X88398707Y-110605000D02*
X88398707Y-109651000D01*
X89638707Y-112604000D02*
X89638707Y-109034000D01*
X90518707Y-118869000D02*
X90518707Y-108821000D01*
X86398707Y-115355000D02*
X86398707Y-112335000D01*
X88358707Y-110605000D02*
X88358707Y-109679000D01*
X88598707Y-118168000D02*
X88598707Y-115086000D01*
X88678707Y-118216000D02*
X88678707Y-115086000D01*
X87998707Y-110605000D02*
X87998707Y-109953000D01*
X87638707Y-117406000D02*
X87638707Y-115086000D01*
X86718707Y-116134000D02*
X86718707Y-111556000D01*
X88558707Y-118143000D02*
X88558707Y-115086000D01*
X86518707Y-115691000D02*
X86518707Y-111999000D01*
X86198707Y-114444000D02*
X86198707Y-113246000D01*
X88318707Y-117983000D02*
X88318707Y-115086000D01*
X91159707Y-118924000D02*
X91159707Y-108766000D01*
X89158707Y-110605000D02*
X89158707Y-109224000D01*
X87518707Y-117281000D02*
X87518707Y-113085000D01*
X86278707Y-114907000D02*
X86278707Y-112783000D01*
X89358707Y-118552000D02*
X89358707Y-115086000D01*
X89198707Y-110605000D02*
X89198707Y-109206000D01*
X87558707Y-110605000D02*
X87558707Y-110367000D01*
X91199707Y-118925000D02*
X91199707Y-108765000D01*
X89918707Y-118742000D02*
X89918707Y-115086000D01*
X87438707Y-110605000D02*
X87438707Y-110498000D01*
X88238707Y-110605000D02*
X88238707Y-109765000D01*
X89398707Y-112604000D02*
X89398707Y-109122000D01*
X89718707Y-112604000D02*
X89718707Y-109008000D01*
X86678707Y-116054000D02*
X86678707Y-111636000D01*
X89958707Y-112604000D02*
X89958707Y-108938000D01*
X87398707Y-117146000D02*
X87398707Y-113085000D01*
X90438707Y-118856000D02*
X90438707Y-108834000D01*
X88678707Y-110605000D02*
X88678707Y-109474000D01*
X89878707Y-112604000D02*
X89878707Y-108960000D01*
X89718707Y-118682000D02*
X89718707Y-115086000D01*
X88198707Y-117895000D02*
X88198707Y-115086000D01*
X87598707Y-117365000D02*
X87598707Y-115086000D01*
X88278707Y-117955000D02*
X88278707Y-115086000D01*
X89158707Y-118466000D02*
X89158707Y-115086000D01*
X87638707Y-110605000D02*
X87638707Y-110284000D01*
X87438707Y-117192000D02*
X87438707Y-113085000D01*
X89798707Y-118707000D02*
X89798707Y-115086000D01*
X88078707Y-110605000D02*
X88078707Y-109888000D01*
X88478707Y-110605000D02*
X88478707Y-109598000D01*
X88998707Y-118390000D02*
X88998707Y-115086000D01*
X86598707Y-115882000D02*
X86598707Y-111808000D01*
X88038707Y-110605000D02*
X88038707Y-109920000D01*
X89438707Y-118583000D02*
X89438707Y-115086000D01*
X89478707Y-118599000D02*
X89478707Y-115086000D01*
X89038707Y-118409000D02*
X89038707Y-115086000D01*
X88558707Y-110605000D02*
X88558707Y-109547000D01*
X89518707Y-118613000D02*
X89518707Y-115086000D01*
X89598707Y-112604000D02*
X89598707Y-109048000D01*
X87198707Y-116899000D02*
X87198707Y-113085000D01*
X88958707Y-110605000D02*
X88958707Y-109320000D01*
X88718707Y-118240000D02*
X88718707Y-115086000D01*
X88158707Y-117865000D02*
X88158707Y-115086000D01*
X90198707Y-118810000D02*
X90198707Y-108880000D01*
X89318707Y-118535000D02*
X89318707Y-115086000D01*
X87758707Y-110605000D02*
X87758707Y-110166000D01*
X89238707Y-118502000D02*
X89238707Y-115086000D01*
X91239707Y-118925000D02*
X91239707Y-108765000D01*
X91079707Y-118922000D02*
X91079707Y-108768000D01*
X87398707Y-110605000D02*
X87398707Y-110544000D01*
X87478707Y-110605000D02*
X87478707Y-110453000D01*
X87958707Y-110605000D02*
X87958707Y-109987000D01*
X88518707Y-110605000D02*
X88518707Y-109572000D01*
X87118707Y-116790000D02*
X87118707Y-113085000D01*
X89838707Y-118719000D02*
X89838707Y-115086000D01*
X89678707Y-118669000D02*
X89678707Y-115086000D01*
X88038707Y-117770000D02*
X88038707Y-115086000D01*
X91039707Y-118920000D02*
X91039707Y-108770000D01*
X86478707Y-115587000D02*
X86478707Y-112103000D01*
X87518707Y-110605000D02*
X87518707Y-110409000D01*
X88638707Y-118192000D02*
X88638707Y-115086000D01*
X87878707Y-110605000D02*
X87878707Y-110056000D01*
X96104610Y-115558098D02*
G75*
G03*
X95227719Y-117105000I-4824904J1713097D01*
G01*
%TO.C,Q11*%
X228101058Y-123007510D02*
X228067233Y-108751323D01*
X200772741Y-119531431D02*
X200750646Y-133870521D01*
X207789637Y-109307284D02*
X221020414Y-103998184D01*
X221249969Y-133343495D02*
X207824450Y-138762484D01*
X221249969Y-133343494D02*
G75*
G03*
X228113959Y-122888510I-6827536J11963161D01*
G01*
X200750645Y-133870521D02*
G75*
G03*
X207876870Y-138770059I5227974J-28281D01*
G01*
X228067878Y-108936098D02*
G75*
G03*
X221020414Y-103998184I-5201633J74232D01*
G01*
X207895138Y-109250743D02*
G75*
G03*
X200772741Y-119531431I6527294J-12129589D01*
G01*
%TO.C,TP2*%
X101497942Y-137200000D02*
X99647942Y-137200000D01*
X101497942Y-139100000D02*
X101497942Y-137250000D01*
X99647942Y-137200000D02*
X99647942Y-139100000D01*
X101497942Y-137250000D02*
X101497942Y-137200000D01*
X99647942Y-139100000D02*
X101497942Y-139100000D01*
%TO.C,D3*%
X161194011Y-131040319D02*
X158954011Y-131040319D01*
X161194011Y-130800319D02*
X158954011Y-130800319D01*
X160074011Y-129550319D02*
X160074011Y-130200319D01*
X161194011Y-134440319D02*
X161194011Y-130200319D01*
X158954011Y-134440319D02*
X161194011Y-134440319D01*
X161194011Y-130200319D02*
X158954011Y-130200319D01*
X160074011Y-135090319D02*
X160074011Y-134440319D01*
X161194011Y-130920319D02*
X158954011Y-130920319D01*
X158954011Y-130200319D02*
X158954011Y-134440319D01*
%TO.C,RV2*%
X162469011Y-127445319D02*
X162469011Y-137215319D01*
X167539011Y-127445319D02*
X167539011Y-137215319D01*
X167539011Y-127445319D02*
X162469011Y-127445319D01*
X167539011Y-137215319D02*
X162469011Y-137215319D01*
%TO.C,C7*%
X184548552Y-118408323D02*
X179970552Y-118408323D01*
X179019552Y-116088323D02*
X177695552Y-116088323D01*
X187144552Y-115248323D02*
X183500552Y-115248323D01*
X183321552Y-118848323D02*
X181197552Y-118848323D01*
X179019552Y-116608323D02*
X177986552Y-116608323D01*
X187334552Y-114087323D02*
X177184552Y-114087323D01*
X187027552Y-115608323D02*
X183500552Y-115608323D01*
X181018552Y-115408323D02*
X177422552Y-115408323D01*
X186048552Y-117248323D02*
X183500552Y-117248323D01*
X186880552Y-115968323D02*
X183500552Y-115968323D01*
X187317552Y-114327323D02*
X177201552Y-114327323D01*
X179019552Y-115928323D02*
X177620552Y-115928323D01*
X179019552Y-117328323D02*
X178543552Y-117328323D01*
X179019552Y-115808323D02*
X177569552Y-115808323D01*
X185695552Y-117608323D02*
X181499552Y-117608323D01*
X187233552Y-114888323D02*
X177285552Y-114888323D01*
X187056552Y-115528323D02*
X183500552Y-115528323D01*
X185820552Y-117488323D02*
X183500552Y-117488323D01*
X187121552Y-115328323D02*
X183500552Y-115328323D01*
X186279552Y-116968323D02*
X183500552Y-116968323D01*
X187042552Y-115568323D02*
X183500552Y-115568323D01*
X179019552Y-117448323D02*
X178658552Y-117448323D01*
X185415552Y-117848323D02*
X181499552Y-117848323D01*
X179019552Y-115888323D02*
X177602552Y-115888323D01*
X179019552Y-116928323D02*
X178209552Y-116928323D01*
X181018552Y-115208323D02*
X177362552Y-115208323D01*
X187197552Y-115048323D02*
X177321552Y-115048323D01*
X186843552Y-116048323D02*
X183500552Y-116048323D01*
X185899552Y-117408323D02*
X183500552Y-117408323D01*
X184203552Y-118568323D02*
X180315552Y-118568323D01*
X181018552Y-115608323D02*
X177491552Y-115608323D01*
X179019552Y-117648323D02*
X178867552Y-117648323D01*
X185465552Y-117808323D02*
X181499552Y-117808323D01*
X179019552Y-116448323D02*
X177888552Y-116448323D01*
X179019552Y-116888323D02*
X178179552Y-116888323D01*
X185651552Y-117648323D02*
X181499552Y-117648323D01*
X185313552Y-117928323D02*
X181499552Y-117928323D01*
X179019552Y-115848323D02*
X177585552Y-115848323D01*
X187013552Y-115648323D02*
X183500552Y-115648323D01*
X187313552Y-114367323D02*
X177205552Y-114367323D01*
X179019552Y-115968323D02*
X177638552Y-115968323D01*
X181018552Y-115568323D02*
X177476552Y-115568323D01*
X183637552Y-118768323D02*
X180881552Y-118768323D01*
X187224552Y-114928323D02*
X177294552Y-114928323D01*
X186823552Y-116088323D02*
X183500552Y-116088323D01*
X184384552Y-118488323D02*
X180134552Y-118488323D01*
X181018552Y-115368323D02*
X177409552Y-115368323D01*
X185148552Y-118048323D02*
X181499552Y-118048323D01*
X187294552Y-114527323D02*
X177224552Y-114527323D01*
X187339552Y-113927323D02*
X177179552Y-113927323D01*
X186699552Y-116328323D02*
X183500552Y-116328323D01*
X186369552Y-116848323D02*
X183500552Y-116848323D01*
X186151552Y-117128323D02*
X183500552Y-117128323D01*
X179019552Y-116248323D02*
X177776552Y-116248323D01*
X186721552Y-116288323D02*
X183500552Y-116288323D01*
X186339552Y-116888323D02*
X183500552Y-116888323D01*
X181018552Y-115528323D02*
X177462552Y-115528323D01*
X187321552Y-114287323D02*
X177197552Y-114287323D01*
X179019552Y-116128323D02*
X177714552Y-116128323D01*
X186117552Y-117168323D02*
X183500552Y-117168323D01*
X179019552Y-116848323D02*
X178149552Y-116848323D01*
X181018552Y-115648323D02*
X177505552Y-115648323D01*
X185365552Y-117888323D02*
X181499552Y-117888323D01*
X187339552Y-113887323D02*
X177179552Y-113887323D01*
X184968552Y-118168323D02*
X181499552Y-118168323D01*
X187338552Y-113967323D02*
X177180552Y-113967323D01*
X179019552Y-116488323D02*
X177912552Y-116488323D01*
X187177552Y-115128323D02*
X183500552Y-115128323D01*
X187109552Y-115368323D02*
X183500552Y-115368323D01*
X185860552Y-117448323D02*
X183500552Y-117448323D01*
X186248552Y-117008323D02*
X183500552Y-117008323D01*
X179019552Y-116048323D02*
X177675552Y-116048323D01*
X186763552Y-116208323D02*
X183500552Y-116208323D01*
X184105552Y-118608323D02*
X180413552Y-118608323D01*
X187070552Y-115488323D02*
X183500552Y-115488323D01*
X187277552Y-114648323D02*
X177241552Y-114648323D01*
X181018552Y-115248323D02*
X177374552Y-115248323D01*
X187156552Y-115208323D02*
X183500552Y-115208323D01*
X186397552Y-116808323D02*
X183500552Y-116808323D01*
X179019552Y-116528323D02*
X177936552Y-116528323D01*
X179019552Y-117168323D02*
X178401552Y-117168323D01*
X187187552Y-115088323D02*
X177331552Y-115088323D01*
X186453552Y-116728323D02*
X183500552Y-116728323D01*
X179019552Y-117728323D02*
X178958552Y-117728323D01*
X186997552Y-115688323D02*
X183500552Y-115688323D01*
X179019552Y-116368323D02*
X177842552Y-116368323D01*
X186480552Y-116688323D02*
X183500552Y-116688323D01*
X186506552Y-116648323D02*
X183500552Y-116648323D01*
X185975552Y-117328323D02*
X183500552Y-117328323D01*
X179019552Y-117608323D02*
X178823552Y-117608323D01*
X186784552Y-116168323D02*
X183500552Y-116168323D01*
X181018552Y-115488323D02*
X177448552Y-115488323D01*
X179019552Y-117208323D02*
X178435552Y-117208323D01*
X179019552Y-117408323D02*
X178619552Y-117408323D01*
X187096552Y-115408323D02*
X183500552Y-115408323D01*
X181018552Y-115728323D02*
X177536552Y-115728323D01*
X187304552Y-114447323D02*
X177214552Y-114447323D01*
X181018552Y-115688323D02*
X177521552Y-115688323D01*
X186557552Y-116568323D02*
X183500552Y-116568323D01*
X179019552Y-116688323D02*
X178038552Y-116688323D01*
X186916552Y-115888323D02*
X183500552Y-115888323D01*
X179019552Y-117128323D02*
X178367552Y-117128323D01*
X185029552Y-118128323D02*
X181499552Y-118128323D01*
X186630552Y-116448323D02*
X183500552Y-116448323D01*
X186216552Y-117048323D02*
X183500552Y-117048323D01*
X184296552Y-118528323D02*
X180222552Y-118528323D01*
X184698552Y-118328323D02*
X179820552Y-118328323D01*
X179019552Y-116168323D02*
X177734552Y-116168323D01*
X187215552Y-114968323D02*
X177303552Y-114968323D01*
X186582552Y-116528323D02*
X183500552Y-116528323D01*
X187166552Y-115168323D02*
X183500552Y-115168323D01*
X186606552Y-116488323D02*
X183500552Y-116488323D01*
X187241552Y-114848323D02*
X177277552Y-114848323D01*
X187083552Y-115448323D02*
X183500552Y-115448323D01*
X187270552Y-114688323D02*
X177248552Y-114688323D01*
X185259552Y-117968323D02*
X181499552Y-117968323D01*
X184904552Y-118208323D02*
X181499552Y-118208323D01*
X185938552Y-117368323D02*
X183500552Y-117368323D01*
X187133552Y-115288323D02*
X183500552Y-115288323D01*
X186184552Y-117088323D02*
X183500552Y-117088323D01*
X187327552Y-114207323D02*
X177191552Y-114207323D01*
X187206552Y-115008323D02*
X177312552Y-115008323D01*
X179019552Y-116288323D02*
X177797552Y-116288323D01*
X183769552Y-118728323D02*
X180749552Y-118728323D01*
X186982552Y-115728323D02*
X183500552Y-115728323D01*
X187324552Y-114247323D02*
X177194552Y-114247323D01*
X186862552Y-116008323D02*
X183500552Y-116008323D01*
X186309552Y-116928323D02*
X183500552Y-116928323D01*
X179019552Y-116408323D02*
X177864552Y-116408323D01*
X179019552Y-116008323D02*
X177656552Y-116008323D01*
X186676552Y-116368323D02*
X183500552Y-116368323D01*
X185779552Y-117528323D02*
X183500552Y-117528323D01*
X187337552Y-114007323D02*
X177181552Y-114007323D01*
X187289552Y-114568323D02*
X177229552Y-114568323D01*
X179019552Y-116328323D02*
X177819552Y-116328323D01*
X186949552Y-115808323D02*
X183500552Y-115808323D01*
X187263552Y-114728323D02*
X177255552Y-114728323D01*
X186083552Y-117208323D02*
X183500552Y-117208323D01*
X183489552Y-118808323D02*
X181029552Y-118808323D01*
X185134552Y-108367677D02*
X185134552Y-109367677D01*
X186532552Y-116608323D02*
X183500552Y-116608323D01*
X184769552Y-118288323D02*
X179749552Y-118288323D01*
X179019552Y-116768323D02*
X178093552Y-116768323D01*
X179019552Y-116968323D02*
X178239552Y-116968323D01*
X179019552Y-117368323D02*
X178580552Y-117368323D01*
X185737552Y-117568323D02*
X183500552Y-117568323D01*
X187283552Y-114608323D02*
X177235552Y-114608323D01*
X185560552Y-117728323D02*
X181499552Y-117728323D01*
X186425552Y-116768323D02*
X183500552Y-116768323D01*
X187299552Y-114487323D02*
X177219552Y-114487323D01*
X179019552Y-117528323D02*
X178739552Y-117528323D01*
X181018552Y-115448323D02*
X177435552Y-115448323D01*
X181018552Y-115768323D02*
X177552552Y-115768323D01*
X186654552Y-116408323D02*
X183500552Y-116408323D01*
X187336552Y-114047323D02*
X177182552Y-114047323D01*
X183121552Y-118888323D02*
X181397552Y-118888323D01*
X187256552Y-114768323D02*
X177262552Y-114768323D01*
X187329552Y-114167323D02*
X177189552Y-114167323D01*
X185204552Y-118008323D02*
X181499552Y-118008323D01*
X187332552Y-114127323D02*
X177186552Y-114127323D01*
X184001552Y-118648323D02*
X180517552Y-118648323D01*
X179019552Y-116208323D02*
X177755552Y-116208323D01*
X186898552Y-115928323D02*
X183500552Y-115928323D01*
X187309552Y-114407323D02*
X177209552Y-114407323D01*
X184468552Y-118448323D02*
X180050552Y-118448323D01*
X186804552Y-116128323D02*
X183500552Y-116128323D01*
X179019552Y-117248323D02*
X178470552Y-117248323D01*
X185634552Y-108867677D02*
X184634552Y-108867677D01*
X181018552Y-115288323D02*
X177385552Y-115288323D01*
X179019552Y-117008323D02*
X178270552Y-117008323D01*
X186933552Y-115848323D02*
X183500552Y-115848323D01*
X179019552Y-117048323D02*
X178302552Y-117048323D01*
X186966552Y-115768323D02*
X183500552Y-115768323D01*
X179019552Y-117488323D02*
X178698552Y-117488323D01*
X179019552Y-117288323D02*
X178506552Y-117288323D01*
X182858552Y-118928323D02*
X181660552Y-118928323D01*
X179019552Y-117768323D02*
X179005552Y-117768323D01*
X185606552Y-117688323D02*
X181499552Y-117688323D01*
X187339552Y-113847323D02*
X177179552Y-113847323D01*
X185513552Y-117768323D02*
X181499552Y-117768323D01*
X179019552Y-116648323D02*
X178012552Y-116648323D01*
X179019552Y-117688323D02*
X178912552Y-117688323D01*
X184838552Y-118248323D02*
X181499552Y-118248323D01*
X181018552Y-115328323D02*
X177397552Y-115328323D01*
X186742552Y-116248323D02*
X183500552Y-116248323D01*
X186012552Y-117288323D02*
X183500552Y-117288323D01*
X181018552Y-115168323D02*
X177352552Y-115168323D01*
X187249552Y-114808323D02*
X177269552Y-114808323D01*
X183889552Y-118688323D02*
X180629552Y-118688323D01*
X179019552Y-116568323D02*
X177961552Y-116568323D01*
X179019552Y-116728323D02*
X178065552Y-116728323D01*
X181018552Y-115128323D02*
X177341552Y-115128323D01*
X184624552Y-118368323D02*
X179894552Y-118368323D01*
X179019552Y-117568323D02*
X178781552Y-117568323D01*
X179019552Y-117088323D02*
X178334552Y-117088323D01*
X179019552Y-116808323D02*
X178121552Y-116808323D01*
X185089552Y-118088323D02*
X181499552Y-118088323D01*
X183972650Y-109022420D02*
G75*
G03*
X185519552Y-109899311I-1713097J-4824904D01*
G01*
%TO.C,D4*%
X175794011Y-130200319D02*
X175794011Y-134440319D01*
X175794011Y-133600319D02*
X178034011Y-133600319D01*
X178034011Y-134440319D02*
X178034011Y-130200319D01*
X176914011Y-135090319D02*
X176914011Y-134440319D01*
X175794011Y-133720319D02*
X178034011Y-133720319D01*
X175794011Y-133840319D02*
X178034011Y-133840319D01*
X176914011Y-129550319D02*
X176914011Y-130200319D01*
X175794011Y-134440319D02*
X178034011Y-134440319D01*
X178034011Y-130200319D02*
X175794011Y-130200319D01*
%TO.C,Q1*%
X106074530Y-113600000D02*
X109674530Y-113600000D01*
X107874530Y-109149999D02*
G75*
G03*
X106036052Y-113588478I0J-2600001D01*
G01*
X109713008Y-113588478D02*
G75*
G03*
X107874530Y-109150000I-1838478J1838478D01*
G01*
%TO.C,C6*%
X121946229Y-114728323D02*
X111938229Y-114728323D01*
X122007229Y-114247323D02*
X111877229Y-114247323D01*
X120621229Y-117368323D02*
X118183229Y-117368323D01*
X121907229Y-114928323D02*
X111977229Y-114928323D01*
X121898229Y-114968323D02*
X111986229Y-114968323D01*
X121382229Y-116328323D02*
X118183229Y-116328323D01*
X119307229Y-118368323D02*
X114577229Y-118368323D01*
X119151229Y-118448323D02*
X114733229Y-118448323D01*
X121359229Y-116368323D02*
X118183229Y-116368323D01*
X113702229Y-117368323D02*
X113263229Y-117368323D01*
X121916229Y-114888323D02*
X111968229Y-114888323D01*
X121487229Y-116128323D02*
X118183229Y-116128323D01*
X120543229Y-117448323D02*
X118183229Y-117448323D01*
X120582229Y-117408323D02*
X118183229Y-117408323D01*
X113702229Y-116168323D02*
X112417229Y-116168323D01*
X121136229Y-116728323D02*
X118183229Y-116728323D01*
X122019229Y-114047323D02*
X111865229Y-114047323D01*
X120867229Y-117088323D02*
X118183229Y-117088323D01*
X122000229Y-114327323D02*
X111884229Y-114327323D01*
X120148229Y-117808323D02*
X116182229Y-117808323D01*
X119521229Y-118248323D02*
X116182229Y-118248323D01*
X113702229Y-117048323D02*
X112985229Y-117048323D01*
X120695229Y-117288323D02*
X118183229Y-117288323D01*
X121313229Y-116448323D02*
X118183229Y-116448323D01*
X121889229Y-115008323D02*
X111995229Y-115008323D01*
X121506229Y-116088323D02*
X118183229Y-116088323D01*
X118886229Y-118568323D02*
X114998229Y-118568323D01*
X121108229Y-116768323D02*
X118183229Y-116768323D01*
X120462229Y-117528323D02*
X118183229Y-117528323D01*
X119817229Y-108367677D02*
X119817229Y-109367677D01*
X121080229Y-116808323D02*
X118183229Y-116808323D01*
X118572229Y-118688323D02*
X115312229Y-118688323D01*
X113702229Y-116928323D02*
X112892229Y-116928323D01*
X121404229Y-116288323D02*
X118183229Y-116288323D01*
X120731229Y-117248323D02*
X118183229Y-117248323D01*
X122004229Y-114287323D02*
X111880229Y-114287323D01*
X121649229Y-115768323D02*
X118183229Y-115768323D01*
X113702229Y-115888323D02*
X112285229Y-115888323D01*
X121215229Y-116608323D02*
X118183229Y-116608323D01*
X113702229Y-116688323D02*
X112721229Y-116688323D01*
X113702229Y-115848323D02*
X112268229Y-115848323D01*
X121526229Y-116048323D02*
X118183229Y-116048323D01*
X121189229Y-116648323D02*
X118183229Y-116648323D01*
X115701229Y-115408323D02*
X112105229Y-115408323D01*
X113702229Y-117128323D02*
X113050229Y-117128323D01*
X120334229Y-117648323D02*
X116182229Y-117648323D01*
X121632229Y-115808323D02*
X118183229Y-115808323D01*
X120289229Y-117688323D02*
X116182229Y-117688323D01*
X115701229Y-115728323D02*
X112219229Y-115728323D01*
X120899229Y-117048323D02*
X118183229Y-117048323D01*
X119067229Y-118488323D02*
X114817229Y-118488323D01*
X113702229Y-116208323D02*
X112438229Y-116208323D01*
X121725229Y-115568323D02*
X118183229Y-115568323D01*
X122020229Y-114007323D02*
X111864229Y-114007323D01*
X119452229Y-118288323D02*
X114432229Y-118288323D01*
X121581229Y-115928323D02*
X118183229Y-115928323D01*
X113702229Y-115808323D02*
X112252229Y-115808323D01*
X119996229Y-117928323D02*
X116182229Y-117928323D01*
X115701229Y-115328323D02*
X112080229Y-115328323D01*
X113702229Y-117648323D02*
X113550229Y-117648323D01*
X118452229Y-118728323D02*
X115432229Y-118728323D01*
X122010229Y-114207323D02*
X111874229Y-114207323D01*
X115701229Y-115448323D02*
X112118229Y-115448323D01*
X121982229Y-114487323D02*
X111902229Y-114487323D01*
X121792229Y-115368323D02*
X118183229Y-115368323D01*
X113702229Y-116128323D02*
X112397229Y-116128323D01*
X122022229Y-113847323D02*
X111862229Y-113847323D01*
X121599229Y-115888323D02*
X118183229Y-115888323D01*
X113702229Y-116288323D02*
X112480229Y-116288323D01*
X113702229Y-116408323D02*
X112547229Y-116408323D01*
X120992229Y-116928323D02*
X118183229Y-116928323D01*
X115701229Y-115768323D02*
X112235229Y-115768323D01*
X115701229Y-115568323D02*
X112159229Y-115568323D01*
X120931229Y-117008323D02*
X118183229Y-117008323D01*
X113702229Y-116808323D02*
X112804229Y-116808323D01*
X113702229Y-117488323D02*
X113381229Y-117488323D01*
X121163229Y-116688323D02*
X118183229Y-116688323D01*
X121680229Y-115688323D02*
X118183229Y-115688323D01*
X121739229Y-115528323D02*
X118183229Y-115528323D01*
X113702229Y-116568323D02*
X112644229Y-116568323D01*
X120243229Y-117728323D02*
X116182229Y-117728323D01*
X119231229Y-118408323D02*
X114653229Y-118408323D01*
X121289229Y-116488323D02*
X118183229Y-116488323D01*
X121467229Y-116168323D02*
X118183229Y-116168323D01*
X121992229Y-114407323D02*
X111892229Y-114407323D01*
X113702229Y-117208323D02*
X113118229Y-117208323D01*
X119587229Y-118208323D02*
X116182229Y-118208323D01*
X121960229Y-114648323D02*
X111924229Y-114648323D01*
X121880229Y-115048323D02*
X112004229Y-115048323D01*
X113702229Y-116608323D02*
X112669229Y-116608323D01*
X113702229Y-117288323D02*
X113189229Y-117288323D01*
X121839229Y-115208323D02*
X118183229Y-115208323D01*
X121977229Y-114527323D02*
X111907229Y-114527323D01*
X115701229Y-115608323D02*
X112174229Y-115608323D01*
X121563229Y-115968323D02*
X118183229Y-115968323D01*
X121240229Y-116568323D02*
X118183229Y-116568323D01*
X113702229Y-116728323D02*
X112748229Y-116728323D01*
X119772229Y-118088323D02*
X116182229Y-118088323D01*
X113702229Y-117248323D02*
X113153229Y-117248323D01*
X121616229Y-115848323D02*
X118183229Y-115848323D01*
X119712229Y-118128323D02*
X116182229Y-118128323D01*
X113702229Y-115928323D02*
X112303229Y-115928323D01*
X121972229Y-114568323D02*
X111912229Y-114568323D01*
X113702229Y-116768323D02*
X112776229Y-116768323D01*
X120962229Y-116968323D02*
X118183229Y-116968323D01*
X113702229Y-117768323D02*
X113688229Y-117768323D01*
X118979229Y-118528323D02*
X114905229Y-118528323D01*
X120834229Y-117128323D02*
X118183229Y-117128323D01*
X118320229Y-118768323D02*
X115564229Y-118768323D01*
X113702229Y-117328323D02*
X113226229Y-117328323D01*
X121545229Y-116008323D02*
X118183229Y-116008323D01*
X121425229Y-116248323D02*
X118183229Y-116248323D01*
X113702229Y-115968323D02*
X112321229Y-115968323D01*
X121446229Y-116208323D02*
X118183229Y-116208323D01*
X122022229Y-113887323D02*
X111862229Y-113887323D01*
X118684229Y-118648323D02*
X115200229Y-118648323D01*
X120658229Y-117328323D02*
X118183229Y-117328323D01*
X118004229Y-118848323D02*
X115880229Y-118848323D01*
X122021229Y-113967323D02*
X111863229Y-113967323D01*
X113702229Y-117008323D02*
X112953229Y-117008323D01*
X121816229Y-115288323D02*
X118183229Y-115288323D01*
X115701229Y-115688323D02*
X112204229Y-115688323D01*
X113702229Y-116968323D02*
X112922229Y-116968323D01*
X113702229Y-116528323D02*
X112619229Y-116528323D01*
X113702229Y-117448323D02*
X113341229Y-117448323D01*
X115701229Y-115368323D02*
X112092229Y-115368323D01*
X115701229Y-115288323D02*
X112068229Y-115288323D01*
X122015229Y-114127323D02*
X111869229Y-114127323D01*
X121966229Y-114608323D02*
X111918229Y-114608323D01*
X113702229Y-116848323D02*
X112832229Y-116848323D01*
X113702229Y-117728323D02*
X113641229Y-117728323D01*
X122012229Y-114167323D02*
X111872229Y-114167323D01*
X115701229Y-115128323D02*
X112024229Y-115128323D01*
X119942229Y-117968323D02*
X116182229Y-117968323D01*
X115701229Y-115488323D02*
X112131229Y-115488323D01*
X118172229Y-118808323D02*
X115712229Y-118808323D01*
X119651229Y-118168323D02*
X116182229Y-118168323D01*
X121924229Y-114848323D02*
X111960229Y-114848323D01*
X113702229Y-116328323D02*
X112502229Y-116328323D01*
X120378229Y-117608323D02*
X116182229Y-117608323D01*
X115701229Y-115208323D02*
X112045229Y-115208323D01*
X113702229Y-117168323D02*
X113084229Y-117168323D01*
X120766229Y-117208323D02*
X118183229Y-117208323D01*
X117804229Y-118888323D02*
X116080229Y-118888323D01*
X121939229Y-114768323D02*
X111945229Y-114768323D01*
X121804229Y-115328323D02*
X118183229Y-115328323D01*
X121987229Y-114447323D02*
X111897229Y-114447323D01*
X113702229Y-117528323D02*
X113422229Y-117528323D01*
X120048229Y-117888323D02*
X116182229Y-117888323D01*
X113702229Y-116888323D02*
X112862229Y-116888323D01*
X121860229Y-115128323D02*
X118183229Y-115128323D01*
X121953229Y-114688323D02*
X111931229Y-114688323D01*
X121849229Y-115168323D02*
X118183229Y-115168323D01*
X121932229Y-114808323D02*
X111952229Y-114808323D01*
X119887229Y-118008323D02*
X116182229Y-118008323D01*
X113702229Y-117088323D02*
X113017229Y-117088323D01*
X121996229Y-114367323D02*
X111888229Y-114367323D01*
X117541229Y-118928323D02*
X116343229Y-118928323D01*
X120503229Y-117488323D02*
X118183229Y-117488323D01*
X121265229Y-116528323D02*
X118183229Y-116528323D01*
X113702229Y-116088323D02*
X112378229Y-116088323D01*
X113702229Y-116048323D02*
X112358229Y-116048323D01*
X113702229Y-117688323D02*
X113595229Y-117688323D01*
X113702229Y-116488323D02*
X112595229Y-116488323D01*
X122017229Y-114087323D02*
X111867229Y-114087323D01*
X120196229Y-117768323D02*
X116182229Y-117768323D01*
X115701229Y-115648323D02*
X112188229Y-115648323D01*
X113702229Y-116648323D02*
X112695229Y-116648323D01*
X121779229Y-115408323D02*
X118183229Y-115408323D01*
X120098229Y-117848323D02*
X116182229Y-117848323D01*
X121337229Y-116408323D02*
X118183229Y-116408323D01*
X121052229Y-116848323D02*
X118183229Y-116848323D01*
X120317229Y-108867677D02*
X119317229Y-108867677D01*
X113702229Y-116248323D02*
X112459229Y-116248323D01*
X113702229Y-117608323D02*
X113506229Y-117608323D01*
X120420229Y-117568323D02*
X118183229Y-117568323D01*
X115701229Y-115528323D02*
X112145229Y-115528323D01*
X113702229Y-117408323D02*
X113302229Y-117408323D01*
X113702229Y-116448323D02*
X112571229Y-116448323D01*
X121022229Y-116888323D02*
X118183229Y-116888323D01*
X119381229Y-118328323D02*
X114503229Y-118328323D01*
X119831229Y-118048323D02*
X116182229Y-118048323D01*
X121870229Y-115088323D02*
X112014229Y-115088323D01*
X118788229Y-118608323D02*
X115096229Y-118608323D01*
X122022229Y-113927323D02*
X111862229Y-113927323D01*
X113702229Y-116368323D02*
X112525229Y-116368323D01*
X121665229Y-115728323D02*
X118183229Y-115728323D01*
X121710229Y-115608323D02*
X118183229Y-115608323D01*
X121753229Y-115488323D02*
X118183229Y-115488323D01*
X120800229Y-117168323D02*
X118183229Y-117168323D01*
X121827229Y-115248323D02*
X118183229Y-115248323D01*
X121696229Y-115648323D02*
X118183229Y-115648323D01*
X115701229Y-115168323D02*
X112035229Y-115168323D01*
X115701229Y-115248323D02*
X112057229Y-115248323D01*
X113702229Y-117568323D02*
X113464229Y-117568323D01*
X113702229Y-116008323D02*
X112339229Y-116008323D01*
X121766229Y-115448323D02*
X118183229Y-115448323D01*
X118655327Y-109022420D02*
G75*
G03*
X120202229Y-109899311I-1713097J-4824904D01*
G01*
%TO.C,Q4*%
X152752409Y-134120319D02*
X152752409Y-130520319D01*
X148302408Y-132320319D02*
G75*
G03*
X152740887Y-134158797I2600001J0D01*
G01*
X152740887Y-130481841D02*
G75*
G03*
X148302409Y-132320319I-1838478J-1838478D01*
G01*
%TO.C,D6*%
X171064011Y-130200319D02*
X168824011Y-130200319D01*
X171064011Y-134440319D02*
X171064011Y-130200319D01*
X169944011Y-129550319D02*
X169944011Y-130200319D01*
X168824011Y-133600319D02*
X171064011Y-133600319D01*
X168824011Y-134440319D02*
X171064011Y-134440319D01*
X168824011Y-133840319D02*
X171064011Y-133840319D01*
X168824011Y-133720319D02*
X171064011Y-133720319D01*
X168824011Y-130200319D02*
X168824011Y-134440319D01*
X169944011Y-135090319D02*
X169944011Y-134440319D01*
%TO.C,Q5*%
X183680000Y-124180000D02*
X180080000Y-124180000D01*
X180041522Y-124191522D02*
G75*
G03*
X181880000Y-128630000I1838478J-1838478D01*
G01*
X181880000Y-128630001D02*
G75*
G03*
X183718478Y-124191522I0J2600001D01*
G01*
%TO.C,R9*%
X127037219Y-133690319D02*
X133577219Y-133690319D01*
X133577219Y-130950319D02*
X133577219Y-131280319D01*
X127037219Y-130950319D02*
X133577219Y-130950319D01*
X127037219Y-133360319D02*
X127037219Y-133690319D01*
X133577219Y-133690319D02*
X133577219Y-133360319D01*
X127037219Y-131280319D02*
X127037219Y-130950319D01*
%TO.C,Q3*%
X109674530Y-114090000D02*
X106074530Y-114090000D01*
X106036052Y-114101522D02*
G75*
G03*
X107874530Y-118540000I1838478J-1838478D01*
G01*
X107874530Y-118540001D02*
G75*
G03*
X109713008Y-114101522I0J2600001D01*
G01*
%TO.C,R1*%
X85064530Y-110482500D02*
X85064530Y-117022500D01*
X82654530Y-110482500D02*
X82324530Y-110482500D01*
X82324530Y-110482500D02*
X82324530Y-117022500D01*
X85064530Y-117022500D02*
X84734530Y-117022500D01*
X84734530Y-110482500D02*
X85064530Y-110482500D01*
X82324530Y-117022500D02*
X82654530Y-117022500D01*
%TO.C,R5*%
X138761344Y-117100000D02*
X139091344Y-117100000D01*
X136681344Y-117100000D02*
X136351344Y-117100000D01*
X136351344Y-117100000D02*
X136351344Y-110560000D01*
X139091344Y-117100000D02*
X139091344Y-110560000D01*
X136351344Y-110560000D02*
X136681344Y-110560000D01*
X139091344Y-110560000D02*
X138761344Y-110560000D01*
%TO.C,Q10*%
X59924998Y-123229236D02*
X59947093Y-108890146D01*
X32596681Y-119753157D02*
X32630506Y-134009344D01*
X52908102Y-133453383D02*
X39677325Y-138762483D01*
X39447770Y-109417172D02*
X52873289Y-103998183D01*
X32629861Y-133824569D02*
G75*
G03*
X39677325Y-138762483I5201633J-74232D01*
G01*
X59947094Y-108890146D02*
G75*
G03*
X52820869Y-103990608I-5227974J28281D01*
G01*
X52802601Y-133509924D02*
G75*
G03*
X59924998Y-123229236I-6527294J12129589D01*
G01*
X39447770Y-109417173D02*
G75*
G03*
X32583780Y-119872157I6827536J-11963161D01*
G01*
%TO.C,R17*%
X199690000Y-108600000D02*
X190450000Y-108600000D01*
X190450000Y-128840000D02*
X199690000Y-128840000D01*
X190450000Y-108600000D02*
X190450000Y-128840000D01*
X195070000Y-107460000D02*
X195070000Y-108600000D01*
X199690000Y-128840000D02*
X199690000Y-108600000D01*
X195070000Y-129980000D02*
X195070000Y-128840000D01*
%TO.C,R3*%
X101482030Y-117115000D02*
X101152030Y-117115000D01*
X103892030Y-117115000D02*
X103892030Y-110575000D01*
X101152030Y-110575000D02*
X101482030Y-110575000D01*
X103892030Y-110575000D02*
X103562030Y-110575000D01*
X103562030Y-117115000D02*
X103892030Y-117115000D01*
X101152030Y-117115000D02*
X101152030Y-110575000D01*
%TO.C,R12*%
X163290000Y-110560000D02*
X162960000Y-110560000D01*
X162960000Y-117100000D02*
X163290000Y-117100000D01*
X163290000Y-117100000D02*
X163290000Y-110560000D01*
X160550000Y-110560000D02*
X160880000Y-110560000D01*
X160880000Y-117100000D02*
X160550000Y-117100000D01*
X160550000Y-117100000D02*
X160550000Y-110560000D01*
%TO.C,R10*%
X127027219Y-137190837D02*
X127027219Y-136860837D01*
X133567219Y-137190837D02*
X127027219Y-137190837D01*
X133567219Y-136860837D02*
X133567219Y-137190837D01*
X133567219Y-134780837D02*
X133567219Y-134450837D01*
X133567219Y-134450837D02*
X127027219Y-134450837D01*
X127027219Y-134450837D02*
X127027219Y-134780837D01*
%TO.C,R14*%
X153520448Y-115270000D02*
X153520448Y-111520000D01*
X155890448Y-117640000D02*
G75*
G03*
X155890448Y-117640000I-2370000J0D01*
G01*
%TO.C,C4*%
X174756776Y-115888323D02*
X171340776Y-115888323D01*
X166859776Y-117288323D02*
X166346776Y-117288323D01*
X172308776Y-118448323D02*
X167890776Y-118448323D01*
X166859776Y-116008323D02*
X165496776Y-116008323D01*
X166859776Y-116408323D02*
X165704776Y-116408323D01*
X174961776Y-115328323D02*
X171340776Y-115328323D01*
X172974776Y-108367677D02*
X172974776Y-109367677D01*
X166859776Y-116728323D02*
X165905776Y-116728323D01*
X175164776Y-114247323D02*
X165034776Y-114247323D01*
X171609776Y-118728323D02*
X168589776Y-118728323D01*
X173099776Y-117968323D02*
X169339776Y-117968323D01*
X175177776Y-114007323D02*
X165021776Y-114007323D01*
X173888776Y-117248323D02*
X171340776Y-117248323D01*
X174265776Y-116768323D02*
X171340776Y-116768323D01*
X166859776Y-116928323D02*
X166049776Y-116928323D01*
X172678776Y-118248323D02*
X169339776Y-118248323D01*
X173778776Y-117368323D02*
X171340776Y-117368323D01*
X168858776Y-115448323D02*
X165275776Y-115448323D01*
X175089776Y-114808323D02*
X165109776Y-114808323D01*
X175176776Y-114047323D02*
X165022776Y-114047323D01*
X166859776Y-117048323D02*
X166142776Y-117048323D01*
X174973776Y-115288323D02*
X171340776Y-115288323D01*
X171729776Y-118688323D02*
X168469776Y-118688323D01*
X173400776Y-117728323D02*
X169339776Y-117728323D01*
X174024776Y-117088323D02*
X171340776Y-117088323D01*
X174773776Y-115848323D02*
X171340776Y-115848323D01*
X172538776Y-118328323D02*
X167660776Y-118328323D01*
X172224776Y-118488323D02*
X167974776Y-118488323D01*
X175179776Y-113887323D02*
X165019776Y-113887323D01*
X172744776Y-118208323D02*
X169339776Y-118208323D01*
X175117776Y-114648323D02*
X165081776Y-114648323D01*
X174561776Y-116288323D02*
X171340776Y-116288323D01*
X174346776Y-116648323D02*
X171340776Y-116648323D01*
X166859776Y-116888323D02*
X166019776Y-116888323D01*
X174822776Y-115728323D02*
X171340776Y-115728323D01*
X172808776Y-118168323D02*
X169339776Y-118168323D01*
X173205776Y-117888323D02*
X169339776Y-117888323D01*
X170698776Y-118928323D02*
X169500776Y-118928323D01*
X175157776Y-114327323D02*
X165041776Y-114327323D01*
X168858776Y-115568323D02*
X165316776Y-115568323D01*
X174720776Y-115968323D02*
X171340776Y-115968323D01*
X168858776Y-115608323D02*
X165331776Y-115608323D01*
X174923776Y-115448323D02*
X171340776Y-115448323D01*
X172464776Y-118368323D02*
X167734776Y-118368323D01*
X166859776Y-117368323D02*
X166420776Y-117368323D01*
X171161776Y-118848323D02*
X169037776Y-118848323D01*
X166859776Y-117248323D02*
X166310776Y-117248323D01*
X175123776Y-114608323D02*
X165075776Y-114608323D01*
X175006776Y-115168323D02*
X171340776Y-115168323D01*
X166859776Y-116768323D02*
X165933776Y-116768323D01*
X168858776Y-115368323D02*
X165249776Y-115368323D01*
X166859776Y-117128323D02*
X166207776Y-117128323D01*
X166859776Y-117088323D02*
X166174776Y-117088323D01*
X166859776Y-117608323D02*
X166663776Y-117608323D01*
X173991776Y-117128323D02*
X171340776Y-117128323D01*
X166859776Y-116848323D02*
X165989776Y-116848323D01*
X166859776Y-117568323D02*
X166621776Y-117568323D01*
X175103776Y-114728323D02*
X165095776Y-114728323D01*
X174237776Y-116808323D02*
X171340776Y-116808323D01*
X174738776Y-115928323D02*
X171340776Y-115928323D01*
X174179776Y-116888323D02*
X171340776Y-116888323D01*
X166859776Y-117208323D02*
X166275776Y-117208323D01*
X166859776Y-117168323D02*
X166241776Y-117168323D01*
X172988776Y-118048323D02*
X169339776Y-118048323D01*
X174936776Y-115408323D02*
X171340776Y-115408323D01*
X173044776Y-118008323D02*
X169339776Y-118008323D01*
X166859776Y-117528323D02*
X166579776Y-117528323D01*
X172388776Y-118408323D02*
X167810776Y-118408323D01*
X174867776Y-115608323D02*
X171340776Y-115608323D01*
X174320776Y-116688323D02*
X171340776Y-116688323D01*
X168858776Y-115528323D02*
X165302776Y-115528323D01*
X166859776Y-117008323D02*
X166110776Y-117008323D01*
X174516776Y-116368323D02*
X171340776Y-116368323D01*
X166859776Y-117488323D02*
X166538776Y-117488323D01*
X172869776Y-118128323D02*
X169339776Y-118128323D01*
X175169776Y-114167323D02*
X165029776Y-114167323D01*
X166859776Y-116128323D02*
X165554776Y-116128323D01*
X173660776Y-117488323D02*
X171340776Y-117488323D01*
X175139776Y-114487323D02*
X165059776Y-114487323D01*
X175174776Y-114087323D02*
X165024776Y-114087323D01*
X173535776Y-117608323D02*
X169339776Y-117608323D01*
X166859776Y-116808323D02*
X165961776Y-116808323D01*
X173739776Y-117408323D02*
X171340776Y-117408323D01*
X166859776Y-116968323D02*
X166079776Y-116968323D01*
X173923776Y-117208323D02*
X171340776Y-117208323D01*
X166859776Y-116168323D02*
X165574776Y-116168323D01*
X173255776Y-117848323D02*
X169339776Y-117848323D01*
X174088776Y-117008323D02*
X171340776Y-117008323D01*
X174702776Y-116008323D02*
X171340776Y-116008323D01*
X173957776Y-117168323D02*
X171340776Y-117168323D01*
X168858776Y-115688323D02*
X165361776Y-115688323D01*
X166859776Y-116528323D02*
X165776776Y-116528323D01*
X174949776Y-115368323D02*
X171340776Y-115368323D01*
X168858776Y-115648323D02*
X165345776Y-115648323D01*
X166859776Y-116448323D02*
X165728776Y-116448323D01*
X166859776Y-116608323D02*
X165826776Y-116608323D01*
X174683776Y-116048323D02*
X171340776Y-116048323D01*
X175096776Y-114768323D02*
X165102776Y-114768323D01*
X174422776Y-116528323D02*
X171340776Y-116528323D01*
X166859776Y-117408323D02*
X166459776Y-117408323D01*
X175179776Y-113847323D02*
X165019776Y-113847323D01*
X166859776Y-116688323D02*
X165878776Y-116688323D01*
X174494776Y-116408323D02*
X171340776Y-116408323D01*
X166859776Y-116048323D02*
X165515776Y-116048323D01*
X171477776Y-118768323D02*
X168721776Y-118768323D01*
X173577776Y-117568323D02*
X171340776Y-117568323D01*
X166859776Y-116488323D02*
X165752776Y-116488323D01*
X174372776Y-116608323D02*
X171340776Y-116608323D01*
X174624776Y-116168323D02*
X171340776Y-116168323D01*
X173305776Y-117808323D02*
X169339776Y-117808323D01*
X168858776Y-115248323D02*
X165214776Y-115248323D01*
X166859776Y-116368323D02*
X165682776Y-116368323D01*
X173491776Y-117648323D02*
X169339776Y-117648323D01*
X166859776Y-116288323D02*
X165637776Y-116288323D01*
X166859776Y-116648323D02*
X165852776Y-116648323D01*
X172136776Y-118528323D02*
X168062776Y-118528323D01*
X173474776Y-108867677D02*
X172474776Y-108867677D01*
X174910776Y-115488323D02*
X171340776Y-115488323D01*
X174806776Y-115768323D02*
X171340776Y-115768323D01*
X174119776Y-116968323D02*
X171340776Y-116968323D01*
X166859776Y-115928323D02*
X165460776Y-115928323D01*
X174984776Y-115248323D02*
X171340776Y-115248323D01*
X175073776Y-114888323D02*
X165125776Y-114888323D01*
X168858776Y-115328323D02*
X165237776Y-115328323D01*
X174056776Y-117048323D02*
X171340776Y-117048323D01*
X174603776Y-116208323D02*
X171340776Y-116208323D01*
X173619776Y-117528323D02*
X171340776Y-117528323D01*
X174149776Y-116928323D02*
X171340776Y-116928323D01*
X173815776Y-117328323D02*
X171340776Y-117328323D01*
X173353776Y-117768323D02*
X169339776Y-117768323D01*
X174882776Y-115568323D02*
X171340776Y-115568323D01*
X166859776Y-115968323D02*
X165478776Y-115968323D01*
X173153776Y-117928323D02*
X169339776Y-117928323D01*
X166859776Y-117648323D02*
X166707776Y-117648323D01*
X166859776Y-116248323D02*
X165616776Y-116248323D01*
X174209776Y-116848323D02*
X171340776Y-116848323D01*
X172929776Y-118088323D02*
X169339776Y-118088323D01*
X175064776Y-114928323D02*
X165134776Y-114928323D01*
X175172776Y-114127323D02*
X165026776Y-114127323D01*
X171945776Y-118608323D02*
X168253776Y-118608323D01*
X166859776Y-115808323D02*
X165409776Y-115808323D01*
X171329776Y-118808323D02*
X168869776Y-118808323D01*
X166859776Y-117688323D02*
X166752776Y-117688323D01*
X166859776Y-115848323D02*
X165425776Y-115848323D01*
X175153776Y-114367323D02*
X165045776Y-114367323D01*
X175179776Y-113927323D02*
X165019776Y-113927323D01*
X168858776Y-115488323D02*
X165288776Y-115488323D01*
X166859776Y-117448323D02*
X166498776Y-117448323D01*
X174663776Y-116088323D02*
X171340776Y-116088323D01*
X174397776Y-116568323D02*
X171340776Y-116568323D01*
X166859776Y-116088323D02*
X165535776Y-116088323D01*
X174293776Y-116728323D02*
X171340776Y-116728323D01*
X174539776Y-116328323D02*
X171340776Y-116328323D01*
X174470776Y-116448323D02*
X171340776Y-116448323D01*
X175178776Y-113967323D02*
X165020776Y-113967323D01*
X175134776Y-114527323D02*
X165064776Y-114527323D01*
X175110776Y-114688323D02*
X165088776Y-114688323D01*
X175081776Y-114848323D02*
X165117776Y-114848323D01*
X175017776Y-115128323D02*
X171340776Y-115128323D01*
X175167776Y-114207323D02*
X165031776Y-114207323D01*
X174582776Y-116248323D02*
X171340776Y-116248323D01*
X168858776Y-115728323D02*
X165376776Y-115728323D01*
X174644776Y-116128323D02*
X171340776Y-116128323D01*
X174446776Y-116488323D02*
X171340776Y-116488323D01*
X166859776Y-117728323D02*
X166798776Y-117728323D01*
X171841776Y-118648323D02*
X168357776Y-118648323D01*
X166859776Y-116328323D02*
X165659776Y-116328323D01*
X174789776Y-115808323D02*
X171340776Y-115808323D01*
X174837776Y-115688323D02*
X171340776Y-115688323D01*
X168858776Y-115168323D02*
X165192776Y-115168323D01*
X173700776Y-117448323D02*
X171340776Y-117448323D01*
X168858776Y-115288323D02*
X165225776Y-115288323D01*
X174996776Y-115208323D02*
X171340776Y-115208323D01*
X168858776Y-115128323D02*
X165181776Y-115128323D01*
X175027776Y-115088323D02*
X165171776Y-115088323D01*
X166859776Y-115888323D02*
X165442776Y-115888323D01*
X168858776Y-115768323D02*
X165392776Y-115768323D01*
X175037776Y-115048323D02*
X165161776Y-115048323D01*
X168858776Y-115208323D02*
X165202776Y-115208323D01*
X175144776Y-114447323D02*
X165054776Y-114447323D01*
X166859776Y-116208323D02*
X165595776Y-116208323D01*
X166859776Y-117768323D02*
X166845776Y-117768323D01*
X174896776Y-115528323D02*
X171340776Y-115528323D01*
X173446776Y-117688323D02*
X169339776Y-117688323D01*
X175161776Y-114287323D02*
X165037776Y-114287323D01*
X175055776Y-114968323D02*
X165143776Y-114968323D01*
X166859776Y-116568323D02*
X165801776Y-116568323D01*
X173852776Y-117288323D02*
X171340776Y-117288323D01*
X174853776Y-115648323D02*
X171340776Y-115648323D01*
X168858776Y-115408323D02*
X165262776Y-115408323D01*
X175046776Y-115008323D02*
X165152776Y-115008323D01*
X172043776Y-118568323D02*
X168155776Y-118568323D01*
X175149776Y-114407323D02*
X165049776Y-114407323D01*
X175129776Y-114568323D02*
X165069776Y-114568323D01*
X166859776Y-117328323D02*
X166383776Y-117328323D01*
X170961776Y-118888323D02*
X169237776Y-118888323D01*
X172609776Y-118288323D02*
X167589776Y-118288323D01*
X171812874Y-109022420D02*
G75*
G03*
X173359776Y-109899311I-1713097J-4824904D01*
G01*
%TO.C,R7*%
X143291120Y-117100000D02*
X143291120Y-110560000D01*
X140881120Y-117100000D02*
X140551120Y-117100000D01*
X140551120Y-110560000D02*
X140881120Y-110560000D01*
X142961120Y-117100000D02*
X143291120Y-117100000D01*
X143291120Y-110560000D02*
X142961120Y-110560000D01*
X140551120Y-117100000D02*
X140551120Y-110560000D01*
%TO.C,D1*%
X148450672Y-115230000D02*
X150690672Y-115230000D01*
X150690672Y-115950000D02*
X150690672Y-111710000D01*
X148450672Y-111710000D02*
X148450672Y-115950000D01*
X148450672Y-115950000D02*
X150690672Y-115950000D01*
X149570672Y-116600000D02*
X149570672Y-115950000D01*
X150690672Y-111710000D02*
X148450672Y-111710000D01*
X149570672Y-111060000D02*
X149570672Y-111710000D01*
X148450672Y-115350000D02*
X150690672Y-115350000D01*
X148450672Y-115110000D02*
X150690672Y-115110000D01*
%TO.C,C5*%
X118209685Y-137412969D02*
X118209685Y-127282969D01*
X115448685Y-129107969D02*
X115448685Y-128358969D01*
X116608685Y-137021969D02*
X116608685Y-133588969D01*
X114888685Y-129107969D02*
X114888685Y-128869969D01*
X114288685Y-135056969D02*
X114288685Y-131587969D01*
X113608685Y-133409969D02*
X113608685Y-131285969D01*
X115208685Y-136136969D02*
X115208685Y-133588969D01*
X114768685Y-129107969D02*
X114768685Y-129000969D01*
X118009685Y-137392969D02*
X118009685Y-127302969D01*
X116888685Y-131106969D02*
X116888685Y-127564969D01*
X117088685Y-137197969D02*
X117088685Y-133588969D01*
X116808685Y-137101969D02*
X116808685Y-133588969D01*
X116648685Y-137037969D02*
X116648685Y-133588969D01*
X116048685Y-129107969D02*
X116048685Y-127952969D01*
X116288685Y-129107969D02*
X116288685Y-127822969D01*
X116088685Y-136764969D02*
X116088685Y-133588969D01*
X113728685Y-133857969D02*
X113728685Y-130837969D01*
X114448685Y-135292969D02*
X114448685Y-131587969D01*
X115368685Y-129107969D02*
X115368685Y-128422969D01*
X113528685Y-132946969D02*
X113528685Y-131748969D01*
X117128685Y-131106969D02*
X117128685Y-127485969D01*
X116808685Y-131106969D02*
X116808685Y-127593969D01*
X116288685Y-136872969D02*
X116288685Y-133588969D01*
X116128685Y-129107969D02*
X116128685Y-127907969D01*
X115568685Y-129107969D02*
X115568685Y-128267969D01*
X116728685Y-131106969D02*
X116728685Y-127624969D01*
X115368685Y-136272969D02*
X115368685Y-133588969D01*
X117888685Y-137377969D02*
X117888685Y-127317969D01*
X117328685Y-131106969D02*
X117328685Y-127429969D01*
X117808685Y-137365969D02*
X117808685Y-127329969D01*
X116488685Y-129107969D02*
X116488685Y-127726969D01*
X117768685Y-137358969D02*
X117768685Y-127336969D01*
X116368685Y-136911969D02*
X116368685Y-133588969D01*
X115968685Y-129107969D02*
X115968685Y-128000969D01*
X118409685Y-137424969D02*
X118409685Y-127270969D01*
X113848685Y-134193969D02*
X113848685Y-130501969D01*
X114648685Y-135553969D02*
X114648685Y-131587969D01*
X117048685Y-137184969D02*
X117048685Y-133588969D01*
X115968685Y-136694969D02*
X115968685Y-133588969D01*
X115808685Y-129107969D02*
X115808685Y-128100969D01*
X116408685Y-136931969D02*
X116408685Y-133588969D01*
X116768685Y-131106969D02*
X116768685Y-127609969D01*
X114928685Y-135867969D02*
X114928685Y-133588969D01*
X115608685Y-136457969D02*
X115608685Y-133588969D01*
X117208685Y-137232969D02*
X117208685Y-133588969D01*
X115888685Y-129107969D02*
X115888685Y-128049969D01*
X116248685Y-136851969D02*
X116248685Y-133588969D01*
X118569685Y-137427969D02*
X118569685Y-127267969D01*
X117608685Y-137329969D02*
X117608685Y-127365969D01*
X114088685Y-134712969D02*
X114088685Y-129982969D01*
X116688685Y-131106969D02*
X116688685Y-127640969D01*
X115488685Y-129107969D02*
X115488685Y-128327969D01*
X114248685Y-134992969D02*
X114248685Y-131587969D01*
X114728685Y-135648969D02*
X114728685Y-131587969D01*
X115248685Y-136171969D02*
X115248685Y-133588969D01*
X115528685Y-136397969D02*
X115528685Y-133588969D01*
X117448685Y-137294969D02*
X117448685Y-127400969D01*
X116368685Y-129107969D02*
X116368685Y-127783969D01*
X114488685Y-135347969D02*
X114488685Y-131587969D01*
X114688685Y-129107969D02*
X114688685Y-129093969D01*
X113688685Y-133725969D02*
X113688685Y-130969969D01*
X116928685Y-131106969D02*
X116928685Y-127550969D01*
X115128685Y-136063969D02*
X115128685Y-133588969D01*
X115648685Y-129107969D02*
X115648685Y-128209969D01*
X115128685Y-129107969D02*
X115128685Y-128631969D01*
X115088685Y-129107969D02*
X115088685Y-128668969D01*
X116328685Y-136892969D02*
X116328685Y-133588969D01*
X114408685Y-135236969D02*
X114408685Y-131587969D01*
X114168685Y-134857969D02*
X114168685Y-129837969D01*
X118609685Y-137427969D02*
X118609685Y-127267969D01*
X117288685Y-137254969D02*
X117288685Y-133588969D01*
X118529685Y-137427969D02*
X118529685Y-127267969D01*
X116048685Y-136742969D02*
X116048685Y-133588969D01*
X117168685Y-137221969D02*
X117168685Y-133588969D01*
X115408685Y-129107969D02*
X115408685Y-128390969D01*
X115248685Y-129107969D02*
X115248685Y-128523969D01*
X115168685Y-136100969D02*
X115168685Y-133588969D01*
X118369685Y-137422969D02*
X118369685Y-127272969D01*
X115768685Y-129107969D02*
X115768685Y-128126969D01*
X117648685Y-137337969D02*
X117648685Y-127357969D01*
X117008685Y-131106969D02*
X117008685Y-127523969D01*
X115288685Y-136205969D02*
X115288685Y-133588969D01*
X117328685Y-137265969D02*
X117328685Y-133588969D01*
X118489685Y-137426969D02*
X118489685Y-127268969D01*
X117288685Y-131106969D02*
X117288685Y-127440969D01*
X117128685Y-137209969D02*
X117128685Y-133588969D01*
X114328685Y-135117969D02*
X114328685Y-131587969D01*
X117168685Y-131106969D02*
X117168685Y-127473969D01*
X117969685Y-137387969D02*
X117969685Y-127307969D01*
X117208685Y-131106969D02*
X117208685Y-127462969D01*
X113648685Y-133577969D02*
X113648685Y-131117969D01*
X116208685Y-129107969D02*
X116208685Y-127864969D01*
X114728685Y-129107969D02*
X114728685Y-129046969D01*
X114768685Y-135694969D02*
X114768685Y-131587969D01*
X116168685Y-136809969D02*
X116168685Y-133588969D01*
X116768685Y-137085969D02*
X116768685Y-133588969D01*
X123589331Y-135722969D02*
X123589331Y-134722969D01*
X115048685Y-129107969D02*
X115048685Y-128707969D01*
X115288685Y-129107969D02*
X115288685Y-128489969D01*
X115608685Y-129107969D02*
X115608685Y-128237969D01*
X115808685Y-136594969D02*
X115808685Y-133588969D01*
X115728685Y-136541969D02*
X115728685Y-133588969D01*
X115568685Y-136427969D02*
X115568685Y-133588969D01*
X115168685Y-129107969D02*
X115168685Y-128594969D01*
X114848685Y-129107969D02*
X114848685Y-128911969D01*
X115088685Y-136026969D02*
X115088685Y-133588969D01*
X117688685Y-137344969D02*
X117688685Y-127350969D01*
X116968685Y-131106969D02*
X116968685Y-127536969D01*
X116968685Y-137158969D02*
X116968685Y-133588969D01*
X113768685Y-133977969D02*
X113768685Y-130717969D01*
X114008685Y-134556969D02*
X114008685Y-130138969D01*
X116648685Y-129107969D02*
X116648685Y-127657969D01*
X116488685Y-136968969D02*
X116488685Y-133588969D01*
X117368685Y-137275969D02*
X117368685Y-127419969D01*
X113928685Y-134384969D02*
X113928685Y-130310969D01*
X115888685Y-136645969D02*
X115888685Y-133588969D01*
X113888685Y-134291969D02*
X113888685Y-130403969D01*
X114528685Y-135401969D02*
X114528685Y-131587969D01*
X116408685Y-129107969D02*
X116408685Y-127763969D01*
X118449685Y-137425969D02*
X118449685Y-127269969D01*
X114968685Y-135908969D02*
X114968685Y-133588969D01*
X116528685Y-129107969D02*
X116528685Y-127708969D01*
X114368685Y-135177969D02*
X114368685Y-131587969D01*
X118289685Y-137417969D02*
X118289685Y-127277969D01*
X117248685Y-137244969D02*
X117248685Y-133588969D01*
X116008685Y-136718969D02*
X116008685Y-133588969D01*
X115648685Y-136485969D02*
X115648685Y-133588969D01*
X116448685Y-136950969D02*
X116448685Y-133588969D01*
X114048685Y-134636969D02*
X114048685Y-130058969D01*
X115928685Y-129107969D02*
X115928685Y-128024969D01*
X124089331Y-135222969D02*
X123089331Y-135222969D01*
X115848685Y-136620969D02*
X115848685Y-133588969D01*
X118249685Y-137415969D02*
X118249685Y-127279969D01*
X115048685Y-135987969D02*
X115048685Y-133588969D01*
X117728685Y-137351969D02*
X117728685Y-127343969D01*
X115008685Y-135948969D02*
X115008685Y-133588969D01*
X117248685Y-131106969D02*
X117248685Y-127450969D01*
X116688685Y-137054969D02*
X116688685Y-133588969D01*
X113968685Y-134472969D02*
X113968685Y-130222969D01*
X114848685Y-135783969D02*
X114848685Y-131587969D01*
X115008685Y-129107969D02*
X115008685Y-128746969D01*
X117408685Y-137285969D02*
X117408685Y-127409969D01*
X115448685Y-136336969D02*
X115448685Y-133588969D01*
X116528685Y-136986969D02*
X116528685Y-133588969D01*
X117088685Y-131106969D02*
X117088685Y-127497969D01*
X114808685Y-129107969D02*
X114808685Y-128955969D01*
X115488685Y-136367969D02*
X115488685Y-133588969D01*
X115768685Y-136568969D02*
X115768685Y-133588969D01*
X116928685Y-137144969D02*
X116928685Y-133588969D01*
X118169685Y-137409969D02*
X118169685Y-127285969D01*
X118049685Y-137397969D02*
X118049685Y-127297969D01*
X115208685Y-129107969D02*
X115208685Y-128558969D01*
X116008685Y-129107969D02*
X116008685Y-127976969D01*
X115928685Y-136670969D02*
X115928685Y-133588969D01*
X114568685Y-135453969D02*
X114568685Y-131587969D01*
X114608685Y-135503969D02*
X114608685Y-131587969D01*
X115728685Y-129107969D02*
X115728685Y-128153969D01*
X116128685Y-136787969D02*
X116128685Y-133588969D01*
X114128685Y-134786969D02*
X114128685Y-129908969D01*
X116888685Y-137130969D02*
X116888685Y-133588969D01*
X118129685Y-137405969D02*
X118129685Y-127289969D01*
X116608685Y-129107969D02*
X116608685Y-127673969D01*
X113808685Y-134089969D02*
X113808685Y-130605969D01*
X117008685Y-137171969D02*
X117008685Y-133588969D01*
X117568685Y-137321969D02*
X117568685Y-127373969D01*
X115528685Y-129107969D02*
X115528685Y-128297969D01*
X118089685Y-137401969D02*
X118089685Y-127293969D01*
X117929685Y-137382969D02*
X117929685Y-127312969D01*
X114888685Y-135825969D02*
X114888685Y-133588969D01*
X116208685Y-136830969D02*
X116208685Y-133588969D01*
X117488685Y-137303969D02*
X117488685Y-127391969D01*
X116088685Y-129107969D02*
X116088685Y-127930969D01*
X116848685Y-137115969D02*
X116848685Y-133588969D01*
X115848685Y-129107969D02*
X115848685Y-128074969D01*
X116568685Y-129107969D02*
X116568685Y-127690969D01*
X116248685Y-129107969D02*
X116248685Y-127843969D01*
X116728685Y-137070969D02*
X116728685Y-133588969D01*
X114688685Y-135601969D02*
X114688685Y-131587969D01*
X115408685Y-136304969D02*
X115408685Y-133588969D01*
X115688685Y-129107969D02*
X115688685Y-128181969D01*
X115328685Y-136239969D02*
X115328685Y-133588969D01*
X114968685Y-129107969D02*
X114968685Y-128786969D01*
X117848685Y-137371969D02*
X117848685Y-127323969D01*
X114928685Y-129107969D02*
X114928685Y-128827969D01*
X117528685Y-137312969D02*
X117528685Y-127382969D01*
X118329685Y-137420969D02*
X118329685Y-127274969D01*
X116848685Y-131106969D02*
X116848685Y-127579969D01*
X114808685Y-135739969D02*
X114808685Y-131587969D01*
X116168685Y-129107969D02*
X116168685Y-127885969D01*
X114208685Y-134926969D02*
X114208685Y-131587969D01*
X115688685Y-136513969D02*
X115688685Y-133588969D01*
X116448685Y-129107969D02*
X116448685Y-127744969D01*
X116568685Y-137004969D02*
X116568685Y-133588969D01*
X115328685Y-129107969D02*
X115328685Y-128455969D01*
X117048685Y-131106969D02*
X117048685Y-127510969D01*
X116328685Y-129107969D02*
X116328685Y-127802969D01*
X113568685Y-133209969D02*
X113568685Y-131485969D01*
X123434588Y-134061067D02*
G75*
G03*
X122557697Y-135607969I-4824904J1713097D01*
G01*
%TO.C,R2*%
X97859530Y-117115000D02*
X97529530Y-117115000D01*
X97529530Y-117115000D02*
X97529530Y-110575000D01*
X100269530Y-117115000D02*
X100269530Y-110575000D01*
X100269530Y-110575000D02*
X99939530Y-110575000D01*
X97529530Y-110575000D02*
X97859530Y-110575000D01*
X99939530Y-117115000D02*
X100269530Y-117115000D01*
%TD*%
M02*
