%TF.GenerationSoftware,KiCad,Pcbnew,(6.0.0)*%
%TF.CreationDate,2022-07-31T17:52:24+01:00*%
%TF.ProjectId,Lynx AMP,4c796e78-2041-44d5-902e-6b696361645f,rev?*%
%TF.SameCoordinates,Original*%
%TF.FileFunction,Soldermask,Bot*%
%TF.FilePolarity,Negative*%
%FSLAX46Y46*%
G04 Gerber Fmt 4.6, Leading zero omitted, Abs format (unit mm)*
G04 Created by KiCad (PCBNEW (6.0.0)) date 2022-07-31 17:52:24*
%MOMM*%
%LPD*%
G01*
G04 APERTURE LIST*
G04 Aperture macros list*
%AMRoundRect*
0 Rectangle with rounded corners*
0 $1 Rounding radius*
0 $2 $3 $4 $5 $6 $7 $8 $9 X,Y pos of 4 corners*
0 Add a 4 corners polygon primitive as box body*
4,1,4,$2,$3,$4,$5,$6,$7,$8,$9,$2,$3,0*
0 Add four circle primitives for the rounded corners*
1,1,$1+$1,$2,$3*
1,1,$1+$1,$4,$5*
1,1,$1+$1,$6,$7*
1,1,$1+$1,$8,$9*
0 Add four rect primitives between the rounded corners*
20,1,$1+$1,$2,$3,$4,$5,0*
20,1,$1+$1,$4,$5,$6,$7,0*
20,1,$1+$1,$6,$7,$8,$9,0*
20,1,$1+$1,$8,$9,$2,$3,0*%
%AMRotRect*
0 Rectangle, with rotation*
0 The origin of the aperture is its center*
0 $1 length*
0 $2 width*
0 $3 Rotation angle, in degrees counterclockwise*
0 Add horizontal line*
21,1,$1,$2,0,0,$3*%
G04 Aperture macros list end*
%ADD10RoundRect,0.250001X-0.799999X0.799999X-0.799999X-0.799999X0.799999X-0.799999X0.799999X0.799999X0*%
%ADD11C,2.100000*%
%ADD12C,1.600000*%
%ADD13O,1.600000X1.600000*%
%ADD14R,1.600000X1.600000*%
%ADD15C,2.400000*%
%ADD16O,2.400000X2.400000*%
%ADD17C,3.200000*%
%ADD18R,2.000000X2.000000*%
%ADD19C,2.000000*%
%ADD20R,4.500000X2.500000*%
%ADD21O,4.500000X2.500000*%
%ADD22O,5.000000X2.100000*%
%ADD23R,1.050000X1.500000*%
%ADD24O,1.050000X1.500000*%
%ADD25C,1.400000*%
%ADD26RotRect,2.600000X2.600000X56.000000*%
%ADD27C,2.600000*%
%ADD28C,6.350000*%
%ADD29C,1.440000*%
%ADD30R,1.500000X1.050000*%
%ADD31O,1.500000X1.050000*%
%ADD32O,2.100000X5.000000*%
%ADD33RotRect,2.600000X2.600000X236.000000*%
G04 APERTURE END LIST*
D10*
%TO.C,RV1*%
X78974530Y-109152500D03*
D11*
X78974530Y-113752500D03*
X78974530Y-118352500D03*
%TD*%
D12*
%TO.C,R8*%
X134117219Y-128819802D03*
D13*
X126497219Y-128819802D03*
%TD*%
D14*
%TO.C,D5*%
X173429011Y-128510319D03*
D13*
X173429011Y-136130319D03*
%TD*%
D15*
%TO.C,R15*%
X108197219Y-135135319D03*
D16*
X100577219Y-135135319D03*
%TD*%
D12*
%TO.C,R6*%
X133541344Y-110020000D03*
D13*
X133541344Y-117640000D03*
%TD*%
D15*
%TO.C,R16*%
X65575000Y-131340000D03*
D16*
X65575000Y-105940000D03*
%TD*%
D17*
%TO.C, *%
X173685305Y-106225000D03*
%TD*%
D18*
%TO.C,C2*%
X144519685Y-132347969D03*
X145191829Y-134347969D03*
D19*
X139519685Y-132347969D03*
X138847541Y-130347969D03*
%TD*%
D15*
%TO.C,R13*%
X125122016Y-110020000D03*
D16*
X125122016Y-117640000D03*
%TD*%
D20*
%TO.C,Q9*%
X213725000Y-116080289D03*
D21*
X213725000Y-121530289D03*
X213725000Y-126980289D03*
%TD*%
D22*
%TO.C,J2*%
X131965000Y-142513814D03*
X128885000Y-142513814D03*
%TD*%
D12*
%TO.C,R11*%
X129321792Y-110020000D03*
D13*
X129321792Y-117640000D03*
%TD*%
D23*
%TO.C,Q7*%
X106212219Y-130945319D03*
D24*
X107482219Y-130945319D03*
X108752219Y-130945319D03*
%TD*%
D23*
%TO.C,Q6*%
X100022219Y-130945319D03*
D24*
X101292219Y-130945319D03*
X102562219Y-130945319D03*
%TD*%
D23*
%TO.C,Q2*%
X106607638Y-106790978D03*
D24*
X107877638Y-106790978D03*
X109147638Y-106790978D03*
%TD*%
D20*
%TO.C,Q8*%
X46675000Y-127005289D03*
D21*
X46675000Y-121555289D03*
X46675000Y-116105289D03*
%TD*%
D25*
%TO.C,TP1*%
X96517019Y-138150000D03*
%TD*%
D12*
%TO.C,R4*%
X157720224Y-117640000D03*
D13*
X157720224Y-110020000D03*
%TD*%
D14*
%TO.C,D2*%
X145870896Y-110020000D03*
D13*
X145870896Y-117640000D03*
%TD*%
D12*
%TO.C,C3*%
X155652409Y-129820319D03*
X155652409Y-134820319D03*
%TD*%
D18*
%TO.C,C1*%
X93779707Y-113845000D03*
X94451851Y-115845000D03*
D19*
X88779707Y-113845000D03*
X88107563Y-111845000D03*
%TD*%
D26*
%TO.C,Q11*%
X208897630Y-119825000D03*
D27*
X217950720Y-125931387D03*
D28*
X222866245Y-108861866D03*
X205978619Y-133898801D03*
%TD*%
D22*
%TO.C,J3*%
X211610000Y-142513814D03*
X214690000Y-142513814D03*
%TD*%
D25*
%TO.C,TP2*%
X100597942Y-138150000D03*
%TD*%
D14*
%TO.C,D3*%
X160074011Y-128510319D03*
D13*
X160074011Y-136130319D03*
%TD*%
D29*
%TO.C,RV2*%
X165009011Y-134870319D03*
X165009011Y-132330319D03*
X165009011Y-129790319D03*
%TD*%
D18*
%TO.C,C7*%
X184259552Y-110675179D03*
X182259552Y-111347323D03*
D19*
X180259552Y-117019467D03*
X182259552Y-116347323D03*
%TD*%
D14*
%TO.C,D4*%
X176914011Y-136130319D03*
D13*
X176914011Y-128510319D03*
%TD*%
D23*
%TO.C,Q1*%
X106604530Y-111750000D03*
D24*
X107874530Y-111750000D03*
X109144530Y-111750000D03*
%TD*%
D18*
%TO.C,C6*%
X116942229Y-111347323D03*
X118942229Y-110675179D03*
D19*
X114942229Y-117019467D03*
X116942229Y-116347323D03*
%TD*%
D30*
%TO.C,Q4*%
X150902409Y-133590319D03*
D31*
X150902409Y-132320319D03*
X150902409Y-131050319D03*
%TD*%
D14*
%TO.C,D6*%
X169944011Y-136130319D03*
D13*
X169944011Y-128510319D03*
%TD*%
D17*
%TO.C, *%
X86925000Y-106225000D03*
%TD*%
%TO.C, *%
X65575000Y-142325000D03*
%TD*%
D23*
%TO.C,Q5*%
X183150000Y-126030000D03*
D24*
X181880000Y-126030000D03*
X180610000Y-126030000D03*
%TD*%
D22*
%TO.C,J4*%
X48490000Y-142460426D03*
X45410000Y-142460426D03*
%TD*%
D12*
%TO.C,R9*%
X126497219Y-132320319D03*
D13*
X134117219Y-132320319D03*
%TD*%
D32*
%TO.C,J1*%
X73944530Y-115275000D03*
X73944530Y-112195000D03*
%TD*%
D23*
%TO.C,Q3*%
X109144530Y-115940000D03*
D24*
X107874530Y-115940000D03*
X106604530Y-115940000D03*
%TD*%
D32*
%TO.C,J7*%
X80250000Y-129042820D03*
X80250000Y-132122820D03*
%TD*%
D12*
%TO.C,R1*%
X83694530Y-109942500D03*
D13*
X83694530Y-117562500D03*
%TD*%
D32*
%TO.C,J6*%
X89470000Y-132122820D03*
X89470000Y-129042820D03*
%TD*%
%TO.C,J5*%
X84860000Y-132122820D03*
X84860000Y-129042820D03*
%TD*%
D12*
%TO.C,R5*%
X137721344Y-117640000D03*
D13*
X137721344Y-110020000D03*
%TD*%
D33*
%TO.C,Q10*%
X51800109Y-122935667D03*
D27*
X42747019Y-116829280D03*
D28*
X54719120Y-108861866D03*
X37831494Y-133898801D03*
%TD*%
D15*
%TO.C,R17*%
X195070000Y-106020000D03*
D16*
X195070000Y-131420000D03*
%TD*%
D12*
%TO.C,R3*%
X102522030Y-117655000D03*
D13*
X102522030Y-110035000D03*
%TD*%
D12*
%TO.C,R12*%
X161920000Y-117640000D03*
D13*
X161920000Y-110020000D03*
%TD*%
D12*
%TO.C,R10*%
X134107219Y-135820837D03*
D13*
X126487219Y-135820837D03*
%TD*%
D15*
%TO.C,R14*%
X153520448Y-117640000D03*
D16*
X153520448Y-110020000D03*
%TD*%
D18*
%TO.C,C4*%
X172099776Y-110675179D03*
X170099776Y-111347323D03*
D19*
X170099776Y-116347323D03*
X168099776Y-117019467D03*
%TD*%
D12*
%TO.C,R7*%
X141921120Y-117640000D03*
D13*
X141921120Y-110020000D03*
%TD*%
D14*
%TO.C,D1*%
X149570672Y-117640000D03*
D13*
X149570672Y-110020000D03*
%TD*%
D17*
%TO.C, *%
X195070000Y-142325000D03*
%TD*%
D18*
%TO.C,C5*%
X121109685Y-132347969D03*
X121781829Y-134347969D03*
D19*
X115437541Y-130347969D03*
X116109685Y-132347969D03*
%TD*%
D12*
%TO.C,R2*%
X98899530Y-117655000D03*
D13*
X98899530Y-110035000D03*
%TD*%
M02*
