M48
; DRILL file {KiCad (6.0.0)} date Sun Jul 31 17:52:29 2022
; FORMAT={-:-/ absolute / inch / decimal}
; #@! TF.CreationDate,2022-07-31T17:52:29+01:00
; #@! TF.GenerationSoftware,Kicad,Pcbnew,(6.0.0)
; #@! TF.FileFunction,Plated,1,2,PTH
FMAT,2
INCH
; #@! TA.AperFunction,Plated,PTH,ComponentDrill
T1C0.0276
; #@! TA.AperFunction,Plated,PTH,ComponentDrill
T2C0.0295
; #@! TA.AperFunction,Plated,PTH,ComponentDrill
T3C0.0315
; #@! TA.AperFunction,Plated,PTH,ComponentDrill
T4C0.0394
; #@! TA.AperFunction,Plated,PTH,ComponentDrill
T5C0.0433
; #@! TA.AperFunction,Plated,PTH,ComponentDrill
T6C0.0472
; #@! TA.AperFunction,Plated,PTH,ComponentDrill
T7C0.0512
; #@! TA.AperFunction,Plated,PTH,ComponentDrill
T8C0.0551
; #@! TA.AperFunction,Plated,PTH,ComponentDrill
T9C0.0591
; #@! TA.AperFunction,Plated,PTH,ComponentDrill
T10C0.1575
%
G90
G05
T1
X3.7999Y-5.439
X3.9605Y-5.439
T2
X3.9379Y-5.1553
X3.9879Y-5.1553
X4.0379Y-5.1553
X4.1816Y-5.1553
X4.197Y-4.3996
X4.197Y-4.5646
X4.1972Y-4.2044
X4.2316Y-5.1553
X4.247Y-4.3996
X4.247Y-4.5646
X4.2472Y-4.2044
X4.2816Y-5.1553
X4.297Y-4.3996
X4.297Y-4.5646
X4.2972Y-4.2044
X5.941Y-5.1595
X5.941Y-5.2095
X5.941Y-5.2595
X7.1106Y-4.9618
X7.1606Y-4.9618
X7.2106Y-4.9618
T3
X3.2951Y-4.3284
X3.2951Y-4.6284
X3.8937Y-4.3321
X3.8937Y-4.6321
X4.0363Y-4.3321
X4.0363Y-4.6321
X4.9798Y-5.3473
X4.9802Y-5.0716
X4.9802Y-5.2095
X5.0914Y-4.3315
X5.0914Y-4.6315
X5.2575Y-4.3315
X5.2575Y-4.6315
X5.2798Y-5.3473
X5.2802Y-5.0716
X5.2802Y-5.2095
X5.4221Y-4.3315
X5.4221Y-4.6315
X5.5874Y-4.3315
X5.5874Y-4.6315
X5.7429Y-4.3315
X5.7429Y-4.6315
X5.8886Y-4.3315
X5.8886Y-4.6315
X6.128Y-5.111
X6.128Y-5.3079
X6.2095Y-4.3315
X6.2095Y-4.6315
X6.3021Y-5.0595
X6.3021Y-5.3595
X6.3748Y-4.3315
X6.3748Y-4.6315
X6.4964Y-5.1099
X6.4964Y-5.2099
X6.4964Y-5.3099
X6.6907Y-5.0595
X6.6907Y-5.3595
X6.8279Y-5.0595
X6.8279Y-5.3595
X6.9651Y-5.0595
X6.9651Y-5.3595
T4
X3.4688Y-4.4033
X3.4953Y-4.4821
X3.6921Y-4.4821
X3.7186Y-4.5608
X4.5253Y-4.6071
X4.5448Y-5.1318
X4.5712Y-5.2105
X4.604Y-4.3838
X4.604Y-4.5806
X4.6828Y-4.3573
X4.7681Y-5.2105
X4.7946Y-5.2893
X5.4664Y-5.1318
X5.4929Y-5.2105
X5.6898Y-5.2105
X5.7162Y-5.2893
X6.6181Y-4.6071
X6.6968Y-4.3838
X6.6968Y-4.5806
X6.7756Y-4.3573
X7.0968Y-4.6071
X7.1756Y-4.3838
X7.1756Y-4.5806
X7.2543Y-4.3573
T5
X3.1092Y-4.2973
X3.1092Y-4.4784
X3.1092Y-4.6595
T6
X2.5817Y-4.1709
X2.5817Y-5.1709
X3.9597Y-5.3203
X4.2597Y-5.3203
X4.9261Y-4.3315
X4.9261Y-4.6315
X6.0441Y-4.3315
X6.0441Y-4.6315
X7.6799Y-4.174
X7.6799Y-5.174
T7
X1.683Y-4.5996
X2.0394Y-4.84
X8.2243Y-4.7175
X8.5807Y-4.9579
T8
X1.7484Y-5.6087
X1.9484Y-5.6087
X2.9112Y-4.3778
X2.9112Y-4.5778
X3.1594Y-5.0411
X3.1594Y-5.2411
X3.3409Y-5.0411
X3.3409Y-5.2411
X3.5224Y-5.0411
X3.5224Y-5.2411
X5.0348Y-5.6108
X5.2348Y-5.6108
X8.2917Y-5.6108
X8.4917Y-5.6108
T9
X1.8376Y-4.5711
X1.8376Y-4.7856
X1.8376Y-5.0002
X8.4144Y-4.5701
X8.4144Y-4.7847
X8.4144Y-4.9992
T10
X1.4894Y-5.2716
X2.1543Y-4.2859
X8.1094Y-5.2716
X8.7743Y-4.2859
T0
M30
