%TF.GenerationSoftware,KiCad,Pcbnew,(6.0.0)*%
%TF.CreationDate,2022-07-31T17:52:24+01:00*%
%TF.ProjectId,Lynx AMP,4c796e78-2041-44d5-902e-6b696361645f,rev?*%
%TF.SameCoordinates,Original*%
%TF.FileFunction,Copper,L1,Top*%
%TF.FilePolarity,Positive*%
%FSLAX46Y46*%
G04 Gerber Fmt 4.6, Leading zero omitted, Abs format (unit mm)*
G04 Created by KiCad (PCBNEW (6.0.0)) date 2022-07-31 17:52:24*
%MOMM*%
%LPD*%
G01*
G04 APERTURE LIST*
G04 Aperture macros list*
%AMRoundRect*
0 Rectangle with rounded corners*
0 $1 Rounding radius*
0 $2 $3 $4 $5 $6 $7 $8 $9 X,Y pos of 4 corners*
0 Add a 4 corners polygon primitive as box body*
4,1,4,$2,$3,$4,$5,$6,$7,$8,$9,$2,$3,0*
0 Add four circle primitives for the rounded corners*
1,1,$1+$1,$2,$3*
1,1,$1+$1,$4,$5*
1,1,$1+$1,$6,$7*
1,1,$1+$1,$8,$9*
0 Add four rect primitives between the rounded corners*
20,1,$1+$1,$2,$3,$4,$5,0*
20,1,$1+$1,$4,$5,$6,$7,0*
20,1,$1+$1,$6,$7,$8,$9,0*
20,1,$1+$1,$8,$9,$2,$3,0*%
%AMRotRect*
0 Rectangle, with rotation*
0 The origin of the aperture is its center*
0 $1 length*
0 $2 width*
0 $3 Rotation angle, in degrees counterclockwise*
0 Add horizontal line*
21,1,$1,$2,0,0,$3*%
G04 Aperture macros list end*
%TA.AperFunction,ComponentPad*%
%ADD10RoundRect,0.250001X-0.799999X0.799999X-0.799999X-0.799999X0.799999X-0.799999X0.799999X0.799999X0*%
%TD*%
%TA.AperFunction,ComponentPad*%
%ADD11C,2.100000*%
%TD*%
%TA.AperFunction,ComponentPad*%
%ADD12C,1.600000*%
%TD*%
%TA.AperFunction,ComponentPad*%
%ADD13O,1.600000X1.600000*%
%TD*%
%TA.AperFunction,ComponentPad*%
%ADD14R,1.600000X1.600000*%
%TD*%
%TA.AperFunction,ComponentPad*%
%ADD15C,2.400000*%
%TD*%
%TA.AperFunction,ComponentPad*%
%ADD16O,2.400000X2.400000*%
%TD*%
%TA.AperFunction,ComponentPad*%
%ADD17R,2.000000X2.000000*%
%TD*%
%TA.AperFunction,ComponentPad*%
%ADD18C,2.000000*%
%TD*%
%TA.AperFunction,ComponentPad*%
%ADD19R,4.500000X2.500000*%
%TD*%
%TA.AperFunction,ComponentPad*%
%ADD20O,4.500000X2.500000*%
%TD*%
%TA.AperFunction,ComponentPad*%
%ADD21O,5.000000X2.100000*%
%TD*%
%TA.AperFunction,ComponentPad*%
%ADD22R,1.050000X1.500000*%
%TD*%
%TA.AperFunction,ComponentPad*%
%ADD23O,1.050000X1.500000*%
%TD*%
%TA.AperFunction,ComponentPad*%
%ADD24C,1.400000*%
%TD*%
%TA.AperFunction,ComponentPad*%
%ADD25RotRect,2.600000X2.600000X56.000000*%
%TD*%
%TA.AperFunction,ComponentPad*%
%ADD26C,2.600000*%
%TD*%
%TA.AperFunction,ComponentPad*%
%ADD27C,6.350000*%
%TD*%
%TA.AperFunction,ComponentPad*%
%ADD28C,1.440000*%
%TD*%
%TA.AperFunction,ComponentPad*%
%ADD29R,1.500000X1.050000*%
%TD*%
%TA.AperFunction,ComponentPad*%
%ADD30O,1.500000X1.050000*%
%TD*%
%TA.AperFunction,ComponentPad*%
%ADD31O,2.100000X5.000000*%
%TD*%
%TA.AperFunction,ComponentPad*%
%ADD32RotRect,2.600000X2.600000X236.000000*%
%TD*%
%TA.AperFunction,Conductor*%
%ADD33C,1.000000*%
%TD*%
%TA.AperFunction,Conductor*%
%ADD34C,4.000000*%
%TD*%
G04 APERTURE END LIST*
D10*
%TO.P,RV1,1,1*%
%TO.N,IN*%
X78974530Y-109152500D03*
D11*
%TO.P,RV1,2,2*%
%TO.N,Net-(R1-Pad1)*%
X78974530Y-113752500D03*
%TO.P,RV1,3,3*%
%TO.N,GND*%
X78974530Y-118352500D03*
%TD*%
D12*
%TO.P,R8,1*%
%TO.N,Net-(Q3-Pad2)*%
X134117219Y-128819802D03*
D13*
%TO.P,R8,2*%
%TO.N,Net-(C5-Pad1)*%
X126497219Y-128819802D03*
%TD*%
D14*
%TO.P,D5,1,K*%
%TO.N,Net-(D5-Pad1)*%
X173429011Y-128510319D03*
D13*
%TO.P,D5,2,A*%
%TO.N,Net-(D4-Pad1)*%
X173429011Y-136130319D03*
%TD*%
D15*
%TO.P,R15,1*%
%TO.N,Net-(Q11-Pad1)*%
X108197219Y-135135319D03*
D16*
%TO.P,R15,2*%
%TO.N,Net-(Q10-Pad1)*%
X100577219Y-135135319D03*
%TD*%
D12*
%TO.P,R6,1*%
%TO.N,Net-(C6-Pad2)*%
X133541344Y-110020000D03*
D13*
%TO.P,R6,2*%
%TO.N,GND*%
X133541344Y-117640000D03*
%TD*%
D15*
%TO.P,R16,1*%
%TO.N,OUT*%
X65575000Y-131340000D03*
D16*
%TO.P,R16,2*%
%TO.N,Net-(Q10-Pad2)*%
X65575000Y-105940000D03*
%TD*%
D17*
%TO.P,C2,1*%
%TO.N,Net-(C2-Pad1)*%
X144519685Y-132347969D03*
X145191829Y-134347969D03*
D18*
%TO.P,C2,2*%
%TO.N,GND*%
X139519685Y-132347969D03*
X138847541Y-130347969D03*
%TD*%
D15*
%TO.P,R13,1*%
%TO.N,Net-(C6-Pad2)*%
X125122016Y-110020000D03*
D16*
%TO.P,R13,2*%
%TO.N,-VDC*%
X125122016Y-117640000D03*
%TD*%
D19*
%TO.P,Q9,1,B*%
%TO.N,Net-(Q11-Pad1)*%
X213725000Y-116080289D03*
D20*
%TO.P,Q9,2,C*%
%TO.N,-VDC*%
X213725000Y-121530289D03*
%TO.P,Q9,3,E*%
%TO.N,Net-(Q11-Pad2)*%
X213725000Y-126980289D03*
%TD*%
D21*
%TO.P,J2,1,Pin_1*%
%TO.N,OUT*%
X131965000Y-142513814D03*
X128885000Y-142513814D03*
%TD*%
D12*
%TO.P,R11,1*%
%TO.N,Net-(C6-Pad2)*%
X129321792Y-110020000D03*
D13*
%TO.P,R11,2*%
%TO.N,Net-(Q4-Pad3)*%
X129321792Y-117640000D03*
%TD*%
D22*
%TO.P,Q7,1,C*%
%TO.N,-VDC*%
X106212219Y-130945319D03*
D23*
%TO.P,Q7,2,B*%
%TO.N,Net-(C3-Pad2)*%
X107482219Y-130945319D03*
%TO.P,Q7,3,E*%
%TO.N,Net-(Q11-Pad1)*%
X108752219Y-130945319D03*
%TD*%
D22*
%TO.P,Q6,1,C*%
%TO.N,+VDC*%
X100022219Y-130945319D03*
D23*
%TO.P,Q6,2,B*%
%TO.N,Net-(D4-Pad2)*%
X101292219Y-130945319D03*
%TO.P,Q6,3,E*%
%TO.N,Net-(Q10-Pad1)*%
X102562219Y-130945319D03*
%TD*%
D22*
%TO.P,Q2,1,C*%
%TO.N,Net-(Q1-Pad3)*%
X106607638Y-106790978D03*
D23*
%TO.P,Q2,2,B*%
%TO.N,Net-(D2-Pad1)*%
X107877638Y-106790978D03*
%TO.P,Q2,3,E*%
%TO.N,Net-(Q2-Pad3)*%
X109147638Y-106790978D03*
%TD*%
D19*
%TO.P,Q8,1,B*%
%TO.N,Net-(Q10-Pad1)*%
X46675000Y-127005289D03*
D20*
%TO.P,Q8,2,C*%
%TO.N,+VDC*%
X46675000Y-121555289D03*
%TO.P,Q8,3,E*%
%TO.N,Net-(Q10-Pad2)*%
X46675000Y-116105289D03*
%TD*%
D24*
%TO.P,TP1,1*%
%TO.N,Net-(Q10-Pad1)*%
X96517019Y-138150000D03*
%TD*%
D12*
%TO.P,R4,1*%
%TO.N,Net-(Q2-Pad3)*%
X157720224Y-117640000D03*
D13*
%TO.P,R4,2*%
%TO.N,Net-(C4-Pad1)*%
X157720224Y-110020000D03*
%TD*%
D14*
%TO.P,D2,1,K*%
%TO.N,Net-(D2-Pad1)*%
X145870896Y-110020000D03*
D13*
%TO.P,D2,2,A*%
%TO.N,Net-(D1-Pad1)*%
X145870896Y-117640000D03*
%TD*%
D12*
%TO.P,C3,1*%
%TO.N,Net-(C3-Pad1)*%
X155652409Y-129820319D03*
%TO.P,C3,2*%
%TO.N,Net-(C3-Pad2)*%
X155652409Y-134820319D03*
%TD*%
D17*
%TO.P,C1,1*%
%TO.N,Net-(C1-Pad1)*%
X93779707Y-113845000D03*
X94451851Y-115845000D03*
D18*
%TO.P,C1,2*%
%TO.N,Net-(C1-Pad2)*%
X88779707Y-113845000D03*
X88107563Y-111845000D03*
%TD*%
D25*
%TO.P,Q11,1,B*%
%TO.N,Net-(Q11-Pad1)*%
X208897630Y-119825000D03*
D26*
%TO.P,Q11,2,E*%
%TO.N,Net-(Q11-Pad2)*%
X217950720Y-125931387D03*
D27*
%TO.P,Q11,3,C*%
%TO.N,-VDC*%
X222866245Y-108861866D03*
X205978619Y-133898801D03*
%TD*%
D21*
%TO.P,J3,1,Pin_1*%
%TO.N,-VDC*%
X211610000Y-142513814D03*
X214690000Y-142513814D03*
%TD*%
D24*
%TO.P,TP2,*%
%TO.N,Net-(Q11-Pad1)*%
X100597942Y-138150000D03*
%TD*%
D14*
%TO.P,D3,1,K*%
%TO.N,Net-(C3-Pad2)*%
X160074011Y-128510319D03*
D13*
%TO.P,D3,2,A*%
%TO.N,Net-(D3-Pad2)*%
X160074011Y-136130319D03*
%TD*%
D28*
%TO.P,RV2,1,1*%
%TO.N,Net-(D3-Pad2)*%
X165009011Y-134870319D03*
%TO.P,RV2,2,2*%
%TO.N,Net-(C3-Pad2)*%
X165009011Y-132330319D03*
%TO.P,RV2,3,3*%
X165009011Y-129790319D03*
%TD*%
D17*
%TO.P,C7,1*%
%TO.N,Net-(C4-Pad1)*%
X184259552Y-110675179D03*
X182259552Y-111347323D03*
D18*
%TO.P,C7,2*%
%TO.N,GND*%
X180259552Y-117019467D03*
X182259552Y-116347323D03*
%TD*%
D14*
%TO.P,D4,1,K*%
%TO.N,Net-(D4-Pad1)*%
X176914011Y-136130319D03*
D13*
%TO.P,D4,2,A*%
%TO.N,Net-(D4-Pad2)*%
X176914011Y-128510319D03*
%TD*%
D22*
%TO.P,Q1,1,C*%
%TO.N,Net-(C3-Pad1)*%
X106604530Y-111750000D03*
D23*
%TO.P,Q1,2,B*%
%TO.N,Net-(C1-Pad1)*%
X107874530Y-111750000D03*
%TO.P,Q1,3,E*%
%TO.N,Net-(Q1-Pad3)*%
X109144530Y-111750000D03*
%TD*%
D17*
%TO.P,C6,1*%
%TO.N,GND*%
X116942229Y-111347323D03*
X118942229Y-110675179D03*
D18*
%TO.P,C6,2*%
%TO.N,Net-(C6-Pad2)*%
X114942229Y-117019467D03*
X116942229Y-116347323D03*
%TD*%
D29*
%TO.P,Q4,1,C*%
%TO.N,Net-(C3-Pad2)*%
X150902409Y-133590319D03*
D30*
%TO.P,Q4,2,B*%
%TO.N,Net-(C3-Pad1)*%
X150902409Y-132320319D03*
%TO.P,Q4,3,E*%
%TO.N,Net-(Q4-Pad3)*%
X150902409Y-131050319D03*
%TD*%
D14*
%TO.P,D6,1,K*%
%TO.N,Net-(D3-Pad2)*%
X169944011Y-136130319D03*
D13*
%TO.P,D6,2,A*%
%TO.N,Net-(D5-Pad1)*%
X169944011Y-128510319D03*
%TD*%
D22*
%TO.P,Q5,1,C*%
%TO.N,Net-(D4-Pad2)*%
X183150000Y-126030000D03*
D23*
%TO.P,Q5,2,B*%
%TO.N,Net-(C4-Pad2)*%
X181880000Y-126030000D03*
%TO.P,Q5,3,E*%
%TO.N,Net-(Q5-Pad3)*%
X180610000Y-126030000D03*
%TD*%
D21*
%TO.P,J4,1,Pin_1*%
%TO.N,+VDC*%
X48490000Y-142460426D03*
X45410000Y-142460426D03*
%TD*%
D12*
%TO.P,R9,1*%
%TO.N,Net-(Q3-Pad2)*%
X126497219Y-132320319D03*
D13*
%TO.P,R9,2*%
%TO.N,Net-(C2-Pad1)*%
X134117219Y-132320319D03*
%TD*%
D31*
%TO.P,J1,1,Pin_1*%
%TO.N,IN*%
X73944530Y-115275000D03*
X73944530Y-112195000D03*
%TD*%
D22*
%TO.P,Q3,1,C*%
%TO.N,Net-(C6-Pad2)*%
X109144530Y-115940000D03*
D23*
%TO.P,Q3,2,B*%
%TO.N,Net-(Q3-Pad2)*%
X107874530Y-115940000D03*
%TO.P,Q3,3,E*%
%TO.N,Net-(Q1-Pad3)*%
X106604530Y-115940000D03*
%TD*%
D31*
%TO.P,J7,1,Pin_1*%
%TO.N,GND*%
X80250000Y-129042820D03*
X80250000Y-132122820D03*
%TD*%
D12*
%TO.P,R1,1*%
%TO.N,Net-(R1-Pad1)*%
X83694530Y-109942500D03*
D13*
%TO.P,R1,2*%
%TO.N,Net-(C1-Pad2)*%
X83694530Y-117562500D03*
%TD*%
D31*
%TO.P,J6,1,Pin_1*%
%TO.N,GND*%
X89470000Y-132122820D03*
X89470000Y-129042820D03*
%TD*%
%TO.P,J5,1,Pin_1*%
%TO.N,GND*%
X84860000Y-132122820D03*
X84860000Y-129042820D03*
%TD*%
D12*
%TO.P,R5,1*%
%TO.N,GND*%
X137721344Y-117640000D03*
D13*
%TO.P,R5,2*%
%TO.N,Net-(D2-Pad1)*%
X137721344Y-110020000D03*
%TD*%
D32*
%TO.P,Q10,1,B*%
%TO.N,Net-(Q10-Pad1)*%
X51800109Y-122935667D03*
D26*
%TO.P,Q10,2,E*%
%TO.N,Net-(Q10-Pad2)*%
X42747019Y-116829280D03*
D27*
%TO.P,Q10,3,C*%
%TO.N,+VDC*%
X54719120Y-108861866D03*
X37831494Y-133898801D03*
%TD*%
D15*
%TO.P,R17,1*%
%TO.N,Net-(Q11-Pad2)*%
X195070000Y-106020000D03*
D16*
%TO.P,R17,2*%
%TO.N,OUT*%
X195070000Y-131420000D03*
%TD*%
D12*
%TO.P,R3,1*%
%TO.N,Net-(C6-Pad2)*%
X102522030Y-117655000D03*
D13*
%TO.P,R3,2*%
%TO.N,Net-(C3-Pad1)*%
X102522030Y-110035000D03*
%TD*%
D12*
%TO.P,R12,1*%
%TO.N,Net-(Q5-Pad3)*%
X161920000Y-117640000D03*
D13*
%TO.P,R12,2*%
%TO.N,Net-(C4-Pad1)*%
X161920000Y-110020000D03*
%TD*%
D12*
%TO.P,R10,1*%
%TO.N,Net-(C2-Pad1)*%
X134107219Y-135820837D03*
D13*
%TO.P,R10,2*%
%TO.N,OUT*%
X126487219Y-135820837D03*
%TD*%
D15*
%TO.P,R14,1*%
%TO.N,+VDC*%
X153520448Y-117640000D03*
D16*
%TO.P,R14,2*%
%TO.N,Net-(C4-Pad1)*%
X153520448Y-110020000D03*
%TD*%
D17*
%TO.P,C4,1*%
%TO.N,Net-(C4-Pad1)*%
X172099776Y-110675179D03*
X170099776Y-111347323D03*
D18*
%TO.P,C4,2*%
%TO.N,Net-(C4-Pad2)*%
X170099776Y-116347323D03*
X168099776Y-117019467D03*
%TD*%
D12*
%TO.P,R7,1*%
%TO.N,Net-(C4-Pad2)*%
X141921120Y-117640000D03*
D13*
%TO.P,R7,2*%
%TO.N,Net-(D2-Pad1)*%
X141921120Y-110020000D03*
%TD*%
D14*
%TO.P,D1,1,K*%
%TO.N,Net-(D1-Pad1)*%
X149570672Y-117640000D03*
D13*
%TO.P,D1,2,A*%
%TO.N,Net-(C4-Pad1)*%
X149570672Y-110020000D03*
%TD*%
D17*
%TO.P,C5,1*%
%TO.N,Net-(C5-Pad1)*%
X121109685Y-132347969D03*
X121781829Y-134347969D03*
D18*
%TO.P,C5,2*%
%TO.N,OUT*%
X115437541Y-130347969D03*
X116109685Y-132347969D03*
%TD*%
D12*
%TO.P,R2,1*%
%TO.N,GND*%
X98899530Y-117655000D03*
D13*
%TO.P,R2,2*%
%TO.N,Net-(C1-Pad1)*%
X98899530Y-110035000D03*
%TD*%
D33*
%TO.N,Net-(C1-Pad1)*%
X98899530Y-112700000D02*
X98899530Y-110035000D01*
X107874530Y-113014086D02*
X107597638Y-113290978D01*
X94333729Y-113290978D02*
X93779707Y-113845000D01*
X107874530Y-111750000D02*
X107874530Y-113014086D01*
X107597638Y-113290978D02*
X94333729Y-113290978D01*
%TO.N,Net-(C1-Pad2)*%
X88107563Y-111845000D02*
X88107563Y-113149467D01*
X88107563Y-113149467D02*
X83694530Y-117562500D01*
%TO.N,Net-(C2-Pad1)*%
X143718961Y-135820837D02*
X145191829Y-134347969D01*
X134117219Y-132320319D02*
X134117219Y-135810837D01*
X134107219Y-135820837D02*
X143718961Y-135820837D01*
%TO.N,Net-(C3-Pad1)*%
X91277638Y-109890978D02*
X91277638Y-118827638D01*
X100398008Y-107910978D02*
X93257638Y-107910978D01*
X150177655Y-132320319D02*
X149496240Y-131638904D01*
X155129511Y-132320319D02*
X150902409Y-132320319D01*
X146599510Y-123374510D02*
X95824510Y-123374510D01*
X149496240Y-131388904D02*
X149452889Y-131345553D01*
X93257638Y-107910978D02*
X91277638Y-109890978D01*
X106604530Y-111750000D02*
X104237030Y-111750000D01*
X104237030Y-111750000D02*
X102522030Y-110035000D01*
X149452889Y-126227889D02*
X146599510Y-123374510D01*
X150902409Y-132320319D02*
X150177655Y-132320319D01*
X102522030Y-110035000D02*
X100398008Y-107910978D01*
X95824510Y-123374510D02*
X91277638Y-118827638D01*
X149496240Y-131638904D02*
X149496240Y-131388904D01*
X155652409Y-129820319D02*
X155652409Y-131797421D01*
X155652409Y-131797421D02*
X155129511Y-132320319D01*
X149452889Y-131345553D02*
X149452889Y-126227889D01*
%TO.N,Net-(C3-Pad2)*%
X112940806Y-124800000D02*
X145925000Y-124800000D01*
X155652409Y-134820319D02*
X155652409Y-133593217D01*
X165009011Y-129790319D02*
X165009011Y-132330319D01*
X145925000Y-124800000D02*
X148184229Y-127059229D01*
X155652409Y-133593217D02*
X155649511Y-133590319D01*
X160444927Y-133590319D02*
X163749011Y-133590319D01*
X149251291Y-133590319D02*
X150902409Y-133590319D01*
X163749011Y-133590319D02*
X165009011Y-132330319D01*
X148184229Y-127059229D02*
X148184229Y-132523257D01*
X160074011Y-133219403D02*
X160444927Y-133590319D01*
X107482219Y-130258587D02*
X112940806Y-124800000D01*
X150902409Y-133590319D02*
X160444927Y-133590319D01*
X107482219Y-130945319D02*
X107482219Y-130258587D01*
X160074011Y-128510319D02*
X160074011Y-133219403D01*
X148184229Y-132523257D02*
X149251291Y-133590319D01*
%TO.N,Net-(C4-Pad1)*%
X184259552Y-110675179D02*
X172099776Y-110675179D01*
X171444597Y-110020000D02*
X172099776Y-110675179D01*
X149570672Y-110020000D02*
X171444597Y-110020000D01*
%TO.N,Net-(C4-Pad2)*%
X144281120Y-120000000D02*
X141921120Y-117640000D01*
X151975000Y-124075000D02*
X147900000Y-120000000D01*
X181880000Y-126030000D02*
X181880000Y-122870000D01*
X170099776Y-116347323D02*
X168771920Y-116347323D01*
X175575000Y-124075000D02*
X151975000Y-124075000D01*
X181275000Y-128225000D02*
X179725000Y-128225000D01*
X179725000Y-128225000D02*
X175575000Y-124075000D01*
X181880000Y-122870000D02*
X179560000Y-120550000D01*
X168830000Y-120550000D02*
X168099776Y-119819776D01*
X179560000Y-120550000D02*
X168830000Y-120550000D01*
X147900000Y-120000000D02*
X144281120Y-120000000D01*
X181880000Y-127620000D02*
X181275000Y-128225000D01*
X168099776Y-119819776D02*
X168099776Y-117019467D01*
X181880000Y-126030000D02*
X181880000Y-127620000D01*
X168771920Y-116347323D02*
X168099776Y-117019467D01*
%TO.N,Net-(C5-Pad1)*%
X121781829Y-134347969D02*
X121781829Y-133020113D01*
X122969052Y-132347969D02*
X126497219Y-128819802D01*
X121109685Y-132347969D02*
X122969052Y-132347969D01*
X121781829Y-133020113D02*
X121109685Y-132347969D01*
D34*
%TO.N,OUT*%
X76748814Y-142513814D02*
X65575000Y-131340000D01*
X183976186Y-142513814D02*
X195070000Y-131420000D01*
D33*
X115437541Y-130347969D02*
X115437541Y-131675825D01*
D34*
X115236186Y-142513814D02*
X76748814Y-142513814D01*
D33*
X126487219Y-135820837D02*
X126487219Y-141116033D01*
X116109685Y-141640315D02*
X115236186Y-142513814D01*
X115437541Y-131675825D02*
X116109685Y-132347969D01*
D34*
X127885000Y-142513814D02*
X183976186Y-142513814D01*
D33*
X116109685Y-132347969D02*
X116109685Y-141640315D01*
D34*
X132965000Y-142513814D02*
X115236186Y-142513814D01*
D33*
X126487219Y-141116033D02*
X127885000Y-142513814D01*
%TO.N,Net-(C6-Pad2)*%
X133541344Y-110020000D02*
X123269552Y-110020000D01*
X123269552Y-110020000D02*
X116942229Y-116347323D01*
X109144530Y-117430470D02*
X108920000Y-117655000D01*
X108920000Y-117655000D02*
X115634552Y-117655000D01*
X102522030Y-117655000D02*
X108920000Y-117655000D01*
X109144530Y-115940000D02*
X109144530Y-117430470D01*
X115634552Y-117655000D02*
X116942229Y-116347323D01*
%TO.N,Net-(D1-Pad1)*%
X145870896Y-117640000D02*
X149570672Y-117640000D01*
%TO.N,Net-(D2-Pad1)*%
X135250000Y-104900000D02*
X108875000Y-104900000D01*
X108875000Y-104900000D02*
X107877638Y-105897362D01*
X107877638Y-105897362D02*
X107877638Y-106790978D01*
X145870896Y-110020000D02*
X137721344Y-110020000D01*
X137721344Y-107371344D02*
X135250000Y-104900000D01*
X137721344Y-110020000D02*
X137721344Y-107371344D01*
%TO.N,Net-(D3-Pad2)*%
X164909511Y-136130319D02*
X160074011Y-136130319D01*
X169944011Y-136130319D02*
X164909511Y-136130319D01*
X165009011Y-136030819D02*
X164909511Y-136130319D01*
X165009011Y-134870319D02*
X165009011Y-136030819D01*
%TO.N,Net-(D4-Pad1)*%
X173429011Y-136130319D02*
X176914011Y-136130319D01*
%TO.N,Net-(D4-Pad2)*%
X176914011Y-128510319D02*
X176914011Y-131039403D01*
X181987389Y-131712611D02*
X183150000Y-130550000D01*
X177587219Y-131712611D02*
X181987389Y-131712611D01*
X183150000Y-130550000D02*
X183150000Y-126030000D01*
X176914011Y-131039403D02*
X177587219Y-131712611D01*
%TO.N,Net-(D5-Pad1)*%
X169944011Y-128510319D02*
X173429011Y-128510319D01*
%TO.N,IN*%
X73944530Y-116275000D02*
X73944530Y-111195000D01*
X73944530Y-111195000D02*
X76932030Y-111195000D01*
X76932030Y-111195000D02*
X78974530Y-109152500D01*
D34*
%TO.N,-VDC*%
X215211186Y-142513814D02*
X210610000Y-142513814D01*
X222866245Y-132808755D02*
X221776199Y-133898801D01*
X222505289Y-121530289D02*
X222866245Y-121891245D01*
X215690000Y-142513814D02*
X215211186Y-142513814D01*
X213326199Y-133898801D02*
X205978619Y-133898801D01*
X222866245Y-108861866D02*
X222866245Y-132808755D01*
X213326199Y-133898801D02*
X213326199Y-140628827D01*
X221776199Y-133898801D02*
X213326199Y-133898801D01*
X213725000Y-121530289D02*
X222505289Y-121530289D01*
%TO.N,+VDC*%
X37831494Y-121668506D02*
X37831494Y-119831494D01*
X42836866Y-108861866D02*
X41076122Y-108861866D01*
X37831494Y-133898801D02*
X37831494Y-121668506D01*
X37831494Y-133898801D02*
X37831494Y-135881920D01*
X37944711Y-121555289D02*
X37831494Y-121668506D01*
X42836866Y-108861866D02*
X54719120Y-108861866D01*
X37831494Y-119831494D02*
X37831494Y-112106494D01*
X41076122Y-108861866D02*
X37831494Y-112106494D01*
X46675000Y-121555289D02*
X37944711Y-121555289D01*
X49490000Y-142460426D02*
X44410000Y-142460426D01*
X37831494Y-135881920D02*
X44410000Y-142460426D01*
D33*
%TO.N,Net-(Q1-Pad3)*%
X109144530Y-111750000D02*
X109144530Y-110440966D01*
X106604530Y-115125000D02*
X106604530Y-115940000D01*
X106607638Y-107904074D02*
X106607638Y-106790978D01*
X109144530Y-113440450D02*
X108094491Y-114490489D01*
X108094491Y-114490489D02*
X107239041Y-114490489D01*
X107239041Y-114490489D02*
X106604530Y-115125000D01*
X109144530Y-111750000D02*
X109144530Y-113440450D01*
X109144530Y-110440966D02*
X106607638Y-107904074D01*
%TO.N,Net-(Q2-Pad3)*%
X135600000Y-111250000D02*
X135600000Y-108325000D01*
X135600000Y-108325000D02*
X134065978Y-106790978D01*
X137834888Y-113484888D02*
X135600000Y-111250000D01*
X153565112Y-113484888D02*
X137834888Y-113484888D01*
X134065978Y-106790978D02*
X109147638Y-106790978D01*
X157720224Y-117640000D02*
X153565112Y-113484888D01*
%TO.N,Net-(Q3-Pad2)*%
X129997736Y-128819802D02*
X126497219Y-132320319D01*
X134117219Y-128819802D02*
X129997736Y-128819802D01*
%TO.N,Net-(Q4-Pad3)*%
X129321792Y-117640000D02*
X133856792Y-122175000D01*
X133856792Y-122175000D02*
X147425000Y-122175000D01*
X147425000Y-122175000D02*
X150902409Y-125652409D01*
X150902409Y-131050319D02*
X150902409Y-125652409D01*
%TO.N,Net-(Q5-Pad3)*%
X180610000Y-126030000D02*
X180610000Y-123750000D01*
X161920000Y-120810000D02*
X163350000Y-122240000D01*
X163350000Y-122240000D02*
X179100000Y-122240000D01*
X161920000Y-117640000D02*
X161920000Y-120810000D01*
X179100000Y-122240000D02*
X180610000Y-123750000D01*
D34*
%TO.N,Net-(Q10-Pad2)*%
X61569711Y-116105289D02*
X46675000Y-116105289D01*
X46675000Y-116105289D02*
X43471010Y-116105289D01*
X43471010Y-116105289D02*
X42747019Y-116829280D01*
X65575000Y-105940000D02*
X65575000Y-112100000D01*
X65575000Y-112100000D02*
X61569711Y-116105289D01*
%TO.N,Net-(Q11-Pad2)*%
X202930289Y-126980289D02*
X213725000Y-126980289D01*
X213725000Y-126980289D02*
X216901818Y-126980289D01*
X216901818Y-126980289D02*
X217950720Y-125931387D01*
X195070000Y-119120000D02*
X202930289Y-126980289D01*
X195070000Y-106020000D02*
X195070000Y-119120000D01*
D33*
%TO.N,Net-(Q10-Pad1)*%
X102562219Y-133150319D02*
X100577219Y-135135319D01*
X79525000Y-138175000D02*
X97537538Y-138175000D01*
X51800109Y-122935667D02*
X64285667Y-122935667D01*
X97537538Y-138175000D02*
X100577219Y-135135319D01*
X102562219Y-130945319D02*
X102562219Y-133150319D01*
X47730487Y-127005289D02*
X51800109Y-122935667D01*
X64285667Y-122935667D02*
X79525000Y-138175000D01*
%TO.N,Net-(Q11-Pad1)*%
X208897630Y-115952370D02*
X209025549Y-116080289D01*
X146984719Y-127884719D02*
X146984719Y-133020111D01*
X193325000Y-103225000D02*
X205750000Y-103225000D01*
X189275000Y-131325000D02*
X189275000Y-107275000D01*
X208897630Y-115952370D02*
X208897630Y-119825000D01*
X189275000Y-107275000D02*
X193325000Y-103225000D01*
X208897630Y-106372630D02*
X208897630Y-115952370D01*
X108752219Y-134580319D02*
X108752219Y-130945319D01*
X113447538Y-126250000D02*
X145350000Y-126250000D01*
X108752219Y-130945319D02*
X113447538Y-126250000D01*
X100597942Y-138150000D02*
X105182538Y-138150000D01*
X108197219Y-135135319D02*
X108752219Y-134580319D01*
X151594438Y-137629830D02*
X182970170Y-137629830D01*
X205750000Y-103225000D02*
X208897630Y-106372630D01*
X182970170Y-137629830D02*
X189275000Y-131325000D01*
X209025549Y-116080289D02*
X213725000Y-116080289D01*
X145350000Y-126250000D02*
X146984719Y-127884719D01*
X105182538Y-138150000D02*
X108197219Y-135135319D01*
X146984719Y-133020111D02*
X151594438Y-137629830D01*
%TO.N,Net-(R1-Pad1)*%
X78974530Y-113752500D02*
X79884530Y-113752500D01*
X79884530Y-113752500D02*
X83694530Y-109942500D01*
%TD*%
M02*
